<?xml version="1.0" encoding="UTF-8"?>
<svg version="1.1" xmlns="http://www.w3.org/2000/svg" width="200" height="200">
<path d="M0 0 C56.1 0 112.2 0 170 0 C170 0.66 170 1.32 170 2 C170.721875 2.0825 171.44375 2.165 172.1875 2.25 C177.66745264 3.7113207 181.07713966 7.56701807 183.93660545 12.28604126 C186.31438771 18.35453479 185.64307281 25.17505508 185.56762695 31.60546875 C185.56621517 33.29135597 185.56701101 34.97724627 185.56983948 36.66313171 C185.57126995 41.22270172 185.54194031 45.78160971 185.50696969 50.34102631 C185.47564439 55.11224482 185.47277059 59.88347968 185.46684265 64.65478516 C185.45132233 73.68219465 185.4103184 82.70930022 185.3600952 91.73657608 C185.30414533 102.01705505 185.27670105 112.29754877 185.25161803 122.57814217 C185.19940094 143.71893086 185.1114939 164.85944626 185 186 C184.34 186 183.68 186 183 186 C182.938125 186.53625 182.87625 187.0725 182.8125 187.625 C181.24377718 192.21049747 177.95930654 195.36046231 174 198 C173.01 198 172.02 198 171 198 C171 198.66 171 199.32 171 200 C148.85989878 200.14026649 126.71987099 200.24601834 104.57941532 200.31087303 C94.29880467 200.34178891 84.01847037 200.3839261 73.73803711 200.45263672 C64.77583342 200.51250814 55.81382991 200.55116564 46.85143179 200.56453097 C42.10739349 200.57234164 37.36392779 200.59065096 32.62007332 200.63438034 C28.15070858 200.67524389 23.68214978 200.68764148 19.21261597 200.67864609 C17.57638093 200.68029061 15.94011768 200.69214409 14.30404472 200.71523285 C-1.07205263 200.92149835 -1.07205263 200.92149835 -7.18809414 195.844697 C-7.78602307 195.23594699 -8.38395201 194.62719698 -9 194 C-9.91294752 193.10150912 -9.91294752 193.10150912 -10.84433842 192.18486691 C-16.61421399 185.22672042 -15.8021897 176.89830919 -15.68115234 168.37280273 C-15.67945774 166.69662029 -15.68041411 165.0204334 -15.68380737 163.34425354 C-15.68552221 158.81561037 -15.65035608 154.28792929 -15.60836363 149.75950885 C-15.57074358 145.01900846 -15.5673224 140.27848369 -15.56021118 135.53785706 C-15.54159537 126.57062216 -15.49240273 117.60382847 -15.43211424 108.63678747 C-15.36494727 98.42401813 -15.33203452 88.21122724 -15.30194163 77.99829185 C-15.23930066 56.9986154 -15.13382935 35.99933555 -15 15 C-14.34 15 -13.68 15 -13 15 C-12.9175 14.278125 -12.835 13.55625 -12.75 12.8125 C-11.46919657 8.00948715 -8.24356479 4.51961659 -4 2 C-2.68 2 -1.36 2 0 2 C0 1.34 0 0.68 0 0 Z M100.59270096 9.18390274 C90.95567795 9.22372983 81.31873709 9.25610538 71.68164062 9.27099609 C63.2793482 9.28399759 54.87723593 9.31092221 46.47504497 9.35461307 C42.02645431 9.37725876 37.57808609 9.39290881 33.12943268 9.39188385 C28.94324043 9.39113925 24.7575408 9.40900899 20.57147598 9.44116783 C19.03521851 9.44968742 17.49890592 9.45140279 15.96263504 9.44580269 C13.86410081 9.4391718 11.76713817 9.45705763 9.66876221 9.48101807 C8.49477497 9.48470524 7.32078773 9.48839241 6.11122513 9.49219131 C1.51592043 10.24222885 -0.63092403 12.59674855 -3.78827 15.83290958 C-5.48072339 18.8597386 -5.38067125 21.21443718 -5.38768005 24.67344666 C-5.39306559 25.34303911 -5.39845113 26.01263157 -5.40399987 26.70251471 C-5.41830135 28.9450115 -5.41117068 31.18691981 -5.40405273 33.42944336 C-5.40975519 35.03766861 -5.41671897 36.64588981 -5.42485046 38.25410461 C-5.44281106 42.62189101 -5.44160804 46.98947683 -5.43590808 51.35728908 C-5.43282035 55.00300979 -5.43890406 58.64869175 -5.44494683 62.29440695 C-5.45900003 70.89479034 -5.45742422 79.49507442 -5.44604492 88.09545898 C-5.43456312 96.9694346 -5.44863854 105.84310803 -5.4754414 114.71704382 C-5.49758958 122.33499562 -5.50423776 129.9528525 -5.49836498 137.57083422 C-5.49499205 142.12112288 -5.49743268 146.67121781 -5.51461601 151.22147942 C-5.53006905 155.50040769 -5.52614808 159.77888792 -5.50731087 164.05779839 C-5.50362038 165.62794407 -5.50674688 167.19812282 -5.51719666 168.76823807 C-5.53037795 170.91253319 -5.51888701 173.05533872 -5.50120544 175.1995697 C-5.50099616 176.39915786 -5.50078688 177.59874601 -5.50057125 178.83468533 C-4.90142639 182.62332082 -3.70162636 184.32250567 -1 187 C-0.34 187 0.32 187 1 187 C1 187.66 1 188.32 1 189 C4.56304517 190.10241045 7.88056566 190.13110713 11.59751892 190.14044189 C12.25894427 190.14341302 12.92036963 190.14638414 13.60183817 190.1494453 C15.81652151 190.15811184 18.03115067 190.15963879 20.24584961 190.16113281 C21.83436702 190.16576233 23.42288331 190.17078717 25.01139832 190.17617798 C29.32540876 190.1892886 33.63940364 190.19574398 37.95343089 190.20018864 C40.64838988 190.2031207 43.34334462 190.2072257 46.03830147 190.21169281 C54.46968088 190.2253624 62.90105059 190.23503246 71.33244032 190.2388947 C81.06680856 190.24337837 90.80103658 190.26094283 100.53536218 190.2898953 C108.05987777 190.3114991 115.58435386 190.32159824 123.10890013 190.32293582 C127.60327868 190.32398451 132.09752534 190.32990629 136.59187126 190.34775543 C140.81818486 190.3642143 145.04426708 190.36640232 149.27060127 190.35761642 C150.82140344 190.35684495 152.37221795 190.36120327 153.92298889 190.37107468 C156.0407681 190.38376469 158.15772404 190.37793433 160.27549744 190.36749268 C161.4603369 190.36895924 162.64517637 190.3704258 163.86592007 190.3719368 C167.34599073 189.95893956 169.27061851 189.18449845 172 187 C172 186.01 172 185.02 172 184 C172.66 184 173.32 184 174 184 C175.42587889 181.14824222 175.1259857 178.73623826 175.12698364 175.546875 C175.12854363 174.87687469 175.13010362 174.20687439 175.13171089 173.51657104 C175.1357144 171.2610253 175.13253375 169.0055463 175.12939453 166.75 C175.13074886 165.13720663 175.13252897 163.52441357 175.13470459 161.91162109 C175.13927517 157.52330776 175.1374909 153.13501786 175.1343255 148.7467041 C175.13179997 144.16186458 175.13413998 139.5770271 175.13571167 134.9921875 C175.1375328 127.29166299 175.13512854 119.59114806 175.13037109 111.890625 C175.12492858 102.97811109 175.12669128 94.06562005 175.1321975 85.15310669 C175.13673024 77.51148279 175.13737839 69.86986578 175.13475883 62.22824097 C175.13319694 57.65964381 175.13299988 53.09105741 175.13629532 48.52246094 C175.13917636 44.22811814 175.13719403 39.93380493 175.13140106 35.63946533 C175.13007472 34.05999806 175.13046546 32.48052831 175.13266373 30.90106201 C175.13538014 28.75171564 175.13198804 26.6024652 175.12698364 24.453125 C175.12660662 23.24817383 175.12622959 22.04322266 175.12584114 20.80175781 C175.19231924 18.04577982 175.19231924 18.04577982 174 16 C173.34 16 172.68 16 172 16 C171.67 15.01 171.34 14.02 171 13 C156.0372712 2.03466688 118.71640022 9.10801072 100.59270096 9.18390274 Z " fill="#80035A" transform="translate(15,0)"/>
<path d="M0 0 C2.76506238 1.20971479 3.51221246 2.21754652 5 4.875 C5.28592376 7.89053095 5.3997562 10.69668427 5.37231445 13.7109375 C5.37596512 14.60242493 5.37961578 15.49391235 5.38337708 16.41241455 C5.39148125 19.35847031 5.37787346 22.30397582 5.36328125 25.25 C5.36276263 27.29736328 5.36328041 29.34472706 5.36479187 31.39208984 C5.36470215 35.68269282 5.35427355 39.97310788 5.33618164 44.26367188 C5.31349461 49.7651254 5.31295047 55.26630432 5.31969929 60.76779175 C5.3230398 64.99538618 5.31640759 69.22291794 5.30657005 73.45050049 C5.3027192 75.4791023 5.30156936 77.50771108 5.3031559 79.53631592 C5.3035265 82.37070005 5.29090753 85.20473134 5.2746582 88.0390625 C5.27713562 88.87866516 5.27961304 89.71826782 5.28216553 90.58331299 C5.21427584 97.99839158 5.21427584 97.99839158 3 100.875 C0.125 101.875 0.125 101.875 -3 101.875 C-5.375 100.125 -5.375 100.125 -7 97.875 C-7 96.885 -7 95.895 -7 94.875 C-7.845625 95.4525 -8.69125 96.03 -9.5625 96.625 C-10.12324219 96.9859375 -10.68398437 97.346875 -11.26171875 97.71875 C-12.85329249 98.77741478 -14.36967474 99.94691937 -15.875 101.125 C-21.73217549 104.43443548 -29.52658032 103.5599469 -36 102.875 C-38.94290231 101.87216386 -40.49983732 100.80694389 -43 98.875 C-43.721875 98.545 -44.44375 98.215 -45.1875 97.875 C-47.57742488 96.55642076 -49.20948552 94.92130226 -51 92.875 C-51 92.215 -51 91.555 -51 90.875 C-51.99 90.545 -52.98 90.215 -54 89.875 C-56.79209119 86.85954152 -57.8098757 83.76273938 -59 79.875 C-59.34289062 79.15957031 -59.68578125 78.44414063 -60.0390625 77.70703125 C-61.30844125 73.96597598 -61.32956274 70.40395491 -61.3125 66.5 C-61.32861328 65.77039063 -61.34472656 65.04078125 -61.36132812 64.2890625 C-61.36599456 59.06265787 -60.29512957 55.5632923 -58 50.875 C-57.31163487 48.88236409 -56.63718601 46.88458663 -56 44.875 C-55.34 44.875 -54.68 44.875 -54 44.875 C-53.773125 44.318125 -53.54625 43.76125 -53.3125 43.1875 C-51.6149149 40.19651673 -49.51535592 38.21885438 -47 35.875 C-46.52175781 35.41480469 -46.04351562 34.95460937 -45.55078125 34.48046875 C-42.10631109 31.34337913 -39.60116908 30.28399281 -35 29.875 C-34.01 29.545 -33.02 29.215 -32 28.875 C-24.09290954 28.49847188 -24.09290954 28.49847188 -20 30.875 C-18.824375 31.205 -17.64875 31.535 -16.4375 31.875 C-13 32.875 -13 32.875 -10 34.875 C-10 35.535 -10 36.195 -10 36.875 C-9.34 36.875 -8.68 36.875 -8 36.875 C-7.67 25.985 -7.34 15.095 -7 3.875 C-6.34 3.875 -5.68 3.875 -5 3.875 C-5 3.215 -5 2.555 -5 1.875 C-2 -0.125 -2 -0.125 0 0 Z M-34 39.875 C-34 40.535 -34 41.195 -34 41.875 C-35.7015625 42.2771875 -35.7015625 42.2771875 -37.4375 42.6875 C-38.613125 43.079375 -39.78875 43.47125 -41 43.875 C-41.33 44.865 -41.66 45.855 -42 46.875 C-42.66 46.875 -43.32 46.875 -44 46.875 C-45.4606285 49.52238916 -46 50.76948334 -46 53.875 C-46.66 53.875 -47.32 53.875 -48 53.875 C-48.8599867 59.52634116 -49.4618629 65.18448637 -50 70.875 C-49.34 70.875 -48.68 70.875 -48 70.875 C-48.2784375 72.0196875 -48.2784375 72.0196875 -48.5625 73.1875 C-49.22819173 75.96467375 -49.22819173 75.96467375 -48 78.875 C-47.34 78.875 -46.68 78.875 -46 78.875 C-45.773125 79.596875 -45.54625 80.31875 -45.3125 81.0625 C-43.15497024 85.68577806 -39.78043397 89.06447019 -35 90.875 C-24.82670254 92.0564142 -24.82670254 92.0564142 -15.17578125 89.44921875 C-8.10420292 83.3449173 -5.86803818 75.41877879 -5.08984375 66.33984375 C-4.97097817 63.07879228 -5.36108946 60.0695527 -6 56.875 C-6.12375 56.1325 -6.2475 55.39 -6.375 54.625 C-7.14860352 52.45891015 -8.35476585 51.45168273 -10 49.875 C-10.495 48.39 -10.495 48.39 -11 46.875 C-12.78681741 45.42358116 -12.78681741 45.42358116 -14.9375 44.1875 C-15.64777344 43.75050781 -16.35804688 43.31351563 -17.08984375 42.86328125 C-18.93760992 41.72182609 -18.93760992 41.72182609 -21 41.875 C-21 41.215 -21 40.555 -21 39.875 C-25.29 39.875 -29.58 39.875 -34 39.875 Z " fill="#449584" transform="translate(150,41.125)"/>
<path d="M0 0 C1.34191406 -0.0309375 1.34191406 -0.0309375 2.7109375 -0.0625 C8.03131246 -0.09388864 11.60934098 0.36053307 16.25 3.25 C16.91 3.58 17.57 3.91 18.25 4.25 C18.25 4.91 18.25 5.57 18.25 6.25 C19.03375 6.4975 19.8175 6.745 20.625 7 C23.64061729 8.43600823 24.03214656 9.25220692 25.25 12.25 C25.91 12.91 26.57 13.57 27.25 14.25 C27.62890625 16.16015625 27.62890625 16.16015625 27.8125 18.3125 C27.80913448 22.01736617 27.80913448 22.01736617 29.25 23.25 C30.06994881 32.67941134 27.01035217 41.8036911 21.25 49.25 C20.7240625 49.7553125 20.198125 50.260625 19.65625 50.78125 C17.99268006 52.30917903 17.99268006 52.30917903 17.25 55.25 C15.61979021 56.95234297 13.94605418 58.61324841 12.25 60.25 C10.32780032 62.26754292 8.44522685 64.32065043 6.5625 66.375 C6.07716797 66.89964844 5.59183594 67.42429687 5.09179688 67.96484375 C2.93491704 70.31509902 1.02375319 72.58937022 -0.75 75.25 C-1.41 75.25 -2.07 75.25 -2.75 75.25 C-2.9975 75.86875 -3.245 76.4875 -3.5 77.125 C-4.75 79.25 -4.75 79.25 -6.8125 80.25 C-7.451875 80.58 -8.09125 80.91 -8.75 81.25 C-9.08 82.57 -9.41 83.89 -9.75 85.25 C10.05 85.745 10.05 85.745 30.25 86.25 C30.58 87.57 30.91 88.89 31.25 90.25 C31.91 90.25 32.57 90.25 33.25 90.25 C33.25 90.91 33.25 91.57 33.25 92.25 C32.59 92.25 31.93 92.25 31.25 92.25 C30.59 93.9 29.93 95.55 29.25 97.25 C21.49051046 97.35133362 13.73119124 97.42143783 5.97119141 97.46972656 C3.33082706 97.48985475 0.69050735 97.51715987 -1.94970703 97.55175781 C-5.74262501 97.6002205 -9.53495416 97.6229572 -13.328125 97.640625 C-15.10174408 97.67159271 -15.10174408 97.67159271 -16.91119385 97.70318604 C-18.01203308 97.70348816 -19.11287231 97.70379028 -20.24707031 97.70410156 C-21.21525696 97.71298401 -22.1834436 97.72186646 -23.18096924 97.73101807 C-26.50176169 97.10924226 -27.70443094 95.88798721 -29.75 93.25 C-29.75 90.625 -29.75 90.625 -28.75 88.25 C-27.42532254 87.5662955 -26.09136367 86.90035814 -24.75 86.25 C-24.316875 85.1053125 -24.316875 85.1053125 -23.875 83.9375 C-22.34495394 80.28238996 -19.79121118 78.72098408 -16.75 76.25 C-15.61649466 74.23330173 -15.61649466 74.23330173 -14.75 72.25 C-12.75 70 -12.75 70 -10.75 68.25 C-10.09 68.25 -9.43 68.25 -8.75 68.25 C-8.481875 67.445625 -8.21375 66.64125 -7.9375 65.8125 C-7.545625 64.966875 -7.15375 64.12125 -6.75 63.25 C-5.265 62.755 -5.265 62.755 -3.75 62.25 C-3.75 61.59 -3.75 60.93 -3.75 60.25 C-3.09 60.25 -2.43 60.25 -1.75 60.25 C-1.481875 59.486875 -1.21375 58.72375 -0.9375 57.9375 C0.20134505 55.36011382 1.06416671 53.98045136 3.25 52.25 C3.91 52.25 4.57 52.25 5.25 52.25 C5.3325 51.6725 5.415 51.095 5.5 50.5 C6.46038228 47.61885316 8.11154473 46.38845527 10.25 44.25 C11.31011943 42.28120677 12.32470849 40.28564133 13.25 38.25 C13.91 38.25 14.57 38.25 15.25 38.25 C16.48576074 29.45078797 16.89873814 22.11498419 11.375 14.75 C5.90514976 10.88892924 -1.60658373 12.06864906 -8 12.4375 C-11.61593731 13.50584511 -13.22249756 15.51756493 -15.75 18.25 C-16.74 18.58 -17.73 18.91 -18.75 19.25 C-18.75 20.57 -18.75 21.89 -18.75 23.25 C-20.375 25.125 -20.375 25.125 -22.75 26.25 C-26.1110981 25.64500234 -28.04621205 25.10041044 -30.25 22.4375 C-30.98238964 19.23329533 -30.38920516 18.13500108 -28.75 15.25 C-24.00970298 9.01669605 -18.89855904 4.56897384 -11.75 1.25 C-8.14972077 -0.55013962 -3.96443564 0.02246139 0 0 Z " fill="#469985" transform="translate(47.75,45.75)"/>
<path d="M0 0 C3.86140741 2.94410474 5.76852242 5.88119169 6.75 10.625 C5.93821117 14.27804974 4.85734783 15.93859529 1.77734375 18.10546875 C-1.47531402 19.74252068 -3.46163953 19.7582201 -7 19 C-9.63054329 17.01575399 -11.44265976 14.90391262 -13 12 C-13.15843129 8.03921768 -12.30213781 6.43858714 -10.0625 3.1875 C-6.85841817 -0.21076861 -4.62641529 -0.7117562 0 0 Z " fill="#A49E8F" transform="translate(178,125)"/>
<path d="M0 0 C0 3 0 3 -1.53125 4.82421875 C-2.1809375 5.43910156 -2.830625 6.05398437 -3.5 6.6875 C-4.1496875 7.31011719 -4.799375 7.93273438 -5.46875 8.57421875 C-5.9740625 9.04472656 -6.479375 9.51523437 -7 10 C-7.33 9.01 -7.66 8.02 -8 7 C-5.36 4.69 -2.72 2.38 0 0 Z " fill="#52988C" transform="translate(29,51)"/>
<path d="M0 0 C0.66 0.33 1.32 0.66 2 1 C-0.97 3.97 -3.94 6.94 -7 10 C-7 6.04435836 -5.59478606 4.89133304 -3 2 C-2.01 1.34 -1.02 0.68 0 0 Z " fill="#3FA793" transform="translate(104,76)"/>
</svg>
