<?xml version="1.0" encoding="UTF-8"?>
<svg version="1.1" xmlns="http://www.w3.org/2000/svg" width="800" height="420">
<path d="M0 0 C264 0 528 0 800 0 C800 138.6 800 277.2 800 420 C536 420 272 420 0 420 C0 281.4 0 142.8 0 0 Z " fill="#212529" transform="translate(0,0)"/>
<path d="M0 0 C21.12 0 42.24 0 64 0 C67.01314311 7.23154346 69.92430458 14.31517662 72.453125 21.69921875 C72.90507988 23.00306519 72.90507988 23.00306519 73.36616516 24.33325195 C74.00302176 26.1714412 74.63827941 28.01018513 75.27200317 29.84945679 C76.93785821 34.68359168 78.61599144 39.51346459 80.29296875 44.34375 C80.62018417 45.28715744 80.9473996 46.23056488 81.28453064 47.20256042 C83.66178144 54.04907449 86.08612949 60.87613556 88.5625 67.6875 C92.75482051 79.232738 96.80154656 90.82772201 100.84909058 102.42428589 C105.11436035 114.64316022 109.41656216 126.84726573 113.80444336 139.02270508 C116.30655079 145.98291283 118.68307676 152.97584357 121 160 C126.28 160.33 131.56 160.66 137 161 C137 168.92 137 176.84 137 185 C113.24 185 89.48 185 65 185 C65 177.41 65 169.82 65 162 C67.248125 161.87625 69.49625 161.7525 71.8125 161.625 C77.25288457 161.40571157 77.25288457 161.40571157 82 159 C82.62994317 154.09646507 81.25400233 150.35828936 79.5 145.8125 C77 139.29166667 77 139.29166667 77 136 C55.22 136 33.44 136 11 136 C10.01 139.63 9.02 143.26 8 147 C6.4231613 151.70386529 4.70691134 156.34059336 3 161 C8.28 161.33 13.56 161.66 19 162 C19 169.59 19 177.18 19 185 C-2.12 185 -23.24 185 -45 185 C-45 177.41 -45 169.82 -45 162 C-42.00520833 161.86979167 -39.01041667 161.73958333 -36.015625 161.609375 C-32.32788693 160.86418441 -31.39893419 159.84641661 -29 157 C-27.71269605 154.3455996 -27.71269605 154.3455996 -26.76098633 151.34301758 C-26.36990189 150.20274612 -25.97881744 149.06247467 -25.57588196 147.88764954 C-25.16541122 146.6524205 -24.75494049 145.41719147 -24.33203125 144.14453125 C-23.88957618 142.84213221 -23.44600626 141.54011144 -23.00138855 140.2384491 C-21.82902863 136.7974688 -20.67044722 133.35200975 -19.51513672 129.90527344 C-17.69447244 124.4825027 -15.851285 119.06730526 -14.01250267 113.65065765 C-13.33068548 111.64056372 -12.65056321 109.62990151 -11.97053528 107.61920166 C-8.7939594 98.24257956 -5.48147208 88.91971449 -2.10098267 79.6146698 C1.2013644 70.5041308 4.29005162 61.33153016 7.3125 52.125 C8.30646141 49.10606371 9.30253205 46.08783368 10.30078125 43.0703125 C10.5334671 42.36666565 10.76615295 41.6630188 11.00588989 40.93804932 C12.89572341 35.25193948 14.90017507 29.61219032 17 24 C16.07960938 24.0143811 16.07960938 24.0143811 15.140625 24.02905273 C9.90254378 24.11089775 5.31072876 23.6638411 0 23 C0 15.41 0 7.82 0 0 Z " fill="#89BB8A" transform="translate(135,108)"/>
<path d="M0 0 C0.57105469 0.45117188 1.14210938 0.90234375 1.73046875 1.3671875 C1.73046875 2.0271875 1.73046875 2.6871875 1.73046875 3.3671875 C2.72046875 3.6971875 3.71046875 4.0271875 4.73046875 4.3671875 C6.265625 6.44140625 6.265625 6.44140625 7.79296875 9.0546875 C8.29957031 9.90417969 8.80617188 10.75367188 9.328125 11.62890625 C14.2316972 21.20384807 14.2695859 32.85401366 11.8203125 43.21875 C6.88913778 56.75966065 -1.96643529 65.87757184 -14.921875 72.01953125 C-20.89548419 74.42430975 -27.00241051 75.93529568 -33.26953125 77.3671875 C-34.18992187 77.58246094 -35.1103125 77.79773438 -36.05859375 78.01953125 C-46.07050561 80.19672478 -56.05364539 80.52764644 -66.26953125 80.3671875 C-64.82658794 91.6953693 -61.70802439 100.39487687 -52.62890625 107.73828125 C-44.231213 113.53602642 -34.12984818 113.3476693 -24.26953125 112.3671875 C-15.66170567 110.7675031 -8.35788181 107.07825747 -0.8515625 102.7578125 C1.73046875 101.3671875 1.73046875 101.3671875 3.73046875 101.3671875 C5.02368907 104.26232944 6.31476616 107.15842234 7.60546875 110.0546875 C8.15267578 111.27961914 8.15267578 111.27961914 8.7109375 112.52929688 C10.45662096 116.44914972 12.18143257 120.3641519 13.73046875 124.3671875 C-8.50395607 138.68182826 -33.05759783 142.84447483 -58.84765625 137.27734375 C-71.16042798 134.00237136 -82.94157042 126.57446203 -89.9609375 115.76171875 C-102.04138074 94.29546748 -105.14540348 67.87347372 -99.37890625 43.85546875 C-93.52396356 25.44538486 -83.45969144 8.23328237 -66.26953125 -1.6328125 C-45.34319851 -12.05440338 -20.05504978 -12.30723246 0 0 Z " fill="#89BB8A" transform="translate(702.26953125,157.6328125)"/>
<path d="M0 0 C0.36076355 1.83499146 0.36076355 1.83499146 0.34057617 4.08251953 C0.34034958 4.92324005 0.34012299 5.76396057 0.33988953 6.63015747 C0.32440567 7.53853363 0.30892181 8.44690979 0.29296875 9.3828125 C0.28872391 10.31221649 0.28447906 11.24162048 0.28010559 12.19918823 C0.26328012 15.17475056 0.22562103 18.14964156 0.1875 21.125 C0.17245816 23.13931315 0.15876888 25.15363689 0.14648438 27.16796875 C0.11336394 32.11223879 0.06155529 37.05600549 0 42 C-13.57559795 43.13653189 -13.57559795 43.13653189 -20.3125 43.0625 C-21.40175781 43.05347656 -22.49101562 43.04445312 -23.61328125 43.03515625 C-24.79470703 43.01775391 -24.79470703 43.01775391 -26 43 C-26.05607422 41.31970703 -26.05607422 41.31970703 -26.11328125 39.60546875 C-26.17894257 38.1327791 -26.24538986 36.66012434 -26.3125 35.1875 C-26.33505859 34.44951172 -26.35761719 33.71152344 -26.38085938 32.95117188 C-26.5255481 30.04424375 -26.67050028 27.59662984 -28.09375 25.01953125 C-32.99797676 22.3965739 -39.62069574 23.4054158 -45 24 C-50.67116296 26.00158693 -54.71700142 30.02860214 -58 35 C-61.70142881 43.42201188 -61.47461839 52.27283434 -61.51171875 61.2890625 C-61.5285953 62.84420156 -61.54674947 64.39932722 -61.56611633 65.95443726 C-61.61329993 70.01491101 -61.64331265 74.07533046 -61.66955566 78.13598633 C-61.69952235 82.29258955 -61.74599664 86.44900613 -61.79101562 90.60546875 C-61.87668795 98.73688676 -61.94419202 106.86832239 -62 115 C-61.17779968 114.99746216 -60.35559937 114.99492432 -59.50848389 114.99230957 C-57.88925018 114.98934875 -57.88925018 114.98934875 -56.23730469 114.98632812 C-55.16760437 114.98379028 -54.09790405 114.98125244 -52.99578857 114.9786377 C-47.95984016 115.01454793 -43.01071995 115.52278858 -38 116 C-38 123.26 -38 130.52 -38 138 C-62.42 138 -86.84 138 -112 138 C-112 131.07 -112 124.14 -112 117 C-108.41927083 116.34895833 -104.83854167 115.69791667 -101.2578125 115.046875 C-98.03485026 114.35371301 -98.03485026 114.35371301 -96.81256104 112.44190979 C-95.64774167 108.94139268 -95.7219404 105.53045191 -95.74121094 101.88256836 C-95.7377063 101.0675032 -95.73420166 100.25243805 -95.73059082 99.41267395 C-95.7217965 96.72164363 -95.72761398 94.03087669 -95.734375 91.33984375 C-95.73302782 89.4694463 -95.73108684 87.5990492 -95.72857666 85.72865295 C-95.72562862 81.8105231 -95.72991325 77.89248448 -95.73925781 73.97436523 C-95.75066003 68.9481249 -95.74408598 63.92209797 -95.73211288 58.89586544 C-95.72489237 55.03461595 -95.72718296 51.17341722 -95.73236847 47.31216621 C-95.73370403 45.45857277 -95.73206052 43.60497473 -95.72740936 41.75138664 C-95.72234015 39.16347888 -95.73005952 36.57591891 -95.74121094 33.98803711 C-95.73716248 33.21964508 -95.73311401 32.45125305 -95.72894287 31.65957642 C-95.75904745 27.89556296 -95.85827007 26.2125949 -98 23 C-100.77182119 22.45208186 -103.32893349 22.07633708 -106.125 21.8125 C-108.72375 21.544375 -111.3225 21.27625 -114 21 C-114 13.41 -114 5.82 -114 -2 C-98.49 -2 -82.98 -2 -67 -2 C-66.505 7.405 -66.505 7.405 -66 17 C-64.35 14.36 -62.7 11.72 -61 9 C-46.63742358 -7.37499116 -18.62071913 -12.41381276 0 0 Z " fill="#8ABB8A" transform="translate(395,155)"/>
<path d="M0 0 C6.96008302 -0.02290338 13.92003633 -0.04283219 20.88012695 -0.05493164 C23.24992312 -0.05997341 25.61971615 -0.06680665 27.98950195 -0.07543945 C31.38754039 -0.0875119 34.78553785 -0.09322971 38.18359375 -0.09765625 C39.25024765 -0.10281754 40.31690155 -0.10797882 41.4158783 -0.11329651 C42.88729027 -0.11340981 42.88729027 -0.11340981 44.38842773 -0.11352539 C45.25668686 -0.115746 46.12494598 -0.11796661 47.01951599 -0.12025452 C49 0 49 0 50 1 C50.09706134 3.2529102 50.12186638 5.50893179 50.12025452 7.76393127 C50.12110894 8.47940736 50.12196337 9.19488345 50.12284368 9.93204063 C50.12450058 12.34737814 50.11897371 14.76264733 50.11352539 17.17797852 C50.11324354 18.90224201 50.11340121 20.62650562 50.1139679 22.35076904 C50.11425595 27.04685147 50.10835802 31.74290859 50.10139394 36.43898511 C50.09516164 41.34107159 50.0945567 46.24315858 50.09336853 51.14524841 C50.09025485 60.43482896 50.08204096 69.7243978 50.07201904 79.01397318 C50.06085905 89.5869496 50.05534774 100.15992657 50.05032361 110.73290741 C50.03985838 132.48861166 50.02205785 154.24430468 50 176 C54.95 176.33 59.9 176.66 65 177 C65 184.26 65 191.52 65 199 C43.22 199 21.44 199 -1 199 C-1 192.07 -1 185.14 -1 178 C3.4921875 177.26757812 3.4921875 177.26757812 7.984375 176.53515625 C10.36623068 176.11246943 12.66101161 175.60239984 15 175 C15.07000495 155.73776265 15.12294632 136.47555103 15.15543652 117.21321297 C15.1709216 108.26986571 15.19204234 99.32659738 15.22631836 90.38330078 C15.25617062 82.59055145 15.27556305 74.79785927 15.28226548 67.00505435 C15.28618486 62.8767832 15.29542968 58.74867556 15.31719017 54.6204567 C15.33748958 50.73811963 15.34384719 46.85601409 15.33932304 42.973629 C15.3401512 41.54573053 15.34615586 40.11782464 15.35761642 38.68997192 C15.37245639 36.74642478 15.36718589 34.80275456 15.36076355 32.85916138 C15.36491162 31.22482242 15.36491162 31.22482242 15.36914349 29.55746651 C15.24732614 28.71350256 15.12550879 27.86953861 15 27 C11.59568053 24.73045369 9.83475798 24.63450051 5.8125 24.375 C3.894375 24.25125 1.97625 24.1275 0 24 C0 16.08 0 8.16 0 0 Z " fill="#88B988" transform="translate(517,94)"/>
<path d="M0 0 C5.94 0 11.88 0 18 0 C18 9.9 18 19.8 18 30 C30.21 30 42.42 30 55 30 C55 41 55 41 53 53 C41.45 53 29.9 53 18 53 C18.11994322 67.04795628 18.11994322 67.04795628 18.2578125 81.09570312 C18.31804599 86.82784611 18.37621068 92.55995635 18.421875 98.29223633 C18.45883559 102.9153691 18.50522454 107.53832115 18.55806351 112.16129875 C18.5765503 113.92223874 18.59167921 115.68321738 18.60334396 117.44421577 C18.62030459 119.91685491 18.64936247 122.38908529 18.68115234 124.86157227 C18.68331253 125.58446442 18.68547272 126.30735657 18.68769836 127.05215454 C18.76325624 131.67324942 19.59118394 135.61044559 21 140 C21.185625 140.9075 21.37125 141.815 21.5625 142.75 C23.59630849 145.93335243 25.8072487 146.49733377 29.375 147.4921875 C38.26496121 149.21197166 44.89428629 147.76552745 53 144 C53.99 143.67 54.98 143.34 56 143 C57.33891561 146.28942366 58.67017703 149.58189109 60 152.875 C60.3815625 153.81214844 60.763125 154.74929688 61.15625 155.71484375 C61.5171875 156.61074219 61.878125 157.50664062 62.25 158.4296875 C62.75273437 159.67081299 62.75273437 159.67081299 63.265625 160.93701172 C64 163 64 163 64 165 C52.82963136 171.74876439 41.67440438 174.3946401 28.625 174.3125 C27.70887939 174.30831055 26.79275879 174.30412109 25.84887695 174.29980469 C13.21252947 174.08959025 1.16823307 171.16823307 -8 162 C-16.17603882 150.11009948 -15.40955541 135.32449914 -15.29296875 121.578125 C-15.28736283 119.62229744 -15.28309745 117.66646563 -15.28010559 115.71063232 C-15.26873522 110.60115615 -15.23933655 105.49194207 -15.20599365 100.38256836 C-15.17512307 95.15351912 -15.16156419 89.9244269 -15.14648438 84.6953125 C-15.11445825 74.46340889 -15.06175544 64.2317674 -15 54 C-21.6 54 -28.2 54 -35 54 C-34.01 47.07 -33.02 40.14 -32 33 C-30.02 32.484375 -28.04 31.96875 -26 31.4375 C-16.36969055 28.43652409 -11.27883624 23.47593074 -6.38671875 14.77734375 C-3.97914987 9.9554241 -1.98122644 5.01133746 0 0 Z " fill="#89BB89" transform="translate(442,123)"/>
<path d="M0 0 C2.35927217 3.53890825 3.51365931 7.17970848 4.8125 11.1875 C5.07748291 11.99485596 5.34246582 12.80221191 5.61547852 13.6340332 C9.71973229 26.19046535 13.56956543 38.82399172 17.3984375 51.46655273 C18.76095583 55.959637 20.13371207 60.44813187 21.55859375 64.921875 C21.79320312 65.65986328 22.0278125 66.39785156 22.26953125 67.15820312 C22.89339319 69.11187603 23.52266376 71.06381951 24.15234375 73.015625 C25 76 25 76 25 79 C8.5 79 -8 79 -25 79 C-23.87608313 70.00866506 -23.87608313 70.00866506 -22.64453125 66.48046875 C-22.35852051 65.64354492 -22.07250977 64.80662109 -21.77783203 63.94433594 C-21.45927246 63.03458008 -21.14071289 62.12482422 -20.8125 61.1875 C-20.09551609 59.09317937 -19.38088159 56.99805368 -18.66796875 54.90234375 C-18.25724121 53.69562012 -17.84651367 52.48889648 -17.42333984 51.24560547 C-15.71459814 46.17900363 -14.07118067 41.09135895 -12.42578125 36.00390625 C-12.11395401 35.04054855 -11.80212677 34.07719086 -11.48085022 33.0846405 C-10.21144674 29.1610464 -8.94289312 25.23718821 -7.67886353 21.31185913 C-6.78090082 18.52469914 -5.87905258 15.73882172 -4.9765625 12.953125 C-4.7060054 12.1092775 -4.4354483 11.26542999 -4.1566925 10.39601135 C-3.7748304 9.2201371 -3.7748304 9.2201371 -3.38525391 8.02050781 C-3.16511627 7.33788879 -2.94497864 6.65526978 -2.71817017 5.95196533 C-1.95528226 3.87845849 -1.02222957 1.95702779 0 0 Z " fill="#22262A" transform="translate(179,139)"/>
<path d="M0 0 C1.19367187 -0.02578125 2.38734375 -0.0515625 3.6171875 -0.078125 C8.72346446 0.39952229 11.78773276 1.96399467 15.46875 5.50390625 C18.5780451 10.65917618 17.78913803 16.43708052 17.125 22.25 C15.5625 25.75 15.5625 25.75 13.125 28.25 C12.650625 28.74628906 12.17625 29.24257812 11.6875 29.75390625 C1.21925048 39.79436673 -14.40746848 42.30876948 -28.45703125 42.32421875 C-30.14892578 42.28748047 -30.14892578 42.28748047 -31.875 42.25 C-33.14765213 31.12607766 -29.36023159 19.81580717 -23.0625 10.625 C-16.70339032 3.05782726 -9.64545378 0.12445747 0 0 Z " fill="#22262A" transform="translate(666.875,172.75)"/>
</svg>
