<?xml version="1.0" encoding="UTF-8"?>
<svg version="1.1" xmlns="http://www.w3.org/2000/svg" width="871" height="630">
<path d="M0 0 C287.43 0 574.86 0 871 0 C871 207.9 871 415.8 871 630 C583.57 630 296.14 630 0 630 C0 422.1 0 214.2 0 0 Z " fill="#FEFAF4" transform="translate(0,0)"/>
<path d="M0 0 C24.935625 -0.1546875 24.935625 -0.1546875 50.375 -0.3125 C58.19517822 -0.38078003 58.19517822 -0.38078003 66.17333984 -0.45043945 C72.63012695 -0.47302246 72.63012695 -0.47302246 75.6703186 -0.47721863 C77.7554155 -0.48480479 79.84049303 -0.5021952 81.92544556 -0.52787781 C98.47835041 -0.72125832 118.60644063 -0.42671664 131.6875 11.4375 C132.450625 12.283125 133.21375 13.12875 134 14 C134.845625 14.763125 135.69125 15.52625 136.5625 16.3125 C142.92777218 23.33062061 144.19087442 30.72531592 144.25 39.875 C144.2809375 41.06029297 144.2809375 41.06029297 144.3125 42.26953125 C144.34612603 47.32184224 143.62429304 50.54686025 141 55 C140.814375 56.0209375 140.814375 56.0209375 140.625 57.0625 C138.77498315 62.79755222 131.70816501 66.60030765 127 70 C129.05910961 72.21116694 131.04001677 73.7388771 133.6875 75.1875 C134.780625 75.785625 135.87375 76.38375 137 77 C137 77.66 137 78.32 137 79 C137.99 79.33 138.98 79.66 140 80 C147.97560477 89.77011584 148.76165464 98.81352572 148 111 C147.53999 113.83083075 146.90839303 116.27482091 146 119 C145.34 119 144.68 119 144 119 C143.95875 119.680625 143.9175 120.36125 143.875 121.0625 C142.64701039 125.18503653 140.15076207 128.09996171 137 131 C136.34 131 135.68 131 135 131 C135 131.66 135 132.32 135 133 C120.56802865 144.63868657 102.77488168 143.54800572 85.3515625 143.390625 C83.16170662 143.38473201 80.97184508 143.38065861 78.78198242 143.37841797 C70.72956812 143.35758378 62.67727503 143.30173895 54.625 143.25 C36.59875 143.1675 18.5725 143.085 0 143 C0 95.81 0 48.62 0 0 Z " fill="#020202" transform="translate(9,233)"/>
<path d="M0 0 C81.92682927 0 81.92682927 0 103 9 C103.680625 9.27457031 104.36125 9.54914063 105.0625 9.83203125 C111.65510732 12.59857182 118.10425263 15.94979115 124 20 C124 20.66 124 21.32 124 22 C124.56976562 22.23976563 125.13953125 22.47953125 125.7265625 22.7265625 C135.89910719 28.42458581 141.62262657 40.80932809 144.875 51.5 C147.37193766 62.60402864 146.59956745 74.80302782 145 86 C144.34 86 143.68 86 143 86 C142.67 88.64 142.34 91.28 142 94 C141.34 94 140.68 94 140 94 C139.835 94.94875 139.67 95.8975 139.5 96.875 C135.5025955 110.54888021 120.48227391 119.33698685 109.04296875 126.37109375 C106.06105724 127.96731596 103.21072104 128.96333582 100 130 C99.15655029 130.47010498 98.31310059 130.94020996 97.4440918 131.42456055 C78.54314682 140.07046669 53.7491601 137.46460843 33.5 137.25 C22.445 137.1675 11.39 137.085 0 137 C0 91.79 0 46.58 0 0 Z " fill="#020202" transform="translate(454,234)"/>
<path d="M0 0 C20.79 0 41.58 0 63 0 C67 10 67 10 67 13 C67.66 13 68.32 13 69 13 C69.42317708 14.88802083 69.84635417 16.77604167 70.26953125 18.6640625 C71.19532995 21.62463801 72.60761282 24.22887649 74 27 C74.9331884 29.36057234 75.82853878 31.73641716 76.6875 34.125 C77.12449219 35.32382812 77.56148438 36.52265625 78.01171875 37.7578125 C79 41 79 41 79 45 C79.66 45 80.32 45 81 45 C81.32613281 46.02480469 81.65226563 47.04960937 81.98828125 48.10546875 C82.42936247 49.46625123 82.87078693 50.82692249 83.3125 52.1875 C83.52583984 52.86103516 83.73917969 53.53457031 83.95898438 54.22851562 C85.24808997 58.17279395 86.7746013 61.4704698 89 65 C89.68352692 66.5463822 90.32987082 68.10975042 90.9375 69.6875 C91.27910156 70.56535156 91.62070312 71.44320312 91.97265625 72.34765625 C92.31167969 73.22292969 92.65070313 74.09820312 93 75 C93.62366719 76.54220632 94.24867308 78.08387194 94.875 79.625 C97.44511033 86.04519655 99.85312504 92.52780052 102.25439453 99.01269531 C102.77551868 100.40167716 103.30875523 101.78614786 103.85107422 103.16699219 C106 108.68487903 106 108.68487903 106 112 C106.66 112 107.32 112 108 112 C108.50512244 113.60256108 109.00391627 115.20711792 109.5 116.8125 C109.91765625 118.15248047 109.91765625 118.15248047 110.34375 119.51953125 C111 122 111 122 111 125 C98.85568993 128.3561305 86.69198792 131.63367613 74.5 134.8125 C72.77463013 135.26508179 72.77463013 135.26508179 71.0144043 135.72680664 C69.38305542 136.15014282 69.38305542 136.15014282 67.71875 136.58203125 C66.75904297 136.83186768 65.79933594 137.0817041 64.81054688 137.33911133 C61.88752367 138.02644835 58.96630503 138.53822765 56 139 C55.74605469 138.2265625 55.49210937 137.453125 55.23046875 136.65625 C52.89695345 129.58360679 52.89695345 129.58360679 50.25 122.625 C49 119 49 119 49 113 C36.79 113 24.58 113 12 113 C11.67 115.64 11.34 118.28 11 121 C10.3953403 123.06088182 9.73225053 125.10592685 9 127.125 C7.57034769 131.0880803 6.59465972 134.8249932 6 139 C-0.54280133 138.45640389 -6.32502293 137.19130337 -12.5625 135.1875 C-18.88164454 133.22064124 -25.19168579 131.36853309 -31.625 129.8125 C-37.48223551 128.39274413 -43.25560272 126.82274144 -49 125 C-48.37716213 120.01729705 -46.8045281 115.64840803 -45 111 C-44.55394409 109.84467773 -44.55394409 109.84467773 -44.09887695 108.66601562 C-43.17371584 106.27591414 -42.24385609 103.8876937 -41.3125 101.5 C-40.99216797 100.67757812 -40.67183594 99.85515625 -40.34179688 99.0078125 C-39.56164485 97.00503418 -38.78088635 95.00249212 -38 93 C-37.34 93 -36.68 93 -36 93 C-35.89042969 92.34773438 -35.78085937 91.69546875 -35.66796875 91.0234375 C-34.72754455 85.83963583 -33.54261753 81.66146547 -31 77 C-30.32645856 75.00230474 -29.6609374 73.00190065 -29 71 C-26.32556984 64.01197282 -23.55516465 57.08634916 -20.375 50.3125 C-18.69469291 46.69664929 -17.33044049 43.11270223 -16.125 39.3125 C-14.08122941 32.92363991 -11.40176077 26.89340874 -8.671875 20.77734375 C-6.98448589 16.99393047 -5.42369989 13.16941717 -3.921875 9.30859375 C-2.67322223 6.18167092 -1.32633161 3.09477375 0 0 Z " fill="#020202" transform="translate(335,235)"/>
<path d="M0 0 C38.61 0 77.22 0 117 0 C117 12.87 117 25.74 117 39 C95.88 39 74.76 39 53 39 C53 43.62 53 48.24 53 53 C73.46 53 93.92 53 115 53 C115 62.57 115 72.14 115 82 C94.54 82 74.08 82 53 82 C53 86.62 53 91.24 53 96 C74.45 96 95.9 96 118 96 C118 109.2 118 122.4 118 136 C79.06 136 40.12 136 0 136 C0 91.12 0 46.24 0 0 Z " fill="#020202" transform="translate(743,235)"/>
<path d="M0 0 C38.28 0 76.56 0 116 0 C116 12.87 116 25.74 116 39 C94.88 39 73.76 39 52 39 C52 43.62 52 48.24 52 53 C72.79 53 93.58 53 115 53 C115 62.57 115 72.14 115 82 C94.21 82 73.42 82 52 82 C52 86.62 52 91.24 52 96 C73.78 96 95.56 96 118 96 C118 109.2 118 122.4 118 136 C79.06 136 40.12 136 0 136 C0 91.12 0 46.24 0 0 Z " fill="#020202" transform="translate(167,235)"/>
<path d="M0 0 C18.48 0 36.96 0 56 0 C56 29.7 56 59.4 56 90 C75.47 90 94.94 90 115 90 C115 105.18 115 120.36 115 136 C77.05 136 39.1 136 0 136 C0 91.12 0 46.24 0 0 Z " fill="#020202" transform="translate(616,235)"/>
<path d="M0 0 C12.00812735 0 20.27639376 0.75991927 29 9 C33.33945191 14.33690887 34.46988876 19.55591681 34.31640625 26.33984375 C33.61824193 32.20959559 31.42356649 37.16970022 27.8125 41.8125 C22.58975356 45.87463612 17.81810183 49.42012951 11 49 C11 49.66 11 50.32 11 51 C7.37 51 3.74 51 0 51 C0 34.17 0 17.34 0 0 Z " fill="#FCF9F4" transform="translate(509,277)"/>
<path d="M0 0 C9.04494382 0 9.04494382 0 12.8125 1.8125 C13.54082031 2.14894531 14.26914063 2.48539062 15.01953125 2.83203125 C18.25632355 4.74090876 19.91585506 6.87378259 22 10 C22.1953125 13.13671875 22.1953125 13.13671875 22.125 16.6875 C22.10695313 17.86699219 22.08890625 19.04648437 22.0703125 20.26171875 C22.04710938 21.16535156 22.02390625 22.06898438 22 23 C21.34 23 20.68 23 20 23 C19.773125 23.598125 19.54625 24.19625 19.3125 24.8125 C17.12807447 28.45320921 13.92405795 29.69198068 10 31 C6.7 31 3.4 31 0 31 C0 20.77 0 10.54 0 0 Z " fill="#FAF8F1" transform="translate(72,313)"/>
<path d="M0 0 C0.66 0 1.32 0 2 0 C5.28562115 8.03928578 8.02171774 16.08787494 10.38745117 24.43725586 C11.45520034 28.30690405 11.45520034 28.30690405 13 32 C13 33.98 13 35.96 13 38 C4.75 38 -3.5 38 -12 38 C-10.87433806 30.12036639 -10.87433806 30.12036639 -9.4765625 26.1875 C-9.1775 25.33929688 -8.8784375 24.49109375 -8.5703125 23.6171875 C-8.25835937 22.75351562 -7.94640625 21.88984375 -7.625 21 C-7.32078125 20.13632812 -7.0165625 19.27265625 -6.703125 18.3828125 C-4.96794356 13.50354161 -3.06458007 8.74792153 -1 4 C-0.62691369 2.67723944 -0.26953585 1.34767923 0 0 Z " fill="#F0EEEA" transform="translate(364,278)"/>
<path d="M0 0 C13.8 0 13.8 0 19 5 C20.62537005 9.87611015 20.97513558 15.23122125 19.24609375 20.140625 C17.23358339 23.897311 15.89078233 25.05460883 12 27 C8.04 27 4.08 27 0 27 C0 18.09 0 9.18 0 0 Z " fill="#FAF8F2" transform="translate(72,262)"/>
<path d="M0 0 C0.66 1.32 1.32 2.64 2 4 C3.32 3.67 4.64 3.34 6 3 C7.97229964 8.47861011 6.31671723 13.42849538 4 18.5 C1.16839469 25.12759794 1.18993307 31.87751002 1 39 C0.67 39 0.34 39 0 39 C0 26.13 0 13.26 0 0 Z " fill="#F3F1EC" transform="translate(285,332)"/>
<path d="M0 0 C11 0 11 0 16 1 C16 1.33 16 1.66 16 2 C11.05 1.67 6.1 1.34 1 1 C1.33 16.18 1.66 31.36 2 47 C3.98 47 5.96 47 8 47 C8.99 47.66 9.98 48.32 11 49 C11 49.66 11 50.32 11 51 C7.37 51 3.74 51 0 51 C0 34.17 0 17.34 0 0 Z " fill="#C6C5C2" transform="translate(509,277)"/>
<path d="M0 0 C2.31 0 4.62 0 7 0 C7.33 0.66 7.66 1.32 8 2 C5.76318131 4.42203298 3.47442825 6.09674812 0.625 7.75 C-0.12523437 8.19859375 -0.87546875 8.6471875 -1.6484375 9.109375 C-4.50823249 10.19248672 -6.10503623 9.83882342 -9 9 C-9 6 -9 6 -7 4 C-3.875 3.875 -3.875 3.875 -1 4 C-0.67 2.68 -0.34 1.36 0 0 Z " fill="#F2F2EC" transform="translate(529,316)"/>
<path d="M0 0 C8.91 0 17.82 0 27 0 C27 12.87 27 25.74 27 39 C26.67 39 26.34 39 26 39 C26 27.45 26 15.9 26 4 C25.34 4 24.68 4 24 4 C24 3.01 24 2.02 24 1 C16.08 1 8.16 1 0 1 C0 0.67 0 0.34 0 0 Z " fill="#0C0B07" transform="translate(256,235)"/>
<path d="M0 0 C0.33 0 0.66 0 1 0 C1.15384492 7.64071903 1.30202597 15.28153003 1.4429636 22.92249775 C1.50858382 26.47044707 1.5761594 30.01833675 1.64819336 33.56616211 C1.73090855 37.6442726 1.80513725 41.72249905 1.87890625 45.80078125 C1.90594131 47.07585037 1.93297638 48.35091949 1.96083069 49.66462708 C1.98092697 50.84562485 2.00102325 52.02662262 2.02172852 53.2434082 C2.04171402 54.28487503 2.06169952 55.32634186 2.08229065 56.39936829 C2 59 2 59 1 62 C0.34 62 -0.32 62 -1 62 C-0.67 41.54 -0.34 21.08 0 0 Z " fill="#F6F5F0" transform="translate(451,312)"/>
<path d="M0 0 C18.48 0 36.96 0 56 0 C56 0.33 56 0.66 56 1 C38.51 1.33 21.02 1.66 3 2 C2.67 2.99 2.34 3.98 2 5 C1.34 5 0.68 5 0 5 C0 3.35 0 1.7 0 0 Z " fill="#0E0C09" transform="translate(616,235)"/>
<path d="M0 0 C0.66 0 1.32 0 2 0 C3.94875383 2.24401957 5.66818267 4.33636533 7 7 C7.66 7 8.32 7 9 7 C8.34 10.63 7.68 14.26 7 18 C4.70366176 14.55549263 4.45983515 12.06187717 4 8 C3.34 8 2.68 8 2 8 C1.34 5.36 0.68 2.72 0 0 Z " fill="#E3E2DD" transform="translate(439,339)"/>
<path d="M0 0 C0.66 0 1.32 0 2 0 C5.05866442 3.93256854 5.33585796 6.91668732 5.1875 11.8125 C5.16042969 12.97394531 5.13335937 14.13539063 5.10546875 15.33203125 C5.07066406 16.21246094 5.03585938 17.09289062 5 18 C4.67 18 4.34 18 4 18 C3.67 15.36 3.34 12.72 3 10 C2.67 11.98 2.34 13.96 2 16 C1.67 16 1.34 16 1 16 C0.63913128 13.52163716 0.28601843 11.04260213 -0.0625 8.5625 C-0.16626953 7.85544922 -0.27003906 7.14839844 -0.37695312 6.41992188 C-0.62689163 4.61864093 -0.81801314 2.80940959 -1 1 C-0.67 0.67 -0.34 0.34 0 0 Z " fill="#CECEC9" transform="translate(89,318)"/>
<path d="M0 0 C0.33 0 0.66 0 1 0 C1.33 5.94 1.66 11.88 2 18 C2.66 18 3.32 18 4 18 C3.68289063 18.82757813 3.36578125 19.65515625 3.0390625 20.5078125 C1.90524027 24.31847819 1.55838311 27.93226312 1.375 31.875 C1.33632813 32.56335938 1.29765625 33.25171875 1.2578125 33.9609375 C1.16451834 35.64023246 1.08121762 37.32007767 1 39 C0.67 39 0.34 39 0 39 C0 26.13 0 13.26 0 0 Z " fill="#DAD8D5" transform="translate(285,332)"/>
<path d="M0 0 C0.93423645 3.01031744 1.04449911 3.86650268 0 7 C0.66 7 1.32 7 2 7 C1 10 1 10 0 11 C-0.33 11.99 -0.66 12.98 -1 14 C-1.99 14 -2.98 14 -4 14 C-4.7115625 14.7734375 -4.7115625 14.7734375 -5.4375 15.5625 C-5.953125 16.036875 -6.46875 16.51125 -7 17 C-9.1875 16.6875 -9.1875 16.6875 -11 16 C-10.21625 15.7525 -9.4325 15.505 -8.625 15.25 C-4.32825308 13.20393004 -3.56118338 9.02166456 -1.875 4.75 C-1.52179687 3.85796875 -1.16859375 2.9659375 -0.8046875 2.046875 C-0.53914062 1.37140625 -0.27359375 0.6959375 0 0 Z " fill="#2F2E2C" transform="translate(542,306)"/>
<path d="M0 0 C0.68707555 2.49064888 1 4.37886292 1 7 C1.33 7.99 1.66 8.98 2 10 C1.0625 12.1875 1.0625 12.1875 0 14 C-0.66 13.67 -1.32 13.34 -2 13 C-2.99 13.33 -3.98 13.66 -5 14 C-3.46527032 9.27775484 -1.76054874 4.64144669 0 0 Z " fill="#262523" transform="translate(325,258)"/>
<path d="M0 0 C0.6875 1.75 0.6875 1.75 1 4 C0.02248365 5.34990354 -0.98199424 6.68036291 -2 8 C-2.73260159 10.31347872 -3.411438 12.645752 -4 15 C-4.144375 14.360625 -4.28875 13.72125 -4.4375 13.0625 C-4.81007181 11.02454854 -4.81007181 11.02454854 -6 10 C-6.04063832 8.33382885 -6.042721 6.66611905 -6 5 C-5.01 5 -4.02 5 -3 5 C-3 4.34 -3 3.68 -3 3 C-1.5 1.375 -1.5 1.375 0 0 Z " fill="#C7C7C4" transform="translate(334,235)"/>
<path d="M0 0 C0 1.32 0 2.64 0 4 C-2.64 4.33 -5.28 4.66 -8 5 C-8 4.34 -8 3.68 -8 3 C-8.66 2.67 -9.32 2.34 -10 2 C-6.70021068 -0.19985954 -3.76967739 -1.88483869 0 0 Z " fill="#E1E1DB" transform="translate(562,362)"/>
<path d="M0 0 C0.96706319 3.00864103 1.27677226 5.05360248 0 8 C-1.875 9.3125 -1.875 9.3125 -4 10 C-4.99 9.67 -5.98 9.34 -7 9 C-7 7 -7 7 -5.125 4.875 C-3 3 -3 3 -1 3 C-0.67 2.01 -0.34 1.02 0 0 Z " fill="#DAD9D5" transform="translate(151,357)"/>
<path d="M0 0 C-0.185625 0.78375 -0.37125 1.5675 -0.5625 2.375 C-1.25962266 4.97089775 -1.25962266 4.97089775 0 7 C-2.375 7.1875 -2.375 7.1875 -5 7 C-5.66 6.01 -6.32 5.02 -7 4 C-2.25 0 -2.25 0 0 0 Z M0 5 C2 6 2 6 2 6 Z " fill="#D3D3D1" transform="translate(142,299)"/>
<path d="M0 0 C0.5775 0.37125 1.155 0.7425 1.75 1.125 C1.42 1.785 1.09 2.445 0.75 3.125 C0.42 2.795 0.09 2.465 -0.25 2.125 C-0.58 2.785 -0.91 3.445 -1.25 4.125 C-2.24 4.125 -3.23 4.125 -4.25 4.125 C-4.58 4.785 -4.91 5.445 -5.25 6.125 C-6.57 5.465 -7.89 4.805 -9.25 4.125 C-8.59 4.125 -7.93 4.125 -7.25 4.125 C-6.92 3.135 -6.59 2.145 -6.25 1.125 C-3.76424847 -0.67502697 -2.91724311 -1.13448343 0 0 Z " fill="#E8E8E1" transform="translate(89.25,265.875)"/>
<path d="M0 0 C5.625 -0.25 5.625 -0.25 9 2 C9 2.66 9 3.32 9 4 C5.7 4 2.4 4 -1 4 C-0.67 2.68 -0.34 1.36 0 0 Z " fill="#D2D2CB" transform="translate(511,324)"/>
<path d="M0 0 C1.41702513 0.14230808 2.8336096 0.28900746 4.25 0.4375 C5.43335938 0.55931641 5.43335938 0.55931641 6.640625 0.68359375 C12.46462715 1.46462715 12.46462715 1.46462715 15 4 C15 4.66 15 5.32 15 6 C13.24859857 5.54705135 11.49892656 5.08741252 9.75 4.625 C8.77546875 4.36976563 7.8009375 4.11453125 6.796875 3.8515625 C4.34162697 3.10401491 2.24382595 2.22876183 0 1 C0 0.67 0 0.34 0 0 Z " fill="#B5B4B2" transform="translate(549,240)"/>
<path d="M0 0 C1.32 0.33 2.64 0.66 4 1 C4 2.65 4 4.3 4 6 C1.03 5.67 -1.94 5.34 -5 5 C-3.68 4.34 -2.36 3.68 -1 3 C-0.67 2.01 -0.34 1.02 0 0 Z " fill="#363532" transform="translate(337,368)"/>
<path d="M0 0 C0 1.32 0 2.64 0 4 C-0.66 4 -1.32 4 -2 4 C-2.33 5.32 -2.66 6.64 -3 8 C-3.66 7.67 -4.32 7.34 -5 7 C-5 6.67 -5 6.34 -5 6 C-6.32 5.34 -7.64 4.68 -9 4 C-2.25 0 -2.25 0 0 0 Z " fill="#D5D5D0" transform="translate(570,356)"/>
<path d="M0 0 C0.474375 0.495 0.94875 0.99 1.4375 1.5 C2.75923698 3.11542197 2.75923698 3.11542197 4 3 C4 5.64 4 8.28 4 11 C3.34 11 2.68 11 2 11 C0 9 0 9 -0.1953125 6.8359375 C-0.17210937 6.02382813 -0.14890625 5.21171875 -0.125 4.375 C-0.10695312 3.55773437 -0.08890625 2.74046875 -0.0703125 1.8984375 C-0.04710937 1.27195312 -0.02390625 0.64546875 0 0 Z " fill="#F2F0EB" transform="translate(157,333)"/>
<path d="M0 0 C0 0.66 0 1.32 0 2 C0.66 2.66 1.32 3.32 2 4 C-0.31 4.33 -2.62 4.66 -5 5 C-5.33 3.35 -5.66 1.7 -6 0 C-3.50907189 -1.24546405 -2.58919267 -0.7767578 0 0 Z " fill="#EAE9E3" transform="translate(526,321)"/>
<path d="M0 0 C-0.99 0.495 -0.99 0.495 -2 1 C-2 1.99 -2 2.98 -2 4 C-6.455 3.01 -6.455 3.01 -11 2 C-6.98764085 -0.6749061 -4.6342454 -1.48957888 0 0 Z " fill="#C8C7C3" transform="translate(408,371)"/>
<path d="M0 0 C0.99 0 1.98 0 3 0 C4.20272819 2.40545638 4.10071472 3.94996953 4.0625 6.625 C4.05347656 7.44226563 4.04445313 8.25953125 4.03515625 9.1015625 C4.02355469 9.72804688 4.01195312 10.35453125 4 11 C1.54176828 7.31265242 0.98757384 4.30300029 0 0 Z " fill="#DDDDD8" transform="translate(435,328)"/>
<path d="M0 0 C2.92879371 0.62759865 5.36095629 1.58622659 8 3 C7.67 3.66 7.34 4.32 7 5 C4.69 4.67 2.38 4.34 0 4 C0 2.68 0 1.36 0 0 Z " fill="#191917" transform="translate(138,307)"/>
<path d="M0 0 C1.32 0 2.64 0 4 0 C4.33 1.98 4.66 3.96 5 6 C4.01 6.66 3.02 7.32 2 8 C0.23537317 4.91190305 0 3.76687864 0 0 Z " fill="#CFD0CA" transform="translate(419,288)"/>
<path d="M0 0 C1.32 0 2.64 0 4 0 C3.34 1.65 2.68 3.3 2 5 C0.35 5 -1.3 5 -3 5 C-1.125 1.125 -1.125 1.125 0 0 Z " fill="#DDDDDB" transform="translate(588,339)"/>
<path d="M0 0 C0.66 0.66 1.32 1.32 2 2 C2.66 1.67 3.32 1.34 4 1 C4.33 2.32 4.66 3.64 5 5 C4.01 5 3.02 5 2 5 C2 5.66 2 6.32 2 7 C1.01 6.67 0.02 6.34 -1 6 C-1.8125 4.0625 -1.8125 4.0625 -2 2 C-1.34 1.34 -0.68 0.68 0 0 Z " fill="#E5E5DF" transform="translate(426,300)"/>
<path d="M0 0 C0.66 0.33 1.32 0.66 2 1 C1.34 1.66 0.68 2.32 0 3 C0 3.99 0 4.98 0 6 C-3.75 7.125 -3.75 7.125 -6 6 C-4.02 4.02 -2.04 2.04 0 0 Z " fill="#C5C6BF" transform="translate(582,345)"/>
<path d="M0 0 C1.9375 0.375 1.9375 0.375 4 1 C5.60725635 4.21451269 5.05748185 7.43612536 5 11 C2.03947516 7.63576723 1.07710178 4.30840713 0 0 Z " fill="#E8E8E2" transform="translate(154,321)"/>
<path d="M0 0 C0.99 0 1.98 0 3 0 C4.42944945 2.35438733 5.08661261 3.48032433 4.625 6.25 C4.41875 6.8275 4.2125 7.405 4 8 C4 7.34 4 6.68 4 6 C2.68 5.67 1.36 5.34 0 5 C0 3.35 0 1.7 0 0 Z " fill="#D4D3CE" transform="translate(369,296)"/>
<path d="M0 0 C0.99 0.66 1.98 1.32 3 2 C2.67 3.65 2.34 5.3 2 7 C0.68 7.33 -0.64 7.66 -2 8 C-1.34 5.36 -0.68 2.72 0 0 Z " fill="#E3E3DF" transform="translate(345,356)"/>
<path d="M0 0 C1.32 0 2.64 0 4 0 C5.75 2.5 5.75 2.5 7 5 C6.01 5.33 5.02 5.66 4 6 C2.62437146 4.71034824 1.29233607 3.37310707 0 2 C0 1.34 0 0.68 0 0 Z " fill="#D6D6D0" transform="translate(584,260)"/>
<path d="M0 0 C2.375 0.3125 2.375 0.3125 5 1 C5.66 1.99 6.32 2.98 7 4 C4.69 4.33 2.38 4.66 0 5 C0 3.35 0 1.7 0 0 Z " fill="#181816" transform="translate(421,361)"/>
<path d="M0 0 C0.8531488 2.38881665 1.12563748 3.62308755 0.3125 6.0625 C-1.18464888 8.27257692 -2.79042813 9.52695209 -5 11 C-4.731875 10.484375 -4.46375 9.96875 -4.1875 9.4375 C-2.67650593 6.33598585 -1.34427274 3.17737194 0 0 Z " fill="#BABAB4" transform="translate(594,328)"/>
<path d="M0 0 C1 4 1 4 0 7 C0.66 7 1.32 7 2 7 C1.67 7.99 1.34 8.98 1 10 C-0.32 10 -1.64 10 -3 10 C-2.01 6.7 -1.02 3.4 0 0 Z " fill="#3E3D3A" transform="translate(542,306)"/>
<path d="M0 0 C0.6875 1.6875 0.6875 1.6875 1 4 C-0.4375 6.75 -0.4375 6.75 -2 9 C-2.93423645 5.98968256 -3.04449911 5.13349732 -2 2 C-1.34 2 -0.68 2 0 2 C0 1.34 0 0.68 0 0 Z " fill="#CDCDCB" transform="translate(599,318)"/>
<path d="M0 0 C1.26237731 2.52475462 1.09856404 4.31200466 1.0625 7.125 C1.05347656 8.03507812 1.04445313 8.94515625 1.03515625 9.8828125 C1.02355469 10.58148438 1.01195312 11.28015625 1 12 C-0.87501642 8.43904445 -1.95330847 4.8877114 -3 1 C-2.01 0.67 -1.02 0.34 0 0 Z " fill="#C1C0BD" transform="translate(414,268)"/>
<path d="M0 0 C0.66 0 1.32 0 2 0 C2.66 2.31 3.32 4.62 4 7 C2.35 6.67 0.7 6.34 -1 6 C-0.67 4.02 -0.34 2.04 0 0 Z " fill="#B8B8B5" transform="translate(364,278)"/>
<path d="M0 0 C0.33 0.66 0.66 1.32 1 2 C1.66 2.33 2.32 2.66 3 3 C1.125 4.0625 1.125 4.0625 -1 5 C-1.66 4.67 -2.32 4.34 -3 4 C-3 3.01 -3 2.02 -3 1 C-2.01 0.67 -1.02 0.34 0 0 Z " fill="#F2F1ED" transform="translate(165,369)"/>
<path d="M0 0 C0.99 0.33 1.98 0.66 3 1 C2.34 2.32 1.68 3.64 1 5 C0.01 5 -0.98 5 -2 5 C-1.34 3.35 -0.68 1.7 0 0 Z " fill="#F4F3EE" transform="translate(307,295)"/>
<path d="M0 0 C1.32 1.32 2.64 2.64 4 4 C3.34 5.32 2.68 6.64 2 8 C1.34 7.67 0.68 7.34 0 7 C0 4.69 0 2.38 0 0 Z " fill="#D1D1CC" transform="translate(537,286)"/>
<path d="M0 0 C1.10191901 4.40767604 0.58706842 5.8922935 -1 10 C-1.66 10 -2.32 10 -3 10 C-2.01 6.7 -1.02 3.4 0 0 Z " fill="#43423F" transform="translate(325,258)"/>
<path d="M0 0 C2.64 0.33 5.28 0.66 8 1 C4.77208445 3.1519437 3.71599191 3.20086443 0 3 C0 2.01 0 1.02 0 0 Z " fill="#1D1C1C" transform="translate(120,236)"/>
</svg>
