<?xml version="1.0" encoding="UTF-8"?>
<svg version="1.1" xmlns="http://www.w3.org/2000/svg" width="48" height="48">
<path d="M0 0 C2.77573484 0.35601816 3.79473102 0.75905331 5.640625 2.92578125 C6.17171875 3.71339844 6.7028125 4.50101562 7.25 5.3125 C11.3238436 10.81131465 15.44130447 13.11032612 22 14.75 C22.66 14.8325 23.32 14.915 24 15 C24.0825 13.7625 24.165 12.525 24.25 11.25 C24.44046861 8.39297086 24.91736098 7.11666686 26.59375 4.75 C29.91164099 2.33698837 32.19589018 2.59984778 36.25 2.75 C37.51328125 2.78609375 38.7765625 2.8221875 40.078125 2.859375 C41.52445313 2.92898437 41.52445313 2.92898437 43 3 C42.51853516 4.17369141 42.51853516 4.17369141 42.02734375 5.37109375 C40.49433739 10.78616186 40.60713563 16.1441799 40.52148438 21.74414062 C40.3276931 28.04472029 39.25517546 31.46292761 35 36.25 C31.60625444 39.21952736 28.51320799 39.09764802 24.1875 39.25 C18.91676848 39.61599825 18.91676848 39.61599825 14.75 42.5625 C11.93633591 45.05642953 11.50060078 45.3881387 8 45.5 C3.3124793 45.18630359 -0.16852007 43.40413462 -3.875 40.5625 C-5 39 -5 39 -5 35 C-1.04 34.01 2.92 33.02 7 32 C6.071875 30.80375 5.14375 29.6075 4.1875 28.375 C-1.5645891 20.55596635 -2.94090514 14.76341827 -2 5 C-0.98046875 2.09765625 -0.98046875 2.09765625 0 0 Z M32 9 C32 9.99 32 10.98 32 12 C32.66 11.34 33.32 10.68 34 10 C33.34 9.67 32.68 9.34 32 9 Z " fill="#000000" transform="translate(5,3)"/>
<path d="M0 0 C1.32 0.33 2.64 0.66 4 1 C6.32196731 5.98792977 7.43274024 10.55430633 8 16 C3.47463334 15.46760392 0.61160373 13.72876727 -3 11 C-3.66 10.01 -4.32 9.02 -5 8 C-3.35 5.36 -1.7 2.72 0 0 Z " fill="#000000" transform="translate(19,0)"/>
</svg>
