<?xml version="1.0" encoding="UTF-8"?>
<svg version="1.1" xmlns="http://www.w3.org/2000/svg" width="72" height="72">
<path d="M0 0 C23.76 0 47.52 0 72 0 C72 23.76 72 47.52 72 72 C48.24 72 24.48 72 0 72 C0 48.24 0 24.48 0 0 Z " fill="#8C2856" transform="translate(0,0)"/>
<path d="M0 0 C4.73109163 2.04368159 9.33380942 4.33380942 13 8 C13.16015625 10.34765625 13.16015625 10.34765625 13.0625 13.0625 C13.00821506 14.70756977 12.97968099 16.35416024 13 18 C15.67782733 20.67782733 18.61588015 22.30794008 22 24 C22 26.97 22 29.94 22 33 C13.75 33 5.5 33 -3 33 C-0.63779528 27.09448819 -0.63779528 27.09448819 3 25 C3.99 25 4.98 25 6 25 C6 24.34 6 23.68 6 23 C5.175 23.495 4.35 23.99 3.5 24.5 C-0.50379728 26.21591312 -3.70863601 26.80463075 -8 26 C-12.52693708 24.08849171 -15.79383396 21.65169536 -19.375 18.3125 C-20.24898437 17.50425781 -21.12296875 16.69601563 -22.0234375 15.86328125 C-22.67570312 15.24839844 -23.32796875 14.63351563 -24 14 C-20.08743847 4.87068977 -9.89642378 -1.9247256 0 0 Z " fill="#FDF9FB" transform="translate(34,35)"/>
<path d="M0 0 C18.67276094 5.09515885 18.67276094 5.09515885 22.08081055 10.81347656 C23.0782938 13.1862415 23.23187001 14.76909952 23.1953125 17.328125 C23.18886719 18.12734375 23.18242188 18.9265625 23.17578125 19.75 C23.15902344 20.575 23.14226563 21.4 23.125 22.25 C23.11597656 23.09046875 23.10695313 23.9309375 23.09765625 24.796875 C23.07415817 26.86470604 23.03828908 28.93238995 23 31 C22.071875 31.45375 21.14375 31.9075 20.1875 32.375 C16.96078611 33.9421633 16.96078611 33.9421633 14 36 C11.88959847 34.75964988 9.7870918 33.50841634 7.6875 32.25 C7.09259766 31.90195312 6.49769531 31.55390625 5.88476562 31.1953125 C1.24282809 28.39459041 -1.28459289 26.14622132 -3 21 C-3.53698125 14.19407481 -2.819996 7.57589797 -1 1 C-0.67 0.67 -0.34 0.34 0 0 Z " fill="#FDF9FC" transform="translate(33,6)"/>
<path d="M0 0 C0 18.48 0 36.96 0 56 C-3.86790003 57.93395001 -5.1500459 58.23289353 -9.25 58.125 C-10.58804688 58.09792969 -10.58804688 58.09792969 -11.953125 58.0703125 C-12.62859375 58.04710937 -13.3040625 58.02390625 -14 58 C-14.70697979 52.78602406 -14.70697979 52.78602406 -14 50 C-12.25390625 48.671875 -12.25390625 48.671875 -10.0625 47.5625 C-6.8566581 45.91514976 -6.8566581 45.91514976 -5.140625 42.87109375 C-4.6307293 39.18649027 -4.76711314 36.63016445 -6.0625 33.125 C-8.41367231 30.54629489 -10.87066258 29.48611682 -14 28 C-14.08120751 25.10359882 -14.14059421 22.20949088 -14.1875 19.3125 C-14.21263672 18.49587891 -14.23777344 17.67925781 -14.26367188 16.83789062 C-14.3215318 12.07409001 -14.21384921 8.79432417 -11 5 C-8.80859375 3.41796875 -8.80859375 3.41796875 -6.4375 2.1875 C-5.65246094 1.76855469 -4.86742188 1.34960938 -4.05859375 0.91796875 C-2 0 -2 0 0 0 Z " fill="#FDFAFC" transform="translate(72,9)"/>
<path d="M0 0 C3.55247432 0.87379409 4.94828114 2.4927342 6.9375 5.4765625 C7.63597125 8.3162489 7.63597125 10.6368761 6.9375 13.4765625 C4.94397547 16.46684929 3.53494505 18.05465665 0 18.98828125 C-2.24162577 19.1793289 -3.89550283 19.08821493 -6.0625 18.4765625 C-9.62602884 15.43271495 -10.87708415 13.53343284 -11.6875 8.9140625 C-11.0625 5.4765625 -11.0625 5.4765625 -9.0625 2.5390625 C-5.72726514 0.24608853 -3.96242945 -0.28517485 0 0 Z " fill="#FCC20E" transform="translate(59.0625,38.5234375)"/>
<path d="M0 0 C0 2.97 0 5.94 0 9 C-8.25 9 -16.5 9 -25 9 C-22.63779528 3.09448819 -22.63779528 3.09448819 -19 1 C-18.01 1 -17.02 1 -16 1 C-15.95875 0.38125 -15.9175 -0.2375 -15.875 -0.875 C-15 -3 -15 -3 -12.5 -4.5625 C-7.33084239 -5.2086447 -4.21864294 -2.7936791 0 0 Z " fill="#EFEDEF" transform="translate(56,59)"/>
<path d="M0 0 C0 8.58 0 17.16 0 26 C-3.86790003 27.93395001 -5.1500459 28.23289353 -9.25 28.125 C-10.14203125 28.10695313 -11.0340625 28.08890625 -11.953125 28.0703125 C-12.62859375 28.04710938 -13.3040625 28.02390625 -14 28 C-14.70697979 22.78602406 -14.70697979 22.78602406 -14 20 C-12.25390625 18.671875 -12.25390625 18.671875 -10.0625 17.5625 C-6.84225038 15.9557877 -6.84225038 15.9557877 -5.28125 12.87109375 C-5.06874613 10.5677036 -5 8.31229863 -5 6 C-4.5625 3 -4.5625 3 -4 1 C-2 0 -2 0 0 0 Z " fill="#F7F1F5" transform="translate(72,39)"/>
<path d="M0 0 C1.65 0 3.3 0 5 0 C4.01 0.495 4.01 0.495 3 1 C3 3.64 3 6.28 3 9 C4.58367747 8.85795259 6.16693318 8.71119847 7.75 8.5625 C8.63171875 8.48128906 9.5134375 8.40007812 10.421875 8.31640625 C12.69350452 8.03761535 14.79851823 7.61209423 17 7 C17 9.31 17 11.62 17 14 C3.14 14 -10.72 14 -25 14 C-25 12.35 -25 10.7 -25 9 C-12.13 9.495 -12.13 9.495 1 10 C0.505 5.05 0.505 5.05 0 0 Z " fill="#545A68" transform="translate(55,58)"/>
<path d="M0 0 C1.36318359 0.47566406 1.36318359 0.47566406 2.75390625 0.9609375 C8.0566607 2.4760102 13.45759819 2.46172546 18.9375 2.625 C20.00291016 2.66367188 21.06832031 2.70234375 22.16601562 2.7421875 C24.77717734 2.83586146 27.38834304 2.92158335 30 3 C30 4.65 30 6.3 30 8 C20.1 8 10.2 8 0 8 C0 5.36 0 2.72 0 0 Z " fill="#24091E" transform="translate(0,64)"/>
<path d="M0 0 C0.66 0 1.32 0 2 0 C2 5.28 2 10.56 2 16 C3.98 16.66 5.96 17.32 8 18 C10.15942299 19.6033484 10.8544743 20.50815997 11.6171875 23.0859375 C12.04837925 26.91439756 12.28502209 29.33019809 10.75 32.9375 C8.63835603 35.42622325 6.99088672 36.87068089 3.6953125 37.30078125 C-1.4012311 37.32401777 -4.8259395 37.26098477 -9 34 C-9.66 33.67 -10.32 33.34 -11 33 C-10.835 32.484375 -10.67 31.96875 -10.5 31.4375 C-9.8262859 28.15314374 -9.70127548 25.34571457 -10 22 C-11.85420839 19.55901182 -11.85420839 19.55901182 -14 18 C-13.113125 18.4125 -12.22625 18.825 -11.3125 19.25 C-10.219375 19.4975 -9.12625 19.745 -8 20 C-5.28536927 18.19504488 -5.28536927 18.19504488 -3 16 C-2.01 16 -1.02 16 0 16 C0 10.72 0 5.44 0 0 Z M-8 23 C-8.82563373 27.54098553 -8.32543335 29.44066142 -6 33.4375 C-2.81770144 36.18083729 -2.81770144 36.18083729 1 36.6875 C4.18845573 36.41575661 5.2010566 35.86596227 8 34 C10.21925086 30.67112371 10.75890933 28.86063492 10.4765625 24.9375 C9.60276841 21.38502568 7.9838283 19.98921886 5 18 C-0.83304665 16.56525869 -4.55474734 17.93978516 -8 23 Z " fill="#8F5246" transform="translate(56,21)"/>
<path d="M0 0 C0.33 0 0.66 0 1 0 C1.03738281 0.86882813 1.07476562 1.73765625 1.11328125 2.6328125 C1.35535419 11.35116126 1.35535419 11.35116126 5 19 C7.55676648 20.88978392 10.20044216 22.49714947 13 24 C12.34 24.33 11.68 24.66 11 25 C10.154375 24.525625 9.30875 24.05125 8.4375 23.5625 C4.07951223 21.58159647 0.71188032 21.13769511 -4 22 C-7.19408844 23.39378405 -10.09672265 25.07820884 -13 27 C-12.4375 24.6875 -12.4375 24.6875 -11 22 C-7.5625 20.375 -7.5625 20.375 -4 19 C-2.18037517 17.99018896 -2.18037517 17.99018896 -1 16 C-0.62325482 13.20748417 -0.39808059 10.61220799 -0.3125 7.8125 C-0.27833984 7.06291016 -0.24417969 6.31332031 -0.20898438 5.54101562 C-0.12665706 3.69453162 -0.06164719 1.84729006 0 0 Z " fill="#80284F" transform="translate(29,14)"/>
<path d="M0 0 C0 2.31 0 4.62 0 7 C-4.62 7 -9.24 7 -14 7 C-14 5.35 -14 3.7 -14 2 C-12.95199219 1.90912109 -12.95199219 1.90912109 -11.8828125 1.81640625 C-10.97273438 1.73261719 -10.06265625 1.64882812 -9.125 1.5625 C-8.22007813 1.48128906 -7.31515625 1.40007812 -6.3828125 1.31640625 C-3.9906624 0.99876009 -2.3900132 0 0 0 Z " fill="#647481" transform="translate(72,65)"/>
<path d="M0 0 C0 5.61 0 11.22 0 17 C-3.56884509 13.43115491 -4.31482936 10.88184078 -5 6 C-4.75 3.0625 -4.75 3.0625 -4 1 C-2 0 -2 0 0 0 Z " fill="#FAFCFA" transform="translate(72,39)"/>
<path d="M0 0 C0 0.66 0 1.32 0 2 C-0.928125 2.4125 -1.85625 2.825 -2.8125 3.25 C-6.04958556 4.70347419 -6.04958556 4.70347419 -7.4375 7.1875 C-7.953125 7.785625 -8.46875 8.38375 -9 9 C-12.6875 9.25 -12.6875 9.25 -16 9 C-15.34 8.67 -14.68 8.34 -14 8 C-14.88214887 5.11785113 -14.88214887 5.11785113 -16 3 C-15.32453125 2.95101562 -14.6490625 2.90203125 -13.953125 2.8515625 C-13.06109375 2.77679688 -12.1690625 2.70203125 -11.25 2.625 C-10.36828125 2.55539063 -9.4865625 2.48578125 -8.578125 2.4140625 C-5.4633461 1.91381013 -3.09275786 0 0 0 Z " fill="#761D43" transform="translate(40,58)"/>
<path d="M0 0 C1.36318359 0.47566406 1.36318359 0.47566406 2.75390625 0.9609375 C8.0566607 2.4760102 13.45759819 2.46172546 18.9375 2.625 C20.00291016 2.66367188 21.06832031 2.70234375 22.16601562 2.7421875 C24.77717734 2.83586146 27.38834304 2.92158335 30 3 C30 3.33 30 3.66 30 4 C25.75022954 4.11611395 21.50086663 4.18722349 17.25 4.25 C16.0434375 4.28351563 14.836875 4.31703125 13.59375 4.3515625 C11.85351562 4.37089844 11.85351562 4.37089844 10.078125 4.390625 C9.00981445 4.41157227 7.94150391 4.43251953 6.84082031 4.45410156 C3.35049382 3.89617725 2.20317005 2.68656601 0 0 Z " fill="#5A1337" transform="translate(0,64)"/>
<path d="M0 0 C0.66 0.99 1.32 1.98 2 3 C5.08158547 6.33144375 8.008543 8.83320906 12 11 C11.01 11.495 11.01 11.495 10 12 C9.113125 11.54625 8.22625 11.0925 7.3125 10.625 C3.79084238 8.89739438 0.87888079 8.38788808 -3 8 C-1.68 7.67 -0.36 7.34 1 7 C0.67 4.69 0.34 2.38 0 0 Z " fill="#905B71" transform="translate(30,27)"/>
<path d="M0 0 C2.64 0.66 5.28 1.32 8 2 C8 2.99 8 3.98 8 5 C5.36 5 2.72 5 0 5 C0 3.35 0 1.7 0 0 Z " fill="#241425" transform="translate(0,67)"/>
<path d="M0 0 C-3.46741134 2.95749791 -6.86873527 5.07848152 -11 7 C-9.54588235 2.39529412 -9.54588235 2.39529412 -7.1875 0.6875 C-4.68810383 -0.09802451 -2.60506718 -0.14472595 0 0 Z " fill="#813859" transform="translate(27,34)"/>
<path d="M0 0 C1.31611677 0.95336021 2.62778961 1.91285774 3.9375 2.875 C4.66839844 3.40867188 5.39929688 3.94234375 6.15234375 4.4921875 C8 6 8 6 9 8 C6.03 7.505 6.03 7.505 3 7 C3 6.34 3 5.68 3 5 C1.68 4.34 0.36 3.68 -1 3 C-0.67 2.01 -0.34 1.02 0 0 Z " fill="#762D4F" transform="translate(13,52)"/>
<path d="M0 0 C0.66 0.33 1.32 0.66 2 1 C0.7934375 2.36125 0.7934375 2.36125 -0.4375 3.75 C-2.41142671 6.10309908 -3.63877467 7.86938046 -4 11 C-4.99 10.34 -5.98 9.68 -7 9 C-5.44499019 5.18315774 -2.96404505 2.80804268 0 0 Z " fill="#FAEEF8" transform="translate(17,40)"/>
<path d="M0 0 C0 0.66 0 1.32 0 2 C-0.928125 2.433125 -1.85625 2.86625 -2.8125 3.3125 C-5.47184073 4.72038627 -7.08105905 5.76123556 -9 8 C-9 6.68 -9 5.36 -9 4 C-9.99 3.67 -10.98 3.34 -12 3 C-8.97265625 2.26757812 -8.97265625 2.26757812 -5.9453125 1.53515625 C-0.3649635 0 -0.3649635 0 0 0 Z " fill="#8B546B" transform="translate(40,58)"/>
<path d="M0 0 C-0.56371414 3.26954202 -1.49962266 4.82575883 -4 7 C-4.33 5.35 -4.66 3.7 -5 2 C-2 0 -2 0 0 0 Z " fill="#D5BDCA" transform="translate(72,39)"/>
<path d="M0 0 C-0.66 1.65 -1.32 3.3 -2 5 C-3.65 5 -5.3 5 -7 5 C-6 2 -6 2 -4.0625 0.8125 C-2 0 -2 0 0 0 Z " fill="#53676C" transform="translate(72,65)"/>
<path d="M0 0 C0.99 0 1.98 0 3 0 C1.25 3.875 1.25 3.875 -1 5 C-3.6723621 5.13415472 -6.32250488 5.04318541 -9 5 C-9 4.67 -9 4.34 -9 4 C-7.88625 3.896875 -6.7725 3.79375 -5.625 3.6875 C-4.42875 3.460625 -3.2325 3.23375 -2 3 C-1.34 2.01 -0.68 1.02 0 0 Z " fill="#EFAC31" transform="translate(62,52)"/>
</svg>
