<svg xmlns="http://www.w3.org/2000/svg" viewBox="0 0 111 76" fill="none">
    <path
        d="M29.1462 59.1699C32.8996 59.1699 36.5541 59.59 40.1095 60.4301C43.6649 61.2703 47.1979 62.5273 50.7086 64.2012V17.0033C47.4343 15.0866 43.9604 13.6491 40.2868 12.6908C36.6132 11.7324 32.8996 11.2533 29.1462 11.2533C26.2712 11.2533 23.4153 11.5328 20.5787 12.0918C17.742 12.6508 15.0075 13.4894 12.3753 14.6074V62.0449C15.1705 61.0866 17.9464 60.3678 20.7032 59.8887C23.46 59.4095 26.2743 59.1699 29.1462 59.1699ZM60.292 64.2012C63.8059 62.5241 67.3405 61.2671 70.8959 60.4301C74.4513 59.5932 78.1042 59.1731 81.8545 59.1699C84.7295 59.1699 87.5454 59.4095 90.3022 59.8887C93.059 60.3678 95.8334 61.0866 98.6253 62.0449V14.6074C95.9899 13.4894 93.2538 12.6508 90.4172 12.0918C87.5805 11.5328 84.7263 11.2533 81.8545 11.2533C78.101 11.2533 74.3875 11.7324 70.7138 12.6908C67.0402 13.6491 63.5663 15.0866 60.292 17.0033V64.2012ZM55.5003 75.821C54.3823 75.821 53.3233 75.682 52.3234 75.4041C51.3236 75.1262 50.386 74.746 49.5107 74.2637C46.3961 72.4269 43.1218 71.0501 39.6878 70.1333C36.2538 69.2164 32.7399 68.7564 29.1462 68.7533C25.792 68.7533 22.4985 69.1925 19.2657 70.071C16.033 70.9494 12.9375 72.1873 9.97949 73.7845C8.30241 74.663 6.68602 74.623 5.13032 73.6647C3.57463 72.7064 2.79519 71.3088 2.79199 69.472V11.7324C2.79199 10.8539 3.01241 10.0154 3.45324 9.2168C3.89408 8.41818 4.55213 7.81923 5.42741 7.41992C9.10102 5.50325 12.9344 4.06576 16.9274 3.10742C20.9205 2.14909 24.9934 1.66992 29.1462 1.66992C33.7781 1.66992 38.311 2.26888 42.7449 3.4668C47.1788 4.66471 51.4306 6.46159 55.5003 8.85742C59.5732 6.46159 63.8266 4.66471 68.2605 3.4668C72.6944 2.26888 77.2257 1.66992 81.8545 1.66992C86.0072 1.66992 90.0802 2.14909 94.0732 3.10742C98.0663 4.06576 101.9 5.50325 105.573 7.41992C106.452 7.81923 107.111 8.41818 107.552 9.2168C107.993 10.0154 108.212 10.8539 108.209 11.7324V69.472C108.209 71.3088 107.431 72.7064 105.875 73.6647C104.319 74.623 102.701 74.663 101.021 73.7845C98.0663 72.1873 94.9724 70.9494 91.7397 70.071C88.5069 69.1925 85.2118 68.7533 81.8545 68.7533C78.2607 68.7533 74.7468 69.2133 71.3128 70.1333C67.8788 71.0533 64.6045 72.4301 61.4899 74.2637C60.6114 74.7428 59.6738 75.123 58.6772 75.4041C57.6805 75.6852 56.6216 75.8242 55.5003 75.821ZM65.0836 24.5501C65.0836 23.8314 65.344 23.0935 65.8647 22.3364C66.3854 21.5793 66.9636 21.0794 67.5993 20.8366C69.9152 20.038 72.2312 19.439 74.5472 19.0397C76.8631 18.6404 79.2989 18.4408 81.8545 18.4408C83.4517 18.4408 85.0297 18.5414 86.5886 18.7426C88.1475 18.9439 89.6841 19.2026 91.1982 19.5189C91.917 19.6786 92.5367 20.0779 93.0574 20.7168C93.5781 21.3557 93.8368 22.0744 93.8336 22.873C93.8336 24.2307 93.3944 25.2289 92.5159 25.8678C91.6375 26.5067 90.5194 26.6664 89.1618 26.347C88.0437 26.1074 86.8665 25.9285 85.6303 25.8103C84.394 25.6921 83.1354 25.6314 81.8545 25.6283C79.7781 25.6283 77.7416 25.8279 75.7451 26.2272C73.7486 26.6265 71.8319 27.1456 69.9951 27.7845C68.5576 28.3435 67.3804 28.3036 66.4636 27.6647C65.5468 27.0258 65.0868 25.9876 65.0836 24.5501ZM65.0836 50.9043C65.0836 50.1855 65.344 49.4476 65.8647 48.6905C66.3854 47.9335 66.9636 47.4335 67.5993 47.1908C69.9152 46.3921 72.2312 45.7932 74.5472 45.3939C76.8631 44.9946 79.2989 44.7949 81.8545 44.7949C83.4517 44.7949 85.0297 44.8955 86.5886 45.0968C88.1475 45.298 89.6841 45.5568 91.1982 45.873C91.917 46.0328 92.5367 46.4321 93.0574 47.071C93.5781 47.7099 93.8368 48.4286 93.8336 49.2272C93.8336 50.5849 93.3944 51.5831 92.5159 52.222C91.6375 52.8609 90.5194 53.0206 89.1618 52.7012C88.0437 52.4616 86.8665 52.2827 85.6303 52.1645C84.394 52.0463 83.1354 51.9856 81.8545 51.9824C79.7781 51.9824 77.7416 52.1629 75.7451 52.5239C73.7486 52.8849 71.8319 53.3832 69.9951 54.0189C68.5576 54.5779 67.3804 54.5587 66.4636 53.9614C65.5468 53.364 65.0868 52.345 65.0836 50.9043ZM65.0836 37.7272C65.0836 37.0085 65.344 36.2705 65.8647 35.5135C66.3854 34.7564 66.9636 34.2564 67.5993 34.0137C69.9152 33.2151 72.2312 32.6161 74.5472 32.2168C76.8631 31.8175 79.2989 31.6178 81.8545 31.6178C83.4517 31.6178 85.0297 31.7185 86.5886 31.9197C88.1475 32.121 89.6841 32.3797 91.1982 32.696C91.917 32.8557 92.5367 33.255 93.0574 33.8939C93.5781 34.5328 93.8368 35.2515 93.8336 36.0501C93.8336 37.4078 93.3944 38.406 92.5159 39.0449C91.6375 39.6838 90.5194 39.8435 89.1618 39.5241C88.0437 39.2845 86.8665 39.1056 85.6303 38.9874C84.394 38.8692 83.1354 38.8085 81.8545 38.8053C79.7781 38.8053 77.7416 39.005 75.7451 39.4043C73.7486 39.8036 71.8319 40.3227 69.9951 40.9616C68.5576 41.5206 67.3804 41.4807 66.4636 40.8418C65.5468 40.2029 65.0868 39.1647 65.0836 37.7272Z"
        fill="url(#paint0_linear_296_10903)" />
    <path
        d="M29.1462 59.1699C32.8996 59.1699 36.5541 59.59 40.1095 60.4301C43.6649 61.2703 47.1979 62.5273 50.7086 64.2012V17.0033C47.4343 15.0866 43.9604 13.6491 40.2868 12.6908C36.6132 11.7324 32.8996 11.2533 29.1462 11.2533C26.2712 11.2533 23.4153 11.5328 20.5787 12.0918C17.742 12.6508 15.0075 13.4894 12.3753 14.6074V62.0449C15.1705 61.0866 17.9464 60.3678 20.7032 59.8887C23.46 59.4095 26.2743 59.1699 29.1462 59.1699ZM60.292 64.2012C63.8059 62.5241 67.3405 61.2671 70.8959 60.4301C74.4513 59.5932 78.1042 59.1731 81.8545 59.1699C84.7295 59.1699 87.5454 59.4095 90.3022 59.8887C93.059 60.3678 95.8334 61.0866 98.6253 62.0449V14.6074C95.9899 13.4894 93.2538 12.6508 90.4172 12.0918C87.5805 11.5328 84.7263 11.2533 81.8545 11.2533C78.101 11.2533 74.3875 11.7324 70.7138 12.6908C67.0402 13.6491 63.5663 15.0866 60.292 17.0033V64.2012ZM55.5003 75.821C54.3823 75.821 53.3233 75.682 52.3234 75.4041C51.3236 75.1262 50.386 74.746 49.5107 74.2637C46.3961 72.4269 43.1218 71.0501 39.6878 70.1333C36.2538 69.2164 32.7399 68.7564 29.1462 68.7533C25.792 68.7533 22.4985 69.1925 19.2657 70.071C16.033 70.9494 12.9375 72.1873 9.97949 73.7845C8.30241 74.663 6.68602 74.623 5.13032 73.6647C3.57463 72.7064 2.79519 71.3088 2.79199 69.472V11.7324C2.79199 10.8539 3.01241 10.0154 3.45324 9.2168C3.89408 8.41818 4.55213 7.81923 5.42741 7.41992C9.10102 5.50325 12.9344 4.06576 16.9274 3.10742C20.9205 2.14909 24.9934 1.66992 29.1462 1.66992C33.7781 1.66992 38.311 2.26888 42.7449 3.4668C47.1788 4.66471 51.4306 6.46159 55.5003 8.85742C59.5732 6.46159 63.8266 4.66471 68.2605 3.4668C72.6944 2.26888 77.2257 1.66992 81.8545 1.66992C86.0072 1.66992 90.0802 2.14909 94.0732 3.10742C98.0663 4.06576 101.9 5.50325 105.573 7.41992C106.452 7.81923 107.111 8.41818 107.552 9.2168C107.993 10.0154 108.212 10.8539 108.209 11.7324V69.472C108.209 71.3088 107.431 72.7064 105.875 73.6647C104.319 74.623 102.701 74.663 101.021 73.7845C98.0663 72.1873 94.9724 70.9494 91.7397 70.071C88.5069 69.1925 85.2118 68.7533 81.8545 68.7533C78.2607 68.7533 74.7468 69.2133 71.3128 70.1333C67.8788 71.0533 64.6045 72.4301 61.4899 74.2637C60.6114 74.7428 59.6738 75.123 58.6772 75.4041C57.6805 75.6852 56.6216 75.8242 55.5003 75.821ZM65.0836 24.5501C65.0836 23.8314 65.344 23.0935 65.8647 22.3364C66.3854 21.5793 66.9636 21.0794 67.5993 20.8366C69.9152 20.038 72.2312 19.439 74.5472 19.0397C76.8631 18.6404 79.2989 18.4408 81.8545 18.4408C83.4517 18.4408 85.0297 18.5414 86.5886 18.7426C88.1475 18.9439 89.6841 19.2026 91.1982 19.5189C91.917 19.6786 92.5367 20.0779 93.0574 20.7168C93.5781 21.3557 93.8368 22.0744 93.8336 22.873C93.8336 24.2307 93.3944 25.2289 92.5159 25.8678C91.6375 26.5067 90.5194 26.6664 89.1618 26.347C88.0437 26.1074 86.8665 25.9285 85.6303 25.8103C84.394 25.6921 83.1354 25.6314 81.8545 25.6283C79.7781 25.6283 77.7416 25.8279 75.7451 26.2272C73.7486 26.6265 71.8319 27.1456 69.9951 27.7845C68.5576 28.3435 67.3804 28.3036 66.4636 27.6647C65.5468 27.0258 65.0868 25.9876 65.0836 24.5501ZM65.0836 50.9043C65.0836 50.1855 65.344 49.4476 65.8647 48.6905C66.3854 47.9335 66.9636 47.4335 67.5993 47.1908C69.9152 46.3921 72.2312 45.7932 74.5472 45.3939C76.8631 44.9946 79.2989 44.7949 81.8545 44.7949C83.4517 44.7949 85.0297 44.8955 86.5886 45.0968C88.1475 45.298 89.6841 45.5568 91.1982 45.873C91.917 46.0328 92.5367 46.4321 93.0574 47.071C93.5781 47.7099 93.8368 48.4286 93.8336 49.2272C93.8336 50.5849 93.3944 51.5831 92.5159 52.222C91.6375 52.8609 90.5194 53.0206 89.1618 52.7012C88.0437 52.4616 86.8665 52.2827 85.6303 52.1645C84.394 52.0463 83.1354 51.9856 81.8545 51.9824C79.7781 51.9824 77.7416 52.1629 75.7451 52.5239C73.7486 52.8849 71.8319 53.3832 69.9951 54.0189C68.5576 54.5779 67.3804 54.5587 66.4636 53.9614C65.5468 53.364 65.0868 52.345 65.0836 50.9043ZM65.0836 37.7272C65.0836 37.0085 65.344 36.2705 65.8647 35.5135C66.3854 34.7564 66.9636 34.2564 67.5993 34.0137C69.9152 33.2151 72.2312 32.6161 74.5472 32.2168C76.8631 31.8175 79.2989 31.6178 81.8545 31.6178C83.4517 31.6178 85.0297 31.7185 86.5886 31.9197C88.1475 32.121 89.6841 32.3797 91.1982 32.696C91.917 32.8557 92.5367 33.255 93.0574 33.8939C93.5781 34.5328 93.8368 35.2515 93.8336 36.0501C93.8336 37.4078 93.3944 38.406 92.5159 39.0449C91.6375 39.6838 90.5194 39.8435 89.1618 39.5241C88.0437 39.2845 86.8665 39.1056 85.6303 38.9874C84.394 38.8692 83.1354 38.8085 81.8545 38.8053C79.7781 38.8053 77.7416 39.005 75.7451 39.4043C73.7486 39.8036 71.8319 40.3227 69.9951 40.9616C68.5576 41.5206 67.3804 41.4807 66.4636 40.8418C65.5468 40.2029 65.0868 39.1647 65.0836 37.7272Z"
        fill="url(#paint1_linear_296_10903)" />
    <defs>
        <linearGradient id="paint0_linear_296_10903" x1="2.79199" y1="1.66992" x2="19.983" y2="89.7357"
            gradientUnits="userSpaceOnUse">
            <stop offset="0.03" stop-color="#FF5750" />
            <stop offset="1" stop-color="#FF43B3" />
        </linearGradient>
        <linearGradient id="paint1_linear_296_10903" x1="2.79199" y1="1.66992" x2="19.983" y2="89.7357"
            gradientUnits="userSpaceOnUse">
            <stop offset="0.03" stop-color="#FE4B81" />
            <stop offset="1" stop-color="#FF50E3" />
        </linearGradient>
    </defs>
</svg>