<?xml version="1.0" encoding="UTF-8"?>
<svg version="1.1" xmlns="http://www.w3.org/2000/svg" width="192" height="192">
<path d="M0 0 C63.36 0 126.72 0 192 0 C192 63.36 192 126.72 192 192 C128.64 192 65.28 192 0 192 C0 128.64 0 65.28 0 0 Z " fill="#40973D" transform="translate(0,0)"/>
<path d="M0 0 C63.36 0 126.72 0 192 0 C192 63.36 192 126.72 192 192 C128.64 192 65.28 192 0 192 C0 128.64 0 65.28 0 0 Z M23 29 C14.94421472 39.65588016 9.80358082 51.26597312 9.69360352 64.72265625 C9.68528 65.44914871 9.67695648 66.17564117 9.66838074 66.92414856 C9.64447557 69.30365524 9.63552986 71.68288631 9.62890625 74.0625 C9.61992049 75.73909578 9.61079835 77.41569082 9.60154724 79.09228516 C9.5851041 82.60239599 9.57736651 86.11241203 9.57446289 89.62255859 C9.56910423 94.0760093 9.5315091 98.52854215 9.48571873 102.98173523 C9.45566401 106.44634067 9.44873314 109.91073343 9.44773674 113.37545776 C9.44358535 115.01459934 9.43136108 116.65374465 9.41021919 118.29275513 C9.18864733 136.96558355 13.83374969 152.91874252 26.80078125 166.8984375 C40.8193202 180.2944836 57.57469774 183.47934446 76.359375 183.46875 C77.91815454 183.47587553 79.47693154 183.48357788 81.03570557 183.49182129 C84.28657334 183.50518091 87.53719862 183.50687421 90.78808594 183.50097656 C94.90744207 183.49509582 99.02561336 183.52564375 103.14474106 183.56609344 C106.36059586 183.59223456 109.57617553 183.59482417 112.79212189 183.59120178 C114.30844339 183.59286924 115.82478104 183.60227609 117.34099579 183.62034607 C136.03885688 183.81867588 151.83904901 178.44944936 165.6796875 165.4765625 C176.49985506 153.92776413 181.05710554 139.94681519 181.17700195 124.41333008 C181.18685875 123.34562378 181.18685875 123.34562378 181.19691467 122.25634766 C181.21643931 119.92740736 181.22826331 117.59853088 181.23828125 115.26953125 C181.24235678 114.46565161 181.2464323 113.66177197 181.25063133 112.83353233 C181.2714037 108.57807049 181.28574314 104.32264005 181.29516602 100.06713867 C181.30621099 95.7077171 181.34061419 91.34880858 181.38033772 86.98956776 C181.40667092 83.60488536 181.41487253 80.22032228 181.41844749 76.83554649 C181.42327053 75.23021671 181.43475956 73.62489067 181.45348549 72.01966286 C181.66389463 52.78802007 176.33881478 38.22235879 163.1953125 24.0546875 C150.04430559 11.46810149 133.07349343 8.5211944 115.59765625 8.6015625 C114.02786627 8.59953571 112.45807721 8.59661927 110.88829041 8.59286499 C107.61464381 8.58846874 104.34124455 8.59478388 101.06762695 8.60888672 C96.90439901 8.62596288 92.74175219 8.61613034 88.57854557 8.59816933 C85.34142303 8.58724572 82.1044346 8.590817 78.86730766 8.5985527 C77.33375413 8.60053186 75.80018779 8.59817733 74.26664925 8.59111404 C54.21604393 8.51900878 36.8313391 13.61937129 23 29 Z " fill="#FEFEFE" transform="translate(0,0)"/>
<path d="M0 0 C5.92243251 -0.04982309 11.8447402 -0.08591813 17.76733398 -0.10986328 C19.7777723 -0.11985664 21.78819633 -0.13345588 23.79858398 -0.15087891 C55.42234479 -0.41787863 55.42234479 -0.41787863 62.5 6.45703125 C66.02775108 10.57608152 67.4173538 13.29720177 67.34765625 18.7734375 C66.51322673 24.11753669 63.11624957 28.00777816 59.1875 31.5 C58.465625 31.995 57.74375 32.49 57 33 C57.66386719 33.23074219 58.32773438 33.46148437 59.01171875 33.69921875 C65.8433656 36.22244014 69.89070272 38.83605409 74 45 C74.92567157 52.12279914 74.89074905 58.47617753 70.484375 64.35546875 C63.22893354 72.39373415 54.0652037 75.33388664 43.47851562 76.20825195 C40.94099998 76.30268621 38.41416379 76.32217669 35.875 76.3125 C34.64136719 76.33666992 34.64136719 76.33666992 33.3828125 76.36132812 C25.06403453 76.36763023 17.11113237 74.67875668 9 73 C8.98969254 72.18789566 8.97938507 71.37579132 8.96876526 70.53907776 C8.87096021 62.90163512 8.76847052 55.26427678 8.66066074 47.62696934 C8.60539585 43.70015386 8.5519703 39.77333099 8.50268555 35.84643555 C8.45509439 32.05979158 8.40275376 28.27324084 8.34705925 24.48670769 C8.32661182 23.03898362 8.30790276 21.59123397 8.29092598 20.14346504 C8.26693492 18.12235841 8.23629925 16.1013339 8.20532227 14.08032227 C8.18200584 12.35157616 8.18200584 12.35157616 8.15821838 10.58790588 C8.29117368 8.07029411 8.29117368 8.07029411 7 7 C4.67182036 6.63239269 2.3381615 6.29758419 0 6 C0 4.02 0 2.04 0 0 Z " fill="#F9FBF8" transform="translate(58,55)"/>
<path d="M0 0 C2.84625 0.0825 5.6925 0.165 8.625 0.25 C9.51010254 0.26579102 10.39520508 0.28158203 11.30712891 0.29785156 C17.88701687 0.57923322 21.51062172 2.70715159 26.375 7.1875 C28.67221728 11.16345299 28.66342714 14.51162873 28 19 C25.97532269 23.9492112 21.76309935 27.61845033 17 30 C14.87764193 30.1229938 12.75088537 30.17555682 10.625 30.1875 C9.48289062 30.20167969 8.34078125 30.21585938 7.1640625 30.23046875 C4 30 4 30 0 28 C0 18.76 0 9.52 0 0 Z " fill="#41983E" transform="translate(86,95)"/>
<path d="M0 0 C4.0903345 0.02431828 5.85677766 0.08119274 9.4375 2.1875 C12.68437576 5.99418192 12.53088294 8.91613541 12.4609375 13.77734375 C12.04557595 18.76937429 9.98585025 21.8541308 6.3125 25.0625 C1.48838226 28.60674976 -0.74979047 29.40217704 -6.75 29.3125 C-6.77465881 25.34319011 -6.79284023 21.37390966 -6.80493164 17.40454102 C-6.80997057 16.05329614 -6.81680177 14.70205674 -6.82543945 13.35083008 C-6.83752419 11.41229566 -6.84269828 9.473722 -6.84765625 7.53515625 C-6.85289307 6.36734619 -6.85812988 5.19953613 -6.86352539 3.99633789 C-6.66013591 -0.81196439 -4.28884162 0.0993756 0 0 Z " fill="#41983E" transform="translate(92.75,61.6875)"/>
</svg>
