<?xml version="1.0" encoding="UTF-8"?>
<svg version="1.1" xmlns="http://www.w3.org/2000/svg" width="180" height="180">
<path d="M0 0 C59.4 0 118.8 0 180 0 C180 51.48 180 102.96 180 156 C120.6 156 61.2 156 0 156 C0 104.52 0 53.04 0 0 Z " fill="#FBFBFB" transform="translate(0,12)"/>
<path d="M0 0 C4.90875 -0.103125 9.8175 -0.20625 14.875 -0.3125 C16.40237793 -0.35802002 17.92975586 -0.40354004 19.50341797 -0.45043945 C27.5749158 -0.53213478 34.30453489 -0.01116777 41 5 C47.74498522 12.14493615 47.24183043 19.34373001 47.3125 28.625 C47.34150391 29.87152344 47.37050781 31.11804688 47.40039062 32.40234375 C47.45625737 40.54169808 46.99807355 47.6532078 41.27856445 53.87158203 C30.04589995 64.5088639 15.05292918 60 0 60 C0 40.2 0 20.4 0 0 Z " fill="#060606" transform="translate(14,93)"/>
<path d="M0 0 C35.92857143 0 35.92857143 0 43.5625 7.5 C47.69243645 12.64779614 47.55354739 18.64930178 47 25 C45.60476766 28.89196389 44.27990191 30.73918231 41.25 33.5625 C40.5075 34.366875 39.765 35.17125 39 36 C39.24614869 40.92297388 41.92740372 45.33986871 44.0625 49.6875 C44.80684867 51.21055189 45.54790367 52.73521928 46.28515625 54.26171875 C46.61394775 54.93162842 46.94273926 55.60153809 47.28149414 56.29174805 C48 58 48 58 48 60 C42.39 60 36.78 60 31 60 C30.41992188 58.56785156 29.83984375 57.13570312 29.2421875 55.66015625 C28.45435773 53.79375001 27.66522733 51.92789239 26.875 50.0625 C26.49601562 49.11697266 26.11703125 48.17144531 25.7265625 47.19726562 C24.62553632 44.63737977 23.573757 42.30094523 22 40 C18.85109435 38.6979061 18.85109435 38.6979061 16 39 C16.00785522 39.94637329 16.00785522 39.94637329 16.01586914 40.91186523 C16.03657826 43.75373347 16.04964066 46.59558588 16.0625 49.4375 C16.07087891 50.43072266 16.07925781 51.42394531 16.08789062 52.44726562 C16.09272461 53.86362305 16.09272461 53.86362305 16.09765625 55.30859375 C16.10551147 56.62041626 16.10551147 56.62041626 16.11352539 57.95874023 C16 60 16 60 15 61 C10.05 61 5.1 61 0 61 C0 40.87 0 20.74 0 0 Z " fill="#080808" transform="translate(116,24)"/>
<path d="M0 0 C1.48831242 0.00667405 2.97660807 0.01863442 4.46484375 0.03515625 C5.22345703 0.03966797 5.98207031 0.04417969 6.76367188 0.04882812 C8.64326246 0.06064945 10.52281274 0.07858547 12.40234375 0.09765625 C12.59344727 0.68144043 12.78455078 1.26522461 12.98144531 1.86669922 C13.86842138 4.56978812 14.76035885 7.27121626 15.65234375 9.97265625 C15.95269531 10.89046875 16.25304687 11.80828125 16.5625 12.75390625 C18.36256932 18.19241355 20.31331352 23.52273309 22.51269531 28.81298828 C23.75987356 32.01581321 24.67167472 35.29220539 25.6171875 38.59375 C26.4308653 41.18861303 27.41449085 43.65248714 28.46484375 46.16015625 C30.36368222 50.7508347 31.45910378 55.22424976 32.40234375 60.09765625 C27.12234375 60.09765625 21.84234375 60.09765625 16.40234375 60.09765625 C15.41234375 57.12765625 14.42234375 54.15765625 13.40234375 51.09765625 C6.80234375 50.76765625 0.20234375 50.43765625 -6.59765625 50.09765625 C-7.25765625 53.39765625 -7.91765625 56.69765625 -8.59765625 60.09765625 C-13.87765625 60.09765625 -19.15765625 60.09765625 -24.59765625 60.09765625 C-23.71987065 55.70872824 -22.56978843 51.54014676 -21.22265625 47.28515625 C-20.99642578 46.56666504 -20.77019531 45.84817383 -20.53710938 45.10791016 C-19.26127218 41.08938857 -17.93357685 37.11149219 -16.3984375 33.18359375 C-15.30690668 30.34028909 -14.3013225 27.46872914 -13.28515625 24.59765625 C-11.34209924 19.14646591 -9.36522023 13.70922673 -7.34765625 8.28515625 C-7.08944092 7.58519531 -6.83122559 6.88523437 -6.56518555 6.1640625 C-4.30425177 0.11683637 -4.30425177 0.11683637 0 0 Z " fill="#060606" transform="translate(81.59765625,23.90234375)"/>
<path d="M0 0 C13.53 0 27.06 0 41 0 C41 4.29 41 8.58 41 13 C32.75 13 24.5 13 16 13 C16 16.3 16 19.6 16 23 C22.93 23 29.86 23 37 23 C37 27.29 37 31.58 37 36 C30.07 36 23.14 36 16 36 C16 39.63 16 43.26 16 47 C24.58 47 33.16 47 42 47 C42 51.29 42 55.58 42 60 C28.14 60 14.28 60 0 60 C0 40.2 0 20.4 0 0 Z " fill="#070707" transform="translate(125,93)"/>
<path d="M0 0 C4.48049817 2.84783744 7.76357292 6.09292615 10.09765625 10.8671875 C9.09765625 13.8671875 9.09765625 13.8671875 7.171875 15.03515625 C6.38425781 15.37160156 5.59664062 15.70804688 4.78515625 16.0546875 C4.00527344 16.39886719 3.22539063 16.74304688 2.421875 17.09765625 C0.09765625 17.8671875 0.09765625 17.8671875 -3.90234375 17.8671875 C-4.66546875 17.0215625 -5.42859375 16.1759375 -6.21484375 15.3046875 C-8.7528721 12.45430124 -8.7528721 12.45430124 -12.58984375 12.8671875 C-16.15773488 13.56102081 -16.15773488 13.56102081 -17.90234375 16.8671875 C-18.21070242 19.41618991 -18.21070242 19.41618991 -18.16796875 22.26953125 C-18.17054687 23.32462891 -18.173125 24.37972656 -18.17578125 25.46679688 C-18.16804688 26.56830078 -18.1603125 27.66980469 -18.15234375 28.8046875 C-18.16007812 29.90232422 -18.1678125 30.99996094 -18.17578125 32.13085938 C-18.17191406 33.71543945 -18.17191406 33.71543945 -18.16796875 35.33203125 C-18.16571289 36.2974585 -18.16345703 37.26288574 -18.16113281 38.25756836 C-17.88995264 40.99213901 -17.4631412 42.61145746 -15.90234375 44.8671875 C-12.58424911 46.12725065 -12.58424911 46.12725065 -8.90234375 45.8671875 C-7.21522952 44.2212224 -5.54778155 42.55481601 -3.90234375 40.8671875 C1.28237271 40.75197158 5.64605649 43.43801504 10.09765625 45.8671875 C7.80142863 52.37316576 5.19915315 55.17675604 -0.60546875 58.984375 C-3.93793501 60.26522087 -7.19610007 60.19593285 -10.71484375 60.1796875 C-11.40126953 60.19580078 -12.08769531 60.21191406 -12.79492188 60.22851562 C-18.57438845 60.23398343 -23.20275807 59.07036176 -27.79296875 55.32421875 C-28.2415625 54.78152344 -28.69015625 54.23882812 -29.15234375 53.6796875 C-29.61125 53.14988281 -30.07015625 52.62007812 -30.54296875 52.07421875 C-35.11712166 44.64779232 -35.36815173 37.89304739 -35.27734375 29.3671875 C-35.28894531 28.27792969 -35.30054688 27.18867187 -35.3125 26.06640625 C-35.28231258 17.74473995 -34.32047556 10.94738195 -28.58984375 4.4921875 C-28.03683594 3.84507813 -27.48382813 3.19796875 -26.9140625 2.53125 C-20.36590958 -2.88528038 -7.70667621 -3.00798937 0 0 Z " fill="#060606" transform="translate(47.90234375,25.1328125)"/>
<path d="M0 0 C5.28 0 10.56 0 16 0 C16 15.18 16 30.36 16 46 C24.91 46 33.82 46 43 46 C43 50.62 43 55.24 43 60 C28.81 60 14.62 60 0 60 C0 40.2 0 20.4 0 0 Z " fill="#090909" transform="translate(74,93)"/>
<path d="M0 0 C10 0 10 0 13.0625 1.875 C16.68042794 5.84305 16.21752512 9.61896845 16.25 14.75 C16.270625 15.54921875 16.29125 16.3484375 16.3125 17.171875 C16.34539926 22.17256192 15.9044327 25.73493215 13 30 C9 32 9 32 0 32 C0 21.44 0 10.88 0 0 Z " fill="#F8F8F8" transform="translate(30,107)"/>
<path d="M0 0 C11.625 -0.25 11.625 -0.25 15 2 C15.65593302 8.01271937 15.65593302 8.01271937 13.86328125 10.7109375 C9.99362107 13.38806089 4.47425711 12.14433087 0 12 C0 8.04 0 4.08 0 0 Z " fill="#FCFCFC" transform="translate(132,38)"/>
<path d="M0 0 C3.58719576 5.38079365 5.18132788 11.61435743 6 18 C2.37 18 -1.26 18 -5 18 C-3.85440314 11.65515584 -2.43143813 5.96807541 0 0 Z " fill="#E7E7E7" transform="translate(85,43)"/>
<path d="M0 0 C1.32 0.66 2.64 1.32 4 2 C3.34 4.31 2.68 6.62 2 9 C1.34 8.34 0.68 7.68 0 7 C-0.99 7.495 -0.99 7.495 -2 8 C-1.34 5.36 -0.68 2.72 0 0 Z " fill="#D1D1D1" transform="translate(57,70)"/>
</svg>
