<?xml version="1.0" encoding="UTF-8"?>
<svg version="1.1" xmlns="http://www.w3.org/2000/svg" width="994" height="994">
<path d="M0 0 C1.38255811 0.00222316 2.7651163 0.00439964 4.14767456 0.00653076 C24.08245557 0.04909308 43.73822713 0.43815347 63.5 3.3125 C64.96903383 3.51885174 66.43811154 3.72489122 67.90722656 3.93066406 C117.01025883 10.89403272 164.4112425 24.58754732 209.5 45.3125 C211.15737026 46.05899756 212.81491205 46.80511445 214.47265625 47.55078125 C227.24687868 53.37147575 239.37857771 60.24939188 251.5 67.3125 C252.37333984 67.8168457 253.24667969 68.32119141 254.14648438 68.84082031 C271.40549678 78.82836951 287.71683988 90.13319763 303.5 102.3125 C304.29833252 102.92375732 304.29833252 102.92375732 305.11279297 103.54736328 C323.72675346 117.82003152 340.89099567 133.64595971 357.5 150.1875 C358.28922852 150.97205566 359.07845703 151.75661133 359.89160156 152.56494141 C364.63375524 157.3202061 369.12693546 162.21805094 373.5 167.3125 C374.52158033 168.46909095 375.54497299 169.62408407 376.5703125 170.77734375 C384.67331942 179.95891239 392.20127925 189.48264711 399.5 199.3125 C400.03093262 200.02245117 400.56186523 200.73240234 401.10888672 201.46386719 C415.04495787 220.14981239 427.28203596 239.89034058 438.5 260.3125 C438.98678223 261.19421875 439.47356445 262.0759375 439.97509766 262.984375 C467.85537323 313.83946745 485.59525961 370.53646225 493.6875 427.875 C493.84234863 428.95998779 493.99719727 430.04497559 494.15673828 431.1628418 C497.09238534 453.02047509 497.87524574 474.77440974 497.8125 496.8125 C497.81027684 498.19505811 497.80810036 499.5776163 497.80596924 500.96017456 C497.76340692 520.89495557 497.37434653 540.55072713 494.5 560.3125 C494.29364826 561.78153383 494.08760878 563.25061154 493.88183594 564.71972656 C486.91846728 613.82275883 473.22495268 661.2237425 452.5 706.3125 C451.75350244 707.96987026 451.00738555 709.62741205 450.26171875 711.28515625 C444.44102425 724.05937868 437.56310812 736.19107771 430.5 748.3125 C429.9956543 749.18583984 429.49130859 750.05917969 428.97167969 750.95898438 C418.98413049 768.21799678 407.67930237 784.52933988 395.5 800.3125 C395.09249512 800.84472168 394.68499023 801.37694336 394.26513672 801.92529297 C379.99246848 820.53925346 364.16654029 837.70349567 347.625 854.3125 C346.84044434 855.10172852 346.05588867 855.89095703 345.24755859 856.70410156 C340.4922939 861.44625524 335.59444906 865.93943546 330.5 870.3125 C329.34340905 871.33408033 328.18841593 872.35747299 327.03515625 873.3828125 C317.85358761 881.48581942 308.32985289 889.01377925 298.5 896.3125 C297.79004883 896.84343262 297.08009766 897.37436523 296.34863281 897.92138672 C277.66268761 911.85745787 257.92215942 924.09453596 237.5 935.3125 C236.61828125 935.79928223 235.7365625 936.28606445 234.828125 936.78759766 C183.97303255 964.66787323 127.27603775 982.40775961 69.9375 990.5 C68.85251221 990.65484863 67.76752441 990.80969727 66.6496582 990.96923828 C44.79202491 993.90488534 23.03809026 994.68774574 1 994.625 C-0.38255811 994.62277684 -1.7651163 994.62060036 -3.14767456 994.61846924 C-23.08245557 994.57590692 -42.73822713 994.18684653 -62.5 991.3125 C-63.96903383 991.10614826 -65.43811154 990.90010878 -66.90722656 990.69433594 C-116.01025883 983.73096728 -163.4112425 970.03745268 -208.5 949.3125 C-210.15737026 948.56600244 -211.81491205 947.81988555 -213.47265625 947.07421875 C-226.24687868 941.25352425 -238.37857771 934.37560812 -250.5 927.3125 C-251.37333984 926.8081543 -252.24667969 926.30380859 -253.14648438 925.78417969 C-270.40549678 915.79663049 -286.71683988 904.49180237 -302.5 892.3125 C-303.03222168 891.90499512 -303.56444336 891.49749023 -304.11279297 891.07763672 C-322.72675346 876.80496848 -339.89099567 860.97904029 -356.5 844.4375 C-357.28922852 843.65294434 -358.07845703 842.86838867 -358.89160156 842.06005859 C-363.63375524 837.3047939 -368.12693546 832.40694906 -372.5 827.3125 C-373.52158033 826.15590905 -374.54497299 825.00091593 -375.5703125 823.84765625 C-383.67331942 814.66608761 -391.20127925 805.14235289 -398.5 795.3125 C-399.03093262 794.60254883 -399.56186523 793.89259766 -400.10888672 793.16113281 C-414.04495787 774.47518761 -426.28203596 754.73465942 -437.5 734.3125 C-437.98678223 733.43078125 -438.47356445 732.5490625 -438.97509766 731.640625 C-466.85537323 680.78553255 -484.59525961 624.08853775 -492.6875 566.75 C-492.84234863 565.66501221 -492.99719727 564.58002441 -493.15673828 563.4621582 C-496.09238534 541.60452491 -496.87524574 519.85059026 -496.8125 497.8125 C-496.81027684 496.42994189 -496.80810036 495.0473837 -496.80596924 493.66482544 C-496.76340692 473.73004443 -496.37434653 454.07427287 -493.5 434.3125 C-493.29364826 432.84346617 -493.08760878 431.37438846 -492.88183594 429.90527344 C-485.91846728 380.80224117 -472.22495268 333.4012575 -451.5 288.3125 C-450.75350244 286.65512974 -450.00738555 284.99758795 -449.26171875 283.33984375 C-443.44102425 270.56562132 -436.56310812 258.43392229 -429.5 246.3125 C-428.9956543 245.43916016 -428.49130859 244.56582031 -427.97167969 243.66601562 C-417.98413049 226.40700322 -406.67930237 210.09566012 -394.5 194.3125 C-393.88874268 193.51416748 -393.88874268 193.51416748 -393.26513672 192.69970703 C-378.99246848 174.08574654 -363.16654029 156.92150433 -346.625 140.3125 C-345.84044434 139.52327148 -345.05588867 138.73404297 -344.24755859 137.92089844 C-339.4922939 133.17874476 -334.59444906 128.68556454 -329.5 124.3125 C-328.34340905 123.29091967 -327.18841593 122.26752701 -326.03515625 121.2421875 C-316.85358761 113.13918058 -307.32985289 105.61122075 -297.5 98.3125 C-296.79004883 97.78156738 -296.08009766 97.25063477 -295.34863281 96.70361328 C-276.66268761 82.76754213 -256.92215942 70.53046404 -236.5 59.3125 C-235.61828125 58.82571777 -234.7365625 58.33893555 -233.828125 57.83740234 C-182.97303255 29.95712677 -126.27603775 12.21724039 -68.9375 4.125 C-67.85251221 3.97015137 -66.76752441 3.81530273 -65.6496582 3.65576172 C-43.79202491 0.72011466 -22.03809026 -0.06274574 0 0 Z " fill="#D59629" transform="translate(496.5,-0.3125)"/>
<path d="M0 0 C1.38638672 0.60134766 1.38638672 0.60134766 2.80078125 1.21484375 C17.1812223 8.23217354 28.57588359 22.41773526 39.76489258 33.58789062 C41.42012944 35.2368486 43.07555052 36.88562166 44.73114014 38.53422546 C50.12246612 43.90469987 55.50862845 49.28033779 60.89453125 54.65625 C62.75789445 56.51556029 64.62128969 58.37483846 66.48471642 60.23408508 C74.23426197 67.96679876 81.98271107 75.7006075 89.7274828 83.43810272 C91.72675943 85.43547011 93.72604168 87.4328319 95.7253418 89.43017578 C96.2221335 89.92648375 96.71892521 90.42279171 97.23077121 90.93413931 C105.29189314 98.98694736 113.36150945 107.03118715 121.43467049 115.07192379 C129.75158413 123.35570883 138.06089364 131.64706043 146.36285514 139.94583082 C151.01321151 144.59384154 155.66678639 149.2385161 160.32856178 153.87507629 C164.70983246 158.23302405 169.08143111 162.60044896 173.44592285 166.97519875 C175.04398412 168.57375422 176.64544056 170.16892429 178.25061607 171.76033592 C187.99802856 181.42885418 196.75562616 190.42722925 201.875 203.4375 C202.26429688 204.40558594 202.65359375 205.37367188 203.0546875 206.37109375 C207.12808977 217.69919181 207.1403831 234.04050533 202.9375 245.3125 C201.97106777 247.21485647 200.99068749 249.11016147 200 251 C199.5976564 251.84379211 199.19531281 252.68758423 198.78077698 253.5569458 C193.18061043 264.32027432 184.4818364 272.2617266 175.96484375 280.734375 C174.28137337 282.42376585 172.59856957 284.11382118 170.91639709 285.80450439 C167.40015019 289.33258436 163.87485422 292.85129836 160.34301758 296.36376953 C155.84483436 300.83908994 151.37193518 305.33874586 146.90581417 309.846035 C143.43926361 313.33830936 139.95857947 316.81622763 136.47372627 320.2902298 C134.81998401 321.94249732 133.1707389 323.59928008 131.52635002 325.26085663 C117.01237476 339.90182043 102.34157862 352.29462488 80.60156339 352.49985147 C78.47597067 352.4976094 76.35105892 352.47609212 74.22558594 352.45410156 C72.67703786 352.45297067 71.12848764 352.45361165 69.5799408 352.45587158 C65.41323657 352.45701025 61.24700133 352.43363996 57.08040524 352.40557575 C52.71225863 352.38041924 48.34409899 352.37820894 43.97589111 352.37347412 C35.72072608 352.36108594 27.4657752 352.32832116 19.21070409 352.28807616 C9.80555649 352.24322836 0.40039818 352.22133883 -9.00482988 352.20129442 C-28.33667426 352.15958441 -47.66831986 352.08931401 -67 352 C-66.99631283 352.77984788 -66.99262566 353.55969576 -66.98882675 354.36317539 C-66.9002397 373.39545567 -66.83417605 392.42769444 -66.79275131 411.46013737 C-66.77218282 420.66433713 -66.74417235 429.86839873 -66.69824219 439.07250977 C-66.65819853 447.10087335 -66.63252574 455.12913679 -66.62364602 463.15759748 C-66.61846074 467.40315022 -66.60639474 471.64841665 -66.57707977 475.89387703 C-66.54963254 479.90187724 -66.54161313 483.90947721 -66.54756927 487.91756248 C-66.54648197 489.37709871 -66.53870426 490.83665039 -66.5231781 492.29610443 C-66.27117099 517.23918575 -76.45600399 532.25302523 -93.33113861 549.47881794 C-96.65799599 552.85719562 -99.9992088 556.22117004 -103.34375 559.58203125 C-104.41679634 560.66119088 -104.41679634 560.66119088 -105.51152039 561.76215172 C-109.288457 565.55976098 -113.06852662 569.35422006 -116.85107422 573.14624023 C-120.72919988 577.03547859 -124.59548535 580.93627457 -128.45934296 584.83968067 C-131.46228751 587.8688689 -134.47417892 590.88904297 -137.48847961 593.90692711 C-138.91743894 595.34072073 -140.34305311 596.77785715 -141.76506042 598.21854591 C-151.14383259 607.71298023 -160.08108709 616.24877214 -172.875 620.875 C-174.44894531 621.45894531 -174.44894531 621.45894531 -176.0546875 622.0546875 C-190.63613614 626.734675 -207.32675136 624.99569265 -220.99609375 618.59765625 C-226.54773367 615.6449635 -231.26866978 612.0733478 -235.83731079 607.77761841 C-236.39308198 607.25940903 -236.94885316 606.74119965 -237.5214659 606.20728695 C-245.03759476 599.15045066 -252.31126088 591.84495666 -259.60302734 584.55810547 C-261.22884716 582.93692562 -262.85485982 581.31593916 -264.48104858 579.69512939 C-268.8591408 575.33003801 -273.23399987 570.96172111 -277.60782957 566.59235907 C-280.34579222 563.85734338 -283.0843341 561.12290894 -285.82304764 558.38864517 C-293.42914505 550.79462673 -301.03439935 543.19976782 -308.6361599 535.601408 C-309.12006586 535.11772161 -309.60397182 534.63403521 -310.1025416 534.13569165 C-310.58746945 533.65098208 -311.0723973 533.16627251 -311.57201993 532.66687477 C-312.55435939 531.68497875 -313.5367004 530.7030843 -314.51904297 529.72119141 C-315.00629733 529.23415848 -315.49355169 528.74712555 -315.99557133 528.24533404 C-323.90605107 520.33880981 -331.82327524 512.43907584 -339.74338977 504.54220413 C-347.90479067 496.40455883 -356.06038108 488.26113262 -364.21062434 480.11231148 C-368.7750543 475.54892723 -373.34185888 470.98798272 -377.91471481 466.43304062 C-382.21091146 462.15335253 -386.49985383 457.86652413 -390.78342056 453.57419586 C-392.35172149 452.00512643 -393.9225678 450.43859615 -395.49620056 448.87487411 C-414.24514829 430.23706637 -414.24514829 430.23706637 -419.375 417.625 C-420.09816406 415.88089844 -420.09816406 415.88089844 -420.8359375 414.1015625 C-425.71669158 401.0971372 -424.67787438 383.57622644 -419 371 C-418.57589844 370.05253906 -418.15179688 369.10507812 -417.71484375 368.12890625 C-411.09405621 354.83200426 -398.77228984 344.58263288 -388.4140625 334.17578125 C-387.674799 333.43244223 -386.93553551 332.6891032 -386.17387009 331.92323875 C-382.26728937 327.99593768 -378.35754034 324.07182175 -374.4453125 320.15014648 C-370.43035901 316.1241 -366.42723349 312.08650001 -362.42658424 308.04624653 C-359.32241115 304.91582958 -356.20929005 301.79442575 -353.09376144 298.67531395 C-351.61456481 297.19127918 -350.13871708 295.70389788 -348.66646194 294.21297646 C-336.56176754 281.96427735 -322.85034118 269.10302309 -304.68673801 267.75390434 C-302.95975886 267.75666972 -302.95975886 267.75666972 -301.19789124 267.75949097 C-300.55079254 267.75778212 -299.90369385 267.75607327 -299.2369861 267.75431263 C-297.08894564 267.75104293 -294.94122412 267.76197922 -292.79321289 267.77294922 C-291.24540209 267.77351388 -289.69759076 267.7731957 -288.14978027 267.77206421 C-283.9622645 267.77149184 -279.77486398 267.7832274 -275.58737493 267.79721212 C-271.20583386 267.80973877 -266.82428997 267.81089151 -262.44273376 267.81326294 C-254.15206354 267.81947203 -245.86144624 267.83587511 -237.57079929 267.85596192 C-228.12946974 267.87833871 -218.68813762 267.88931883 -209.24678814 267.89935279 C-189.83116212 267.92024184 -170.41558532 267.9554067 -151 268 C-151.00368717 267.20892286 -151.00737434 266.41784573 -151.01117325 265.60279655 C-151.09972847 246.30382003 -151.1658086 227.00488436 -151.20724869 207.7057476 C-151.22782438 198.3726049 -151.25584884 189.03959829 -151.30175781 179.70654297 C-151.34177918 171.56648764 -151.36746905 163.42653093 -151.37635398 155.28637993 C-151.38154298 150.98105724 -151.39363329 146.67601656 -151.42292023 142.37078476 C-151.45033195 138.30779708 -151.45839378 134.2452041 -151.45243073 130.18213272 C-151.45351958 128.70121354 -151.46131884 127.22027935 -151.4768219 125.73944092 C-151.68680363 104.62329735 -144.52312902 90.40028306 -130.20800781 75.56103516 C-127.14682223 72.44617988 -124.05237174 69.36598672 -120.953125 66.2890625 C-119.29246428 64.62502456 -117.63254561 62.96024579 -115.97332764 61.29476929 C-112.51175603 57.8258713 -109.04142078 54.36606154 -105.56445312 50.91259766 C-101.13524321 46.51189366 -96.72889764 42.08908484 -92.32890701 37.65918922 C-88.9113634 34.22347747 -85.48187577 30.79988638 -82.04878998 27.37971115 C-80.42023779 25.7544655 -78.79531111 24.12557766 -77.17429352 22.49281693 C-56.28499125 1.48542361 -29.94775972 -13.4743799 0 0 Z " fill="#FEFEFE" transform="translate(607,188)"/>
<path d="M0 0 C2.17946528 -0.01220307 4.35892899 -0.02468976 6.53839111 -0.03744507 C11.08373772 -0.05980279 15.62891796 -0.06946346 20.17431641 -0.07177734 C25.98380139 -0.07708029 31.79189907 -0.12858688 37.60100937 -0.19129372 C42.0930321 -0.23222424 46.58471947 -0.24141996 51.07691193 -0.24189377 C53.21867048 -0.24725959 55.36043356 -0.26404372 57.50200653 -0.29274368 C76.28129025 -0.52365371 76.28129025 -0.52365371 82.11181641 3.95336914 C83.95010376 5.82460022 83.95010376 5.82460022 85.390625 7.5390625 C86.64746094 8.60833984 86.64746094 8.60833984 87.9296875 9.69921875 C90.42267212 11.97278338 92.91033108 14.25164274 95.390625 16.5390625 C95.96119629 17.05919922 96.53176758 17.57933594 97.11962891 18.11523438 C127.55145278 45.86071807 127.55145278 45.86071807 133.390625 57.5390625 C133.49971082 60.40887041 133.54796076 63.25477209 133.55175781 66.12524414 C133.55672272 67.01506485 133.56168762 67.90488556 133.56680298 68.82167053 C133.58146346 71.78086108 133.58823834 74.73999776 133.59375 77.69921875 C133.59950486 79.76313783 133.60526255 81.82705689 133.61102295 83.89097595 C133.62154844 88.23306528 133.62737879 92.57513603 133.63085938 96.91723633 C133.6363019 102.43767398 133.66023127 107.95785967 133.68883133 113.47821903 C133.70762501 117.75179206 133.71267245 122.02530694 133.71419525 126.29891777 C133.71719236 128.3307474 133.72511927 130.36257675 133.73838043 132.39436531 C133.94121674 165.90558227 124.6026894 179.46211148 101.28710938 203.07226562 C100.27629702 204.09319144 99.26547339 205.11410609 98.25463867 206.13500977 C96.21967676 208.19226951 94.19495391 210.25885991 92.1784668 212.33422852 C89.70708144 214.87753345 87.21815284 217.40244026 84.71665001 219.91611671 C83.33490485 221.31298804 81.97053214 222.72697822 80.60688782 224.14152527 C71.49605588 233.2241198 60.89285947 239.51542038 47.765625 239.8515625 C31.83349993 239.69498142 21.22032783 229.82147191 10.57788086 219.17797852 C9.40639029 218.01711686 8.23430029 216.85685985 7.06166077 215.69715881 C3.89321945 212.55936038 0.73452422 209.41192936 -2.42149663 206.26164365 C-4.39866023 204.28884889 -6.37781782 202.31807702 -8.35766411 200.34797478 C-15.27899492 193.46034573 -22.19201929 186.56449534 -29.09790039 179.66137695 C-35.51173488 173.25057365 -41.94401868 166.8587029 -48.3851195 160.47530609 C-53.93334115 154.97502736 -59.46783258 149.461177 -64.9921636 143.93690437 C-68.28336967 140.6462337 -71.57973977 137.36120078 -74.89027596 134.08996773 C-78.00785312 131.0085337 -81.10783961 127.91038512 -84.19579506 124.79927635 C-85.32360948 123.66862728 -86.45728027 122.5437806 -87.59755325 121.42569733 C-97.72533317 111.48269065 -105.54392126 100.67415074 -105.921875 85.9140625 C-105.74245683 69.66675068 -95.32163422 58.77746307 -84.4375 47.93359375 C-83.3486578 46.84017826 -82.26018414 45.74639566 -81.17205811 44.65226746 C-78.90093904 42.37226562 -76.62430672 40.09795298 -74.34375 37.82739258 C-71.4427837 34.93791465 -68.55798342 32.03288071 -65.67738724 29.12311268 C-63.43661981 26.86387393 -61.18647669 24.61415417 -58.93361664 22.3669796 C-57.86697561 21.30049043 -56.80337013 20.23095514 -55.74308014 19.15815163 C-38.70231277 1.94467751 -23.38865979 0.058299 0 0 Z " fill="#D29327" transform="translate(352.609375,509.4609375)"/>
</svg>
