<?xml version="1.0" encoding="UTF-8"?>
<svg version="1.1" xmlns="http://www.w3.org/2000/svg" width="154" height="153">
<path d="M0 0 C1.16470825 -0.01583633 2.3294165 -0.03167267 3.52941895 -0.04798889 C4.77848022 -0.04302902 6.0275415 -0.03806915 7.31445312 -0.03295898 C9.25040344 -0.04225685 9.25040344 -0.04225685 11.22546387 -0.05174255 C13.9524118 -0.06212993 16.67883736 -0.05760965 19.40576172 -0.04296875 C22.89317546 -0.02577333 26.3789427 -0.0492902 29.86617279 -0.08445835 C33.20319613 -0.11174943 36.53982337 -0.10169547 39.87695312 -0.09545898 C41.1260144 -0.10871719 42.37507568 -0.1219754 43.6619873 -0.13563538 C48.49544581 -0.08362383 52.05436104 -0.00497525 56.38256836 2.23291016 C59.18121626 7.62480426 58.78701928 12.98831874 58.72460938 18.97094727 C58.72702133 20.28377686 58.72943329 21.59660645 58.73191833 22.94921875 C58.73477143 25.72337935 58.72012544 28.49673039 58.69262695 31.27075195 C58.65854287 34.81854897 58.66456581 38.3648992 58.68328953 41.9127655 C58.69642701 45.30730209 58.67813677 48.70142075 58.66210938 52.09594727 C58.66954918 54.00234985 58.66954918 54.00234985 58.67713928 55.94726562 C58.66130295 57.13199463 58.64546661 58.31672363 58.62915039 59.53735352 C58.62295181 60.57706299 58.61675323 61.61677246 58.61036682 62.68798828 C57.94578015 66.36233741 56.83059559 68.00458575 54.09570312 70.53344727 C51.32580566 71.16163635 51.32580566 71.16163635 48.10546875 71.16455078 C46.89741577 71.17708389 45.68936279 71.189617 44.44470215 71.20252991 C43.14359497 71.1892717 41.84248779 71.17601349 40.50195312 71.16235352 C39.14961557 71.16318251 37.79727812 71.16564306 36.44494629 71.16966248 C33.61354162 71.17251844 30.78292889 71.15784128 27.95166016 71.13037109 C24.3263965 71.09628664 20.70254855 71.10230728 17.0772171 71.12103367 C14.28554532 71.13161383 11.49420171 71.12265703 8.70256042 71.10764885 C6.7172884 71.0999613 4.73197658 71.10731549 2.7467041 71.11488342 C1.53865112 71.09904709 0.33059814 71.08321075 -0.9140625 71.06689453 C-1.97677368 71.06069595 -3.03948486 71.05449738 -4.13439941 71.04811096 C-7.57662654 70.40852435 -8.75077574 69.23677724 -10.90429688 66.53344727 C-12.56945658 61.78571409 -12.04776542 56.34872667 -12.03710938 51.36938477 C-12.0380661 50.38152985 -12.03902283 49.39367493 -12.04000854 48.37588501 C-12.04068817 46.28631527 -12.03884903 44.1967434 -12.03466797 42.10717773 C-12.0293509 38.94062427 -12.03460261 35.77421488 -12.04101562 32.60766602 C-12.04035414 30.56990529 -12.03907152 28.53214465 -12.03710938 26.49438477 C-12.04014572 25.09378311 -12.04014572 25.09378311 -12.04324341 23.66488647 C-12.0337842 20.95214825 -11.98081227 18.24508728 -11.90429688 15.53344727 C-11.88590759 14.54741516 -11.86751831 13.56138306 -11.84857178 12.54547119 C-11.8023468 11.57293396 -11.75612183 10.60039673 -11.70849609 9.59838867 C-11.67488983 8.72276276 -11.64128357 7.84713684 -11.60665894 6.94497681 C-9.94975324 1.25606326 -5.40300731 0.0327718 0 0 Z " fill="#EE9455" transform="translate(95.904296875,-0.533447265625)"/>
<path d="M0 0 C1.71703125 -0.01407143 1.71703125 -0.01407143 3.46875 -0.02842712 C4.6959375 -0.01719315 5.923125 -0.00595917 7.1875 0.00561523 C8.4559375 0.00416 9.724375 0.00270477 11.03125 0.00120544 C13.71149059 0.00286452 16.39030836 0.01233474 19.0703125 0.03515625 C22.49685713 0.06354122 25.9225105 0.06080078 29.34912109 0.04806614 C32.62863773 0.03941921 35.90801119 0.05456266 39.1875 0.06811523 C40.4146875 0.0651796 41.641875 0.06224396 42.90625 0.05921936 C44.0509375 0.07190353 45.195625 0.08458771 46.375 0.09765625 C47.88126953 0.10576073 47.88126953 0.10576073 49.41796875 0.11402893 C52.65759359 0.56751287 54.55604686 1.58754811 57.1875 3.50170898 C58.50693606 6.1405811 58.32184453 8.12614852 58.33276367 11.08129883 C58.33914352 12.24946136 58.34552338 13.4176239 58.35209656 14.6211853 C58.35320938 15.88886749 58.3543222 17.15654968 58.35546875 18.46264648 C58.36046135 20.40852158 58.36046135 20.40852158 58.36555481 22.39370728 C58.37154702 25.14260693 58.37339466 27.89147514 58.37280273 30.64038086 C58.3727012 34.15996175 58.38634407 37.67934051 58.40357494 41.19887352 C58.41738099 44.55763429 58.41678409 47.91635769 58.41796875 51.27514648 C58.42515427 52.53878021 58.43233978 53.80241394 58.43974304 55.1043396 C58.43666641 56.27880646 58.43358978 57.45327332 58.43041992 58.66333008 C58.43184494 59.69654388 58.43326996 60.72975769 58.43473816 61.79428101 C58.1772654 64.61378487 57.80860449 66.19099656 56.1875 68.50170898 C53.05852269 70.67550299 50.32655024 70.75890844 46.58032227 70.77636719 C45.45557999 70.7858992 44.33083771 70.79543121 43.17201233 70.80525208 C41.96153732 70.80434067 40.75106232 70.80342926 39.50390625 70.80249023 C38.25624985 70.80677536 37.00859344 70.81106049 35.72312927 70.81547546 C33.0844006 70.82121894 30.44606308 70.82265417 27.80737305 70.81738281 C24.43354857 70.81158971 21.06027335 70.82851951 17.68653965 70.85172749 C14.45899942 70.87004107 11.23148907 70.86627884 8.00390625 70.86499023 C6.79545547 70.87419998 5.5870047 70.88340973 4.3419342 70.89289856 C3.21403976 70.88666977 2.08614532 70.88044098 0.92407227 70.87402344 C-0.06535873 70.87465286 -1.05478973 70.87528229 -2.07420349 70.87593079 C-5.33227847 70.43067488 -7.19704698 69.47572422 -9.8125 67.50170898 C-11.78840979 62.61191757 -12.05956394 58.13446595 -12.04296875 52.90014648 C-12.04309967 52.18920334 -12.04323059 51.47826019 -12.04336548 50.74577332 C-12.04021717 48.45587722 -12.02146204 46.16650174 -12 43.87670898 C-11.98978248 42.29980498 -11.97961017 40.72290068 -11.96948242 39.14599609 C-11.94003627 35.29332085 -11.8930121 31.44108844 -11.8392334 27.58868408 C-11.81485115 25.68525453 -11.79998417 23.78170914 -11.78613281 21.87817383 C-11.76018739 18.93873636 -11.70139763 16.00270302 -11.625 13.06420898 C-11.61944092 12.23260254 -11.61388184 11.40099609 -11.6081543 10.54418945 C-11.46558709 6.86257784 -11.27053966 4.96444351 -8.6315918 2.29844666 C-5.41738852 0.24988615 -3.77350516 0.00062443 0 0 Z " fill="#B45ECD" transform="translate(94.8125,82.498291015625)"/>
<path d="M0 0 C1.16470825 -0.01583633 2.3294165 -0.03167267 3.52941895 -0.04798889 C4.77848022 -0.04302902 6.0275415 -0.03806915 7.31445312 -0.03295898 C9.25040344 -0.04225685 9.25040344 -0.04225685 11.22546387 -0.05174255 C13.9524118 -0.06212993 16.67883736 -0.05760965 19.40576172 -0.04296875 C22.89317546 -0.02577333 26.3789427 -0.0492902 29.86617279 -0.08445835 C33.20319613 -0.11174943 36.53982337 -0.10169547 39.87695312 -0.09545898 C41.1260144 -0.10871719 42.37507568 -0.1219754 43.6619873 -0.13563538 C48.49544581 -0.08362383 52.05436104 -0.00497525 56.38256836 2.23291016 C59.18121626 7.62480426 58.78701928 12.98831874 58.72460938 18.97094727 C58.72702133 20.28377686 58.72943329 21.59660645 58.73191833 22.94921875 C58.73477143 25.72337935 58.72012544 28.49673039 58.69262695 31.27075195 C58.65854287 34.81854897 58.66456581 38.3648992 58.68328953 41.9127655 C58.69642701 45.30730209 58.67813677 48.70142075 58.66210938 52.09594727 C58.66954918 54.00234985 58.66954918 54.00234985 58.67713928 55.94726562 C58.66130295 57.13199463 58.64546661 58.31672363 58.62915039 59.53735352 C58.62295181 60.57706299 58.61675323 61.61677246 58.61036682 62.68798828 C57.94578015 66.36233741 56.83059559 68.00458575 54.09570312 70.53344727 C51.32580566 71.16163635 51.32580566 71.16163635 48.10546875 71.16455078 C46.89741577 71.17708389 45.68936279 71.189617 44.44470215 71.20252991 C43.14359497 71.1892717 41.84248779 71.17601349 40.50195312 71.16235352 C39.14961557 71.16318251 37.79727812 71.16564306 36.44494629 71.16966248 C33.61354162 71.17251844 30.78292889 71.15784128 27.95166016 71.13037109 C24.3263965 71.09628664 20.70254855 71.10230728 17.0772171 71.12103367 C14.28554532 71.13161383 11.49420171 71.12265703 8.70256042 71.10764885 C6.7172884 71.0999613 4.73197658 71.10731549 2.7467041 71.11488342 C1.53865112 71.09904709 0.33059814 71.08321075 -0.9140625 71.06689453 C-1.97677368 71.06069595 -3.03948486 71.05449738 -4.13439941 71.04811096 C-7.64301003 70.39618989 -8.79529139 69.38086774 -10.90429688 66.53344727 C-12.01404193 62.96483524 -12.02380789 59.51631839 -12.00537109 55.796875 C-12.00141327 54.66898056 -11.99745544 53.54108612 -11.99337769 52.37901306 C-11.94530176 47.26020711 -11.89633706 42.14151693 -11.82714844 37.02294922 C-11.78325673 33.64807396 -11.76755598 30.27366476 -11.7579174 26.89854336 C-11.74195688 23.67110861 -11.691731 20.44417765 -11.64648438 17.21704102 C-11.64727997 16.00656601 -11.64807556 14.796091 -11.64889526 13.54893494 C-11.62602448 12.42419266 -11.60315369 11.29945038 -11.57958984 10.140625 C-11.5699118 9.15198959 -11.56023376 8.16335419 -11.55026245 7.14476013 C-10.90429688 4.53344727 -10.90429688 4.53344727 -8.73110962 2.21633911 C-5.51098352 0.29929527 -3.72054682 0.02256688 0 0 Z " fill="#62C3D8" transform="translate(11.904296875,-0.533447265625)"/>
<path d="M0 0 C1.86936218 -0.00361794 1.86936218 -0.00361794 3.77648926 -0.00730896 C7.08268124 -0.00607986 10.38768042 0.01895467 13.69366455 0.0524292 C15.71711325 0.06639495 17.7397217 0.06282619 19.76318359 0.05249023 C23.65501228 0.03371783 27.54569195 0.04314286 31.4375 0.0625 C33.24547058 0.0550602 33.24547058 0.0550602 35.08996582 0.04747009 C43.34491157 0.16370726 43.34491157 0.16370726 47.45507812 2.35180664 C50.42158765 6.18190553 50.34582867 10.34148043 50.39575195 15.05834961 C50.41500481 16.65041481 50.41500481 16.65041481 50.43464661 18.27464294 C50.44203354 19.41119827 50.44942047 20.5477536 50.45703125 21.71875 C50.465103 22.89603165 50.47317474 24.07331329 50.48149109 25.28627014 C50.49530391 27.7734328 50.50603855 30.26061419 50.51391602 32.74780273 C50.53117112 36.54902858 50.57508893 40.34939395 50.61914062 44.15039062 C50.62926454 46.56900404 50.63778158 48.98762482 50.64453125 51.40625 C50.66203934 52.5407811 50.67954742 53.67531219 50.69758606 54.84422302 C50.68059921 61.02524505 50.54873739 65.02300508 46.21875 69.62890625 C43.178677 70.64226392 41.09092344 70.7672947 37.90869141 70.79003906 C36.8239151 70.79964661 35.73913879 70.80925415 34.62149048 70.81915283 C33.44960175 70.82340271 32.27771301 70.82765259 31.0703125 70.83203125 C29.86563324 70.83773132 28.66095398 70.8434314 27.41976929 70.8493042 C24.86937336 70.8587563 22.31896522 70.86528901 19.76855469 70.86914062 C15.86632002 70.87885009 11.9646111 70.90987404 8.0625 70.94140625 C5.58594063 70.9479359 3.10937749 70.95318652 0.6328125 70.95703125 C-0.53502777 70.96937805 -1.70286804 70.98172485 -2.90609741 70.9944458 C-3.99717804 70.9914447 -5.08825867 70.9884436 -6.21240234 70.98535156 C-7.16931976 70.98899719 -8.12623718 70.99264282 -9.1121521 70.99639893 C-12.32435818 70.55412882 -14.18922316 69.55455762 -16.78125 67.62890625 C-19.56857201 61.41710037 -19.02962572 54.78572319 -18.93359375 48.08984375 C-18.92042618 46.89082428 -18.90725861 45.69180481 -18.89369202 44.45645142 C-18.86135429 41.92987241 -18.82318309 39.40336215 -18.77954102 36.87695312 C-18.71884955 33.01024886 -18.69569416 29.14443771 -18.67382812 25.27734375 C-18.63772187 22.81897548 -18.59938644 20.36063872 -18.55859375 17.90234375 C-18.55625229 16.7470517 -18.55391083 15.59175964 -18.55149841 14.40145874 C-18.43925793 9.76462515 -18.26109506 6.51407879 -16.03149414 2.40112305 C-10.84993454 -0.42415609 -5.80792144 -0.06388597 0 0 Z " fill="#B63F5D" transform="translate(18.78125,82.37109375)"/>
<path d="M0 0 C22.77 0 45.54 0 69 0 C67 5 67 5 65.22544861 6.29533386 C62.52009728 7.15195642 60.23285026 7.26142267 57.39282227 7.2746582 C56.26807999 7.28419022 55.14333771 7.29372223 53.98451233 7.30354309 C52.77403732 7.30263168 51.56356232 7.30172028 50.31640625 7.30078125 C49.06874985 7.30506638 47.82109344 7.3093515 46.53562927 7.31376648 C43.8969006 7.31950995 41.25856308 7.32094518 38.61987305 7.31567383 C35.24604857 7.30988072 31.87277335 7.32681052 28.49903965 7.3500185 C25.27149942 7.36833208 22.04398907 7.36456985 18.81640625 7.36328125 C17.60795547 7.372491 16.3995047 7.38170074 15.1544342 7.39118958 C14.02653976 7.38496078 12.89864532 7.37873199 11.73657227 7.37231445 C10.74714127 7.37294388 9.75771027 7.3735733 8.73829651 7.3742218 C5.45884923 6.92604511 3.60070343 6.0375619 1 4 C0.67 2.68 0.34 1.36 0 0 Z " fill="#7C4391" transform="translate(84,146)"/>
<path d="M0 0 C22.11 0 44.22 0 67 0 C65 5 65 5 63.213974 6.29533386 C60.56912259 7.13714015 58.35397929 7.26123123 55.57641602 7.2746582 C53.94936485 7.28895622 53.94936485 7.28895622 52.28944397 7.30354309 C51.12271652 7.30263168 49.95598907 7.30172028 48.75390625 7.30078125 C47.55064194 7.30506638 46.34737762 7.3093515 45.10765076 7.31376648 C42.56322865 7.31950898 40.01879013 7.32001064 37.47436523 7.31567383 C33.58093261 7.31251495 29.68826049 7.33597157 25.79492188 7.36132812 C23.32291763 7.36360121 20.85091133 7.36430457 18.37890625 7.36328125 C17.21420303 7.372491 16.04949982 7.38170074 14.84950256 7.39118958 C13.76164963 7.38496078 12.67379669 7.37873199 11.55297852 7.37231445 C10.5990773 7.37294388 9.64517609 7.3735733 8.66236877 7.3742218 C5.42761771 6.91954611 3.57151076 6.00425558 1 4 C0.67 2.68 0.34 1.36 0 0 Z " fill="#7F2D44" transform="translate(1,146)"/>
<path d="M0 0 C0.85856598 0.16265854 1.71713196 0.32531708 2.60171509 0.49290466 C5.92262754 0.98845441 9.01783531 1.12037176 12.37255859 1.11352539 C14.23380875 1.11341209 14.23380875 1.11341209 16.13265991 1.11329651 C17.47125286 1.10819113 18.80984539 1.10297515 20.1484375 1.09765625 C21.52991688 1.09578906 22.91139692 1.09436658 24.2928772 1.09336853 C27.91288103 1.08956702 31.53284417 1.07975716 35.15283203 1.06866455 C38.85318451 1.05839935 42.55354361 1.05386 46.25390625 1.04882812 C53.50262264 1.03813258 60.7513056 1.02108485 68 1 C65.125 5.875 65.125 5.875 64 7 C62.11936244 7.11488583 60.23440538 7.15965804 58.3503418 7.17700195 C56.53792244 7.19625481 56.53792244 7.19625481 54.68888855 7.21589661 C52.714002 7.22697701 52.714002 7.22697701 50.69921875 7.23828125 C49.69860381 7.24439454 49.69860381 7.24439454 48.67777443 7.25063133 C45.14594454 7.27151059 41.6141537 7.28580324 38.08227539 7.29516602 C34.43355818 7.30622458 30.78545187 7.34061157 27.13695049 7.38033772 C24.3325131 7.40648695 21.52822146 7.41485635 18.72367287 7.41844749 C16.72501067 7.42568782 14.72644802 7.45213681 12.72795105 7.47883606 C10.90134697 7.47444771 10.90134697 7.47444771 9.0378418 7.4699707 C7.966082 7.47583694 6.8943222 7.48170319 5.79008484 7.48774719 C2.35586477 6.88739584 1.17982768 5.64731576 -1 3 C-0.67 2.01 -0.34 1.02 0 0 Z " fill="#A86A40" transform="translate(86,63)"/>
<path d="M0 0 C22.77 0 45.54 0 69 0 C66 5 66 5 65 6 C63.11936244 6.11488583 61.23440538 6.15965804 59.3503418 6.17700195 C57.53792244 6.19625481 57.53792244 6.19625481 55.68888855 6.21589661 C53.714002 6.22697701 53.714002 6.22697701 51.69921875 6.23828125 C50.69860381 6.24439454 50.69860381 6.24439454 49.67777443 6.25063133 C46.14594454 6.27151059 42.6141537 6.28580324 39.08227539 6.29516602 C35.43355818 6.30622458 31.78545187 6.34061157 28.13695049 6.38033772 C25.3325131 6.40648695 22.52822146 6.41485635 19.72367287 6.41844749 C17.72501067 6.42568782 15.72644802 6.45213681 13.72795105 6.47883606 C11.90134697 6.47444771 11.90134697 6.47444771 10.0378418 6.4699707 C8.966082 6.47583694 7.8943222 6.48170319 6.79008484 6.48774719 C3.32549434 5.88208665 2.127269 4.74735988 0 2 C0 1.34 0 0.68 0 0 Z " fill="#488F9B" transform="translate(1,64)"/>
</svg>
