<?xml version="1.0" encoding="UTF-8"?>
<svg version="1.1" xmlns="http://www.w3.org/2000/svg" width="172" height="168">
<path d="M0 0 C1.08628693 0.00303635 1.08628693 0.00303635 2.19451904 0.00613403 C3.3334964 0.00350555 3.3334964 0.00350555 4.4954834 0.00082397 C7.0175807 -0.00359473 9.53960847 -0.00065649 12.06170654 0.00271606 C13.80666111 0.00204303 15.55161558 0.00107301 17.29656982 -0.00018311 C20.95852549 -0.0016601 24.62045682 0.00049454 28.28240967 0.00515747 C32.98715147 0.01085476 37.69183622 0.00757577 42.39657593 0.00158501 C46.00124546 -0.00202055 49.60590136 -0.00088204 53.21057129 0.0017128 C54.94580085 0.00238208 56.68103163 0.0015536 58.41625977 -0.00076675 C60.83717142 -0.0032932 63.25798941 0.00054718 65.67889404 0.00613403 C66.40308533 0.0041098 67.12727661 0.00208557 67.87341309 0 C72.82244388 0.0212659 72.82244388 0.0212659 73.93670654 1.13552856 C74.03700511 3.56409892 74.07289079 5.96424469 74.06610107 8.39334106 C74.06872955 9.53231842 74.06872955 9.53231842 74.07141113 10.69430542 C74.07582984 13.21640272 74.0728916 15.73843049 74.06951904 18.26052856 C74.07019208 20.00548313 74.0711621 21.7504376 74.07241821 23.49539185 C74.07389521 27.15734752 74.07174057 30.81927884 74.06707764 34.48123169 C74.06138035 39.18597349 74.06465934 43.89065825 74.0706501 48.59539795 C74.07425566 52.20006748 74.07311715 55.80472338 74.07052231 59.40939331 C74.06985303 61.14462287 74.07068151 62.87985365 74.07300186 64.61508179 C74.07552831 67.03599344 74.07168793 69.45681143 74.06610107 71.87771606 C74.06812531 72.60190735 74.07014954 73.32609863 74.07223511 74.07223511 C74.05096921 79.0212659 74.05096921 79.0212659 72.93670654 80.13552856 C70.47226598 80.23053405 68.03596028 80.26110842 65.57122803 80.24905396 C64.80054993 80.24919998 64.02987183 80.24934601 63.23583984 80.24949646 C60.67646516 80.24879716 58.11716234 80.24100402 55.55780029 80.23318481 C53.78803039 80.23132069 52.01825998 80.22989676 50.24848938 80.22889709 C45.58119289 80.22507145 40.91392731 80.21524077 36.24664307 80.20419312 C31.48773619 80.19398 26.72882434 80.18939969 21.96990967 80.18435669 C12.62549501 80.17361854 3.28110334 80.15654156 -6.06329346 80.13552856 C-6.08641721 69.85248319 -6.10420871 59.56944395 -6.11510563 49.28637791 C-6.12033439 44.51204577 -6.1274319 39.73773136 -6.13873291 34.96340942 C-6.14956205 30.35986595 -6.15557035 25.75633957 -6.1581707 21.15278435 C-6.1600249 19.39243233 -6.16364542 17.6320813 -6.16902351 15.87173653 C-6.17623431 13.41480579 -6.17728438 10.95794661 -6.17681885 8.50100708 C-6.18041412 7.76589401 -6.1840094 7.03078094 -6.18771362 6.27339172 C-6.17548556 0.34828966 -5.93318876 0.02549481 0 0 Z " fill="#E0D582" transform="translate(98.06329345703125,87.86447143554688)"/>
<path d="M0 0 C1.08628693 0.00303635 1.08628693 0.00303635 2.19451904 0.00613403 C3.3334964 0.00350555 3.3334964 0.00350555 4.4954834 0.00082397 C7.0175807 -0.00359473 9.53960847 -0.00065649 12.06170654 0.00271606 C13.80666111 0.00204303 15.55161558 0.00107301 17.29656982 -0.00018311 C20.95852549 -0.0016601 24.62045682 0.00049454 28.28240967 0.00515747 C32.98715147 0.01085476 37.69183622 0.00757577 42.39657593 0.00158501 C46.00124546 -0.00202055 49.60590136 -0.00088204 53.21057129 0.0017128 C54.94580085 0.00238208 56.68103163 0.0015536 58.41625977 -0.00076675 C60.83717142 -0.0032932 63.25798941 0.00054718 65.67889404 0.00613403 C66.40308533 0.0041098 67.12727661 0.00208557 67.87341309 0 C72.82244388 0.0212659 72.82244388 0.0212659 73.93670654 1.13552856 C74.03700511 3.56409892 74.07289079 5.96424469 74.06610107 8.39334106 C74.06872955 9.53231842 74.06872955 9.53231842 74.07141113 10.69430542 C74.07582984 13.21640272 74.0728916 15.73843049 74.06951904 18.26052856 C74.07019208 20.00548313 74.0711621 21.7504376 74.07241821 23.49539185 C74.07389521 27.15734752 74.07174057 30.81927884 74.06707764 34.48123169 C74.06138035 39.18597349 74.06465934 43.89065825 74.0706501 48.59539795 C74.07425566 52.20006748 74.07311715 55.80472338 74.07052231 59.40939331 C74.06985303 61.14462287 74.07068151 62.87985365 74.07300186 64.61508179 C74.07552831 67.03599344 74.07168793 69.45681143 74.06610107 71.87771606 C74.06812531 72.60190735 74.07014954 73.32609863 74.07223511 74.07223511 C74.05096921 79.0212659 74.05096921 79.0212659 72.93670654 80.13552856 C70.47226598 80.23053405 68.03596028 80.26110842 65.57122803 80.24905396 C64.80054993 80.24919998 64.02987183 80.24934601 63.23583984 80.24949646 C60.67646516 80.24879716 58.11716234 80.24100402 55.55780029 80.23318481 C53.78803039 80.23132069 52.01825998 80.22989676 50.24848938 80.22889709 C45.58119289 80.22507145 40.91392731 80.21524077 36.24664307 80.20419312 C31.48773619 80.19398 26.72882434 80.18939969 21.96990967 80.18435669 C12.62549501 80.17361854 3.28110334 80.15654156 -6.06329346 80.13552856 C-6.08641721 69.85248319 -6.10420871 59.56944395 -6.11510563 49.28637791 C-6.12033439 44.51204577 -6.1274319 39.73773136 -6.13873291 34.96340942 C-6.14956205 30.35986595 -6.15557035 25.75633957 -6.1581707 21.15278435 C-6.1600249 19.39243233 -6.16364542 17.6320813 -6.16902351 15.87173653 C-6.17623431 13.41480579 -6.17728438 10.95794661 -6.17681885 8.50100708 C-6.18041412 7.76589401 -6.1840094 7.03078094 -6.18771362 6.27339172 C-6.17548556 0.34828966 -5.93318876 0.02549481 0 0 Z " fill="#E0D582" transform="translate(6.06329345703125,87.86447143554688)"/>
<path d="M0 0 C1.08628693 0.00303635 1.08628693 0.00303635 2.19451904 0.00613403 C3.3334964 0.00350555 3.3334964 0.00350555 4.4954834 0.00082397 C7.0175807 -0.00359473 9.53960847 -0.00065649 12.06170654 0.00271606 C13.80666111 0.00204303 15.55161558 0.00107301 17.29656982 -0.00018311 C20.95852549 -0.0016601 24.62045682 0.00049454 28.28240967 0.00515747 C32.98715147 0.01085476 37.69183622 0.00757577 42.39657593 0.00158501 C46.00124546 -0.00202055 49.60590136 -0.00088204 53.21057129 0.0017128 C54.94580085 0.00238208 56.68103163 0.0015536 58.41625977 -0.00076675 C60.83717142 -0.0032932 63.25798941 0.00054718 65.67889404 0.00613403 C66.40308533 0.0041098 67.12727661 0.00208557 67.87341309 0 C72.82244388 0.0212659 72.82244388 0.0212659 73.93670654 1.13552856 C74.03700511 3.56409892 74.07289079 5.96424469 74.06610107 8.39334106 C74.06872955 9.53231842 74.06872955 9.53231842 74.07141113 10.69430542 C74.07582984 13.21640272 74.0728916 15.73843049 74.06951904 18.26052856 C74.07019208 20.00548313 74.0711621 21.7504376 74.07241821 23.49539185 C74.07389521 27.15734752 74.07174057 30.81927884 74.06707764 34.48123169 C74.06138035 39.18597349 74.06465934 43.89065825 74.0706501 48.59539795 C74.07425566 52.20006748 74.07311715 55.80472338 74.07052231 59.40939331 C74.06985303 61.14462287 74.07068151 62.87985365 74.07300186 64.61508179 C74.07552831 67.03599344 74.07168793 69.45681143 74.06610107 71.87771606 C74.06812531 72.60190735 74.07014954 73.32609863 74.07223511 74.07223511 C74.05096921 79.0212659 74.05096921 79.0212659 72.93670654 80.13552856 C70.50813619 80.23582713 68.10799041 80.27171281 65.67889404 80.2649231 C64.91957581 80.26667542 64.16025757 80.26842773 63.37792969 80.27023315 C60.85583239 80.27465186 58.33380462 80.27171362 55.81170654 80.26834106 C54.06675198 80.2690141 52.3217975 80.26998412 50.57684326 80.27124023 C46.91488759 80.27271723 43.25295627 80.27056259 39.59100342 80.26589966 C34.88626162 80.26020237 30.18157686 80.26348136 25.47683716 80.26947212 C21.87216763 80.27307768 18.26751173 80.27193917 14.6628418 80.26934433 C12.92761224 80.26867505 11.19238146 80.26950353 9.45715332 80.27182388 C7.03624167 80.27435033 4.61542368 80.27050995 2.19451904 80.2649231 C1.47032776 80.26694733 0.74613647 80.26897156 0 80.27105713 C-4.94903079 80.24979123 -4.94903079 80.24979123 -6.06329346 79.13552856 C-6.16359202 76.70695821 -6.1994777 74.30681244 -6.19268799 71.87771606 C-6.19444031 71.11839783 -6.19619263 70.35907959 -6.19799805 69.57675171 C-6.20241676 67.05465441 -6.19947852 64.53262664 -6.19610596 62.01052856 C-6.19677899 60.265574 -6.19774901 58.52061953 -6.19900513 56.77566528 C-6.20048213 53.11370961 -6.19832748 49.45177829 -6.19366455 45.78982544 C-6.18796726 41.08508364 -6.19124625 36.38039888 -6.19723701 31.67565918 C-6.20084258 28.07098965 -6.19970407 24.46633375 -6.19710922 20.86166382 C-6.19643994 19.12643426 -6.19726842 17.39120348 -6.19958878 15.65597534 C-6.20211522 13.23506369 -6.19827484 10.8142457 -6.19268799 8.39334106 C-6.19471222 7.66914978 -6.19673645 6.9449585 -6.19882202 6.19882202 C-6.17353047 0.3129349 -5.88588712 0.02529156 0 0 Z " fill="#E0D582" transform="translate(6.06329345703125,-0.135528564453125)"/>
<path d="M0 0 C1.08628693 0.00303635 1.08628693 0.00303635 2.19451904 0.00613403 C3.3334964 0.00350555 3.3334964 0.00350555 4.4954834 0.00082397 C7.0175807 -0.00359473 9.53960847 -0.00065649 12.06170654 0.00271606 C13.80666111 0.00204303 15.55161558 0.00107301 17.29656982 -0.00018311 C20.95852549 -0.0016601 24.62045682 0.00049454 28.28240967 0.00515747 C32.98715147 0.01085476 37.69183622 0.00757577 42.39657593 0.00158501 C46.00124546 -0.00202055 49.60590136 -0.00088204 53.21057129 0.0017128 C54.94580085 0.00238208 56.68103163 0.0015536 58.41625977 -0.00076675 C60.83717142 -0.0032932 63.25798941 0.00054718 65.67889404 0.00613403 C66.40308533 0.0041098 67.12727661 0.00208557 67.87341309 0 C72.82244388 0.0212659 72.82244388 0.0212659 73.93670654 1.13552856 C74.03700511 3.56409892 74.07289079 5.96424469 74.06610107 8.39334106 C74.06872955 9.53231842 74.06872955 9.53231842 74.07141113 10.69430542 C74.07582984 13.21640272 74.0728916 15.73843049 74.06951904 18.26052856 C74.07019208 20.00548313 74.0711621 21.7504376 74.07241821 23.49539185 C74.07389521 27.15734752 74.07174057 30.81927884 74.06707764 34.48123169 C74.06138035 39.18597349 74.06465934 43.89065825 74.0706501 48.59539795 C74.07425566 52.20006748 74.07311715 55.80472338 74.07052231 59.40939331 C74.06985303 61.14462287 74.07068151 62.87985365 74.07300186 64.61508179 C74.07552831 67.03599344 74.07168793 69.45681143 74.06610107 71.87771606 C74.06812531 72.60190735 74.07014954 73.32609863 74.07223511 74.07223511 C74.05096921 79.0212659 74.05096921 79.0212659 72.93670654 80.13552856 C70.50813619 80.23582713 68.10799041 80.27171281 65.67889404 80.2649231 C64.91957581 80.26667542 64.16025757 80.26842773 63.37792969 80.27023315 C60.85583239 80.27465186 58.33380462 80.27171362 55.81170654 80.26834106 C54.06675198 80.2690141 52.3217975 80.26998412 50.57684326 80.27124023 C46.91488759 80.27271723 43.25295627 80.27056259 39.59100342 80.26589966 C34.88626162 80.26020237 30.18157686 80.26348136 25.47683716 80.26947212 C21.87216763 80.27307768 18.26751173 80.27193917 14.6628418 80.26934433 C12.92761224 80.26867505 11.19238146 80.26950353 9.45715332 80.27182388 C7.03624167 80.27435033 4.61542368 80.27050995 2.19451904 80.2649231 C1.47032776 80.26694733 0.74613647 80.26897156 0 80.27105713 C-4.94903079 80.24979123 -4.94903079 80.24979123 -6.06329346 79.13552856 C-6.16359202 76.70695821 -6.1994777 74.30681244 -6.19268799 71.87771606 C-6.19444031 71.11839783 -6.19619263 70.35907959 -6.19799805 69.57675171 C-6.20241676 67.05465441 -6.19947852 64.53262664 -6.19610596 62.01052856 C-6.19677899 60.265574 -6.19774901 58.52061953 -6.19900513 56.77566528 C-6.20048213 53.11370961 -6.19832748 49.45177829 -6.19366455 45.78982544 C-6.18796726 41.08508364 -6.19124625 36.38039888 -6.19723701 31.67565918 C-6.20084258 28.07098965 -6.19970407 24.46633375 -6.19710922 20.86166382 C-6.19643994 19.12643426 -6.19726842 17.39120348 -6.19958878 15.65597534 C-6.20211522 13.23506369 -6.19827484 10.8142457 -6.19268799 8.39334106 C-6.19471222 7.66914978 -6.19673645 6.9449585 -6.19882202 6.19882202 C-6.17353047 0.3129349 -5.88588712 0.02529156 0 0 Z " fill="#E1D682" transform="translate(98.06329345703125,-0.135528564453125)"/>
<path d="M0 0 C0.66 0 1.32 0 2 0 C2.02312392 10.15266151 2.04091534 20.3053168 2.05181217 30.45799923 C2.05704089 35.17179733 2.06413834 39.88557747 2.07543945 44.59936523 C2.08626873 49.14455404 2.09227692 53.68972552 2.09487724 58.23492622 C2.09673142 59.97294958 2.10035189 61.71097194 2.10573006 63.44898796 C2.11294103 65.87478595 2.11399092 68.30051146 2.11352539 70.72631836 C2.11712067 71.45208069 2.12071594 72.17784302 2.12442017 72.92559814 C2.11405216 77.88594784 2.11405216 77.88594784 1 79 C-1.43396019 79.09498646 -3.83942952 79.12558417 -6.27368164 79.11352539 C-7.41506844 79.11374443 -7.41506844 79.11374443 -8.57951355 79.1139679 C-11.10642298 79.11326862 -13.63325962 79.10547555 -16.16015625 79.09765625 C-17.9075059 79.09579212 -19.65485607 79.0943682 -21.40220642 79.09336853 C-26.01031934 79.08954293 -30.61840095 79.07971229 -35.22650146 79.06866455 C-39.92508521 79.05845134 -44.62367399 79.0538711 -49.32226562 79.04882812 C-58.54819087 79.03809005 -67.77409284 79.02101313 -77 79 C-77.33 78.34 -77.66 77.68 -78 77 C-74.27839254 74.51892836 -72.40253567 74.75765048 -67.95825195 74.77294922 C-66.88957886 74.77251114 -66.88957886 74.77251114 -65.79931641 74.77206421 C-63.44551393 74.77345704 -61.0920284 74.78901581 -58.73828125 74.8046875 C-57.10589267 74.8084178 -55.47350185 74.81126469 -53.84111023 74.81326294 C-49.54533707 74.82089806 -45.24969921 74.84054548 -40.95397949 74.8626709 C-36.57024974 74.88313195 -32.18649812 74.89226521 -27.80273438 74.90234375 C-19.20176083 74.92379151 -10.60089725 74.95792596 -2 75 C-2.00444122 74.08989166 -2.00888245 73.17978333 -2.01345825 72.24209595 C-2.05348176 63.67793421 -2.08395726 55.11380374 -2.10362434 46.54957008 C-2.11407518 42.14628749 -2.12825796 37.74308198 -2.15087891 33.33984375 C-2.17256112 29.09290176 -2.18455883 24.84603404 -2.18975449 20.59904099 C-2.19345858 18.97626958 -2.20069146 17.35350238 -2.21146011 15.73076248 C-2.2259138 13.46315883 -2.22798054 11.19586472 -2.22705078 8.92822266 C-2.231492 7.63582672 -2.23593323 6.34343079 -2.24050903 5.01187134 C-2 2 -2 2 0 0 Z " fill="#9E985C" transform="translate(170,1)"/>
<path d="M0 0 C0.66 0 1.32 0 2 0 C2.02312392 10.15266151 2.04091534 20.3053168 2.05181217 30.45799923 C2.05704089 35.17179733 2.06413834 39.88557747 2.07543945 44.59936523 C2.08626873 49.14455404 2.09227692 53.68972552 2.09487724 58.23492622 C2.09673142 59.97294958 2.10035189 61.71097194 2.10573006 63.44898796 C2.11294103 65.87478595 2.11399092 68.30051146 2.11352539 70.72631836 C2.11712067 71.45208069 2.12071594 72.17784302 2.12442017 72.92559814 C2.11405216 77.88594784 2.11405216 77.88594784 1 79 C-1.46444057 79.09500548 -3.90074626 79.12557985 -6.36547852 79.11352539 C-7.13615662 79.11367142 -7.90683472 79.11381744 -8.7008667 79.1139679 C-11.26024139 79.1132686 -13.8195442 79.10547545 -16.37890625 79.09765625 C-18.14867615 79.09579213 -19.91844656 79.0943682 -21.68821716 79.09336853 C-26.35551366 79.08954288 -31.02277923 79.0797122 -35.69006348 79.06866455 C-40.44897035 79.05845144 -45.20788221 79.05387113 -49.96679688 79.04882812 C-59.31121153 79.03808997 -68.6556032 79.02101299 -78 79 C-78 78.34 -78 77.68 -78 77 C-74.44277137 75.81425712 -71.62223456 75.88009807 -67.86645508 75.88647461 C-67.14425278 75.88632858 -66.42205048 75.88618256 -65.67796326 75.8860321 C-63.29178866 75.88672855 -60.90569221 75.8945084 -58.51953125 75.90234375 C-56.8647211 75.90420888 -55.20991039 75.90563234 -53.55509949 75.90663147 C-49.20018997 75.91044915 -44.84531382 75.92027305 -40.49041748 75.93133545 C-36.04635062 75.94156567 -31.60227837 75.94613255 -27.15820312 75.95117188 C-18.43878677 75.96189598 -9.71939754 75.97896343 -1 76 C-1.03325882 74.81675644 -1.06651764 73.63351288 -1.1007843 72.41441345 C-1.60660697 54.35172291 -2.10094106 36.28530203 -2.17724609 18.21481323 C-2.18407166 16.78211457 -2.19431521 15.34942805 -2.20800781 13.91677856 C-2.22564395 11.9354688 -2.22846342 9.95404349 -2.23046875 7.97265625 C-2.23457764 6.86156494 -2.23868652 5.75047363 -2.24291992 4.60571289 C-2 2 -2 2 0 0 Z " fill="#958F56" transform="translate(78,89)"/>
<path d="M0 0 C0.66 0 1.32 0 2 0 C2.02312392 10.15266151 2.04091534 20.3053168 2.05181217 30.45799923 C2.05704089 35.17179733 2.06413834 39.88557747 2.07543945 44.59936523 C2.08626873 49.14455404 2.09227692 53.68972552 2.09487724 58.23492622 C2.09673142 59.97294958 2.10035189 61.71097194 2.10573006 63.44898796 C2.11294103 65.87478595 2.11399092 68.30051146 2.11352539 70.72631836 C2.11712067 71.45208069 2.12071594 72.17784302 2.12442017 72.92559814 C2.11405216 77.88594784 2.11405216 77.88594784 1 79 C-1.46444057 79.09500548 -3.90074626 79.12557985 -6.36547852 79.11352539 C-7.13615662 79.11367142 -7.90683472 79.11381744 -8.7008667 79.1139679 C-11.26024139 79.1132686 -13.8195442 79.10547545 -16.37890625 79.09765625 C-18.14867615 79.09579213 -19.91844656 79.0943682 -21.68821716 79.09336853 C-26.35551366 79.08954288 -31.02277923 79.0797122 -35.69006348 79.06866455 C-40.44897035 79.05845144 -45.20788221 79.05387113 -49.96679688 79.04882812 C-59.31121153 79.03808997 -68.6556032 79.02101299 -78 79 C-78 78.34 -78 77.68 -78 77 C-74.44277137 75.81425712 -71.62223456 75.88009807 -67.86645508 75.88647461 C-67.14425278 75.88632858 -66.42205048 75.88618256 -65.67796326 75.8860321 C-63.29178866 75.88672855 -60.90569221 75.8945084 -58.51953125 75.90234375 C-56.8647211 75.90420888 -55.20991039 75.90563234 -53.55509949 75.90663147 C-49.20018997 75.91044915 -44.84531382 75.92027305 -40.49041748 75.93133545 C-36.04635062 75.94156567 -31.60227837 75.94613255 -27.15820312 75.95117188 C-18.43878677 75.96189598 -9.71939754 75.97896343 -1 76 C-1.00222061 75.0626149 -1.00444122 74.1252298 -1.00672913 73.15943909 C-1.02696143 64.34478215 -1.04197256 55.5301299 -1.05181217 46.71545506 C-1.05704078 42.18325906 -1.06413801 37.65108173 -1.07543945 33.11889648 C-1.08626914 28.7487717 -1.09227701 24.37866492 -1.09487724 20.00852776 C-1.09673135 18.33749037 -1.10035168 16.66645403 -1.10573006 14.99542427 C-1.11294159 12.66302449 -1.1139909 10.33070007 -1.11352539 7.99829102 C-1.11712067 7.3005809 -1.12071594 6.60287079 -1.12442017 5.88401794 C-1.11405216 1.11405216 -1.11405216 1.11405216 0 0 Z " fill="#938D55" transform="translate(170,89)"/>
<path d="M0 0 C0.33 0 0.66 0 1 0 C1.02312392 10.15266151 1.04091534 20.3053168 1.05181217 30.45799923 C1.05704089 35.17179733 1.06413834 39.88557747 1.07543945 44.59936523 C1.08626873 49.14455404 1.09227692 53.68972552 1.09487724 58.23492622 C1.09673142 59.97294958 1.10035189 61.71097194 1.10573006 63.44898796 C1.11294103 65.87478595 1.11399092 68.30051146 1.11352539 70.72631836 C1.11712067 71.45208069 1.12071594 72.17784302 1.12442017 72.92559814 C1.11405216 77.88594784 1.11405216 77.88594784 0 79 C-2.43396019 79.09498646 -4.83942952 79.12558417 -7.27368164 79.11352539 C-8.41506844 79.11374443 -8.41506844 79.11374443 -9.57951355 79.1139679 C-12.10642298 79.11326862 -14.63325962 79.10547555 -17.16015625 79.09765625 C-18.9075059 79.09579212 -20.65485607 79.0943682 -22.40220642 79.09336853 C-27.01031934 79.08954293 -31.61840095 79.07971229 -36.22650146 79.06866455 C-40.92508521 79.05845134 -45.62367399 79.0538711 -50.32226562 79.04882812 C-59.54819087 79.03809005 -68.77409284 79.02101313 -78 79 C-78.33 78.34 -78.66 77.68 -79 77 C-75.44277137 75.81425712 -72.62223456 75.88009807 -68.86645508 75.88647461 C-68.14425278 75.88632858 -67.42205048 75.88618256 -66.67796326 75.8860321 C-64.29178866 75.88672855 -61.90569221 75.8945084 -59.51953125 75.90234375 C-57.8647211 75.90420888 -56.20991039 75.90563234 -54.55509949 75.90663147 C-50.20018997 75.91044915 -45.84531382 75.92027305 -41.49041748 75.93133545 C-37.04635062 75.94156567 -32.60227837 75.94613255 -28.15820312 75.95117188 C-19.43878677 75.96189598 -10.71939754 75.97896343 -2 76 C-2.00444122 75.07736359 -2.00888245 74.15472717 -2.01345825 73.20413208 C-2.05348113 64.52224097 -2.08395694 55.8403807 -2.10362434 47.15841866 C-2.11407534 42.69460245 -2.12825844 38.23086228 -2.15087891 33.76708984 C-2.17256052 29.46179326 -2.1845587 25.15656995 -2.18975449 20.85122299 C-2.19345869 19.20612306 -2.20069177 17.56102727 -2.21146011 15.9159584 C-2.22591299 13.61722296 -2.22798058 11.31879287 -2.22705078 9.02001953 C-2.231492 7.7098587 -2.23593323 6.39969788 -2.24050903 5.04983521 C-2 2 -2 2 0 0 Z " fill="#726D43" transform="translate(79,1)"/>
<path d="M0 0 C25.74 0 51.48 0 78 0 C77 3 77 3 75 4 C72.73909624 4.112651 70.47482163 4.15939445 68.21118164 4.17700195 C67.16458626 4.18685875 67.16458626 4.18685875 66.09684753 4.19691467 C63.78461607 4.2166494 61.47244946 4.22830887 59.16015625 4.23828125 C58.37139036 4.24235678 57.58262447 4.2464323 56.76995659 4.25063133 C52.5973728 4.27149006 48.42482192 4.28579417 44.25219727 4.29516602 C39.93645735 4.30624687 35.62123073 4.34066603 31.30567265 4.38033772 C27.99172485 4.40644012 24.67790074 4.41485199 21.36385918 4.41844749 C19.77259277 4.42332787 18.18133241 4.43498298 16.59016609 4.45348549 C14.36576313 4.47774925 12.14270674 4.47693661 9.91821289 4.4699707 C8.01864586 4.47877007 8.01864586 4.47877007 6.08070374 4.48774719 C3 4 3 4 0 0 Z " fill="#F1E58B" transform="translate(1,0)"/>
<path d="M0 0 C1.07848457 -0.00744736 1.07848457 -0.00744736 2.17875671 -0.01504517 C4.55529741 -0.02964226 6.93177147 -0.03646292 9.30834961 -0.04199219 C10.95836896 -0.04774348 12.60838829 -0.05350121 14.25840759 -0.05926514 C17.71589469 -0.06976662 21.17335858 -0.07561558 24.63085938 -0.07910156 C29.06876026 -0.08459968 33.50635639 -0.10865909 37.94416142 -0.13707352 C41.35071219 -0.15565796 44.75718873 -0.16090313 48.16378593 -0.16243744 C49.80051791 -0.16547151 51.43724835 -0.1735253 53.07393074 -0.18662262 C55.35812065 -0.20360413 57.64155452 -0.20182333 59.92578125 -0.1953125 C61.22689346 -0.19895813 62.52800568 -0.20260376 63.86854553 -0.20635986 C65.36822121 -0.02445099 65.36822121 -0.02445099 66.89819336 0.16113281 C67.88819336 1.64613281 67.88819336 1.64613281 68.89819336 3.16113281 C42.82819336 3.16113281 16.75819336 3.16113281 -10.10180664 3.16113281 C-10.10180664 2.50113281 -10.10180664 1.84113281 -10.10180664 1.16113281 C-6.56348871 -0.0183065 -3.73558851 0.01959172 0 0 Z " fill="#726D43" transform="translate(102.101806640625,164.8388671875)"/>
<path d="M0 0 C1.09289589 -0.00744736 1.09289589 -0.00744736 2.20787048 -0.01504517 C4.62231381 -0.0296721 7.0366915 -0.0364686 9.45117188 -0.04199219 C11.12504072 -0.0477419 12.79890953 -0.05349966 14.47277832 -0.05926514 C17.98332019 -0.06977574 21.49383914 -0.07561844 25.00439453 -0.07910156 C29.51070357 -0.08459545 34.01671183 -0.10864207 38.52292633 -0.13707352 C41.98009133 -0.15565979 45.43718317 -0.16090328 48.89439392 -0.16243744 C50.55624542 -0.16547211 52.21809539 -0.1735279 53.87989807 -0.18662262 C56.20011599 -0.20360473 58.51958958 -0.20182291 60.83984375 -0.1953125 C61.87630287 -0.20913467 61.87630287 -0.20913467 62.93370056 -0.22323608 C64.84558105 -0.20635986 64.84558105 -0.20635986 67.91992188 0.16113281 C68.90992188 1.64613281 68.90992188 1.64613281 69.91992188 3.16113281 C44.17992187 3.16113281 18.43992187 3.16113281 -8.08007812 3.16113281 C-8.41007812 2.50113281 -8.74007812 1.84113281 -9.08007812 1.16113281 C-6.15405945 -0.30187653 -3.20784047 0.00518966 0 0 Z " fill="#726D43" transform="translate(101.080078125,76.8388671875)"/>
<path d="M0 0 C25.74 0 51.48 0 78 0 C77.34 0.99 76.68 1.98 76 3 C73.54534151 3.28679046 71.3435516 3.37873005 68.88818359 3.34057617 C68.15637375 3.34101425 67.4245639 3.34145233 66.670578 3.34190369 C64.24626185 3.33980989 61.82263316 3.3164519 59.3984375 3.29296875 C57.71978127 3.28737488 56.04112015 3.28310379 54.36245728 3.28010559 C49.94000778 3.26864033 45.51785294 3.23915891 41.09552002 3.20599365 C36.5845539 3.17532884 32.07354026 3.16160795 27.5625 3.14648438 C18.70820373 3.11429065 9.85412635 3.06307417 1 3 C0.67 2.01 0.34 1.02 0 0 Z " fill="#F3E78C" transform="translate(93,88)"/>
<path d="M0 0 C25.74 0 51.48 0 78 0 C77.34 0.99 76.68 1.98 76 3 C73.54534151 3.28679046 71.3435516 3.37873005 68.88818359 3.34057617 C68.15637375 3.34101425 67.4245639 3.34145233 66.670578 3.34190369 C64.24626185 3.33980989 61.82263316 3.3164519 59.3984375 3.29296875 C57.71978127 3.28737488 56.04112015 3.28310379 54.36245728 3.28010559 C49.94000778 3.26864033 45.51785294 3.23915891 41.09552002 3.20599365 C36.5845539 3.17532884 32.07354026 3.16160795 27.5625 3.14648438 C18.70820373 3.11429065 9.85412635 3.06307417 1 3 C0.67 2.01 0.34 1.02 0 0 Z " fill="#F3E78C" transform="translate(1,88)"/>
<path d="M0 0 C0.33 0 0.66 0 1 0 C1 25.74 1 51.48 1 78 C0.01 77.67 -0.98 77.34 -2 77 C-2.04627664 67.2557762 -2.08184536 57.51157841 -2.10362434 47.76726723 C-2.11407551 43.2429174 -2.1282589 38.71864259 -2.15087891 34.19433594 C-2.17255993 29.83068476 -2.18455858 25.46710587 -2.18975449 21.103405 C-2.19345879 19.43597653 -2.20069207 17.76855215 -2.21146011 16.10115433 C-2.2259122 13.77128705 -2.22798061 11.44172106 -2.22705078 9.11181641 C-2.23424133 8.41770157 -2.24143188 7.72358673 -2.24884033 7.00843811 C-2.22810432 2.22810432 -2.22810432 2.22810432 0 0 Z " fill="#928C54" transform="translate(79,1)"/>
<path d="M0 0 C0.99 0.33 1.98 0.66 3 1 C3 26.08 3 51.16 3 77 C2.01 77 1.02 77 0 77 C0 51.59 0 26.18 0 0 Z " fill="#D1C779" transform="translate(0,1)"/>
<path d="M0 0 C0.70762985 -0.0049649 1.4152597 -0.00992981 2.14433289 -0.01504517 C4.48360161 -0.02964293 6.8228026 -0.03646354 9.16210938 -0.04199219 C10.78731285 -0.04774406 12.4125163 -0.05350179 14.03771973 -0.05926514 C17.44393225 -0.06976725 20.85012122 -0.07561559 24.25634766 -0.07910156 C28.62465019 -0.08459539 32.99264245 -0.10864542 37.36084747 -0.13707352 C40.71682657 -0.15567631 44.07273041 -0.16090415 47.42875671 -0.16243744 C49.03954267 -0.16546808 50.65032718 -0.17351043 52.26106262 -0.18662262 C54.51152375 -0.20364004 56.76121974 -0.20181429 59.01171875 -0.1953125 C60.93340881 -0.20078094 60.93340881 -0.20078094 62.8939209 -0.20635986 C66.00585938 0.16113281 66.00585938 0.16113281 69.00585938 3.16113281 C42.93585937 3.16113281 16.86585937 3.16113281 -9.99414062 3.16113281 C-9.99414062 2.50113281 -9.99414062 1.84113281 -9.99414062 1.16113281 C-6.48589094 -0.00828375 -3.70316862 0.01973673 0 0 Z " fill="#726D43" transform="translate(9.994140625,164.8388671875)"/>
<path d="M0 0 C1.485 0.99 1.485 0.99 3 2 C3.39872742 5.04983521 3.39872742 5.04983521 3.43237305 9.02001953 C3.4425647 9.74207581 3.45275635 10.46413208 3.46325684 11.20806885 C3.49350189 13.5997278 3.50266994 15.99098706 3.51171875 18.3828125 C3.52855698 20.03906599 3.54670605 21.69530664 3.56611633 23.35153198 C3.61371578 27.71461981 3.64346055 32.07765559 3.66955566 36.44091797 C3.69931125 40.89170621 3.74585863 45.34231484 3.79101562 49.79296875 C3.87716176 58.52855781 3.94445642 67.26416304 4 76 C2.02 76.495 2.02 76.495 0 77 C0 51.59 0 26.18 0 0 Z " fill="#D1C779" transform="translate(92,89)"/>
<path d="M0 0 C0.99 0.33 1.98 0.66 3 1 C3 25.75 3 50.5 3 76 C1.515 76.495 1.515 76.495 0 77 C0 51.59 0 26.18 0 0 Z " fill="#D1C779" transform="translate(92,1)"/>
<path d="M0 0 C1.485 0.99 1.485 0.99 3 2 C3.28679046 4.45465849 3.37873005 6.6564484 3.34057617 9.11181641 C3.34101425 9.84362625 3.34145233 10.5754361 3.34190369 11.329422 C3.33980989 13.75373815 3.3164519 16.17736684 3.29296875 18.6015625 C3.28737488 20.28021873 3.28310379 21.95887985 3.28010559 23.63754272 C3.26864033 28.05999222 3.23915891 32.48214706 3.20599365 36.90447998 C3.17532884 41.4154461 3.16160795 45.92645974 3.14648438 50.4375 C3.11429065 59.29179627 3.06307417 68.14587365 3 77 C2.01 77 1.02 77 0 77 C0 51.59 0 26.18 0 0 Z " fill="#D1C779" transform="translate(0,89)"/>
<path d="M0 0 C25.74 0 51.48 0 78 0 C77.34 0.99 76.68 1.98 76 3 C72.96362305 3.38095093 72.96362305 3.38095093 69.01171875 3.38818359 C68.29287506 3.39344055 67.57403137 3.39869751 66.83340454 3.40411377 C64.45121697 3.41734515 62.06969466 3.40856507 59.6875 3.3984375 C58.03605012 3.40045735 56.38460111 3.40336803 54.7331543 3.40713501 C51.26960775 3.4115626 47.80629307 3.40511349 44.34277344 3.39111328 C39.8969426 3.37402098 35.45165501 3.38385986 31.00584412 3.40183067 C27.59496954 3.41265689 24.18422436 3.40922757 20.77334595 3.4014473 C19.13383928 3.39944206 17.49432096 3.40191588 15.85482788 3.40888596 C13.56566121 3.41648159 11.27738163 3.40492396 8.98828125 3.38818359 C7.03208862 3.38460342 7.03208862 3.38460342 5.03637695 3.38095093 C3.53337036 3.19238022 3.53337036 3.19238022 2 3 C1.34 2.01 0.68 1.02 0 0 Z " fill="#F3E78C" transform="translate(93,0)"/>
</svg>
