<?xml version="1.0" encoding="UTF-8"?>
<svg version="1.1" xmlns="http://www.w3.org/2000/svg" width="400" height="400">
<path d="M0 0 C132 0 264 0 400 0 C400 132 400 264 400 400 C268 400 136 400 0 400 C0 268 0 136 0 0 Z " fill="#5BBC72" transform="translate(0,0)"/>
<path d="M0 0 C7.05077628 5.7488962 11.95165066 13.68003563 12.98852539 22.8684082 C13.10101966 25.66566491 13.10870565 28.44300048 13.07421875 31.2421875 C13.08582031 32.17998047 13.09742188 33.11777344 13.109375 34.08398438 C13.06532232 44.64928561 9.89585679 54.07056281 2.57421875 61.8046875 C-14.72652325 78.22198735 -34.65055203 80.99581672 -57.5546875 80.52734375 C-73.25048934 80.01504843 -88.76297955 77.35623215 -103.23828125 71.12109375 C-105.88038451 70.07526121 -108.48173706 69.60142899 -111.30078125 69.3046875 C-111.70683594 70.36623047 -111.70683594 70.36623047 -112.12109375 71.44921875 C-113.33449601 74.38629509 -114.72023618 77.16782673 -116.17578125 79.9921875 C-118.51052936 84.6162385 -120.57922261 89.25288683 -122.4375 94.0859375 C-123.16451823 95.95447303 -123.97370818 97.79073447 -124.80078125 99.6171875 C-128.3568647 108.35922598 -130.62104422 117.2658903 -132.48828125 126.4921875 C-132.65513428 127.31098389 -132.8219873 128.12978027 -132.99389648 128.97338867 C-135.16604603 140.1200337 -135.60749833 151.22642603 -135.67578125 162.5546875 C-135.68067566 163.30025909 -135.68557007 164.04583069 -135.69061279 164.81399536 C-135.77222306 185.98296738 -135.77222306 185.98296738 -128.30078125 205.3046875 C-128.30078125 206.2946875 -128.30078125 207.2846875 -128.30078125 208.3046875 C-127.64078125 208.3046875 -126.98078125 208.3046875 -126.30078125 208.3046875 C-125.34436719 209.70515095 -124.39322214 211.10949862 -123.46875 212.53125 C-118.00144398 220.8327782 -110.46994903 226.61321198 -100.64453125 228.93139648 C-83.24763354 232.11768853 -65.75982767 231.91248092 -49.30078125 225.3046875 C-47.7619327 224.85737607 -46.22062036 224.41835001 -44.67578125 223.9921875 C-28.77382326 218.61045411 -12.25523169 206.32766075 -2.23828125 193.1171875 C1.3063014 188.5157009 5.25470106 184.56641383 10.69921875 182.3046875 C13.36315406 182.43988722 14.41676241 183.05929557 16.42578125 184.8046875 C18.3507125 188.58369364 18.14523044 192.12234366 18.07421875 196.3046875 C18.06406738 197.15611328 18.05391602 198.00753906 18.04345703 198.88476562 C17.6753494 213.94008219 12.20138371 225.7597866 2.69921875 237.3046875 C2.10367188 238.04589844 1.508125 238.78710938 0.89453125 239.55078125 C-3.88156931 245.23798533 -9.03653881 249.35133937 -15.30078125 253.3046875 C-16.50734375 254.07425781 -16.50734375 254.07425781 -17.73828125 254.859375 C-32.86121304 264.2142655 -47.8304936 269.52853855 -65.30078125 272.3046875 C-66.45449219 272.49160156 -67.60820312 272.67851562 -68.796875 272.87109375 C-75.52833357 273.6723023 -82.34299832 273.54912286 -89.11328125 273.5546875 C-89.84932587 273.55536224 -90.58537048 273.55603699 -91.34371948 273.55673218 C-120.92412593 273.51368653 -149.45280604 267.02177399 -171.11328125 245.51171875 C-177.30078125 238.81181641 -177.30078125 238.81181641 -177.30078125 236.3046875 C-177.96078125 236.3046875 -178.62078125 236.3046875 -179.30078125 236.3046875 C-188.18870629 220.37632746 -195.44392267 203.82744755 -195.46875 185.3046875 C-195.4720784 184.43255615 -195.4754068 183.5604248 -195.47883606 182.66186523 C-195.48389025 180.81608607 -195.48624485 178.9702978 -195.48608398 177.12451172 C-195.4882522 174.34196248 -195.50637315 171.55982197 -195.52539062 168.77734375 C-195.56529503 156.28579578 -194.89884482 144.76417699 -191.00390625 132.79296875 C-190.26146833 130.16556345 -189.89905613 127.63638903 -189.55078125 124.9296875 C-186.28049442 103.65908243 -175.32341101 77.73027765 -162.7109375 60.3046875 C-160.43308029 57.07404237 -158.54401759 53.61330652 -156.59765625 50.17578125 C-156.1696875 49.55832031 -155.74171875 48.94085938 -155.30078125 48.3046875 C-154.64078125 48.3046875 -153.98078125 48.3046875 -153.30078125 48.3046875 C-151.77778602 45.36748242 -150.49977823 42.3878226 -149.30078125 39.3046875 C-150.29078125 38.9746875 -151.28078125 38.6446875 -152.30078125 38.3046875 C-153.40625 36.80078125 -153.40625 36.80078125 -154.48828125 34.7421875 C-155.1225 33.53949219 -155.1225 33.53949219 -155.76953125 32.3125 C-156.27484375 31.31992188 -156.78015625 30.32734375 -157.30078125 29.3046875 C-157.62304688 28.67916992 -157.9453125 28.05365234 -158.27734375 27.40917969 C-159.3546817 25.31535343 -160.42317938 23.21726276 -161.48828125 21.1171875 C-161.83334717 20.44034912 -162.17841309 19.76351074 -162.53393555 19.06616211 C-165.93409159 12.27500588 -168.43375592 6.00891523 -167.30078125 -1.6953125 C-165.67578125 -4.7578125 -165.67578125 -4.7578125 -163.30078125 -6.6953125 C-159.95562188 -7.55105094 -158.09966443 -7.13427482 -155.08984375 -5.48046875 C-152.76181836 -3.96067809 -150.52610381 -2.36119643 -148.30078125 -0.6953125 C-147.43453125 -0.0765625 -146.56828125 0.5421875 -145.67578125 1.1796875 C-143.52699795 3.10228308 -141.73686564 5.05837999 -139.86328125 7.2421875 C-134.72644937 13.33104744 -134.72644937 13.33104744 -127.8671875 17.11328125 C-125.29798087 17.54471138 -125.29798087 17.54471138 -123.3359375 16.1875 C-122.68496094 15.60742188 -122.03398437 15.02734375 -121.36328125 14.4296875 C-117.42054884 11.13634631 -113.36719182 8.26205851 -109.05078125 5.4921875 C-108.46047119 5.10756348 -107.87016113 4.72293945 -107.26196289 4.32666016 C-104.03210762 2.26170815 -100.88936243 0.63741441 -97.30078125 -0.6953125 C-96.16640625 -1.2934375 -95.03203125 -1.8915625 -93.86328125 -2.5078125 C-90.21210014 -4.33682818 -86.49367305 -5.87096724 -82.67578125 -7.3203125 C-81.61101562 -7.72507813 -80.54625 -8.12984375 -79.44921875 -8.546875 C-55.21642918 -16.08159958 -20.98386435 -15.46179479 0 0 Z " fill="#FCFEFD" transform="translate(289.30078125,69.6953125)"/>
<path d="M0 0 C0.89549561 -0.0100708 1.79099121 -0.0201416 2.71362305 -0.03051758 C8.26795107 0.04250436 12.29622295 0.74857806 17.1875 3.4375 C20.5347029 8.08039435 20.71310727 11.91862368 20.1875 17.4375 C19.17520839 20.61898793 18.12952027 21.92731115 15.19458008 23.5168457 C8.56728276 26.34243758 2.9137945 27.03596442 -4.25 26.875 C-5.28825928 26.86251221 -6.32651855 26.85002441 -7.39624023 26.8371582 C-19.51426374 26.56539541 -31.73759608 25.63295427 -42.8125 20.4375 C-42.8125 19.7775 -42.8125 19.1175 -42.8125 18.4375 C-38.996674 15.20040761 -34.88540435 12.34095657 -30.8125 9.4375 C-30.1009375 8.921875 -29.389375 8.40625 -28.65625 7.875 C-19.70678347 1.80756507 -10.65026011 0.07845326 0 0 Z " fill="#5CBC72" transform="translate(240.8125,94.5625)"/>
<path d="M0 0 C0.33 0 0.66 0 1 0 C1.51849372 13.50004013 1.51849372 13.50004013 -0.4375 18.4375 C-2.89031693 24.70838103 -2.80554844 31.34327483 -3 38 C-3.04125 39.28390625 -3.0825 40.5678125 -3.125 41.890625 C-3.3624424 56.79013575 -1.93875725 70.72367706 2.9765625 84.83984375 C4 88 4 88 4 91 C4.99 91 5.98 91 7 91 C9.22948981 93.95079533 10.82859875 96.48579624 12 100 C13.66072849 100.68132451 15.327767 101.34742127 17 102 C19 105 19 105 20 108 C15.58726312 106.60732772 13.29571132 104.56931112 10.25 101.125 C9.47140625 100.26132812 8.6928125 99.39765625 7.890625 98.5078125 C6.14446055 96.19161916 5.39437952 94.82638654 5 92 C4.34 92 3.68 92 3 92 C-3.9415065 77.30468305 -5.37760106 62.77082535 -5.375 46.75 C-5.37681274 46.02756104 -5.37862549 45.30512207 -5.38049316 44.56079102 C-5.37774819 34.87982 -4.65458128 25.56181767 -3 16 C-2.85320801 15.14535156 -2.70641602 14.29070312 -2.55517578 13.41015625 C-2.18026033 11.31098979 -1.78434804 9.21768743 -1.375 7.125 C-1.2409375 6.42503906 -1.106875 5.72507813 -0.96875 5.00390625 C-0.64875752 3.33537404 -0.32485562 1.6675922 0 0 Z " fill="#74BA85" transform="translate(158,186)"/>
<path d="M0 0 C2.47464081 1.41408047 3.3360897 2.47376137 4.75 5 C5.17556975 8.10993278 5.12253147 11.17885729 5.0625 14.3125 C5.06572266 15.14201172 5.06894531 15.97152344 5.07226562 16.82617188 C5.02806252 21.91756638 4.38381333 26.17667059 2.75 31 C2.42 31 2.09 31 1.75 31 C1.75 22.09 1.75 13.18 1.75 4 C-0.34554529 2.68734933 -0.34554529 2.68734933 -3.25 3.6875 C-6.6495922 5.17482159 -6.80590739 5.80236637 -8.25 9 C-10.375 9.75 -10.375 9.75 -12.25 10 C-12.25 10.66 -12.25 11.32 -12.25 12 C-12.91 12 -13.57 12 -14.25 12 C-14.394375 12.61875 -14.53875 13.2375 -14.6875 13.875 C-15.25 16 -15.25 16 -16.25 18 C-16.91 18 -17.57 18 -18.25 18 C-18.4975 18.61875 -18.745 19.2375 -19 19.875 C-20.45628639 22.35068687 -21.62812506 22.95125002 -24.25 24 C-24.25 24.66 -24.25 25.32 -24.25 26 C-24.86875 26.103125 -25.4875 26.20625 -26.125 26.3125 C-28.61526484 26.87525373 -28.61526484 26.87525373 -30.25 30 C-33.375 30.6875 -33.375 30.6875 -36.25 31 C-33.87920247 28.49877024 -31.29987862 26.46348667 -28.5625 24.375 C-22.85040608 19.84357178 -18.20260368 14.70351276 -13.66796875 9.015625 C-10.13991646 4.6590855 -6.05226324 0 0 0 Z " fill="#D7F3DC" transform="translate(302.25,252)"/>
<path d="M0 0 C0.89565674 -0.01015137 1.79131348 -0.02030273 2.71411133 -0.03076172 C8.26823645 0.04278913 12.29634452 0.74864489 17.1875 3.4375 C20.52202121 8.06280362 20.64556321 11.94074143 20.1875 17.4375 C19.5275 18.0975 18.8675 18.7575 18.1875 19.4375 C18.17332031 18.78523438 18.15914063 18.13296875 18.14453125 17.4609375 C17.79555637 11.06620866 16.92054643 7.83247169 12.1875 3.4375 C8.13485482 2.08661827 4.36904204 2.214046 0.125 2.1875 C-0.70322266 2.166875 -1.53144531 2.14625 -2.38476562 2.125 C-3.17689453 2.11984375 -3.96902344 2.1146875 -4.78515625 2.109375 C-5.50968994 2.1000293 -6.23422363 2.09068359 -6.98071289 2.08105469 C-7.58520264 2.19868164 -8.18969238 2.31630859 -8.8125 2.4375 C-9.8025 3.9225 -9.8025 3.9225 -10.8125 5.4375 C-14.01003026 6.22954878 -17.15088436 6.76162922 -20.40234375 7.25390625 C-22.22239341 7.56256964 -24.02061788 7.99363929 -25.8125 8.4375 C-26.8025 9.9225 -26.8025 9.9225 -27.8125 11.4375 C-29.13844105 11.79912029 -30.47188457 12.13478039 -31.8125 12.4375 C-32.1425 13.0975 -32.4725 13.7575 -32.8125 14.4375 C-35.375 15.0625 -35.375 15.0625 -37.8125 15.4375 C-27.94160431 4.25048488 -14.49852204 0.11792516 0 0 Z " fill="#7ABC8B" transform="translate(240.8125,94.5625)"/>
<path d="M0 0 C-0.625 1.875 -0.625 1.875 -2 4 C-6.81455598 6.0147065 -11.60717642 6.6125103 -16.75 7.125 C-17.57838379 7.2084668 -18.40676758 7.29193359 -19.26025391 7.37792969 C-32.36518706 8.59525997 -45.05703661 8.56115177 -58 6 C-58 5.34 -58 4.68 -58 4 C-57.41226807 4.06928711 -56.82453613 4.13857422 -56.21899414 4.20996094 C-36.33647811 6.39557933 -18.67132302 0 0 0 Z " fill="#79BD87" transform="translate(274,144)"/>
<path d="M0 0 C1.15428307 3.69045432 0.54978141 6.05726107 -0.45751953 9.77490234 C-2.57090809 18.44340969 -2.21693188 27.64123729 -2.24023438 36.51171875 C-2.24992214 38.73215477 -2.28103542 40.95165546 -2.3125 43.171875 C-2.37173409 51.56212742 -1.68909265 58.99623689 0.45019531 67.15332031 C0.98557423 69.92530884 0.95400842 71.38478289 0 74 C-4.73995137 69.26004863 -4.23185653 61.03956189 -4.25224304 54.71470642 C-4.24505753 53.71443924 -4.23787201 52.71417206 -4.23046875 51.68359375 C-4.23001053 50.62769547 -4.22955231 49.57179718 -4.2290802 48.48390198 C-4.22607529 46.26440295 -4.21824227 44.0449057 -4.20581055 41.82543945 C-4.18753565 38.44409647 -4.18530137 35.06302792 -4.18554688 31.68164062 C-4.18063118 29.51562265 -4.17480264 27.34960652 -4.16796875 25.18359375 C-4.16685593 24.18130234 -4.1657431 23.17901093 -4.16459656 22.14634705 C-4.06347371 7.0669108 -4.06347371 7.0669108 0 0 Z " fill="#D0F2D7" transform="translate(156,194)"/>
<path d="M0 0 C0.66 0 1.32 0 2 0 C2 0.66 2 1.32 2 2 C2.66 2 3.32 2 4 2 C4.93688286 5.20353493 5.19504794 8.1662416 5.25 11.5 C5.27578125 12.4384375 5.3015625 13.376875 5.328125 14.34375 C4.92367303 17.617885 4.46414161 18.78809336 2 21 C-5.61839972 23.96893518 -13.94789642 23.22183719 -22 23.125 C-23.45702511 23.11495155 -24.91405691 23.10582899 -26.37109375 23.09765625 C-29.91420329 23.07578711 -33.45705812 23.04135977 -37 23 C-37.33 22.34 -37.66 21.68 -38 21 C-37.20416504 21.01571045 -36.40833008 21.0314209 -35.58837891 21.04760742 C-31.93399343 21.11050425 -28.27972239 21.14916375 -24.625 21.1875 C-23.37332031 21.21263672 -22.12164062 21.23777344 -20.83203125 21.26367188 C-13.56522001 21.32074107 -6.68569135 21.1504004 0 18 C2.7284605 14.32707241 2.46675389 9.45211403 2 5 C1.11785113 2.11785113 1.11785113 2.11785113 0 0 Z " fill="#DBF6E1" transform="translate(258,99)"/>
<path d="M0 0 C0.77214844 0.47308594 1.54429687 0.94617187 2.33984375 1.43359375 C2.90832031 1.80613281 3.47679687 2.17867187 4.0625 2.5625 C3.4025 3.2225 2.7425 3.8825 2.0625 4.5625 C0.36850206 4.18844462 -1.32295066 3.79446777 -2.99023438 3.31518555 C-19.83928408 -1.49802632 -38.67581257 -0.57511583 -55.9375 1.5625 C-55.9375 0.9025 -55.9375 0.2425 -55.9375 -0.4375 C-50.98678405 -1.43619501 -46.30588811 -1.55353334 -41.28515625 -1.5 C-40.46679794 -1.49621338 -39.64843964 -1.49242676 -38.80528259 -1.48852539 C-35.32723723 -1.47227972 -31.84931259 -1.44412601 -28.37133789 -1.41699219 C-25.82178296 -1.39882377 -23.27224744 -1.38678342 -20.72265625 -1.375 C-19.55827782 -1.36255249 -19.55827782 -1.36255249 -18.37037659 -1.34985352 C-14.82523616 -1.33404776 -11.57913463 -1.48974753 -8.05419922 -2.00366211 C-4.38669648 -2.51417068 -3.0841486 -1.94538604 0 0 Z " fill="#82C693" transform="translate(273.9375,58.4375)"/>
<path d="M0 0 C0.66 0 1.32 0 2 0 C1.37021892 4.62782948 0.13391826 8.73248961 -1.4375 13.125 C-3.71754912 19.68705292 -5.043105 26.1145164 -6 33 C-6.32183143 34.66892583 -6.65166579 36.33640385 -7 38 C-7.33 38 -7.66 38 -8 38 C-8 34.7 -8 31.4 -8 28 C-7.34 28 -6.68 28 -6 28 C-5.98582031 26.98421875 -5.97164063 25.9684375 -5.95703125 24.921875 C-5.68518281 15.66323593 -4.30130165 8.38039584 0 0 Z " fill="#73BA84" transform="translate(105,170)"/>
<path d="M0 0 C2.85442753 -0.05437005 5.70780076 -0.09384974 8.5625 -0.125 C9.36236328 -0.14175781 10.16222656 -0.15851563 10.98632812 -0.17578125 C16.06500335 -0.21723982 20.18811906 0.35943925 25 2 C25 2.99 25 3.98 25 5 C24.27981689 4.84152588 23.55963379 4.68305176 22.81762695 4.51977539 C20.14717588 4.02714994 17.62795454 3.79997351 14.91796875 3.68359375 C13.98662109 3.64169922 13.05527344 3.59980469 12.09570312 3.55664062 C11.13599609 3.51732422 10.17628906 3.47800781 9.1875 3.4375 C8.20845703 3.39431641 7.22941406 3.35113281 6.22070312 3.30664062 C3.81392973 3.2009774 1.40706017 3.09887673 -1 3 C-0.67 2.01 -0.34 1.02 0 0 Z " fill="#EFFEF2" transform="translate(231,92)"/>
<path d="M0 0 C2.16067306 3.24100959 3.13118712 6.38698575 4.25 10.0625 C6.11136221 15.98208964 8.44843558 20.97959615 11.9609375 26.14453125 C12.30382812 26.75683594 12.64671875 27.36914062 13 28 C12.67 28.66 12.34 29.32 12 30 C11.01 29.67 10.02 29.34 9 29 C8.67 26.69 8.34 24.38 8 22 C7.01 21.67 6.02 21.34 5 21 C4.67 18.69 4.34 16.38 4 14 C3.34 14 2.68 14 2 14 C0.66416101 9.15758367 -0.25328119 5.06562383 0 0 Z " fill="#82BF91" transform="translate(96,274)"/>
<path d="M0 0 C-2.99389094 2.4726017 -5.77296673 3.80710511 -9.4375 5.0625 C-13.42586571 6.43795146 -13.42586571 6.43795146 -17.3359375 8.015625 C-20.89071933 9.3291221 -24.46748183 10.00409395 -28.1875 10.6875 C-28.91130859 10.82994141 -29.63511719 10.97238281 -30.38085938 11.11914062 C-35.75284572 12.12357714 -35.75284572 12.12357714 -38 11 C-35.82337046 8.82337046 -31.44761273 8.9428121 -28.4375 8.4375 C-27.63119141 8.29892578 -26.82488281 8.16035156 -25.99414062 8.01757812 C-23.99670189 7.67482237 -21.99842528 7.33695612 -20 7 C-20 6.34 -20 5.68 -20 5 C-16.7 4.67 -13.4 4.34 -10 4 C-10 3.34 -10 2.68 -10 2 C-6.5980513 -0.09350689 -3.94727588 -0.17942163 0 0 Z " fill="#E1FAE5" transform="translate(260,330)"/>
<path d="M0 0 C0.66 0 1.32 0 2 0 C1.86287598 0.86890869 1.72575195 1.73781738 1.58447266 2.63305664 C0.07461131 12.91619913 -0.4181036 23.05496439 -0.625 33.4375 C-0.66331552 35.0553564 -0.70237427 36.67319538 -0.7421875 38.29101562 C-0.83665507 42.1938636 -0.92119936 46.09680558 -1 50 C-1.33 50 -1.66 50 -2 50 C-2.19275497 44.53772041 -2.37139829 39.07522759 -2.53710938 33.61206055 C-2.59542602 31.75451355 -2.65756395 29.89708235 -2.72363281 28.03979492 C-2.81805703 25.36658823 -2.89862759 22.6932633 -2.9765625 20.01953125 C-3.00875885 19.19226028 -3.0409552 18.36498932 -3.0741272 17.51264954 C-3.18727816 13.13492741 -2.95041129 10.01751776 -1 6 C-0.62406934 4.0075675 -0.28020455 2.0081326 0 0 Z " fill="#76BD88" transform="translate(95,208)"/>
<path d="M0 0 C0.33 1.32 0.66 2.64 1 4 C1.556875 4.10957031 2.11375 4.21914062 2.6875 4.33203125 C8.03341031 5.44275248 12.93063816 6.97225526 18 9 C14.0965974 10.45401747 10.98400563 9.57799278 7 8.6875 C5.1746875 8.29111328 5.1746875 8.29111328 3.3125 7.88671875 C0.59366176 7.15891653 -1.57486479 6.38838991 -4 5 C-4 4.34 -4 3.68 -4 3 C-2 1.375 -2 1.375 0 0 Z " fill="#79BC89" transform="translate(202,110)"/>
<path d="M0 0 C-1.45179522 0.94535503 -2.90360121 1.89069353 -4.35546875 2.8359375 C-6.22563145 4.10075447 -6.22563145 4.10075447 -8.5 6.375 C-11 8 -11 8 -13.9375 7.5625 C-17.50184224 5.74395804 -20.03773707 3.68014265 -23 1 C-22.34 0.67 -21.68 0.34 -21 0 C-18.96855359 0.93446535 -16.96466413 1.93224776 -15 3 C-15 3.99 -15 4.98 -15 6 C-13.35 6 -11.7 6 -10 6 C-10 5.01 -10 4.02 -10 3 C-8.68 2.67 -7.36 2.34 -6 2 C-6 1.34 -6 0.68 -6 0 C-3.50907189 -1.24546405 -2.58919267 -0.7767578 0 0 Z " fill="#7CBB8B" transform="translate(175,80)"/>
<path d="M0 0 C0.33 0 0.66 0 1 0 C1.47489558 6.29236649 0.24534013 10.74671474 -2.125 16.58203125 C-3.17013949 19.04159236 -3.17013949 19.04159236 -3 22 C-4.65 22.33 -6.3 22.66 -8 23 C-6.99191898 20.36348041 -5.94551375 17.90287233 -4.5625 15.4375 C-2.30776734 10.47708814 -1.20883012 5.29827668 0 0 Z " fill="#74BD86" transform="translate(306,276)"/>
<path d="M0 0 C0.66 0.33 1.32 0.66 2 1 C1.68546875 1.71542969 1.3709375 2.43085938 1.046875 3.16796875 C-1.79197113 9.77769182 -4.13462932 16.36625188 -6.10546875 23.28515625 C-7 26 -7 26 -9 29 C-9.042721 27.33388095 -9.04063832 25.66617115 -9 24 C-8.67 23.67 -8.34 23.34 -8 23 C-7.63239269 20.67182036 -7.29758419 18.3381615 -7 16 C-6.34 16 -5.68 16 -5 16 C-4.9175 15.030625 -4.835 14.06125 -4.75 13.0625 C-4.1000875 8.32880899 -2.07694677 4.26015593 0 0 Z " fill="#E2FAE6" transform="translate(166,160)"/>
<path d="M0 0 C1.06089844 -0.03738281 2.12179688 -0.07476562 3.21484375 -0.11328125 C6.0625 0.3125 6.0625 0.3125 7.94140625 2.33203125 C8.31136719 2.98558594 8.68132812 3.63914063 9.0625 4.3125 C5.13611883 5.40316144 3.58142786 5.2319152 0.0625 3.3125 C-1.92860401 2.92959538 -3.92850513 2.58645385 -5.9375 2.3125 C-6.5975 3.6325 -7.2575 4.9525 -7.9375 6.3125 C-7.9375 4.6625 -7.9375 3.0125 -7.9375 1.3125 C-5.23707819 -0.0377109 -3.01298373 0.06938993 0 0 Z " fill="#E7F9EA" transform="translate(183.9375,136.6875)"/>
<path d="M0 0 C0.33 0.66 0.66 1.32 1 2 C-0.07421875 4.53125 -0.07421875 4.53125 -1.6875 7.5 C-2.20699219 8.4796875 -2.72648438 9.459375 -3.26171875 10.46875 C-5.0787088 13.11461417 -6.15883205 13.73323722 -9 15 C-9.81171228 17.55519921 -9.81171228 17.55519921 -10 20 C-10.66 20 -11.32 20 -12 20 C-10.69166571 15.59091345 -8.97608606 11.99650745 -6.5 8.125 C-5.8915625 7.15820312 -5.283125 6.19140625 -4.65625 5.1953125 C-3.83640625 4.10863281 -3.83640625 4.10863281 -3 3 C-2.34 3 -1.68 3 -1 3 C-0.67 2.01 -0.34 1.02 0 0 Z " fill="#DDF4E0" transform="translate(137,115)"/>
<path d="M0 0 C0.33 1.32 0.66 2.64 1 4 C-0.32 4.33 -1.64 4.66 -3 5 C-3 5.66 -3 6.32 -3 7 C-4.64453125 8.25390625 -4.64453125 8.25390625 -6.8125 9.5625 C-7.87404297 10.21412109 -7.87404297 10.21412109 -8.95703125 10.87890625 C-11 12 -11 12 -14 13 C-14.33 13.66 -14.66 14.32 -15 15 C-16.32 14.67 -17.64 14.34 -19 14 C-18.21496094 13.49210937 -17.42992187 12.98421875 -16.62109375 12.4609375 C-10.73987345 8.60747537 -5.20394873 4.73086248 0 0 Z " fill="#70BA87" transform="translate(287,312)"/>
<path d="M0 0 C0.99 0.33 1.98 0.66 3 1 C0 6 -3 11 -6 16 C-6.33 15.01 -6.66 14.02 -7 13 C-6.690625 12.401875 -6.38125 11.80375 -6.0625 11.1875 C-4.69171739 8.3653005 -4.85924331 6.0966471 -5 3 C-3.68 3 -2.36 3 -1 3 C-0.67 2.01 -0.34 1.02 0 0 Z " fill="#6BB878" transform="translate(127,125)"/>
<path d="M0 0 C0.33 0 0.66 0 1 0 C1.48173829 2.66622447 1.96044625 5.33293671 2.4375 8 C2.57220703 8.74378906 2.70691406 9.48757812 2.84570312 10.25390625 C3.71983371 15.15756564 4.42093462 20.05264526 5 25 C2 23 2 23 0.8125 19.25 C-0.44654907 12.89232247 -0.16514644 6.44988592 0 0 Z " fill="#DDF8E3" transform="translate(152,243)"/>
<path d="M0 0 C-0.625 1.875 -0.625 1.875 -2 4 C-6.71506397 6.24526856 -10.89532194 6.17602338 -16 6 C-16 5.34 -16 4.68 -16 4 C-15.15695312 3.79503906 -14.31390625 3.59007812 -13.4453125 3.37890625 C-12.34960938 3.10949219 -11.25390625 2.84007812 -10.125 2.5625 C-9.03445313 2.29566406 -7.94390625 2.02882812 -6.8203125 1.75390625 C-0.25906736 0 -0.25906736 0 0 0 Z " fill="#6FBA81" transform="translate(274,144)"/>
<path d="M0 0 C2.0625 0.4375 2.0625 0.4375 4 1 C-5.22551253 9.6309795 -5.22551253 9.6309795 -11 12 C-11 11.01 -11 10.02 -11 9 C-9.35 8.67 -7.7 8.34 -6 8 C-6 7.01 -6 6.02 -6 5 C-5.01 5 -4.02 5 -3 5 C-2.690625 4.360625 -2.38125 3.72125 -2.0625 3.0625 C-1 1 -1 1 0 0 Z " fill="#E1F8E5" transform="translate(284,311)"/>
<path d="M0 0 C0 3 0 3 -2.25 5.5625 C-6.28540472 9.139336 -8.58618261 10.30076763 -14 10 C-14.33 9.34 -14.66 8.68 -15 8 C-13.7315625 7.938125 -13.7315625 7.938125 -12.4375 7.875 C-8.38689912 6.84393796 -6.50891781 5.17952659 -3.515625 2.375 C-2 1 -2 1 0 0 Z " fill="#D9F3DF" transform="translate(175,79)"/>
<path d="M0 0 C4.21826571 2.64867847 7.5042655 5.41227248 11 9 C11.763125 9.556875 12.52625 10.11375 13.3125 10.6875 C14.1478125 11.3371875 14.1478125 11.3371875 15 12 C15 12.66 15 13.32 15 14 C13.68 13.67 12.36 13.34 11 13 C11 12.34 11 11.68 11 11 C10.01 10.67 9.02 10.34 8 10 C6.62298702 8.71182656 5.29355827 7.37195574 4 6 C3.2575 5.29875 2.515 4.5975 1.75 3.875 C0 2 0 2 0 0 Z " fill="#DEF9E4" transform="translate(136,66)"/>
<path d="M0 0 C0.66 0.33 1.32 0.66 2 1 C-2.58921384 4.15654048 -6.29370646 6.57202798 -12 7 C-12 6.34 -12 5.68 -12 5 C-12.66 4.67 -13.32 4.34 -14 4 C-11.1875 2.4375 -11.1875 2.4375 -8 1 C-7.01 1.33 -6.02 1.66 -5 2 C-3.327767 1.34742127 -1.66072849 0.68132451 0 0 Z " fill="#60BC77" transform="translate(254,288)"/>
<path d="M0 0 C0.33 0 0.66 0 1 0 C1.12117188 0.7734375 1.24234375 1.546875 1.3671875 2.34375 C2.1410475 7.15358751 2.90119173 11.87670505 4.25 16.5625 C4.4975 17.696875 4.745 18.83125 5 20 C4.34 20.99 3.68 21.98 3 23 C0.41283102 15.1768938 -0.38750039 8.2236194 0 0 Z " fill="#70BB83" transform="translate(121,68)"/>
<path d="M0 0 C0.89991601 2.47199151 1.1504029 3.61396588 0.1796875 6.10546875 C-3.3747653 11.77769433 -3.3747653 11.77769433 -6.8125 13 C-7.534375 13 -8.25625 13 -9 13 C-6.93725066 9.39018865 -4.62586772 6.21880559 -2 3 C-1.34 2.01 -0.68 1.02 0 0 Z " fill="#72BD87" transform="translate(297,299)"/>
<path d="M0 0 C0.8125 1.6875 0.8125 1.6875 1 4 C-1.3125 6.75 -1.3125 6.75 -4 9 C-4.66 9 -5.32 9 -6 9 C-6.66 10.32 -7.32 11.64 -8 13 C-9.32 12.67 -10.64 12.34 -12 12 C-11.30132812 11.38511719 -10.60265625 10.77023438 -9.8828125 10.13671875 C-8.51769531 8.92435547 -8.51769531 8.92435547 -7.125 7.6875 C-6.22007812 6.88699219 -5.31515625 6.08648437 -4.3828125 5.26171875 C-1.86787689 3.04188943 -1.86787689 3.04188943 0 0 Z " fill="#77BF8A" transform="translate(296,125)"/>
<path d="M0 0 C0.33 0.66 0.66 1.32 1 2 C2.423125 2.185625 2.423125 2.185625 3.875 2.375 C7.61292865 3.12258573 7.96485662 3.94728493 10 7 C12.08334635 8.2516467 12.08334635 8.2516467 14 9 C11 10 11 10 8.30078125 8.671875 C7.31464844 8.03765625 6.32851562 7.4034375 5.3125 6.75 C4.31863281 6.12609375 3.32476562 5.5021875 2.30078125 4.859375 C1.54152344 4.24578125 0.78226562 3.6321875 0 3 C0 2.01 0 1.02 0 0 Z " fill="#DAF6E0" transform="translate(127,320)"/>
<path d="M0 0 C0.9075 0.103125 1.815 0.20625 2.75 0.3125 C2.75 0.6425 2.75 0.9725 2.75 1.3125 C1.1 1.3125 -0.55 1.3125 -2.25 1.3125 C-4.28219488 4.71601338 -4.61891039 7.6357927 -4.875 11.5625 C-4.94976562 12.64015625 -5.02453125 13.7178125 -5.1015625 14.828125 C-5.15054688 15.64796875 -5.19953125 16.4678125 -5.25 17.3125 C-7.94170954 13.27493569 -7.91420635 10.05327282 -7.25 5.3125 C-5.1983349 1.44590039 -4.39952135 0.4230309 0 0 Z " fill="#CFF2D5" transform="translate(129.25,62.6875)"/>
<path d="M0 0 C0.33 0 0.66 0 1 0 C0.50663226 6.21643357 -0.19990821 12.33998541 -3 18 C-3.99 18.66 -4.98 19.32 -6 20 C-5.50630258 15.18645011 -3.93815542 11.44977539 -1.921875 7.125 C-0.90388828 4.77845435 -0.32728397 2.5364508 0 0 Z " fill="#DFF9E6" transform="translate(301,106)"/>
<path d="M0 0 C0.99 0.495 0.99 0.495 2 1 C2 2.32 2 3.64 2 5 C2.66 5 3.32 5 4 5 C4.33 6.98 4.66 8.96 5 11 C5.99 11.33 6.98 11.66 8 12 C8.33 14.31 8.66 16.62 9 19 C5.8525269 16.35347607 4.50027732 13.20060805 2.8125 9.5 C2.28269531 8.3553125 1.75289063 7.210625 1.20703125 6.03125 C0 3 0 3 0 0 Z " fill="#DFFAE6" transform="translate(124,80)"/>
<path d="M0 0 C0 0.99 0 1.98 0 3 C-0.66 2.67 -1.32 2.34 -2 2 C-5.06201446 2.60380471 -5.06201446 2.60380471 -8 4 C-9.13350534 6.01669827 -9.13350534 6.01669827 -10 8 C-12.0546875 8.62109375 -12.0546875 8.62109375 -14 9 C-13.09373216 7.7010161 -12.17450463 6.41106833 -11.25 5.125 C-10.73953125 4.40570313 -10.2290625 3.68640625 -9.703125 2.9453125 C-6.70512254 -0.47901142 -4.3318632 -1.547094 0 0 Z " fill="#E6FBE9" transform="translate(304,253)"/>
<path d="M0 0 C0.99 0.66 1.98 1.32 3 2 C1.8803014 3.00593243 0.7540588 4.0045849 -0.375 5 C-1.00148437 5.556875 -1.62796875 6.11375 -2.2734375 6.6875 C-4 8 -4 8 -6 8 C-6 8.66 -6 9.32 -6 10 C-5.34 10.33 -4.68 10.66 -4 11 C-5.32 11 -6.64 11 -8 11 C-8.33 9.68 -8.66 8.36 -9 7 C-7.5459375 6.62875 -7.5459375 6.62875 -6.0625 6.25 C-4.5465625 5.63125 -4.5465625 5.63125 -3 5 C-2.18553891 2.99427359 -2.18553891 2.99427359 -2 1 C-1.34 0.67 -0.68 0.34 0 0 Z " fill="#DDF6E4" transform="translate(204,105)"/>
<path d="M0 0 C4 3 8 6 12 9 C9 10 9 10 6.8125 9.0625 C6.214375 8.711875 5.61625 8.36125 5 8 C5 7.34 5 6.68 5 6 C2.525 5.01 2.525 5.01 0 4 C0 2.68 0 1.36 0 0 Z " fill="#E7FAE9" transform="translate(168,287)"/>
<path d="M0 0 C-0.33 0.99 -0.66 1.98 -1 3 C-5.07467725 4.48882438 -8.66541415 5.26270217 -13 5 C-10.83470418 2.58355702 -8.97842441 1.36405829 -5.9375 0.25 C-4.89916016 -0.14445312 -4.89916016 -0.14445312 -3.83984375 -0.546875 C-2 -1 -2 -1 0 0 Z " fill="#E0F7E5" transform="translate(205,65)"/>
<path d="M0 0 C1.51400391 0.01740234 1.51400391 0.01740234 3.05859375 0.03515625 C4.07050781 0.04417969 5.08242187 0.05320312 6.125 0.0625 C7.29869141 0.07990234 7.29869141 0.07990234 8.49609375 0.09765625 C8.49609375 0.42765625 8.49609375 0.75765625 8.49609375 1.09765625 C6.79453125 1.31421875 6.79453125 1.31421875 5.05859375 1.53515625 C1.68832174 1.70937103 1.68832174 1.70937103 0.49609375 3.09765625 C-1.8570418 3.17037366 -4.21224293 3.18136493 -6.56640625 3.16015625 C-7.85675781 3.15113281 -9.14710938 3.14210938 -10.4765625 3.1328125 C-11.47558594 3.12121094 -12.47460938 3.10960937 -13.50390625 3.09765625 C-13.50390625 2.76765625 -13.50390625 2.43765625 -13.50390625 2.09765625 C-12.79363281 2.03707031 -12.08335937 1.97648437 -11.3515625 1.9140625 C-9.97291016 1.78837891 -9.97291016 1.78837891 -8.56640625 1.66015625 C-7.64988281 1.57894531 -6.73335937 1.49773437 -5.7890625 1.4140625 C-3.03556738 1.03280933 -2.84964025 0.11114042 0 0 Z " fill="#F3FEF2" transform="translate(221.50390625,338.90234375)"/>
<path d="M0 0 C0.33 0 0.66 0 1 0 C1 1.98 1 3.96 1 6 C0.01 6.33 -0.98 6.66 -2 7 C-2.144375 7.94875 -2.28875 8.8975 -2.4375 9.875 C-3 13 -3 13 -4 15 C-4.66 15 -5.32 15 -6 15 C-4.36041242 9.76727367 -2.61047965 4.84803364 0 0 Z " fill="#DEF8E5" transform="translate(119,143)"/>
<path d="M0 0 C5.28 0.99 10.56 1.98 16 3 C16 3.33 16 3.66 16 4 C14.083412 4.02712153 12.1667127 4.04645097 10.25 4.0625 C8.64898437 4.07990234 8.64898437 4.07990234 7.015625 4.09765625 C4.46631499 4.01510087 2.42066409 3.74617558 0 3 C0 2.01 0 1.02 0 0 Z " fill="#DEFAE5" transform="translate(200,116)"/>
<path d="M0 0 C0 0.66 0 1.32 0 2 C-0.99 2.33 -1.98 2.66 -3 3 C-3.99 4.485 -3.99 4.485 -5 6 C-6.32594105 6.36162029 -7.65938457 6.69728039 -9 7 C-9.33 7.66 -9.66 8.32 -10 9 C-12.5625 9.625 -12.5625 9.625 -15 10 C-11.33829025 5.99500496 -5.76187936 0 0 0 Z " fill="#81C190" transform="translate(218,100)"/>
<path d="M0 0 C7.26 0 14.52 0 22 0 C22 0.99 22 1.98 22 3 C21.35675781 2.84660156 20.71351563 2.69320312 20.05078125 2.53515625 C16.10232463 1.84253326 12.1868113 1.64199119 8.1875 1.4375 C7.39923828 1.39431641 6.61097656 1.35113281 5.79882812 1.30664062 C3.86605785 1.20121679 1.93304974 1.10016906 0 1 C0 0.67 0 0.34 0 0 Z " fill="#C7EED3" transform="translate(234,94)"/>
<path d="M0 0 C2.76276177 0.52268466 5.3260876 1.10869587 8 2 C9.1875 5.0625 9.1875 5.0625 10 8 C4.98886765 6.5682479 3.05530451 4.01554307 0 0 Z " fill="#76C18B" transform="translate(168,286)"/>
<path d="M0 0 C2 2 2 2 2 5 C2.66 5 3.32 5 4 5 C4.99 6.98 5.98 8.96 7 11 C5.68 11 4.36 11 3 11 C0.84694043 7.14243493 -0.39253254 4.44870215 0 0 Z " fill="#E1F6E3" transform="translate(159,273)"/>
<path d="M0 0 C0.33 0 0.66 0 1 0 C0.85831863 1.43791516 0.71148957 2.8753237 0.5625 4.3125 C0.48128906 5.11300781 0.40007812 5.91351563 0.31640625 6.73828125 C0 9 0 9 -1 12 C-1.99 12 -2.98 12 -4 12 C-3.52309796 10.37433394 -3.04340334 8.74948689 -2.5625 7.125 C-2.29566406 6.22007812 -2.02882813 5.31515625 -1.75390625 4.3828125 C-1 2 -1 2 0 0 Z " fill="#E3F9E8" transform="translate(112,158)"/>
<path d="M0 0 C0.66 0.99 1.32 1.98 2 3 C1.01 3.495 1.01 3.495 0 4 C-0.83585019 6.03054705 -1.46630271 8.09216868 -2.12109375 10.1875 C-2.41113281 10.785625 -2.70117188 11.38375 -3 12 C-3.99 12.33 -4.98 12.66 -6 13 C-4.58707905 8.1725201 -2.57025846 4.2837641 0 0 Z " fill="#83BF8E" transform="translate(177,141)"/>
<path d="M0 0 C0.66 0.33 1.32 0.66 2 1 C2.08114106 2.77007714 2.13925505 4.54122098 2.1875 6.3125 C2.22230469 7.29863281 2.25710938 8.28476563 2.29296875 9.30078125 C2 12 2 12 0.48828125 13.85546875 C-0.00285156 14.23316406 -0.49398438 14.61085938 -1 15 C-1.33 14.01 -1.66 13.02 -2 12 C-1.690625 11.443125 -1.38125 10.88625 -1.0625 10.3125 C0.53065326 6.84504879 0.12648259 3.7944776 0 0 Z " fill="#66BA7C" transform="translate(257,103)"/>
<path d="M0 0 C0.99 0.33 1.98 0.66 3 1 C4.125 4 4.125 4 5 7 C5.33 7.33 5.66 7.66 6 8 C6.07179964 9.51928038 6.08392007 11.04167482 6.0625 12.5625 C6.05347656 13.38878906 6.04445313 14.21507813 6.03515625 15.06640625 C6.01775391 16.02353516 6.01775391 16.02353516 6 17 C5.67 17 5.34 17 5 17 C4.731875 15.865625 4.46375 14.73125 4.1875 13.5625 C3.04150728 8.95379545 1.55693355 4.48396861 0 0 Z " fill="#7ABE8E" transform="translate(297,79)"/>
<path d="M0 0 C1.14926266 0.95421808 2.29430541 1.91352045 3.4375 2.875 C4.07558594 3.40867187 4.71367188 3.94234375 5.37109375 4.4921875 C7 6 7 6 8 8 C4.17902761 7.46930939 1.93828597 6.50298434 -1 4 C-0.67 2.68 -0.34 1.36 0 0 Z " fill="#72BC83" transform="translate(118,314)"/>
<path d="M0 0 C0.66 0.33 1.32 0.66 2 1 C1.54109375 1.38671875 1.0821875 1.7734375 0.609375 2.171875 C-2.725081 5.00195951 -5.96501303 7.84361355 -9 11 C-9 10.01 -9 9.02 -9 8 C-8.34 8 -7.68 8 -7 8 C-6.773125 7.236875 -6.54625 6.47375 -6.3125 5.6875 C-4.72014048 2.42695432 -3.27263601 1.4726862 0 0 Z " fill="#74BC88" transform="translate(294,254)"/>
<path d="M0 0 C4.03520597 1.58962659 8.01811282 3.28232318 12 5 C7.74938644 6.41687119 5.28148375 5.19320039 1 4 C0.67 2.68 0.34 1.36 0 0 Z " fill="#72B883" transform="translate(138,330)"/>
<path d="M0 0 C-0.33 0.99 -0.66 1.98 -1 3 C-2.62171239 3.38897161 -4.24754925 3.76078298 -5.875 4.125 C-6.77992188 4.33382813 -7.68484375 4.54265625 -8.6171875 4.7578125 C-9.40351563 4.83773438 -10.18984375 4.91765625 -11 5 C-11.66 4.34 -12.32 3.68 -13 3 C-11.2092015 2.49689942 -9.41733089 1.99761372 -7.625 1.5 C-6.62726563 1.2215625 -5.62953125 0.943125 -4.6015625 0.65625 C-2 0 -2 0 0 0 Z " fill="#E4F8E5" transform="translate(240,296)"/>
<path d="M0 0 C0.99 0 1.98 0 3 0 C3.36504603 1.58086048 3.71660506 3.16483907 4.0625 4.75 C4.25972656 5.63171875 4.45695312 6.5134375 4.66015625 7.421875 C4.99825872 9.98679028 4.81158635 11.57091639 4 14 C3.32968281 12.0429132 2.66385317 10.08428887 2 8.125 C1.62875 7.03445313 1.2575 5.94390625 0.875 4.8203125 C0 2 0 2 0 0 Z " fill="#E5FCEA" transform="translate(96,272)"/>
<path d="M0 0 C0.66 0.99 1.32 1.98 2 3 C0.74093486 6.58833566 -0.29462171 9.29462171 -3 12 C-4 10 -4 10 -3.22265625 7.6171875 C-2.83980469 6.71226562 -2.45695313 5.80734375 -2.0625 4.875 C-1.68222656 3.96492187 -1.30195313 3.05484375 -0.91015625 2.1171875 C-0.60980469 1.41851562 -0.30945313 0.71984375 0 0 Z " fill="#76BE85" transform="translate(170,154)"/>
<path d="M0 0 C0.66 0.33 1.32 0.66 2 1 C1.54917531 2.46067199 1.08906463 3.91848032 0.625 5.375 C0.36976562 6.18710938 0.11453125 6.99921875 -0.1484375 7.8359375 C-1 10 -1 10 -3 12 C-2.49202991 7.6822542 -1.80317221 3.96697886 0 0 Z " fill="#73BC87" transform="translate(115,146)"/>
<path d="M0 0 C0.99 0.66 1.98 1.32 3 2 C1.54462432 2.83848804 0.08559627 3.67063934 -1.375 4.5 C-2.59316406 5.19609375 -2.59316406 5.19609375 -3.8359375 5.90625 C-6 7 -6 7 -8 7 C-8 6.34 -8 5.68 -8 5 C-6.25 3.7109375 -6.25 3.7109375 -4 2.375 C-3.2575 1.92898438 -2.515 1.48296875 -1.75 1.0234375 C-1.1725 0.68570312 -0.595 0.34796875 0 0 Z " fill="#E5FBE8" transform="translate(268,323)"/>
<path d="M0 0 C1.98 0 3.96 0 6 0 C6 0.66 6 1.32 6 2 C8.31 2 10.62 2 13 2 C13.33 2.66 13.66 3.32 14 4 C12.4156683 3.91231752 10.83246433 3.80412671 9.25 3.6875 C7.92742187 3.60048828 7.92742187 3.60048828 6.578125 3.51171875 C3.67696226 2.9358819 2.20774393 1.92403852 0 0 Z " fill="#6CB980" transform="translate(178,294)"/>
<path d="M0 0 C2.19578473 2.67312924 3.19649201 4.67118118 4 8 C4.66 8.33 5.32 8.66 6 9 C5.67 10.32 5.34 11.64 5 13 C5 12.01 5 11.02 5 10 C4.01 9.67 3.02 9.34 2 9 C0.83203125 7.15234375 0.83203125 7.15234375 -0.1875 4.9375 C-0.53167969 4.20402344 -0.87585938 3.47054687 -1.23046875 2.71484375 C-1.48441406 2.14894531 -1.73835937 1.58304687 -2 1 C-1.34 0.67 -0.68 0.34 0 0 Z " fill="#D1F1D8" transform="translate(135,99)"/>
<path d="M0 0 C2.375 0.3125 2.375 0.3125 5 1 C7 4 7 4 6.625 6.1875 C6.41875 6.785625 6.2125 7.38375 6 8 C4.9970458 6.85675161 3.99770973 5.71032809 3 4.5625 C2.443125 3.92441406 1.88625 3.28632812 1.3125 2.62890625 C0 1 0 1 0 0 Z " fill="#73BB85" transform="translate(145,72)"/>
<path d="M0 0 C1.58246707 -0.08153933 3.16616273 -0.13943557 4.75 -0.1875 C6.07257813 -0.23970703 6.07257813 -0.23970703 7.421875 -0.29296875 C10.44671583 0.05076316 11.75583602 1.00227459 14 3 C11.01316063 4.49341969 9.04839022 3.40648676 5.875 2.5625 C4.77929688 2.27503906 3.68359375 1.98757812 2.5546875 1.69140625 C1.71164062 1.46324219 0.86859375 1.23507813 0 1 C0 0.67 0 0.34 0 0 Z " fill="#7FBF90" transform="translate(264,59)"/>
<path d="M0 0 C0.99 0.33 1.98 0.66 3 1 C0.61426621 2.89213369 -1.07175348 4.02391783 -4 5 C-4.33 5.66 -4.66 6.32 -5 7 C-6.32 6.67 -7.64 6.34 -9 6 C-7.57140593 4.96674014 -6.13177617 3.94872366 -4.6875 2.9375 C-3.88699219 2.36902344 -3.08648437 1.80054688 -2.26171875 1.21484375 C-1.51535156 0.81394531 -0.76898438 0.41304688 0 0 Z " fill="#83BE8F" transform="translate(277,320)"/>
<path d="M0 0 C4 4.625 4 4.625 4 8 C2.35 7.67 0.7 7.34 -1 7 C-0.67 4.69 -0.34 2.38 0 0 Z " fill="#73BE85" transform="translate(130,96)"/>
<path d="M0 0 C-3.25179812 2.21713508 -6.4213696 4.34832443 -10 6 C-10 5.01 -10 4.02 -10 3 C-8.68 2.67 -7.36 2.34 -6 2 C-6 1.34 -6 0.68 -6 0 C-3.50907189 -1.24546405 -2.58919267 -0.7767578 0 0 Z " fill="#72B680" transform="translate(175,80)"/>
<path d="M0 0 C0 3.19610552 -0.54671542 4.41717626 -2 7.1875 C-2.37125 7.90292969 -2.7425 8.61835938 -3.125 9.35546875 C-3.41375 9.89816406 -3.7025 10.44085938 -4 11 C-4.33 11 -4.66 11 -5 11 C-5 9.35 -5 7.7 -5 6 C-4.01 5.67 -3.02 5.34 -2 5 C-1.33820153 3.01954441 -1.33820153 3.01954441 -1 1 C-0.67 0.67 -0.34 0.34 0 0 Z " fill="#DCF8E4" transform="translate(303,286)"/>
<path d="M0 0 C0.33 0.99 0.66 1.98 1 3 C1.66 3 2.32 3 3 3 C2.67 4.65 2.34 6.3 2 8 C1.01 7.34 0.02 6.68 -1 6 C-1.25 3.4375 -1.25 3.4375 -1 1 C-0.67 0.67 -0.34 0.34 0 0 Z " fill="#F6F9EF" transform="translate(155,265)"/>
<path d="M0 0 C1.4606285 2.64738916 2 3.89448334 2 7 C0 8.6875 0 8.6875 -2 10 C-1.46274105 6.62294375 -0.88935377 3.303314 0 0 Z " fill="#EAFAE9" transform="translate(107,170)"/>
<path d="M0 0 C0.33 0 0.66 0 1 0 C1 1.98 1 3.96 1 6 C0.01 6.33 -0.98 6.66 -2 7 C-2.33 7.99 -2.66 8.98 -3 10 C-3.33 9.34 -3.66 8.68 -4 8 C-3.22265625 6.0546875 -3.22265625 6.0546875 -2.0625 3.875 C-1.49208984 2.78832031 -1.49208984 2.78832031 -0.91015625 1.6796875 C-0.60980469 1.12539062 -0.30945313 0.57109375 0 0 Z " fill="#6ABC81" transform="translate(301,116)"/>
<path d="M0 0 C-3.68734758 2.45823172 -6.69699971 3.01242616 -11 4 C-11 3.01 -11 2.02 -11 1 C-7.26562152 0.12132271 -3.83225427 -0.08912219 0 0 Z " fill="#E8FCEB" transform="translate(230,95)"/>
<path d="M0 0 C1.32 0 2.64 0 4 0 C4 0.66 4 1.32 4 2 C5.65 2.33 7.3 2.66 9 3 C8.67 4.32 8.34 5.64 8 7 C6.66382648 6.02471263 5.3311249 5.04466681 4 4.0625 C3.2575 3.51722656 2.515 2.97195312 1.75 2.41015625 C1.1725 1.94480469 0.595 1.47945313 0 1 C0 0.67 0 0.34 0 0 Z " fill="#75BD8A" transform="translate(285,67)"/>
<path d="M0 0 C0 0.66 0 1.32 0 2 C-1.98 2.66 -3.96 3.32 -6 4 C-6 4.66 -6 5.32 -6 6 C-7.32 5.34 -8.64 4.68 -10 4 C-8.71086513 3.32845067 -7.41859796 2.66291141 -6.125 2 C-5.40570313 1.62875 -4.68640625 1.2575 -3.9453125 0.875 C-2 0 -2 0 0 0 Z " fill="#7EC493" transform="translate(268,327)"/>
<path d="M0 0 C0.99 0.495 0.99 0.495 2 1 C2.33 1.99 2.66 2.98 3 4 C3.66 4.33 4.32 4.66 5 5 C5 6.65 5 8.3 5 10 C1.32769295 6.92000054 0.43197635 4.7517398 0 0 Z " fill="#E7FCEB" transform="translate(101,286)"/>
<path d="M0 0 C3.2542015 2.83430453 4.5206753 4.68607774 5 9 C2.5 7.3125 2.5 7.3125 0 5 C-0.3125 2.25 -0.3125 2.25 0 0 Z " fill="#6CB67D" transform="translate(164,277)"/>
<path d="M0 0 C1.32 0.66 2.64 1.32 4 2 C-1.75 6 -1.75 6 -4 6 C-3.6875 4.125 -3.6875 4.125 -3 2 C-2.01 1.34 -1.02 0.68 0 0 Z " fill="#EEF9ED" transform="translate(214,98)"/>
<path d="M0 0 C1.65 1.65 3.3 3.3 5 5 C4.67 5.66 4.34 6.32 4 7 C3.01 6.67 2.02 6.34 1 6 C0.67 4.02 0.34 2.04 0 0 Z " fill="#74BE89" transform="translate(104,297)"/>
<path d="M0 0 C2.0625 1.6875 2.0625 1.6875 4 4 C3.75 6.75 3.75 6.75 3 9 C0.9375 6.75 0.9375 6.75 -1 4 C-0.75 1.6875 -0.75 1.6875 0 0 Z " fill="#E9FAEC" transform="translate(107,295)"/>
<path d="M0 0 C0.66 0.33 1.32 0.66 2 1 C-0.23407889 4.35111834 -1.26215824 5.81553956 -5.25 6.8125 C-6.61125 6.9053125 -6.61125 6.9053125 -8 7 C-5.53058944 4.40062046 -2.81939117 2.20979308 0 0 Z " fill="#D5F2DD" transform="translate(274,276)"/>
<path d="M0 0 C1.45606519 4.52092968 0.27032841 7.51648796 -1 12 C-1.33 12 -1.66 12 -2 12 C-2 8.7 -2 5.4 -2 2 C-1.34 2 -0.68 2 0 2 C0 1.34 0 0.68 0 0 Z " fill="#92CDA1" transform="translate(99,196)"/>
<path d="M0 0 C0.33 0 0.66 0 1 0 C1 3.3 1 6.6 1 10 C0.01 10 -0.98 10 -2 10 C-1.34 6.7 -0.68 3.4 0 0 Z " fill="#7BC08E" transform="translate(163,170)"/>
<path d="M0 0 C1.32 0.33 2.64 0.66 4 1 C2.35 2.98 0.7 4.96 -1 7 C-1.625 5.1875 -1.625 5.1875 -2 3 C-1.34 2.01 -0.68 1.02 0 0 Z " fill="#E1F8E8" transform="translate(290,304)"/>
<path d="M0 0 C-1.26239712 0.86658615 -2.53527501 1.71792059 -3.8125 2.5625 C-4.87404297 3.27599609 -4.87404297 3.27599609 -5.95703125 4.00390625 C-8 5 -8 5 -11 4 C-4.02040816 -2.01020408 -4.02040816 -2.01020408 0 0 Z " fill="#81C08E" transform="translate(256,289)"/>
<path d="M0 0 C2.5654594 2.5654594 2.54046087 4.47686668 3 8 C3.66 8 4.32 8 5 8 C4.67 8.99 4.34 9.98 4 11 C4 10.34 4 9.68 4 9 C3.34 9 2.68 9 2 9 C0.4375 6.1875 0.4375 6.1875 -1 3 C-0.67 2.01 -0.34 1.02 0 0 Z " fill="#82C190" transform="translate(159,269)"/>
<path d="M0 0 C1.32 0 2.64 0 4 0 C3.67 1.32 3.34 2.64 3 4 C2.01 4 1.02 4 0 4 C0 2.68 0 1.36 0 0 Z " fill="#69BC7C" transform="translate(160,180)"/>
<path d="M0 0 C0.66 0.66 1.32 1.32 2 2 C0.35 4.64 -1.3 7.28 -3 10 C-4 7 -4 7 -3.0625 4.8125 C-2.711875 4.214375 -2.36125 3.61625 -2 3 C-1.34 3 -0.68 3 0 3 C0 2.01 0 1.02 0 0 Z " fill="#72BE87" transform="translate(124,131)"/>
<path d="M0 0 C2.0625 0.4375 2.0625 0.4375 4 1 C1.03 3.475 1.03 3.475 -2 6 C-1.125 1.125 -1.125 1.125 0 0 Z " fill="#E4F9EC" transform="translate(290,128)"/>
<path d="M0 0 C1.32 0.66 2.64 1.32 4 2 C1.69 3.32 -0.62 4.64 -3 6 C-3 5.01 -3 4.02 -3 3 C-2.34 3 -1.68 3 -1 3 C-0.67 2.01 -0.34 1.02 0 0 Z " fill="#6FBC83" transform="translate(268,277)"/>
<path d="M0 0 C0.99 0.33 1.98 0.66 3 1 C0.03 3.475 0.03 3.475 -3 6 C-3.33 5.34 -3.66 4.68 -4 4 C-2.68 2.68 -1.36 1.36 0 0 Z " fill="#76BB88" transform="translate(276,272)"/>
<path d="M0 0 C0.33 1.32 0.66 2.64 1 4 C-0.65 5.32 -2.3 6.64 -4 8 C-3.40072174 4.64404172 -2.15377564 2.62198774 0 0 Z " fill="#71BD85" transform="translate(283,264)"/>
<path d="M0 0 C2.31 0 4.62 0 7 0 C3.99382731 3.00617269 1.17618402 2.59585316 -3 3 C-2.01 2.67 -1.02 2.34 0 2 C0 1.34 0 0.68 0 0 Z " fill="#D3F5DA" transform="translate(265,144)"/>
</svg>
