<?xml version="1.0" encoding="UTF-8"?>
<svg version="1.1" xmlns="http://www.w3.org/2000/svg" width="512" height="512">
<path d="M0 0 C168.96 0 337.92 0 512 0 C512 168.96 512 337.92 512 512 C343.04 512 174.08 512 0 512 C0 343.04 0 174.08 0 0 Z " fill="#010101" transform="translate(0,0)"/>
<path d="M0 0 C1.46979891 0.00138269 1.46979891 0.00138269 2.96929073 0.00279331 C4.64997646 0.00073132 4.64997646 0.00073132 6.36461544 -0.00137234 C7.60466839 0.00222294 8.84472134 0.00581821 10.12235165 0.00952244 C12.06840801 0.0093034 12.06840801 0.0093034 14.05377865 0.00907993 C17.62180117 0.00879197 21.18979036 0.01468851 24.75780511 0.02165389 C28.48274808 0.02788762 32.20769174 0.02849124 35.93263912 0.0296793 C42.99101551 0.03279256 50.04937648 0.04100587 57.10774606 0.05102879 C66.64243135 0.06427538 76.17712082 0.06968988 85.71181297 0.07553101 C100.7411675 0.08494577 115.77048949 0.10486472 130.79984188 0.12304783 C130.79984188 30.15304783 130.79984188 60.18304783 130.79984188 91.12304783 C86.57984188 91.12304783 42.35984188 91.12304783 -3.20015812 91.12304783 C-3.22078312 76.29367283 -3.24140812 61.46429783 -3.26265812 46.18554783 C-3.27631413 39.15125462 -3.27631413 39.15125462 -3.29024601 31.97485447 C-3.29476261 26.26648045 -3.29476261 26.26648045 -3.29560184 23.59764194 C-3.29714158 21.72601681 -3.3006671 19.85439269 -3.30573368 17.98277378 C-3.31300971 15.15459553 -3.31406559 12.32647812 -3.31368351 9.49829197 C-3.31728162 8.65873746 -3.32087973 7.81918295 -3.32458687 6.95418739 C-3.31227063 0.18524474 -3.31227063 0.18524474 0 0 Z " fill="#F5EAD6" transform="translate(351.20015811920166,269.8769521713257)"/>
<path d="M0 0 C0.9724916 0.00092179 1.9449832 0.00184359 2.94694424 0.00279331 C4.05898724 0.00141865 5.17103024 0.00004398 6.31677151 -0.00137234 C7.54747372 0.00222294 8.77817593 0.00581821 10.04617214 0.00952244 C11.33378948 0.00937641 12.62140682 0.00923038 13.94804287 0.00907993 C17.48920685 0.00879197 21.03033724 0.01468847 24.57149339 0.02165389 C28.26840913 0.02788766 31.96532556 0.02849125 35.66224575 0.0296793 C42.66749824 0.03279255 49.6727352 0.04100584 56.67798084 0.05102879 C66.14091529 0.06427543 75.60385397 0.06968989 85.06679535 0.07553101 C99.98302829 0.08494574 114.89922846 0.10486469 129.81545925 0.12304783 C129.81545925 30.15304783 129.81545925 60.18304783 129.81545925 91.12304783 C85.92545925 91.12304783 42.03545925 91.12304783 -3.18454075 91.12304783 C-3.20516575 76.29367283 -3.22579075 61.46429783 -3.24704075 46.18554783 C-3.26069675 39.15125462 -3.26069675 39.15125462 -3.27462864 31.97485447 C-3.27914524 26.26648045 -3.27914524 26.26648045 -3.27998447 23.59764194 C-3.28152421 21.72601681 -3.28504973 19.85439269 -3.29011631 17.98277378 C-3.29739234 15.15459553 -3.29844822 12.32647812 -3.29806614 9.49829197 C-3.30166425 8.65873746 -3.30526236 7.81918295 -3.3089695 6.95418739 C-3.29665407 0.18568943 -3.29665407 0.18568943 0 0 Z " fill="#F5EAD6" transform="translate(188.1845407485962,390.8769521713257)"/>
<path d="M0 0 C0.9724916 0.00092179 1.9449832 0.00184359 2.94694424 0.00279331 C4.05898724 0.00141865 5.17103024 0.00004398 6.31677151 -0.00137234 C7.54747372 0.00222294 8.77817593 0.00581821 10.04617214 0.00952244 C11.33378948 0.00937641 12.62140682 0.00923038 13.94804287 0.00907993 C17.48920685 0.00879197 21.03033724 0.01468847 24.57149339 0.02165389 C28.26840913 0.02788766 31.96532556 0.02849125 35.66224575 0.0296793 C42.66749824 0.03279255 49.6727352 0.04100584 56.67798084 0.05102879 C66.14091529 0.06427543 75.60385397 0.06968989 85.06679535 0.07553101 C99.98302829 0.08494574 114.89922846 0.10486469 129.81545925 0.12304783 C129.81545925 30.15304783 129.81545925 60.18304783 129.81545925 91.12304783 C85.92545925 91.12304783 42.03545925 91.12304783 -3.18454075 91.12304783 C-3.20516575 76.29367283 -3.22579075 61.46429783 -3.24704075 46.18554783 C-3.26069675 39.15125462 -3.26069675 39.15125462 -3.27462864 31.97485447 C-3.27914524 26.26648045 -3.27914524 26.26648045 -3.27998447 23.59764194 C-3.28152421 21.72601681 -3.28504973 19.85439269 -3.29011631 17.98277378 C-3.29739234 15.15459553 -3.29844822 12.32647812 -3.29806614 9.49829197 C-3.30166425 8.65873746 -3.30526236 7.81918295 -3.3089695 6.95418739 C-3.29665407 0.18568943 -3.29665407 0.18568943 0 0 Z " fill="#F5EAD6" transform="translate(188.1845407485962,269.8769521713257)"/>
<path d="M0 0 C1.46979891 0.00138269 1.46979891 0.00138269 2.96929073 0.00279331 C4.64997646 0.00073132 4.64997646 0.00073132 6.36461544 -0.00137234 C7.60466839 0.00222294 8.84472134 0.00581821 10.12235165 0.00952244 C12.06840801 0.0093034 12.06840801 0.0093034 14.05377865 0.00907993 C17.62180117 0.00879197 21.18979036 0.01468851 24.75780511 0.02165389 C28.48274808 0.02788762 32.20769174 0.02849124 35.93263912 0.0296793 C42.99101551 0.03279256 50.04937648 0.04100587 57.10774606 0.05102879 C66.64243135 0.06427538 76.17712082 0.06968988 85.71181297 0.07553101 C100.7411675 0.08494577 115.77048949 0.10486472 130.79984188 0.12304783 C130.79984188 29.82304783 130.79984188 59.52304783 130.79984188 90.12304783 C86.57984188 90.12304783 42.35984188 90.12304783 -3.20015812 90.12304783 C-3.22078312 75.45867283 -3.24140812 60.79429783 -3.26265812 45.68554783 C-3.27176212 41.04822605 -3.28086613 36.41090427 -3.29024601 31.63305759 C-3.29476261 25.98816013 -3.29476261 25.98816013 -3.29560184 23.34898472 C-3.29714156 21.49819289 -3.30066705 19.64740209 -3.30573368 17.79661655 C-3.31300984 14.99989156 -3.31406558 12.20322808 -3.31368351 9.40649509 C-3.31728162 8.57630895 -3.32087973 7.7461228 -3.32458687 6.8907795 C-3.31224916 0.18524353 -3.31224916 0.18524353 0 0 Z " fill="#F5EAD6" transform="translate(351.20015811920166,149.87695217132568)"/>
<path d="M0 0 C1.46979891 0.00138269 1.46979891 0.00138269 2.96929073 0.00279331 C4.64997646 0.00073132 4.64997646 0.00073132 6.36461544 -0.00137234 C7.60466839 0.00222294 8.84472134 0.00581821 10.12235165 0.00952244 C12.06840801 0.0093034 12.06840801 0.0093034 14.05377865 0.00907993 C17.62180117 0.00879197 21.18979036 0.01468851 24.75780511 0.02165389 C28.48274808 0.02788762 32.20769174 0.02849124 35.93263912 0.0296793 C42.99101551 0.03279256 50.04937648 0.04100587 57.10774606 0.05102879 C65.14147159 0.06219009 73.17519784 0.06770042 81.20892918 0.07272422 C97.73924245 0.08318849 114.2695402 0.10078783 130.79984188 0.12304783 C130.81227779 2.30347792 130.82471371 4.48390802 130.83714962 6.66433811 C130.84104478 7.34425273 130.84493994 8.02416734 130.84895313 8.72468543 C130.87041065 12.47442002 130.89158001 16.22415588 130.91222 19.97389507 C130.95130639 27.02662758 130.99377884 34.07922705 131.05388355 41.13181782 C131.0794599 44.58460902 131.08482919 48.0373594 131.09281063 51.49023533 C131.10065075 52.18472782 131.10849087 52.87922031 131.11656857 53.59475803 C131.25368391 66.39715593 130.28621659 75.58358831 121.14359188 85.05273533 C115.67001166 89.88773119 109.21585446 91.25152327 102.02254391 91.24330235 C100.62389851 91.24536434 100.62389851 91.24536434 99.19699764 91.24746799 C98.18639278 91.24387272 97.17578793 91.24027744 96.13455868 91.23657322 C95.06093578 91.23671925 93.98731289 91.23686527 92.88115597 91.23701572 C89.33710354 91.23631979 85.79310386 91.22854226 82.24906063 91.22070408 C79.78997991 91.21883877 77.33089882 91.2174154 74.87181759 91.21641636 C68.40276722 91.2126001 61.93373933 91.20277739 55.46469784 91.19171238 C48.8622229 91.18147913 42.25974434 91.17691463 35.65726376 91.17187595 C22.70478021 91.16115435 9.75231224 91.14428109 -3.20015812 91.12304783 C-3.22328027 79.40577995 -3.24107255 67.68851746 -3.25197029 55.97123146 C-3.2571994 50.53102471 -3.26429755 45.09083352 -3.27559757 39.65063572 C-3.28642546 34.40519081 -3.29243474 29.15976091 -3.29503536 23.91430569 C-3.29688979 21.90833837 -3.30051073 19.90237191 -3.30588818 17.89641094 C-3.31309731 15.09701959 -3.31414912 12.29769104 -3.31368351 9.49829197 C-3.31727879 8.66032078 -3.32087406 7.82234959 -3.32457829 6.95898533 C-3.31230433 0.18524662 -3.31230433 0.18524662 0 0 Z " fill="#F3BD2B" transform="translate(351.20015811920166,390.8769521713257)"/>
<path d="M0 0 C43.89 0 87.78 0 133 0 C133 29.7 133 59.4 133 90 C89.11 90 45.22 90 0 90 C0 60.3 0 30.6 0 0 Z " fill="#F6EBD7" transform="translate(185,30)"/>
<path d="M0 0 C0.9724916 0.00092179 1.9449832 0.00184359 2.94694424 0.00279331 C4.05898724 0.00141865 5.17103024 0.00004398 6.31677151 -0.00137234 C7.54747372 0.00222294 8.77817593 0.00581821 10.04617214 0.00952244 C11.33378948 0.00937641 12.62140682 0.00923038 13.94804287 0.00907993 C17.48920685 0.00879197 21.03033724 0.01468847 24.57149339 0.02165389 C28.26840913 0.02788766 31.96532556 0.02849125 35.66224575 0.0296793 C42.66749824 0.03279255 49.6727352 0.04100584 56.67798084 0.05102879 C66.14091529 0.06427543 75.60385397 0.06968989 85.06679535 0.07553101 C99.98302829 0.08494574 114.89922846 0.10486469 129.81545925 0.12304783 C129.81545925 29.82304783 129.81545925 59.52304783 129.81545925 90.12304783 C85.92545925 90.12304783 42.03545925 90.12304783 -3.18454075 90.12304783 C-3.20516575 75.45867283 -3.22579075 60.79429783 -3.24704075 45.68554783 C-3.25614475 41.04822605 -3.26524876 36.41090427 -3.27462864 31.63305759 C-3.27914524 25.98816013 -3.27914524 25.98816013 -3.27998447 23.34898472 C-3.28152419 21.49819289 -3.28504968 19.64740209 -3.29011631 17.79661655 C-3.29739247 14.99989156 -3.29844821 12.20322808 -3.29806614 9.40649509 C-3.30166425 8.57630895 -3.30526236 7.7461228 -3.3089695 6.8907795 C-3.29663261 0.18568822 -3.29663261 0.18568822 0 0 Z " fill="#F4BD2A" transform="translate(188.1845407485962,149.87695217132568)"/>
<path d="M0 0 C27.13138125 -0.08021762 27.13138125 -0.08021762 38.7109375 -0.09765625 C46.60712375 -0.10960419 54.50326354 -0.12372756 62.39941406 -0.15087891 C68.76660165 -0.17263541 75.13373941 -0.18457461 81.5009613 -0.18975449 C83.92818486 -0.19344518 86.35540574 -0.20065216 88.78260803 -0.21146011 C92.18651184 -0.22601214 95.59021063 -0.22797636 98.99414062 -0.22705078 C100.49386917 -0.23783661 100.49386917 -0.23783661 102.02389526 -0.24884033 C111.3401589 -0.22149171 118.9900152 0.96892053 125.85546875 7.86328125 C144.82075646 28.62733852 134 68.40240758 134 90 C89.78 90 45.56 90 0 90 C0 60.3 0 30.6 0 0 Z " fill="#F5EAD6" transform="translate(348,30)"/>
<path d="M0 0 C41.25 0 82.5 0 125 0 C125 30.03 125 60.06 125 91 C83.75 91 42.5 91 0 91 C0 60.97 0 30.94 0 0 Z " fill="#F4BE2A" transform="translate(30,270)"/>
<path d="M0 0 C41.25 0 82.5 0 125 0 C125 29.7 125 59.4 125 90 C83.75 90 42.5 90 0 90 C0 60.3 0 30.6 0 0 Z " fill="#F5EAD7" transform="translate(30,150)"/>
<path d="M0 0 C41.25 0 82.5 0 125 0 C125 30.03 125 60.06 125 91 C99.44623192 91.20054405 99.44623192 91.20054405 88.51953125 91.24414062 C81.0755014 91.27398282 73.63178026 91.30921463 66.18798828 91.37719727 C60.18385824 91.43168607 54.18005944 91.46145646 48.17570114 91.47438622 C45.88963993 91.48359573 43.60359602 91.50157975 41.31767654 91.52865028 C38.10543468 91.5651637 34.89454626 91.56993589 31.68212891 91.56762695 C30.74560486 91.58560333 29.80908081 91.60357971 28.84417725 91.62210083 C20.68037806 91.55896937 14.34388508 88.835033 8.125 83.5625 C2.60127065 76.90153226 -0.25844013 71.717136 -0.22705078 63.0065918 C-0.22729185 62.31213613 -0.22753292 61.61768045 -0.2277813 60.90218067 C-0.22629572 58.66772694 -0.21109811 56.43361232 -0.1953125 54.19921875 C-0.19236971 52.81433269 -0.19033072 51.4294444 -0.18920898 50.04455566 C-0.17874896 44.92550305 -0.1508264 39.80649815 -0.125 34.6875 C-0.08375 23.240625 -0.0425 11.79375 0 0 Z " fill="#F5EAD6" transform="translate(30,391)"/>
<path d="M0 0 C1.31879402 -0.002062 1.31879402 -0.002062 2.66423035 -0.00416565 C4.10676682 0.00122726 4.10676682 0.00122726 5.57844543 0.00672913 C6.59325485 0.0065831 7.60806427 0.00643707 8.65362549 0.00628662 C12.01375961 0.00698426 15.37383855 0.01476974 18.73396301 0.02259827 C21.06138071 0.02446297 23.38879881 0.02588663 25.71621704 0.02688599 C31.84663473 0.030707 37.97702879 0.04053378 44.10743713 0.05158997 C51.46042645 0.0636099 58.81342366 0.06820831 66.16641998 0.07404327 C77.34129452 0.08374572 88.51611719 0.10290522 99.69099426 0.12025452 C99.69099426 29.82025452 99.69099426 59.52025452 99.69099426 90.12025452 C58.44099426 90.12025452 17.19099426 90.12025452 -25.30900574 90.12025452 C-25.41213074 78.94150452 -25.51525574 67.76275452 -25.62150574 56.24525452 C-25.66702576 52.7340094 -25.71254578 49.22276428 -25.75944519 45.6051178 C-25.7820282 41.270401 -25.7820282 41.270401 -25.78622437 39.23204041 C-25.79383152 37.82823224 -25.81126833 36.42445383 -25.83688354 35.02085876 C-26.02012026 24.43825621 -24.86400784 16.66012194 -17.99650574 8.30775452 C-12.5327919 3.86054558 -7.24619284 -0.00874088 0 0 Z " fill="#F5BE2A" transform="translate(55.30900573730469,29.879745483398438)"/>
<path d="M0 0 C0.33 0 0.66 0 1 0 C1 15.84 1 31.68 1 48 C-14.51 48 -30.02 48 -46 48 C-46 47.67 -46 47.34 -46 47 C-45.18917969 46.78085937 -44.37835938 46.56171875 -43.54296875 46.3359375 C-27.51688404 41.7463952 -15.65680699 34.46320192 -7 20 C-3.53084742 13.4930445 -1.30728667 7.24949883 0 0 Z " fill="#FFFFFF" transform="translate(511,464)"/>
<path d="M0 0 C15.51 0 31.02 0 47 0 C47 15.84 47 31.68 47 48 C46.67 48 46.34 48 46 48 C45.79697266 46.92685547 45.79697266 46.92685547 45.58984375 45.83203125 C42.29512967 30.58164812 34.68191133 18.25653824 21.6796875 9.6015625 C14.80854106 5.49490063 7.83007924 2.62511078 0 1 C0 0.67 0 0.34 0 0 Z " fill="#FFFFFF" transform="translate(465,0)"/>
<path d="M0 0 C1.68274186 3.36548372 2.89548639 6.52442413 4.125 10.0625 C9.54432711 24.19711926 19.29783898 34.32301659 32.9140625 40.74609375 C37.50550867 42.61173201 42.16939325 43.9159662 47 45 C47 45.33 47 45.66 47 46 C31.49 46 15.98 46 0 46 C0 30.82 0 15.64 0 0 Z " fill="#FFFFFF" transform="translate(0,466)"/>
<path d="M0 0 C15.51 0 31.02 0 47 0 C47 0.33 47 0.66 47 1 C46.17757812 1.23074219 45.35515625 1.46148437 44.5078125 1.69921875 C27.64405449 6.62592865 15.69956153 14.00216799 6.66015625 29.59375 C4.08598213 34.8753496 2.4156494 40.30946194 1 46 C0.67 46 0.34 46 0 46 C0 30.82 0 15.64 0 0 Z " fill="#FFFFFF" transform="translate(0,0)"/>
</svg>
