<?xml version="1.0" encoding="UTF-8"?>
<svg version="1.1" xmlns="http://www.w3.org/2000/svg" width="480" height="480">
<path d="M0 0 C158.4 0 316.8 0 480 0 C480 158.4 480 316.8 480 480 C321.6 480 163.2 480 0 480 C0 321.6 0 163.2 0 0 Z " fill="#FEFAF4" transform="translate(0,0)"/>
<path d="M0 0 C6.04623017 5.75831445 7.54602685 12.72256214 8.25 20.90625 C8.53027846 33.37864167 5.07215612 41.75203533 -3.4375 50.875 C-9.42497153 56.48500049 -15.09564716 57.4623098 -23.09375 57.21484375 C-29.52517427 56.73940244 -34.24207415 54.93576154 -40 52.1875 C-45.04196203 49.78992365 -50.05738495 47.8492547 -55.375 46.1875 C-56.02855469 45.98084717 -56.68210937 45.77419434 -57.35546875 45.5612793 C-77.60172138 39.43019032 -106.9628668 40.32954292 -126.18994141 50.01367188 C-135.88873108 55.2986881 -143.85300474 61.73115995 -150 71 C-150.62519531 71.93714844 -151.25039062 72.87429687 -151.89453125 73.83984375 C-167.11002779 98.21667084 -166.92093999 132.65391174 -161 160 C-156.51669746 176.99122086 -146.66229471 192.66341647 -131.8125 202.375 C-110.81816538 214.38938421 -81.7961936 215.63486833 -58.53808594 210.0625 C-49.6918122 207.62328526 -41.29253992 203.7162882 -32.98266602 199.8762207 C-26.87516636 197.17706835 -19.93768141 196.92664448 -13.4921875 198.68359375 C-4.22293373 202.57538845 3.27980466 208.54228388 7.25 217.875 C10.54071829 227.56433718 10.36131911 238.15864543 6.296875 247.58203125 C0.30580229 258.75213368 -11.63026939 265.43502635 -23.375 269.375 C-25.24720958 269.92623412 -27.12198013 270.46889817 -29 271 C-30.41899845 271.49334355 -31.83581355 271.9930275 -33.25 272.5 C-40.0388836 274.76709069 -47.04588122 276.32929795 -54 278 C-54.88429688 278.21914063 -55.76859375 278.43828125 -56.6796875 278.6640625 C-67.50825613 281.24596321 -78.49322147 281.205071 -89.5625 281.1875 C-90.32211029 281.18656342 -91.08172058 281.18562683 -91.86434937 281.18466187 C-123.85735107 281.09901417 -155.72875003 274.43293435 -183 257 C-183.87180908 256.45617676 -183.87180908 256.45617676 -184.76123047 255.90136719 C-214.23677421 237.26864238 -233.46752502 206.11468085 -242.4375 172.875 C-245.87878739 157.17707261 -246.17597289 141.50789198 -246.1875 125.5 C-246.18858765 124.66610748 -246.18967529 123.83221497 -246.1907959 122.97305298 C-246.19044184 120.57569337 -246.18129415 118.17856962 -246.16796875 115.78125 C-246.16675522 115.05600632 -246.16554169 114.33076263 -246.16429138 113.58354187 C-246.13316201 110.22918319 -245.94162711 107.22108761 -245 104 C-244.92286998 101.85464271 -244.86274444 99.70865527 -244.8125 97.5625 C-244.13593275 83.70765494 -239.44686519 69.98005746 -233.29296875 57.640625 C-232.20032191 55.40911665 -231.37755849 53.29583615 -230.625 50.9375 C-228.52700469 45.0531818 -224.52382636 40.09589257 -221 35 C-219.40155715 32.52014009 -217.80768714 30.0378088 -216.2265625 27.546875 C-215.82179687 27.03640625 -215.41703125 26.5259375 -215 26 C-214.34 26 -213.68 26 -213 26 C-212.78859375 25.46632812 -212.5771875 24.93265625 -212.359375 24.3828125 C-206.23945064 13.65535887 -194.1587104 5.59656519 -184 -1 C-183.39929688 -1.39703125 -182.79859375 -1.7940625 -182.1796875 -2.203125 C-172.89026637 -8.29066055 -163.53369221 -12.54496795 -153 -16 C-152.25685547 -16.25378418 -151.51371094 -16.50756836 -150.74804688 -16.76904297 C-104.58778691 -32.43678864 -39.32157854 -32.46316368 0 0 Z " fill="#423232" transform="translate(345,112)"/>
<path d="M0 0 C0.66 0.33 1.32 0.66 2 1 C-1.63 4.63 -5.26 8.26 -9 12 C-9.66 11.67 -10.32 11.34 -11 11 C-9.92173635 9.72486237 -8.83714481 8.45507431 -7.75 7.1875 C-7.14671875 6.47980469 -6.5434375 5.77210938 -5.921875 5.04296875 C-4.07629602 3.08110329 -2.20054668 1.54330375 0 0 Z " fill="#E2DDD8" transform="translate(208,168)"/>
</svg>
