<?xml version="1.0" encoding="UTF-8"?>
<svg version="1.1" xmlns="http://www.w3.org/2000/svg" width="1042" height="1058">
<path d="M0 0 C343.86 0 687.72 0 1042 0 C1042 349.14 1042 698.28 1042 1058 C698.14 1058 354.28 1058 0 1058 C0 708.86 0 359.72 0 0 Z " fill="#000000" transform="translate(0,0)"/>
<path d="M0 0 C343.86 0 687.72 0 1042 0 C1042 349.14 1042 698.28 1042 1058 C698.14 1058 354.28 1058 0 1058 C0 708.86 0 359.72 0 0 Z M60 59 C60 368.87 60 678.74 60 998 C366.9 998 673.8 998 990 998 C990 688.13 990 378.26 990 59 C683.1 59 376.2 59 60 59 Z " fill="#C93041" transform="translate(0,0)"/>
<path d="M0 0 C50.49 0 100.98 0 153 0 C153 50.49 153 100.98 153 153 C102.51 153 52.02 153 0 153 C0 102.51 0 52.02 0 0 Z " fill="#FDFDFD" transform="translate(217,686)"/>
<path d="M0 0 C50.49 0 100.98 0 153 0 C153 50.49 153 100.98 153 153 C102.51 153 52.02 153 0 153 C0 102.51 0 52.02 0 0 Z " fill="#FDFDFD" transform="translate(217,530)"/>
<path d="M0 0 C50.49 0 100.98 0 153 0 C153 50.49 153 100.98 153 153 C102.51 153 52.02 153 0 153 C0 102.51 0 52.02 0 0 Z " fill="#EA6C51" transform="translate(217,374)"/>
<path d="M0 0 C50.49 0 100.98 0 153 0 C153 50.49 153 100.98 153 153 C102.51 153 52.02 153 0 153 C0 102.51 0 52.02 0 0 Z " fill="#EA6D51" transform="translate(217,218)"/>
<path d="M0 0 C50.49 0 100.98 0 153 0 C153 50.49 153 100.98 153 153 C102.51 153 52.02 153 0 153 C0 102.51 0 52.02 0 0 Z " fill="#5FAF76" transform="translate(217,62)"/>
<path d="M0 0 C50.16 0 100.32 0 152 0 C152 50.49 152 100.98 152 153 C101.84 153 51.68 153 0 153 C0 102.51 0 52.02 0 0 Z " fill="#FDFDFD" transform="translate(63,842)"/>
<path d="M0 0 C50.16 0 100.32 0 152 0 C152 50.49 152 100.98 152 153 C101.84 153 51.68 153 0 153 C0 102.51 0 52.02 0 0 Z " fill="#FDFDFD" transform="translate(63,686)"/>
<path d="M0 0 C50.16 0 100.32 0 152 0 C152 50.49 152 100.98 152 153 C101.84 153 51.68 153 0 153 C0 102.51 0 52.02 0 0 Z " fill="#FDFDFD" transform="translate(63,530)"/>
<path d="M0 0 C50.16 0 100.32 0 152 0 C152 50.49 152 100.98 152 153 C101.84 153 51.68 153 0 153 C0 102.51 0 52.02 0 0 Z " fill="#5FAF76" transform="translate(681,374)"/>
<path d="M0 0 C50.16 0 100.32 0 152 0 C152 50.49 152 100.98 152 153 C101.84 153 51.68 153 0 153 C0 102.51 0 52.02 0 0 Z " fill="#5FAF76" transform="translate(63,374)"/>
<path d="M0 0 C50.16 0 100.32 0 152 0 C152 50.49 152 100.98 152 153 C101.84 153 51.68 153 0 153 C0 102.51 0 52.02 0 0 Z " fill="#5FAF76" transform="translate(681,218)"/>
<path d="M0 0 C50.16 0 100.32 0 152 0 C152 50.49 152 100.98 152 153 C101.84 153 51.68 153 0 153 C0 102.51 0 52.02 0 0 Z " fill="#5FAF76" transform="translate(63,218)"/>
<path d="M0 0 C50.16 0 100.32 0 152 0 C152 50.49 152 100.98 152 153 C101.84 153 51.68 153 0 153 C0 102.51 0 52.02 0 0 Z " fill="#BEBEBE" transform="translate(835,62)"/>
<path d="M0 0 C50.16 0 100.32 0 152 0 C152 50.49 152 100.98 152 153 C101.84 153 51.68 153 0 153 C0 102.51 0 52.02 0 0 Z " fill="#5FAF76" transform="translate(681,62)"/>
<path d="M0 0 C50.16 0 100.32 0 152 0 C152 50.49 152 100.98 152 153 C101.84 153 51.68 153 0 153 C0 102.51 0 52.02 0 0 Z " fill="#BEBEBE" transform="translate(63,62)"/>
<path d="M0 0 C49.83 0 99.66 0 151 0 C151 50.49 151 100.98 151 153 C101.17 153 51.34 153 0 153 C0 102.51 0 52.02 0 0 Z " fill="#BFBFBF" transform="translate(373,686)"/>
<path d="M0 0 C49.83 0 99.66 0 151 0 C151 50.49 151 100.98 151 153 C101.17 153 51.34 153 0 153 C0 102.51 0 52.02 0 0 Z " fill="#FEFEFE" transform="translate(527,530)"/>
<path d="M0 0 C49.83 0 99.66 0 151 0 C151 50.49 151 100.98 151 153 C101.17 153 51.34 153 0 153 C0 102.51 0 52.02 0 0 Z " fill="#BFBFBF" transform="translate(527,374)"/>
<path d="M0 0 C49.83 0 99.66 0 151 0 C151 50.49 151 100.98 151 153 C101.17 153 51.34 153 0 153 C0 102.51 0 52.02 0 0 Z " fill="#BFBFBF" transform="translate(373,374)"/>
<path d="M0 0 C49.83 0 99.66 0 151 0 C151 50.49 151 100.98 151 153 C101.17 153 51.34 153 0 153 C0 102.51 0 52.02 0 0 Z " fill="#FEFEFE" transform="translate(527,218)"/>
<path d="M0 0 C49.83 0 99.66 0 151 0 C151 50.49 151 100.98 151 153 C101.17 153 51.34 153 0 153 C0 102.51 0 52.02 0 0 Z " fill="#EC6D51" transform="translate(373,218)"/>
<path d="M0 0 C49.83 0 99.66 0 151 0 C151 50.49 151 100.98 151 153 C101.17 153 51.34 153 0 153 C0 102.51 0 52.02 0 0 Z " fill="#EB6D51" transform="translate(527,62)"/>
<path d="M0 0 C49.83 0 99.66 0 151 0 C151 50.49 151 100.98 151 153 C101.17 153 51.34 153 0 153 C0 102.51 0 52.02 0 0 Z " fill="#5FB076" transform="translate(373,62)"/>
<path d="M0 0 C41.91 0 83.82 0 127 0 C127 42.57 127 85.14 127 129 C85.09 129 43.18 129 0 129 C0 86.43 0 43.86 0 0 Z " fill="#EB6D52" transform="translate(385,542)"/>
<path d="M0 0 C49.83 0 99.66 0 151 0 C151 50.49 151 100.98 151 153 C101.17 153 51.34 153 0 153 C0 102.51 0 52.02 0 0 Z M12 12 C12 54.57 12 97.14 12 141 C53.91 141 95.82 141 139 141 C139 98.43 139 55.86 139 12 C97.09 12 55.18 12 12 12 Z " fill="#0402F1" transform="translate(373,530)"/>
<path d="M0 0 C7.1775 -0.12375 7.1775 -0.12375 14.5 -0.25 C15.99337891 -0.28641602 17.48675781 -0.32283203 19.02539062 -0.36035156 C26.47140214 -0.42243504 31.80474178 -0.31428826 38 4 C40.0234375 6.1484375 40.0234375 6.1484375 41.375 8.375 C41.83648437 9.10460937 42.29796875 9.83421875 42.7734375 10.5859375 C47.04014316 18.98346648 47.41064343 28.96854622 45.27734375 38.08984375 C42.68481239 45.06973586 38.67140181 49.5787683 32 53 C28.48469726 54.15225998 25.1659328 54.1143906 21.484375 54.09765625 C20.35741211 54.09515869 19.23044922 54.09266113 18.06933594 54.09008789 C15.93126465 54.07643188 15.93126465 54.07643188 13.75 54.0625 C9.2125 54.041875 4.675 54.02125 0 54 C0 36.18 0 18.36 0 0 Z " fill="#070302" transform="translate(271,443)"/>
<path d="M0 0 C12 0 12 0 14.55224609 1.95263672 C15.03773926 2.85256348 15.52323242 3.75249023 16.0234375 4.6796875 C16.58933594 5.67226563 17.15523437 6.66484375 17.73828125 7.6875 C18.27839844 8.739375 18.81851563 9.79125 19.375 10.875 C20.21998047 12.39480469 20.21998047 12.39480469 21.08203125 13.9453125 C22.15039117 15.86984077 23.20036313 17.80479754 24.22412109 19.75341797 C26.68122545 24.24538576 29.36574473 28.60957455 32 33 C32.33 22.11 32.66 11.22 33 0 C36.3 0 39.6 0 43 0 C43 17.82 43 35.64 43 54 C39.37 54 35.74 54 32 54 C29.3183163 50.88651977 27.82653316 48.57038635 26 45 C24.79618051 43.02239172 23.57944156 41.05260429 22.3515625 39.08984375 C21.10704936 37.04047298 19.86528937 34.98942977 18.625 32.9375 C16.43875 29.328125 14.2525 25.71875 12 22 C11.67 32.56 11.34 43.12 11 54 C7.37 54 3.74 54 0 54 C0 36.18 0 18.36 0 0 Z " fill="#010201" transform="translate(735,423)"/>
<path d="M0 0 C4.39322656 3.83680656 7.18168407 7.12858323 8 13 C-0.52733119 15.67524116 -0.52733119 15.67524116 -4 15 C-5.5625 12.625 -5.5625 12.625 -7 10 C-11.38270625 7.18391901 -15.96984778 7.49371845 -21 8 C-24.68095852 9.33141053 -25.69714807 10.53005736 -27.8125 13.8125 C-30.15269355 20.17025127 -30.40136514 28.2797092 -28.015625 34.61328125 C-25.85345326 38.2636144 -24.01908955 40.43577334 -20 42 C-14.15322722 42.83216544 -8.97249108 42.21140049 -4 39 C-2.9384058 35.41136476 -2.9384058 35.41136476 -3 32 C-6.96 32 -10.92 32 -15 32 C-15 29.03 -15 26.06 -15 23 C-7.08 23 0.84 23 9 23 C9.12375 26.5475 9.2475 30.095 9.375 33.75 C9.42962402 34.86213867 9.48424805 35.97427734 9.54052734 37.12011719 C9.58682471 39.84917243 9.53464527 42.32018664 9 45 C6.2890625 47.5625 6.2890625 47.5625 3 49 C2.175 49.41765625 1.35 49.8353125 0.5 50.265625 C-7.72859813 53.50563551 -16.36309814 54.82899475 -24.9375 52.046875 C-32.8805668 48.3117424 -37.84067038 43.17708844 -41 35 C-43.28300227 25.91365097 -43.33440087 16.32735951 -38.55078125 8.12109375 C-29.96877441 -3.61701636 -12.87871131 -7.70172439 0 0 Z " fill="#060202" transform="translate(619,113)"/>
<path d="M0 0 C3.7807536 2.46570887 6.05859002 4.9128211 8 9 C8 10.32 8 11.64 8 13 C4.37 13.66 0.74 14.32 -3 15 C-4.23697917 13.47005208 -5.47395833 11.94010417 -6.7109375 10.41015625 C-8.36615982 8.59944334 -9.51513717 8.05042573 -11.953125 7.796875 C-17.05815533 7.69269071 -20.65878032 8.00249117 -25 11 C-26.84434349 13.46115547 -26.84434349 13.46115547 -28 16 C-28.33 16.66 -28.66 17.32 -29 18 C-29.60204119 26.38226585 -29.68135452 32.74343384 -24 39.3125 C-20.6788096 42.1147544 -17.51930386 42.26594278 -13.2734375 42.234375 C-9.31279531 41.82606137 -5.6923977 40.43593244 -2 39 C-2 36.69 -2 34.38 -2 32 C-6.29 32 -10.58 32 -15 32 C-15 29.03 -15 26.06 -15 23 C-7.08 23 0.84 23 9 23 C9.2475 28.2903125 9.2475 28.2903125 9.5 33.6875 C9.57283203 34.79053467 9.64566406 35.89356934 9.72070312 37.0300293 C9.7850088 39.86492411 9.71965811 42.25055789 9 45 C6.64500606 47.45269317 4.10881677 48.69914243 1 50 C0.35619385 50.32436035 -0.2876123 50.6487207 -0.95092773 50.98291016 C-7.70563845 54.3302205 -16.54912458 54.20154257 -23.69140625 52.2734375 C-30.81543577 49.30810541 -35.98295022 45.23168577 -39.1875 38.1015625 C-42.94633781 28.37918394 -43.0162938 20.18507922 -39.1328125 10.44921875 C-36.24361597 4.2025766 -31.86135281 0.86089292 -25.73046875 -2.09375 C-17.6377688 -4.77973911 -7.60584647 -3.79481466 0 0 Z " fill="#040201" transform="translate(464,581)"/>
<path d="M0 0 C1.79244141 0.01740234 1.79244141 0.01740234 3.62109375 0.03515625 C5.41740234 0.04869141 5.41740234 0.04869141 7.25 0.0625 C8.17683594 0.07410156 9.10367188 0.08570313 10.05859375 0.09765625 C12.91657572 7.14129524 15.76379018 14.18921542 18.60351562 21.24023438 C19.57108381 23.63902423 20.54112416 26.03681844 21.51367188 28.43359375 C22.91014363 31.87632412 24.2977225 35.32252235 25.68359375 38.76953125 C26.33980713 40.37909698 26.33980713 40.37909698 27.00927734 42.0211792 C27.6098999 43.52228241 27.6098999 43.52228241 28.22265625 45.05371094 C28.5779541 45.93307312 28.93325195 46.8124353 29.29931641 47.71844482 C30.05859375 50.09765625 30.05859375 50.09765625 30.05859375 54.09765625 C26.09859375 54.09765625 22.13859375 54.09765625 18.05859375 54.09765625 C14.05859375 44.34765625 14.05859375 44.34765625 14.05859375 42.09765625 C6.79859375 42.09765625 -0.46140625 42.09765625 -7.94140625 42.09765625 C-8.43640625 44.57265625 -8.43640625 44.57265625 -8.94140625 47.09765625 C-9.83446499 49.48994314 -10.89036651 51.76708987 -11.94140625 54.09765625 C-15.90140625 54.09765625 -19.86140625 54.09765625 -23.94140625 54.09765625 C-21.80337819 47.52757859 -19.45795995 41.07184351 -16.96484375 34.62890625 C-16.5941275 33.66738647 -16.22341125 32.7058667 -15.84146118 31.71520996 C-15.0642914 29.70134041 -14.28606882 27.68787685 -13.50683594 25.67480469 C-12.30962408 22.58012498 -11.11753049 19.48350558 -9.92578125 16.38671875 C-9.16827512 14.42566288 -8.41047335 12.46472118 -7.65234375 10.50390625 C-7.29506195 9.57485474 -6.93778015 8.64580322 -6.56967163 7.68859863 C-6.23907745 6.8368103 -5.90848328 5.98502197 -5.56787109 5.10742188 C-5.27713715 4.35513306 -4.9864032 3.60284424 -4.68685913 2.82775879 C-3.45161282 -0.0390928 -3.33573338 0.11074812 0 0 Z " fill="#020302" transform="translate(134.94140625,266.90234375)"/>
<path d="M0 0 C3.96 0 7.92 0 12 0 C12 6.93 12 13.86 12 21 C18.6 21 25.2 21 32 21 C32 14.07 32 7.14 32 0 C35.96 0 39.92 0 44 0 C44 17.82 44 35.64 44 54 C40.04 54 36.08 54 32 54 C32 46.08 32 38.16 32 30 C25.4 30 18.8 30 12 30 C12 37.92 12 45.84 12 54 C8.04 54 4.08 54 0 54 C0 36.18 0 18.36 0 0 Z " fill="#030704" transform="translate(735,111)"/>
<path d="M0 0 C3.80536598 2.32458226 6.32093424 5.32936847 8.3125 9.3125 C8.352492 11.31210012 8.35596799 13.31297242 8.3125 15.3125 C4.58755014 15.65930568 1.02259563 15.86575988 -2.6875 15.3125 C-4.02083333 13.3125 -5.35416667 11.3125 -6.6875 9.3125 C-10.97280514 8.59828248 -15.73447502 8.33598751 -19.6875 10.3125 C-19.6875 11.9625 -19.6875 13.6125 -19.6875 15.3125 C-14.8741849 17.20007455 -10.11090267 18.74898298 -5.125 20.125 C1.17011318 22.03106095 5.96689045 24.48001254 9.46484375 30.1953125 C11.04371599 34.13885514 10.84634345 38.14720293 10.3125 42.3125 C7.66572599 47.60604803 4.10894771 51.20191077 -1.421875 53.3984375 C-8.30732468 55.32570452 -16.65926346 55.72578462 -23.25 52.625 C-28.23843051 49.59135061 -32.10550957 46.06519246 -33.6875 40.3125 C-33.6875 38.6625 -33.6875 37.0125 -33.6875 35.3125 C-28.2425 34.8175 -28.2425 34.8175 -22.6875 34.3125 C-22.06875 35.7046875 -22.06875 35.7046875 -21.4375 37.125 C-19.32115195 41.05575109 -19.32115195 41.05575109 -15.6875 43.3125 C-11.54623992 43.86263049 -7.97813884 43.87912193 -4.125 42.1875 C-2.11914542 39.57116794 -2.58728344 37.52814446 -2.6875 34.3125 C-3.59459717 34.03369995 -3.59459717 34.03369995 -4.52001953 33.74926758 C-7.28895763 32.88911018 -10.05053935 32.00729298 -12.8125 31.125 C-13.76382812 30.83302734 -14.71515625 30.54105469 -15.6953125 30.24023438 C-22.14637676 28.15707821 -27.12604522 26.11766692 -31.0390625 20.3046875 C-32.7377054 15.08596534 -32.39315793 9.90023035 -30.1875 4.9375 C-22.5691934 -3.06172193 -10.10160307 -4.64332599 0 0 Z " fill="#040404" transform="translate(459.6875,735.6875)"/>
<path d="M0 0 C3.74657232 2.47114344 6.70184481 5.0030674 8.9375 8.9375 C9.3125 12.875 9.3125 12.875 8.9375 15.9375 C5.22977108 16.22077301 1.63468548 16.39623498 -2.0625 15.9375 C-4.1875 13.5 -4.1875 13.5 -5.0625 10.9375 C-6.11437652 9.66311569 -6.11437652 9.66311569 -8.49609375 9.8046875 C-9.48738281 9.80726563 -10.47867187 9.80984375 -11.5 9.8125 C-12.48871094 9.80992187 -13.47742188 9.80734375 -14.49609375 9.8046875 C-17.05159076 9.76521585 -17.05159076 9.76521585 -19.0625 10.9375 C-19.11417527 13.36017086 -19.11417527 13.36017086 -18.0625 15.9375 C-13.78478215 18.36802151 -9.20650875 19.48725228 -4.5 20.875 C1.50452249 22.69497008 5.5431361 24.3036997 9.8125 29 C11.58362484 33.62460376 11.58382143 38.05418253 10.9375 42.9375 C8.41620452 48.07347227 4.87008647 51.49200525 -0.265625 54.0234375 C-6.89947875 56.19148467 -16.25733218 56.26324623 -22.6875 53.3125 C-27.77524621 50.18243005 -31.38728941 45.72459113 -33.0625 39.9375 C-33.0625 38.6175 -33.0625 37.2975 -33.0625 35.9375 C-27.6175 35.4425 -27.6175 35.4425 -22.0625 34.9375 C-20.82552083 36.98828125 -19.58854167 39.0390625 -18.3515625 41.08984375 C-17.1851016 43.07522272 -17.1851016 43.07522272 -15.0625 43.9375 C-13.60670413 44.03305417 -12.1464204 44.06734691 -10.6875 44.0625 C-9.91664063 44.06507813 -9.14578125 44.06765625 -8.3515625 44.0703125 C-6.1296811 43.94139788 -4.19631492 43.55133717 -2.0625 42.9375 C-2.0625 40.2975 -2.0625 37.6575 -2.0625 34.9375 C-7.45826464 32.91665279 -12.80216471 30.97591072 -18.375 29.5 C-23.80691649 27.9023775 -27.40914915 25.64298322 -30.4375 20.6875 C-31.51967207 15.9259429 -32.40564433 11.34589673 -29.9296875 6.90625 C-22.73927419 -1.97823974 -10.67268482 -3.85269564 0 0 Z " fill="#050202" transform="translate(304.0625,267.0625)"/>
<path d="M0 0 C3.10888256 2.63579173 5.65997909 5.10175734 7 9 C7 10.65 7 12.3 7 14 C3.04 14 -0.92 14 -5 14 C-5.66 12.35 -6.32 10.7 -7 9 C-9.60179663 7.69910169 -11.5969188 7.83159922 -14.5 7.8125 C-15.4796875 7.79832031 -16.459375 7.78414062 -17.46875 7.76953125 C-20.169918 7.74319966 -20.169918 7.74319966 -22 10 C-22.06191396 12.06261369 -22.06191396 12.06261369 -21 14 C-18.80581223 15.26607626 -18.80581223 15.26607626 -16.0625 16.0625 C-15.06992188 16.39507812 -14.07734375 16.72765625 -13.0546875 17.0703125 C-10.27752551 17.91553571 -7.48933247 18.67955748 -4.6875 19.4375 C0.4531116 20.94127191 4.23493107 23.13558018 7.12890625 27.83203125 C9.09345699 32.72138398 8.88597829 38.4065781 7.1953125 43.35546875 C4.67827546 47.98160923 1.57323473 50.52750661 -3.3359375 52.3828125 C-10.65368861 54.07812727 -19.05832841 53.97500211 -26 51 C-31.63264954 47.1004734 -34.32103281 43.33311167 -35.6875 36.625 C-35.790625 35.75875 -35.89375 34.8925 -36 34 C-31.9472484 33.01751476 -28.16138263 32.91840426 -24 33 C-23.566875 34.11375 -23.13375 35.2275 -22.6875 36.375 C-21.30088881 40.17512334 -21.30088881 40.17512334 -18 42 C-13.37077567 42.66462987 -9.32696669 42.83321164 -5.3125 40.3125 C-3.82096617 38.06956471 -3.82096617 38.06956471 -3.8125 35.4375 C-5.25458462 32.47743157 -6.73856297 31.79356426 -9.7734375 30.67578125 C-12.33258594 29.89905725 -14.91016166 29.22957957 -17.5 28.5625 C-23.58932937 26.93366704 -28.82346825 25.2714374 -32.4375 19.75 C-34.47114483 15.63869206 -34.57725909 12.54591531 -34 8 C-31.60653379 3.39036138 -28.34201107 -0.8835317 -23.234375 -2.58984375 C-15.24939958 -4.05561721 -7.22932513 -3.74375766 0 0 Z " fill="#040404" transform="translate(152,113)"/>
<path d="M0 0 C3.10888256 2.63579173 5.65997909 5.10175734 7 9 C7 10.65 7 12.3 7 14 C3.04 14 -0.92 14 -5 14 C-5.66 12.35 -6.32 10.7 -7 9 C-9.60179663 7.69910169 -11.5969188 7.83159922 -14.5 7.8125 C-15.4796875 7.79832031 -16.459375 7.78414063 -17.46875 7.76953125 C-20.169918 7.74319966 -20.169918 7.74319966 -22 10 C-22.06191396 12.06261369 -22.06191396 12.06261369 -21 14 C-18.80581223 15.26607626 -18.80581223 15.26607626 -16.0625 16.0625 C-15.06992188 16.39507812 -14.07734375 16.72765625 -13.0546875 17.0703125 C-10.27752551 17.91553571 -7.48933247 18.67955748 -4.6875 19.4375 C0.4531116 20.94127191 4.23493107 23.13558018 7.12890625 27.83203125 C9.09345699 32.72138398 8.88597829 38.4065781 7.1953125 43.35546875 C4.67827546 47.98160923 1.57323473 50.52750661 -3.3359375 52.3828125 C-10.65368861 54.07812727 -19.05832841 53.97500211 -26 51 C-31.63264954 47.1004734 -34.32103281 43.33311167 -35.6875 36.625 C-35.790625 35.75875 -35.89375 34.8925 -36 34 C-31.9472484 33.01751476 -28.16138263 32.91840426 -24 33 C-23.566875 34.11375 -23.13375 35.2275 -22.6875 36.375 C-21.30088881 40.17512334 -21.30088881 40.17512334 -18 42 C-13.37077567 42.66462987 -9.32696669 42.83321164 -5.3125 40.3125 C-3.82096617 38.06956471 -3.82096617 38.06956471 -3.8125 35.4375 C-5.25458462 32.47743157 -6.73856297 31.79356426 -9.7734375 30.67578125 C-12.33258594 29.89905725 -14.91016166 29.22957957 -17.5 28.5625 C-23.58932937 26.93366704 -28.82346825 25.2714374 -32.4375 19.75 C-34.47114483 15.63869206 -34.57725909 12.54591531 -34 8 C-31.60653379 3.39036138 -28.34201107 -0.8835317 -23.234375 -2.58984375 C-15.24939958 -4.05561721 -7.22932513 -3.74375766 0 0 Z " fill="#020403" transform="translate(152,425)"/>
<path d="M0 0 C13.53 0 27.06 0 41 0 C41 2.97 41 5.94 41 9 C31.43 9 21.86 9 12 9 C12 12.96 12 16.92 12 21 C20.91 21 29.82 21 39 21 C39 23.97 39 26.94 39 30 C30.09 30 21.18 30 12 30 C12 34.62 12 39.24 12 44 C21.9 44 31.8 44 42 44 C42 47.3 42 50.6 42 54 C28.14 54 14.28 54 0 54 C0 36.18 0 18.36 0 0 Z " fill="#050505" transform="translate(428,423)"/>
<path d="M0 0 C13.53 0 27.06 0 41 0 C41 2.97 41 5.94 41 9 C31.43 9 21.86 9 12 9 C12 12.96 12 16.92 12 21 C20.91 21 29.82 21 39 21 C39 23.97 39 26.94 39 30 C30.09 30 21.18 30 12 30 C12 34.62 12 39.24 12 44 C21.9 44 31.8 44 42 44 C42 47.3 42 50.6 42 54 C28.14 54 14.28 54 0 54 C0 36.18 0 18.36 0 0 Z " fill="#070302" transform="translate(428,267)"/>
<path d="M0 0 C13.53 0 27.06 0 41 0 C41 2.97 41 5.94 41 9 C31.43 9.33 21.86 9.66 12 10 C11.67 13.63 11.34 17.26 11 21 C20.24 21 29.48 21 39 21 C39 23.97 39 26.94 39 30 C29.76 30 20.52 30 11 30 C11 34.62 11 39.24 11 44 C21.23 44 31.46 44 42 44 C42 47.3 42 50.6 42 54 C28.14 54 14.28 54 0 54 C0 36.18 0 18.36 0 0 Z " fill="#020402" transform="translate(737,267)"/>
<path d="M0 0 C3.96 0 7.92 0 12 0 C12.00410889 1.1552417 12.00821777 2.3104834 12.01245117 3.50073242 C12.03426324 7.79691869 12.08857402 12.09219179 12.15258789 16.38793945 C12.17574988 18.24527213 12.1901594 20.10273582 12.19555664 21.96020508 C12.20485962 24.634455 12.24587697 27.30664968 12.29296875 29.98046875 C12.2890361 30.80773972 12.28510345 31.63501068 12.28105164 32.48735046 C12.39015273 36.82200044 12.61488969 38.51342515 15.3972168 42.02880859 C18.1574874 44.11927148 19.23221447 44.61821538 22.625 44.4375 C23.38039063 44.41558594 24.13578125 44.39367187 24.9140625 44.37109375 C27.29782631 44.09061938 27.29782631 44.09061938 30 42 C31.30920503 38.0723849 31.23462868 34.27429369 31.31640625 30.17578125 C31.33718735 29.31438034 31.35796844 28.45297943 31.37937927 27.56547546 C31.44474909 24.81456456 31.50370132 22.06355844 31.5625 19.3125 C31.60569717 17.44725579 31.64931185 15.5820212 31.69335938 13.71679688 C31.80041763 9.14462876 31.90172054 4.5723649 32 0 C35.96 0 39.92 0 44 0 C44.07455448 5.40768471 44.12879227 10.81506548 44.16479492 16.22314453 C44.17981496 18.06011166 44.20023709 19.89704334 44.22631836 21.73388672 C44.26300202 24.38518054 44.27979438 27.03599732 44.29296875 29.6875 C44.30845261 30.49928711 44.32393646 31.31107422 44.33988953 32.14746094 C44.34184076 38.86596196 42.80636363 43.98939395 39.3125 49.8125 C33.08630564 55.70214331 25.676462 55.5343184 17.50390625 55.34765625 C11.50360312 54.75230845 8.24183934 52.5394669 4.1875 48.125 C0.0314801 42.18782872 -0.28319122 36.88164534 -0.1953125 29.8828125 C-0.1924826 29.02565643 -0.18965271 28.16850037 -0.18673706 27.28536987 C-0.17559999 24.56510068 -0.1505076 21.84516859 -0.125 19.125 C-0.11496182 17.27344228 -0.10583744 15.42187936 -0.09765625 13.5703125 C-0.07568188 9.0467464 -0.041197 4.52343023 0 0 Z " fill="#040705" transform="translate(426,111)"/>
<path d="M0 0 C4.70742324 -1.17513777 9.48073341 -2.14609851 14 0 C18.98731179 5.33666117 22.02040543 12.40166657 25 19 C28.28816124 15.12678305 30.79349086 11.10466735 33.25 6.6875 C33.61351562 6.04232422 33.97703125 5.39714844 34.3515625 4.73242188 C35.23836205 3.15718584 36.11974563 1.57890286 37 0 C41.29 0 45.58 0 50 0 C48.39977232 4.0005692 46.82295971 7.10090088 44.55859375 10.703125 C43.89279297 11.7653125 43.22699219 12.8275 42.54101562 13.921875 C41.49977539 15.56929687 41.49977539 15.56929687 40.4375 17.25 C39.73947266 18.36375 39.04144531 19.4775 38.32226562 20.625 C33.1541718 28.8458282 33.1541718 28.8458282 32 30 C31.84235595 31.77869726 31.74899323 33.56318476 31.68359375 35.34765625 C31.64169922 36.42724609 31.59980469 37.50683594 31.55664062 38.61914062 C31.51732422 39.75544922 31.47800781 40.89175781 31.4375 42.0625 C31.39431641 43.20267578 31.35113281 44.34285156 31.30664062 45.51757812 C31.20017262 48.34489508 31.09954738 51.17243092 31 54 C27.37 54 23.74 54 20 54 C20.10183594 52.60652344 20.20367188 51.21304688 20.30859375 49.77734375 C20.89621764 33.12119549 15.53999359 23.55301629 5.72021484 10.44580078 C3.37854113 7.11641003 1.68340477 3.70002849 0 0 Z " fill="#020202" transform="translate(886,111)"/>
<path d="M0 0 C3.63 0 7.26 0 11 0 C11 14.52 11 29.04 11 44 C19.91 44 28.82 44 38 44 C38 47.3 38 50.6 38 54 C25.46 54 12.92 54 0 54 C0 36.18 0 18.36 0 0 Z " fill="#010201" transform="translate(276,111)"/>
<path d="M0 0 C13.82142857 0 13.82142857 0 18 3 C22.81483779 8.14689557 22.2236134 14.09118489 22.1484375 20.796875 C21.96693654 24.71347476 21.60032791 27.41831373 20 31 C15 35 15 35 0 35 C0 23.45 0 11.9 0 0 Z " fill="#EA6C50" transform="translate(283,452)"/>
<path d="M0 0 C3.63 0 7.26 0 11 0 C11 17.82 11 35.64 11 54 C7.37 54 3.74 54 0 54 C0 36.18 0 18.36 0 0 Z " fill="#000000" transform="translate(597,423)"/>
<path d="M0 0 C3.5578125 -0.12375 3.5578125 -0.12375 7.1875 -0.25 C7.92508545 -0.28641602 8.6626709 -0.32283203 9.42260742 -0.36035156 C12.9230872 -0.41896864 14.87026161 -0.08000239 17.86328125 1.765625 C21.11105576 5.16183527 22.28778929 7.67996559 22.3125 12.375 C22.189086 17.37738067 20.94765173 21.01957529 17.375 24.65234375 C14.04676953 26.54089558 10.95758094 26.32311393 7.25 26.1875 C4.8575 26.125625 2.465 26.06375 0 26 C0 17.42 0 8.84 0 0 Z " fill="#060302" transform="translate(295,394)"/>
<path d="M0 0 C2.31 0 4.62 0 7 0 C8.50827797 3.76757497 10.00518994 7.53956349 11.5 11.3125 C11.92925781 12.38435547 12.35851562 13.45621094 12.80078125 14.56054688 C13.40986328 16.10258789 13.40986328 16.10258789 14.03125 17.67578125 C14.40830078 18.62364502 14.78535156 19.57150879 15.17382812 20.5480957 C16 23 16 23 16 26 C14.02 26 12.04 26 10 26 C9.34 24.35 8.68 22.7 8 21 C4.7 20.67 1.4 20.34 -2 20 C-2.66 21.98 -3.32 23.96 -4 26 C-5.98 26 -7.96 26 -10 26 C-6.75992966 17.29501103 -3.51409615 8.59919998 0 0 Z " fill="#0A0403" transform="translate(328,394)"/>
<path d="M0 0 C2.31 0 4.62 0 7 0 C8.50827797 3.76757497 10.00518994 7.53956349 11.5 11.3125 C11.92925781 12.38435547 12.35851562 13.45621094 12.80078125 14.56054688 C13.40986328 16.10258789 13.40986328 16.10258789 14.03125 17.67578125 C14.40830078 18.62364502 14.78535156 19.57150879 15.17382812 20.5480957 C16 23 16 23 16 26 C14.02 26 12.04 26 10 26 C9.34 24.35 8.68 22.7 8 21 C4.7 20.67 1.4 20.34 -2 20 C-2.66 21.98 -3.32 23.96 -4 26 C-5.98 26 -7.96 26 -10 26 C-6.75992966 17.29501103 -3.51409615 8.59919998 0 0 Z " fill="#0A0403" transform="translate(252,394)"/>
<path d="M0 0 C1.04027344 -0.01933594 2.08054687 -0.03867187 3.15234375 -0.05859375 C6.74203785 0.55334068 7.93364946 1.51866637 10.0625 4.4375 C10.0625 5.7575 10.0625 7.0775 10.0625 8.4375 C8.0825 8.4375 6.1025 8.4375 4.0625 8.4375 C4.0625 7.4475 4.0625 6.4575 4.0625 5.4375 C1.4225 5.4375 -1.2175 5.4375 -3.9375 5.4375 C-3.9375 6.4275 -3.9375 7.4175 -3.9375 8.4375 C-3.18984375 8.60765625 -2.4421875 8.7778125 -1.671875 8.953125 C-0.68703125 9.19546875 0.2978125 9.4378125 1.3125 9.6875 C2.77429688 10.03554688 2.77429688 10.03554688 4.265625 10.390625 C7.42757043 11.57414648 8.95221379 12.82546741 11.0625 15.4375 C11.81437617 19.36396445 11.38570201 20.92483474 9.25 24.3125 C4.71853742 27.33347505 0.37663577 27.38786705 -4.9375 26.4375 C-7.23046875 25.10546875 -7.23046875 25.10546875 -8.9375 23.4375 C-9.6875 20.25 -9.6875 20.25 -9.9375 17.4375 C-7.5625 17.25 -7.5625 17.25 -4.9375 17.4375 C-4.2775 18.4275 -3.6175 19.4175 -2.9375 20.4375 C0.64607241 20.68765873 0.64607241 20.68765873 4.0625 20.4375 C4.0625 19.4475 4.0625 18.4575 4.0625 17.4375 C2.90621094 17.05658203 2.90621094 17.05658203 1.7265625 16.66796875 C0.72367187 16.32378906 -0.27921875 15.97960937 -1.3125 15.625 C-2.31023437 15.28855469 -3.30796875 14.95210938 -4.3359375 14.60546875 C-6.9375 13.4375 -6.9375 13.4375 -8.9375 10.4375 C-9.48986459 4.25101656 -9.48986459 4.25101656 -7.7890625 1.74609375 C-5.16633433 -0.10752215 -3.18461054 0.00393648 0 0 Z " fill="#0B0503" transform="translate(279.9375,393.5625)"/>
<path d="M0 0 C8 0 8 0 9.9765625 1.1875 C11.32232501 3.57083513 11.39937162 5.27037835 11.375 8 C11.38273437 8.86625 11.39046875 9.7325 11.3984375 10.625 C11 13 11 13 9.9765625 14.8125 C8 16 8 16 0 16 C0 10.72 0 5.44 0 0 Z " fill="#DE674D" transform="translate(300,399)"/>
<path d="M0 0 C0.66 0 1.32 0 2 0 C3.98 5.61 5.96 11.22 8 17 C3.38 17 -1.24 17 -6 17 C-4.02 11.39 -2.04 5.78 0 0 Z " fill="#5AA770" transform="translate(137,282)"/>
<path d="M0 0 C1.9451 2.91765 2.45276317 4.62537285 3 8 C1.35 8 -0.3 8 -2 8 C-1.125 1.125 -1.125 1.125 0 0 Z " fill="#CF6047" transform="translate(331,401)"/>
<path d="M0 0 C1.9451 2.91765 2.45276317 4.62537285 3 8 C1.35 8 -0.3 8 -2 8 C-1.125 1.125 -1.125 1.125 0 0 Z " fill="#CF6047" transform="translate(255,401)"/>
</svg>
