<?xml version="1.0" encoding="UTF-8"?>
<svg version="1.1" xmlns="http://www.w3.org/2000/svg" width="200" height="200">
<path d="M0 0 C0.67848495 -0.00817749 1.35696991 -0.01635498 2.05601501 -0.02478027 C4.30149467 -0.0495894 6.54691107 -0.06614279 8.79248047 -0.08056641 C9.56180782 -0.08589008 10.33113518 -0.09121376 11.12377548 -0.09669876 C15.19953158 -0.12341678 19.27525726 -0.14279196 23.35107422 -0.15722656 C26.7130063 -0.17053889 30.07432754 -0.19834221 33.43603516 -0.23925781 C37.50499989 -0.28877505 41.57341274 -0.31337119 45.64266586 -0.32045364 C47.18713278 -0.32713602 48.73158885 -0.34227905 50.27588272 -0.36634445 C66.95081218 -0.61127556 66.95081218 -0.61127556 73.28466797 5.19287109 C73.77966797 6.67787109 73.77966797 6.67787109 74.28466797 8.19287109 C74.94466797 8.19287109 75.60466797 8.19287109 76.28466797 8.19287109 C77.27466797 11.16287109 77.27466797 11.16287109 78.28466797 14.19287109 C78.94466797 14.19287109 79.60466797 14.19287109 80.28466797 14.19287109 C80.68685547 12.73880859 80.68685547 12.73880859 81.09716797 11.25537109 C81.48904297 10.24474609 81.88091797 9.23412109 82.28466797 8.19287109 C83.27466797 7.86287109 84.26466797 7.53287109 85.28466797 7.19287109 C85.65591797 6.26474609 85.65591797 6.26474609 86.03466797 5.31787109 C87.91318948 2.12438452 90.8890184 1.27050621 94.28466797 0.19287109 C97.76132202 -0.20153809 97.76132202 -0.20153809 101.45410156 -0.22705078 C102.13317062 -0.23552032 102.81223969 -0.24398987 103.5118866 -0.25271606 C105.73582171 -0.27593524 107.95905879 -0.27711187 110.18310547 -0.27587891 C111.74338043 -0.28298994 113.30365281 -0.29069031 114.86392212 -0.2989502 C118.12696611 -0.31236059 121.38976829 -0.31397952 124.65283203 -0.30810547 C128.81449259 -0.30221436 132.97498452 -0.33279121 137.1364193 -0.37322235 C140.35714869 -0.39919507 143.57760029 -0.40196815 146.79841995 -0.39833069 C148.33169108 -0.4000132 149.86497625 -0.40957133 151.39814377 -0.42747498 C159.98629085 -0.51673251 167.31648917 -0.41311803 174.28466797 5.19287109 C179.24674411 10.27899913 179.40848673 14.31395527 179.44580078 21.23706055 C179.45076569 21.93841125 179.45573059 22.63976196 179.46084595 23.36236572 C179.47542121 25.67697134 179.48226197 27.99150842 179.48779297 30.30615234 C179.49354844 31.92034404 179.49930613 33.53453573 179.50506592 35.14872742 C179.51556286 38.53217893 179.521414 41.91560677 179.52490234 45.29907227 C179.5303829 49.62323491 179.55440693 53.94708202 179.5828743 58.27114582 C179.60154753 61.60583902 179.60670877 64.94045693 179.60823822 68.27519798 C179.61125495 69.86872265 179.61925024 71.4622463 179.6324234 73.05571938 C179.64958184 75.29088609 179.64758023 77.52529123 179.64111328 79.76049805 C179.64658173 81.66434013 179.64658173 81.66434013 179.65216064 83.60664368 C179.09961334 88.99875197 177.40056554 93.99353281 173.18554688 97.58496094 C166.69868271 102.01522547 158.4013195 101.0103479 150.87060547 100.91943359 C149.17005414 100.91839488 147.46950039 100.91943614 145.76895142 100.92245483 C142.21653073 100.92227603 138.6650239 100.90154841 135.11279297 100.86523438 C130.56868023 100.81979019 126.02589653 100.81879024 121.48161888 100.83226967 C117.97443915 100.83896371 114.46756034 100.82566354 110.96043777 100.8060112 C109.28517864 100.79833691 107.60988596 100.79599842 105.93461227 100.79918289 C103.59150522 100.7999279 101.25007983 100.77459167 98.90722656 100.7421875 C98.22135971 100.74714233 97.53549286 100.75209717 96.82884216 100.75720215 C91.89877273 100.64882527 89.10088754 99.24488587 85.28466797 96.19287109 C83.38623047 93.83349609 83.38623047 93.83349609 81.90966797 91.44287109 C81.40693359 90.64365234 80.90419922 89.84443359 80.38623047 89.02099609 C80.02271484 88.41771484 79.65919922 87.81443359 79.28466797 87.19287109 C79.00494141 87.71236328 78.72521484 88.23185547 78.43701172 88.76708984 C78.03611328 89.46447266 77.63521484 90.16185547 77.22216797 90.88037109 C76.83931641 91.56486328 76.45646484 92.24935547 76.06201172 92.95458984 C72.65497947 97.24520408 69.01019435 99.89453378 63.57350159 100.83451843 C62.23223208 100.86679497 60.89013645 100.87252499 59.54858398 100.85571289 C58.43978882 100.87126472 58.43978882 100.87126472 57.30859375 100.88713074 C54.88467587 100.91405634 52.46258602 100.90457102 50.03857422 100.89208984 C48.34137981 100.89800492 46.64418957 100.90525423 44.94700623 100.91377258 C41.39714755 100.92562787 37.84791685 100.91898772 34.2980957 100.8996582 C29.76394157 100.87678308 25.231663 100.90354733 20.69769382 100.94472027 C17.19471153 100.97037932 13.69217314 100.9676964 10.18913078 100.95682716 C8.51828242 100.95534701 6.84739893 100.96295459 5.17663765 100.98007774 C-10.51924629 101.11483661 -10.51924629 101.11483661 -16.28334045 95.96687317 C-20.10469039 91.23284902 -21.156358 87.67669223 -21.10351562 81.63623047 C-21.10877258 80.89250687 -21.11402954 80.14878326 -21.1194458 79.38252258 C-21.1326075 76.93367265 -21.12392164 74.4854772 -21.11376953 72.03662109 C-21.11579138 70.32938513 -21.11870374 68.62215001 -21.12246704 66.91491699 C-21.12688519 63.34065511 -21.1204758 59.76661847 -21.10644531 56.19238281 C-21.08935364 51.61578186 -21.09919756 47.03970874 -21.1171627 42.46312714 C-21.12801434 38.9389042 -21.12454789 35.41480596 -21.11677933 31.89057922 C-21.11478113 30.20331255 -21.11722322 28.51603448 -21.12421799 26.82878113 C-21.13185531 24.46872052 -21.1201971 22.10950923 -21.10351562 19.74951172 C-21.10958832 19.05533646 -21.11566101 18.36116119 -21.12191772 17.64595032 C-21.06543916 13.3227517 -20.30421011 10.65922175 -17.71533203 7.19287109 C-15.77783203 5.42724609 -15.77783203 5.42724609 -13.71533203 3.94287109 C-13.03470703 3.44271484 -12.35408203 2.94255859 -11.65283203 2.42724609 C-7.81070647 -0.0205597 -4.44851823 0.04660676 0 0 Z " fill="#FDFDFD" transform="translate(20.71533203125,99.80712890625)"/>
<path d="M0 0 C1.76636862 0.00851358 3.53275969 0.01315885 5.29914856 0.01412964 C8.9875041 0.02641578 12.6734085 0.07158584 16.36108398 0.14306641 C21.07900689 0.23381334 25.79472307 0.26313088 30.51343822 0.27054024 C34.1553964 0.2794111 37.79689552 0.31003849 41.43865395 0.3482933 C43.17808593 0.36599803 44.9175663 0.37948685 46.65706444 0.38861465 C49.08885771 0.40677692 51.51869323 0.45160601 53.94995117 0.50439453 C54.66229919 0.50572388 55.37464722 0.50705322 56.10858154 0.50842285 C61.10110525 0.65744443 63.9642312 2.01464268 67.83203125 5.1171875 C69.51171875 7.2578125 69.51171875 7.2578125 70.70703125 9.3671875 C71.11695312 10.07359375 71.526875 10.78 71.94921875 11.5078125 C72.24054688 12.03890625 72.531875 12.57 72.83203125 13.1171875 C73.40953125 12.0653125 73.98703125 11.0134375 74.58203125 9.9296875 C75.29219665 8.63617195 76.0484217 7.36757681 76.83203125 6.1171875 C77.35136734 5.26387848 77.87070343 4.41056946 78.40577698 3.53140259 C81.17952914 0.77141391 82.75935952 0.51644434 86.60491943 0.43954468 C87.749758 0.45472641 87.749758 0.45472641 88.91772461 0.47021484 C89.72957718 0.46145325 90.54142975 0.45269165 91.37788391 0.44366455 C94.05975912 0.42167029 96.73998323 0.43622389 99.421875 0.453125 C101.28748389 0.44975652 103.15309064 0.44490364 105.01869202 0.43862915 C108.92860814 0.43125754 112.83795303 0.44197128 116.74780273 0.46533203 C121.75629953 0.49380038 126.7634556 0.47743021 131.77190304 0.44746971 C135.62474132 0.42938759 139.47726264 0.43515927 143.33011055 0.44810867 C145.17647015 0.45144119 147.02285864 0.44736102 148.86918449 0.43571091 C151.45254386 0.42298903 154.03374451 0.44239674 156.61694336 0.47021484 C157.75874557 0.45503311 157.75874557 0.45503311 158.9236145 0.43954468 C162.71927054 0.51514406 164.61661152 0.95211779 167.65797424 3.28262329 C171.79536057 8.67700218 173.20733166 12.57433554 173.22021484 19.38842773 C173.22810028 20.44089188 173.22810028 20.44089188 173.23614502 21.51461792 C173.24927636 23.81857002 173.24063091 26.12182293 173.23046875 28.42578125 C173.2324917 30.0371158 173.23540498 31.64844945 173.23916626 33.25978088 C173.2435805 36.63136541 173.2371886 40.00271092 173.22314453 43.37426758 C173.2060668 47.68273456 173.21589033 51.99064024 173.23386192 56.29908657 C173.24473599 59.6252307 173.24123664 62.9512432 173.23347855 66.27739143 C173.23148582 67.86531708 173.23390303 69.4532549 173.24091721 71.04116631 C173.24859022 73.26661401 173.23684666 75.49117087 173.22021484 77.71655273 C173.21782806 78.97974838 173.21544128 80.24294403 173.21298218 81.54441833 C172.71790646 86.18751313 171.47185619 90.20624483 168.3671875 93.82421875 C162.82286177 97.98613966 159.78194371 99.3664116 152.77197266 99.3918457 C152.06901566 99.39695663 151.36605865 99.40206757 150.64179993 99.40733337 C148.32231079 99.42121183 146.00311943 99.42027376 143.68359375 99.41796875 C142.06700531 99.42185707 140.45041789 99.42619202 138.83383179 99.43095398 C135.44615365 99.43841273 132.05857973 99.43812774 128.67089844 99.43286133 C124.33764105 99.4270716 120.00481177 99.44398711 115.67162514 99.467206 C112.33266725 99.48196647 108.99381186 99.48281183 105.65482712 99.47969627 C104.05769377 99.48020847 102.46055453 99.48542714 100.86345291 99.49550819 C98.62564877 99.50789851 96.38867065 99.50106582 94.15087891 99.48950195 C92.87943024 99.49013138 91.60798157 99.4907608 90.29800415 99.4914093 C84.46513005 98.86163269 80.71085729 96.51260947 77.01953125 92.0546875 C76.43558594 91.36246094 75.85164063 90.67023438 75.25 89.95703125 C73.83203125 88.1171875 73.83203125 88.1171875 72.83203125 86.1171875 C72.52910156 86.64828125 72.22617188 87.179375 71.9140625 87.7265625 C68.56623762 93.3715103 65.07838833 97.61474541 58.83203125 100.1171875 C55.62675476 100.38461304 55.62675476 100.38461304 51.7878418 100.40771484 C51.08649109 100.41443207 50.38514038 100.42114929 49.66253662 100.42807007 C47.34786864 100.44704055 45.03349085 100.45097397 42.71875 100.453125 C41.10455711 100.45955443 39.49036538 100.4662829 37.87617493 100.47329712 C34.49269918 100.48526809 31.10932551 100.48897822 27.72583008 100.48779297 C23.40153403 100.48758998 19.07789665 100.51487173 14.75375652 100.54933739 C11.41904222 100.57163627 8.08448557 100.57562958 4.74970436 100.57457352 C3.15617418 100.57692576 1.5626394 100.58572807 -0.03081703 100.60123825 C-2.26620437 100.62095658 -4.500183 100.6150385 -6.7355957 100.60302734 C-8.00482376 100.60587738 -9.27405182 100.60872742 -10.58174133 100.61166382 C-16.13362535 99.84615878 -20.83402525 97.23956584 -24.54907227 92.94677734 C-28.97905646 86.54172595 -28.09183783 78.31652494 -28.0703125 70.84375 C-28.0819926 69.15277165 -28.09500054 67.461802 -28.10926819 65.77084351 C-28.13158323 62.23528454 -28.13083589 58.70062456 -28.11499023 55.16503906 C-28.09761589 50.65614292 -28.14838798 46.15094837 -28.21802425 41.64266396 C-28.26244165 38.15238304 -28.26482488 34.66297981 -28.25549507 31.17246628 C-28.25702474 29.51158697 -28.27255063 27.85065417 -28.30293083 26.19005203 C-28.42611999 18.51524781 -28.42090348 11.56719089 -23.73535156 5.09082031 C-17.01305389 -1.10916892 -8.55827993 -0.20657553 0 0 Z " fill="#820659" transform="translate(27.16796875,-1.1171875)"/>
<path d="M0 0 C0.65725571 -0.00175232 1.31451141 -0.00350464 1.99168396 -0.00531006 C4.16383507 -0.00971033 6.3359047 -0.00679666 8.50805664 -0.00341797 C10.01876338 -0.00409161 11.52947002 -0.00506215 13.04017639 -0.00631714 C16.20680778 -0.00779171 19.37341096 -0.00564758 22.54003906 -0.00097656 C26.59649118 0.0047157 30.65287706 0.00144339 34.70932674 -0.00454903 C37.82943723 -0.00816529 40.94953206 -0.00701106 44.06964302 -0.00442123 C45.56515066 -0.00375466 47.06065972 -0.00457096 48.5561657 -0.00690079 C50.64815908 -0.00944423 52.74004579 -0.00556264 54.83203125 0 C56.02211288 0.00079559 57.21219452 0.00159119 58.43833923 0.00241089 C60.98276689 0.10861109 63.06326307 0.3788697 65.48071289 1.12939453 C65.48071289 1.78939453 65.48071289 2.44939453 65.48071289 3.12939453 C66.05821289 3.33564453 66.63571289 3.54189453 67.23071289 3.75439453 C70.40376727 5.69348332 71.65569946 7.90445525 73.48071289 11.12939453 C73.99537659 14.41659546 73.99537659 14.41659546 74.01416016 18.01757812 C74.02708351 19.0091114 74.02708351 19.0091114 74.04026794 20.02067566 C74.06283582 22.19013452 74.05620595 24.35829154 74.04711914 26.52783203 C74.05235976 28.04709249 74.05863784 29.56634968 74.06590271 31.08560181 C74.07629059 34.26474348 74.07177047 37.44343714 74.05712891 40.62255859 C74.03996368 44.68015421 74.06341485 48.73633067 74.09861851 52.79376793 C74.12067073 55.93042233 74.119132 59.06674143 74.1108532 62.20344925 C74.11003754 63.69845763 74.11682675 65.1934916 74.13162422 66.68842697 C74.24830977 80.61233037 74.24830977 80.61233037 70.23594666 86.63711548 C65.53353935 90.63504673 60.36381393 91.50840604 54.37133789 91.56518555 C53.69880981 91.57526138 53.02628174 91.58533722 52.33337402 91.59571838 C50.1323134 91.62398382 47.93194315 91.63006291 45.73071289 91.63330078 C44.18806689 91.64295386 42.64542359 91.65304722 41.1027832 91.66355896 C37.87843458 91.68146449 34.65432643 91.68708549 31.42993164 91.68530273 C27.31049888 91.6849975 23.19261322 91.72601565 19.07354736 91.77761936 C15.8906351 91.81106497 12.70809437 91.81705795 9.52502441 91.81547356 C8.00682218 91.81899871 6.48860879 91.83218448 4.97058105 91.85547066 C-8.33701443 92.04057352 -8.33701443 92.04057352 -12.81616211 88.46118164 C-17.33433664 83.86403723 -18.89299802 78.75222402 -18.93920898 72.42480469 C-18.95512085 71.10968903 -18.97103271 69.79457336 -18.98742676 68.43960571 C-18.98869423 67.01589004 -18.98887074 65.59217303 -18.98803711 64.16845703 C-18.99514651 62.69403802 -19.00284664 61.21962175 -19.0111084 59.74520874 C-19.02452594 56.66030176 -19.02613461 53.57565057 -19.02026367 50.49072266 C-19.014373 46.55422972 -19.04494363 42.61897246 -19.08538055 38.68271828 C-19.1113415 35.63873788 -19.11412741 32.59505163 -19.11048889 29.5509758 C-19.11217264 28.10060906 -19.12174293 26.65022762 -19.13963318 25.19997025 C-19.22809934 17.14181706 -19.21698281 10.37667967 -13.51928711 4.12939453 C-9.29162811 0.27476427 -5.58505147 0.00373622 0 0 Z " fill="#010101" transform="translate(122.519287109375,2.87060546875)"/>
<path d="M0 0 C1.56745563 0.00358143 3.13491779 0.00493361 4.70237732 0.00416565 C7.97834932 0.00884369 11.25333007 0.03358076 14.52905273 0.07397461 C18.71771858 0.12498636 22.90529909 0.13641548 27.09423923 0.13413906 C30.32775641 0.13495665 33.56103867 0.151439 36.79447746 0.17314339 C38.3385535 0.18265529 39.882656 0.18859431 41.42675972 0.19082451 C43.58777894 0.19736532 45.74767226 0.22369839 47.90844727 0.25561523 C49.13531754 0.26705063 50.36218781 0.27848602 51.62623596 0.29026794 C56.63364073 0.88633519 59.89376999 2.49970489 63.30859375 6.19140625 C66.04242229 10.2415226 66.13309657 13.36391369 66.1730957 18.1472168 C66.1796669 18.79804733 66.1862381 19.44887787 66.19300842 20.11943054 C66.21270923 22.27232996 66.22439884 24.4251596 66.234375 26.578125 C66.23845053 27.31560282 66.24252605 28.05308064 66.24672508 28.81290627 C66.2675755 32.7189366 66.28187973 36.62493194 66.29125977 40.53100586 C66.3023018 44.55141982 66.33667841 48.57127689 66.37643147 52.59149456 C66.40267196 55.69461544 66.4109583 58.79760535 66.41454124 61.90082741 C66.41939072 63.38190266 66.43095772 64.86297271 66.44957924 66.34393883 C66.64032635 82.52411924 66.64032635 82.52411924 61.99609375 87.69140625 C55.62781641 93.38766017 46.54476661 92.25512454 38.55078125 92.1875 C37.05201141 92.18765522 35.55324118 92.189148 34.05447388 92.19190979 C30.9259448 92.19328852 27.79787713 92.18082207 24.66943359 92.15795898 C20.67028104 92.12952609 16.67189126 92.13233185 12.67268181 92.1450491 C9.58246401 92.15201976 6.49242097 92.14420208 3.40222549 92.13179207 C1.92791541 92.12729449 0.45358646 92.12692589 -1.02072525 92.13085747 C-3.08337848 92.13378479 -5.14499744 92.11719442 -7.20751953 92.09545898 C-8.37807892 92.090056 -9.54863831 92.08465302 -10.75466919 92.0790863 C-15.94914057 91.45931221 -19.12942846 89.54190411 -22.84399414 85.92919922 C-26.5284618 80.27526438 -25.65811514 73.37632656 -25.5625 66.88671875 C-25.55824198 65.43855212 -25.55592044 63.99037862 -25.55543518 62.54220581 C-25.54928821 59.5143108 -25.52668596 56.48716088 -25.4909668 53.45947266 C-25.44577737 49.60080295 -25.43094333 45.74280771 -25.42722988 41.88389778 C-25.42277469 38.89478044 -25.40742317 35.90580114 -25.38835335 32.91674423 C-25.37954466 31.49515784 -25.37277959 30.07355712 -25.36819267 28.65195084 C-25.27630593 8.62992054 -25.27630593 8.62992054 -20.37915039 3.17211914 C-14.59068216 -1.13667835 -6.87607568 -0.10372671 0 0 Z " fill="#000000" transform="translate(29.00390625,104.30859375)"/>
<path d="M0 0 C0.67848495 -0.00817749 1.35696991 -0.01635498 2.05601501 -0.02478027 C4.30149467 -0.0495894 6.54691107 -0.06614279 8.79248047 -0.08056641 C9.56180782 -0.08589008 10.33113518 -0.09121376 11.12377548 -0.09669876 C15.19953158 -0.12341678 19.27525726 -0.14279196 23.35107422 -0.15722656 C26.7130063 -0.17053889 30.07432754 -0.19834221 33.43603516 -0.23925781 C37.50499989 -0.28877505 41.57341274 -0.31337119 45.64266586 -0.32045364 C47.18713278 -0.32713602 48.73158885 -0.34227905 50.27588272 -0.36634445 C66.95081218 -0.61127556 66.95081218 -0.61127556 73.28466797 5.19287109 C73.77966797 6.67787109 73.77966797 6.67787109 74.28466797 8.19287109 C74.94466797 8.19287109 75.60466797 8.19287109 76.28466797 8.19287109 C77.27466797 11.16287109 77.27466797 11.16287109 78.28466797 14.19287109 C78.94466797 14.19287109 79.60466797 14.19287109 80.28466797 14.19287109 C80.68685547 12.73880859 80.68685547 12.73880859 81.09716797 11.25537109 C81.48904297 10.24474609 81.88091797 9.23412109 82.28466797 8.19287109 C83.27466797 7.86287109 84.26466797 7.53287109 85.28466797 7.19287109 C85.65591797 6.26474609 85.65591797 6.26474609 86.03466797 5.31787109 C87.91318948 2.12438452 90.8890184 1.27050621 94.28466797 0.19287109 C97.76132202 -0.20153809 97.76132202 -0.20153809 101.45410156 -0.22705078 C102.13317062 -0.23552032 102.81223969 -0.24398987 103.5118866 -0.25271606 C105.73582171 -0.27593524 107.95905879 -0.27711187 110.18310547 -0.27587891 C111.74338043 -0.28298994 113.30365281 -0.29069031 114.86392212 -0.2989502 C118.12696611 -0.31236059 121.38976829 -0.31397952 124.65283203 -0.30810547 C128.81449259 -0.30221436 132.97498452 -0.33279121 137.1364193 -0.37322235 C140.35714869 -0.39919507 143.57760029 -0.40196815 146.79841995 -0.39833069 C148.33169108 -0.4000132 149.86497625 -0.40957133 151.39814377 -0.42747498 C159.98629085 -0.51673251 167.31648917 -0.41311803 174.28466797 5.19287109 C179.24674411 10.27899913 179.40848673 14.31395527 179.44580078 21.23706055 C179.45076569 21.93841125 179.45573059 22.63976196 179.46084595 23.36236572 C179.47542121 25.67697134 179.48226197 27.99150842 179.48779297 30.30615234 C179.49354844 31.92034404 179.49930613 33.53453573 179.50506592 35.14872742 C179.51556286 38.53217893 179.521414 41.91560677 179.52490234 45.29907227 C179.5303829 49.62323491 179.55440693 53.94708202 179.5828743 58.27114582 C179.60154753 61.60583902 179.60670877 64.94045693 179.60823822 68.27519798 C179.61125495 69.86872265 179.61925024 71.4622463 179.6324234 73.05571938 C179.64958184 75.29088609 179.64758023 77.52529123 179.64111328 79.76049805 C179.64658173 81.66434013 179.64658173 81.66434013 179.65216064 83.60664368 C179.09961334 88.99875197 177.40056554 93.99353281 173.18554688 97.58496094 C166.69868271 102.01522547 158.4013195 101.0103479 150.87060547 100.91943359 C149.17005414 100.91839488 147.46950039 100.91943614 145.76895142 100.92245483 C142.21653073 100.92227603 138.6650239 100.90154841 135.11279297 100.86523438 C130.56868023 100.81979019 126.02589653 100.81879024 121.48161888 100.83226967 C117.97443915 100.83896371 114.46756034 100.82566354 110.96043777 100.8060112 C109.28517864 100.79833691 107.60988596 100.79599842 105.93461227 100.79918289 C103.59150522 100.7999279 101.25007983 100.77459167 98.90722656 100.7421875 C98.22135971 100.74714233 97.53549286 100.75209717 96.82884216 100.75720215 C91.89877273 100.64882527 89.10088754 99.24488587 85.28466797 96.19287109 C83.38623047 93.83349609 83.38623047 93.83349609 81.90966797 91.44287109 C81.40693359 90.64365234 80.90419922 89.84443359 80.38623047 89.02099609 C80.02271484 88.41771484 79.65919922 87.81443359 79.28466797 87.19287109 C79.00494141 87.71236328 78.72521484 88.23185547 78.43701172 88.76708984 C78.03611328 89.46447266 77.63521484 90.16185547 77.22216797 90.88037109 C76.83931641 91.56486328 76.45646484 92.24935547 76.06201172 92.95458984 C72.65497947 97.24520408 69.01019435 99.89453378 63.57350159 100.83451843 C62.23223208 100.86679497 60.89013645 100.87252499 59.54858398 100.85571289 C58.43978882 100.87126472 58.43978882 100.87126472 57.30859375 100.88713074 C54.88467587 100.91405634 52.46258602 100.90457102 50.03857422 100.89208984 C48.34137981 100.89800492 46.64418957 100.90525423 44.94700623 100.91377258 C41.39714755 100.92562787 37.84791685 100.91898772 34.2980957 100.8996582 C29.76394157 100.87678308 25.231663 100.90354733 20.69769382 100.94472027 C17.19471153 100.97037932 13.69217314 100.9676964 10.18913078 100.95682716 C8.51828242 100.95534701 6.84739893 100.96295459 5.17663765 100.98007774 C-10.51924629 101.11483661 -10.51924629 101.11483661 -16.28334045 95.96687317 C-20.10469039 91.23284902 -21.156358 87.67669223 -21.10351562 81.63623047 C-21.10877258 80.89250687 -21.11402954 80.14878326 -21.1194458 79.38252258 C-21.1326075 76.93367265 -21.12392164 74.4854772 -21.11376953 72.03662109 C-21.11579138 70.32938513 -21.11870374 68.62215001 -21.12246704 66.91491699 C-21.12688519 63.34065511 -21.1204758 59.76661847 -21.10644531 56.19238281 C-21.08935364 51.61578186 -21.09919756 47.03970874 -21.1171627 42.46312714 C-21.12801434 38.9389042 -21.12454789 35.41480596 -21.11677933 31.89057922 C-21.11478113 30.20331255 -21.11722322 28.51603448 -21.12421799 26.82878113 C-21.13185531 24.46872052 -21.1201971 22.10950923 -21.10351562 19.74951172 C-21.10958832 19.05533646 -21.11566101 18.36116119 -21.12191772 17.64595032 C-21.06543916 13.3227517 -20.30421011 10.65922175 -17.71533203 7.19287109 C-15.77783203 5.42724609 -15.77783203 5.42724609 -13.71533203 3.94287109 C-13.03470703 3.44271484 -12.35408203 2.94255859 -11.65283203 2.42724609 C-7.81070647 -0.0205597 -4.44851823 0.04660676 0 0 Z M-13.59185791 9.33984375 C-18.16980092 16.89057715 -17.07549438 26.71600902 -17.12158203 35.22802734 C-17.12723679 35.9379376 -17.13289154 36.64784786 -17.13871765 37.37927055 C-17.16850786 41.12973341 -17.18709333 44.880046 -17.19580078 48.63061523 C-17.20679878 52.48307014 -17.25496389 56.33412151 -17.31174469 60.18613529 C-17.34913363 63.17089307 -17.35941525 66.1553153 -17.36247253 69.1402874 C-17.36848715 70.55999945 -17.3844138 71.97970832 -17.4108429 73.39918709 C-17.54237906 81.00040159 -17.5321735 86.79308542 -12.49304199 92.77146912 C-8.29590147 96.12737304 -4.28133867 96.44927844 0.9675293 96.48339844 C1.61865189 96.49011566 2.26977448 96.49683289 2.94062805 96.50375366 C5.08273048 96.5226746 7.22451853 96.52665499 9.36669922 96.52880859 C10.86496608 96.53524134 12.3632317 96.54197005 13.86149597 96.54898071 C16.99940907 96.56093921 20.13721221 96.56466309 23.27514648 96.56347656 C27.27985117 96.56327361 31.2838443 96.59055649 35.28838062 96.62502098 C38.38294153 96.64735125 41.47733297 96.65131222 44.57196617 96.65025711 C46.04744604 96.6526046 47.52293119 96.6613798 48.99833107 96.67692184 C60.41604445 97.1067424 60.41604445 97.1067424 70.28466797 92.19287109 C75.98156346 85.82576021 74.84837995 76.74079828 74.78076172 68.74755859 C74.78091694 67.24878876 74.78240972 65.75001852 74.78517151 64.25125122 C74.78655024 61.12272215 74.77408378 57.99465447 74.7512207 54.86621094 C74.72278781 50.86705839 74.72559357 46.86866861 74.73831081 42.86945915 C74.74528148 39.77924135 74.7374638 36.68919831 74.72505379 33.59900284 C74.72055621 32.12469275 74.72018761 30.6503638 74.72411919 29.17605209 C74.72704651 27.11339887 74.71045614 25.0517799 74.6887207 22.98925781 C74.68061623 21.23341873 74.68061623 21.23341873 74.67234802 19.44210815 C74.0825834 14.4991531 72.4257045 11.24832988 68.78466797 7.88037109 C64.65746855 5.09451148 61.41599449 5.04692002 56.53759766 4.98413086 C55.85590012 4.97434708 55.17420258 4.96456329 54.47184753 4.95448303 C52.21676572 4.92458062 49.96174305 4.90315692 47.70654297 4.88427734 C46.93471931 4.87770552 46.16289566 4.87113369 45.36768341 4.86436272 C41.28127372 4.83179 37.19488987 4.80733537 33.10839844 4.7878418 C29.73268557 4.77003938 26.35780976 4.73523523 22.98242188 4.68530273 C18.90046952 4.62499465 14.81929222 4.59435212 10.73691559 4.58466911 C9.18518297 4.57613063 7.63347018 4.55735182 6.0819931 4.52792549 C-4.74812276 3.99308439 -4.74812276 3.99308439 -13.59185791 9.33984375 Z M88.45381165 11.51281738 C85.55851126 15.67334979 85.02764601 18.58963365 84.99414062 23.70214844 C84.9874234 24.34658401 84.98070618 24.99101959 84.9737854 25.65498352 C84.95482979 27.7796709 84.95088248 29.90404198 84.94873047 32.02880859 C84.94230068 33.51087574 84.93557218 34.99294161 84.92855835 36.4750061 C84.9165916 39.58020977 84.91287688 42.68530225 84.9140625 45.79052734 C84.91426563 49.76070882 84.88696839 53.73017396 84.85251808 57.70018578 C84.83023023 60.76121262 84.82622553 63.8220676 84.82728195 66.88316727 C84.82492864 68.34634494 84.81612021 69.80952754 84.80061722 71.27262497 C84.78091779 73.323855 84.78680851 75.37354744 84.79882812 77.42480469 C84.79597809 78.589664 84.79312805 79.75452332 84.79019165 80.9546814 C85.54040753 85.86763929 88.37664177 90.09901702 92.28466797 93.19287109 C95.77589106 94.3604227 99.13415664 94.33252215 102.79394531 94.35400391 C103.43838089 94.35896881 104.08281647 94.36393372 104.7467804 94.36904907 C106.87139975 94.38361284 108.99594447 94.39046263 111.12060547 94.39599609 C112.60267131 94.40175189 114.08473715 94.40750957 115.56680298 94.41326904 C118.67198024 94.42376227 121.77713173 94.42961604 124.88232422 94.43310547 C128.85236056 94.43858965 132.82205385 94.46262282 136.79198265 94.49107742 C139.85298648 94.5097414 142.91390823 94.51491137 145.97496414 94.51644135 C147.43813581 94.51945944 148.90130631 94.52745944 150.36442184 94.54062653 C152.41541096 94.5577682 154.465569 94.5557878 156.51660156 94.54931641 C158.26389053 94.55478485 158.26389053 94.55478485 160.04647827 94.56036377 C163.7349141 94.14177398 166.12545045 93.11624701 169.28466797 91.19287109 C171.12901146 88.73171563 171.12901146 88.73171563 172.28466797 86.19287109 C172.61466797 85.53287109 172.94466797 84.87287109 173.28466797 84.19287109 C173.40208384 82.07576492 173.4544794 79.95495105 173.47753906 77.8347168 C173.48571655 77.18242599 173.49389404 76.53013519 173.50231934 75.858078 C173.52717053 73.69494542 173.54369185 71.53187864 173.55810547 69.36865234 C173.56609098 68.25918778 173.56609098 68.25918778 173.57423782 67.1273098 C173.60097308 63.20947684 173.62034341 59.29167573 173.63476562 55.3737793 C173.64808604 52.13683696 173.67590145 48.90052787 173.71679688 45.66381836 C173.76622594 41.75162466 173.79089953 37.84000383 173.79799271 33.92751122 C173.80468925 32.4400018 173.81986984 30.95250436 173.84388351 29.46517372 C174.24035609 20.24028429 174.24035609 20.24028429 171.00195312 11.84985352 C166.55914232 7.50563878 163.71210154 6.9403315 157.51586914 6.87060547 C156.84377914 6.86067566 156.17168915 6.85074585 155.47923279 6.84051514 C153.26199198 6.81137335 151.04503735 6.79768533 148.82763672 6.78662109 C147.28070574 6.7751093 145.7337748 6.76359394 144.18684387 6.7520752 C140.94461747 6.73108378 137.70248983 6.71938006 134.46020508 6.71240234 C130.31720629 6.70144122 126.17552501 6.65339752 122.03293896 6.59645844 C118.83718627 6.55910137 115.6417476 6.54878911 112.44579506 6.54573059 C110.91920078 6.53969912 109.39261062 6.52371443 107.86623192 6.49736023 C97.19773277 6.1108997 97.19773277 6.1108997 88.45381165 11.51281738 Z " fill="#E6E6E6" transform="translate(20.71533203125,99.80712890625)"/>
<path d="M0 0 C1.76636862 0.00851358 3.53275969 0.01315885 5.29914856 0.01412964 C8.9875041 0.02641578 12.6734085 0.07158584 16.36108398 0.14306641 C21.07900689 0.23381334 25.79472307 0.26313088 30.51343822 0.27054024 C34.1553964 0.2794111 37.79689552 0.31003849 41.43865395 0.3482933 C43.17808593 0.36599803 44.9175663 0.37948685 46.65706444 0.38861465 C49.08885771 0.40677692 51.51869323 0.45160601 53.94995117 0.50439453 C54.66229919 0.50572388 55.37464722 0.50705322 56.10858154 0.50842285 C61.10110525 0.65744443 63.9642312 2.01464268 67.83203125 5.1171875 C69.51171875 7.2578125 69.51171875 7.2578125 70.70703125 9.3671875 C71.11695312 10.07359375 71.526875 10.78 71.94921875 11.5078125 C72.24054688 12.03890625 72.531875 12.57 72.83203125 13.1171875 C73.40953125 12.0653125 73.98703125 11.0134375 74.58203125 9.9296875 C75.29219665 8.63617195 76.0484217 7.36757681 76.83203125 6.1171875 C77.35136734 5.26387848 77.87070343 4.41056946 78.40577698 3.53140259 C81.17952914 0.77141391 82.75935952 0.51644434 86.60491943 0.43954468 C87.749758 0.45472641 87.749758 0.45472641 88.91772461 0.47021484 C89.72957718 0.46145325 90.54142975 0.45269165 91.37788391 0.44366455 C94.05975912 0.42167029 96.73998323 0.43622389 99.421875 0.453125 C101.28748389 0.44975652 103.15309064 0.44490364 105.01869202 0.43862915 C108.92860814 0.43125754 112.83795303 0.44197128 116.74780273 0.46533203 C121.75629953 0.49380038 126.7634556 0.47743021 131.77190304 0.44746971 C135.62474132 0.42938759 139.47726264 0.43515927 143.33011055 0.44810867 C145.17647015 0.45144119 147.02285864 0.44736102 148.86918449 0.43571091 C151.45254386 0.42298903 154.03374451 0.44239674 156.61694336 0.47021484 C157.75874557 0.45503311 157.75874557 0.45503311 158.9236145 0.43954468 C162.71927054 0.51514406 164.61661152 0.95211779 167.65797424 3.28262329 C171.79536057 8.67700218 173.20733166 12.57433554 173.22021484 19.38842773 C173.22810028 20.44089188 173.22810028 20.44089188 173.23614502 21.51461792 C173.24927636 23.81857002 173.24063091 26.12182293 173.23046875 28.42578125 C173.2324917 30.0371158 173.23540498 31.64844945 173.23916626 33.25978088 C173.2435805 36.63136541 173.2371886 40.00271092 173.22314453 43.37426758 C173.2060668 47.68273456 173.21589033 51.99064024 173.23386192 56.29908657 C173.24473599 59.6252307 173.24123664 62.9512432 173.23347855 66.27739143 C173.23148582 67.86531708 173.23390303 69.4532549 173.24091721 71.04116631 C173.24859022 73.26661401 173.23684666 75.49117087 173.22021484 77.71655273 C173.21782806 78.97974838 173.21544128 80.24294403 173.21298218 81.54441833 C172.71790646 86.18751313 171.47185619 90.20624483 168.3671875 93.82421875 C162.82286177 97.98613966 159.78194371 99.3664116 152.77197266 99.3918457 C152.06901566 99.39695663 151.36605865 99.40206757 150.64179993 99.40733337 C148.32231079 99.42121183 146.00311943 99.42027376 143.68359375 99.41796875 C142.06700531 99.42185707 140.45041789 99.42619202 138.83383179 99.43095398 C135.44615365 99.43841273 132.05857973 99.43812774 128.67089844 99.43286133 C124.33764105 99.4270716 120.00481177 99.44398711 115.67162514 99.467206 C112.33266725 99.48196647 108.99381186 99.48281183 105.65482712 99.47969627 C104.05769377 99.48020847 102.46055453 99.48542714 100.86345291 99.49550819 C98.62564877 99.50789851 96.38867065 99.50106582 94.15087891 99.48950195 C92.87943024 99.49013138 91.60798157 99.4907608 90.29800415 99.4914093 C84.46513005 98.86163269 80.71085729 96.51260947 77.01953125 92.0546875 C76.43558594 91.36246094 75.85164063 90.67023438 75.25 89.95703125 C73.83203125 88.1171875 73.83203125 88.1171875 72.83203125 86.1171875 C72.52910156 86.64828125 72.22617188 87.179375 71.9140625 87.7265625 C68.56623762 93.3715103 65.07838833 97.61474541 58.83203125 100.1171875 C55.62675476 100.38461304 55.62675476 100.38461304 51.7878418 100.40771484 C51.08649109 100.41443207 50.38514038 100.42114929 49.66253662 100.42807007 C47.34786864 100.44704055 45.03349085 100.45097397 42.71875 100.453125 C41.10455711 100.45955443 39.49036538 100.4662829 37.87617493 100.47329712 C34.49269918 100.48526809 31.10932551 100.48897822 27.72583008 100.48779297 C23.40153403 100.48758998 19.07789665 100.51487173 14.75375652 100.54933739 C11.41904222 100.57163627 8.08448557 100.57562958 4.74970436 100.57457352 C3.15617418 100.57692576 1.5626394 100.58572807 -0.03081703 100.60123825 C-2.26620437 100.62095658 -4.500183 100.6150385 -6.7355957 100.60302734 C-8.00482376 100.60587738 -9.27405182 100.60872742 -10.58174133 100.61166382 C-16.13362535 99.84615878 -20.83402525 97.23956584 -24.54907227 92.94677734 C-28.97905646 86.54172595 -28.09183783 78.31652494 -28.0703125 70.84375 C-28.0819926 69.15277165 -28.09500054 67.461802 -28.10926819 65.77084351 C-28.13158323 62.23528454 -28.13083589 58.70062456 -28.11499023 55.16503906 C-28.09761589 50.65614292 -28.14838798 46.15094837 -28.21802425 41.64266396 C-28.26244165 38.15238304 -28.26482488 34.66297981 -28.25549507 31.17246628 C-28.25702474 29.51158697 -28.27255063 27.85065417 -28.30293083 26.19005203 C-28.42611999 18.51524781 -28.42090348 11.56719089 -23.73535156 5.09082031 C-17.01305389 -1.10916892 -8.55827993 -0.20657553 0 0 Z M-21.51062012 10.92321777 C-23.44247143 14.64619705 -23.67473346 17.04166015 -23.68554688 21.22070312 C-23.69255615 21.90444504 -23.69956543 22.58818695 -23.70678711 23.29264832 C-23.72428936 25.53666668 -23.71277358 27.77940793 -23.69921875 30.0234375 C-23.70191594 31.59232829 -23.70580024 33.16121745 -23.71081543 34.73010254 C-23.7166999 38.01179991 -23.70818196 41.29306059 -23.68945312 44.57470703 C-23.66666363 48.77133191 -23.67979244 52.96693344 -23.70374298 57.16352081 C-23.71822977 60.40130254 -23.71358191 63.63884352 -23.70323181 66.87663269 C-23.70057245 68.42351911 -23.70380637 69.97042772 -23.71315002 71.51728821 C-23.72336396 73.68333434 -23.70775053 75.84774676 -23.68554688 78.01367188 C-23.6823645 79.24355835 -23.67918213 80.47344482 -23.67590332 81.74060059 C-22.89910293 86.90452167 -20.45756373 89.80788407 -16.86058044 93.45983887 C-13.4065534 95.58585169 -11.12968189 95.62447023 -7.08618164 95.63476562 C-6.39283218 95.6417749 -5.69948273 95.64878418 -4.98512268 95.65600586 C-2.70321064 95.67354738 -0.42254869 95.66197685 1.859375 95.6484375 C3.45211524 95.65113386 5.04485388 95.65501748 6.6375885 95.66003418 C9.97233789 95.66592424 13.30665803 95.65738374 16.64135742 95.63867188 C20.90638694 95.61590065 25.17040854 95.62899613 29.43540096 95.65296173 C32.72379585 95.66744919 36.0119537 95.66280002 39.30035591 95.65245056 C40.87236209 95.64979043 42.44439009 95.65302788 44.01637077 95.66236877 C46.21843922 95.67258162 48.41890023 95.65696967 50.62084961 95.63476562 C51.87151718 95.63158325 53.12218475 95.62840088 54.41075134 95.62512207 C59.43098499 94.87980152 63.66930472 92.11221048 66.83203125 88.1171875 C68.0253302 84.57324584 67.97199935 81.14022134 67.99316406 77.42431641 C67.99812897 76.76037369 68.00309387 76.09643097 68.00820923 75.41236877 C68.02277642 73.22281852 68.02962336 71.03334069 68.03515625 68.84375 C68.04091175 67.31684366 68.04666943 65.78993733 68.0524292 64.26303101 C68.06292339 61.06369695 68.06877654 57.8643879 68.07226562 54.66503906 C68.07775008 50.57393887 68.1017835 46.48317152 68.13023758 42.39217567 C68.14889836 39.23852585 68.15407136 36.08495571 68.1556015 32.93125534 C68.1586203 31.42342685 68.16662268 29.91559951 68.17978668 28.40782547 C68.19692157 26.29457788 68.19494951 24.18213732 68.18847656 22.06884766 C68.19212219 20.86845856 68.19576782 19.66806946 68.19952393 18.43130493 C67.78453068 14.68881852 66.79658644 12.31438712 64.83203125 9.1171875 C59.54693568 5.04325966 55.83096668 3.99410475 49.25268555 3.94018555 C48.58888885 3.93361435 47.92509216 3.92704315 47.24118042 3.92027283 C45.0462024 3.90057571 42.85129269 3.88888534 40.65625 3.87890625 C39.90524332 3.87483072 39.15423664 3.8707552 38.38047218 3.86655617 C34.40542502 3.84571074 30.43041223 3.83140243 26.45532227 3.82202148 C22.35624697 3.81095991 18.25771494 3.77655917 14.1588316 3.73684978 C11.00089021 3.71066687 7.84307799 3.70232821 4.68503761 3.69874001 C3.17439924 3.69387836 1.66376648 3.68227629 0.15323448 3.66370201 C-1.96509125 3.63927295 -4.08201509 3.64028134 -6.20043945 3.6472168 C-7.40384476 3.64135056 -8.60725006 3.63548431 -9.84712219 3.62944031 C-15.21248976 4.4174752 -18.0891571 6.82498577 -21.51062012 10.92321777 Z M80.58203125 9.5546875 C77.45848327 14.12845419 76.57727993 16.97755065 76.52563477 22.59472656 C76.50964737 23.90999329 76.49365997 25.22526001 76.47718811 26.5803833 C76.47080993 28.01452241 76.46541765 29.4486662 76.4609375 30.8828125 C76.45196504 32.36008798 76.44284309 33.83736256 76.43357849 35.31463623 C76.4170985 38.41144006 76.40939059 41.50813593 76.40649414 44.60498047 C76.4011206 48.55717227 76.36348067 52.50833696 76.31774998 56.46023941 C76.28787787 59.51277283 76.28076836 62.56506236 76.27976799 65.61772919 C76.27558337 67.07369424 76.26322005 68.52966121 76.24225044 69.98548126 C76.04579454 80.30968444 76.04579454 80.30968444 80.26963806 89.51434326 C84.445153 93.8077692 84.445153 93.8077692 90.03694153 95.62512207 C91.24525131 95.62830444 92.4535611 95.63148682 93.69848633 95.63476562 C94.36911606 95.6417749 95.03974579 95.64878418 95.73069763 95.65600586 C97.93807948 95.67354705 100.14416856 95.66197448 102.3515625 95.6484375 C103.89467106 95.65113452 105.43777797 95.65501869 106.98088074 95.66003418 C110.21308593 95.66592474 113.44484834 95.65738462 116.67700195 95.63867188 C120.80284262 95.61593941 124.9276391 95.62897098 129.05344105 95.65296173 C132.24069446 95.66748121 135.4277043 95.66278481 138.61496544 95.65245056 C140.13507907 95.64979721 141.6552154 95.65300367 143.17530251 95.66236877 C154.75440133 96.02769796 154.75440133 96.02769796 164.83203125 91.1171875 C170.47651028 84.76267949 169.41350999 76.59518485 169.36328125 68.55078125 C169.36597939 67.02816012 169.36986449 65.50554068 169.37487793 63.98292542 C169.38075615 60.80135595 169.37226365 57.6202375 169.35351562 54.4387207 C169.3307069 50.37102912 169.3438709 46.30439226 169.36780548 42.23673916 C169.38229269 39.09589254 169.37764457 35.95529406 169.36729431 32.81443977 C169.36463608 31.31500179 169.36786489 29.81554089 169.37721252 28.31612968 C169.38742955 26.21723004 169.37181019 24.1200151 169.34960938 22.02124023 C169.346427 20.82989975 169.34324463 19.63855927 169.33996582 18.41111755 C168.72602835 14.42976404 167.31978533 12.24940472 164.83203125 9.1171875 C162.73163794 7.72850234 162.73163794 7.72850234 160.83203125 7.1171875 C160.83203125 6.4571875 160.83203125 5.7971875 160.83203125 5.1171875 C157.27126711 4.01822932 153.94487292 3.97752625 150.23095703 3.95605469 C149.57676788 3.95108978 148.92257874 3.94612488 148.24856567 3.94100952 C146.09148087 3.92644402 143.93446958 3.91959567 141.77734375 3.9140625 C140.27285766 3.90830686 138.76837157 3.90254918 137.2638855 3.89678955 C134.11162984 3.88629583 130.95939956 3.88044238 127.80712891 3.87695312 C123.77656067 3.87146881 119.74633031 3.84743551 115.715868 3.81898117 C112.60854117 3.80031882 109.50129521 3.79514731 106.39391708 3.79361725 C104.90841701 3.7905988 103.42291809 3.78259759 101.9374733 3.76943207 C99.855355 3.75229384 97.77405558 3.75427001 95.69189453 3.76074219 C94.50927032 3.75709656 93.32664612 3.75345093 92.10818481 3.74969482 C87.19011203 4.30136485 83.92856571 5.92927516 80.58203125 9.5546875 Z " fill="#DBDBDB" transform="translate(27.16796875,-1.1171875)"/>
<path d="M0 0 C0.67848495 -0.00817749 1.35696991 -0.01635498 2.05601501 -0.02478027 C4.30149467 -0.0495894 6.54691107 -0.06614279 8.79248047 -0.08056641 C9.56180782 -0.08589008 10.33113518 -0.09121376 11.12377548 -0.09669876 C15.19953158 -0.12341678 19.27525726 -0.14279196 23.35107422 -0.15722656 C26.7130063 -0.17053889 30.07432754 -0.19834221 33.43603516 -0.23925781 C37.50499989 -0.28877505 41.57341274 -0.31337119 45.64266586 -0.32045364 C47.18713278 -0.32713602 48.73158885 -0.34227905 50.27588272 -0.36634445 C66.95081218 -0.61127556 66.95081218 -0.61127556 73.28466797 5.19287109 C73.77966797 6.67787109 73.77966797 6.67787109 74.28466797 8.19287109 C74.94466797 8.19287109 75.60466797 8.19287109 76.28466797 8.19287109 C77.27466797 11.16287109 77.27466797 11.16287109 78.28466797 14.19287109 C78.94466797 14.19287109 79.60466797 14.19287109 80.28466797 14.19287109 C80.35417143 23.641769 80.40748091 33.09057893 80.44010448 42.53967667 C80.455762 46.92725909 80.47700174 51.31466665 80.51098633 55.70214844 C80.54357687 59.93614166 80.56152034 64.16996665 80.5692997 68.40407562 C80.57484377 70.01962686 80.58566999 71.63516886 80.60185814 73.2506485 C80.62362882 75.51316745 80.62663512 77.77499085 80.62524414 80.03759766 C80.63523689 81.96952972 80.63523689 81.96952972 80.64543152 83.94049072 C80.25625046 87.44906253 79.64750376 88.66006322 77.28466797 91.19287109 C76.50091797 92.20349609 75.71716797 93.21412109 74.90966797 94.25537109 C71.44165033 98.13624798 69.05903296 99.98779013 63.81401062 100.5940094 C62.46810205 100.62078301 61.12180699 100.63131664 59.77563477 100.62866211 C59.03673004 100.63873795 58.29782532 100.64881378 57.53652954 100.65919495 C55.10215985 100.68761042 52.66841178 100.69354839 50.23388672 100.69677734 C48.53383636 100.70642394 46.83378848 100.71651683 45.13374329 100.72703552 C41.57209504 100.74498154 38.01066487 100.75055824 34.44897461 100.7487793 C29.89917531 100.74847476 25.35078411 100.78940423 20.80131817 100.84109592 C17.28981691 100.87456087 13.77865218 100.88053377 10.26700783 100.87895012 C8.5905453 100.88247577 6.91407272 100.89566416 5.23776817 100.91894722 C-10.53555724 101.11750077 -10.53555724 101.11750077 -16.28581238 95.96934509 C-20.09979 91.22968862 -21.15637278 87.67838155 -21.10351562 81.63623047 C-21.10877258 80.89250687 -21.11402954 80.14878326 -21.1194458 79.38252258 C-21.1326075 76.93367265 -21.12392164 74.4854772 -21.11376953 72.03662109 C-21.11579138 70.32938513 -21.11870374 68.62215001 -21.12246704 66.91491699 C-21.12688519 63.34065511 -21.1204758 59.76661847 -21.10644531 56.19238281 C-21.08935364 51.61578186 -21.09919756 47.03970874 -21.1171627 42.46312714 C-21.12801434 38.9389042 -21.12454789 35.41480596 -21.11677933 31.89057922 C-21.11478113 30.20331255 -21.11722322 28.51603448 -21.12421799 26.82878113 C-21.13185531 24.46872052 -21.1201971 22.10950923 -21.10351562 19.74951172 C-21.10958832 19.05533646 -21.11566101 18.36116119 -21.12191772 17.64595032 C-21.06543916 13.3227517 -20.30421011 10.65922175 -17.71533203 7.19287109 C-15.77783203 5.42724609 -15.77783203 5.42724609 -13.71533203 3.94287109 C-13.03470703 3.44271484 -12.35408203 2.94255859 -11.65283203 2.42724609 C-7.81070647 -0.0205597 -4.44851823 0.04660676 0 0 Z M-13.59185791 9.33984375 C-18.16980092 16.89057715 -17.07549438 26.71600902 -17.12158203 35.22802734 C-17.12723679 35.9379376 -17.13289154 36.64784786 -17.13871765 37.37927055 C-17.16850786 41.12973341 -17.18709333 44.880046 -17.19580078 48.63061523 C-17.20679878 52.48307014 -17.25496389 56.33412151 -17.31174469 60.18613529 C-17.34913363 63.17089307 -17.35941525 66.1553153 -17.36247253 69.1402874 C-17.36848715 70.55999945 -17.3844138 71.97970832 -17.4108429 73.39918709 C-17.54237906 81.00040159 -17.5321735 86.79308542 -12.49304199 92.77146912 C-8.29590147 96.12737304 -4.28133867 96.44927844 0.9675293 96.48339844 C1.61865189 96.49011566 2.26977448 96.49683289 2.94062805 96.50375366 C5.08273048 96.5226746 7.22451853 96.52665499 9.36669922 96.52880859 C10.86496608 96.53524134 12.3632317 96.54197005 13.86149597 96.54898071 C16.99940907 96.56093921 20.13721221 96.56466309 23.27514648 96.56347656 C27.27985117 96.56327361 31.2838443 96.59055649 35.28838062 96.62502098 C38.38294153 96.64735125 41.47733297 96.65131222 44.57196617 96.65025711 C46.04744604 96.6526046 47.52293119 96.6613798 48.99833107 96.67692184 C60.41604445 97.1067424 60.41604445 97.1067424 70.28466797 92.19287109 C75.98156346 85.82576021 74.84837995 76.74079828 74.78076172 68.74755859 C74.78091694 67.24878876 74.78240972 65.75001852 74.78517151 64.25125122 C74.78655024 61.12272215 74.77408378 57.99465447 74.7512207 54.86621094 C74.72278781 50.86705839 74.72559357 46.86866861 74.73831081 42.86945915 C74.74528148 39.77924135 74.7374638 36.68919831 74.72505379 33.59900284 C74.72055621 32.12469275 74.72018761 30.6503638 74.72411919 29.17605209 C74.72704651 27.11339887 74.71045614 25.0517799 74.6887207 22.98925781 C74.68061623 21.23341873 74.68061623 21.23341873 74.67234802 19.44210815 C74.0825834 14.4991531 72.4257045 11.24832988 68.78466797 7.88037109 C64.65746855 5.09451148 61.41599449 5.04692002 56.53759766 4.98413086 C55.85590012 4.97434708 55.17420258 4.96456329 54.47184753 4.95448303 C52.21676572 4.92458062 49.96174305 4.90315692 47.70654297 4.88427734 C46.93471931 4.87770552 46.16289566 4.87113369 45.36768341 4.86436272 C41.28127372 4.83179 37.19488987 4.80733537 33.10839844 4.7878418 C29.73268557 4.77003938 26.35780976 4.73523523 22.98242188 4.68530273 C18.90046952 4.62499465 14.81929222 4.59435212 10.73691559 4.58466911 C9.18518297 4.57613063 7.63347018 4.55735182 6.0819931 4.52792549 C-4.74812276 3.99308439 -4.74812276 3.99308439 -13.59185791 9.33984375 Z " fill="#DBDBDB" transform="translate(20.71533203125,99.80712890625)"/>
<path d="M0 0 C1.86131365 0.00409883 3.72263709 0.00493348 5.58395386 0.00265503 C9.47650081 0.00742671 13.36717441 0.04257814 17.25927734 0.10107422 C22.24428396 0.17483862 27.22702535 0.18673919 32.2124958 0.17772102 C36.05257258 0.17519398 39.89214721 0.19829327 43.73208237 0.22985458 C45.57003186 0.24323152 47.40803847 0.25031409 49.24603653 0.25094986 C51.81494505 0.25709592 54.381288 0.29601047 56.94970703 0.34423828 C57.70619537 0.34040131 58.46268372 0.33656433 59.24209595 0.33261108 C63.01932854 0.43934251 64.91702561 0.90086645 67.94015503 3.22409058 C72.08474133 8.61291844 73.49249042 12.5131669 73.50537109 19.32592773 C73.51062805 20.0275705 73.51588501 20.72921326 73.52130127 21.45211792 C73.53443261 23.75607002 73.52578716 26.05932293 73.515625 28.36328125 C73.51764795 29.9746158 73.52056123 31.58594945 73.52432251 33.19728088 C73.52873675 36.56886541 73.52234485 39.94021092 73.50830078 43.31176758 C73.49122305 47.62023456 73.50104658 51.92814024 73.51901817 56.23658657 C73.52989224 59.5627307 73.52639289 62.8887432 73.5186348 66.21489143 C73.51664207 67.80281708 73.51905928 69.3907549 73.52607346 70.97866631 C73.53374647 73.20411401 73.52200291 75.42867087 73.50537109 77.65405273 C73.50298431 78.91724838 73.50059753 80.18044403 73.49813843 81.48191833 C73.00306271 86.12501313 71.75701244 90.14374483 68.65234375 93.76171875 C63.10801802 97.92363966 60.06709996 99.3039116 53.05712891 99.3293457 C52.35417191 99.33445663 51.6512149 99.33956757 50.92695618 99.34483337 C48.60746704 99.35871183 46.28827568 99.35777376 43.96875 99.35546875 C42.35216156 99.35935707 40.73557414 99.36369202 39.11898804 99.36845398 C35.7313099 99.37591273 32.34373598 99.37562774 28.95605469 99.37036133 C24.6227973 99.3645716 20.28996802 99.38148711 15.95678139 99.404706 C12.6178235 99.41946647 9.27896811 99.42031183 5.93998337 99.41719627 C4.34285002 99.41770847 2.74571078 99.42292714 1.14860916 99.43300819 C-1.08919498 99.44539851 -3.3261731 99.43856582 -5.56396484 99.42700195 C-7.47113785 99.42794609 -7.47113785 99.42794609 -9.4168396 99.4289093 C-15.75894938 98.74415041 -20.47524054 95.66171738 -24.47320557 90.8107605 C-27.62228737 84.65365449 -26.87812989 77.28775167 -26.8125 70.52734375 C-26.81722276 68.81155221 -26.82402253 67.09576525 -26.83279419 65.37998962 C-26.84308303 61.79299093 -26.82822099 58.20721696 -26.79541016 54.62036133 C-26.75555414 50.04230853 -26.77848574 45.46713109 -26.8204174 40.889184 C-26.84582267 37.34832957 -26.83761188 33.8081467 -26.81952286 30.26727104 C-26.81488185 28.58051646 -26.82048272 26.89369917 -26.83687973 25.2070179 C-26.96659799 8.11352411 -26.96659799 8.11352411 -21.5718689 2.50846863 C-15.08575342 -0.9981117 -7.16982643 -0.13011974 0 0 Z M-19.1328125 9.4921875 C-22.25636048 14.06595419 -23.13756382 16.91505065 -23.18920898 22.53222656 C-23.20519638 23.84749329 -23.22118378 25.16276001 -23.23765564 26.5178833 C-23.24403382 27.95202241 -23.2494261 29.3861662 -23.25390625 30.8203125 C-23.26287871 32.29758798 -23.27200066 33.77486256 -23.28126526 35.25213623 C-23.29774525 38.34894006 -23.30545316 41.44563593 -23.30834961 44.54248047 C-23.31372315 48.49467227 -23.35136308 52.44583696 -23.39709377 56.39773941 C-23.42696588 59.45027283 -23.43407539 62.50256236 -23.43507576 65.55522919 C-23.43926038 67.01119424 -23.4516237 68.46716121 -23.47259331 69.92298126 C-23.66904921 80.24718444 -23.66904921 80.24718444 -19.44520569 89.45184326 C-15.26969075 93.7452692 -15.26969075 93.7452692 -9.67790222 95.56262207 C-8.46959244 95.56580444 -7.26128265 95.56898682 -6.01635742 95.57226562 C-5.34572769 95.5792749 -4.67509796 95.58628418 -3.98414612 95.59350586 C-1.77676427 95.61104705 0.42932481 95.59947448 2.63671875 95.5859375 C4.17982731 95.58863452 5.72293422 95.59251869 7.26603699 95.59753418 C10.49824218 95.60342474 13.73000459 95.59488462 16.9621582 95.57617188 C21.08799887 95.55343941 25.21279535 95.56647098 29.3385973 95.59046173 C32.52585071 95.60498121 35.71286055 95.60028481 38.90012169 95.58995056 C40.42023532 95.58729721 41.94037165 95.59050367 43.46045876 95.59986877 C55.03955758 95.96519796 55.03955758 95.96519796 65.1171875 91.0546875 C70.76166653 84.70017949 69.69866624 76.53268485 69.6484375 68.48828125 C69.65113564 66.96566012 69.65502074 65.44304068 69.66003418 63.92042542 C69.6659124 60.73885595 69.6574199 57.5577375 69.63867188 54.3762207 C69.61586315 50.30852912 69.62902715 46.24189226 69.65296173 42.17423916 C69.66744894 39.03339254 69.66280082 35.89279406 69.65245056 32.75193977 C69.64979233 31.25250179 69.65302114 29.75304089 69.66236877 28.25362968 C69.6725858 26.15473004 69.65696644 24.0575151 69.63476562 21.95874023 C69.63158325 20.76739975 69.62840088 19.57605927 69.62512207 18.34861755 C69.0111846 14.36726404 67.60494158 12.18690472 65.1171875 9.0546875 C63.01679419 7.66600234 63.01679419 7.66600234 61.1171875 7.0546875 C61.1171875 6.3946875 61.1171875 5.7346875 61.1171875 5.0546875 C57.55642336 3.95572932 54.23002917 3.91502625 50.51611328 3.89355469 C49.86192413 3.88858978 49.20773499 3.88362488 48.53372192 3.87850952 C46.37663712 3.86394402 44.21962583 3.85709567 42.0625 3.8515625 C40.55801391 3.84580686 39.05352782 3.84004918 37.54904175 3.83428955 C34.39678609 3.82379583 31.24455581 3.81794238 28.09228516 3.81445312 C24.06171692 3.80896881 20.03148656 3.78493551 16.00102425 3.75648117 C12.89369742 3.73781882 9.78645146 3.73264731 6.67907333 3.73111725 C5.19357326 3.7280988 3.70807434 3.72009759 2.22262955 3.70693207 C0.14051125 3.68979384 -1.94078817 3.69177001 -4.02294922 3.69824219 C-5.20557343 3.69459656 -6.38819763 3.69095093 -7.60665894 3.68719482 C-12.52473172 4.23886485 -15.78627804 5.86677516 -19.1328125 9.4921875 Z " fill="#E7E7E7" transform="translate(126.8828125,-1.0546875)"/>
<path d="M0 0 C5.47350669 3.63125639 8.35091404 8.02537791 10.0078125 14.33203125 C10.27695693 18.0292941 10.2406614 21.71263184 10.203125 25.41796875 C10.2002951 26.47488922 10.19746521 27.53180969 10.19454956 28.62075806 C10.183391 31.98296626 10.15829409 35.34490411 10.1328125 38.70703125 C10.12277712 40.99218364 10.11365225 43.27734023 10.10546875 45.5625 C10.08346582 51.15243536 10.05003123 56.74221398 10.0078125 62.33203125 C8.3578125 62.00203125 6.7078125 61.67203125 5.0078125 61.33203125 C5.00194626 60.75653534 4.99608002 60.18103943 4.99003601 59.58810425 C4.92598414 53.58543413 4.84153418 47.5832943 4.74536133 41.58105469 C4.71215584 39.34251914 4.68411034 37.10390076 4.66137695 34.86523438 C4.62775105 31.64287086 4.57542978 28.42126351 4.51953125 25.19921875 C4.51314133 24.20211884 4.5067514 23.20501892 4.50016785 22.17770386 C4.37158331 16.06799188 3.85642469 11.22095399 -0.6484375 6.65234375 C-6.34140251 2.96156559 -11.30603111 2.3305385 -17.9921875 3.33203125 C-25.27944856 5.19729203 -29.63676866 9.34333034 -33.9921875 15.33203125 C-35.14510434 17.63786494 -35.14616088 19.03070012 -35.19750977 21.59814453 C-35.21745499 22.47890656 -35.23740021 23.35966858 -35.25794983 24.26712036 C-35.27466232 25.21924408 -35.29137482 26.1713678 -35.30859375 27.15234375 C-35.32937485 28.12613983 -35.35015594 29.09993591 -35.37156677 30.10324097 C-35.43707348 33.22109772 -35.49595247 36.33904028 -35.5546875 39.45703125 C-35.59787165 41.56771729 -35.6414859 43.67839458 -35.68554688 45.7890625 C-35.79275597 50.96996075 -35.89452028 56.15094481 -35.9921875 61.33203125 C-37.9296875 61.89453125 -37.9296875 61.89453125 -39.9921875 62.33203125 C-40.9921875 61.33203125 -40.9921875 61.33203125 -41.11244202 58.89598083 C-41.11022141 57.814543 -41.10800079 56.73310516 -41.10571289 55.61889648 C-41.10563736 54.39770615 -41.10556183 53.17651581 -41.10548401 51.9183197 C-41.10037661 50.57575439 -41.09516061 49.2331895 -41.08984375 47.890625 C-41.08797949 46.52441967 -41.08655563 45.15821368 -41.08555603 43.79200745 C-41.08173144 40.1900143 -41.07190167 36.58806125 -41.06085205 32.98608398 C-41.05063666 29.3129938 -41.04605814 25.63989716 -41.04101562 21.96679688 C-41.03027934 14.75519002 -41.01320364 7.54361625 -40.9921875 0.33203125 C-39.0546875 -0.23046875 -39.0546875 -0.23046875 -36.9921875 -0.66796875 C-34.94520336 1.37901539 -35.29173057 5.63614366 -34.9921875 8.33203125 C-34.51910156 7.873125 -34.04601562 7.41421875 -33.55859375 6.94140625 C-23.82773056 -2.08762081 -12.6152783 -6.39807125 0 0 Z " fill="#F4E9F0" transform="translate(64.9921875,20.66796875)"/>
<path d="M0 0 C1.27530075 -0.0127597 2.5506015 -0.02551941 3.86454773 -0.03866577 C5.25971322 -0.04172439 6.65488075 -0.04395163 8.05004883 -0.04541016 C9.4839135 -0.05183963 10.91777686 -0.05856811 12.35163879 -0.06558228 C15.36027055 -0.07756206 18.36878748 -0.08126268 21.37744141 -0.08007812 C25.21630905 -0.07987556 29.05443119 -0.10710885 32.89312267 -0.14162254 C35.85729794 -0.16396677 38.82129643 -0.16791329 41.78554726 -0.16685867 C43.1996243 -0.16920598 44.61370686 -0.17798018 46.02770042 -0.19352341 C54.02675281 -0.27317692 60.03663227 -0.17468403 66.81958008 4.29052734 C70.73954727 8.46339564 70.94723743 12.32442585 70.96484375 17.88574219 C70.96820236 18.55114517 70.97156097 19.21654816 70.97502136 19.90211487 C70.9845204 22.10191719 70.986474 24.30164329 70.98754883 26.50146484 C70.99076233 28.03219636 70.99412648 29.56292757 70.99763489 31.09365845 C71.00362367 34.30316886 71.00547506 37.51265236 71.00488281 40.72216797 C71.00478125 44.83013613 71.01842858 48.93793122 71.03565502 53.04585838 C71.04678683 56.20804636 71.04880165 59.37019266 71.04827309 62.53239822 C71.04945161 64.04662294 71.05386622 65.56084878 71.06160545 67.07505417 C71.07142852 69.19566631 71.06851827 71.31590499 71.0625 73.43652344 C71.06392502 74.64214935 71.06535004 75.84777527 71.06681824 77.0899353 C70.76839409 80.95314945 70.05442608 83.96172567 67.38208008 86.83740234 C62.45176685 90.63374353 60.30629688 91.42058781 54.09423828 91.49926758 C53.4029332 91.50905136 52.71162811 91.51883514 51.99937439 91.52891541 C49.70638962 91.55888201 47.41346342 91.58026175 45.12036133 91.59912109 C44.33658804 91.60569292 43.55281475 91.61226475 42.74529076 91.61903572 C38.59404683 91.65163981 34.44282864 91.67608431 30.29150391 91.69555664 C26.86045801 91.71334839 23.43023734 91.7481309 19.99951172 91.7980957 C15.85387536 91.85840121 11.70900232 91.88904669 7.56294823 91.89872932 C5.9860973 91.90727036 4.40926603 91.92605547 2.8326664 91.95547295 C-11.04697882 92.20043902 -11.04697882 92.20043902 -15.578125 88.50170898 C-19.72419929 84.13022163 -20.4340847 80.38243857 -20.47094727 74.4140625 C-20.4810231 73.38888771 -20.4810231 73.38888771 -20.49130249 72.34300232 C-20.51026671 70.08845709 -20.51420586 67.83420982 -20.51635742 65.57958984 C-20.52278657 64.00784178 -20.52951502 62.43609492 -20.53652954 60.86434937 C-20.54849842 57.5708336 -20.55221078 54.27742269 -20.55102539 50.98388672 C-20.55082225 46.77158563 -20.5781208 42.55995956 -20.61256981 38.34781837 C-20.63485024 35.10150081 -20.63886259 31.85534539 -20.63780594 28.6089592 C-20.64016032 27.05646819 -20.64897473 25.50397261 -20.66447067 23.95155716 C-20.6841547 21.77582315 -20.67828485 19.6015406 -20.66625977 17.42578125 C-20.67053482 15.57190292 -20.67053482 15.57190292 -20.67489624 13.68057251 C-19.95943151 8.77546855 -17.63127923 5.74138665 -14.18041992 2.29052734 C-12.05541992 2.66552734 -12.05541992 2.66552734 -10.18041992 3.29052734 C-12.18041992 6.29052734 -12.18041992 6.29052734 -15.18041992 7.29052734 C-17.61090685 10.93625773 -17.44942181 12.70749965 -17.48681641 17.0534668 C-17.49513992 17.73677063 -17.50346344 18.42007446 -17.51203918 19.12408447 C-17.53614253 21.38405044 -17.54491224 23.64372769 -17.55151367 25.90380859 C-17.56048097 27.47698554 -17.56960284 29.0501616 -17.57887268 30.62333679 C-17.59536696 33.92282177 -17.60306336 37.22220525 -17.60595703 40.52172852 C-17.61133619 44.74203703 -17.64899374 48.96138625 -17.69470119 53.18142414 C-17.72450298 56.43203681 -17.73168128 59.68241957 -17.73268318 62.93315697 C-17.73688066 64.48846002 -17.74929619 66.04376405 -17.77020073 67.59893227 C-17.79717794 69.77979782 -17.79227333 71.95845491 -17.77978516 74.1394043 C-17.7848558 75.37833939 -17.78992645 76.61727448 -17.79515076 77.89375305 C-16.97708548 82.41407796 -15.38689435 84.04933661 -12.18041992 87.29052734 C-9.28493035 88.73827213 -6.75011626 88.44188411 -3.51513672 88.4675293 C-2.83037262 88.47410049 -2.14560852 88.48067169 -1.44009399 88.48744202 C0.83005886 88.50718096 3.10014554 88.51883911 5.37036133 88.52880859 C6.14559835 88.53288412 6.92083538 88.53695965 7.71956444 88.54115868 C11.8231314 88.56202239 15.9266649 88.57632253 20.03027344 88.58569336 C24.26735138 88.59675596 28.50390386 88.63115272 32.74079609 88.67086506 C35.99992341 88.69702059 39.25892537 88.70538424 42.51814842 88.70897484 C44.07985163 88.71384393 45.64154912 88.72546723 47.2031498 88.74401283 C49.39122666 88.76838223 51.57794204 88.76744417 53.76611328 88.76049805 C55.01028519 88.76636429 56.25445709 88.77223053 57.53633118 88.77827454 C61.49006504 88.1909226 63.0727505 87.16182116 65.81958008 84.29052734 C67.95823003 80.43357088 68.07692488 77.03064614 68.09423828 72.66772461 C68.10190468 71.7008522 68.10190468 71.7008522 68.10972595 70.71444702 C68.12356429 68.59518 68.12266964 66.47624028 68.12036133 64.35693359 C68.12425136 62.87629578 68.12858666 61.39565908 68.13334656 59.9150238 C68.14079631 56.81578957 68.14052651 53.71666928 68.13525391 50.61743164 C68.12946004 46.65523964 68.1463939 42.69351522 68.16959858 38.73140049 C68.18436431 35.67467036 68.1852038 32.61805212 68.18208885 29.56129265 C68.18260061 28.10092175 68.18781101 26.64054434 68.19790077 25.18020821 C68.21030405 23.13407538 68.20345156 21.08884412 68.19189453 19.04272461 C68.19252396 17.8808815 68.19315338 16.71903839 68.19380188 15.52198792 C67.7559265 11.74086925 66.9392728 9.45620646 64.81958008 6.29052734 C60.51741023 3.40453388 57.01226755 2.90570102 51.89624023 2.8581543 C51.23212128 2.84796265 50.56800232 2.837771 49.88375854 2.82727051 C47.70863234 2.79729706 45.53394761 2.78789916 43.35864258 2.77880859 C41.84262649 2.76195019 40.32662428 2.74379838 38.81063843 2.72441101 C34.83559507 2.67703059 30.860608 2.64714424 26.88537598 2.62097168 C22.82296638 2.5911055 18.76075049 2.54459609 14.69848633 2.49951172 C6.73894636 2.41361481 -1.22061149 2.34620939 -9.18041992 2.29052734 C-5.65711563 -0.05834218 -4.17375484 0.02831059 0 0 Z " fill="#210317" transform="translate(24.180419921875,2.70947265625)"/>
<path d="M0 0 C8.89274825 -0.11600884 17.78523481 -0.20477287 26.67857552 -0.25906086 C30.80845044 -0.28512069 34.93780649 -0.32045125 39.06738281 -0.37719727 C43.05503287 -0.43164817 47.04218485 -0.46144772 51.03017807 -0.47438622 C52.54923211 -0.48360284 54.06825982 -0.50160138 55.58710098 -0.52865028 C57.72028073 -0.56511834 59.85142043 -0.56993851 61.98486328 -0.56762695 C63.1973172 -0.57873001 64.40977112 -0.58983307 65.65896606 -0.60127258 C70.1626688 0.20924088 71.76120142 1.80120573 75 5 C79.29402205 11.67221474 78.45449643 19.36879492 78.43359375 27.05859375 C78.43816159 28.53158304 78.44346895 30.00457021 78.44947815 31.47755432 C78.45838486 34.55649503 78.45601427 37.63517603 78.44604492 40.71411133 C78.43455878 44.64257618 78.45477268 48.57014164 78.48396206 52.49848843 C78.50238609 55.53816844 78.50201936 58.57763537 78.49632454 61.61735725 C78.49617208 63.06491418 78.50215385 64.51248625 78.51461601 65.95998955 C78.62974805 81.52333063 78.62974805 81.52333063 74 87 C67.64294245 92.65177345 59.48037425 91.56289487 51.43359375 91.49609375 C49.91097444 91.49624892 48.38835473 91.49774085 46.86573792 91.50050354 C43.68415739 91.50188368 40.50302979 91.48939329 37.3215332 91.46655273 C33.25397447 91.43814458 29.18716614 91.44091694 25.11955166 91.45364285 C21.97872056 91.46061385 18.83806141 91.45279502 15.69725227 91.44038582 C14.19782229 91.4358868 12.69837376 91.43552091 11.19894218 91.43945122 C9.10026377 91.4423782 7.00260224 91.4257887 4.90405273 91.40405273 C3.71271225 91.39864975 2.52137177 91.39324677 1.29393005 91.38768005 C-3.6259358 90.80863501 -6.89826727 89.19354379 -10.25 85.5625 C-13.38050398 80.97854774 -14.25352762 78.13766105 -14.29052734 72.5065918 C-14.30328705 71.18809738 -14.31604675 69.86960297 -14.32919312 68.51115417 C-14.33225113 67.07384386 -14.3344787 65.63653158 -14.3359375 64.19921875 C-14.34236792 62.71954724 -14.34909646 61.23987699 -14.35610962 59.76020813 C-14.36807758 56.65920059 -14.37179104 53.55830439 -14.37060547 50.45727539 C-14.37040252 46.49615927 -14.39768074 42.53576257 -14.43214989 38.5748167 C-14.45446162 35.51803858 -14.45844169 32.46143227 -14.45738602 29.40458107 C-14.45973647 27.94502094 -14.46852864 26.48545567 -14.48405075 25.02597618 C-14.57430293 15.66176129 -13.99257485 10.02291674 -8.0625 2.5625 C-5.52901525 0.64319337 -4.10598668 0.65489037 -1 1 C-1.7425 1.556875 -2.485 2.11375 -3.25 2.6875 C-6.47673951 5.40089459 -9.10512328 8.21024656 -11 12 C-11.11220813 14.0918993 -11.15934177 16.18739447 -11.17700195 18.28222656 C-11.18357315 18.92637009 -11.19014435 19.57051361 -11.19691467 20.23417664 C-11.21665227 22.3696606 -11.22831263 24.50507414 -11.23828125 26.640625 C-11.24235678 27.37048363 -11.2464323 28.10034225 -11.25063133 28.85231781 C-11.27149639 32.71713478 -11.28579485 36.58191622 -11.29516602 40.44677734 C-11.30621737 44.43266769 -11.34060053 48.41799774 -11.38033772 52.40369034 C-11.40652856 55.47327691 -11.41486011 58.54273066 -11.41844749 61.61241913 C-11.42330898 63.08119226 -11.43491062 64.54995963 -11.45348549 66.01862335 C-11.47792628 68.07959351 -11.4769039 70.13912355 -11.4699707 72.20019531 C-11.47877007 73.9565329 -11.47877007 73.9565329 -11.48774719 75.74835205 C-10.76587106 80.5608596 -8.38747711 83.61252289 -5 87 C-1.54812518 88.23541815 1.87244996 88.13978583 5.50927734 88.16113281 C6.15371292 88.16609772 6.7981485 88.17106262 7.46211243 88.17617798 C9.58673178 88.19074174 11.7112765 88.19759154 13.8359375 88.203125 C15.31800334 88.20888079 16.80006918 88.21463847 18.28213501 88.22039795 C21.38731227 88.23089118 24.49246377 88.23674495 27.59765625 88.24023438 C31.56769259 88.24571855 35.53738588 88.26975173 39.50731468 88.29820633 C42.56831851 88.3168703 45.62924026 88.32204028 48.69029617 88.32357025 C50.15346784 88.32658835 51.61663835 88.33458834 53.07975388 88.34775543 C55.13074299 88.36489711 57.18090103 88.3629167 59.23193359 88.35644531 C60.97922256 88.36191376 60.97922256 88.36191376 62.7618103 88.36749268 C66.55049677 87.93752573 68.82984676 87.12458745 72 85 C74.86813459 80.71931651 75.38068136 77.26138973 75.40405273 72.171875 C75.41434761 71.1901532 75.41434761 71.1901532 75.42485046 70.18859863 C75.44303411 68.04217348 75.439294 65.89648504 75.43359375 63.75 C75.43815916 62.24837 75.44346581 60.74674209 75.44947815 59.24511719 C75.45839227 56.10473111 75.45600513 52.96459958 75.44604492 49.82421875 C75.43454849 45.80921863 75.45478468 41.79509715 75.48396206 37.7802124 C75.50234731 34.68142157 75.5020272 31.5828405 75.49632454 28.48400879 C75.49617165 27.00409715 75.5021889 25.52417099 75.51461601 24.04431152 C75.52957224 21.97169529 75.51881879 19.90069233 75.50170898 17.828125 C75.50154282 16.6515332 75.50137665 15.47494141 75.50120544 14.26269531 C74.87661928 10.19682896 73.65598183 8.12866785 71 5 C66.74038631 2.22291128 63.38685872 1.61660368 58.35205078 1.56762695 C57.05115509 1.54783279 55.7502594 1.52803864 54.40994263 1.50764465 C53.00506739 1.50087638 51.60019058 1.49442934 50.1953125 1.48828125 C48.74655649 1.47142148 47.29781499 1.4532695 45.84909058 1.43388367 C42.0516005 1.38651792 38.25416929 1.35662219 34.45648193 1.33044434 C30.57503642 1.30057065 26.69379343 1.25406385 22.8125 1.20898438 C15.20843412 1.12310425 7.60435328 1.05569151 0 1 C0 0.67 0 0.34 0 0 Z " fill="#323232" transform="translate(118,105)"/>
<path d="M0 0 C8.89274825 -0.11600884 17.78523481 -0.20477287 26.67857552 -0.25906086 C30.80845044 -0.28512069 34.93780649 -0.32045125 39.06738281 -0.37719727 C43.05503287 -0.43164817 47.04218485 -0.46144772 51.03017807 -0.47438622 C52.54923211 -0.48360284 54.06825982 -0.50160138 55.58710098 -0.52865028 C57.72028073 -0.56511834 59.85142043 -0.56993851 61.98486328 -0.56762695 C63.1973172 -0.57873001 64.40977112 -0.58983307 65.65896606 -0.60127258 C70.16241129 0.20919453 71.76093962 1.80193991 75 5 C79.32059839 11.67708134 78.41641478 19.52127267 78.36328125 27.19921875 C78.36276195 28.68178812 78.36328236 30.16435819 78.36479187 31.64692688 C78.36470249 34.74266945 78.35433943 37.83814976 78.33618164 40.93383789 C78.31343583 44.89834099 78.31296473 48.86246347 78.31969929 52.82701397 C78.32304186 55.88366572 78.31640475 58.9402309 78.30657005 61.99686623 C78.30272721 63.45887613 78.30156604 64.92089568 78.3031559 66.38290977 C78.30352726 68.42415918 78.28941496 70.46539569 78.2746582 72.5065918 C78.26774712 74.24696968 78.26774712 74.24696968 78.26069641 76.02250671 C78.00877793 78.89974461 77.49994666 80.56707818 76 83 C74.88076679 79.42421435 74.90481317 76.13066314 74.94995117 72.39892578 C74.95623032 71.74473663 74.96250946 71.09054749 74.96897888 70.41653442 C74.98279681 69.00005119 74.99872494 67.5835873 75.01653099 66.16714859 C75.04324551 63.92205313 75.0610677 61.67705732 75.07600403 59.43185425 C75.11867802 53.04960186 75.16635493 46.66754655 75.24682617 40.28564453 C75.29545491 36.37772158 75.32437364 32.4700721 75.34057045 28.56188583 C75.35044394 27.0763371 75.36761768 25.59081762 75.39235497 24.10544205 C75.42625955 22.02324669 75.4349959 19.9423014 75.43823242 17.85986328 C75.45013107 16.67723907 75.46202972 15.49461487 75.47428894 14.27615356 C74.8821499 10.18594977 73.67153731 8.13941621 71 5 C66.74038631 2.22291128 63.38685872 1.61660368 58.35205078 1.56762695 C57.05115509 1.54783279 55.7502594 1.52803864 54.40994263 1.50764465 C53.00506739 1.50087638 51.60019058 1.49442934 50.1953125 1.48828125 C48.74655649 1.47142148 47.29781499 1.4532695 45.84909058 1.43388367 C42.0516005 1.38651792 38.25416929 1.35662219 34.45648193 1.33044434 C30.57503642 1.30057065 26.69379343 1.25406385 22.8125 1.20898438 C15.20843412 1.12310425 7.60435328 1.05569151 0 1 C0 0.67 0 0.34 0 0 Z " fill="#1D1D1D" transform="translate(118,105)"/>
<path d="M0 0 C1.91295113 -0.01913956 1.91295113 -0.01913956 3.86454773 -0.03866577 C5.25971322 -0.04172439 6.65488075 -0.04395163 8.05004883 -0.04541016 C9.4839135 -0.05183963 10.91777686 -0.05856811 12.35163879 -0.06558228 C15.36027055 -0.07756206 18.36878748 -0.08126268 21.37744141 -0.08007812 C25.21630905 -0.07987556 29.05443119 -0.10710885 32.89312267 -0.14162254 C35.85729794 -0.16396677 38.82129643 -0.16791329 41.78554726 -0.16685867 C43.1996243 -0.16920598 44.61370686 -0.17798018 46.02770042 -0.19352341 C54.02675281 -0.27317692 60.03663227 -0.17468403 66.81958008 4.29052734 C70.69237971 8.41318501 70.94357606 12.19263541 70.93310547 17.68969727 C70.9332515 18.333871 70.93339752 18.97804474 70.93354797 19.64173889 C70.93285203 21.76819237 70.92507456 23.89455794 70.91723633 26.02099609 C70.91537102 27.49644422 70.91394765 28.97189296 70.91294861 30.44734192 C70.90913234 34.32878329 70.89930964 38.21018719 70.88824463 42.09161377 C70.87801138 46.05309543 70.87344689 50.01458315 70.8684082 53.97607422 C70.85768658 61.74757567 70.84062083 69.51904625 70.81958008 77.29052734 C70.48958008 77.29052734 70.15958008 77.29052734 69.81958008 77.29052734 C69.81411163 76.13327148 69.81411163 76.13327148 69.80853271 74.95263672 C69.77054991 67.65564255 69.71358185 60.35915316 69.63567734 53.06248474 C69.5962917 49.31182188 69.56406005 45.56139064 69.54858398 41.81054688 C69.53335789 38.18572781 69.49880914 34.56154591 69.45127106 30.93701172 C69.43651809 29.55930137 69.42854257 28.18150001 69.42769623 26.80371094 C69.6933753 15.77333706 69.6933753 15.77333706 64.81958008 6.29052734 C60.41275734 3.56554951 57.03776621 2.905938 51.89624023 2.8581543 C51.23212128 2.84796265 50.56800232 2.837771 49.88375854 2.82727051 C47.70863234 2.79729706 45.53394761 2.78789916 43.35864258 2.77880859 C41.84262649 2.76195019 40.32662428 2.74379838 38.81063843 2.72441101 C34.83559507 2.67703059 30.860608 2.64714424 26.88537598 2.62097168 C22.82296638 2.5911055 18.76075049 2.54459609 14.69848633 2.49951172 C6.73894636 2.41361481 -1.22061149 2.34620939 -9.18041992 2.29052734 C-5.65711563 -0.05834218 -4.17375484 0.02831059 0 0 Z " fill="#15030F" transform="translate(24.180419921875,2.70947265625)"/>
<path d="M0 0 C2.125 0.375 2.125 0.375 4 1 C2 4 2 4 -1 5 C-3.37580897 8.56371346 -3.27046969 10.16609813 -3.31884766 14.39916992 C-3.33391609 15.36543053 -3.33391609 15.36543053 -3.34928894 16.35121155 C-3.38014705 18.47762165 -3.39716293 20.6039057 -3.4140625 22.73046875 C-3.43277209 24.20592841 -3.45234534 25.68137735 -3.4727478 27.15681458 C-3.52409736 31.03817425 -3.56370781 34.91956863 -3.60089111 38.80108643 C-3.64091316 42.76266077 -3.69201368 46.7240904 -3.7421875 50.68554688 C-3.83898018 58.45693201 -3.9233741 66.22838709 -4 74 C-4.33 74 -4.66 74 -5 74 C-5.22373729 65.49871959 -5.42516504 56.99732379 -5.59840012 48.49487877 C-5.67954213 44.5465229 -5.76826031 40.59864521 -5.87451172 36.65087891 C-5.97683463 32.83858192 -6.05896984 29.02632784 -6.12732697 25.21327591 C-6.15686824 23.7611219 -6.1935907 22.30909505 -6.2377243 20.85731125 C-6.2984719 18.81799973 -6.33328646 16.77972277 -6.36230469 14.73974609 C-6.38895203 13.58058685 -6.41559937 12.42142761 -6.4430542 11.22714233 C-5.78167566 6.40975725 -3.38044038 3.38044038 0 0 Z " fill="#490231" transform="translate(10,5)"/>
<path d="M0 0 C1.32 0.33 2.64 0.66 4 1 C2 4 2 4 -1 5 C-2.71567661 8.50294871 -2.71567661 8.50294871 -4 12 C-4.66 12 -5.32 12 -6 12 C-5.59791618 6.37082652 -3.71069698 3.99613521 0 0 Z " fill="#3F2B38" transform="translate(10,5)"/>
<path d="M0 0 C0.66 0 1.32 0 2 0 C2.226875 1.03125 2.45375 2.0625 2.6875 3.125 C3.86471856 7.34408258 6.04838971 9.81536784 9 13 C6 13 6 13 3.375 10.4375 C0.76354282 7.15161244 0.251671 4.1945167 0 0 Z " fill="#352730" transform="translate(4,79)"/>
<path d="M0 0 C0.721875 0.103125 1.44375 0.20625 2.1875 0.3125 C1.445 0.869375 0.7025 1.42625 -0.0625 2 C-2.8781117 4.21026474 -2.8781117 4.21026474 -4.9375 7 C-6.8125 9.3125 -6.8125 9.3125 -9.8125 10.3125 C-8.22343411 5.25638126 -5.63322205 0.62591356 0 0 Z " fill="#404040" transform="translate(114.8125,105.6875)"/>
<path d="M0 0 C3.82964655 1.56022637 6.32190489 3.87555571 9 7 C9 8.32 9 9.64 9 11 C8.443125 10.2575 7.88625 9.515 7.3125 8.75 C5.09173001 5.92455792 5.09173001 5.92455792 2.25 3.8125 C1.5075 3.214375 0.765 2.61625 0 2 C0 1.34 0 0.68 0 0 Z " fill="#4A4A4A" transform="translate(185,105)"/>
<path d="M0 0 C2 2 2 2 2 3.8125 C0.43564216 7.23453277 -1.97759908 8.77946055 -5 11 C-5.66 11 -6.32 11 -7 11 C-7 10.34 -7 9.68 -7 9 C-6.21625 8.401875 -5.4325 7.80375 -4.625 7.1875 C-1.85071227 4.87559356 -1.03733633 3.39491889 0 0 Z " fill="#372230" transform="translate(92,82)"/>
<path d="M0 0 C0.66 0.99 1.32 1.98 2 3 C-1.42388092 6.82669043 -4.00724943 8.72278474 -9 10 C-8.67 9.01 -8.34 8.02 -8 7 C-7.030625 6.525625 -6.06125 6.05125 -5.0625 5.5625 C-1.89788363 3.94789981 -1.12529972 3.26336918 0 0 Z " fill="#444444" transform="translate(192,186)"/>
<path d="M0 0 C0.66 0 1.32 0 2 0 C3.39300182 1.95890881 4.72245446 3.9639118 6 6 C6.99 7.485 6.99 7.485 8 9 C6.25 8.875 6.25 8.875 4 8 C0 2.77777778 0 2.77777778 0 0 Z " fill="#393939" transform="translate(105,184)"/>
<path d="M0 0 C3.67230705 3.07999946 4.56802365 5.2482602 5 10 C4.34 10 3.68 10 3 10 C0 3.375 0 3.375 0 0 Z " fill="#3A2A35" transform="translate(90,7)"/>
<path d="M0 0 C-1.49097658 3.7952131 -3.75700849 5.61042731 -7 8 C-4.18918919 0 -4.18918919 0 0 0 Z " fill="#2D2D2D" transform="translate(113,5)"/>
</svg>
