<svg viewBox="0 0 32 41" fill="none" xmlns="http://www.w3.org/2000/svg" class="ng-star-inserted"><path fill-rule="evenodd" clip-rule="evenodd" d="M26.2024 37.7525C22.0305 37.7525 18.6486 34.3999 18.6486 30.2643C18.6486 26.1288 22.0305 22.7763 26.2024 22.7763C27.6871 22.7763 29.0718 23.2009 30.2397 23.9344C30.576 24.1455 31.0394 23.91 31.0394 23.5034V6.5247C31.0394 6.25697 30.8293 6.03995 30.5702 6.03995H24.1746C23.9156 6.03995 23.7054 5.82293 23.7054 5.55521V1.19251C23.7054 0.924793 23.4954 0.707765 23.2363 0.707765L9.50698 0.707764C9.24787 0.707764 9.03781 0.924792 9.03781 1.19251V2.07796C9.03781 2.36658 9.28049 2.59007 9.55957 2.57766C9.67374 2.57258 9.78856 2.57001 9.90399 2.57001C14.0758 2.57001 17.4577 5.92255 17.4577 10.0581C17.4577 14.1937 14.0758 17.5462 9.90399 17.5462C6.05221 17.5462 2.87379 14.6883 2.40879 10.9949C2.37692 10.7419 2.17393 10.5434 1.92692 10.5434H0.54339C0.284274 10.5434 0.0742196 10.7604 0.0742196 11.0281L0.0742188 30.3233C0.0742187 30.5911 0.284272 30.8081 0.543389 30.8081H8.56864C8.82776 30.8081 9.03781 31.0251 9.03781 31.2928V40.0741C9.03781 40.3419 9.24787 40.5589 9.50698 40.5589H30.5702C30.8293 40.5589 31.0394 40.3419 31.0394 40.0741V37.0252C31.0394 36.6187 30.576 36.3831 30.2397 36.5943C29.0718 37.3277 27.6871 37.7525 26.2024 37.7525Z" style="fill: rgb(253, 224, 71);"></path></svg>