<?xml version="1.0" encoding="UTF-8"?>
<svg version="1.1" xmlns="http://www.w3.org/2000/svg" width="100" height="100">
<path d="M0 0 C1.300513 -0.00524185 2.601026 -0.0104837 3.94094849 -0.0158844 C6.68615466 -0.02478598 9.43106947 -0.02242736 12.17626953 -0.01245117 C15.67197139 -0.00097754 19.16666059 -0.02116164 22.66222954 -0.05036831 C26.02487074 -0.07326807 29.387283 -0.06625724 32.75 -0.0625 C34.61602371 -0.07935097 34.61602371 -0.07935097 36.51974487 -0.09654236 C45.92886462 -0.02161144 53.58113492 1.70482124 60.5078125 8.43359375 C64.87163278 14.16890041 66.74066177 19.36550969 66.81420898 26.55566406 C66.83019638 27.74419983 66.84618378 28.9327356 66.86265564 30.1572876 C66.86801834 31.42924988 66.87338104 32.70121216 66.87890625 34.01171875 C66.88788832 35.34682304 66.89701041 36.68192639 66.90626526 38.01702881 C66.92270951 40.81101921 66.93044666 43.60489048 66.93334961 46.39892578 C66.938721 49.95407733 66.97636659 53.50808595 67.02209377 57.0629158 C67.05205308 59.82043393 67.05907724 62.57768343 67.06007576 65.33535004 C67.06624975 67.27505108 67.09562155 69.2146345 67.12559509 71.15411377 C67.08198099 79.77359102 65.74280186 86.83159431 59.75218201 93.34136963 C51.90005681 100.75881528 43.90399162 100.89067585 33.54296875 100.8671875 C32.1820805 100.87175641 30.82119455 100.87706409 29.46031189 100.8830719 C26.61675608 100.89197439 23.77348156 100.88961299 20.92993164 100.87963867 C17.30410923 100.86815329 13.67926142 100.88836692 10.05356693 100.91755581 C7.24549802 100.93599144 4.43765952 100.93561086 1.62954521 100.92991829 C-0.35116349 100.92969244 -2.33185079 100.9465205 -4.31248474 100.96372986 C-12.98828059 100.89691434 -18.39774875 99.86149596 -25.1796875 94.18359375 C-30.28020822 88.11810965 -33.58443438 82.79568512 -33.68505859 74.74389648 C-33.70112152 73.57515488 -33.71718445 72.40641327 -33.73373413 71.20225525 C-33.77830695 65.84210768 -33.81970888 60.48210619 -33.84228516 55.12182617 C-33.85557596 52.30020375 -33.88333814 49.4793129 -33.92431641 46.65795898 C-33.98350706 42.58174667 -34.00099499 38.50630779 -34.015625 34.4296875 C-34.03829437 33.17828476 -34.06096375 31.92688202 -34.08432007 30.63755798 C-34.06328097 21.84696981 -32.62145203 14.8791716 -26.50204468 8.29100037 C-18.35096295 0.52891065 -10.88341177 -0.02559945 0 0 Z " fill="#22BB5A" transform="translate(33.4921875,-0.43359375)"/>
<path d="M0 0 C5.28 -0.0825 10.56 -0.165 16 -0.25 C18.475 -0.30462402 18.475 -0.30462402 21 -0.36035156 C29.69520289 -0.47342869 36.00847312 -0.11874517 42.98828125 5.640625 C43.42527344 6.17171875 43.86226562 6.7028125 44.3125 7.25 C44.76238281 7.77078125 45.21226563 8.2915625 45.67578125 8.828125 C49.81947482 15.62427139 50.58201258 21.94631363 50.5625 29.75 C50.56080811 30.71921387 50.55911621 31.68842773 50.55737305 32.68701172 C50.36040079 40.55140917 49.05024107 46.71184734 44 53 C38.0249207 58.57399825 32.35474156 60.38981616 24.31640625 60.29296875 C23.03451416 60.28547607 21.75262207 60.2779834 20.43188477 60.27026367 C18.82498779 60.24295166 17.21809082 60.21563965 15.5625 60.1875 C10.426875 60.125625 5.29125 60.06375 0 60 C0 40.2 0 20.4 0 0 Z " fill="#FBFBFB" transform="translate(29,20)"/>
<path d="M0 0 C16.17857143 0 16.17857143 0 21 3 C25.54729733 7.85045048 25.21197467 12.98532619 25.25 19.25 C25.270625 20.08402344 25.29125 20.91804688 25.3125 21.77734375 C25.34718909 27.30158134 24.61593713 31.11099128 22 36 C15.48463711 42.10815271 9.59403991 40 0 40 C0 26.8 0 13.6 0 0 Z " fill="#21C35D" transform="translate(41,30)"/>
<path d="M0 0 C1.300513 -0.00524185 2.601026 -0.0104837 3.94094849 -0.0158844 C6.68615466 -0.02478598 9.43106947 -0.02242736 12.17626953 -0.01245117 C15.67197139 -0.00097754 19.16666059 -0.02116164 22.66222954 -0.05036831 C26.02487074 -0.07326807 29.387283 -0.06625724 32.75 -0.0625 C34.61602371 -0.07935097 34.61602371 -0.07935097 36.51974487 -0.09654236 C45.92886462 -0.02161144 53.58113492 1.70482124 60.5078125 8.43359375 C64.87163278 14.16890041 66.74066177 19.36550969 66.81420898 26.55566406 C66.83019638 27.74419983 66.84618378 28.9327356 66.86265564 30.1572876 C66.86801834 31.42924988 66.87338104 32.70121216 66.87890625 34.01171875 C66.88788832 35.34682304 66.89701041 36.68192639 66.90626526 38.01702881 C66.92270951 40.81101921 66.93044666 43.60489048 66.93334961 46.39892578 C66.938721 49.95407733 66.97636659 53.50808595 67.02209377 57.0629158 C67.05205308 59.82043393 67.05907724 62.57768343 67.06007576 65.33535004 C67.06624975 67.27505108 67.09562155 69.2146345 67.12559509 71.15411377 C67.08198099 79.77359102 65.74280186 86.83159431 59.75218201 93.34136963 C51.90005681 100.75881528 43.90399162 100.89067585 33.54296875 100.8671875 C32.1820805 100.87175641 30.82119455 100.87706409 29.46031189 100.8830719 C26.61675608 100.89197439 23.77348156 100.88961299 20.92993164 100.87963867 C17.30410923 100.86815329 13.67926142 100.88836692 10.05356693 100.91755581 C7.24549802 100.93599144 4.43765952 100.93561086 1.62954521 100.92991829 C-0.35116349 100.92969244 -2.33185079 100.9465205 -4.31248474 100.96372986 C-12.98828059 100.89691434 -18.39774875 99.86149596 -25.1796875 94.18359375 C-30.28020822 88.11810965 -33.58443438 82.79568512 -33.68505859 74.74389648 C-33.70112152 73.57515488 -33.71718445 72.40641327 -33.73373413 71.20225525 C-33.77830695 65.84210768 -33.81970888 60.48210619 -33.84228516 55.12182617 C-33.85557596 52.30020375 -33.88333814 49.4793129 -33.92431641 46.65795898 C-33.98350706 42.58174667 -34.00099499 38.50630779 -34.015625 34.4296875 C-34.03829437 33.17828476 -34.06096375 31.92688202 -34.08432007 30.63755798 C-34.06328097 21.84696981 -32.62145203 14.8791716 -26.50204468 8.29100037 C-18.35096295 0.52891065 -10.88341177 -0.02559945 0 0 Z M-25.3046875 10.24609375 C-25.84738281 10.87128906 -26.39007813 11.49648437 -26.94921875 12.140625 C-31.86457368 19.44521575 -31.95948994 25.82033878 -31.9609375 34.453125 C-31.96855103 35.70687424 -31.97616455 36.96062347 -31.98400879 38.25236511 C-31.99479248 40.89944308 -31.99904586 43.54562561 -31.99316406 46.19262695 C-31.98844934 48.89001999 -32.00231808 51.58623987 -32.03417969 54.28344727 C-32.07719279 58.19453341 -32.08606288 62.10432726 -32.0859375 66.015625 C-32.10233276 67.21073196 -32.11872803 68.40583893 -32.13562012 69.63716125 C-32.06676454 78.05672992 -30.54056949 84.95302601 -24.76599121 91.34407043 C-17.24786928 98.58123907 -8.50859383 98.90064293 1.40625 98.90234375 C2.63638824 98.90995728 3.86652649 98.9175708 5.13394165 98.92541504 C7.72762022 98.93618683 10.32134205 98.93908109 12.91503906 98.93457031 C16.8633729 98.93359853 20.809759 98.9752485 24.7578125 99.01953125 C27.28645431 99.02473929 29.81510283 99.02742643 32.34375 99.02734375 C33.51384613 99.04373901 34.68394226 99.06013428 35.88949585 99.07702637 C44.20978497 99.00756345 51.18158724 97.47310773 57.41928101 91.64880371 C62.08954596 86.59085213 64.87519881 81.35091441 64.91186523 74.37158203 C64.92454941 73.19661163 64.93723358 72.02164124 64.95030212 70.81106567 C64.94736649 69.55470306 64.94443085 68.29834045 64.94140625 67.00390625 C64.9466481 65.69960663 64.95188995 64.39530701 64.95729065 63.05148315 C64.9662008 60.29610489 64.9638238 57.54101677 64.95385742 54.78564453 C64.94238351 51.27300218 64.96256389 47.76136755 64.99177456 44.2488575 C65.01465067 40.87548911 65.00766455 37.50235012 65.00390625 34.12890625 C65.01514023 32.8765921 65.02637421 31.62427795 65.03794861 30.33401489 C64.97306696 22.16394184 64.10795577 16.55116652 58.578125 10.2265625 C57.61519531 9.43185547 57.61519531 9.43185547 56.6328125 8.62109375 C55.99601562 8.07839844 55.35921875 7.53570312 54.703125 6.9765625 C50.03006389 3.69211564 46.18053489 2.05966885 40.44580078 2.02954102 C39.27083038 2.01685684 38.09585999 2.00417267 36.88528442 1.99110413 C35.62892181 1.99403976 34.3725592 1.9969754 33.078125 2 C31.77382538 1.99475815 30.46952576 1.9895163 29.1257019 1.9841156 C26.37032364 1.97520545 23.61523552 1.97758245 20.85986328 1.98754883 C17.34722093 1.99902274 13.8355863 1.97884236 10.32307625 1.94963169 C6.94970786 1.92675558 3.57656887 1.9337417 0.203125 1.9375 C-1.67534622 1.92064903 -1.67534622 1.92064903 -3.59176636 1.90345764 C-12.41809249 1.97355085 -19.33572013 3.11528358 -25.3046875 10.24609375 Z " fill="#000E04" transform="translate(33.4921875,-0.43359375)"/>
<path d="M0 0 C1.31237137 -0.0004985 2.62474274 -0.00099701 3.97688293 -0.00151062 C6.74308909 -0.0014213 9.50900135 0.00892855 12.27514648 0.02709961 C15.81592373 0.04985249 19.35627486 0.05031458 22.89710522 0.04358196 C26.28561864 0.03943512 29.67400125 0.0514117 33.0625 0.0625 C34.33232224 0.06158859 35.60214447 0.06067719 36.91044617 0.05973816 C38.08879532 0.06927017 39.26714447 0.07880219 40.48120117 0.08862305 C42.03504768 0.09553413 42.03504768 0.09553413 43.62028503 0.10258484 C46.3484986 0.36486435 48.00268673 0.96248196 50.33203125 2.36328125 C46.98524996 3.38016289 43.98561923 3.46157901 40.49707031 3.41333008 C38.73438812 3.39385063 38.73438812 3.39385063 36.93609619 3.37397766 C35.03606842 3.34741341 35.03606842 3.34741341 33.09765625 3.3203125 C31.10019197 3.30365337 29.10272714 3.28701883 27.10525131 3.27180767 C22.18682451 3.23377189 17.2686555 3.18739971 12.35058594 3.11645508 C9.59045322 3.07716663 6.83061409 3.04872703 4.07025146 3.03215027 C1.47460158 3.01624824 -1.12101224 2.98478463 -3.71624756 2.93574524 C-11.79806438 2.91172688 -17.30957587 3.689901 -23.65625 9.0390625 C-24.09324219 9.57917969 -24.53023437 10.11929687 -24.98046875 10.67578125 C-25.43035156 11.20816406 -25.88023438 11.74054687 -26.34375 12.2890625 C-31.30098958 20.05394219 -31.06552721 27.01803794 -30.9609375 36.046875 C-30.95533457 37.47176159 -30.95106777 38.896654 -30.94807434 40.32154846 C-30.93668028 44.05183172 -30.907261 47.78175841 -30.8739624 51.51190186 C-30.84314333 55.3262449 -30.82954385 59.14064617 -30.81445312 62.95507812 C-30.78238519 70.42464082 -30.73125593 77.89391086 -30.66796875 85.36328125 C-33.93520503 82.09604497 -33.80569327 79.08632501 -33.86083984 74.67358398 C-33.87690277 73.50484238 -33.8929657 72.33610077 -33.90951538 71.13194275 C-33.9540882 65.77179518 -33.99549013 60.41179369 -34.01806641 55.05151367 C-34.03135721 52.22989125 -34.05911939 49.4090004 -34.10009766 46.58764648 C-34.15928831 42.51143417 -34.17677624 38.43599529 -34.19140625 34.359375 C-34.21407562 33.10797226 -34.236745 31.85656952 -34.26010132 30.56724548 C-34.23906222 21.77665731 -32.79723328 14.8088591 -26.67782593 8.22068787 C-18.45606883 0.3912956 -10.97386945 -0.07997357 0 0 Z " fill="#000100" transform="translate(33.66796875,-0.36328125)"/>
<path d="M0 0 C16.17857143 0 16.17857143 0 21 3 C25.54729733 7.85045048 25.21197467 12.98532619 25.25 19.25 C25.270625 20.08402344 25.29125 20.91804688 25.3125 21.77734375 C25.34718909 27.30158134 24.61593713 31.11099128 22 36 C15.48463711 42.10815271 9.59403991 40 0 40 C0 26.8 0 13.6 0 0 Z M2 2 C2 13.88 2 25.76 2 38 C14.97100849 39.2004901 14.97100849 39.2004901 21 35 C24.20801265 30.23000739 24.46331829 26.11183264 24.375 20.5625 C24.38660156 19.83740234 24.39820312 19.11230469 24.41015625 18.36523438 C24.3823525 13.2076381 23.56036293 9.51138184 21 5 C14.97100849 0.7995099 14.97100849 0.7995099 2 2 Z " fill="#153F24" transform="translate(41,30)"/>
<path d="M0 0 C4.00161251 1.37198143 6.99362597 2.99362597 10 6 C10.8125 9.25 10.8125 9.25 11 12 C10.34 11.278125 9.68 10.55625 9 9.8125 C5.75863467 6.54311134 1.95625289 4.3069961 -2 2 C-1.34 1.34 -0.68 0.68 0 0 Z " fill="#021709" transform="translate(84,2)"/>
<path d="M0 0 C0.66 0.66 1.32 1.32 2 2 C1.60167969 2.45890625 1.20335937 2.9178125 0.79296875 3.390625 C-1.91142062 6.52271585 -4.57991771 9.63877459 -7 13 C-7.33 12.01 -7.66 11.02 -8 10 C-5.78310719 6.14096436 -3.25519625 3.02268223 0 0 Z " fill="#010F05" transform="translate(10,5)"/>
<path d="M0 0 C2.1723491 3.25852365 4.07119658 6.59244728 6 10 C4.125 9.6875 4.125 9.6875 2 9 C-0.29013653 5.5647952 -0.17842973 4.014669 0 0 Z " fill="#021B0A" transform="translate(3,81)"/>
</svg>
