<svg width="96" height="96" viewBox="0 0 96 96" fill="none" xmlns="http://www.w3.org/2000/svg">
    <rect width="96" height="96" rx="10" fill="#B7E8F9" />
    <path
        d="M76.3831 37.7859C74.9085 37.0248 73.5035 36.2068 72.2118 35.284L72.2052 35.2793L72.1984 35.2748C69.868 33.7216 67.755 32.0304 65.8556 30.131C64.0273 28.3026 62.3352 26.1888 60.8521 23.9991L60.8513 23.9979C59.9125 22.6209 59.0267 21.1292 58.194 19.6194C58.4325 19.5719 58.6727 19.5345 58.9394 19.4965L58.9395 19.4966L58.9498 19.4949C63.2687 18.7869 67.1351 18.6117 70.1138 18.805C71.604 18.9017 72.8611 19.0899 73.8365 19.3448C74.8256 19.6032 75.4618 19.9143 75.7786 20.2149C76.0924 20.5313 76.4151 21.1693 76.6819 22.1624C76.9451 23.142 77.1377 24.4046 77.2345 25.8985C77.4279 28.8847 77.2355 32.7496 76.4924 37.0318L76.4911 37.0392L76.4901 37.0467C76.4543 37.2976 76.4186 37.5467 76.3831 37.7859ZM49.3224 42.899L47.5231 44.7496L45.3853 42.6117C44.3342 41.5606 42.6624 41.5606 41.6113 42.6117C40.5602 43.6628 40.5602 45.3346 41.6113 46.3857L43.7491 48.5235L41.8986 50.3228L39.7508 48.175C38.7112 47.1354 37.0323 47.1099 36.0404 48.1827C34.9978 49.2333 34.9994 50.8975 36.0453 51.9462C36.0462 51.9471 36.0471 51.9481 36.048 51.949L38.1246 54.0868L36.5473 55.6641L36.5396 55.6718L36.5323 55.6798C35.5724 56.7268 35.5724 58.3754 36.5323 59.4224L36.5396 59.4304L36.5473 59.4381C37.5984 60.4892 39.2702 60.4892 40.3213 59.4381L41.8935 57.8658L44.0364 60.0087C45.0875 61.0598 46.7593 61.0598 47.8104 60.0087C48.8615 58.9576 48.8615 57.2858 47.8104 56.2347L45.6675 54.0918L47.528 52.2313L49.6637 54.367C50.6431 55.4252 52.3909 55.4277 53.3739 54.3745C54.4272 53.3914 54.4247 51.6437 53.3665 50.6642L51.2309 48.5284L53.0914 46.6679L55.2343 48.8108C56.2854 49.8619 57.9571 49.8619 59.0083 48.8108C60.0594 47.7597 60.0594 46.0879 59.0083 45.0368L56.8654 42.8939L58.4377 41.3217C59.4888 40.2706 59.4888 38.5988 58.4377 37.5477L58.43 37.54L58.422 37.5327C57.375 36.5728 55.7264 36.5728 54.6793 37.5327L54.6714 37.54L54.6637 37.5477L53.0863 39.125L50.9486 37.0484C50.9476 37.0475 50.9467 37.0465 50.9457 37.0456C49.897 35.9998 48.2328 35.9982 47.1822 37.0408C46.1094 38.0327 46.135 39.7116 47.1746 40.7512L49.3224 42.899ZM18.618 59.1942C20.1279 60.0272 21.6197 60.9127 22.9966 61.8514L22.9965 61.8515L23.0039 61.8564C25.2545 63.3332 27.2953 65.0218 29.1265 66.8525C30.9624 68.7594 32.6544 70.8044 34.1332 72.9877L34.1332 72.9877L34.1367 72.9928C35.135 74.4281 36.0196 75.8579 36.7927 77.3811C36.5509 77.417 36.2988 77.4531 36.0449 77.4893L36.0374 77.4903L36.0299 77.4916C31.7483 78.2347 27.8835 78.4273 24.8973 78.2341C23.4034 78.1375 22.1408 77.945 21.1611 77.6819C20.1679 77.4152 19.5299 77.0925 19.2136 76.7788C18.913 76.4619 18.6019 75.8257 18.3435 74.8368C18.0886 73.8614 17.9004 72.6043 17.8037 71.1142C17.6104 68.1355 17.7856 64.2691 18.4937 59.9499L18.4938 59.95L18.4952 59.9396C18.5333 59.6727 18.5706 59.4325 18.618 59.1942ZM25.9866 57.459L25.9845 57.4577C24.0797 56.1655 22.044 54.9359 19.8779 53.831C21.9525 46.5883 25.6734 38.9227 31.763 32.7632C37.924 26.6723 45.5918 22.9511 52.8355 20.8768C53.9362 22.9809 55.1634 25.0777 56.4575 26.9847L56.4589 26.9867C58.1855 29.505 60.0594 31.8116 62.1522 33.9044L62.1522 33.9044C64.2436 35.9953 66.6208 37.9406 69.2128 39.669C71.0542 40.9643 73.0831 42.1275 75.1778 43.1603C73.1019 50.4633 69.3137 58.0609 63.2222 64.2223C57.0594 70.3151 49.4594 74.1036 42.1556 76.1793C41.0637 74.0185 39.8932 71.913 38.5236 69.9949C36.798 67.4787 34.9251 65.1733 32.9042 63.1524C30.8115 61.0596 28.5048 59.1857 25.9866 57.459ZM58.0753 14.2282L58.0753 14.2282L58.0724 14.2287C48.303 15.8809 36.7844 20.2657 28.0601 29.0616C19.2659 37.8556 14.8811 49.3019 13.2287 59.0725H13.2287L13.2282 59.0754C12.4012 64.1449 12.3277 68.8453 12.7614 72.5953C12.9782 74.4699 13.3229 76.1165 13.7687 77.4575C14.2113 78.7888 14.767 79.8601 15.431 80.5444L15.431 80.5444L15.4363 80.5497C16.1219 81.2352 17.2002 81.8009 18.5381 82.2472C19.8857 82.6968 21.5397 83.0392 23.4189 83.2515C27.178 83.6762 31.8782 83.5846 36.9112 82.7577L36.9135 82.7573C46.6813 81.1054 58.2004 76.7927 66.9965 67.9966C75.7929 59.2007 80.1053 47.6811 81.7573 37.9136L81.7577 37.9112C82.5845 32.878 82.6762 28.1778 82.2516 24.4188C82.0393 22.5396 81.6969 20.8856 81.2473 19.5381C80.801 18.2003 80.2352 17.1219 79.5496 16.4363L79.5497 16.4363L79.5443 16.4311C78.8601 15.767 77.7888 15.2113 76.4574 14.7687C75.1164 14.3229 73.4699 13.9782 71.5952 13.7614C67.8453 13.3277 63.1449 13.4012 58.0753 14.2282Z"
        fill="#DC0045" stroke="white" />
</svg>