<svg width="128" height="128" viewBox="0 0 128 128" fill="none" xmlns="http://www.w3.org/2000/svg">
<rect width="128" height="128" fill="#F55A46"/>
<path d="M59.892 96H36.6889V30.5455H60.0838C66.6676 30.5455 72.3352 31.8558 77.0866 34.4766C81.8381 37.076 85.4922 40.8153 88.049 45.6946C90.6271 50.5739 91.9162 56.4119 91.9162 63.2088C91.9162 70.027 90.6271 75.8864 88.049 80.7869C85.4922 85.6875 81.8168 89.4482 77.0227 92.0689C72.25 94.6896 66.5398 96 59.892 96ZM50.5277 84.1428H59.3168C63.4077 84.1428 66.8487 83.4183 69.6399 81.9695C72.4524 80.4993 74.5618 78.2301 75.968 75.1619C77.3956 72.0724 78.1094 68.0881 78.1094 63.2088C78.1094 58.3722 77.3956 54.4197 75.968 51.3516C74.5618 48.2834 72.4631 46.0249 69.6719 44.576C66.8807 43.1271 63.4396 42.4027 59.3487 42.4027H50.5277V84.1428Z" fill="white"/>
</svg>
