<?xml version="1.0" encoding="UTF-8"?>
<svg version="1.1" xmlns="http://www.w3.org/2000/svg" width="32" height="32">
<path d="M0 0 C4.8846525 2.26787438 7.73212562 5.1153475 10 10 C10.75381535 15.5997712 10.77303575 20.33499991 8.375 25.5 C3.80134327 30.3143755 0.6912538 32.25156236 -6 32.5 C-12.6912538 32.25156236 -15.80134327 30.3143755 -20.375 25.5 C-22.77303575 20.33499991 -22.75381535 15.5997712 -22 10 C-17.52212837 0.3553534 -9.85292056 -1.32635469 0 0 Z " fill="#F55B46" transform="translate(22,0)"/>
<path d="M0 0 C1.77007714 -0.08114106 3.54122098 -0.13925505 5.3125 -0.1875 C6.29863281 -0.22230469 7.28476562 -0.25710937 8.30078125 -0.29296875 C11 0 11 0 12.83203125 1.30078125 C14.79945049 4.16308014 14.34759566 6.63990861 14 10 C12.34860695 13.5386994 11.28394771 14.81070153 8 17 C5.51953125 17.1953125 5.51953125 17.1953125 2.8125 17.125 C1.91144531 17.10695313 1.01039062 17.08890625 0.08203125 17.0703125 C-0.60503906 17.04710938 -1.29210938 17.02390625 -2 17 C-2.25287193 10.93107371 -1.69832609 5.83799592 0 0 Z " fill="#FEF2F0" transform="translate(11,7)"/>
<path d="M0 0 C1.99954746 -0.04254356 4.00041636 -0.04080783 6 0 C7 1 7 1 7.25 3.8125 C6.9742861 7.32785226 6.61353342 8.65683211 4 11 C1.3125 11.25 1.3125 11.25 -1 11 C-1.14285714 3.57142857 -1.14285714 3.57142857 0 0 Z " fill="#F6604B" transform="translate(14,10)"/>
</svg>
