<svg width="128" height="128" viewBox="0 0 128 128" fill="none" xmlns="http://www.w3.org/2000/svg">
<rect width="128" height="128" fill="#538D4E"/>
<path d="M34.4993 96.8949C29.7266 96.8949 25.4759 96.0746 21.7472 94.4339C18.0398 92.772 15.1101 90.4922 12.9581 87.5945C10.8274 84.6754 9.73011 81.3089 9.66619 77.495H23.6009C23.6861 79.093 24.2081 80.4993 25.1669 81.7138C26.147 82.907 27.4467 83.8338 29.0661 84.4943C30.6854 85.1548 32.5071 85.4851 34.5312 85.4851C36.6406 85.4851 38.505 85.1122 40.1243 84.3665C41.7436 83.6207 43.0114 82.5874 43.9276 81.2663C44.8438 79.9453 45.3018 78.4219 45.3018 76.696C45.3018 74.9489 44.8118 73.4041 43.8317 72.0618C42.8729 70.6982 41.4879 69.6328 39.6768 68.8658C37.8871 68.0987 35.7564 67.7152 33.2848 67.7152H27.1804V57.5518H33.2848C35.3729 57.5518 37.2159 57.1896 38.8139 56.4652C40.4332 55.7408 41.6903 54.7393 42.5852 53.4609C43.4801 52.1612 43.9276 50.6484 43.9276 48.9226C43.9276 47.282 43.5334 45.8438 42.745 44.608C41.978 43.3509 40.8913 42.3707 39.4851 41.6676C38.1001 40.9645 36.4808 40.6129 34.6271 40.6129C32.7521 40.6129 31.0369 40.9538 29.4815 41.6357C27.9261 42.2962 26.6797 43.2443 25.7422 44.4801C24.8047 45.7159 24.304 47.1648 24.2401 48.8267H10.9766C11.0405 45.0554 12.1165 41.7315 14.2045 38.8551C16.2926 35.9787 19.1051 33.7308 22.642 32.1115C26.2003 30.4709 30.2166 29.6506 34.6911 29.6506C39.2081 29.6506 43.1605 30.4709 46.5483 32.1115C49.9361 33.7521 52.5675 35.968 54.4425 38.7592C56.3388 41.5291 57.2763 44.6399 57.255 48.0916C57.2763 51.7564 56.1364 54.8139 53.8352 57.2642C51.5554 59.7145 48.5831 61.2699 44.9183 61.9304V62.4418C49.7337 63.0597 53.3984 64.7322 55.9126 67.4595C58.4482 70.1655 59.7053 73.5533 59.6839 77.6229C59.7053 81.3516 58.6293 84.6648 56.456 87.5625C54.304 90.4602 51.3317 92.7401 47.5391 94.402C43.7464 96.0639 39.3999 96.8949 34.4993 96.8949ZM69.6316 96V86.0284L92.9306 64.4553C94.9121 62.5376 96.574 60.8118 97.9164 59.2777C99.28 57.7436 100.313 56.2415 101.017 54.7713C101.72 53.2798 102.071 51.6712 102.071 49.9453C102.071 48.0277 101.634 46.3764 100.761 44.9915C99.8873 43.5852 98.6941 42.5092 97.1813 41.7635C95.6685 40.9964 93.9533 40.6129 92.0357 40.6129C90.0328 40.6129 88.2857 41.0178 86.7942 41.8274C85.3027 42.6371 84.1522 43.7983 83.3425 45.3111C82.5328 46.8239 82.128 48.6243 82.128 50.7124H68.9924C68.9924 46.4297 69.9618 42.7116 71.9007 39.5582C73.8397 36.4048 76.5563 33.9652 80.0506 32.2393C83.5449 30.5135 87.5719 29.6506 92.1316 29.6506C96.8191 29.6506 100.899 30.4815 104.372 32.1435C107.867 33.7841 110.583 36.0639 112.522 38.983C114.461 41.902 115.431 45.2472 115.431 49.0185C115.431 51.4901 114.941 53.9297 113.96 56.3374C113.002 58.745 111.286 61.419 108.815 64.3594C106.343 67.2784 102.86 70.7834 98.3638 74.8743L88.8077 84.2386V84.6861H116.294V96H69.6316Z" fill="white"/>
</svg>
