<?xml version="1.0" encoding="UTF-8"?>
<svg version="1.1" xmlns="http://www.w3.org/2000/svg" width="600" height="600">
<path d="M0 0 C6.27 0 12.54 0 19 0 C19 0.66 19 1.32 19 2 C20.32 2 21.64 2 23 2 C23 2.66 23 3.32 23 4 C23.66 4 24.32 4 25 4 C25 4.66 25 5.32 25 6 C25.66 6 26.32 6 27 6 C27 6.66 27 7.32 27 8 C27.66 8 28.32 8 29 8 C29 8.66 29 9.32 29 10 C29.66 10 30.32 10 31 10 C31 10.66 31 11.32 31 12 C31.66 12 32.32 12 33 12 C33 12.66 33 13.32 33 14 C34.32 14 35.64 14 37 14 C37 14.66 37 15.32 37 16 C37.66 16 38.32 16 39 16 C39 16.66 39 17.32 39 18 C39.66 18 40.32 18 41 18 C41 19.32 41 20.64 41 22 C41.66 22 42.32 22 43 22 C43 23.32 43 24.64 43 26 C43.66 26 44.32 26 45 26 C45 26.66 45 27.32 45 28 C45.66 28 46.32 28 47 28 C47 29.98 47 31.96 47 34 C47.66 34 48.32 34 49 34 C49 35.32 49 36.64 49 38 C49.66 38 50.32 38 51 38 C51 39.32 51 40.64 51 42 C51.66 42 52.32 42 53 42 C53 43.98 53 45.96 53 48 C53.66 48 54.32 48 55 48 C55.33 48.66 55.66 49.32 56 50 C57.32 50 58.64 50 60 50 C60 49.34 60 48.68 60 48 C61.32 48 62.64 48 64 48 C64 47.34 64 46.68 64 46 C65.98 46 67.96 46 70 46 C70 45.34 70 44.68 70 44 C71.98 44 73.96 44 76 44 C76 43.34 76 42.68 76 42 C77.98 42 79.96 42 82 42 C82 41.34 82 40.68 82 40 C84.64 40 87.28 40 90 40 C90 39.34 90 38.68 90 38 C92.64 38 95.28 38 98 38 C98 37.34 98 36.68 98 36 C103.28 36 108.56 36 114 36 C114 35.34 114 34.68 114 34 C119.94 34 125.88 34 132 34 C132 33.34 132 32.68 132 32 C140.91 32 149.82 32 159 32 C159 32.66 159 33.32 159 34 C164.94 34 170.88 34 177 34 C177 34.66 177 35.32 177 36 C178.32 36 179.64 36 181 36 C181 36.66 181 37.32 181 38 C182.32 38 183.64 38 185 38 C185 38.66 185 39.32 185 40 C188.3 40 191.6 40 195 40 C195 40.66 195 41.32 195 42 C196.32 42 197.64 42 199 42 C199 42.66 199 43.32 199 44 C199.66 44 200.32 44 201 44 C201 45.32 201 46.64 201 48 C201.66 48 202.32 48 203 48 C203 48.66 203 49.32 203 50 C203.66 50 204.32 50 205 50 C205 51.32 205 52.64 205 54 C205.66 54 206.32 54 207 54 C207 55.32 207 56.64 207 58 C207.66 58 208.32 58 209 58 C209 59.32 209 60.64 209 62 C209.66 62 210.32 62 211 62 C211 77.51 211 93.02 211 109 C210.34 109 209.68 109 209 109 C209 110.98 209 112.96 209 115 C208.34 115 207.68 115 207 115 C207 116.32 207 117.64 207 119 C206.34 119 205.68 119 205 119 C205 120.32 205 121.64 205 123 C204.34 123 203.68 123 203 123 C203 124.32 203 125.64 203 127 C202.34 127 201.68 127 201 127 C201 128.32 201 129.64 201 131 C200.34 131 199.68 131 199 131 C199 132.32 199 133.64 199 135 C198.34 135 197.68 135 197 135 C197 136.32 197 137.64 197 139 C196.34 139 195.68 139 195 139 C195 140.32 195 141.64 195 143 C194.34 143 193.68 143 193 143 C192.74605469 143.8353125 192.49210937 144.670625 192.23046875 145.53125 C190.87503916 149.35227056 189.15873837 152.90091446 187.3125 156.5 C186.59079187 157.91909087 185.86944448 159.33836526 185.1484375 160.7578125 C184.60654785 161.82177246 184.60654785 161.82177246 184.05371094 162.90722656 C183.0687755 164.86340509 182.11060399 166.82970224 181.1640625 168.8046875 C177.73460509 175.89637093 174.21900492 183.02361969 169 189 C168.34 189 167.68 189 167 189 C166.34 190.98 165.68 192.96 165 195 C164.34 195 163.68 195 163 195 C163 195.66 163 196.32 163 197 C162.34 197 161.68 197 161 197 C160.71125 197.763125 160.4225 198.52625 160.125 199.3125 C159 202 159 202 157 205 C156.34 205 155.68 205 155 205 C155 205.66 155 206.32 155 207 C154.34 207 153.68 207 153 207 C153 207.66 153 208.32 153 209 C152.34 209 151.68 209 151 209 C151 209.66 151 210.32 151 211 C150.34 211 149.68 211 149 211 C148.731875 211.598125 148.46375 212.19625 148.1875 212.8125 C147.00691239 214.98726664 145.73183488 216.26816512 144 218 C143.67 218.99 143.34 219.98 143 221 C142.34 221 141.68 221 141 221 C140.7525 221.61875 140.505 222.2375 140.25 222.875 C138.79371361 225.35068687 137.62187494 225.95125002 135 227 C135 227.66 135 228.32 135 229 C134.34 229 133.68 229 133 229 C133 230.32 133 231.64 133 233 C132.34 233 131.68 233 131 233 C131 233.99 131 234.98 131 236 C131.66 236 132.32 236 133 236 C133 237.32 133 238.64 133 240 C133.66 240 134.32 240 135 240 C135 241.32 135 242.64 135 244 C135.66 244 136.32 244 137 244 C137 244.66 137 245.32 137 246 C137.66 246 138.32 246 139 246 C139 247.32 139 248.64 139 250 C139.66 250 140.32 250 141 250 C141 251.32 141 252.64 141 254 C141.66 254 142.32 254 143 254 C143 255.32 143 256.64 143 258 C143.66 258 144.32 258 145 258 C145 259.32 145 260.64 145 262 C145.66 262 146.32 262 147 262 C147 263.32 147 264.64 147 266 C147.66 266 148.32 266 149 266 C149 267.32 149 268.64 149 270 C149.66 270 150.32 270 151 270 C151 271.32 151 272.64 151 274 C151.66 274 152.32 274 153 274 C153 275.98 153 277.96 153 280 C153.66 280 154.32 280 155 280 C155 281.32 155 282.64 155 284 C155.66 284 156.32 284 157 284 C157 285.32 157 286.64 157 288 C157.66 288 158.32 288 159 288 C159 289.32 159 290.64 159 292 C159.66 292 160.32 292 161 292 C161 293.98 161 295.96 161 298 C161.66 298 162.32 298 163 298 C163 299.98 163 301.96 163 304 C163.66 304 164.32 304 165 304 C165 307.3 165 310.6 165 314 C165.66 314 166.32 314 167 314 C167 317.3 167 320.6 167 324 C167.66 324 168.32 324 169 324 C169 337.53 169 351.06 169 365 C168.34 365 167.68 365 167 365 C167 365.66 167 366.32 167 367 C166.34 367 165.68 367 165 367 C165 368.32 165 369.64 165 371 C164.34 371 163.68 371 163 371 C163 371.66 163 372.32 163 373 C162.34 373 161.68 373 161 373 C161 374.32 161 375.64 161 377 C160.34 377 159.68 377 159 377 C159 377.66 159 378.32 159 379 C158.34 379 157.68 379 157 379 C157 379.66 157 380.32 157 381 C156.34 381 155.68 381 155 381 C155 381.66 155 382.32 155 383 C154.34 383 153.68 383 153 383 C153 383.66 153 384.32 153 385 C151.68 385 150.36 385 149 385 C149 385.66 149 386.32 149 387 C147.02 387 145.04 387 143 387 C143 387.66 143 388.32 143 389 C141.02 389 139.04 389 137 389 C137 389.66 137 390.32 137 391 C127.1 392.485 127.1 392.485 117 394 C117 396.31 117 398.62 117 401 C115.02 401 113.04 401 111 401 C111 401.66 111 402.32 111 403 C108.03 403 105.06 403 102 403 C102 402.34 102 401.68 102 401 C96.06 401 90.12 401 84 401 C84 400.34 84 399.68 84 399 C81.36 399 78.72 399 76 399 C76 398.34 76 397.68 76 397 C73.69 397 71.38 397 69 397 C69 398.98 69 400.96 69 403 C68.34 403 67.68 403 67 403 C67 405.64 67 408.28 67 411 C66.34 411 65.68 411 65 411 C65 414.96 65 418.92 65 423 C64.34 423 63.68 423 63 423 C63 424.32 63 425.64 63 427 C61.68 427 60.36 427 59 427 C59 427.66 59 428.32 59 429 C58.34 429 57.68 429 57 429 C57 429.66 57 430.32 57 431 C56.34 431 55.68 431 55 431 C55 432.98 55 434.96 55 437 C53.68 437 52.36 437 51 437 C51 438.32 51 439.64 51 441 C50.34 441 49.68 441 49 441 C49 441.66 49 442.32 49 443 C48.34 443 47.68 443 47 443 C47 443.66 47 444.32 47 445 C45.68 445 44.36 445 43 445 C43 445.66 43 446.32 43 447 C41.68 447 40.36 447 39 447 C39 447.66 39 448.32 39 449 C19.53 449 0.06 449 -20 449 C-20 448.34 -20 447.68 -20 447 C-21.32 447 -22.64 447 -24 447 C-24 446.34 -24 445.68 -24 445 C-25.98 445 -27.96 445 -30 445 C-30 444.34 -30 443.68 -30 443 C-30.66 443 -31.32 443 -32 443 C-32 442.34 -32 441.68 -32 441 C-32.66 441 -33.32 441 -34 441 C-34 440.34 -34 439.68 -34 439 C-35.32 439 -36.64 439 -38 439 C-38 438.34 -38 437.68 -38 437 C-38.66 437 -39.32 437 -40 437 C-40 436.34 -40 435.68 -40 435 C-41.32 435 -42.64 435 -44 435 C-44 434.34 -44 433.68 -44 433 C-45.32 433 -46.64 433 -48 433 C-48 432.34 -48 431.68 -48 431 C-48.66 431 -49.32 431 -50 431 C-50 430.34 -50 429.68 -50 429 C-50.66 429 -51.32 429 -52 429 C-52 428.34 -52 427.68 -52 427 C-52.66 427 -53.32 427 -54 427 C-54 425.68 -54 424.36 -54 423 C-54.66 423 -55.32 423 -56 423 C-56 422.34 -56 421.68 -56 421 C-56.66 421 -57.32 421 -58 421 C-58 419.68 -58 418.36 -58 417 C-58.66 417 -59.32 417 -60 417 C-60 416.34 -60 415.68 -60 415 C-60.66 415 -61.32 415 -62 415 C-62 413.68 -62 412.36 -62 411 C-62.66 411 -63.32 411 -64 411 C-64 409.02 -64 407.04 -64 405 C-64.66 405 -65.32 405 -66 405 C-66 403.68 -66 402.36 -66 401 C-66.66 401 -67.32 401 -68 401 C-68.33 400.34 -68.66 399.68 -69 399 C-70.32 399 -71.64 399 -73 399 C-73 399.66 -73 400.32 -73 401 C-73.66 401 -74.32 401 -75 401 C-75 401.66 -75 402.32 -75 403 C-76.32 403 -77.64 403 -79 403 C-79 403.66 -79 404.32 -79 405 C-80.32 405 -81.64 405 -83 405 C-83 405.66 -83 406.32 -83 407 C-83.66 407 -84.32 407 -85 407 C-85 407.66 -85 408.32 -85 409 C-86.32 409 -87.64 409 -89 409 C-89 409.66 -89 410.32 -89 411 C-90.32 411 -91.64 411 -93 411 C-93 411.66 -93 412.32 -93 413 C-94.32 413 -95.64 413 -97 413 C-97 413.66 -97 414.32 -97 415 C-97.66 415 -98.32 415 -99 415 C-99 415.66 -99 416.32 -99 417 C-100.98 417 -102.96 417 -105 417 C-105 417.66 -105 418.32 -105 419 C-106.32 419 -107.64 419 -109 419 C-109 419.66 -109 420.32 -109 421 C-110.98 421 -112.96 421 -115 421 C-115 421.66 -115 422.32 -115 423 C-126.88 423 -138.76 423 -151 423 C-151 423.66 -151 424.32 -151 425 C-160.57 425 -170.14 425 -180 425 C-180 424.34 -180 423.68 -180 423 C-181.32 423 -182.64 423 -184 423 C-184 422.34 -184 421.68 -184 421 C-185.32 421 -186.64 421 -188 421 C-188 420.34 -188 419.68 -188 419 C-189.32 419 -190.64 419 -192 419 C-192 418.34 -192 417.68 -192 417 C-192.66 417 -193.32 417 -194 417 C-194 416.34 -194 415.68 -194 415 C-194.66 415 -195.32 415 -196 415 C-196 414.34 -196 413.68 -196 413 C-197.98 413 -199.96 413 -202 413 C-202 412.34 -202 411.68 -202 411 C-202.66 411 -203.32 411 -204 411 C-204 410.34 -204 409.68 -204 409 C-204.66 409 -205.32 409 -206 409 C-206 407.68 -206 406.36 -206 405 C-206.66 405 -207.32 405 -208 405 C-208 404.01 -208 403.02 -208 402 C-208.5775 401.814375 -209.155 401.62875 -209.75 401.4375 C-213.14462336 399.26871285 -214.20497313 396.59005374 -216 393 C-216 392.34 -216 391.68 -216 391 C-216.66 391 -217.32 391 -218 391 C-218 389.68 -218 388.36 -218 387 C-218.66 387 -219.32 387 -220 387 C-223.70408308 373.98610098 -224.39880981 361.31878081 -224.375 347.875 C-224.3764502 347.0681778 -224.37790039 346.26135559 -224.37939453 345.43008423 C-224.37764317 336.80232559 -224.28321608 328.38930833 -222 320 C-221.34 320 -220.68 320 -220 320 C-220 317.36 -220 314.72 -220 312 C-219.34 312 -218.68 312 -218 312 C-218 310.02 -218 308.04 -218 306 C-217.34 306 -216.68 306 -216 306 C-216 304.02 -216 302.04 -216 300 C-215.34 300 -214.68 300 -214 300 C-214 298.68 -214 297.36 -214 296 C-213.34 296 -212.68 296 -212 296 C-212 294.68 -212 293.36 -212 292 C-211.34 292 -210.68 292 -210 292 C-210 290.68 -210 289.36 -210 288 C-209.34 288 -208.68 288 -208 288 C-208 286.68 -208 285.36 -208 284 C-207.34 284 -206.68 284 -206 284 C-206 282.68 -206 281.36 -206 280 C-205.34 280 -204.68 280 -204 280 C-204 278.68 -204 277.36 -204 276 C-203.34 276 -202.68 276 -202 276 C-202 274.68 -202 273.36 -202 272 C-201.34 272 -200.68 272 -200 272 C-200 271.34 -200 270.68 -200 270 C-199.34 270 -198.68 270 -198 270 C-198 268.68 -198 267.36 -198 266 C-197.34 266 -196.68 266 -196 266 C-196 265.34 -196 264.68 -196 264 C-195.34 264 -194.68 264 -194 264 C-194 262.68 -194 261.36 -194 260 C-193.34 260 -192.68 260 -192 260 C-192 259.34 -192 258.68 -192 258 C-191.34 258 -190.68 258 -190 258 C-190 256.68 -190 255.36 -190 254 C-189.34 254 -188.68 254 -188 254 C-188 253.34 -188 252.68 -188 252 C-187.34 252 -186.68 252 -186 252 C-186 251.34 -186 250.68 -186 250 C-185.34 250 -184.68 250 -184 250 C-184 248.68 -184 247.36 -184 246 C-183.34 246 -182.68 246 -182 246 C-182 245.34 -182 244.68 -182 244 C-181.34 244 -180.68 244 -180 244 C-180 243.34 -180 242.68 -180 242 C-179.34 242 -178.68 242 -178 242 C-178 241.34 -178 240.68 -178 240 C-177.34 240 -176.68 240 -176 240 C-176 239.34 -176 238.68 -176 238 C-175.34 238 -174.68 238 -174 238 C-174 237.34 -174 236.68 -174 236 C-173.34 236 -172.68 236 -172 236 C-172 235.34 -172 234.68 -172 234 C-171.34 234 -170.68 234 -170 234 C-170 233.34 -170 232.68 -170 232 C-169.34 232 -168.68 232 -168 232 C-168 231.34 -168 230.68 -168 230 C-167.34 230 -166.68 230 -166 230 C-166 229.34 -166 228.68 -166 228 C-165.01 227.67 -164.02 227.34 -163 227 C-161.48602264 225.58313083 -161.48602264 225.58313083 -160 223.75 C-159.39542969 223.03972656 -158.79085937 222.32945312 -158.16796875 221.59765625 C-157.00011541 220.19833648 -155.83252458 218.79879647 -154.66650391 217.39794922 C-153.70425742 216.24292446 -152.74052122 215.08913935 -151.77539062 213.93652344 C-150.81521109 212.78853842 -149.85932496 211.6369459 -148.90820312 210.48144531 C-146.48873459 207.58330494 -144.14770718 205.10092868 -141 203 C-141.33 201.02 -141.66 199.04 -142 197 C-142.66 197 -143.32 197 -144 197 C-144 195.68 -144 194.36 -144 193 C-144.66 193 -145.32 193 -146 193 C-146 192.34 -146 191.68 -146 191 C-146.66 191 -147.32 191 -148 191 C-148 189.68 -148 188.36 -148 187 C-148.66 187 -149.32 187 -150 187 C-150 185.68 -150 184.36 -150 183 C-150.66 183 -151.32 183 -152 183 C-152 181.68 -152 180.36 -152 179 C-152.66 179 -153.32 179 -154 179 C-154.020625 177.80375 -154.04125 176.6075 -154.0625 175.375 C-154.56194444 170.63784519 -156.31714671 166.71054661 -158.4375 162.5 C-158.75017822 161.87657715 -159.06285645 161.2531543 -159.38500977 160.61083984 C-161.047525 157.19916678 -161.047525 157.19916678 -164 155 C-164 154.34 -164 153.68 -164 153 C-164.66 153 -165.32 153 -166 153 C-166 151.68 -166 150.36 -166 149 C-166.66 149 -167.32 149 -168 149 C-168.09796875 148.40574219 -168.1959375 147.81148437 -168.296875 147.19921875 C-169.1462264 142.49117607 -170.2368265 138.10148543 -171.9375 133.625 C-175.22530803 124.93929818 -177.22925186 116.24897773 -178 107 C-178.66 107 -179.32 107 -180 107 C-180 101.72 -180 96.44 -180 91 C-180.66 91 -181.32 91 -182 91 C-182 85.39 -182 79.78 -182 74 C-181.34 74 -180.68 74 -180 74 C-180 72.02 -180 70.04 -180 68 C-179.34 68 -178.68 68 -178 68 C-178 66.68 -178 65.36 -178 64 C-177.34 64 -176.68 64 -176 64 C-176 63.34 -176 62.68 -176 62 C-174.68 62 -173.36 62 -172 62 C-172 61.34 -172 60.68 -172 60 C-170.68 60 -169.36 60 -168 60 C-168 59.34 -168 58.68 -168 58 C-165.36 58 -162.72 58 -160 58 C-160 57.34 -160 56.68 -160 56 C-158.68 56 -157.36 56 -156 56 C-156 55.34 -156 54.68 -156 54 C-154.68 54 -153.36 54 -152 54 C-152 53.34 -152 52.68 -152 52 C-150.68 52 -149.36 52 -148 52 C-148 51.34 -148 50.68 -148 50 C-147.34 50 -146.68 50 -146 50 C-146 49.34 -146 48.68 -146 48 C-144.68 48 -143.36 48 -142 48 C-142 47.34 -142 46.68 -142 46 C-141.34 46 -140.68 46 -140 46 C-140 45.34 -140 44.68 -140 44 C-138.02 44 -136.04 44 -134 44 C-134 43.34 -134 42.68 -134 42 C-131.36 42 -128.72 42 -126 42 C-126 41.34 -126 40.68 -126 40 C-122.37 40 -118.74 40 -115 40 C-115 40.66 -115 41.32 -115 42 C-110.38 42 -105.76 42 -101 42 C-101 42.66 -101 43.32 -101 44 C-99.68 44 -98.36 44 -97 44 C-97 44.66 -97 45.32 -97 46 C-89.08 46 -81.16 46 -73 46 C-73 47.32 -73 48.64 -73 50 C-69.34543185 50.75241109 -65.68266103 51.40049704 -62 52 C-62 51.34 -62 50.68 -62 50 C-61.34 50 -60.68 50 -60 50 C-60 49.34 -60 48.68 -60 48 C-59.34 48 -58.68 48 -58 48 C-58 46.68 -58 45.36 -58 44 C-57.34 44 -56.68 44 -56 44 C-56 43.34 -56 42.68 -56 42 C-55.34 42 -54.68 42 -54 42 C-54 41.34 -54 40.68 -54 40 C-53.34 40 -52.68 40 -52 40 C-52 39.34 -52 38.68 -52 38 C-51.34 38 -50.68 38 -50 38 C-50 37.34 -50 36.68 -50 36 C-49.34 36 -48.68 36 -48 36 C-48 34.68 -48 33.36 -48 32 C-47.34 32 -46.68 32 -46 32 C-46 31.34 -46 30.68 -46 30 C-45.34 30 -44.68 30 -44 30 C-44 29.34 -44 28.68 -44 28 C-43.34 28 -42.68 28 -42 28 C-42 27.34 -42 26.68 -42 26 C-41.34 26 -40.68 26 -40 26 C-40 25.34 -40 24.68 -40 24 C-39.34 24 -38.68 24 -38 24 C-38 23.34 -38 22.68 -38 22 C-37.34 22 -36.68 22 -36 22 C-36 21.34 -36 20.68 -36 20 C-35.34 20 -34.68 20 -34 20 C-34 19.34 -34 18.68 -34 18 C-32.68 18 -31.36 18 -30 18 C-30 17.34 -30 16.68 -30 16 C-29.34 16 -28.68 16 -28 16 C-28 15.34 -28 14.68 -28 14 C-26.68 14 -25.36 14 -24 14 C-24 13.34 -24 12.68 -24 12 C-23.34 12 -22.68 12 -22 12 C-22 11.34 -22 10.68 -22 10 C-20.68 10 -19.36 10 -18 10 C-18 9.34 -18 8.68 -18 8 C-17.34 8 -16.68 8 -16 8 C-16 7.34 -16 6.68 -16 6 C-14.68 6 -13.36 6 -12 6 C-12 5.34 -12 4.68 -12 4 C-10.02 4 -8.04 4 -6 4 C-6 3.34 -6 2.68 -6 2 C-4.02 2 -2.04 2 0 2 C0 1.34 0 0.68 0 0 Z M7 7 C7 7.66 7 8.32 7 9 C5.02 9 3.04 9 1 9 C1 9.66 1 10.32 1 11 C-0.98 11 -2.96 11 -5 11 C-5 11.66 -5 12.32 -5 13 C-6.32 13 -7.64 13 -9 13 C-9 13.66 -9 14.32 -9 15 C-9.66 15 -10.32 15 -11 15 C-11 15.66 -11 16.32 -11 17 C-12.32 17 -13.64 17 -15 17 C-15 17.66 -15 18.32 -15 19 C-16.32 19 -17.64 19 -19 19 C-19 19.66 -19 20.32 -19 21 C-19.66 21 -20.32 21 -21 21 C-21 21.66 -21 22.32 -21 23 C-22.32 23 -23.64 23 -25 23 C-25 23.66 -25 24.32 -25 25 C-25.66 25 -26.32 25 -27 25 C-27 25.66 -27 26.32 -27 27 C-27.66 27 -28.32 27 -29 27 C-29 27.66 -29 28.32 -29 29 C-29.66 29 -30.32 29 -31 29 C-31 29.66 -31 30.32 -31 31 C-31.66 31 -32.32 31 -33 31 C-33 31.66 -33 32.32 -33 33 C-33.66 33 -34.32 33 -35 33 C-35 33.66 -35 34.32 -35 35 C-35.66 35 -36.32 35 -37 35 C-37 35.66 -37 36.32 -37 37 C-37.66 37 -38.32 37 -39 37 C-39 37.66 -39 38.32 -39 39 C-39.66 39 -40.32 39 -41 39 C-41 40.32 -41 41.64 -41 43 C-41.66 43 -42.32 43 -43 43 C-43 43.66 -43 44.32 -43 45 C-43.66 45 -44.32 45 -45 45 C-45 45.66 -45 46.32 -45 47 C-45.66 47 -46.32 47 -47 47 C-47 47.66 -47 48.32 -47 49 C-47.66 49 -48.32 49 -49 49 C-49 49.66 -49 50.32 -49 51 C-49.66 51 -50.32 51 -51 51 C-51 52.32 -51 53.64 -51 55 C-50.03320312 55.29132813 -49.06640625 55.58265625 -48.0703125 55.8828125 C-40.91658742 58.10896848 -34.55859515 60.48501863 -28.21875 64.57421875 C-22.03801854 68.60086226 -22.03801854 68.60086226 -15 70 C-15 70.66 -15 71.32 -15 72 C-13.68 72 -12.36 72 -11 72 C-11 72.66 -11 73.32 -11 74 C-9.68 74 -8.36 74 -7 74 C-7 74.66 -7 75.32 -7 76 C-6.34 76 -5.68 76 -5 76 C-5 76.66 -5 77.32 -5 78 C-3.68 78 -2.36 78 -1 78 C-1 78.66 -1 79.32 -1 80 C-0.34 80 0.32 80 1 80 C1.33 80.66 1.66 81.32 2 82 C2 81.34 2 80.68 2 80 C2.66 80 3.32 80 4 80 C4 79.34 4 78.68 4 78 C5.32 78 6.64 78 8 78 C8 77.34 8 76.68 8 76 C8.66 76 9.32 76 10 76 C10 75.34 10 74.68 10 74 C11.32 74 12.64 74 14 74 C14 73.34 14 72.68 14 72 C15.32 72 16.64 72 18 72 C18 71.34 18 70.68 18 70 C18.66 70 19.32 70 20 70 C20 69.34 20 68.68 20 68 C21.32 68 22.64 68 24 68 C24 67.34 24 66.68 24 66 C25.32 66 26.64 66 28 66 C28 65.34 28 64.68 28 64 C29.32 64 30.64 64 32 64 C32 63.34 32 62.68 32 62 C33.32 62 34.64 62 36 62 C36 61.34 36 60.68 36 60 C37.32 60 38.64 60 40 60 C40 59.34 40 58.68 40 58 C41.32 58 42.64 58 44 58 C44 57.34 44 56.68 44 56 C45.32 55.67 46.64 55.34 48 55 C47.34 55 46.68 55 46 55 C46 53.02 46 51.04 46 49 C45.34 49 44.68 49 44 49 C44 47.68 44 46.36 44 45 C43.34 45 42.68 45 42 45 C42 43.02 42 41.04 42 39 C41.34 39 40.68 39 40 39 C40 37.68 40 36.36 40 35 C39.34 35 38.68 35 38 35 C38 33.68 38 32.36 38 31 C37.34 31 36.68 31 36 31 C36 30.34 36 29.68 36 29 C35.34 29 34.68 29 34 29 C34 27.68 34 26.36 34 25 C33.34 25 32.68 25 32 25 C32 24.34 32 23.68 32 23 C31.34 23 30.68 23 30 23 C30 22.34 30 21.68 30 21 C29.34 21 28.68 21 28 21 C28 20.34 28 19.68 28 19 C27.34 19 26.68 19 26 19 C26 21.31 26 23.62 26 26 C21.71 26 17.42 26 13 26 C13 23.36 13 20.72 13 18 C16.63 18 20.26 18 24 18 C23.01 17.505 23.01 17.505 22 17 C22 16.34 22 15.68 22 15 C21.34 15 20.68 15 20 15 C20 14.34 20 13.68 20 13 C19.34 13 18.68 13 18 13 C18 12.34 18 11.68 18 11 C17.34 11 16.68 11 16 11 C16 10.34 16 9.68 16 9 C14.68 9 13.36 9 12 9 C12 8.34 12 7.68 12 7 C10.35 7 8.7 7 7 7 Z M115 47 C115 47.66 115 48.32 115 49 C111.04 49 107.08 49 103 49 C103 49.66 103 50.32 103 51 C101.02 51 99.04 51 97 51 C97 51.66 97 52.32 97 53 C95.02 53 93.04 53 91 53 C91 53.66 91 54.32 91 55 C89.98679687 54.96519531 89.98679687 54.96519531 88.953125 54.9296875 C88.06109375 54.91164063 87.1690625 54.89359375 86.25 54.875 C84.92742187 54.84019531 84.92742187 54.84019531 83.578125 54.8046875 C80.8864142 55.00860498 79.30095026 55.63448279 77 57 C77 57.66 77 58.32 77 59 C76.34 59 75.68 59 75 59 C75 59.66 75 60.32 75 61 C74.34 61 73.68 61 73 61 C73 61.66 73 62.32 73 63 C70.98177083 62.70703125 68.96354167 62.4140625 66.9453125 62.12109375 C64.91859333 61.8315703 64.91859333 61.8315703 63 63 C63 63.66 63 64.32 63 65 C62.34 65 61.68 65 61 65 C61 66.65 61 68.3 61 70 C61.66 70 62.32 70 63 70 C63 71.98 63 73.96 63 76 C63.66 76 64.32 76 65 76 C65 77.98 65 79.96 65 82 C65.66 82 66.32 82 67 82 C67 83.98 67 85.96 67 88 C67.66 88 68.32 88 69 88 C69 89.98 69 91.96 69 94 C69.66 94 70.32 94 71 94 C71 95.98 71 97.96 71 100 C71.66 100 72.32 100 73 100 C73 101.98 73 103.96 73 106 C73.66 106 74.32 106 75 106 C75 107.98 75 109.96 75 112 C75.66 112 76.32 112 77 112 C77 113.98 77 115.96 77 118 C77.66 118 78.32 118 79 118 C79 120.64 79 123.28 79 126 C79.66 126 80.32 126 81 126 C81 127.98 81 129.96 81 132 C81.66 132 82.32 132 83 132 C83 135.3 83 138.6 83 142 C83.66 142 84.32 142 85 142 C85 144.64 85 147.28 85 150 C85.66 150 86.32 150 87 150 C87 153.96 87 157.92 87 162 C87.66 162 88.32 162 89 162 C89.103125 162.9075 89.20625 163.815 89.3125 164.75 C90.00649813 168.03071844 90.70085668 169.60889095 93 172 C93.66 172 94.32 172 95 172 C95 172.66 95 173.32 95 174 C95.66 174 96.32 174 97 174 C97.144375 174.61875 97.28875 175.2375 97.4375 175.875 C97.93152225 178.03258322 97.93152225 178.03258322 99 180 C99.66 180 100.32 180 101 180 C101 181.32 101 182.64 101 184 C101.66 184 102.32 184 103 184 C103 184.66 103 185.32 103 186 C103.66 186 104.32 186 105 186 C105 187.32 105 188.64 105 190 C105.66 190 106.32 190 107 190 C107 190.66 107 191.32 107 192 C107.66 192 108.32 192 109 192 C109 192.66 109 193.32 109 194 C109.66 194 110.32 194 111 194 C111 195.32 111 196.64 111 198 C111.66 198 112.32 198 113 198 C113 199.32 113 200.64 113 202 C113.66 202 114.32 202 115 202 C115 203.32 115 204.64 115 206 C115.66 206 116.32 206 117 206 C117 207.32 117 208.64 117 210 C117.66 210 118.32 210 119 210 C119 210.66 119 211.32 119 212 C119.66 212 120.32 212 121 212 C121 213.32 121 214.64 121 216 C121.66 216 122.32 216 123 216 C123 216.66 123 217.32 123 218 C123.66 218 124.32 218 125 218 C125.33 218.66 125.66 219.32 126 220 C126 219.34 126 218.68 126 218 C126.66 218 127.32 218 128 218 C128 217.34 128 216.68 128 216 C128.66 216 129.32 216 130 216 C130 214.68 130 213.36 130 212 C130.66 212 131.32 212 132 212 C132 211.34 132 210.68 132 210 C132.66 210 133.32 210 134 210 C134 209.34 134 208.68 134 208 C134.66 208 135.32 208 136 208 C136 207.34 136 206.68 136 206 C136.66 206 137.32 206 138 206 C138 204.68 138 203.36 138 202 C138.66 202 139.32 202 140 202 C140 201.34 140 200.68 140 200 C140.66 200 141.32 200 142 200 C142 199.34 142 198.68 142 198 C142.66 198 143.32 198 144 198 C144 197.34 144 196.68 144 196 C144.66 196 145.32 196 146 196 C146 194.68 146 193.36 146 192 C146.66 192 147.32 192 148 192 C148 191.34 148 190.68 148 190 C148.66 190 149.32 190 150 190 C150 189.34 150 188.68 150 188 C150.66 188 151.32 188 152 188 C152 187.34 152 186.68 152 186 C152.66 186 153.32 186 154 186 C154 184.68 154 183.36 154 182 C154.66 182 155.32 182 156 182 C156 181.34 156 180.68 156 180 C156.66 180 157.32 180 158 180 C158 179.34 158 178.68 158 178 C158.66 178 159.32 178 160 178 C160 176.68 160 175.36 160 174 C160.66 174 161.32 174 162 174 C162 173.34 162 172.68 162 172 C162.66 172 163.32 172 164 172 C164 171.34 164 170.68 164 170 C164.66 170 165.32 170 166 170 C166 168.68 166 167.36 166 166 C166.66 166 167.32 166 168 166 C168 165.34 168 164.68 168 164 C168.66 164 169.32 164 170 164 C170 162.68 170 161.36 170 160 C170.66 160 171.32 160 172 160 C172 159.34 172 158.68 172 158 C172.66 158 173.32 158 174 158 C174 156.68 174 155.36 174 154 C174.66 154 175.32 154 176 154 C176 152.68 176 151.36 176 150 C176.66 150 177.32 150 178 150 C178 148.02 178 146.04 178 144 C178.66 144 179.32 144 180 144 C180 142.02 180 140.04 180 138 C180.66 138 181.32 138 182 138 C182 136.02 182 134.04 182 132 C182.66 132 183.32 132 184 132 C184 126.72 184 121.44 184 116 C184.66 116 185.32 116 186 116 C186 112.04 186 108.08 186 104 C186.66 104 187.32 104 188 104 C188 100.04 188 96.08 188 92 C188.66 92 189.32 92 190 92 C191.36094778 79.11815761 192.08593845 69.02897201 183.87109375 58.19140625 C177.37388122 50.34545758 177.37388122 50.34545758 168.29914856 46.65087891 C164.91385399 46.53700571 161.55079042 46.5508142 158.1640625 46.609375 C156.31232925 46.61786469 156.31232925 46.61786469 154.42318726 46.62652588 C150.49005958 46.64887125 146.55785119 46.69906753 142.625 46.75 C139.9544404 46.77232341 137.28388945 46.78831746 134.61328125 46.8046875 C128.07520851 46.84873028 121.53766994 46.91562569 115 47 Z M-131 57 C-131 58.32 -131 59.64 -131 61 C-133.64 61 -136.28 61 -139 61 C-139 62.32 -139 63.64 -139 65 C-141.64 65 -144.28 65 -147 65 C-147 65.66 -147 66.32 -147 67 C-147.66 67 -148.32 67 -149 67 C-149 67.66 -149 68.32 -149 69 C-149.66 69 -150.32 69 -151 69 C-151 70.32 -151 71.64 -151 73 C-151.66 73 -152.32 73 -153 73 C-153 73.66 -153 74.32 -153 75 C-153.66 75 -154.32 75 -155 75 C-155 75.66 -155 76.32 -155 77 C-155.66 77 -156.32 77 -157 77 C-157 77.66 -157 78.32 -157 79 C-157.66 79 -158.32 79 -159 79 C-159 81.64 -159 84.28 -159 87 C-159.66 87.33 -160.32 87.66 -161 88 C-160.34 88 -159.68 88 -159 88 C-159 99.22 -159 110.44 -159 122 C-158.34 122 -157.68 122 -157 122 C-157 124.64 -157 127.28 -157 130 C-156.34 130 -155.68 130 -155 130 C-155 131.32 -155 132.64 -155 134 C-154.34 134 -153.68 134 -153 134 C-153 135.32 -153 136.64 -153 138 C-152.34 138 -151.68 138 -151 138 C-151 139.98 -151 141.96 -151 144 C-150.34 144 -149.68 144 -149 144 C-149 145.32 -149 146.64 -149 148 C-148.34 148 -147.68 148 -147 148 C-147 149.32 -147 150.64 -147 152 C-146.34 152 -145.68 152 -145 152 C-145 153.32 -145 154.64 -145 156 C-144.34 156 -143.68 156 -143 156 C-143 157.32 -143 158.64 -143 160 C-142.34 160 -141.68 160 -141 160 C-141 161.32 -141 162.64 -141 164 C-140.34 164 -139.68 164 -139 164 C-139 165.32 -139 166.64 -139 168 C-138.34 168 -137.68 168 -137 168 C-137 169.32 -137 170.64 -137 172 C-136.34 172 -135.68 172 -135 172 C-135 173.32 -135 174.64 -135 176 C-134.34 176 -133.68 176 -133 176 C-133 177.32 -133 178.64 -133 180 C-132.34 180 -131.68 180 -131 180 C-131 181.32 -131 182.64 -131 184 C-130.34 184 -129.68 184 -129 184 C-129 185.32 -129 186.64 -129 188 C-124.84500747 186.63102196 -122.48288759 184.82002639 -119.4609375 181.68359375 C-118.21957031 180.41418945 -118.21957031 180.41418945 -116.953125 179.11914062 C-116.10234375 178.23419922 -115.2515625 177.34925781 -114.375 176.4375 C-112.67908161 174.68174065 -110.97876177 172.93021884 -109.2734375 171.18359375 C-108.52497559 170.40556396 -107.77651367 169.62753418 -107.00537109 168.82592773 C-105 167 -105 167 -102 166 C-102 165.34 -102 164.68 -102 164 C-101.34 164 -100.68 164 -100 164 C-100 163.34 -100 162.68 -100 162 C-99.34 162 -98.68 162 -98 162 C-98 160.02 -98 158.04 -98 156 C-97.34 156 -96.68 156 -96 156 C-96 150.72 -96 145.44 -96 140 C-95.34 140 -94.68 140 -94 140 C-94 136.7 -94 133.4 -94 130 C-93.34 130 -92.68 130 -92 130 C-92 127.36 -92 124.72 -92 122 C-91.34 122 -90.68 122 -90 122 C-90 119.36 -90 116.72 -90 114 C-89.34 114 -88.68 114 -88 114 C-88 112.02 -88 110.04 -88 108 C-87.34 108 -86.68 108 -86 108 C-86 105.36 -86 102.72 -86 100 C-85.34 100 -84.68 100 -84 100 C-84 98.68 -84 97.36 -84 96 C-83.34 96 -82.68 96 -82 96 C-82 94.02 -82 92.04 -82 90 C-81.34 90 -80.68 90 -80 90 C-80 88.68 -80 87.36 -80 86 C-79.34 86 -78.68 86 -78 86 C-78 84.68 -78 83.36 -78 82 C-77.34 82 -76.68 82 -76 82 C-76 80.68 -76 79.36 -76 78 C-75.34 78 -74.68 78 -74 78 C-74 76.68 -74 75.36 -74 74 C-73.34 74 -72.68 74 -72 74 C-72 72.68 -72 71.36 -72 70 C-71.34 70 -70.68 70 -70 70 C-70 68.68 -70 67.36 -70 66 C-69.34 66 -68.68 66 -68 66 C-68 65.01 -68 64.02 -68 63 C-69.32 63 -70.64 63 -72 63 C-72 62.34 -72 61.68 -72 61 C-73.98 61 -75.96 61 -78 61 C-78 60.34 -78 59.68 -78 59 C-79.98 59 -81.96 59 -84 59 C-84 58.34 -84 57.68 -84 57 C-87.63 57 -91.26 57 -95 57 C-95 57.66 -95 58.32 -95 59 C-97.97 59 -100.94 59 -104 59 C-104 58.34 -104 57.68 -104 57 C-112.91 57 -121.82 57 -131 57 Z M-59 67 C-59 67.66 -59 68.32 -59 69 C-59.66 69 -60.32 69 -61 69 C-61 70.32 -61 71.64 -61 73 C-61.66 73 -62.32 73 -63 73 C-63 74.32 -63 75.64 -63 77 C-63.66 77 -64.32 77 -65 77 C-65 78.32 -65 79.64 -65 81 C-65.66 81 -66.32 81 -67 81 C-67 82.32 -67 83.64 -67 85 C-67.66 85 -68.32 85 -69 85 C-69 86.32 -69 87.64 -69 89 C-69.66 89 -70.32 89 -71 89 C-71 90.32 -71 91.64 -71 93 C-71.66 93 -72.32 93 -73 93 C-73 94.32 -73 95.64 -73 97 C-73.66 97 -74.32 97 -75 97 C-75 98.98 -75 100.96 -75 103 C-75.66 103 -76.32 103 -77 103 C-77 104.32 -77 105.64 -77 107 C-77.66 107 -78.32 107 -79 107 C-79 108.98 -79 110.96 -79 113 C-79.66 113 -80.32 113 -81 113 C-81 115.64 -81 118.28 -81 121 C-81.66 121 -82.32 121 -83 121 C-83 122.98 -83 124.96 -83 127 C-83.66 127 -84.32 127 -85 127 C-85 130.3 -85 133.6 -85 137 C-85.66 137 -86.32 137 -87 137 C-87 140.3 -87 143.6 -87 147 C-87.66 147 -88.32 147 -89 147 C-89 148.65 -89 150.3 -89 152 C-87.49460339 151.05016642 -85.99579653 150.08988109 -84.5 149.125 C-83.6646875 148.59132813 -82.829375 148.05765625 -81.96875 147.5078125 C-81.3190625 147.01023437 -80.669375 146.51265625 -80 146 C-80 145.34 -80 144.68 -80 144 C-79.34 144 -78.68 144 -78 144 C-78 143.34 -78 142.68 -78 142 C-77.34 142 -76.68 142 -76 142 C-76 141.34 -76 140.68 -76 140 C-75.34 140 -74.68 140 -74 140 C-74 139.34 -74 138.68 -74 138 C-73.34 138 -72.68 138 -72 138 C-72 137.34 -72 136.68 -72 136 C-71.34 136 -70.68 136 -70 136 C-70 135.34 -70 134.68 -70 134 C-68.68 134 -67.36 134 -66 134 C-66 133.34 -66 132.68 -66 132 C-65.34 132 -64.68 132 -64 132 C-64 131.34 -64 130.68 -64 130 C-63.34 130 -62.68 130 -62 130 C-62 129.34 -62 128.68 -62 128 C-61.34 128 -60.68 128 -60 128 C-60 127.34 -60 126.68 -60 126 C-59.34 126 -58.68 126 -58 126 C-58 125.34 -58 124.68 -58 124 C-57.34 124 -56.68 124 -56 124 C-56 123.34 -56 122.68 -56 122 C-55.34 122 -54.68 122 -54 122 C-54 121.34 -54 120.68 -54 120 C-52.68 120 -51.36 120 -50 120 C-50 119.34 -50 118.68 -50 118 C-49.34 118 -48.68 118 -48 118 C-48 117.34 -48 116.68 -48 116 C-47.34 116 -46.68 116 -46 116 C-46 115.34 -46 114.68 -46 114 C-45.34 114 -44.68 114 -44 114 C-44 113.34 -44 112.68 -44 112 C-43.34 112 -42.68 112 -42 112 C-42 111.34 -42 110.68 -42 110 C-41.34 110 -40.68 110 -40 110 C-40 109.34 -40 108.68 -40 108 C-38.68 108 -37.36 108 -36 108 C-36 107.34 -36 106.68 -36 106 C-35.34 106 -34.68 106 -34 106 C-34 105.34 -34 104.68 -34 104 C-33.34 104 -32.68 104 -32 104 C-32 103.34 -32 102.68 -32 102 C-31.34 102 -30.68 102 -30 102 C-30 101.34 -30 100.68 -30 100 C-29.34 100 -28.68 100 -28 100 C-28 99.34 -28 98.68 -28 98 C-26.68 98 -25.36 98 -24 98 C-24 97.34 -24 96.68 -24 96 C-23.34 96 -22.68 96 -22 96 C-22 95.34 -22 94.68 -22 94 C-20.68 94 -19.36 94 -18 94 C-18 93.34 -18 92.68 -18 92 C-17.34 92 -16.68 92 -16 92 C-16 91.01 -16 90.02 -16 89 C-17.32 89 -18.64 89 -20 89 C-20 88.34 -20 87.68 -20 87 C-20.66 87 -21.32 87 -22 87 C-22 86.34 -22 85.68 -22 85 C-23.32 85 -24.64 85 -26 85 C-26 84.34 -26 83.68 -26 83 C-27.32 83 -28.64 83 -30 83 C-30 82.34 -30 81.68 -30 81 C-30.66 81 -31.32 81 -32 81 C-32 80.34 -32 79.68 -32 79 C-33.32 79 -34.64 79 -36 79 C-36 78.34 -36 77.68 -36 77 C-37.32 77 -38.64 77 -40 77 C-40 76.34 -40 75.68 -40 75 C-40.66 75 -41.32 75 -42 75 C-42 74.34 -42 73.68 -42 73 C-43.32 73 -44.64 73 -46 73 C-46 72.34 -46 71.68 -46 71 C-47.32 71 -48.64 71 -50 71 C-50 70.34 -50 69.68 -50 69 C-51.32 69 -52.64 69 -54 69 C-54 68.34 -54 67.68 -54 67 C-55.65 67 -57.3 67 -59 67 Z M51 69 C51 69.66 51 70.32 51 71 C50.34 71 49.68 71 49 71 C49 71.66 49 72.32 49 73 C47.68 73 46.36 73 45 73 C45 73.66 45 74.32 45 75 C43.68 75 42.36 75 41 75 C41 75.66 41 76.32 41 77 C40.34 77 39.68 77 39 77 C39 77.66 39 78.32 39 79 C37.68 79 36.36 79 35 79 C35 79.66 35 80.32 35 81 C34.34 81 33.68 81 33 81 C33 81.66 33 82.32 33 83 C31.68 83 30.36 83 29 83 C29 83.66 29 84.32 29 85 C28.34 85 27.68 85 27 85 C27 85.66 27 86.32 27 87 C25.68 87 24.36 87 23 87 C23 87.66 23 88.32 23 89 C21.68 89 20.36 89 19 89 C19 89.66 19 90.32 19 91 C18.34 91 17.68 91 17 91 C17 91.66 17 92.32 17 93 C16.34 93.33 15.68 93.66 15 94 C16.32 94 17.64 94 19 94 C19 94.66 19 95.32 19 96 C19.66 96 20.32 96 21 96 C21 96.66 21 97.32 21 98 C21.66 98 22.32 98 23 98 C23 98.66 23 99.32 23 100 C23.66 100 24.32 100 25 100 C25 100.66 25 101.32 25 102 C26.32 102 27.64 102 29 102 C29 102.66 29 103.32 29 104 C29.66 104 30.32 104 31 104 C31 104.66 31 105.32 31 106 C31.66 106 32.32 106 33 106 C33 106.66 33 107.32 33 108 C33.66 108 34.32 108 35 108 C35 108.66 35 109.32 35 110 C35.66 110 36.32 110 37 110 C37 110.66 37 111.32 37 112 C37.66 112 38.32 112 39 112 C39 112.66 39 113.32 39 114 C39.66 114 40.32 114 41 114 C41 114.66 41 115.32 41 116 C41.66 116 42.32 116 43 116 C43 116.66 43 117.32 43 118 C43.66 118 44.32 118 45 118 C45 118.66 45 119.32 45 120 C45.66 120 46.32 120 47 120 C47 120.66 47 121.32 47 122 C47.66 122 48.32 122 49 122 C49 122.66 49 123.32 49 124 C49.66 124 50.32 124 51 124 C51 124.66 51 125.32 51 126 C51.66 126 52.32 126 53 126 C53 126.66 53 127.32 53 128 C53.66 128 54.32 128 55 128 C55 128.66 55 129.32 55 130 C56.39617168 131.15780091 57.796232 132.31121202 59.21484375 133.44140625 C61.88213884 135.77018249 64.09528272 138.44391183 66.39453125 141.12890625 C68.17261726 143.2011768 69.95750816 145.1844517 72 147 C72.66 147 73.32 147 74 147 C74.33 147.99 74.66 148.98 75 150 C75.66 150 76.32 150 77 150 C77.33 150.66 77.66 151.32 78 152 C78 151.01 78 150.02 78 149 C77.34 149 76.68 149 76 149 C76 145.7 76 142.4 76 139 C75.34 139 74.68 139 74 139 C74 137.02 74 135.04 74 133 C73.34 133 72.68 133 72 133 C72 130.36 72 127.72 72 125 C71.34 125 70.68 125 70 125 C70 123.02 70 121.04 70 119 C69.34 119 68.68 119 68 119 C68 117.02 68 115.04 68 113 C67.34 113 66.68 113 66 113 C66 111.02 66 109.04 66 107 C65.34 107 64.68 107 64 107 C64 105.02 64 103.04 64 101 C63.34 101 62.68 101 62 101 C62 99.02 62 97.04 62 95 C61.34 95 60.68 95 60 95 C60 93.02 60 91.04 60 89 C59.34 89 58.68 89 58 89 C58 87.02 58 85.04 58 83 C57.34 83 56.68 83 56 83 C56 81.02 56 79.04 56 77 C55.34 77 54.68 77 54 77 C54 75.02 54 73.04 54 71 C53.34 71 52.68 71 52 71 C51.505 70.01 51.505 70.01 51 69 Z M-10.625 103.3125 C-11.27927979 103.75529297 -11.93355957 104.19808594 -12.60766602 104.65429688 C-14.00724513 105.6029392 -15.40539068 106.55369929 -16.80224609 107.50634766 C-19.04422414 109.03005591 -21.29657296 110.53742617 -23.55078125 112.04296875 C-25.01335904 113.02814392 -26.47560764 114.01380801 -27.9375 115 C-28.64148926 115.46833252 -29.34547852 115.93666504 -30.07080078 116.41918945 C-31.75002124 117.56136948 -33.38069699 118.77435147 -35 120 C-35 120.66 -35 121.32 -35 122 C-35.721875 122.2475 -36.44375 122.495 -37.1875 122.75 C-40.26496798 124.11776355 -42.38351695 125.89405022 -45 128 C-46.97711651 129.04451438 -48.97250996 130.05698138 -51 131 C-51 131.66 -51 132.32 -51 133 C-51.66 133 -52.32 133 -53 133 C-53 133.66 -53 134.32 -53 135 C-53.66 135 -54.32 135 -55 135 C-55 135.66 -55 136.32 -55 137 C-55.66 137 -56.32 137 -57 137 C-57 137.66 -57 138.32 -57 139 C-57.66 139 -58.32 139 -59 139 C-59 139.66 -59 140.32 -59 141 C-60.32 141 -61.64 141 -63 141 C-63 141.66 -63 142.32 -63 143 C-63.66 143 -64.32 143 -65 143 C-65 143.66 -65 144.32 -65 145 C-65.66 145 -66.32 145 -67 145 C-67 145.66 -67 146.32 -67 147 C-67.66 147 -68.32 147 -69 147 C-69 147.66 -69 148.32 -69 149 C-69.66 149 -70.32 149 -71 149 C-71 149.66 -71 150.32 -71 151 C-71.66 151 -72.32 151 -73 151 C-73 151.66 -73 152.32 -73 153 C-73.66 153 -74.32 153 -75 153 C-75 153.66 -75 154.32 -75 155 C-75.66 155 -76.32 155 -77 155 C-77 155.66 -77 156.32 -77 157 C-77.66 157 -78.32 157 -79 157 C-79 157.66 -79 158.32 -79 159 C-79.66 159 -80.32 159 -81 159 C-81 159.66 -81 160.32 -81 161 C-81.66 161 -82.32 161 -83 161 C-83 161.66 -83 162.32 -83 163 C-83.66 163 -84.32 163 -85 163 C-85 163.66 -85 164.32 -85 165 C-85.66 165 -86.32 165 -87 165 C-87 165.66 -87 166.32 -87 167 C-88.32 167 -89.64 167 -91 167 C-91 196.37 -91 225.74 -91 256 C-90.34 256 -89.68 256 -89 256 C-89 256.66 -89 257.32 -89 258 C-88.34 258 -87.68 258 -87 258 C-87 259.32 -87 260.64 -87 262 C-86.34 262 -85.68 262 -85 262 C-85 262.66 -85 263.32 -85 264 C-84.34 264 -83.68 264 -83 264 C-83 264.66 -83 265.32 -83 266 C-82.34 266 -81.68 266 -81 266 C-81 266.66 -81 267.32 -81 268 C-80.34 268 -79.68 268 -79 268 C-79 269.32 -79 270.64 -79 272 C-78.34 272 -77.68 272 -77 272 C-77 272.66 -77 273.32 -77 274 C-76.34 274 -75.68 274 -75 274 C-75 274.66 -75 275.32 -75 276 C-74.34 276 -73.68 276 -73 276 C-73 277.32 -73 278.64 -73 280 C-72.34 280 -71.68 280 -71 280 C-71 280.66 -71 281.32 -71 282 C-70.34 282 -69.68 282 -69 282 C-69 282.66 -69 283.32 -69 284 C-68.34 284 -67.68 284 -67 284 C-67 284.66 -67 285.32 -67 286 C-66.34 286 -65.68 286 -65 286 C-65 286.66 -65 287.32 -65 288 C-64.34 288 -63.68 288 -63 288 C-63 288.66 -63 289.32 -63 290 C-62.34 290 -61.68 290 -61 290 C-61 291.32 -61 292.64 -61 294 C-60.34 294 -59.68 294 -59 294 C-59 294.66 -59 295.32 -59 296 C-58.34 296 -57.68 296 -57 296 C-57 296.66 -57 297.32 -57 298 C-56.34 298 -55.68 298 -55 298 C-55 298.66 -55 299.32 -55 300 C-54.34 300 -53.68 300 -53 300 C-53 300.66 -53 301.32 -53 302 C-52.34 302 -51.68 302 -51 302 C-51 302.66 -51 303.32 -51 304 C-50.34 304 -49.68 304 -49 304 C-49 304.66 -49 305.32 -49 306 C-48.34 306 -47.68 306 -47 306 C-47 306.66 -47 307.32 -47 308 C-46.34 308 -45.68 308 -45 308 C-45 308.66 -45 309.32 -45 310 C-44.34 310 -43.68 310 -43 310 C-43 310.66 -43 311.32 -43 312 C-42.34 312 -41.68 312 -41 312 C-40.74710205 312.58265625 -40.4942041 313.1653125 -40.23364258 313.765625 C-38.8556426 316.2614603 -37.34517546 317.80961651 -35.26171875 319.75 C-34.52373047 320.4409375 -33.78574219 321.131875 -33.02539062 321.84375 C-32.25388672 322.5553125 -31.48238281 323.266875 -30.6875 324 C-29.92759766 324.7115625 -29.16769531 325.423125 -28.38476562 326.15625 C-24.69475557 329.59299264 -20.97073181 332.88741169 -17 336 C-15.31471312 337.64783606 -13.64302953 339.31002677 -12 341 C-11.34 340.67 -10.68 340.34 -10 340 C-10 339.34 -10 338.68 -10 338 C-8.68 338 -7.36 338 -6 338 C-6 337.34 -6 336.68 -6 336 C-4.68 336 -3.36 336 -2 336 C-2 335.34 -2 334.68 -2 334 C-0.68 334 0.64 334 2 334 C3.71358643 332.38161281 5.3707726 330.70328319 7 329 C13.85483871 323.38172043 13.85483871 323.38172043 18 322 C18 321.34 18 320.68 18 320 C18.66 320 19.32 320 20 320 C20 319.34 20 318.68 20 318 C20.54914063 317.74863281 21.09828125 317.49726563 21.6640625 317.23828125 C30.40569065 312.60434125 37.78017921 305.51861546 44.89648438 298.75341797 C49.17463474 294.7016311 53.58934618 291.02857771 58.3046875 287.48828125 C58.86414063 286.99714844 59.42359375 286.50601563 60 286 C60 285.34 60 284.68 60 284 C60.66 284 61.32 284 62 284 C62 283.34 62 282.68 62 282 C62.66 282 63.32 282 64 282 C64 281.34 64 280.68 64 280 C64.66 280 65.32 280 66 280 C66 279.34 66 278.68 66 278 C66.66 278 67.32 278 68 278 C68 277.34 68 276.68 68 276 C68.928125 275.7834375 68.928125 275.7834375 69.875 275.5625 C72.03258322 275.06847775 72.03258322 275.06847775 74 274 C74 273.34 74 272.68 74 272 C74.66 272 75.32 272 76 272 C76 271.34 76 270.68 76 270 C76.66 270 77.32 270 78 270 C78 269.34 78 268.68 78 268 C78.66 268 79.32 268 80 268 C80 267.34 80 266.68 80 266 C80.66 266 81.32 266 82 266 C82 262.04 82 258.08 82 254 C82.66 254 83.32 254 84 254 C84 235.85 84 217.7 84 199 C83.34 199 82.68 199 82 199 C82 192.4 82 185.8 82 179 C81.34 179 80.68 179 80 179 C80 178.34 80 177.68 80 177 C79.34 177 78.68 177 78 177 C78 176.34 78 175.68 78 175 C77.34 175 76.68 175 76 175 C76 174.34 76 173.68 76 173 C75.34 173 74.68 173 74 173 C74 172.34 74 171.68 74 171 C73.34 171 72.68 171 72 171 C72 169.68 72 168.36 72 167 C71.34 167 70.68 167 70 167 C70 166.34 70 165.68 70 165 C69.34 165 68.68 165 68 165 C68 164.34 68 163.68 68 163 C67.34 163 66.68 163 66 163 C66 162.34 66 161.68 66 161 C65.34 161 64.68 161 64 161 C64 160.34 64 159.68 64 159 C63.34 159 62.68 159 62 159 C62 158.34 62 157.68 62 157 C61.34 157 60.68 157 60 157 C60 156.34 60 155.68 60 155 C59.34 155 58.68 155 58 155 C58 153.68 58 152.36 58 151 C57.34 151 56.68 151 56 151 C56 150.34 56 149.68 56 149 C55.34 149 54.68 149 54 149 C54 148.34 54 147.68 54 147 C53.34 147 52.68 147 52 147 C52 146.34 52 145.68 52 145 C51.34 145 50.68 145 50 145 C50 144.34 50 143.68 50 143 C49.34 143 48.68 143 48 143 C48 142.34 48 141.68 48 141 C47.34 141 46.68 141 46 141 C46 140.34 46 139.68 46 139 C45.34 139 44.68 139 44 139 C44 138.34 44 137.68 44 137 C43.34 137 42.68 137 42 137 C42 136.34 42 135.68 42 135 C41.34 135 40.68 135 40 135 C40 134.34 40 133.68 40 133 C39.34 133 38.68 133 38 133 C38 132.34 38 131.68 38 131 C37.34 131 36.68 131 36 131 C36 130.34 36 129.68 36 129 C35.34 129 34.68 129 34 129 C34 128.34 34 127.68 34 127 C33.34 127 32.68 127 32 127 C32 126.34 32 125.68 32 125 C30.68 125 29.36 125 28 125 C28 124.34 28 123.68 28 123 C27.34 123 26.68 123 26 123 C26 122.34 26 121.68 26 121 C25.34 121 24.68 121 24 121 C24 120.34 24 119.68 24 119 C23.34 119 22.68 119 22 119 C22 118.34 22 117.68 22 117 C21.34 117 20.68 117 20 117 C20 116.34 20 115.68 20 115 C19.34 115 18.68 115 18 115 C18 114.34 18 113.68 18 113 C17.34 113 16.68 113 16 113 C16 112.34 16 111.68 16 111 C14.68 111 13.36 111 12 111 C12 110.34 12 109.68 12 109 C11.34 109 10.68 109 10 109 C10 108.34 10 107.68 10 107 C8.68 107 7.36 107 6 107 C6 106.34 6 105.68 6 105 C5.34 105 4.68 105 4 105 C4 104.34 4 103.68 4 103 C2.68 103 1.36 103 0 103 C0 102.34 0 101.68 0 101 C-0.66 101 -1.32 101 -2 101 C-2 100.34 -2 99.68 -2 99 C-5.38646751 99 -7.90369392 101.45529225 -10.625 103.3125 Z M-99 175 C-99 175.66 -99 176.32 -99 177 C-99.66 177 -100.32 177 -101 177 C-101 177.66 -101 178.32 -101 179 C-101.66 179 -102.32 179 -103 179 C-103 179.66 -103 180.32 -103 181 C-103.66 181 -104.32 181 -105 181 C-105 181.66 -105 182.32 -105 183 C-105.66 183 -106.32 183 -107 183 C-107 183.66 -107 184.32 -107 185 C-107.66 185 -108.32 185 -109 185 C-109 185.66 -109 186.32 -109 187 C-109.66 187 -110.32 187 -111 187 C-111 187.66 -111 188.32 -111 189 C-111.66 189 -112.32 189 -113 189 C-113 189.66 -113 190.32 -113 191 C-113.66 191 -114.32 191 -115 191 C-115 191.66 -115 192.32 -115 193 C-115.66 193 -116.32 193 -117 193 C-117 193.66 -117 194.32 -117 195 C-117.66 195 -118.32 195 -119 195 C-119 195.66 -119 196.32 -119 197 C-119.66 197 -120.32 197 -121 197 C-121 199.31 -121 201.62 -121 204 C-120.34 204 -119.68 204 -119 204 C-119 205.32 -119 206.64 -119 208 C-118.34 208 -117.68 208 -117 208 C-117 209.32 -117 210.64 -117 212 C-116.34 212 -115.68 212 -115 212 C-115 213.32 -115 214.64 -115 216 C-114.34 216 -113.68 216 -113 216 C-113 216.66 -113 217.32 -113 218 C-112.34 218 -111.68 218 -111 218 C-111 219.32 -111 220.64 -111 222 C-110.34 222 -109.68 222 -109 222 C-109 223.32 -109 224.64 -109 226 C-108.34 226 -107.68 226 -107 226 C-107 227.32 -107 228.64 -107 230 C-106.34 230 -105.68 230 -105 230 C-105 230.66 -105 231.32 -105 232 C-104.34 232 -103.68 232 -103 232 C-103 233.32 -103 234.64 -103 236 C-102.34 236 -101.68 236 -101 236 C-101 237.32 -101 238.64 -101 240 C-100.34 240 -99.68 240 -99 240 C-98.505 240.99 -98.505 240.99 -98 242 C-98 219.89 -98 197.78 -98 175 C-98.33 175 -98.66 175 -99 175 Z M89 189 C90 192 90 192 90 192 Z M91 193 C91 213.79 91 234.58 91 256 C91.33 255.34 91.66 254.68 92 254 C92.66 254 93.32 254 94 254 C94 252.68 94 251.36 94 250 C94.66 250 95.32 250 96 250 C96 249.34 96 248.68 96 248 C96.66 248 97.32 248 98 248 C98 247.34 98 246.68 98 246 C98.66 246 99.32 246 100 246 C100 245.34 100 244.68 100 244 C100.66 244 101.32 244 102 244 C102 243.34 102 242.68 102 242 C102.66 242 103.32 242 104 242 C104 241.34 104 240.68 104 240 C104.66 240 105.32 240 106 240 C106 239.34 106 238.68 106 238 C106.66 238 107.32 238 108 238 C108 237.34 108 236.68 108 236 C108.66 236 109.32 236 110 236 C110 235.34 110 234.68 110 234 C110.66 234 111.32 234 112 234 C112 233.34 112 232.68 112 232 C112.66 232 113.32 232 114 232 C114 231.34 114 230.68 114 230 C114.66 230 115.32 230 116 230 C116 228.35 116 226.7 116 225 C115.34 225 114.68 225 114 225 C114 224.34 114 223.68 114 223 C113.34 223 112.68 223 112 223 C112 221.68 112 220.36 112 219 C111.34 219 110.68 219 110 219 C110 218.34 110 217.68 110 217 C109.34 217 108.68 217 108 217 C108 215.68 108 214.36 108 213 C107.34 213 106.68 213 106 213 C106 212.34 106 211.68 106 211 C105.34 211 104.68 211 104 211 C104 209.68 104 208.36 104 207 C103.34 207 102.68 207 102 207 C102 206.34 102 205.68 102 205 C101.34 205 100.68 205 100 205 C100 204.34 100 203.68 100 203 C99.34 203 98.68 203 98 203 C98 201.68 98 200.36 98 199 C97.34 199 96.68 199 96 199 C96 198.34 96 197.68 96 197 C95.34 197 94.68 197 94 197 C94 196.34 94 195.68 94 195 C93.34 195 92.68 195 92 195 C91.67 194.34 91.34 193.68 91 193 Z M-135 213 C-135 213.66 -135 214.32 -135 215 C-135.66 215 -136.32 215 -137 215 C-137 215.66 -137 216.32 -137 217 C-137.66 217 -138.32 217 -139 217 C-139 217.66 -139 218.32 -139 219 C-139.66 219 -140.32 219 -141 219 C-141 219.66 -141 220.32 -141 221 C-141.66 221 -142.32 221 -143 221 C-143 221.66 -143 222.32 -143 223 C-143.66 223 -144.32 223 -145 223 C-145 224.98 -145 226.96 -145 229 C-146.98 229 -148.96 229 -151 229 C-151 229.66 -151 230.32 -151 231 C-151.66 231 -152.32 231 -153 231 C-153 232.32 -153 233.64 -153 235 C-153.66 235 -154.32 235 -155 235 C-155 235.66 -155 236.32 -155 237 C-155.66 237 -156.32 237 -157 237 C-157 237.66 -157 238.32 -157 239 C-157.66 239 -158.32 239 -159 239 C-159 240.32 -159 241.64 -159 243 C-159.66 243 -160.32 243 -161 243 C-161 243.66 -161 244.32 -161 245 C-161.66 245 -162.32 245 -163 245 C-163 245.66 -163 246.32 -163 247 C-163.66 247 -164.32 247 -165 247 C-165 248.32 -165 249.64 -165 251 C-165.66 251 -166.32 251 -167 251 C-167 251.66 -167 252.32 -167 253 C-167.66 253 -168.32 253 -169 253 C-169 253.66 -169 254.32 -169 255 C-169.66 255 -170.32 255 -171 255 C-171 256.32 -171 257.64 -171 259 C-171.66 259 -172.32 259 -173 259 C-173 259.66 -173 260.32 -173 261 C-173.66 261 -174.32 261 -175 261 C-175 261.66 -175 262.32 -175 263 C-175.66 263 -176.32 263 -177 263 C-177 264.32 -177 265.64 -177 267 C-177.66 267 -178.32 267 -179 267 C-179 267.66 -179 268.32 -179 269 C-179.66 269 -180.32 269 -181 269 C-181 269.66 -181 270.32 -181 271 C-181.66 271 -182.32 271 -183 271 C-183 272.32 -183 273.64 -183 275 C-183.66 275 -184.32 275 -185 275 C-185 275.66 -185 276.32 -185 277 C-185.66 277 -186.32 277 -187 277 C-187 278.32 -187 279.64 -187 281 C-187.66 281 -188.32 281 -189 281 C-189 282.32 -189 283.64 -189 285 C-189.66 285 -190.32 285 -191 285 C-191 286.32 -191 287.64 -191 289 C-191.66 289 -192.32 289 -193 289 C-193 290.32 -193 291.64 -193 293 C-193.66 293 -194.32 293 -195 293 C-195 294.32 -195 295.64 -195 297 C-195.66 297 -196.32 297 -197 297 C-197 298.32 -197 299.64 -197 301 C-197.66 301 -198.32 301 -199 301 C-199 302.32 -199 303.64 -199 305 C-199.66 305 -200.32 305 -201 305 C-201 306.32 -201 307.64 -201 309 C-201.66 309 -202.32 309 -203 309 C-203 310.32 -203 311.64 -203 313 C-203.66 313 -204.32 313 -205 313 C-205 314.98 -205 316.96 -205 319 C-205.66 319 -206.32 319 -207 319 C-207 321.64 -207 324.28 -207 327 C-207.66 327 -208.32 327 -209 327 C-209 330.3 -209 333.6 -209 337 C-209.66 337 -210.32 337 -211 337 C-211 340.3 -211 343.6 -211 347 C-211.66 347 -212.32 347 -213 347 C-213 353.93 -213 360.86 -213 368 C-212.34 368 -211.68 368 -211 368 C-211 370.64 -211 373.28 -211 376 C-210.34 376 -209.68 376 -209 376 C-209 379.3 -209 382.6 -209 386 C-208.34 386 -207.68 386 -207 386 C-207 386.66 -207 387.32 -207 388 C-206.34 388 -205.68 388 -205 388 C-205 388.66 -205 389.32 -205 390 C-204.34 390 -203.68 390 -203 390 C-203 391.32 -203 392.64 -203 394 C-202.34 394 -201.68 394 -201 394 C-201 394.66 -201 395.32 -201 396 C-200.34 396 -199.68 396 -199 396 C-199 396.66 -199 397.32 -199 398 C-198.34 398 -197.68 398 -197 398 C-197 398.66 -197 399.32 -197 400 C-196.34 400 -195.68 400 -195 400 C-195 400.66 -195 401.32 -195 402 C-194.34 402 -193.68 402 -193 402 C-193 402.66 -193 403.32 -193 404 C-192.34 404 -191.68 404 -191 404 C-191 404.66 -191 405.32 -191 406 C-190.34 406 -189.68 406 -189 406 C-189 406.66 -189 407.32 -189 408 C-187.68 408 -186.36 408 -185 408 C-185 408.66 -185 409.32 -185 410 C-184.34 410 -183.68 410 -183 410 C-183 410.66 -183 411.32 -183 412 C-181.68 412 -180.36 412 -179 412 C-179 412.66 -179 413.32 -179 414 C-174.38 414 -169.76 414 -165 414 C-165 414.99 -165 415.98 -165 417 C-163.35 417 -161.7 417 -160 417 C-160 416.01 -160 415.02 -160 414 C-156.7 414 -153.4 414 -150 414 C-150 413.34 -150 412.68 -150 412 C-146.7 412 -143.4 412 -140 412 C-140 411.34 -140 410.68 -140 410 C-137.36 410 -134.72 410 -132 410 C-132 409.34 -132 408.68 -132 408 C-129.36 408 -126.72 408 -124 408 C-124 407.34 -124 406.68 -124 406 C-122.68 406 -121.36 406 -120 406 C-120 405.34 -120 404.68 -120 404 C-117.36 404 -114.72 404 -112 404 C-112 403.34 -112 402.68 -112 402 C-110.02 402 -108.04 402 -106 402 C-106 401.34 -106 400.68 -106 400 C-104.02 400 -102.04 400 -100 400 C-100 399.34 -100 398.68 -100 398 C-99.44570312 397.74347656 -98.89140625 397.48695313 -98.3203125 397.22265625 C-95.66692407 395.82449029 -93.31438073 394.18147518 -90.875 392.4375 C-86.19444444 389.09722222 -86.19444444 389.09722222 -84 388 C-84 387.34 -84 386.68 -84 386 C-82.68 386 -81.36 386 -80 386 C-80 385.34 -80 384.68 -80 384 C-79.34 384 -78.68 384 -78 384 C-78 383.34 -78 382.68 -78 382 C-77.34 382 -76.68 382 -76 382 C-76 381.01 -76 380.02 -76 379 C-76.66 379 -77.32 379 -78 379 C-78 377.68 -78 376.36 -78 375 C-78.66 375 -79.32 375 -80 375 C-80 373.02 -80 371.04 -80 369 C-80.66 369 -81.32 369 -82 369 C-82 367.68 -82 366.36 -82 365 C-82.66 365 -83.32 365 -84 365 C-84 363.02 -84 361.04 -84 359 C-84.66 359 -85.32 359 -86 359 C-86 357.02 -86 355.04 -86 353 C-86.66 353 -87.32 353 -88 353 C-88 350.36 -88 347.72 -88 345 C-88.66 345 -89.32 345 -90 345 C-90 342.36 -90 339.72 -90 337 C-90.66 337 -91.32 337 -92 337 C-92 333.04 -92 329.08 -92 325 C-92.66 325 -93.32 325 -94 325 C-94 319.72 -94 314.44 -94 309 C-94.66 309 -95.32 309 -96 309 C-96 303.06 -96 297.12 -96 291 C-96.66 291 -97.32 291 -98 291 C-97.93192139 290.27635254 -97.86384277 289.55270508 -97.79370117 288.80712891 C-96.59199853 274.04268498 -96.40381051 263.13962148 -106.11206055 251.38330078 C-107.20817111 250.1287256 -108.32355362 248.89044965 -109.46606445 247.67797852 C-113.00137261 243.81069013 -115.46172272 239.55139374 -118 235 C-118.66 235 -119.32 235 -120 235 C-120 234.34 -120 233.68 -120 233 C-120.66 233 -121.32 233 -122 233 C-122 231.68 -122 230.36 -122 229 C-122.66 229 -123.32 229 -124 229 C-124 228.34 -124 227.68 -124 227 C-124.66 227 -125.32 227 -126 227 C-126.226875 226.175 -126.45375 225.35 -126.6875 224.5 C-128.24941057 220.33490514 -130.22850107 216.4999057 -133 213 C-133.66 213 -134.32 213 -135 213 Z M122 239 C121.319375 239.845625 120.63875 240.69125 119.9375 241.5625 C116.13681679 246.21506048 111.49695535 249.89656107 106.91796875 253.75390625 C102.96975017 257.12838752 99.48082695 260.56299213 96.2265625 264.6171875 C95 266 95 266 93 267 C93 267.66 93 268.32 93 269 C92.34 269 91.68 269 91 269 C91 269.66 91 270.32 91 271 C90.34 271 89.68 271 89 271 C89 276.28 89 281.56 89 287 C88.34 287 87.68 287 87 287 C87 291.62 87 296.24 87 301 C86.34 301 85.68 301 85 301 C85 304.3 85 307.6 85 311 C84.34 311 83.68 311 83 311 C83 314.3 83 317.6 83 321 C82.34 321 81.68 321 81 321 C81 324.3 81 327.6 81 331 C80.34 331 79.68 331 79 331 C79 334.3 79 337.6 79 341 C78.01 341.495 78.01 341.495 77 342 C78.98 342 80.96 342 83 342 C83 344.97 83 347.94 83 351 C82.34 351 81.68 351 81 351 C81 352.32 81 353.64 81 355 C80.34 355 79.68 355 79 355 C79 357.64 79 360.28 79 363 C78.34 363 77.68 363 77 363 C77 365.64 77 368.28 77 371 C76.34 371 75.68 371 75 371 C75 373.64 75 376.28 75 379 C74.34 379.33 73.68 379.66 73 380 C77.62 380 82.24 380 87 380 C87 380.66 87 381.32 87 382 C88.37453198 382.05498128 89.74973578 382.09322822 91.125 382.125 C91.89070313 382.14820313 92.65640625 382.17140625 93.4453125 382.1953125 C96.07202399 382.11439315 96.07202399 382.11439315 98.65625 381 C103.26893844 379.62050439 107.59158387 379.78629185 112.375 379.875 C113.30183594 379.88402344 114.22867188 379.89304687 115.18359375 379.90234375 C117.45600077 379.92577063 119.7278618 379.95857252 122 380 C122 379.34 122 378.68 122 378 C123.98 378 125.96 378 128 378 C128 377.34 128 376.68 128 376 C131.3 376 134.6 376 138 376 C138 375.34 138 374.68 138 374 C138.66 374 139.32 374 140 374 C140 373.34 140 372.68 140 372 C140.66 372 141.32 372 142 372 C142 371.34 142 370.68 142 370 C142.66 370 143.32 370 144 370 C144 369.34 144 368.68 144 368 C144.66 368 145.32 368 146 368 C146 366.68 146 365.36 146 364 C146.66 364 147.32 364 148 364 C148 362.68 148 361.36 148 360 C148.66 360 149.32 360 150 360 C150 358.02 150 356.04 150 354 C150.66 354 151.32 354 152 354 C152 351.36 152 348.72 152 346 C152.66 346 153.32 346 154 346 C154 341.05 154 336.1 154 331 C153.34 331 152.68 331 152 331 C152 329.02 152 327.04 152 325 C151.34 325 150.68 325 150 325 C150 321.7 150 318.4 150 315 C149.34 315 148.68 315 148 315 C148 311.7 148 308.4 148 305 C147.34 305 146.68 305 146 305 C146 302.36 146 299.72 146 297 C145.34 297 144.68 297 144 297 C144 294.36 144 291.72 144 289 C143.34 289 142.68 289 142 289 C142 287.02 142 285.04 142 283 C141.34 283 140.68 283 140 283 C140 281.68 140 280.36 140 279 C139.34 279 138.68 279 138 279 C138 278.34 138 277.68 138 277 C137.34 277 136.68 277 136 277 C136 276.34 136 275.68 136 275 C135.34 275 134.68 275 134 275 C134 272.03 134 269.06 134 266 C134.66 265.67 135.32 265.34 136 265 C134.58811067 261.97691173 133.16961649 258.95696642 131.75 255.9375 C131.35425781 255.08994141 130.95851563 254.24238281 130.55078125 253.36914062 C128.23028581 248.44284292 125.77284392 243.68712379 123 239 C122.67 239 122.34 239 122 239 Z M-91 274 C-91 277.3 -91 280.6 -91 284 C-90.34 284 -89.68 284 -89 284 C-89 289.94 -89 295.88 -89 302 C-88.34 302 -87.68 302 -87 302 C-87 307.94 -87 313.88 -87 320 C-86.34 320 -85.68 320 -85 320 C-85 323.3 -85 326.6 -85 330 C-84.34 330 -83.68 330 -83 330 C-83 332.64 -83 335.28 -83 338 C-82.34 338 -81.68 338 -81 338 C-81 340.64 -81 343.28 -81 346 C-80.34 346 -79.68 346 -79 346 C-79 347.98 -79 349.96 -79 352 C-78.34 352 -77.68 352 -77 352 C-77 353.98 -77 355.96 -77 358 C-76.34 358 -75.68 358 -75 358 C-75 359.32 -75 360.64 -75 362 C-74.34 362 -73.68 362 -73 362 C-73 363.98 -73 365.96 -73 368 C-72.34 368 -71.68 368 -71 368 C-71 369.32 -71 370.64 -71 372 C-70.34 372 -69.68 372 -69 372 C-69 373.98 -69 375.96 -69 378 C-66.09158479 379.342681 -66.09158479 379.342681 -63.73828125 378.00390625 C-62.53751953 377.29041016 -62.53751953 377.29041016 -61.3125 376.5625 C-60.50425781 376.08941406 -59.69601563 375.61632812 -58.86328125 375.12890625 C-58.24839844 374.75636719 -57.63351563 374.38382812 -57 374 C-57 373.34 -57 372.68 -57 372 C-56.29875 371.7525 -55.5975 371.505 -54.875 371.25 C-51.60485452 369.82819762 -48.858878 368.12753712 -46 366 C-46 365.34 -46 364.68 -46 364 C-45.34 364 -44.68 364 -44 364 C-44 363.34 -44 362.68 -44 362 C-42.68 362 -41.36 362 -40 362 C-40 361.34 -40 360.68 -40 360 C-39.34 360 -38.68 360 -38 360 C-38 359.34 -38 358.68 -38 358 C-36.68 358 -35.36 358 -34 358 C-34 357.34 -34 356.68 -34 356 C-33.34 356 -32.68 356 -32 356 C-32 355.34 -32 354.68 -32 354 C-30.68 354 -29.36 354 -28 354 C-28 353.34 -28 352.68 -28 352 C-27.34 352 -26.68 352 -26 352 C-26 351.34 -26 350.68 -26 350 C-25.34 350 -24.68 350 -24 350 C-24 349.01 -24 348.02 -24 347 C-24.66 347 -25.32 347 -26 347 C-26 345.68 -26 344.36 -26 343 C-27.32 343 -28.64 343 -30 343 C-30 342.34 -30 341.68 -30 341 C-30.66 341 -31.32 341 -32 341 C-32 340.34 -32 339.68 -32 339 C-32.66 339 -33.32 339 -34 339 C-34 338.34 -34 337.68 -34 337 C-34.66 337 -35.32 337 -36 337 C-36 336.34 -36 335.68 -36 335 C-36.66 335 -37.32 335 -38 335 C-38 334.34 -38 333.68 -38 333 C-38.66 333 -39.32 333 -40 333 C-40 332.34 -40 331.68 -40 331 C-41.32 331 -42.64 331 -44 331 C-44 330.34 -44 329.68 -44 329 C-44.66 329 -45.32 329 -46 329 C-46 328.34 -46 327.68 -46 327 C-47.32 327 -48.64 327 -50 327 C-50 326.34 -50 325.68 -50 325 C-50.66 325 -51.32 325 -52 325 C-52 324.34 -52 323.68 -52 323 C-52.66 323 -53.32 323 -54 323 C-54 321.68 -54 320.36 -54 319 C-54.66 319 -55.32 319 -56 319 C-56 318.34 -56 317.68 -56 317 C-56.66 317 -57.32 317 -58 317 C-58 316.34 -58 315.68 -58 315 C-58.66 315 -59.32 315 -60 315 C-60 314.34 -60 313.68 -60 313 C-60.66 313 -61.32 313 -62 313 C-62 312.34 -62 311.68 -62 311 C-62.66 311 -63.32 311 -64 311 C-64 310.34 -64 309.68 -64 309 C-64.66 309 -65.32 309 -66 309 C-66 308.34 -66 307.68 -66 307 C-66.66 307 -67.32 307 -68 307 C-68 306.34 -68 305.68 -68 305 C-68.66 305 -69.32 305 -70 305 C-70 304.34 -70 303.68 -70 303 C-70.66 303 -71.32 303 -72 303 C-72 301.68 -72 300.36 -72 299 C-72.66 299 -73.32 299 -74 299 C-74 298.34 -74 297.68 -74 297 C-74.66 297 -75.32 297 -76 297 C-76 295.68 -76 294.36 -76 293 C-76.66 293 -77.32 293 -78 293 C-78 292.34 -78 291.68 -78 291 C-78.66 291 -79.32 291 -80 291 C-80 290.34 -80 289.68 -80 289 C-80.66 289 -81.32 289 -82 289 C-82 287.68 -82 286.36 -82 285 C-82.66 285 -83.32 285 -84 285 C-84 284.34 -84 283.68 -84 283 C-84.66 283 -85.32 283 -86 283 C-86 281.68 -86 280.36 -86 279 C-86.66 279 -87.32 279 -88 279 C-88.12375 278.360625 -88.2475 277.72125 -88.375 277.0625 C-88.684375 276.0415625 -88.684375 276.0415625 -89 275 C-89.66 274.67 -90.32 274.34 -91 274 Z M79 279 C79 279.66 79 280.32 79 281 C78.34 281 77.68 281 77 281 C77 281.66 77 282.32 77 283 C76.34 283 75.68 283 75 283 C75 283.66 75 284.32 75 285 C74.34 285 73.68 285 73 285 C73 285.66 73 286.32 73 287 C72.34 287 71.68 287 71 287 C71 287.66 71 288.32 71 289 C70.34 289 69.68 289 69 289 C69 289.66 69 290.32 69 291 C68.34 291 67.68 291 67 291 C67 291.66 67 292.32 67 293 C66.34 293 65.68 293 65 293 C65 293.66 65 294.32 65 295 C64.34 295 63.68 295 63 295 C63 295.66 63 296.32 63 297 C62.34 297 61.68 297 61 297 C61 297.66 61 298.32 61 299 C60.34 299 59.68 299 59 299 C59 299.66 59 300.32 59 301 C58.34 301 57.68 301 57 301 C57 301.66 57 302.32 57 303 C56.34 303 55.68 303 55 303 C55 303.66 55 304.32 55 305 C54.34 305 53.68 305 53 305 C53 305.66 53 306.32 53 307 C51.68 307 50.36 307 49 307 C49 307.66 49 308.32 49 309 C48.34 309 47.68 309 47 309 C47 309.66 47 310.32 47 311 C46.34 311 45.68 311 45 311 C45 311.66 45 312.32 45 313 C44.34 313 43.68 313 43 313 C43 313.66 43 314.32 43 315 C42.34 315 41.68 315 41 315 C41 315.66 41 316.32 41 317 C39.68 317 38.36 317 37 317 C37 317.66 37 318.32 37 319 C36.34 319 35.68 319 35 319 C35 319.66 35 320.32 35 321 C34.34 321 33.68 321 33 321 C33 321.66 33 322.32 33 323 C32.34 323 31.68 323 31 323 C31 323.66 31 324.32 31 325 C29.68 325 28.36 325 27 325 C27 325.66 27 326.32 27 327 C26.34 327 25.68 327 25 327 C25 327.66 25 328.32 25 329 C24.34 329 23.68 329 23 329 C23 329.66 23 330.32 23 331 C21.68 331 20.36 331 19 331 C19 331.66 19 332.32 19 333 C18.34 333 17.68 333 17 333 C17 333.66 17 334.32 17 335 C16.34 335 15.68 335 15 335 C15 335.66 15 336.32 15 337 C13.68 337 12.36 337 11 337 C11 337.66 11 338.32 11 339 C9.68 339 8.36 339 7 339 C7 339.66 7 340.32 7 341 C6.34 341 5.68 341 5 341 C5 341.66 5 342.32 5 343 C4.4225 343.12375 3.845 343.2475 3.25 343.375 C0.97664233 344.00648824 -0.9253529 344.88858191 -3 346 C-3 346.66 -3 347.32 -3 348 C-2.34 348 -1.68 348 -1 348 C-1 348.66 -1 349.32 -1 350 C0.32 350 1.64 350 3 350 C3 350.66 3 351.32 3 352 C3.66 352 4.32 352 5 352 C5 352.66 5 353.32 5 354 C5.66 354 6.32 354 7 354 C7 354.66 7 355.32 7 356 C8.32 356 9.64 356 11 356 C11 356.66 11 357.32 11 358 C12.32 358 13.64 358 15 358 C15 358.66 15 359.32 15 360 C16.32 360 17.64 360 19 360 C19 360.66 19 361.32 19 362 C20.98 362 22.96 362 25 362 C25 362.66 25 363.32 25 364 C26.98 364 28.96 364 31 364 C31 364.66 31 365.32 31 366 C32.98 366 34.96 366 37 366 C37 366.66 37 367.32 37 368 C38.32 368 39.64 368 41 368 C41 368.66 41 369.32 41 370 C42.32 370 43.64 370 45 370 C45 370.66 45 371.32 45 372 C46.98 372 48.96 372 51 372 C51 372.66 51 373.32 51 374 C52.98 374 54.96 374 57 374 C57 374.66 57 375.32 57 376 C57.99 376 58.98 376 60 376 C60 375.34 60 374.68 60 374 C60.66 374 61.32 374 62 374 C62 371.36 62 368.72 62 366 C62.66 366 63.32 366 64 366 C64 363.36 64 360.72 64 358 C64.66 358 65.32 358 66 358 C66 355.36 66 352.72 66 350 C66.66 350 67.32 350 68 350 C68 347.36 68 344.72 68 342 C68.66 342 69.32 342 70 342 C70 339.36 70 336.72 70 334 C70.66 334 71.32 334 72 334 C72 331.36 72 328.72 72 326 C72.66 326 73.32 326 74 326 C74 322.7 74 319.4 74 316 C74.66 316 75.32 316 76 316 C76 312.04 76 308.08 76 304 C76.66 304 77.32 304 78 304 C78 300.7 78 297.4 78 294 C78.66 294 79.32 294 80 294 C80 289.38 80 284.76 80 280 C80.66 279.67 81.32 279.34 82 279 C81.01 279 80.02 279 79 279 Z M-15.3125 356.0625 C-20.58155302 360.83484007 -26.69088997 363.83582744 -33 367 C-33 367.66 -33 368.32 -33 369 C-33.61875 369.144375 -34.2375 369.28875 -34.875 369.4375 C-37.03258322 369.93152225 -37.03258322 369.93152225 -39 371 C-39 371.66 -39 372.32 -39 373 C-39.66 373 -40.32 373 -41 373 C-41 373.66 -41 374.32 -41 375 C-41.66 375 -42.32 375 -43 375 C-43 375.66 -43 376.32 -43 377 C-43.66 377 -44.32 377 -45 377 C-45 377.66 -45 378.32 -45 379 C-45.66 379 -46.32 379 -47 379 C-47 380.32 -47 381.64 -47 383 C-47.66 383 -48.32 383 -49 383 C-49 383.66 -49 384.32 -49 385 C-50.32 385 -51.64 385 -53 385 C-53 385.66 -53 386.32 -53 387 C-54.32 387 -55.64 387 -57 387 C-57 387.66 -57 388.32 -57 389 C-58.32 389 -59.64 389 -61 389 C-61 390.65 -61 392.3 -61 394 C-60.34 394 -59.68 394 -59 394 C-59 395.32 -59 396.64 -59 398 C-58.34 398 -57.68 398 -57 398 C-57 399.98 -57 401.96 -57 404 C-56.34 404 -55.68 404 -55 404 C-55 405.32 -55 406.64 -55 408 C-54.34 408 -53.68 408 -53 408 C-53 408.66 -53 409.32 -53 410 C-52.34 410 -51.68 410 -51 410 C-51 411.32 -51 412.64 -51 414 C-50.34 414 -49.68 414 -49 414 C-49 415.32 -49 416.64 -49 418 C-48.34 418 -47.68 418 -47 418 C-47 418.66 -47 419.32 -47 420 C-46.34 420 -45.68 420 -45 420 C-45 420.66 -45 421.32 -45 422 C-44.34 422 -43.68 422 -43 422 C-43 422.66 -43 423.32 -43 424 C-42.34 424 -41.68 424 -41 424 C-41 424.66 -41 425.32 -41 426 C-39.68 426 -38.36 426 -37 426 C-37 426.66 -37 427.32 -37 428 C-36.34 428 -35.68 428 -35 428 C-35 428.66 -35 429.32 -35 430 C-33.68 430 -32.36 430 -31 430 C-31 430.66 -31 431.32 -31 432 C-30.34 432 -29.68 432 -29 432 C-29 432.66 -29 433.32 -29 434 C-27.68 434 -26.36 434 -25 434 C-25 434.66 -25 435.32 -25 436 C-24.34 436 -23.68 436 -23 436 C-23 436.66 -23 437.32 -23 438 C-21.68 438 -20.36 438 -19 438 C-19 438.66 -19 439.32 -19 440 C-17.02 440 -15.04 440 -13 440 C-13 440.66 -13 441.32 -13 442 C1.85 442 16.7 442 32 442 C32 441.34 32 440.68 32 440 C33.32 440 34.64 440 36 440 C36 439.34 36 438.68 36 438 C37.32 438 38.64 438 40 438 C40 437.34 40 436.68 40 436 C40.66 436 41.32 436 42 436 C42 435.34 42 434.68 42 434 C42.66 434 43.32 434 44 434 C44 431.36 44 428.72 44 426 C44.66 426 45.32 426 46 426 C46 424.68 46 423.36 46 422 C46.66 422 47.32 422 48 422 C48 420.02 48 418.04 48 416 C48.66 416 49.32 416 50 416 C50 413.36 50 410.72 50 408 C50.66 408 51.32 408 52 408 C52 406.02 52 404.04 52 402 C52.66 402 53.32 402 54 402 C54 400.02 54 398.04 54 396 C54.66 396 55.32 396 56 396 C56 395.01 56 394.02 56 393 C54.68 393 53.36 393 52 393 C52 392.34 52 391.68 52 391 C50.02 391 48.04 391 46 391 C46 390.34 46 389.68 46 389 C44.02 389 42.04 389 40 389 C40 388.34 40 387.68 40 387 C38.68 387 37.36 387 36 387 C36 386.34 36 385.68 36 385 C34.02 385 32.04 385 30 385 C30 384.34 30 383.68 30 383 C28.68 383 27.36 383 26 383 C26 382.34 26 381.68 26 381 C24.02 381 22.04 381 20 381 C20 380.34 20 379.68 20 379 C18.68 379 17.36 379 16 379 C16 378.34 16 377.68 16 377 C14.68 377 13.36 377 12 377 C12 376.34 12 375.68 12 375 C11.34 375 10.68 375 10 375 C10 374.34 10 373.68 10 373 C9.34 373 8.68 373 8 373 C8 372.34 8 371.68 8 371 C7.34 371 6.68 371 6 371 C6 370.34 6 369.68 6 369 C5.34 369 4.68 369 4 369 C4.0825 368.236875 4.165 367.47375 4.25 366.6875 C4.28317959 363.87988598 4.28317959 363.87988598 2.125 362.1875 C0.1147343 360.83739288 0.1147343 360.83739288 -2 361 C-2 360.34 -2 359.68 -2 359 C-4.81509993 356.7226499 -4.81509993 356.7226499 -8 357 C-8 356.34 -8 355.68 -8 355 C-8.66 355 -9.32 355 -10 355 C-10 354.34 -10 353.68 -10 353 C-12.77830975 353 -13.3403344 354.14101103 -15.3125 356.0625 Z " fill="#00FCFC" transform="translate(300,81)"/>
<path d="M0 0 C2.2605719 -0.0215973 4.5210598 -0.05572025 6.78125 -0.10253906 C10.06686139 -0.16982693 13.35075806 -0.19704099 16.63696289 -0.21606445 C17.63520584 -0.24389511 18.63344879 -0.27172577 19.66194153 -0.30039978 C30.08471635 -0.27020345 37.05176111 4.9716992 44.33618164 11.9675293 C47.1983231 14.6942992 50.00091306 17.33754341 53.10180664 19.79174805 C66.28698814 31.3374109 73.07702424 49.34434735 75.08618164 66.4050293 C75.4224249 71.56628641 75.45785342 76.73105674 75.45678711 81.90161133 C75.46116194 84.26936774 75.49760399 86.63525666 75.53540039 89.00268555 C75.60596208 98.46722822 74.61000385 106.49211693 71.08618164 115.4050293 C70.68641113 116.44699463 70.68641113 116.44699463 70.27856445 117.51000977 C66.2679634 127.26734454 60.16938037 134.75601292 53.08618164 142.4050293 C52.08844727 143.50717773 52.08844727 143.50717773 51.07055664 144.6315918 C47.95603791 147.92849226 44.99498365 150.09147361 40.99536133 152.30957031 C39.08456432 153.40595729 37.26044852 154.58223355 35.42993164 155.80737305 C23.34725457 163.82341892 10.9196772 169.69588215 -3.91381836 169.4050293 C-3.91381836 167.4250293 -3.91381836 165.4450293 -3.91381836 163.4050293 C-5.65791992 162.96803711 -5.65791992 162.96803711 -7.43725586 162.5222168 C-15.89477725 160.37110913 -24.29781118 158.09544304 -32.60131836 155.4050293 C-33.31787598 155.18057129 -34.03443359 154.95611328 -34.77270508 154.72485352 C-42.39546766 152.19105507 -48.44201815 148.29773722 -53.91381836 142.4050293 C-57.27874362 138.86900614 -60.49697806 135.57680542 -64.60131836 132.9050293 C-67.54608196 130.87236061 -69.13949227 128.83792597 -70.75366211 125.58862305 C-71.9451161 123.25283453 -71.9451161 123.25283453 -73.79272461 120.62768555 C-82.28222739 107.97942082 -84.61730756 94.79513578 -84.43530273 79.81298828 C-84.41370473 77.70644624 -84.43533506 75.60327148 -84.46069336 73.49682617 C-84.48996277 60.7493025 -81.24062482 49.86528856 -75.22631836 38.6550293 C-74.79134033 37.839375 -74.3563623 37.0237207 -73.90820312 36.18334961 C-68.82101009 26.98155586 -62.06769193 20.9867802 -53.66381836 14.81518555 C-51.79114426 13.50622411 -51.79114426 13.50622411 -50.91381836 11.4050293 C-34.75830998 0.7963465 -18.63291811 0.13368062 0 0 Z " fill="#00A8FC" transform="translate(294.913818359375,216.594970703125)"/>
<path d="M0 0 C2.2605719 -0.0215973 4.5210598 -0.05572025 6.78125 -0.10253906 C10.06686139 -0.16982693 13.35075806 -0.19704099 16.63696289 -0.21606445 C17.63520584 -0.24389511 18.63344879 -0.27172577 19.66194153 -0.30039978 C30.08471635 -0.27020345 37.05176111 4.9716992 44.33618164 11.9675293 C47.1983231 14.6942992 50.00091306 17.33754341 53.10180664 19.79174805 C66.28698814 31.3374109 73.07702424 49.34434735 75.08618164 66.4050293 C75.4224249 71.56628641 75.45785342 76.73105674 75.45678711 81.90161133 C75.46116194 84.26936774 75.49760399 86.63525666 75.53540039 89.00268555 C75.60596208 98.46722822 74.61000385 106.49211693 71.08618164 115.4050293 C70.68641113 116.44699463 70.68641113 116.44699463 70.27856445 117.51000977 C66.2679634 127.26734454 60.16938037 134.75601292 53.08618164 142.4050293 C52.08844727 143.50717773 52.08844727 143.50717773 51.07055664 144.6315918 C47.95603791 147.92849226 44.99498365 150.09147361 40.99536133 152.30957031 C39.08456432 153.40595729 37.26044852 154.58223355 35.42993164 155.80737305 C23.34725457 163.82341892 10.9196772 169.69588215 -3.91381836 169.4050293 C-3.91381836 167.4250293 -3.91381836 165.4450293 -3.91381836 163.4050293 C-5.65791992 162.96803711 -5.65791992 162.96803711 -7.43725586 162.5222168 C-15.89477725 160.37110913 -24.29781118 158.09544304 -32.60131836 155.4050293 C-33.31787598 155.18057129 -34.03443359 154.95611328 -34.77270508 154.72485352 C-42.39546766 152.19105507 -48.44201815 148.29773722 -53.91381836 142.4050293 C-57.27874362 138.86900614 -60.49697806 135.57680542 -64.60131836 132.9050293 C-67.54608196 130.87236061 -69.13949227 128.83792597 -70.75366211 125.58862305 C-71.9451161 123.25283453 -71.9451161 123.25283453 -73.79272461 120.62768555 C-82.28222739 107.97942082 -84.61730756 94.79513578 -84.43530273 79.81298828 C-84.41370473 77.70644624 -84.43533506 75.60327148 -84.46069336 73.49682617 C-84.48996277 60.7493025 -81.24062482 49.86528856 -75.22631836 38.6550293 C-74.79134033 37.839375 -74.3563623 37.0237207 -73.90820312 36.18334961 C-68.82101009 26.98155586 -62.06769193 20.9867802 -53.66381836 14.81518555 C-51.79114426 13.50622411 -51.79114426 13.50622411 -50.91381836 11.4050293 C-34.75830998 0.7963465 -18.63291811 0.13368062 0 0 Z M-63.47631836 33.3425293 C-68.3714163 39.58686432 -71.77413527 46.15960678 -74.91381836 53.4050293 C-75.34823242 54.29963867 -75.78264648 55.19424805 -76.23022461 56.1159668 C-82.1858132 70.2682714 -80.57535595 90.44904862 -75.07006836 104.5690918 C-74.12851095 106.60642723 -73.0751548 108.48407656 -71.91381836 110.4050293 C-71.33889648 111.37182617 -70.76397461 112.33862305 -70.17163086 113.3347168 C-67.66458365 117.45216194 -67.66458365 117.45216194 -64.91381836 121.4050293 C-64.25381836 121.4050293 -63.59381836 121.4050293 -62.91381836 121.4050293 C-62.82100586 121.98913574 -62.72819336 122.57324219 -62.63256836 123.17504883 C-61.74189773 125.93842706 -60.52183488 127.10165463 -58.41381836 129.0847168 C-57.6906543 129.76663086 -56.96749023 130.44854492 -56.22241211 131.15112305 C-55.46057617 131.85366211 -54.69874023 132.55620117 -53.91381836 133.2800293 C-53.18291992 133.97483398 -52.45202148 134.66963867 -51.69897461 135.38549805 C-43.13044645 143.38178706 -35.10838102 148.14796079 -23.91381836 151.6550293 C-22.88514648 151.99276367 -21.85647461 152.33049805 -20.79663086 152.6784668 C-12.26234057 155.43636722 -4.25239554 157.68923438 4.77368164 157.7175293 C6.63573242 157.74266602 6.63573242 157.74266602 8.53540039 157.76831055 C12.38059095 157.37490821 14.70676265 156.20519268 18.08618164 154.4050293 C20.28930664 154.1394043 20.28930664 154.1394043 22.33618164 154.1550293 C28.27286703 153.69991713 32.75799932 150.31756154 37.08618164 146.4050293 C37.08618164 145.7450293 37.08618164 145.0850293 37.08618164 144.4050293 C38.07618164 144.4050293 39.06618164 144.4050293 40.08618164 144.4050293 C40.08618164 143.7450293 40.08618164 143.0850293 40.08618164 142.4050293 C40.80805664 142.1781543 41.52993164 141.9512793 42.27368164 141.7175293 C54.63853385 135.94726493 63.46432889 117.56251154 68.08618164 105.4050293 C74.76314679 84.34690845 69.988505 60.48810052 60.20336914 41.3112793 C54.13731331 29.91477983 46.0088476 22.3654866 36.08618164 14.4050293 C35.18641602 13.66510742 34.28665039 12.92518555 33.35961914 12.1628418 C26.83443882 6.90341552 22.12754966 5.09343225 13.62915039 5.0690918 C12.80852615 5.062435 11.98790192 5.0557782 11.14241028 5.04891968 C9.40339384 5.03881085 7.66433875 5.03410211 5.92529297 5.03442383 C3.320026 5.0301061 0.71653349 4.99392589 -1.88842773 4.95581055 C-27.48089227 4.77704919 -46.5341194 14.01702407 -63.47631836 33.3425293 Z " fill="#000102" transform="translate(294.913818359375,216.594970703125)"/>
<path d="M0 0 C5.84928878 1.7331226 9.79555255 5.92068936 13 11 C15.12775777 15.83908342 16.58273692 20.91659359 18 26 C18.18248291 26.6496875 18.36496582 27.299375 18.55297852 27.96875 C19.29865552 31.35708026 19.10214259 34.79804498 19.0625 38.25 C19.05798828 38.99507813 19.05347656 39.74015625 19.04882812 40.5078125 C19.03709246 42.3385764 19.0191585 44.16929873 19 46 C13.65985473 46.19071947 9.79875548 45.88695401 4.75 43.9375 C-0.08958008 42.01493543 -0.08958008 42.01493543 -5 43 C-8.33333333 44.5 -8.33333333 44.5 -11 47 C-11.50125283 50.66857722 -11.50125283 50.66857722 -11 54 C-13.64 54 -16.28 54 -19 54 C-19 53.34 -19 52.68 -19 52 C-19.66 52 -20.32 52 -21 52 C-23.18910479 47.62179042 -22.26863446 41.75421226 -22.29516602 36.89135742 C-22.30656789 35.44171293 -22.3268274 33.99210635 -22.35668945 32.54272461 C-22.58326317 21.53681144 -21.7734141 11.45132088 -16.0625 1.6875 C-10.93680906 -1.13686032 -5.70390108 -0.63456801 0 0 Z " fill="#060C0F" transform="translate(318,242)"/>
<path d="M0 0 C7.38790341 6.06186947 8.4347123 17.11696587 10.4375 26 C10.78167969 27.45599609 10.78167969 27.45599609 11.1328125 28.94140625 C12.34471906 34.39498576 12.61767535 39.41456404 12.4375 45 C10.0625 45.125 10.0625 45.125 7.4375 45 C6.7775 44.34 6.1175 43.68 5.4375 43 C-0.76901686 40.23109938 -6.79659935 38.51063401 -13.5625 38 C-14.0575 40.475 -14.0575 40.475 -14.5625 43 C-19.5125 43.495 -19.5125 43.495 -24.5625 44 C-29.73995603 37.36638446 -29.50170447 30.12101383 -28.5625 22 C-27.23179293 14.08905924 -25.54390529 4.64672497 -18.7109375 -0.35546875 C-12.77363333 -2.13666 -5.89670731 -1.65521609 0 0 Z " fill="#06090B" transform="translate(272.5625,255)"/>
<path d="M0 0 C7.59922609 2.53307536 11.12502996 7.22339362 15 14 C18.14018413 21.07000521 19.51398561 27.29021592 19 35 C17.39566191 34.52140759 15.79153584 34.04210442 14.1875 33.5625 C13.29417969 33.29566406 12.40085937 33.02882813 11.48046875 32.75390625 C9.64526945 32.19612127 7.81966274 31.60655425 6 31 C-1.0218276 30.01694414 -4.6166368 33.04196718 -10 37 C-10.99 37.495 -10.99 37.495 -12 38 C-12.98991062 10.41999035 -12.98991062 10.41999035 -5.625 1.625 C-3 0 -3 0 0 0 Z " fill="#FBFBFB" transform="translate(313,247)"/>
<path d="M0 0 C1.22589844 0.01353516 1.22589844 0.01353516 2.4765625 0.02734375 C3.41628906 0.04474609 3.41628906 0.04474609 4.375 0.0625 C4.375 0.7225 4.375 1.3825 4.375 2.0625 C4.973125 2.248125 5.57125 2.43375 6.1875 2.625 C10.24854154 5.29368444 11.35070762 10.49420072 12.32421875 15.0703125 C12.57880442 16.44115844 12.82486201 17.81361476 13.0625 19.1875 C13.25682617 20.22197266 13.25682617 20.22197266 13.45507812 21.27734375 C14.11181444 24.91197966 14.52590174 28.36900022 14.375 32.0625 C13.75753906 31.8459375 13.14007813 31.629375 12.50390625 31.40625 C3.15987301 28.33423907 -4.1753309 28.56045995 -13.625 31.0625 C-15.60453963 21.65968675 -13.51616961 11.92212551 -8.60546875 3.66796875 C-5.83303154 0.02060066 -4.38417674 -0.0626311 0 0 Z " fill="#F9F9F9" transform="translate(263.625,258.9375)"/>
<path d="M0 0 C2.31 0 4.62 0 7 0 C7 2.97 7 5.94 7 9 C7.66 9.33 8.32 9.66 9 10 C9 12.31 9 14.62 9 17 C5.37 17 1.74 17 -2 17 C-2 16.34 -2 15.68 -2 15 C-2.66 15 -3.32 15 -4 15 C-4 12.69 -4 10.38 -4 8 C-3.34 8 -2.68 8 -2 8 C-2 6.02 -2 4.04 -2 2 C-1.34 2 -0.68 2 0 2 C0 1.34 0 0.68 0 0 Z " fill="#00FFFF" transform="translate(70,173)"/>
<path d="M0 0 C3.63 0 7.26 0 11 0 C11 2.31 11 4.62 11 7 C10.01 7 9.02 7 8 7 C8 9.31 8 11.62 8 14 C4.7 14 1.4 14 -2 14 C-3.26237731 11.47524538 -3.09856404 9.68799534 -3.0625 6.875 C-3.05347656 5.96492188 -3.04445312 5.05484375 -3.03515625 4.1171875 C-3.02355469 3.41851562 -3.01195312 2.71984375 -3 2 C-2.01 2 -1.02 2 0 2 C0 1.34 0 0.68 0 0 Z " fill="#000000" transform="translate(246,89)"/>
<path d="M0 0 C2.31 0 4.62 0 7 0 C7 1.32 7 2.64 7 4 C9.97 4.495 9.97 4.495 13 5 C13 7.64 13 10.28 13 13 C9.37 13 5.74 13 2 13 C2 12.34 2 11.68 2 11 C1.34 11 0.68 11 0 11 C0 7.37 0 3.74 0 0 Z " fill="#000000" transform="translate(534,204)"/>
<path d="M0 0 C0.495 0.99 0.495 0.99 1 2 C3.02463255 2.65213292 3.02463255 2.65213292 5 3 C3.4757174 4.0161884 1.95141045 5.0323403 0.42700195 6.04833984 C-0.91210235 6.94129515 -2.25079949 7.83486134 -3.58911133 8.72900391 C-7.11531603 11.08365047 -10.64743372 13.428116 -14.1953125 15.75 C-14.8648999 16.19037598 -15.5344873 16.63075195 -16.22436523 17.08447266 C-17.50523782 17.92649386 -18.78850483 18.76488721 -20.07446289 19.59912109 C-23.42381013 21.80753236 -26.18262954 24.16388872 -29 27 C-29.99 27.33 -30.98 27.66 -32 28 C-32 27.34 -32 26.68 -32 26 C-31.34 26 -30.68 26 -30 26 C-30 25.34 -30 24.68 -30 24 C-29.34 24 -28.68 24 -28 24 C-28 23.34 -28 22.68 -28 22 C-27.34 22 -26.68 22 -26 22 C-26 21.34 -26 20.68 -26 20 C-25.34 20 -24.68 20 -24 20 C-24 19.34 -24 18.68 -24 18 C-23.34 18 -22.68 18 -22 18 C-22 17.34 -22 16.68 -22 16 C-20.68 16 -19.36 16 -18 16 C-18 15.34 -18 14.68 -18 14 C-17.34 14 -16.68 14 -16 14 C-16 13.34 -16 12.68 -16 12 C-15.34 12 -14.68 12 -14 12 C-14 11.34 -14 10.68 -14 10 C-13.34 10 -12.68 10 -12 10 C-12 9.34 -12 8.68 -12 8 C-10.68 8 -9.36 8 -8 8 C-8 7.34 -8 6.68 -8 6 C-7.34 6 -6.68 6 -6 6 C-6 5.34 -6 4.68 -6 4 C-5.34 4 -4.68 4 -4 4 C-4 3.34 -4 2.68 -4 2 C-2.68 2 -1.36 2 0 2 C0 1.34 0 0.68 0 0 Z " fill="#000000" transform="translate(291,178)"/>
<path d="M0 0 C2.97 0 5.94 0 9 0 C9 2.31 9 4.62 9 7 C8.34 7 7.68 7 7 7 C7 7.66 7 8.32 7 9 C2.71 9 -1.58 9 -6 9 C-6 6.69 -6 4.38 -6 2 C-4.02 2 -2.04 2 0 2 C0 1.34 0 0.68 0 0 Z " fill="#00FFFF" transform="translate(394,533)"/>
<path d="M0 0 C2.31 0 4.62 0 7 0 C7 0.66 7 1.32 7 2 C8.98 2 10.96 2 13 2 C13 4.64 13 7.28 13 10 C9.37 10 5.74 10 2 10 C2 9.34 2 8.68 2 8 C1.34 8 0.68 8 0 8 C0 5.36 0 2.72 0 0 Z " fill="#000000" transform="translate(395,502)"/>
<path d="M0 0 C3.63 0 7.26 0 11 0 C11 2.31 11 4.62 11 7 C9.68 7 8.36 7 7 7 C7 8.32 7 9.64 7 11 C4.69 11 2.38 11 0 11 C0 7.37 0 3.74 0 0 Z " fill="#00FFFF" transform="translate(210,539)"/>
<path d="M0 0 C4.29 0 8.58 0 13 0 C13 2.31 13 4.62 13 7 C11.02 7 9.04 7 7 7 C7 7.66 7 8.32 7 9 C4.69 9 2.38 9 0 9 C0 6.03 0 3.06 0 0 Z " fill="#00FFFF" transform="translate(496,251)"/>
<path d="M0 0 C1.79158489 -0.02696365 3.58328473 -0.04637917 5.375 -0.0625 C6.37273437 -0.07410156 7.37046875 -0.08570312 8.3984375 -0.09765625 C11 0 11 0 13 1 C13 3.31 13 5.62 13 8 C8.71 8 4.42 8 0 8 C0 5.36 0 2.72 0 0 Z " fill="#000000" transform="translate(313,99)"/>
<path d="M0 0 C3.96 0 7.92 0 12 0 C12 2.64 12 5.28 12 8 C8.04 8 4.08 8 0 8 C0 5.36 0 2.72 0 0 Z " fill="#000000" transform="translate(501,367)"/>
<path d="M0 0 C4.29 0 8.58 0 13 0 C13 2.31 13 4.62 13 7 C8.71 7 4.42 7 0 7 C0 4.69 0 2.38 0 0 Z " fill="#000000" transform="translate(275,497)"/>
<path d="M0 0 C2.97 0 5.94 0 9 0 C9 2.31 9 4.62 9 7 C8.01 7 7.02 7 6 7 C6 7.66 6 8.32 6 9 C3.36 9 0.72 9 -2 9 C-2 6.69 -2 4.38 -2 2 C-1.34 2 -0.68 2 0 2 C0 1.34 0 0.68 0 0 Z " fill="#000000" transform="translate(471,284)"/>
<path d="M0 0 C3.3 0 6.6 0 10 0 C10 2.64 10 5.28 10 8 C6.7 8 3.4 8 0 8 C0 5.36 0 2.72 0 0 Z " fill="#000000" transform="translate(185,523)"/>
<path d="M0 0 C3.3 0 6.6 0 10 0 C10 2.64 10 5.28 10 8 C6.7 8 3.4 8 0 8 C0 5.36 0 2.72 0 0 Z " fill="#000000" transform="translate(71,310)"/>
<path d="M0 0 C2.31 0 4.62 0 7 0 C7 3.63 7 7.26 7 11 C4.69 11 2.38 11 0 11 C0 7.37 0 3.74 0 0 Z " fill="#00FFFF" transform="translate(498,301)"/>
<path d="M0 0 C2.31 0 4.62 0 7 0 C7 3.63 7 7.26 7 11 C4.69 11 2.38 11 0 11 C0 7.37 0 3.74 0 0 Z " fill="#00FFFF" transform="translate(554,259)"/>
<path d="M0 0 C2.97 0 5.94 0 9 0 C9 2.97 9 5.94 9 9 C6.69 9 4.38 9 2 9 C2 8.34 2 7.68 2 7 C1.34 7 0.68 7 0 7 C0 4.69 0 2.38 0 0 Z " fill="#00FFFF" transform="translate(106,249)"/>
<path d="M0 0 C2.97 0 5.94 0 9 0 C9 2.31 9 4.62 9 7 C8.34 7 7.68 7 7 7 C7 7.66 7 8.32 7 9 C4.69 9 2.38 9 0 9 C0 6.03 0 3.06 0 0 Z " fill="#00FFFF" transform="translate(528,165)"/>
<path d="M0 0 C3.63 0 7.26 0 11 0 C11 2.31 11 4.62 11 7 C7.37 7 3.74 7 0 7 C0 4.69 0 2.38 0 0 Z " fill="#00FFFF" transform="translate(246,89)"/>
<path d="M0 0 C2.64 0 5.28 0 8 0 C8 2.97 8 5.94 8 9 C5.36 9 2.72 9 0 9 C0 6.03 0 3.06 0 0 Z " fill="#000000" transform="translate(499,318)"/>
<path d="M0 0 C3.3 0 6.6 0 10 0 C10 2.31 10 4.62 10 7 C6.7 7 3.4 7 0 7 C0 4.69 0 2.38 0 0 Z " fill="#000000" transform="translate(92,267)"/>
<path d="M0 0 C2.97 0 5.94 0 9 0 C9 2.31 9 4.62 9 7 C6.03 7 3.06 7 0 7 C0 4.69 0 2.38 0 0 Z " fill="#00FFFF" transform="translate(506,445)"/>
<path d="M0 0 C2.31 0 4.62 0 7 0 C7 2.64 7 5.28 7 8 C4.69 8 2.38 8 0 8 C0 5.36 0 2.72 0 0 Z " fill="#000000" transform="translate(87,217)"/>
<path d="M0 0 C0.33 0.99 0.66 1.98 1 3 C-2.14695979 7.46665261 -5.98647214 10.8617447 -10.13671875 14.38671875 C-12.14214436 16.07706634 -12.14214436 16.07706634 -14.375 18.4375 C-16 20 -16 20 -18 20 C-18 19.34 -18 18.68 -18 18 C-17.34 18 -16.68 18 -16 18 C-16 17.34 -16 16.68 -16 16 C-15.34 16 -14.68 16 -14 16 C-14 15.34 -14 14.68 -14 14 C-13.34 14 -12.68 14 -12 14 C-12 13.34 -12 12.68 -12 12 C-11.34 12 -10.68 12 -10 12 C-10 11.34 -10 10.68 -10 10 C-9.34 10 -8.68 10 -8 10 C-8 9.34 -8 8.68 -8 8 C-7.34 8 -6.68 8 -6 8 C-6 7.34 -6 6.68 -6 6 C-5.34 6 -4.68 6 -4 6 C-4 5.34 -4 4.68 -4 4 C-3.34 4 -2.68 4 -2 4 C-2 3.34 -2 2.68 -2 2 C-1.34 2 -0.68 2 0 2 C0 1.34 0 0.68 0 0 Z " fill="#000000" transform="translate(421,318)"/>
<path d="M0 0 C2.31 0 4.62 0 7 0 C7 2.31 7 4.62 7 7 C4.69 7 2.38 7 0 7 C0 4.69 0 2.38 0 0 Z " fill="#00FFFF" transform="translate(150,391)"/>
<path d="M0 0 C2.31 0 4.62 0 7 0 C7 2.31 7 4.62 7 7 C4.69 7 2.38 7 0 7 C0 4.69 0 2.38 0 0 Z " fill="#00FFFF" transform="translate(58,349)"/>
<path d="M0 0 C2.31 0 4.62 0 7 0 C7 2.31 7 4.62 7 7 C4.69 7 2.38 7 0 7 C0 4.69 0 2.38 0 0 Z " fill="#00FFFF" transform="translate(504,343)"/>
<path d="M0 0 C2.31 0 4.62 0 7 0 C7 2.31 7 4.62 7 7 C4.69 7 2.38 7 0 7 C0 4.69 0 2.38 0 0 Z " fill="#00FFFF" transform="translate(132,97)"/>
<path d="M0 0 C3.76878586 1.55799693 6.11271145 3.909366 8.9375 6.8125 C9.77152344 7.66457031 10.60554688 8.51664062 11.46484375 9.39453125 C12.71974609 10.68423828 12.71974609 10.68423828 14 12 C15.66435667 13.66897347 17.33034916 15.33632286 19 17 C18.01 17.33 17.02 17.66 16 18 C16 17.34 16 16.68 16 16 C15.34 16 14.68 16 14 16 C14 15.34 14 14.68 14 14 C13.34 14 12.68 14 12 14 C12 13.34 12 12.68 12 12 C11.34 12 10.68 12 10 12 C10 11.34 10 10.68 10 10 C9.34 10 8.68 10 8 10 C8 9.34 8 8.68 8 8 C7.34 8 6.68 8 6 8 C6 7.34 6 6.68 6 6 C5.34 6 4.68 6 4 6 C4 5.34 4 4.68 4 4 C3.34 4 2.68 4 2 4 C2 3.34 2 2.68 2 2 C1.34 2 0.68 2 0 2 C0 1.34 0 0.68 0 0 Z " fill="#000000" transform="translate(267,403)"/>
<path d="M0 0 C0.66 0 1.32 0 2 0 C0.75602797 5.1832168 -0.9486746 8.5617085 -4 13 C-5.10472903 15.30268413 -6.05058923 17.62647308 -7 20 C-7.33 18.68 -7.66 17.36 -8 16 C-7.34 16 -6.68 16 -6 16 C-6 14.02 -6 12.04 -6 10 C-5.34 10 -4.68 10 -4 10 C-4 8.68 -4 7.36 -4 6 C-3.34 6 -2.68 6 -2 6 C-2 4.68 -2 3.36 -2 2 C-1.34 2 -0.68 2 0 2 C0 1.34 0 0.68 0 0 Z " fill="#000000" transform="translate(485,236)"/>
<path d="M0 0 C0.33 0.66 0.66 1.32 1 2 C1.66 2 2.32 2 3 2 C3 3.98 3 5.96 3 8 C3.66 8 4.32 8 5 8 C5 10.64 5 13.28 5 16 C5.66 16 6.32 16 7 16 C7 18.64 7 21.28 7 24 C5.25041441 21.37562161 4.5251318 19.81796628 3.7109375 16.875 C3.49179688 16.08609375 3.27265625 15.2971875 3.046875 14.484375 C2.82515625 13.66453125 2.6034375 12.8446875 2.375 12 C2.14554687 11.18015625 1.91609375 10.3603125 1.6796875 9.515625 C0 3.39676339 0 3.39676339 0 0 Z " fill="#000000" transform="translate(123,194)"/>
<path d="M0 0 C0.99 0.33 1.98 0.66 3 1 C2.34 1 1.68 1 1 1 C1 1.66 1 2.32 1 3 C0.34 3 -0.32 3 -1 3 C-1 3.66 -1 4.32 -1 5 C-1.66 5 -2.32 5 -3 5 C-3 5.66 -3 6.32 -3 7 C-3.66 7 -4.32 7 -5 7 C-5 7.66 -5 8.32 -5 9 C-5.66 9 -6.32 9 -7 9 C-7 9.66 -7 10.32 -7 11 C-7.66 11 -8.32 11 -9 11 C-9 11.66 -9 12.32 -9 13 C-9.66 13 -10.32 13 -11 13 C-11 13.66 -11 14.32 -11 15 C-11.66 15 -12.32 15 -13 15 C-11.50403926 11.60502173 -9.5352395 9.12862797 -7.0625 6.375 C-6.37285156 5.59898437 -5.68320313 4.82296875 -4.97265625 4.0234375 C-3 2 -3 2 0 0 Z " fill="#000000" transform="translate(159,284)"/>
<path d="M0 0 C7.28791429 0.46272472 14.6307176 1.6307176 20 7 C18.68 7 17.36 7 16 7 C16 6.34 16 5.68 16 5 C14.02 5 12.04 5 10 5 C10 4.34 10 3.68 10 3 C8.02 3 6.04 3 4 3 C4 2.34 4 1.68 4 1 C2.68 0.67 1.36 0.34 0 0 Z " fill="#000000" transform="translate(247,136)"/>
<path d="M0 0 C1.32 0 2.64 0 4 0 C4 1.98 4 3.96 4 6 C4.66 6 5.32 6 6 6 C6 7.32 6 8.64 6 10 C6.66 10 7.32 10 8 10 C8 11.65 8 13.3 8 15 C3.86232737 10.56677932 2.04471126 5.60120371 0 0 Z " fill="#000000" transform="translate(138,236)"/>
<path d="M0 0 C0 0.66 0 1.32 0 2 C-0.66 2 -1.32 2 -2 2 C-2 3.32 -2 4.64 -2 6 C-3.32 6 -4.64 6 -6 6 C-6 6.66 -6 7.32 -6 8 C-7.65 8 -9.3 8 -11 8 C-9.71034824 6.62437146 -8.37310707 5.29233607 -7 4 C-6.34 4 -5.68 4 -5 4 C-5 3.34 -5 2.68 -5 2 C-2 0 -2 0 0 0 Z " fill="#000000" transform="translate(248,451)"/>
<path d="M0 0 C0.33 0.66 0.66 1.32 1 2 C0.34 2 -0.32 2 -1 2 C-1 3.32 -1 4.64 -1 6 C-2.32 6 -3.64 6 -5 6 C-5 6.66 -5 7.32 -5 8 C-6.32 7.67 -7.64 7.34 -9 7 C-7.87720538 6.01830524 -6.75168527 5.03972702 -5.625 4.0625 C-4.68527344 3.24458984 -4.68527344 3.24458984 -3.7265625 2.41015625 C-2 1 -2 1 0 0 Z " fill="#000000" transform="translate(211,471)"/>
<path d="M0 0 C3.63 0 7.26 0 11 0 C11 0.66 11 1.32 11 2 C13.64 2 16.28 2 19 2 C19 2.33 19 2.66 19 3 C15.37 3 11.74 3 8 3 C8 2.34 8 1.68 8 1 C5.36 1 2.72 1 0 1 C0 0.67 0 0.34 0 0 Z " fill="#000000" transform="translate(383,472)"/>
<path d="M0 0 C0 0.33 0 0.66 0 1 C-1.65 1 -3.3 1 -5 1 C-5 1.66 -5 2.32 -5 3 C-7.64 3 -10.28 3 -13 3 C-8.24109471 0.62054735 -5.45161235 -0.10095578 0 0 Z " fill="#000000" transform="translate(409,460)"/>
</svg>
