<svg width="142" height="142" viewBox="0 0 142 142" fill="none" xmlns="http://www.w3.org/2000/svg">
<g clip-path="url(#clip0_255_11233)">
<rect width="142" height="142" rx="71" fill="white"/>
<path d="M131 71C131 104.137 104.137 131 71 131C37.8629 131 11 104.137 11 71C11 37.8629 37.8629 11 71 11C104.137 11 131 37.8629 131 71Z" fill="#FFD687"/>
<path fill-rule="evenodd" clip-rule="evenodd" d="M71 123C99.7188 123 123 99.7188 123 71C123 42.2812 99.7188 19 71 19C42.2812 19 19 42.2812 19 71C19 99.7188 42.2812 123 71 123ZM71 131C104.137 131 131 104.137 131 71C131 37.8629 104.137 11 71 11C37.8629 11 11 37.8629 11 71C11 104.137 37.8629 131 71 131Z" fill="#FDA700"/>
<path d="M88.1465 66.4086C91.3001 65.5625 92.8325 61.0363 91.5663 56.303C90.3002 51.5696 86.7088 48.416 83.5493 49.2621C80.3957 50.1082 78.8632 54.6285 80.1353 59.3678C81.4015 64.1011 84.987 67.2547 88.1465 66.4086ZM53.8535 75.5972C57.013 74.7511 58.5395 70.2249 57.2733 65.4915C56.0072 60.7582 52.4217 57.6046 49.2622 58.4507C46.1027 59.2968 44.5762 63.8171 45.8423 68.5564C47.1085 73.2956 50.694 76.4433 53.8535 75.5972ZM48.4279 93.1934C48.5697 92.6281 48.8214 92.0963 49.1687 91.6283C49.516 91.1603 49.9521 90.7653 50.4521 90.4659C50.9521 90.1665 51.5061 89.9684 52.0827 89.8831C52.6592 89.7979 53.2468 89.827 53.8121 89.9688C60.4979 91.6432 68.1777 91.6669 75.9759 89.5783C83.7741 87.4838 90.4126 83.6261 95.3707 78.8336C95.7888 78.4247 96.2835 78.1025 96.8265 77.8854C97.3695 77.6683 97.9501 77.5607 98.5348 77.5688C99.1195 77.5768 99.6969 77.7004 100.234 77.9323C100.771 78.1643 101.256 78.5 101.663 78.9203C102.069 79.3405 102.389 79.837 102.603 80.3812C102.817 80.9254 102.922 81.5065 102.91 82.0912C102.899 82.6759 102.772 83.2525 102.538 83.7881C102.303 84.3236 101.964 84.8075 101.542 85.2118C99.4395 87.2383 97.1626 89.0757 94.7377 90.7025L95.6784 92.6076C96.1958 93.6543 96.5015 94.7927 96.5782 95.9577C96.6548 97.1227 96.5008 98.2914 96.125 99.3968C95.7493 100.502 95.1591 101.523 94.3883 102.399C93.6175 103.276 92.6813 103.993 91.6332 104.507C90.5852 105.022 89.4459 105.324 88.2807 105.398C87.1155 105.471 85.9473 105.314 84.8429 104.935C83.7385 104.556 82.7198 103.963 81.8449 103.19C80.9701 102.417 80.2565 101.479 79.7448 100.429L78.5852 98.0628L78.2716 98.1456C69.0712 100.613 59.8589 100.631 51.6525 98.5775C51.0872 98.4358 50.5554 98.184 50.0874 97.8367C49.6194 97.4894 49.2245 97.0533 48.925 96.5533C48.6256 96.0534 48.4276 95.4993 48.3423 94.9228C48.257 94.3463 48.2861 93.7586 48.4279 93.1934Z" fill="#FDA700"/>
</g>
<defs>
<clipPath id="clip0_255_11233">
<rect width="142" height="142" fill="white"/>
</clipPath>
</defs>
</svg>
