<?xml version="1.0" encoding="UTF-8"?>
<svg version="1.1" xmlns="http://www.w3.org/2000/svg" width="512" height="512">
<path d="M0 0 C1.85705818 -0.0099852 1.85705818 -0.0099852 3.75163269 -0.02017212 C6.36101817 -0.03024115 8.9704291 -0.03499093 11.57983398 -0.03466797 C15.49443139 -0.03900868 19.40786937 -0.07530374 23.32226562 -0.11328125 C38.90233341 -0.1824846 53.50398649 1.06729398 68.73046875 4.3359375 C71.13258196 4.82052112 73.53588145 5.29883335 75.93933105 5.7767334 C95.04102243 9.7194431 113.21398564 17.16670334 130.79296875 25.4609375 C132.13258667 26.09080566 132.13258667 26.09080566 133.49926758 26.73339844 C138.18330461 28.97719541 142.47993698 31.35479531 146.73046875 34.3359375 C148.43547347 35.3147365 150.14062149 36.29333379 151.8515625 37.26171875 C153.9707746 38.4733265 156.07598762 39.70279717 158.16796875 40.9609375 C159.18697266 41.56808594 159.18697266 41.56808594 160.2265625 42.1875 C160.72285156 42.56648438 161.21914063 42.94546875 161.73046875 43.3359375 C161.73046875 43.9959375 161.73046875 44.6559375 161.73046875 45.3359375 C162.60316406 45.57183594 163.47585938 45.80773438 164.375 46.05078125 C168.13080177 47.48926644 170.39355239 49.26187262 173.41796875 51.8984375 C174.46427394 52.80014078 175.51116257 53.70116743 176.55859375 54.6015625 C177.08388672 55.05724609 177.60917969 55.51292969 178.15039062 55.98242188 C181.45315588 58.81161387 184.86873476 61.50591605 188.2578125 64.23046875 C190.89498062 66.47601949 193.30958549 68.85994471 195.73046875 71.3359375 C196.33890625 71.944375 196.94734375 72.5528125 197.57421875 73.1796875 C199.29296875 74.8984375 201.01171875 76.6171875 202.73046875 78.3359375 C203.51679688 79.10421875 204.303125 79.8725 205.11328125 80.6640625 C207.92326153 83.53275879 210.52696128 86.51072038 213.10546875 89.5859375 C213.58371094 90.15441406 214.06195313 90.72289063 214.5546875 91.30859375 C224.87682672 103.63395137 224.87682672 103.63395137 228.73046875 110.3359375 C229.70354944 111.79833876 230.68345518 113.25620849 231.66796875 114.7109375 C233.47002886 117.39627338 235.20655642 120.08029852 236.79296875 122.8984375 C238.14445546 125.29623651 239.51604238 127.56420072 241.01171875 129.86328125 C244.12660972 134.83285753 246.65620097 140.04174111 249.16796875 145.3359375 C249.65023926 146.35123535 250.13250977 147.3665332 250.62939453 148.41259766 C254.46429485 156.58518772 257.87892754 164.77248556 260.73046875 173.3359375 C260.94364746 173.97563477 261.15682617 174.61533203 261.37646484 175.27441406 C265.55655271 188.03866728 268.22211251 201.15634774 270.73046875 214.3359375 C270.90682358 215.23593475 271.08317841 216.13593201 271.26487732 217.0632019 C272.64905661 224.62083647 273.05163833 231.93193062 273.06640625 239.60546875 C273.07306305 240.84350754 273.07971985 242.08154633 273.08657837 243.35710144 C273.0966474 245.96648692 273.10139718 248.57589785 273.10107422 251.18530273 C273.10541493 255.09990014 273.14170999 259.01333812 273.1796875 262.92773438 C273.24889085 278.50780216 271.99911227 293.10945524 268.73046875 308.3359375 C268.24588513 310.73805071 267.7675729 313.1413502 267.28967285 315.5447998 C263.34696315 334.64649118 255.89970291 352.81945439 247.60546875 370.3984375 C247.18555664 371.29151611 246.76564453 372.18459473 246.33300781 373.10473633 C244.08921084 377.78877336 241.71161094 382.08540573 238.73046875 386.3359375 C237.75166975 388.04094222 236.77307246 389.74609024 235.8046875 391.45703125 C234.59307975 393.57624335 233.36360908 395.68145637 232.10546875 397.7734375 C231.70070313 398.45277344 231.2959375 399.13210938 230.87890625 399.83203125 C230.49992187 400.32832031 230.1209375 400.82460938 229.73046875 401.3359375 C229.07046875 401.3359375 228.41046875 401.3359375 227.73046875 401.3359375 C227.49457031 402.20863281 227.25867188 403.08132813 227.015625 403.98046875 C225.57713981 407.73627052 223.80453363 409.99902114 221.16796875 413.0234375 C220.26626547 414.06974269 219.36523882 415.11663132 218.46484375 416.1640625 C218.00916016 416.68935547 217.55347656 417.21464844 217.08398438 417.75585938 C214.25479238 421.05862463 211.5604902 424.47420351 208.8359375 427.86328125 C206.59038676 430.50044937 204.20646154 432.91505424 201.73046875 435.3359375 C201.12203125 435.944375 200.51359375 436.5528125 199.88671875 437.1796875 C198.16796875 438.8984375 196.44921875 440.6171875 194.73046875 442.3359375 C193.9621875 443.12226563 193.19390625 443.90859375 192.40234375 444.71875 C189.53364746 447.52873028 186.55568587 450.13243003 183.48046875 452.7109375 C182.91199219 453.18917969 182.34351563 453.66742188 181.7578125 454.16015625 C169.43245488 464.48229547 169.43245488 464.48229547 162.73046875 468.3359375 C161.26806749 469.30901819 159.81019776 470.28892393 158.35546875 471.2734375 C155.67013287 473.07549761 152.98610773 474.81202517 150.16796875 476.3984375 C147.77016974 477.74992421 145.50220553 479.12151113 143.203125 480.6171875 C138.23354872 483.73207847 133.02466514 486.26166972 127.73046875 488.7734375 C126.7151709 489.25570801 125.69987305 489.73797852 124.65380859 490.23486328 C116.48121853 494.0697636 108.29392069 497.48439629 99.73046875 500.3359375 C99.09077148 500.54911621 98.45107422 500.76229492 97.79199219 500.98193359 C85.02773897 505.16202146 71.91005851 507.82758126 58.73046875 510.3359375 C57.8304715 510.51229233 56.93047424 510.68864716 56.00320435 510.87034607 C48.44556978 512.25452536 41.13447563 512.65710708 33.4609375 512.671875 C32.22289871 512.6785318 30.98485992 512.6851886 29.70930481 512.69204712 C27.09991933 512.70211615 24.4905084 512.70686593 21.88110352 512.70654297 C17.96650611 512.71088368 14.05306813 512.74717874 10.13867188 512.78515625 C-5.44139591 512.8543596 -20.04304899 511.60458102 -35.26953125 508.3359375 C-37.67164446 507.85135388 -40.07494395 507.37304165 -42.47839355 506.8951416 C-61.58008493 502.9524319 -79.75304814 495.50517166 -97.33203125 487.2109375 C-98.22510986 486.79102539 -99.11818848 486.37111328 -100.03833008 485.93847656 C-104.72236711 483.69467959 -109.01899948 481.31707969 -113.26953125 478.3359375 C-114.97453597 477.3571385 -116.67968399 476.37854121 -118.390625 475.41015625 C-120.5098371 474.1985485 -122.61505012 472.96907783 -124.70703125 471.7109375 C-125.38636719 471.30617188 -126.06570312 470.90140625 -126.765625 470.484375 C-127.26191406 470.10539062 -127.75820312 469.72640625 -128.26953125 469.3359375 C-128.26953125 468.6759375 -128.26953125 468.0159375 -128.26953125 467.3359375 C-129.14222656 467.10003906 -130.01492187 466.86414063 -130.9140625 466.62109375 C-134.66986427 465.18260856 -136.93261489 463.41000238 -139.95703125 460.7734375 C-141.00333644 459.87173422 -142.05022507 458.97070757 -143.09765625 458.0703125 C-143.8855957 457.38678711 -143.8855957 457.38678711 -144.68945312 456.68945312 C-147.99221838 453.86026113 -151.40779726 451.16595895 -154.796875 448.44140625 C-157.43404312 446.19585551 -159.84864799 443.81193029 -162.26953125 441.3359375 C-162.87796875 440.7275 -163.48640625 440.1190625 -164.11328125 439.4921875 C-165.83203125 437.7734375 -167.55078125 436.0546875 -169.26953125 434.3359375 C-170.05585938 433.56765625 -170.8421875 432.799375 -171.65234375 432.0078125 C-174.46232403 429.13911621 -177.06602378 426.16115462 -179.64453125 423.0859375 C-180.12277344 422.51746094 -180.60101563 421.94898438 -181.09375 421.36328125 C-191.41588922 409.03792363 -191.41588922 409.03792363 -195.26953125 402.3359375 C-196.24261194 400.87353624 -197.22251768 399.41566651 -198.20703125 397.9609375 C-200.00909136 395.27560162 -201.74561892 392.59157648 -203.33203125 389.7734375 C-204.68351796 387.37563849 -206.05510488 385.10767428 -207.55078125 382.80859375 C-210.66567222 377.83901747 -213.19526347 372.63013389 -215.70703125 367.3359375 C-216.18930176 366.32063965 -216.67157227 365.3053418 -217.16845703 364.25927734 C-221.00335735 356.08668728 -224.41799004 347.89938944 -227.26953125 339.3359375 C-227.48270996 338.69624023 -227.69588867 338.05654297 -227.91552734 337.39746094 C-232.09561521 324.63320772 -234.76117501 311.51552726 -237.26953125 298.3359375 C-237.44588608 297.43594025 -237.62224091 296.53594299 -237.80393982 295.6086731 C-239.18811911 288.05103853 -239.59070083 280.73994438 -239.60546875 273.06640625 C-239.61212555 271.82836746 -239.61878235 270.59032867 -239.62564087 269.31477356 C-239.6357099 266.70538808 -239.64045968 264.09597715 -239.64013672 261.48657227 C-239.64447743 257.57197486 -239.68077249 253.65853688 -239.71875 249.74414062 C-239.78795335 234.16407284 -238.53817477 219.56241976 -235.26953125 204.3359375 C-234.78494763 201.93382429 -234.3066354 199.5305248 -233.82873535 197.1270752 C-229.88602565 178.02538382 -222.43876541 159.85242061 -214.14453125 142.2734375 C-213.72461914 141.38035889 -213.30470703 140.48728027 -212.87207031 139.56713867 C-210.62827334 134.88310164 -208.25067344 130.58646927 -205.26953125 126.3359375 C-204.29073225 124.63093278 -203.31213496 122.92578476 -202.34375 121.21484375 C-201.13214225 119.09563165 -199.90267158 116.99041863 -198.64453125 114.8984375 C-198.23976562 114.21910156 -197.835 113.53976563 -197.41796875 112.83984375 C-196.84949219 112.09541016 -196.84949219 112.09541016 -196.26953125 111.3359375 C-195.60953125 111.3359375 -194.94953125 111.3359375 -194.26953125 111.3359375 C-194.03363281 110.46324219 -193.79773438 109.59054688 -193.5546875 108.69140625 C-192.11620231 104.93560448 -190.34359613 102.67285386 -187.70703125 99.6484375 C-186.80532797 98.60213231 -185.90430132 97.55524368 -185.00390625 96.5078125 C-184.54822266 95.98251953 -184.09253906 95.45722656 -183.62304688 94.91601562 C-180.79385488 91.61325037 -178.0995527 88.19767149 -175.375 84.80859375 C-173.12944926 82.17142563 -170.74552404 79.75682076 -168.26953125 77.3359375 C-167.66109375 76.7275 -167.05265625 76.1190625 -166.42578125 75.4921875 C-164.70703125 73.7734375 -162.98828125 72.0546875 -161.26953125 70.3359375 C-160.11710937 69.15644531 -160.11710937 69.15644531 -158.94140625 67.953125 C-156.07270996 65.14314472 -153.09474837 62.53944497 -150.01953125 59.9609375 C-149.45105469 59.48269531 -148.88257813 59.00445312 -148.296875 58.51171875 C-135.97151738 48.18957953 -135.97151738 48.18957953 -129.26953125 44.3359375 C-127.80712999 43.36285681 -126.34926026 42.38295107 -124.89453125 41.3984375 C-122.20919537 39.59637739 -119.52517023 37.85984983 -116.70703125 36.2734375 C-114.30923224 34.92195079 -112.04126803 33.55036387 -109.7421875 32.0546875 C-104.77261122 28.93979653 -99.56372764 26.41020528 -94.26953125 23.8984375 C-93.2542334 23.41616699 -92.23893555 22.93389648 -91.19287109 22.43701172 C-83.02028103 18.6021114 -74.83298319 15.18747871 -66.26953125 12.3359375 C-65.62983398 12.12275879 -64.99013672 11.90958008 -64.33105469 11.68994141 C-51.56680147 7.50985354 -38.44912101 4.84429374 -25.26953125 2.3359375 C-24.369534 2.15958267 -23.46953674 1.98322784 -22.54226685 1.80152893 C-14.98463228 0.41734964 -7.67353813 0.01476792 0 0 Z " fill="#7A8482" transform="translate(239.26953125,-0.3359375)"/>
<path d="M0 0 C0.74823029 -0.00100708 1.49646057 -0.00201416 2.2673645 -0.00305176 C43.16399933 0.03404814 43.16399933 0.03404814 53.3125 9.6875 C55.84061629 14.19414208 57.09262988 18.49894495 58.0625 23.5625 C59.1360551 28.76303827 60.46910864 33.76451709 62.125 38.8125 C64.14757787 45.00028143 65.74164488 51.21615839 67.1875 57.5625 C68.74195861 64.3729487 70.54427465 70.99729377 72.75 77.625 C75.40845828 85.63337289 77.22466801 93.6969832 78.91918945 101.95751953 C80.367408 108.87503052 82.32686765 115.38195142 84.6953125 122.03125 C85.95377802 125.87190032 86.60300699 129.65325922 87.22265625 133.63671875 C87.99236773 137.45106674 89.41845674 140.9507313 90.8125 144.57421875 C91.96996336 147.87781209 92.5771257 151.15103855 93.1875 154.58984375 C93.84514263 157.69994536 94.77815042 160.661189 95.75 163.6875 C97.0447483 167.74786876 98.07775594 171.66747247 98.75 175.875 C99.37382569 179.71821183 100.35015917 183.11658962 101.75 186.75 C103.1276585 190.32787502 104.09321408 193.65104973 104.6875 197.4375 C105.42995157 202.03548954 106.63654161 206.38690741 108.0625 210.8125 C120.13809501 248.34353923 120.13809501 248.34353923 118.75 259.25 C116.95636089 262.0600346 115.73119065 263.75940468 112.75 265.25 C106.75022491 265.3017222 100.83812358 264.52188502 94.98046875 263.2890625 C74.64671612 259.01594414 54.02768111 258.26578006 33.75 263.25 C32.26164469 263.56063071 30.77197845 263.86502796 29.28125 264.1640625 C-0.86825437 270.29605761 -28.92890376 285.95976302 -50.25 308.25 C-54.48068992 310.36534496 -60.1347045 309.8217963 -64.60546875 308.61328125 C-65.37503906 308.34902344 -66.14460937 308.08476562 -66.9375 307.8125 C-94.36661767 298.89382984 -129.70077539 305.20398353 -156.25 314.25 C-157.47589844 314.6521875 -158.70179688 315.054375 -159.96484375 315.46875 C-174.30291719 320.53137366 -187.49242403 328.70325028 -199.25 338.25 C-200.21679688 339.02601563 -201.18359375 339.80203125 -202.1796875 340.6015625 C-207.3152132 344.70032794 -207.3152132 344.70032794 -212.140625 349.1484375 C-216.15278446 353.14184855 -219.18041539 353.93876196 -224.8203125 354.046875 C-228.54979104 352.82370197 -230.36999998 350.55300087 -232.25 347.25 C-233.73502338 343.3645077 -234.78158044 339.40165051 -235.8125 335.375 C-236.22918945 333.828125 -236.22918945 333.828125 -236.65429688 332.25 C-238.40554216 325.6959142 -240.03809776 319.11197083 -241.6758728 312.52883911 C-243.69815242 304.41894174 -245.81181735 296.33331619 -247.9375 288.25 C-248.15110168 287.43650085 -248.36470337 286.62300171 -248.58477783 285.78485107 C-251.98496391 272.85118609 -255.51994506 259.96062193 -259.20581055 247.10546875 C-261.24667466 239.95931936 -263.15714328 232.79867966 -264.89498901 225.57351685 C-265.70022756 222.26419245 -266.59246724 219.09305833 -267.875 215.9375 C-269.35538205 211.96738449 -270.02960695 208.19917971 -270.72265625 204.03515625 C-271.38507456 200.53660619 -272.40332417 197.21760002 -273.46875 193.82421875 C-274.9272125 189.01858482 -276.05912613 184.12745468 -277.25 179.25 C-277.9129481 176.54073841 -278.58059097 173.83267164 -279.25 171.125 C-279.559375 169.86429688 -279.86875 168.60359375 -280.1875 167.3046875 C-281.16711797 163.45417154 -282.31476408 159.66198056 -283.46923828 155.86083984 C-284.78254508 151.46918789 -285.98535194 147.04814662 -287.1875 142.625 C-287.57663574 141.19800781 -287.57663574 141.19800781 -287.97363281 139.7421875 C-289.88164251 132.70595842 -291.67908163 125.64889009 -293.390625 118.5625 C-294.20377817 115.2513754 -294.20377817 115.2513754 -295.3359375 112.09765625 C-296.63350842 108.05522378 -296.85976217 104.44797803 -296.25 100.25 C-293.45461505 95.35807633 -288.53456154 91.84700521 -284.25 88.25 C-283.0434375 87.21166016 -283.0434375 87.21166016 -281.8125 86.15234375 C-264.04209348 71.15856325 -244.07124673 60.37520286 -222.10205078 52.90234375 C-220.64051109 52.38754886 -219.20457965 51.80007225 -217.78125 51.1875 C-189.98974029 40.89434826 -154.291437 41.4530986 -125.92578125 48.01953125 C-123.30775493 48.52339352 -123.30775493 48.52339352 -121.66015625 47.203125 C-120.99306641 46.36007813 -120.99306641 46.36007813 -120.3125 45.5 C-97.57176869 20.47526511 -59.1028621 5.51609718 -26.25 1.25 C-25.18724854 1.10860596 -25.18724854 1.10860596 -24.10302734 0.96435547 C-16.09104339 0.02719308 -8.0554498 0.00753084 0 0 Z " fill="#FDFDFD" transform="translate(347.25,86.75)"/>
<path d="M0 0 C2.29041212 0.14619652 4.58234605 0.26964829 6.875 0.375 C17.37081121 1.17729761 17.37081121 1.17729761 21 4 C21.78808594 6.32226562 21.78808594 6.32226562 22.421875 9.21875 C23.50622886 13.91293924 24.67582355 18.55879006 25.97265625 23.19921875 C26.31490234 24.42833984 26.65714844 25.65746094 27.00976562 26.92382812 C27.714912 29.44482454 28.42064667 31.96565648 29.12695312 34.48632812 C30.74133555 40.28772885 32.293337 46.06841292 33.5456543 51.95874023 C34.35002241 55.5725617 35.36770879 59.12593574 36.375 62.6875 C36.59196533 63.46424072 36.80893066 64.24098145 37.0324707 65.04125977 C38.04726178 68.66455813 39.07759167 72.28232715 40.14453125 75.890625 C41.97171939 82.10443336 43.4487938 88.18742622 44.51171875 94.57421875 C45.07988227 97.39685513 46.08266696 99.96466657 47.16015625 102.62890625 C48.49483709 106.3970517 49.36358685 110.27581545 50.3059082 114.1574707 C51.79479023 120.25708415 53.40871579 126.31812418 55.0625 132.375 C55.30782471 133.27750488 55.55314941 134.18000977 55.8059082 135.10986328 C57.01650672 139.53156726 58.27554088 143.9298654 59.62109375 148.3125 C60.91096603 152.57129881 61.72527223 156.76486407 62.375 161.1640625 C63.04722775 164.21429594 64.08838219 166.94392779 65.21533203 169.84912109 C66.54619175 173.49718398 67.48010551 177.2398663 68.4375 181 C68.65067871 181.82161621 68.86385742 182.64323242 69.08349609 183.48974609 C70.64170505 189.51923624 72.13086495 195.56524146 73.61206055 201.61401367 C74.5135402 205.23897437 75.53311547 208.78126031 76.75 212.3125 C78 216 78 216 78 219 C76.82969238 218.76204712 76.82969238 218.76204712 75.63574219 218.51928711 C71.02082601 217.86014618 66.48474393 217.76068493 61.828125 217.69140625 C60.84093475 217.67614395 59.85374451 217.66088165 58.8366394 217.64515686 C37.76601153 217.37987137 18.2037544 217.34181435 -2 224 C-3.71928673 224.52205844 -5.43932409 225.04165221 -7.16015625 225.55859375 C-15.37699079 228.0979693 -23.31800573 231.11535517 -31 235 C-32.134375 235.56203125 -33.26875 236.1240625 -34.4375 236.703125 C-42.94793525 241.02063052 -50.75907224 246.06576397 -58.5390625 251.58203125 C-61.2851907 253.52739266 -64.0825116 255.31769347 -67 257 C-73.16801498 238.15941237 -73.16801498 238.15941237 -74.51171875 230.30078125 C-75.10126557 227.52283665 -75.9996407 224.93009979 -76.9375 222.25 C-78.84779016 216.7376498 -80.07127962 211.22983464 -81.234375 205.51953125 C-82.20575722 201.05414668 -83.48476546 196.71449991 -84.7734375 192.33203125 C-86.42993396 186.58754818 -87.88649753 180.78974184 -89.375 175 C-91.62263878 166.27952404 -93.89254891 157.5665065 -96.25 148.875 C-96.48380371 148.00617188 -96.71760742 147.13734375 -96.95849609 146.2421875 C-98.04393757 142.26404837 -99.20186018 138.34383291 -100.546875 134.4453125 C-101.78319724 130.80701544 -102.69074833 127.18655947 -103.48144531 123.42871094 C-104.50483214 118.63556018 -105.7019707 113.88328809 -106.875 109.125 C-107.11863281 108.11308594 -107.36226562 107.10117187 -107.61328125 106.05859375 C-108.84934327 101.05670548 -110.22537247 96.24294625 -112.0703125 91.4296875 C-113.78076658 86.90287531 -114.73532379 82.53464661 -115.5078125 77.76757812 C-116.3535182 73.01216157 -117.6929608 68.39581261 -119 63.75 C-119.26039062 62.80898437 -119.52078125 61.86796875 -119.7890625 60.8984375 C-121.16368345 55.90912849 -121.16368345 55.90912849 -122.6328125 50.94726562 C-123.67912366 47.53938596 -124.57933017 44.55362321 -124 41 C-105.00707291 16.91249952 -66.31569572 3.89895946 -37.18383789 -0.05444336 C-25.20082209 -1.47043528 -11.84717478 -2.60836957 0 0 Z " fill="#788280" transform="translate(198,153)"/>
<path d="M0 0 C1.24910156 -0.01224609 2.49820313 -0.02449219 3.78515625 -0.03710938 C4.99300781 -0.03904297 6.20085937 -0.04097656 7.4453125 -0.04296875 C8.53602051 -0.04707764 9.62672852 -0.05118652 10.75048828 -0.05541992 C15.51642513 0.3151151 18.90918563 1.47363721 22.75 4.3125 C25.19527238 7.62080969 25.50228651 9.26001861 25.23828125 13.2578125 C24.70822456 16.07338244 23.64674352 17.95641557 21.875 20.1875 C18.36775957 22.52566029 16.84169894 22.46193368 12.6875 22.53125 C10.81759399 22.57318481 10.81759399 22.57318481 8.90991211 22.6159668 C8.25135223 22.62719574 7.59279236 22.63842468 6.91427612 22.6499939 C3.48498297 22.71306501 0.05708739 22.81934983 -3.37109375 22.92578125 C-4.04796738 22.94663284 -4.724841 22.96748444 -5.42222595 22.9889679 C-33.94525983 23.90572294 -63.05762994 31.7588204 -86.125 49.1875 C-89.79408557 51.63355705 -92.86118769 52.02696402 -97.125 51.1875 C-99.81605198 49.01175584 -101.58032928 47.27684144 -103.125 44.1875 C-103.82571105 37.18038946 -103.82571105 37.18038946 -101.0078125 33.1875 C-98.27803637 30.13130619 -95.16342046 27.96790684 -91.625 25.9375 C-90.98336914 25.56326904 -90.34173828 25.18903809 -89.68066406 24.8034668 C-68.19049223 12.53603373 -46.51854678 5.06136752 -22.125 1.1875 C-20.89394531 0.9915625 -19.66289062 0.795625 -18.39453125 0.59375 C-12.29286202 -0.12530708 -6.13440042 0.00318505 0 0 Z " fill="#808B87" transform="translate(371.125,183.8125)"/>
<path d="M0 0 C2.26447363 0.00866097 4.52653543 -0.02064538 6.79077148 -0.05200195 C8.25235929 -0.05361107 9.71395149 -0.05304199 11.17553711 -0.05004883 C12.47305908 -0.05190186 13.77058105 -0.05375488 15.10742188 -0.05566406 C19.2845604 0.53232276 21.41859236 1.80528681 24.67163086 4.44604492 C27.13080672 8.13480872 27.48755023 11.16448782 26.67163086 15.44604492 C24.9271258 18.46812432 22.83860921 20.86255574 19.67163086 22.44604492 C17.08903288 22.56692293 14.52890777 22.63178864 11.94506836 22.65698242 C10.33828849 22.68511698 8.73151784 22.7137816 7.12475586 22.74291992 C4.60881479 22.78365605 2.09303349 22.82054952 -0.4230957 22.84741211 C-15.06769746 23.01708588 -28.82950478 24.57900942 -42.82836914 29.19604492 C-43.61751709 29.45208496 -44.40666504 29.708125 -45.21972656 29.97192383 C-59.49754298 34.72594238 -73.12160094 41.09886977 -85.53540039 49.65698242 C-88.85278907 51.78196706 -90.45918548 52.02230632 -94.32836914 51.44604492 C-98.14656048 49.71050341 -99.73730212 48.27152344 -101.32836914 44.44604492 C-102.04002223 41.29027181 -102.06629663 38.60243551 -101.32836914 35.44604492 C-94.26382503 24.83764754 -75.74947335 17.73931922 -64.32836914 13.44604492 C-62.66105794 12.7601095 -60.99437188 12.07265224 -59.32836914 11.38354492 C-50.88718897 8.05291952 -42.67521239 5.25320474 -33.66455078 3.98095703 C-30.24599822 3.43283785 -26.91523705 2.68071118 -23.53930664 1.91479492 C-15.68710039 0.2640313 -8.00503221 -0.04672026 0 0 Z " fill="#7F8986" transform="translate(383.328369140625,235.553955078125)"/>
<path d="M0 0 C1.14992432 -0.0220752 2.29984863 -0.04415039 3.48461914 -0.06689453 C10.40422475 -0.04967528 15.03122 0.63560548 20.875 4.4375 C23.34592491 8.14388736 23.42907837 11.13919504 22.875 15.4375 C21.23812815 19.02302881 20.18527417 20.23065055 16.875 22.4375 C13.63549805 22.72460938 13.63549805 22.72460938 9.63671875 22.78125 C8.56089287 22.8031842 8.56089287 22.8031842 7.46333313 22.82556152 C5.16311308 22.87202024 2.86297236 22.90614856 0.5625 22.9375 C-19.11859279 23.21270082 -38.22845553 25.14104858 -56.4140625 33.234375 C-58.87585746 34.32692954 -61.34668812 35.2635322 -63.875 36.1875 C-72.44379498 39.58163308 -80.79603642 44.42764019 -88.35546875 49.68359375 C-92.46756707 52.28772936 -94.33542266 52.12172533 -99.125 51.4375 C-101.81605198 49.26175584 -103.58032928 47.52684144 -105.125 44.4375 C-105.81864162 37.38547688 -105.81864162 37.38547688 -103.25 33.875 C-96.66303694 28.73716881 -89.97976287 24.21190197 -82.625 20.25 C-82.03283691 19.92926514 -81.44067383 19.60853027 -80.83056641 19.27807617 C-67.09063782 12.05389391 -50.5746495 5.780418 -35.1484375 3.8359375 C-32.86909175 3.5355586 -30.60379157 3.12569951 -28.3515625 2.6640625 C-18.90308541 0.73910746 -9.64235472 0.09496012 0 0 Z " fill="#808B88" transform="translate(359.125,131.5625)"/>
<path d="M0 0 C1.71270291 -0.0166029 3.42533533 -0.04394987 5.13769531 -0.08203125 C7.62552271 -0.13693437 10.11174538 -0.15868439 12.60009766 -0.17333984 C13.35963745 -0.19600922 14.11917725 -0.21867859 14.9017334 -0.24203491 C18.93053 -0.22610837 21.35385282 0.18303894 24.53564453 2.7578125 C27.52197735 5.81379572 27.99990198 6.43656742 28.31884766 10.66259766 C27.9899333 15.51408441 26.45158295 17.96736236 23.06884766 21.35009766 C20.54467773 21.62133789 20.54467773 21.62133789 17.33837891 21.65869141 C16.15429443 21.6814917 14.97020996 21.70429199 13.75024414 21.7277832 C12.4735083 21.74752197 11.19677246 21.76726074 9.88134766 21.78759766 C-23.26410402 22.66323032 -55.32529687 29.23181527 -82.86865234 48.78759766 C-85.45223047 50.53351293 -86.97451283 51.36050417 -90.05615234 52.10009766 C-94.26809273 51.0013306 -96.98203306 48.48607574 -99.93115234 45.35009766 C-101.36419299 42.48401637 -101.2375939 40.53708983 -100.93115234 37.35009766 C-97.89145251 31.42553525 -93.60052791 28.81295966 -87.93115234 25.53759766 C-86.61667114 24.76428101 -86.61667114 24.76428101 -85.27563477 23.9753418 C-69.20191518 14.71278746 -52.80421153 8.29767701 -34.74365234 4.22509766 C-33.59445312 3.96083984 -32.44525391 3.69658203 -31.26123047 3.42431641 C-20.6977712 1.01435523 -10.80815325 0.07674183 0 0 Z " fill="#7E8885" transform="translate(395.93115234375,287.64990234375)"/>
</svg>
