<svg width="142" height="142" viewBox="0 0 142 142" fill="none" xmlns="http://www.w3.org/2000/svg">
<g clip-path="url(#clip0_267_11937)">
<rect width="142" height="142" rx="71" fill="white"/>
<circle cx="71" cy="71" r="60" fill="#FFEECE"/>
<g clip-path="url(#clip1_267_11937)">
<path fill-rule="evenodd" clip-rule="evenodd" d="M35.6497 43.8211C35.3368 43.1258 34.7605 42.5832 34.0475 42.3128C33.3346 42.0424 32.5434 42.0662 31.8481 42.3791C31.1528 42.6921 30.6102 43.2684 30.3398 43.9813C30.0694 44.6942 30.0932 45.4854 30.4061 46.1807L61.8677 116.095C62.1806 116.79 62.757 117.332 63.4699 117.603C64.1828 117.873 64.974 117.849 65.6693 117.537C66.3647 117.224 66.9072 116.647 67.1776 115.934C67.4481 115.221 67.4242 114.43 67.1113 113.735L35.6497 43.8211Z" fill="#105AA4"/>
<path d="M62.8008 40.1783L61.9587 40.2125C55.5135 40.491 49.2874 42.6327 44.0349 46.3783L38.5599 50.2881L54.2907 85.245L59.7622 81.3368C65.0155 77.59 71.2429 75.4477 77.6895 75.1695C84.675 74.8719 91.3892 72.3814 96.8789 68.0516L97.5437 67.5297C98.4865 66.7866 99.1539 65.7496 99.4396 64.5836C99.7253 63.4177 99.613 62.1896 99.1205 61.0948L87.5316 35.342C87.2447 34.7051 86.8166 34.1419 86.2796 33.6951C85.7425 33.2483 85.1108 32.9297 84.4323 32.7634C83.7539 32.5972 83.0464 32.5876 82.3637 32.7355C81.681 32.8834 81.0409 33.1848 80.492 33.6169C75.4302 37.608 69.241 39.9061 62.8008 40.1783Z" fill="#0973DD"/>
</g>
</g>
<defs>
<clipPath id="clip0_267_11937">
<rect width="142" height="142" fill="white"/>
</clipPath>
<clipPath id="clip1_267_11937">
<rect width="92" height="92" fill="white" transform="translate(10.1748 47.9287) rotate(-24.228)"/>
</clipPath>
</defs>
</svg>
