<?xml version="1.0" encoding="UTF-8"?>
<svg version="1.1" xmlns="http://www.w3.org/2000/svg" width="192" height="192">
<path d="M0 0 C63.36 0 126.72 0 192 0 C192 63.36 192 126.72 192 192 C128.64 192 65.28 192 0 192 C0 128.64 0 65.28 0 0 Z " fill="#6AAA64" transform="translate(0,0)"/>
<path d="M0 0 C25.41 0 50.82 0 77 0 C77 6.93 77 13.86 77 21 C62.15 21 47.3 21 32 21 C32 26.61 32 32.22 32 38 C34.73152344 37.98839844 37.46304688 37.97679687 40.27734375 37.96484375 C42.91170129 37.95705358 45.54605757 37.95097659 48.18041992 37.94506836 C50.01668875 37.94002769 51.85295354 37.93319523 53.68920898 37.92456055 C56.32276401 37.91248328 58.95626616 37.90676919 61.58984375 37.90234375 C62.41588608 37.89718246 63.24192841 37.89202118 64.09300232 37.88670349 C66.06236368 37.88650795 68.03161614 37.93795848 70 38 C71 39 71 39 71.11352539 40.94946289 C71.10567017 42.1984436 71.10567017 42.1984436 71.09765625 43.47265625 C71.09515869 44.28226807 71.09266113 45.09187988 71.09008789 45.92602539 C71.08098389 46.96106201 71.07187988 47.99609863 71.0625 49.0625 C71.041875 52.341875 71.02125 55.62125 71 59 C58.13 59 45.26 59 32 59 C32 72.53 32 86.06 32 100 C21.44 100 10.88 100 0 100 C0 67 0 34 0 0 Z " fill="#FBFCFB" transform="translate(62,42)"/>
</svg>
