<?xml version="1.0" encoding="UTF-8"?>
<svg version="1.1" xmlns="http://www.w3.org/2000/svg" width="500" height="500">
<path d="M0 0 C165 0 330 0 500 0 C500 165 500 330 500 500 C335 500 170 500 0 500 C0 335 0 170 0 0 Z " fill="#FDFDFD" transform="translate(0,0)"/>
<path d="M0 0 C165 0 330 0 500 0 C500 165 500 330 500 500 C335 500 170 500 0 500 C0 335 0 170 0 0 Z M106 99 C105.47390137 99.49209961 104.94780273 99.98419922 104.40576172 100.49121094 C66.84633834 135.91398794 43.48360441 187.04628528 41.88793945 238.62207031 C40.97061116 297.76370736 58.25532986 351.25130869 99.60400391 394.53662109 C100.53353111 395.5110153 101.45772582 396.4905249 102.37646484 397.47509766 C127.53636014 424.39095322 161.91064942 442.38653345 197.0625 452.3125 C198.26289917 452.65812988 198.26289917 452.65812988 199.48754883 453.01074219 C216.01967932 457.43490207 232.71188776 458.54945383 249.75 458.4375 C250.70779358 458.43512329 251.66558716 458.43274658 252.65240479 458.43029785 C267.4370465 458.37301572 281.5902689 457.5755135 296 454 C297.26585937 453.69964844 298.53171875 453.39929688 299.8359375 453.08984375 C303.27648364 452.18050032 306.62483326 451.12755293 310 450 C310.72010254 449.76974121 311.44020508 449.53948242 312.18212891 449.30224609 C343.56233861 439.24324257 371.30881441 422.91548511 395 400 C395.7417749 399.29689697 395.7417749 399.29689697 396.49853516 398.57958984 C432.79341266 364.14897571 456.52786332 313.0645465 458.12670898 263.03515625 C458.81520299 229.84777371 455.86538017 198.6726186 442 168 C441.67805664 167.27151855 441.35611328 166.54303711 441.02441406 165.79248047 C431.25224402 143.7937137 418.19959972 123.80779815 401.42724609 106.47851562 C399.94358254 104.94155591 398.48227723 103.38498235 397.01953125 101.828125 C384.42462907 88.62705105 369.73733955 78.14080361 354 69 C353.36223633 68.62423828 352.72447266 68.24847656 352.06738281 67.86132812 C273.29394176 21.97311461 171.36743899 37.61951119 106 99 Z " fill="#000000" transform="translate(0,0)"/>
<path d="M0 0 C3.13046273 2.13578345 6.21863236 4.29578337 9.234375 6.58984375 C14.45631903 10.49041058 19.72351106 14.29374334 25.109375 17.96484375 C31.99999654 22.66811425 38.84795205 27.42890682 45.67578125 32.22290039 C50.14229901 35.35868191 54.61635182 38.48256812 59.10546875 41.5859375 C60.02682617 42.22490967 60.94818359 42.86388184 61.89746094 43.5222168 C63.67566052 44.75501433 65.45618497 45.98446664 67.23925781 47.21020508 C68.43373535 48.04007935 68.43373535 48.04007935 69.65234375 48.88671875 C70.35770264 49.37366211 71.06306152 49.86060547 71.78979492 50.36230469 C73.421875 51.65234375 73.421875 51.65234375 74.421875 53.65234375 C73.88137817 55.81263733 73.88137817 55.81263733 72.93408203 58.53149414 C72.58266144 59.55179214 72.23124084 60.57209015 71.86917114 61.62330627 C71.28037674 63.29476967 71.28037674 63.29476967 70.6796875 65 C70.27789276 66.15866074 69.87609802 67.31732147 69.46212769 68.51109314 C68.3826775 71.61878681 67.29658119 74.72405533 66.2074585 77.82836914 C65.13743248 80.88411746 64.07715809 83.94324606 63.015625 87.00195312 C58.85471969 98.96820467 54.63446469 110.91280317 50.3515625 122.8359375 C49.96984894 123.89974136 49.58813538 124.96354523 49.19485474 126.05958557 C48.84421967 127.03177536 48.49358459 128.00396515 48.13232422 129.00561523 C47.82495331 129.85832504 47.5175824 130.71103485 47.20089722 131.58958435 C46.421875 133.65234375 46.421875 133.65234375 45.421875 135.65234375 C14.401875 135.65234375 -16.618125 135.65234375 -48.578125 135.65234375 C-53.198125 122.45234375 -57.818125 109.25234375 -62.578125 95.65234375 C-64.063125 91.45 -65.548125 87.24765625 -67.078125 82.91796875 C-68.8828125 77.7578125 -68.8828125 77.7578125 -69.72558594 75.33740234 C-70.31717796 73.64767187 -70.91459777 71.9599749 -71.51660156 70.27392578 C-72.42619279 67.72246124 -73.31662946 65.16503355 -74.203125 62.60546875 C-74.47576172 61.85477112 -74.74839844 61.10407349 -75.02929688 60.33062744 C-76.75136439 55.26925281 -76.75136439 55.26925281 -75.91796875 52.30151367 C-73.62852348 49.48351025 -70.5893555 47.67658661 -67.578125 45.71484375 C-66.1132309 44.73509202 -64.64973974 43.75324011 -63.1875 42.76953125 C-62.42630859 42.25874023 -61.66511719 41.74794922 -60.88085938 41.22167969 C-57.14000381 38.67225013 -53.48579465 36.0066248 -49.828125 33.33984375 C-42.63634497 28.11193693 -35.38421499 22.97833975 -28.07299805 17.91870117 C-23.81326793 14.96082116 -19.61542904 11.94945416 -15.48828125 8.80859375 C-14.67294922 8.195 -13.85761719 7.58140625 -13.01757812 6.94921875 C-11.46687838 5.776956 -9.92713652 4.59001281 -8.40039062 3.38671875 C-3.30211757 -0.44528555 -3.30211757 -0.44528555 0 0 Z " fill="#000000" transform="translate(251.578125,176.34765625)"/>
<path d="M0 0 C1.89148378 1.32491864 3.72511433 2.70657962 5.55371094 4.11694336 C6.79621299 5.05835232 8.03972285 5.99843246 9.28417969 6.93725586 C9.92363525 7.43862061 10.56309082 7.93998535 11.22192383 8.45654297 C13.38592442 10.07774173 13.38592442 10.07774173 16.02416992 11.40429688 C20.25087339 13.78823186 22.84790643 15.45254227 24.43481445 20.16577148 C24.97068259 24.03457903 25.13604036 27.78463297 25.05371094 31.67944336 C25.05047821 32.35690613 25.04724548 33.0343689 25.04391479 33.73236084 C24.94592473 40.12937253 24.82047188 46.38919466 20.13964844 51.20678711 C16.62594325 53.93374642 12.76246969 55.89500718 8.75195312 57.79077148 C4.88826939 59.73605638 1.52425132 62.30335876 -1.94628906 64.86694336 C-3.35650557 65.8679328 -4.76931765 66.86527456 -6.18457031 67.85913086 C-6.90467285 68.36669922 -7.62477539 68.87426758 -8.36669922 69.3972168 C-12.45037449 72.26977407 -16.54228451 75.13055412 -20.63378906 77.99194336 C-26.26948952 81.93411475 -31.90506894 85.87641574 -37.52636719 89.83911133 C-38.95370082 90.84409039 -40.38333206 91.8458155 -41.81542969 92.84399414 C-44.89922663 95.00338975 -47.91806474 97.18268826 -50.81738281 99.58569336 C-51.74679688 100.33850586 -52.67621094 101.09131836 -53.63378906 101.86694336 C-54.39691406 102.52436523 -55.16003906 103.18178711 -55.94628906 103.85913086 C-60.15365368 105.63258397 -63.38890752 104.27928435 -67.63378906 102.99194336 C-68.47522461 102.75411133 -69.31666016 102.5162793 -70.18359375 102.27124023 C-72.81214745 101.5027266 -75.40833292 100.66286517 -78.00878906 99.80444336 C-79.34103516 99.40515625 -79.34103516 99.40515625 -80.70019531 98.99780273 C-85.05485716 97.54515079 -87.11616507 96.84001015 -89.56738281 92.82397461 C-90.09525391 90.92711914 -90.09525391 90.92711914 -90.63378906 88.99194336 C-90.85776367 88.27594971 -91.08173828 87.55995605 -91.3125 86.82226562 C-92.03033034 84.51505989 -92.68178544 82.19697769 -93.32128906 79.86694336 C-93.54623047 79.0819043 -93.77117187 78.29686523 -94.00292969 77.48803711 C-96.21984938 69.49634485 -96.21984938 69.49634485 -95.63378906 65.99194336 C-94.05175781 63.33569336 -94.05175781 63.33569336 -91.82128906 60.49194336 C-91.42111572 59.97929932 -91.02094238 59.46665527 -90.60864258 58.93847656 C-89.29941432 57.27636743 -87.96941519 55.63289628 -86.63378906 53.99194336 C-86.17939453 53.42781738 -85.725 52.86369141 -85.25683594 52.2824707 C-80.42783282 46.31413528 -75.58270728 40.52985929 -69.62207031 35.64428711 C-68.22076038 34.47974074 -66.86699395 33.25679833 -65.55175781 31.99584961 C-54.70803014 21.63242333 -15.85418688 -9.78211859 0 0 Z " fill="#010101" transform="translate(205.6337890625,93.008056640625)"/>
<path d="M0 0 C21.11229025 7.53558215 39.88623828 19.03241738 56.10546875 34.5234375 C58.11248914 36.4333945 60.13437162 38.18215846 62.296875 39.90625 C67.0767272 43.9569722 70.75651813 49.00087428 74.609375 53.90625 C75.47711057 54.94053059 76.34692663 55.97306904 77.21875 57.00390625 C78.04890625 58.02355469 78.8790625 59.04320312 79.734375 60.09375 C80.88292969 61.47626953 80.88292969 61.47626953 82.0546875 62.88671875 C85.24057238 69.07437958 82.10678603 76.2813143 80.171875 82.59375 C79.95466797 83.32658203 79.73746094 84.05941406 79.51367188 84.81445312 C78.90105494 86.85466987 78.28582993 88.88624962 77.609375 90.90625 C77.2532312 92.18810181 77.2532312 92.18810181 76.88989258 93.49584961 C75.1204547 96.82657604 73.39792342 97.20100113 69.8671875 98.3984375 C68.14435547 98.99011719 68.14435547 98.99011719 66.38671875 99.59375 C65.18144531 99.985625 63.97617187 100.3775 62.734375 100.78125 C61.53683594 101.19632812 60.33929688 101.61140625 59.10546875 102.0390625 C49.20531721 105.36498127 49.20531721 105.36498127 45.609375 103.90625 C43.91210938 102.91333008 43.91210938 102.91333008 42.203125 101.67578125 C41.55239014 101.20994629 40.90165527 100.74411133 40.23120117 100.26416016 C39.53099854 99.7541748 38.8307959 99.24418945 38.109375 98.71875 C36.57460676 97.61794841 35.039434 96.51771064 33.50390625 95.41796875 C32.70162598 94.84095215 31.8993457 94.26393555 31.07275391 93.66943359 C27.00385025 90.75708253 22.89972765 87.89547523 18.796875 85.03125 C17.10670022 83.84905928 15.41659663 82.66676677 13.7265625 81.484375 C12.02086324 80.29162389 10.31513401 79.09891566 8.609375 77.90625 C-1.1720503 71.0670834 -10.95208454 64.22620421 -20.703125 57.34375 C-21.37819092 56.86728027 -22.05325684 56.39081055 -22.7487793 55.89990234 C-24.02361617 54.99916929 -25.29020955 54.08663019 -26.54736328 53.16137695 C-28.35641376 51.8597294 -28.35641376 51.8597294 -30.37060547 50.96948242 C-32.60113882 49.8079486 -33.85808548 48.91715445 -35.390625 46.90625 C-36.70628131 42.08504406 -36.89551556 37.31441464 -36.890625 32.34375 C-36.90050446 31.32255569 -36.90050446 31.32255569 -36.9105835 30.2807312 C-36.89512134 23.6739847 -36.8316462 17.43964601 -31.9296875 12.5078125 C-28.39264475 9.78488963 -24.56146627 7.78803834 -20.51074219 5.93652344 C-17.59261214 4.51845471 -15.17503195 2.60432816 -12.640625 0.59375 C-7.92909475 -3.04158539 -5.41695929 -1.74740622 0 0 Z " fill="#010101" transform="translate(306.390625,93.09375)"/>
<path d="M0 0 C2.33546002 -0.00518876 4.67091364 -0.01646695 7.00631714 -0.03352356 C11.88553091 -0.04794756 16.75808626 0.00428313 21.63623047 0.10571289 C27.87175569 0.23095739 34.09469017 0.19952849 40.33056831 0.11943531 C45.14787623 0.07314098 49.96226588 0.10476625 54.77938461 0.16010094 C57.0764907 0.17823563 59.3738973 0.17371712 61.67090225 0.14554787 C79.06945966 0.0011641 79.06945966 0.0011641 83.92177582 4.01354599 C87.15287194 7.8014566 89.2999113 11.97068585 91.18981552 16.55310631 C92.0334132 18.63621452 92.0334132 18.63621452 93.72171021 21.24006653 C95.20645666 23.78527738 95.23798311 25.37255787 94.66015625 28.24072266 C93.07862954 33.39571358 90.7778585 38.23293612 88.4921875 43.10546875 C87.99976563 44.23275391 87.50734375 45.36003906 87 46.52148438 C82.70514418 55.68348011 82.70514418 55.68348011 77.40234375 58.08984375 C75.94529694 58.57363958 74.47560716 59.02235542 72.9921875 59.41796875 C72.11433594 59.72863281 71.23648438 60.03929687 70.33203125 60.359375 C42.69976469 67.50332684 13.38087826 67.08664533 -14.2578125 60.23046875 C-15.33748291 59.99130737 -15.33748291 59.99130737 -16.43896484 59.74731445 C-20.33932443 58.66743948 -22.49378368 57.24669035 -24.65625 53.9375 C-25.47166622 52.44783649 -26.25327734 50.93937523 -27.0078125 49.41796875 C-27.44867188 48.55502197 -27.88953125 47.6920752 -28.34375 46.80297852 C-29.74211457 43.98812426 -31.06890088 41.14812568 -32.3828125 38.29296875 C-32.84558594 37.33003906 -33.30835938 36.36710937 -33.78515625 35.375 C-34.21699219 34.43785156 -34.64882812 33.50070312 -35.09375 32.53515625 C-35.6822876 31.27614502 -35.6822876 31.27614502 -36.28271484 29.99169922 C-38.11632962 23.48329284 -34.56666262 17.27554865 -31.44580078 11.6940918 C-23.76162315 -1.03947007 -13.72082487 -0.32131006 0 0 Z " fill="#020202" transform="translate(221.0078125,351.58203125)"/>
<path d="M0 0 C6.03055749 0.90588923 11.79426752 3.02351051 17.5625 4.9375 C19.26696289 5.44893555 19.26696289 5.44893555 21.00585938 5.97070312 C22.09833984 6.34001953 23.19082031 6.70933594 24.31640625 7.08984375 C25.80829468 7.56732056 25.80829468 7.56732056 27.33032227 8.05444336 C31.55307351 11.13181918 32.39087431 15.14808453 34 20 C34.44850368 21.28811485 34.8991389 22.57548879 35.35148621 23.86225891 C36.9708726 28.49504418 38.54478556 33.14274615 40.11328125 37.79296875 C40.39770773 38.63560083 40.68213421 39.47823292 40.97517967 40.34639931 C42.47563668 44.79467829 43.97183014 49.24436788 45.46508789 53.69506836 C46.69731149 57.36493926 47.93822416 61.03169476 49.18676758 64.69604492 C50.70249949 69.14462629 52.20345327 73.59793356 53.69389915 78.05504799 C54.26174801 79.74519125 54.83469064 81.43363229 55.41289711 83.12026024 C56.21956616 85.47696182 57.00703199 87.8392872 57.7902832 90.20385742 C58.15092865 91.23657776 58.15092865 91.23657776 58.51885986 92.29016113 C60.36098062 97.96135069 60.08345679 102.39576628 57.80419922 107.87426758 C56.18406085 110.8673822 54.54598929 113.84742233 52.875 116.8125 C52.318125 117.86115234 51.76125 118.90980469 51.1875 119.99023438 C46.96099299 127.54243756 46.96099299 127.54243756 42.64453125 129.59765625 C41.44183594 129.73042969 40.23914063 129.86320313 39 130 C38.29423828 130.15605713 37.58847656 130.31211426 36.86132812 130.47290039 C31.30549627 131.70058688 25.56260025 132.50817819 20 131 C15.05359912 127.7006917 12.18075031 122.38068219 9.31005859 117.30810547 C8.05224043 115.09203896 6.71474619 112.95618934 5.33203125 110.81640625 C-1.0420698 100.76301389 -5.81106181 90.12118217 -10 79 C-10.25120605 78.34241699 -10.50241211 77.68483398 -10.76123047 77.00732422 C-15.06590188 65.46745908 -17.1319594 53.41606134 -18.60888672 41.22363281 C-18.86685403 39.09741536 -19.14923367 36.97399864 -19.45751953 34.85449219 C-21.68711005 18.55238769 -21.68711005 18.55238769 -17.23193359 12.66259766 C-12.88501598 8.40554375 -8.01546283 5.0823527 -2.76586914 2.03369141 C-1.03772959 1.12207055 -1.03772959 1.12207055 0 0 Z " fill="#010101" transform="translate(103,227)"/>
<path d="M0 0 C0.8765625 0.69738281 1.753125 1.39476562 2.65625 2.11328125 C3.5328125 2.79777344 4.409375 3.48226562 5.3125 4.1875 C6.2509375 4.92613281 7.189375 5.66476563 8.15625 6.42578125 C8.77749756 6.75529785 9.39874512 7.08481445 10.03881836 7.42431641 C12.1293231 8.60034126 13.59463919 9.59684568 15.15625 11.42578125 C16.08336008 15.11691039 15.91135601 18.64494037 15.71875 22.42578125 C15.69014893 23.46162354 15.66154785 24.49746582 15.63208008 25.56469727 C15.37357515 32.97652738 14.61811923 40.15344445 13.15625 47.42578125 C12.88167969 49.22402344 12.88167969 49.22402344 12.6015625 51.05859375 C9.83640892 68.22985611 3.57099923 84.25585833 -4.84375 99.42578125 C-5.19695312 100.06354492 -5.55015625 100.70130859 -5.9140625 101.35839844 C-8.05777772 105.17737312 -10.30300514 108.91280684 -12.67285156 112.59570312 C-13.46575549 113.83498749 -14.24339928 115.08414555 -15.00683594 116.34179688 C-21.39958563 126.76394833 -21.39958563 126.76394833 -26.9453125 128.265625 C-30.36923805 128.30239747 -33.4563216 127.93859024 -36.84375 127.42578125 C-38.22711548 127.51243042 -38.22711548 127.51243042 -39.63842773 127.60083008 C-43.06681946 127.69668572 -45.58553586 127.53009691 -48.84375 126.42578125 C-52.0620377 123.07976282 -54.16421847 119.37297492 -56.21264648 115.25415039 C-57.15530181 113.3651813 -58.16198264 111.52388904 -59.18554688 109.67773438 C-63.50034969 101.55546899 -64.31993336 96.10377168 -61.70088196 87.29496765 C-61.2264416 85.81231405 -60.74410611 84.33217048 -60.25512695 82.85424805 C-59.99151871 82.03859879 -59.72791046 81.22294952 -59.45631409 80.38258362 C-58.58981563 77.71061279 -57.71197471 75.04257111 -56.83203125 72.375 C-56.53152548 71.4593458 -56.23101971 70.5436916 -55.9214077 69.6002903 C-54.33406983 64.76360647 -52.73825572 59.92982177 -51.13500977 55.09838867 C-49.48151153 50.11036794 -47.85608813 45.11366468 -46.23696613 40.114398 C-44.98493005 36.26523316 -43.71285569 32.42291197 -42.43517113 28.58219337 C-41.82689908 26.74224834 -41.22612844 24.89980567 -40.63305092 23.05490685 C-39.8028807 20.47916728 -38.94485434 17.91438573 -38.0793457 15.3503418 C-37.84066772 14.58823395 -37.60198975 13.8261261 -37.3560791 13.04092407 C-36.05999063 9.30154769 -35.17414613 7.6353675 -31.78616333 5.48620605 C-30.81516693 5.13626587 -29.84417053 4.78632568 -28.84375 4.42578125 C-28.08006104 4.1316333 -27.31637207 3.83748535 -26.52954102 3.53442383 C-24.15833602 2.75834969 -21.78483412 1.99146856 -19.40625 1.23828125 C-18.17551758 0.82932617 -18.17551758 0.82932617 -16.91992188 0.41210938 C-5.70614418 -3.15875838 -5.70614418 -3.15875838 0 0 Z " fill="#010101" transform="translate(400.84375,230.57421875)"/>
</svg>
