<?xml version="1.0" encoding="UTF-8"?>
<svg version="1.1" xmlns="http://www.w3.org/2000/svg" width="204" height="212">
<path d="M0 0 C16.31334924 13.49981274 28.74291021 32.8527495 30.9375 54.25 C32.0483459 69.12740046 27.95641227 82.2274844 18.76171875 94.046875 C16.55980318 96.55683057 14.34155898 98.9322021 11.9375 101.25 C11.39029297 101.7855249 10.84308594 102.3210498 10.27929688 102.87280273 C4.84701943 107.9372988 -1.08116847 111.23810566 -7.6875 114.5625 C-8.698125 115.08650391 -9.70875 115.61050781 -10.75 116.15039062 C-15.46345966 118.56588406 -19.99963449 120.65678733 -25.0625 122.25 C-23.80419178 127.44512047 -22.23335065 129.29788037 -17.75 132.125 C-12.6862865 135.59801816 -9.63703418 138.69134666 -7.0625 144.25 C-6.629375 145.178125 -6.19625 146.10625 -5.75 147.0625 C-4.24860192 154.02352745 -3.91141068 161.05749938 -7.62890625 167.34765625 C-17.88628944 180.9589522 -36.27822485 185.71391972 -52.5 188 C-54.01876271 188.11505778 -55.54045508 188.19292332 -57.0625 188.25 C-58.279375 188.3015625 -59.49625 188.353125 -60.75 188.40625 C-90.67472055 189.25400569 -117.64353861 178.88112096 -139.42529297 158.33862305 C-157.8010282 140.45215344 -168.96920525 116.04976593 -169.35522461 90.32495117 C-169.50544062 61.27020822 -162.11588453 37.70168358 -143.0625 15.25 C-142.26779297 14.23679687 -142.26779297 14.23679687 -141.45703125 13.203125 C-107.63455139 -28.55302298 -40.92287481 -31.13696996 0 0 Z " fill="#97119D" transform="translate(172.0625,21.75)"/>
<path d="M0 0 C12.23151917 10.68880504 21.39843584 23.23176567 26.4140625 38.8359375 C26.71183594 39.74859375 27.00960937 40.66125 27.31640625 41.6015625 C29.25925235 48.5850646 29.69357619 55.31910086 29.7265625 62.5234375 C29.73204102 63.39009033 29.73751953 64.25674316 29.74316406 65.1496582 C29.58522487 79.49897859 29.58522487 79.49897859 25.828125 85.2734375 C25.23773438 85.7890625 24.64734375 86.3046875 24.0390625 86.8359375 C23.45382813 87.3721875 22.86859375 87.9084375 22.265625 88.4609375 C20.39213987 89.8522176 18.53213106 90.86554486 16.4140625 91.8359375 C16.7028125 90.815 16.9915625 89.7940625 17.2890625 88.7421875 C21.01304697 74.55289435 21.86207583 59.81778356 19.83203125 45.25 C19.4140625 41.8359375 19.4140625 41.8359375 20.4140625 39.8359375 C20.83844707 36.10135331 20.57392846 34.14927479 18.8515625 30.7734375 C16.54000886 27.98771901 14.31092712 26.40410465 11.3203125 24.43359375 C8.92047218 22.42225217 7.42127868 20.17495068 5.6640625 17.5859375 C-1.46227654 7.38979088 -12.87959238 -1.37086461 -24.8125 -5.19921875 C-28.32669462 -6.42176251 -29.34189662 -8.26852588 -31.5859375 -11.1640625 C-36.0335275 -13.91110338 -41.51067703 -13.72522951 -46.5859375 -13.1640625 C-47.20597656 -12.84695312 -47.82601562 -12.52984375 -48.46484375 -12.203125 C-51.41741601 -10.75674522 -54.19780655 -10.62710355 -57.4609375 -10.2890625 C-73.03545812 -8.40832979 -87.65100051 -3.60174201 -99.09765625 7.55078125 C-100.5859375 8.8359375 -100.5859375 8.8359375 -102.5859375 8.8359375 C-102.5859375 9.4959375 -102.5859375 10.1559375 -102.5859375 10.8359375 C-101.84988281 10.92230469 -101.11382812 11.00867188 -100.35546875 11.09765625 C-94.02083693 12.00977629 -90.58823358 12.76636247 -86.5859375 17.8359375 C-86.2559375 17.8359375 -85.9259375 17.8359375 -85.5859375 17.8359375 C-85.5859375 16.8459375 -85.5859375 15.8559375 -85.5859375 14.8359375 C-78.6469586 8.84027601 -67.72005815 4.8359375 -58.5859375 4.8359375 C-58.0909375 6.3209375 -58.0909375 6.3209375 -57.5859375 7.8359375 C-57.58335938 7.12308594 -57.58078125 6.41023438 -57.578125 5.67578125 C-57.32712548 -0.54064012 -56.58365546 -4.27186032 -52.25390625 -8.82421875 C-48.00390387 -12.23815509 -44.39431612 -12.59051371 -39.0625 -12.48828125 C-35.44417824 -12.01458928 -33.29821656 -10.53730668 -30.5859375 -8.1640625 C-28.6408375 -5.2464125 -28.13317433 -3.53868965 -27.5859375 -0.1640625 C-27.2559375 -0.8240625 -26.9259375 -1.4840625 -26.5859375 -2.1640625 C-14.50317093 1.50486516 -1.65760828 10.6113356 4.4140625 21.8359375 C2.7640625 21.8359375 1.1140625 21.8359375 -0.5859375 21.8359375 C-0.5859375 22.4959375 -0.5859375 23.1559375 -0.5859375 23.8359375 C0.6103125 23.7740625 1.8065625 23.7121875 3.0390625 23.6484375 C8.07158145 23.68387777 11.31215381 25.00798545 15.15234375 28.34765625 C18.07780582 31.34037032 19.34062419 33.02811609 19.7265625 37.2734375 C17.24635796 44.00542124 11.89114162 49.72693952 5.4140625 52.8359375 C0.71388811 53.65040815 -3.11051301 53.50879532 -7.1484375 50.8359375 C-7.9528125 50.1759375 -8.7571875 49.5159375 -9.5859375 48.8359375 C-8.93625 49.66996094 -8.2865625 50.50398438 -7.6171875 51.36328125 C-3.35467587 57.79282065 -4.89066088 67.10036842 -6.24609375 74.3828125 C-9.77545055 87.15572282 -17.09000629 97.8011203 -28.2109375 105.0234375 C-41.8730905 112.66359203 -57.60871335 114.41975407 -72.7109375 110.2109375 C-82.53118349 106.66370035 -90.9248035 100.16294778 -97.7734375 92.3359375 C-98.7192663 89.42569503 -98.4147528 88.76149679 -97.2734375 86.0234375 C-96.7165625 84.9715625 -96.1596875 83.9196875 -95.5859375 82.8359375 C-94.9259375 82.8359375 -94.2659375 82.8359375 -93.5859375 82.8359375 C-92.359375 84.33984375 -92.359375 84.33984375 -90.9609375 86.3984375 C-84.47018719 95.2508825 -75.61310609 101.84380303 -64.5859375 103.8359375 C-51.31685604 104.74743972 -40.42954219 103.19948285 -29.42578125 95.10546875 C-27.5859375 93.8359375 -27.5859375 93.8359375 -24.5859375 92.8359375 C-23.51983523 91.03345537 -23.51983523 91.03345537 -22.5859375 88.8359375 C-21.08819433 86.33291562 -19.55730007 83.85211646 -18.0234375 81.37109375 C-13.23443343 72.92526863 -12.25878252 63.31110129 -14.19921875 53.84375 C-16.93213196 44.57351576 -22.18065848 35.02550353 -30.640625 29.828125 C-41.1886553 24.44820593 -52.94736106 22.57528992 -64.5234375 25.9609375 C-72.7936334 29.35424307 -78.92360645 34.21182168 -83.5859375 41.8359375 C-83.99972656 42.46757813 -84.41351563 43.09921875 -84.83984375 43.75 C-89.16094519 51.54906114 -88.99149538 62.14263843 -86.890625 70.65234375 C-85.96368322 72.89180393 -84.9100148 74.80844413 -83.5859375 76.8359375 C-82.9671875 77.87621094 -82.9671875 77.87621094 -82.3359375 78.9375 C-78.07760383 85.39758575 -71.88435052 89.40313316 -64.5859375 91.8359375 C-53.71658633 92.7085785 -44.5024404 92.97864231 -35.5859375 85.8359375 C-29.47293834 80.54658454 -26.21517213 73.62282522 -25.16796875 65.65625 C-24.78755345 56.91697971 -26.57106237 50.36444271 -32.41796875 43.76953125 C-38.31266417 38.20038114 -43.94494241 35.75848185 -52.0234375 35.3984375 C-59.45457639 35.64511431 -64.98989166 38.08416547 -70.4609375 43.0859375 C-75.37584084 48.44557688 -77.21242525 54.29962344 -76.9375 61.53515625 C-75.92066204 68.18979577 -72.81220041 73.60515324 -67.5859375 77.8359375 C-62.43412975 81.3104125 -57.60719504 81.53363877 -51.5859375 80.8359375 C-44.93730696 78.76505258 -41.17626075 75.59249781 -37.7109375 69.5859375 C-35.90521591 63.56686555 -36.45007815 59.02652339 -39.3359375 53.4609375 C-42.40544688 49.87984323 -44.37217652 48.14058351 -49.140625 47.484375 C-53.83837355 47.24248551 -57.45796438 47.13949703 -61.2109375 50.2109375 C-64.7261891 54.09621559 -64.94566324 56.48233003 -64.85546875 61.57421875 C-64.43284849 65.12055397 -63.35618824 66.61973691 -60.5859375 68.8359375 C-57.85516407 69.78163568 -55.46543914 70.13157422 -52.5859375 69.8359375 C-49.30363621 67.73189821 -48.71178375 66.38127123 -47.8359375 62.5859375 C-47.7534375 61.6784375 -47.6709375 60.7709375 -47.5859375 59.8359375 C-49.0709375 60.3309375 -49.0709375 60.3309375 -50.5859375 60.8359375 C-50.8746875 61.6609375 -51.1634375 62.4859375 -51.4609375 63.3359375 C-52.5859375 65.8359375 -52.5859375 65.8359375 -54.9609375 66.8984375 C-57.5859375 66.8359375 -57.5859375 66.8359375 -59.8984375 65.3359375 C-62.22550482 61.88843036 -62.23065249 59.91913242 -61.5859375 55.8359375 C-59.56905861 52.77808886 -58.10239773 51.17881362 -54.4609375 50.35546875 C-50.32428356 50.09692788 -47.44497949 50.48425485 -44.1484375 53.0859375 C-41.47052434 55.95979553 -39.74975445 57.98958401 -39.3984375 61.94921875 C-39.92656262 68.14368626 -41.86349325 71.7716334 -46.5859375 75.8359375 C-50.80731143 78.46003481 -55.75306452 78.61725196 -60.5859375 77.8359375 C-66.20867481 75.5294273 -69.67154438 72.19842084 -72.5859375 66.8359375 C-74.41105643 61.3605807 -74.41310822 55.95881687 -72.0234375 50.6484375 C-68.9639635 45.25126682 -64.93294897 41.79212736 -59.2109375 39.4609375 C-50.42095228 37.94542281 -44.08459833 38.55250076 -36.5859375 43.8359375 C-31.07065875 49.37395966 -28.59694259 55.19588193 -28.0859375 62.9609375 C-28.24465774 69.80458097 -30.62174626 75.30544666 -34.5859375 80.8359375 C-37.37936235 83.33023914 -40.25195627 85.15076153 -43.5859375 86.8359375 C-44.16730469 87.20589844 -44.74867187 87.57585937 -45.34765625 87.95703125 C-51.6417073 90.42851727 -60.95623493 89.8658531 -67.421875 88.03125 C-74.26142963 84.55147659 -81.57414715 77.35183984 -84.18359375 70.03515625 C-86.11981523 59.45173205 -85.16826274 49.60611034 -79.11328125 40.66015625 C-74.30004078 34.61800332 -67.91576934 30.27921478 -60.5859375 27.8359375 C-48.17741836 26.97677783 -38.40441002 28.08225965 -28.40234375 36.14453125 C-22.58948055 41.55736945 -19.66603848 47.24880659 -17.5859375 54.8359375 C-17.2559375 55.8259375 -16.9259375 56.8159375 -16.5859375 57.8359375 C-15.51058188 69.10649158 -18.90835626 78.80066812 -25.5859375 87.8359375 C-32.54041602 95.83280989 -42.84915982 100.26689586 -53.34765625 101.0390625 C-66.77224156 101.25414264 -76.03518342 97.17090617 -85.8359375 88.0859375 C-94.48444675 79.05840991 -97.02146929 68.25771073 -96.8515625 56.109375 C-96.4946025 51.71036795 -95.88285269 45.13285269 -92.5859375 41.8359375 C-95.5559375 42.3309375 -95.5559375 42.3309375 -98.5859375 42.8359375 C-98.2559375 43.4959375 -97.9259375 44.1559375 -97.5859375 44.8359375 C-97.8953125 45.8671875 -98.2046875 46.8984375 -98.5234375 47.9609375 C-100.3919925 54.7078005 -99.73743636 61.9006563 -99.5859375 68.8359375 C-100.5759375 69.3309375 -100.5759375 69.3309375 -101.5859375 69.8359375 C-100.7609375 70.6815625 -99.9359375 71.5271875 -99.0859375 72.3984375 C-96.95061399 74.97659799 -96.58449446 75.84603881 -96.0859375 79.3359375 C-96.63692457 83.19284702 -97.57466418 85.50693338 -99.5859375 88.8359375 C-100.09640625 89.72152344 -100.09640625 89.72152344 -100.6171875 90.625 C-103.6788622 95.48644293 -107.1326096 98.02173983 -112.5859375 99.8359375 C-116.2355237 100.40842161 -117.87372732 100.20072808 -121.1484375 98.5234375 C-125.38588665 93.85137818 -128.39037133 87.98033479 -128.78515625 81.6328125 C-128.58492127 78.82167048 -128.04928826 77.21388249 -126.5859375 74.8359375 C-128.0709375 75.3309375 -128.0709375 75.3309375 -129.5859375 75.8359375 C-134.30290356 56.7996102 -130.75759901 37.65860024 -121.3359375 20.5859375 C-117.71452987 14.69626159 -113.46164665 9.71969237 -108.5859375 4.8359375 C-107.82539062 4.06378906 -107.06484375 3.29164062 -106.28125 2.49609375 C-77.39546403 -25.20584853 -30.29094188 -25.34921722 0 0 Z " fill="#BD32CD" transform="translate(158.5859375,38.1640625)"/>
<path d="M0 0 C19.49970101 13.80139696 32.20659195 31.99361442 37.6875 55.1875 C38.68423445 61.4172684 38.8699771 67.63878021 38.875 73.9375 C38.88724609 74.76121094 38.89949219 75.58492188 38.91210938 76.43359375 C38.92258311 80.76972043 38.83308126 84.29255981 36.6875 88.1875 C34.5625 90 34.5625 90 32.6875 91.1875 C32.84476563 89.90617187 33.00203125 88.62484375 33.1640625 87.3046875 C35.82021458 63.0968388 31.76421824 41.1983142 16.625 21.6875 C15.33304607 20.16976771 14.02189507 18.66805599 12.6875 17.1875 C11.84251953 16.23810547 11.84251953 16.23810547 10.98046875 15.26953125 C-1.83641082 1.67223279 -21.27254153 -7.41498696 -39.96484375 -8.015625 C-63.96309164 -8.37211331 -84.11569625 -2.94686704 -101.97265625 13.89453125 C-103.13087891 15.02955078 -103.13087891 15.02955078 -104.3125 16.1875 C-105.01246094 16.85136719 -105.71242188 17.51523437 -106.43359375 18.19921875 C-117.51611767 29.540983 -124.69996045 47.4478967 -125.3125 63.1875 C-125.37244141 64.62416016 -125.37244141 64.62416016 -125.43359375 66.08984375 C-125.57031272 72.46738159 -124.95560366 78.02586126 -123.3125 84.1875 C-122.6525 84.1875 -121.9925 84.1875 -121.3125 84.1875 C-121.45429687 84.77015625 -121.59609375 85.3528125 -121.7421875 85.953125 C-123.17098352 93.92430279 -120.73372526 99.53460866 -116.3125 106.1875 C-112.5306128 108.70875813 -110.84865332 108.28096115 -106.51953125 107.64453125 C-101.21957917 106.54701905 -99.03279422 104.01303485 -96.0625 99.6875 C-92.88965972 94.78104596 -91.72107369 91.10176313 -92.3125 85.1875 C-93.75946109 82.58195818 -95.41427509 80.51282551 -97.3125 78.1875 C-96.3225 78.1875 -95.3325 78.1875 -94.3125 78.1875 C-94.47363281 77.47078125 -94.63476562 76.7540625 -94.80078125 76.015625 C-96.21613561 68.19336122 -95.31107748 60.80707663 -93.3125 53.1875 C-94.6325 52.5275 -95.9525 51.8675 -97.3125 51.1875 C-93.6825 50.8575 -90.0525 50.5275 -86.3125 50.1875 C-87.06119792 51.84765625 -87.80989583 53.5078125 -88.55859375 55.16796875 C-92.52489752 65.79273066 -90.74009465 77.42347879 -86.28125 87.5234375 C-81.01463995 97.94990199 -73.0592585 103.90361972 -62.3125 108.1875 C-51.09517911 111.03965601 -39.92804346 109.04087379 -29.703125 103.8671875 C-20.26260957 98.069824 -15.78109809 89.59054249 -12.72265625 79.1796875 C-10.78282885 69.75766872 -12.99119103 60.60645081 -17.9375 52.5 C-22.56108561 46.04981267 -28.86372327 40.77234567 -36.609375 38.6328125 C-47.99351404 36.75739075 -57.64800246 37.28217962 -67.3125 44.1875 C-74.08453209 49.93942562 -77.72125139 57.01686357 -78.7265625 65.80859375 C-79.08501821 75.17560733 -77.87795147 82.24706279 -71.41015625 89.24609375 C-65.14731091 95.02810644 -59.51130368 97.75752073 -51 97.6875 C-50.24887939 97.68540527 -49.49775879 97.68331055 -48.72387695 97.68115234 C-42.49285777 97.50441455 -38.34585318 95.87044135 -33.3125 92.1875 C-32.59835938 91.84847656 -31.88421875 91.50945312 -31.1484375 91.16015625 C-28.45893093 89.73529001 -28.26179088 88.03537264 -27.3125 85.1875 C-26.77625 84.15625 -26.24 83.125 -25.6875 82.0625 C-23.09815489 75.9986765 -23.44164744 68.97695607 -25.5625 62.8125 C-28.47406816 56.2847376 -32.23070224 53.12957767 -38.66015625 50.13671875 C-44.88198485 47.9100555 -50.54136188 48.70617664 -56.53125 51.28515625 C-62.29750101 54.20621762 -65.30910593 58.13446443 -67.3125 64.1875 C-68.26948188 69.72639515 -67.48526658 74.50282179 -64.69921875 79.390625 C-61.65483618 83.33545875 -57.92545978 85.72768982 -53.00390625 86.59375 C-46.84127137 86.84316524 -42.58652053 85.27714049 -38 81.0625 C-35.71088459 77.1625256 -34.96261087 73.70425061 -35.3125 69.1875 C-37.27085234 65.34073647 -38.72699262 63.57783825 -42.3125 61.1875 C-46.57013793 60.51317797 -50.15716258 60.48302597 -53.875 62.75 C-55.85224912 66.10272677 -55.79936939 68.36209766 -55.3125 72.1875 C-54.28828739 74.29688785 -54.28828739 74.29688785 -52.3125 75.1875 C-49.70601495 75.34960219 -49.70601495 75.34960219 -47.3125 74.1875 C-45.93783375 71.71113988 -45.93783375 71.71113988 -45.3125 69.1875 C-44.3225 69.1875 -43.3325 69.1875 -42.3125 69.1875 C-41.85265545 73.14216314 -42.03757636 74.78370591 -44.3125 78.125 C-47.310586 80.18618412 -47.90665087 80.55561321 -51.3125 80.375 C-54.93678072 79.62680568 -57.27088796 78.16993079 -59.45703125 75.05859375 C-61.12851309 71.40270425 -61.28805387 68.06953162 -60.3125 64.1875 C-58.24788806 60.81760148 -55.87669573 57.96959787 -52.3125 56.1875 C-47.08409666 55.66636829 -42.67213246 55.54476466 -37.875 57.8125 C-33.08235062 62.25446771 -30.58863004 66.29432708 -30.16015625 72.8203125 C-30.50021995 78.10437927 -32.43339837 82.3545113 -36.22265625 86.05078125 C-41.86972668 90.47344014 -46.51510109 91.62203406 -53.6484375 91.52734375 C-58.95667566 90.85019313 -63.23994703 88.36115311 -66.9140625 84.5078125 C-71.58769916 78.35829057 -73.31149344 71.83801939 -72.3125 64.1875 C-70.19423029 56.6150029 -65.84165164 51.08136248 -59.24609375 46.8671875 C-52.72033505 43.52842724 -45.97663041 42.91409444 -38.89453125 44.84765625 C-30.41005376 48.22100272 -23.90776237 54.02374529 -20.16015625 62.3828125 C-17.76539689 70.30648632 -18.5162306 78.44666417 -22 85.91015625 C-26.48710151 93.69581155 -32.66240388 99.4049516 -41.3125 102.1875 C-51.00800999 103.81183059 -60.25067998 103.07506615 -68.82421875 98.0234375 C-76.12050001 92.63999607 -80.47118649 85.71144052 -83.3125 77.1875 C-84.48411254 65.19178529 -83.40877507 56.3231723 -76.3125 46.1875 C-69.34765288 38.21523749 -61.27461332 33.72128744 -50.74609375 32.9140625 C-38.5299068 32.60358268 -28.96003494 35.07098256 -19.34765625 43.11328125 C-11.58312004 51.02684886 -7.27368896 60.77371177 -7 71.8125 C-7.39410262 83.08383504 -11.79676458 93.71827576 -19.3125 102.1875 C-30.70845086 111.80408309 -42.71945894 115.03972834 -57.32519531 114.36669922 C-68.10976937 113.39423271 -77.647073 106.46138229 -84.9375 98.8671875 C-86.63597088 96.79235091 -87.60787199 94.77113605 -88.3125 92.1875 C-88.9725 92.1875 -89.6325 92.1875 -90.3125 92.1875 C-90.456875 92.950625 -90.60125 93.71375 -90.75 94.5 C-91.3125 97.1875 -91.3125 97.1875 -92.3125 100.1875 C-86.17657801 110.37711775 -74.27328067 116.84922273 -63.08203125 119.76953125 C-47.62523272 122.10222158 -32.86672152 120.11205314 -19.8125 111.15625 C-10.9085487 104.14438835 -3.84861998 93.85374742 -1.5625 82.58984375 C-1.19542257 79.06245908 -1.02269788 75.54327616 -0.9375 72 C-0.91123535 71.3100293 -0.8849707 70.62005859 -0.85791016 69.90917969 C-0.84256298 65.03822054 -1.91902655 62.64133167 -5.3125 59.1875 C-4.9825 58.5275 -4.6525 57.8675 -4.3125 57.1875 C-3.508125 57.8475 -2.70375 58.5075 -1.875 59.1875 C1.5152841 61.40514466 4.35733951 61.890138 8.37890625 61.70703125 C13.75379201 60.49745459 17.34935312 56.52564688 21.125 52.75 C23.21284695 49.325931 23.82651714 47.21899698 23.6875 43.1875 C21.58938879 39.53058082 18.95046713 36.91869149 15.3125 34.8125 C11.77916348 33.9712294 8.30197866 33.5550741 4.6875 33.1875 C4.6875 32.5275 4.6875 31.8675 4.6875 31.1875 C6.0075 30.8575 7.3275 30.5275 8.6875 30.1875 C0.39776063 19.92707324 -9.26513835 12.62062388 -21.3125 7.1875 C-21.3125 8.8375 -21.3125 10.4875 -21.3125 12.1875 C-23.3125 9.1875 -23.3125 9.1875 -24.0625 5.75 C-25.05463677 2.07765656 -25.05463677 2.07765656 -27.8125 -0.25 C-32.4564827 -2.32320656 -36.30332801 -2.62699951 -41.3125 -1.8125 C-45.3068824 0.22100377 -48.01703129 2.34875006 -50.3125 6.1875 C-50.89017496 9.68608868 -50.89017496 9.68608868 -51 13.4375 C-51.06574219 14.70078125 -51.13148437 15.9640625 -51.19921875 17.265625 C-51.23660156 18.22984375 -51.27398437 19.1940625 -51.3125 20.1875 C-53.3125 17.1875 -53.3125 17.1875 -53.3125 14.1875 C-66.48101436 17.64072928 -66.48101436 17.64072928 -78.3125 24.1875 C-78.9725 24.1875 -79.6325 24.1875 -80.3125 24.1875 C-79.8175 26.1675 -79.8175 26.1675 -79.3125 28.1875 C-80.3025 28.6825 -80.3025 28.6825 -81.3125 29.1875 C-81.704375 28.40375 -82.09625 27.62 -82.5 26.8125 C-84.67112607 23.66811053 -85.64910685 23.14316778 -89.3125 22.1875 C-92.30604616 21.75481938 -95.29847922 21.43702677 -98.3125 21.1875 C-95.8067679 13.6703037 -86.3741965 9.38535291 -79.625 5.9375 C-69.47585918 0.94698542 -58.94171185 -2.08537326 -47.58203125 -2.5390625 C-45.28315366 -2.68586084 -45.28315366 -2.68586084 -43.31640625 -3.81640625 C-39.55629375 -5.68546802 -35.40667291 -5.23938059 -31.3125 -4.8125 C-27.67011497 -3.42177117 -24.74139055 -1.91608237 -22.3125 1.1875 C-22.3125 1.8475 -22.3125 2.5075 -22.3125 3.1875 C-21.43980469 3.290625 -20.56710938 3.39375 -19.66796875 3.5 C-6.629383 6.17146809 5.31529271 17.7245962 13.03125 28.0234375 C15.92422939 31.80341528 19.3788424 34.61600194 23.06640625 37.58984375 C25.7186425 40.20373442 26.63368961 42.36240733 26.875 46.0625 C26.6875 49.1875 26.6875 49.1875 26.125 52.3125 C25.68259279 55.21974736 25.98557738 56.4202625 26.6875 59.1875 C29.01918561 90.84696635 29.01918561 90.84696635 20.7421875 101.75 C16.35121326 105.2537953 11.54177485 107.56211145 6.5 110 C4.9850293 110.75313477 4.9850293 110.75313477 3.43945312 111.52148438 C-4.01727253 115.1875 -4.01727253 115.1875 -6.3125 115.1875 C-5.41235829 119.48817708 -4.21421303 121.5759892 -0.6875 124.0625 C0.42625 124.76375 1.54 125.465 2.6875 126.1875 C-1.47430614 135.64247706 -14.27290829 140.38772801 -23.3125 144.1875 C-43.53251886 151.55773637 -63.60183182 150.62263311 -83.3125 142.1875 C-103.45329945 132.51288018 -118.29437217 116.2768077 -126.03271484 95.22851562 C-128.2064674 88.72563712 -130.01019236 82.05592968 -130.3125 75.1875 C-130.37566406 74.1253125 -130.43882812 73.063125 -130.50390625 71.96875 C-131.21635901 50.08955553 -123.2084293 30.42723103 -108.9375 13.9375 C-80.86716214 -15.99781772 -34.86467244 -22.40981506 0 0 Z " fill="#0D030E" transform="translate(153.3125,28.8125)"/>
<path d="M0 0 C1.010625 0.26683594 2.02125 0.53367187 3.0625 0.80859375 C15.64483565 4.57325535 27.30542917 11.1671688 37 20 C38.46566406 21.32644531 38.46566406 21.32644531 39.9609375 22.6796875 C54.75458219 36.51513404 64.77809954 54.93634715 68 75 C68.21140625 76.14210938 68.4228125 77.28421875 68.640625 78.4609375 C69.96917652 88.16793487 67.62418058 94.18101725 62 102 C61.01 102.495 61.01 102.495 60 103 C60.01571045 102.14003418 60.01571045 102.14003418 60.03173828 101.26269531 C60.37907716 85.51252561 60.37907716 85.51252561 58 70 C57.75507813 68.98292969 57.51015625 67.96585937 57.2578125 66.91796875 C51.29786044 45.10876366 37.04049984 27.34867366 17.6328125 15.85546875 C-1.3183109 5.71624903 -25.15523596 2.46264214 -46.0625 7.5 C-69.16591121 14.94935243 -87.51264471 29.43293033 -99 51 C-108.22724927 70.79664389 -109.75321192 92.2761162 -102.7109375 112.95703125 C-94.9437856 134.15882463 -80.36183466 149.6983113 -60.04296875 159.23828125 C-52.12224268 162.78895156 -43.72455253 165.62808302 -35 166 C-33.97519531 166.0515625 -32.95039062 166.103125 -31.89453125 166.15625 C-10.22578815 166.73344183 9.27426207 158.42978369 26 145 C27.65 146.65 29.3 148.3 31 150 C16.82650876 165.05933444 -3.63944827 173.44044597 -24.15625 174.19140625 C-48.25786595 174.69551014 -70.26834049 167.67426697 -88 151 C-104.0163507 135.34222431 -115.20412604 113.64061307 -115.46899414 90.92041016 C-115.45860107 89.8947998 -115.44820801 88.86918945 -115.4375 87.8125 C-115.42775146 86.72243652 -115.41800293 85.63237305 -115.40795898 84.50927734 C-114.95063729 63.49108232 -107.66376166 43.37329851 -93 28 C-92.11828125 27.01773438 -91.2365625 26.03546875 -90.328125 25.0234375 C-67.35830775 0.10756081 -32.41248026 -8.66583674 0 0 Z " fill="#9D16A4" transform="translate(131,11)"/>
<path d="M0 0 C12.23151917 10.68880504 21.39843584 23.23176567 26.4140625 38.8359375 C26.71183594 39.74859375 27.00960937 40.66125 27.31640625 41.6015625 C29.25925235 48.5850646 29.69357619 55.31910086 29.7265625 62.5234375 C29.73204102 63.39009033 29.73751953 64.25674316 29.74316406 65.1496582 C29.58522487 79.49897859 29.58522487 79.49897859 25.828125 85.2734375 C25.23773438 85.7890625 24.64734375 86.3046875 24.0390625 86.8359375 C23.45382813 87.3721875 22.86859375 87.9084375 22.265625 88.4609375 C20.39213987 89.8522176 18.53213106 90.86554486 16.4140625 91.8359375 C16.7028125 90.815 16.9915625 89.7940625 17.2890625 88.7421875 C21.01304697 74.55289435 21.86207583 59.81778356 19.83203125 45.25 C19.4140625 41.8359375 19.4140625 41.8359375 20.4140625 39.8359375 C20.83844707 36.10135331 20.57392846 34.14927479 18.8515625 30.7734375 C16.54000886 27.98771901 14.31092712 26.40410465 11.3203125 24.43359375 C8.92047218 22.42225217 7.42127868 20.17495068 5.6640625 17.5859375 C-1.46227654 7.38979088 -12.87959238 -1.37086461 -24.8125 -5.19921875 C-28.32669462 -6.42176251 -29.34189662 -8.26852588 -31.5859375 -11.1640625 C-36.0335275 -13.91110338 -41.51067703 -13.72522951 -46.5859375 -13.1640625 C-47.20597656 -12.84695312 -47.82601562 -12.52984375 -48.46484375 -12.203125 C-51.41741601 -10.75674522 -54.19780655 -10.62710355 -57.4609375 -10.2890625 C-73.03545812 -8.40832979 -87.65100051 -3.60174201 -99.09765625 7.55078125 C-100.5859375 8.8359375 -100.5859375 8.8359375 -102.5859375 8.8359375 C-102.9159375 9.8259375 -103.2459375 10.8159375 -103.5859375 11.8359375 C-105.546875 12.64453125 -105.546875 12.64453125 -107.9609375 13.2734375 C-110.75740834 14.14038792 -112.39748875 14.67604159 -114.6484375 16.5859375 C-116.53603042 21.1161605 -115.91919159 24.83617522 -114.3984375 29.3984375 C-110.42364326 36.93684037 -105.57428737 40.86883612 -97.5859375 43.8359375 C-97.9159375 44.9909375 -98.2459375 46.1459375 -98.5859375 47.3359375 C-100.19570764 54.39852056 -99.74487464 61.63961696 -99.5859375 68.8359375 C-100.5759375 69.3309375 -100.5759375 69.3309375 -101.5859375 69.8359375 C-100.7609375 70.6815625 -99.9359375 71.5271875 -99.0859375 72.3984375 C-96.95061399 74.97659799 -96.58449446 75.84603881 -96.0859375 79.3359375 C-96.63692457 83.19284702 -97.57466418 85.50693338 -99.5859375 88.8359375 C-100.09640625 89.72152344 -100.09640625 89.72152344 -100.6171875 90.625 C-103.6788622 95.48644293 -107.1326096 98.02173983 -112.5859375 99.8359375 C-116.2355237 100.40842161 -117.87372732 100.20072808 -121.1484375 98.5234375 C-125.38588665 93.85137818 -128.39037133 87.98033479 -128.78515625 81.6328125 C-128.58492127 78.82167048 -128.04928826 77.21388249 -126.5859375 74.8359375 C-128.0709375 75.3309375 -128.0709375 75.3309375 -129.5859375 75.8359375 C-134.30290356 56.7996102 -130.75759901 37.65860024 -121.3359375 20.5859375 C-117.71452987 14.69626159 -113.46164665 9.71969237 -108.5859375 4.8359375 C-107.82539062 4.06378906 -107.06484375 3.29164062 -106.28125 2.49609375 C-77.39546403 -25.20584853 -30.29094188 -25.34921722 0 0 Z " fill="#0E050F" transform="translate(158.5859375,38.1640625)"/>
<path d="M0 0 C3.85544798 1.99657127 5.59805092 3.39707638 8 7 C8.38499891 8.65549531 8.72793135 10.3222433 9 12 C9.33 11.34 9.66 10.68 10 10 C22.08276657 13.66892766 34.92832922 22.7753981 41 34 C39.35 34 37.7 34 36 34 C36 34.66 36 35.32 36 36 C37.19625 35.938125 38.3925 35.87625 39.625 35.8125 C44.65751895 35.84794027 47.89809131 37.17204795 51.73828125 40.51171875 C54.66374332 43.50443282 55.92656169 45.19217859 56.3125 49.4375 C53.83229546 56.16948374 48.47707912 61.89100202 42 65 C35.5107809 66.14305511 31.30702114 64.7149148 26 61 C24.06707702 59.32480009 23.13831242 58.27662483 22 56 C21.97421129 54.45840826 21.95420591 52.91671692 21.9375 51.375 C21.40695045 45.96027374 19.53963728 43.36527425 15.48828125 39.83203125 C8.26512523 34.51388341 2.65014393 31.45645743 -6.5 32.3125 C-7.6446875 32.49425781 -8.789375 32.67601562 -9.96875 32.86328125 C-13.58066487 33.02618978 -14.32962788 32.26953402 -17 30 C-24.78399183 28.28906318 -32.72533122 31.59202911 -39.40625 35.35546875 C-44.33729499 38.68749734 -45.61198104 41.12761208 -47 47 C-50.05723175 50.52757509 -52.91282428 53.74098541 -57.70703125 54.3359375 C-68.30726257 54.46927374 -68.30726257 54.46927374 -73 50 C-77.3737735 44.95413364 -79.63447142 41.28975722 -80.375 34.625 C-79.88753863 29.9128734 -78.46871968 28.16709188 -75 25 C-72.375 24.125 -72.375 24.125 -69 24 C-68.13632813 23.95101562 -67.27265625 23.90203125 -66.3828125 23.8515625 C-59.80194752 23.61971631 -55.20076185 24.11931433 -50.125 28.6875 C-49.568125 29.3371875 -49.568125 29.3371875 -49 30 C-49 29.01 -49 28.02 -49 27 C-42.0610211 21.00433851 -31.13412065 17 -22 17 C-21.505 18.485 -21.505 18.485 -21 20 C-20.99742188 19.28714844 -20.99484375 18.57429688 -20.9921875 17.83984375 C-20.74118798 11.62342238 -19.99771796 7.89220218 -15.66796875 3.33984375 C-10.82576741 -0.54979339 -6.02541218 -0.78881579 0 0 Z " fill="#0E050F" transform="translate(122,26)"/>
<path d="M0 0 C7.52222844 6.29355229 12.55302178 15.21671961 14.1875 24.875 C15.27836939 37.4375926 11.65165863 48.30579665 4.28125 58.515625 C-3.03371357 66.75860634 -14.31407282 72.36507351 -25.31640625 73.11328125 C-39.00836125 73.4884033 -49.34043788 70.19693514 -59.85546875 61.109375 C-63.14765579 57.98688832 -65.58714374 55.36797297 -66.8125 50.875 C-67.4725 50.875 -68.1325 50.875 -68.8125 50.875 C-68.956875 51.638125 -69.10125 52.40125 -69.25 53.1875 C-69.8125 55.875 -69.8125 55.875 -70.8125 58.875 C-64.67657801 69.06461775 -52.77328067 75.53672273 -41.58203125 78.45703125 C-25.98047197 80.81156841 -11.52608419 78.69307316 1.6640625 69.7578125 C5.36231533 66.998435 8.83093099 64.03921549 12.1875 60.875 C12.8475 61.205 13.5075 61.535 14.1875 61.875 C9.71007957 72.45799376 -1.04572618 78.20455765 -11.25 82.375 C-25.53363337 86.6296993 -42.53627991 85.13877034 -55.6875 78.40234375 C-61.9266083 74.73686762 -66.80286591 70.19704183 -71.71875 64.9140625 C-73.72797347 62.66131997 -73.72797347 62.66131997 -76.8125 61.875 C-76.46316406 61.33230469 -76.11382812 60.78960937 -75.75390625 60.23046875 C-75.29886719 59.51503906 -74.84382813 58.79960937 -74.375 58.0625 C-73.92253906 57.35480469 -73.47007813 56.64710937 -73.00390625 55.91796875 C-70.63903647 51.8627986 -70.35006699 48.49933005 -70.8125 43.875 C-72.25946109 41.26945818 -73.91427509 39.20032551 -75.8125 36.875 C-74.8225 36.875 -73.8325 36.875 -72.8125 36.875 C-72.97363281 36.15828125 -73.13476562 35.4415625 -73.30078125 34.703125 C-74.71613561 26.88086122 -73.81107748 19.49457663 -71.8125 11.875 C-73.1325 11.215 -74.4525 10.555 -75.8125 9.875 C-72.1825 9.545 -68.5525 9.215 -64.8125 8.875 C-65.56119792 10.53515625 -66.30989583 12.1953125 -67.05859375 13.85546875 C-71.02489752 24.48023066 -69.24009465 36.11097879 -64.78125 46.2109375 C-59.51463995 56.63740199 -51.5592585 62.59111972 -40.8125 66.875 C-29.59517911 69.72715601 -18.42804346 67.72837379 -8.203125 62.5546875 C1.23739043 56.757324 5.71890191 48.27804249 8.77734375 37.8671875 C10.71717115 28.44516872 8.50880897 19.29395081 3.5625 11.1875 C-1.06108561 4.73731267 -7.36372327 -0.54015433 -15.109375 -2.6796875 C-26.49351404 -4.55510925 -36.14800246 -4.03032038 -45.8125 2.875 C-52.58453209 8.62692562 -56.22125139 15.70436357 -57.2265625 24.49609375 C-57.58501821 33.86310733 -56.37795147 40.93456279 -49.91015625 47.93359375 C-43.64731091 53.71560644 -38.01130368 56.44502073 -29.5 56.375 C-28.37331909 56.37185791 -28.37331909 56.37185791 -27.22387695 56.36865234 C-20.99285777 56.19191455 -16.84585318 54.55794135 -11.8125 50.875 C-11.09835938 50.53597656 -10.38421875 50.19695312 -9.6484375 49.84765625 C-6.95893093 48.42279001 -6.76179088 46.72287264 -5.8125 43.875 C-5.27625 42.84375 -4.74 41.8125 -4.1875 40.75 C-1.59815489 34.6861765 -1.94164744 27.66445607 -4.0625 21.5 C-6.97406816 14.9722376 -10.73070224 11.81707767 -17.16015625 8.82421875 C-23.38198485 6.5975555 -29.04136188 7.39367664 -35.03125 9.97265625 C-40.79750101 12.89371762 -43.80910593 16.82196443 -45.8125 22.875 C-46.76948188 28.41389515 -45.98526658 33.19032179 -43.19921875 38.078125 C-40.15483618 42.02295875 -36.42545978 44.41518982 -31.50390625 45.28125 C-25.34127137 45.53066524 -21.08652053 43.96464049 -16.5 39.75 C-14.21088459 35.8500256 -13.46261087 32.39175061 -13.8125 27.875 C-15.77085234 24.02823647 -17.22699262 22.26533825 -20.8125 19.875 C-25.07013793 19.20067797 -28.65716258 19.17052597 -32.375 21.4375 C-34.35224912 24.79022677 -34.29936939 27.04959766 -33.8125 30.875 C-32.78828739 32.98438785 -32.78828739 32.98438785 -30.8125 33.875 C-28.20601495 34.03710219 -28.20601495 34.03710219 -25.8125 32.875 C-24.43783375 30.39863988 -24.43783375 30.39863988 -23.8125 27.875 C-22.8225 27.875 -21.8325 27.875 -20.8125 27.875 C-20.35265545 31.82966314 -20.53757636 33.47120591 -22.8125 36.8125 C-25.810586 38.87368412 -26.40665087 39.24311321 -29.8125 39.0625 C-33.43678072 38.31430568 -35.77088796 36.85743079 -37.95703125 33.74609375 C-39.62851309 30.09020425 -39.78805387 26.75703162 -38.8125 22.875 C-36.74788806 19.50510148 -34.37669573 16.65709787 -30.8125 14.875 C-25.58409666 14.35386829 -21.17213246 14.23226466 -16.375 16.5 C-11.58235062 20.94196771 -9.08863004 24.98182708 -8.66015625 31.5078125 C-9.00021995 36.79187927 -10.93339837 41.0420113 -14.72265625 44.73828125 C-20.36972668 49.16094014 -25.01510109 50.30953406 -32.1484375 50.21484375 C-37.45667566 49.53769313 -41.73994703 47.04865311 -45.4140625 43.1953125 C-50.08769916 37.04579057 -51.81149344 30.52551939 -50.8125 22.875 C-48.69423029 15.3025029 -44.34165164 9.76886248 -37.74609375 5.5546875 C-31.22033505 2.21592724 -24.47663041 1.60159444 -17.39453125 3.53515625 C-8.91005376 6.90850272 -2.40776237 12.71124529 1.33984375 21.0703125 C3.73460311 28.99398632 2.9837694 37.13416417 -0.5 44.59765625 C-4.98710151 52.38331155 -11.16240388 58.0924516 -19.8125 60.875 C-29.50800999 62.49933059 -38.75067998 61.76256615 -47.32421875 56.7109375 C-54.62050001 51.32749607 -58.97118649 44.39894052 -61.8125 35.875 C-62.98411254 23.87928529 -61.90877507 15.0106723 -54.8125 4.875 C-40.22187888 -11.82605025 -17.5909806 -12.28999487 0 0 Z " fill="#0C030D" transform="translate(131.8125,70.125)"/>
<path d="M0 0 C0.33 0 0.66 0 1 0 C1.03738281 0.8971875 1.07476562 1.794375 1.11328125 2.71875 C2.56867515 30.34269696 11.14461368 55.14461368 31 75 C31.76957031 75.76957031 32.53914063 76.53914063 33.33203125 77.33203125 C49.40547323 92.574536 71.78333847 102.03950523 94 103 C94.80953125 103.03996094 95.6190625 103.07992187 96.453125 103.12109375 C120.06689245 103.70798563 143.2333499 95.79160008 161.64453125 81.03125 C163 80 163 80 164 80 C164.60944056 88.2613054 163.69204475 93.71560521 158.22265625 100.0625 C146.95620915 111.14012396 127.60416608 116.41484377 112 117 C110.783125 117.0515625 109.56625 117.103125 108.3125 117.15625 C78.38777945 118.00400569 51.41896139 107.63112096 29.63720703 87.08862305 C13.64265189 71.5199331 0.65892771 48.40506688 -0.11352539 25.65673828 C-0.10828857 24.47321777 -0.10305176 23.28969727 -0.09765625 22.0703125 C-0.09443359 20.78125 -0.09121094 19.4921875 -0.08789062 18.1640625 C-0.07953733 16.81770764 -0.07107241 15.47135348 -0.0625 14.125 C-0.0574783 12.75520996 -0.05291657 11.38541815 -0.04882812 10.015625 C-0.03707254 6.6770381 -0.02063964 3.33854185 0 0 Z " fill="#920D97" transform="translate(3,93)"/>
<path d="M0 0 C3.64238503 1.39072883 6.57110945 2.89641763 9 6 C9 6.66 9 7.32 9 8 C9.87269531 8.103125 10.74539062 8.20625 11.64453125 8.3125 C24.683117 10.98396809 36.62779271 22.5370962 44.34375 32.8359375 C47.23672939 36.61591528 50.6913424 39.42850194 54.37890625 42.40234375 C57.0311425 45.01623442 57.94618961 47.17490733 58.1875 50.875 C58 54 58 54 57.4375 57.125 C56.99509279 60.03224736 57.29807738 61.2327625 58 64 C60.32942856 95.6288203 60.32942856 95.6288203 52.0625 106.5625 C47.63747916 110.08445536 42.77142316 112.37625019 37.6875 114.8125 C36.66076172 115.31458984 35.63402344 115.81667969 34.57617188 116.33398438 C32.05508693 117.56521191 29.52980841 118.78682523 27 120 C27 116.49622015 27.52888096 116.04197989 29.6875 113.4375 C38.17061899 102.51348357 42.23571867 89.87589737 42.0625 76.125 C42.05798828 75.43664062 42.05347656 74.74828125 42.04882812 74.0390625 C42.03716336 72.35933665 42.01923271 70.67965625 42 69 C39.69 69 37.38 69 35 69 C35.04640625 70.16015625 35.0928125 71.3203125 35.140625 72.515625 C35.54123771 86.76642823 32.98298859 96.97229719 25 109 C23.515 108.505 23.515 108.505 22 108 C21.01 108.495 21.01 108.495 20 109 C21.11925317 106.73996957 22.26385515 104.49810162 23.4375 102.265625 C27.9845933 93.48973492 30.1380977 86.66497894 30.375 76.8125 C30.40126465 76.1225293 30.4275293 75.43255859 30.45458984 74.72167969 C30.46993702 69.85072054 29.39347345 67.45383167 26 64 C26.495 63.01 26.495 63.01 27 62 C27.804375 62.66 28.60875 63.32 29.4375 64 C32.8277841 66.21764466 35.66983951 66.702638 39.69140625 66.51953125 C45.06629201 65.30995459 48.66185312 61.33814688 52.4375 57.5625 C54.52534695 54.138431 55.13901714 52.03149698 55 48 C52.90188879 44.34308082 50.26296713 41.73119149 46.625 39.625 C43.09166348 38.7837294 39.61447866 38.3675741 36 38 C36 37.34 36 36.68 36 36 C37.32 35.67 38.64 35.34 40 35 C31.71026063 24.73957324 22.04736165 17.43312388 10 12 C10 13.65 10 15.3 10 17 C8 14 8 14 7.25 10.5625 C6.25786323 6.89015656 6.25786323 6.89015656 3.5 4.5625 C-1.1439827 2.48929344 -4.99082801 2.18550049 -10 3 C-13.9943824 5.03350377 -16.70453129 7.16125006 -19 11 C-19.57767496 14.49858868 -19.57767496 14.49858868 -19.6875 18.25 C-19.75324219 19.51328125 -19.81898437 20.7765625 -19.88671875 22.078125 C-19.92410156 23.04234375 -19.96148437 24.0065625 -20 25 C-22 22 -22 22 -22 19 C-35.16851436 22.45322928 -35.16851436 22.45322928 -47 29 C-47.66 29 -48.32 29 -49 29 C-48.67 30.32 -48.34 31.64 -48 33 C-48.99 33.495 -48.99 33.495 -50 34 C-50.391875 33.21625 -50.78375 32.4325 -51.1875 31.625 C-53.35862607 28.48061053 -54.33660685 27.95566778 -58 27 C-60.99354616 26.56731938 -63.98597922 26.24952677 -67 26 C-64.4942679 18.4828037 -55.0616965 14.19785291 -48.3125 10.75 C-38.16335918 5.75948542 -27.62921185 2.72712674 -16.26953125 2.2734375 C-13.97065366 2.12663916 -13.97065366 2.12663916 -12.00390625 0.99609375 C-8.24379375 -0.87296802 -4.09417291 -0.42688059 0 0 Z " fill="#0C020C" transform="translate(122,24)"/>
<path d="M0 0 C19.05392558 16.36363332 34.16643903 37.98711126 36.3125 63.6875 C36.04296875 66.40234375 36.04296875 66.40234375 35.5 68.625 C35.32855469 69.37652344 35.15710938 70.12804687 34.98046875 70.90234375 C34.3125 72.6875 34.3125 72.6875 32.3125 73.6875 C32.20292969 72.67171875 32.09335938 71.6559375 31.98046875 70.609375 C29.01058719 44.22510182 18.99685275 22.0762967 -1.6875 4.6875 C-6.13636569 1.31998181 -10.85757418 -1.53041684 -15.6875 -4.3125 C-16.50476563 -4.80363281 -17.32203125 -5.29476563 -18.1640625 -5.80078125 C-38.66340502 -17.17756413 -64.54050806 -18.05569203 -86.6953125 -11.92578125 C-109.03436116 -5.08685944 -128.76568281 10.86784717 -139.74609375 31.4921875 C-150.26402873 52.05893638 -153.9298365 75.97835394 -147.01855469 98.42236328 C-138.61794508 123.01930299 -123.07268237 141.16012004 -99.6875 152.6875 C-80.0001287 161.84381366 -56.18813808 162.46468544 -35.703125 155.36328125 C-25.1940616 151.46488429 -16.14047778 146.13620667 -7.5 139.0078125 C-5.6875 137.6875 -5.6875 137.6875 -3.6875 137.6875 C-3.3575 139.0075 -3.0275 140.3275 -2.6875 141.6875 C-23.95969223 159.09202092 -48.21472395 166.80913844 -75.6875 164.6875 C-96.49071694 162.07327478 -115.50373283 151.99372356 -129.6875 136.6875 C-130.9559375 135.511875 -130.9559375 135.511875 -132.25 134.3125 C-150.04824488 115.14515936 -155.47538697 90.94456548 -154.81494141 65.53564453 C-153.75655728 41.8821786 -141.14100598 20.40447335 -124.4765625 4.16796875 C-111.84893566 -7.06248369 -97.08092458 -14.42881965 -80.6875 -18.3125 C-79.8109375 -18.53808594 -78.934375 -18.76367188 -78.03125 -18.99609375 C-51.25137228 -24.98850466 -21.24358081 -16.92335751 0 0 Z " fill="#09010A" transform="translate(166.6875,24.3125)"/>
<path d="M0 0 C14.39768905 11.79743752 25.55437218 24.92697041 31.3359375 42.9140625 C31.63371094 43.82671875 31.93148437 44.739375 32.23828125 45.6796875 C34.18112735 52.6631896 34.61545119 59.39722586 34.6484375 66.6015625 C34.65391602 67.46821533 34.65939453 68.33486816 34.66503906 69.2277832 C34.50709987 83.57710359 34.50709987 83.57710359 30.75 89.3515625 C30.15960938 89.8671875 29.56921875 90.3828125 28.9609375 90.9140625 C28.37570313 91.4503125 27.79046875 91.9865625 27.1875 92.5390625 C25.31401487 93.9303426 23.45400606 94.94366986 21.3359375 95.9140625 C21.6246875 94.893125 21.9134375 93.8721875 22.2109375 92.8203125 C25.93492197 78.63101935 26.78395083 63.89590856 24.75390625 49.328125 C24.3359375 45.9140625 24.3359375 45.9140625 25.3359375 43.9140625 C25.76032207 40.17947831 25.49580346 38.22739979 23.7734375 34.8515625 C21.46188386 32.06584401 19.23280212 30.48222965 16.2421875 28.51171875 C13.84234718 26.50037717 12.34315368 24.25307568 10.5859375 21.6640625 C3.45959846 11.46791588 -7.95771738 2.70726039 -19.890625 -1.12109375 C-23.40481962 -2.34363751 -24.42002162 -4.19040088 -26.6640625 -7.0859375 C-31.1116525 -9.83297838 -36.58880203 -9.64710451 -41.6640625 -9.0859375 C-42.28410156 -8.76882812 -42.90414062 -8.45171875 -43.54296875 -8.125 C-46.49554101 -6.67862022 -49.27593155 -6.54897855 -52.5390625 -6.2109375 C-67.64782298 -4.3864486 -81.18717574 0.25508935 -92.9140625 10.2265625 C-96.74207844 13.46229584 -99.69069415 14.92119205 -104.65625 15.5625 C-106.93785062 15.96200205 -108.64508699 16.80045718 -110.6640625 17.9140625 C-105.39690444 5.36066913 -89.51797988 -3.63578126 -77.7265625 -8.9609375 C-52.70004733 -18.47759919 -21.77207839 -16.4194744 0 0 Z " fill="#A019A8" transform="translate(153.6640625,34.0859375)"/>
<path d="M0 0 C19.49970101 13.80139696 32.20659195 31.99361442 37.6875 55.1875 C38.68423445 61.4172684 38.8699771 67.63878021 38.875 73.9375 C38.88724609 74.76121094 38.89949219 75.58492188 38.91210938 76.43359375 C38.92258311 80.76972043 38.83308126 84.29255981 36.6875 88.1875 C34.5625 90 34.5625 90 32.6875 91.1875 C32.84476563 89.90617187 33.00203125 88.62484375 33.1640625 87.3046875 C35.82021458 63.0968388 31.76421824 41.1983142 16.625 21.6875 C15.33304607 20.16976771 14.02189507 18.66805599 12.6875 17.1875 C11.84251953 16.23810547 11.84251953 16.23810547 10.98046875 15.26953125 C-1.83641082 1.67223279 -21.27254153 -7.41498696 -39.96484375 -8.015625 C-63.96309164 -8.37211331 -84.11569625 -2.94686704 -101.97265625 13.89453125 C-103.13087891 15.02955078 -103.13087891 15.02955078 -104.3125 16.1875 C-105.01246094 16.85136719 -105.71242188 17.51523437 -106.43359375 18.19921875 C-117.51611767 29.540983 -124.69996045 47.4478967 -125.3125 63.1875 C-125.37244141 64.62416016 -125.37244141 64.62416016 -125.43359375 66.08984375 C-125.57031272 72.46738159 -124.95560366 78.02586126 -123.3125 84.1875 C-122.6525 84.1875 -121.9925 84.1875 -121.3125 84.1875 C-121.3846875 84.85136719 -121.456875 85.51523438 -121.53125 86.19921875 C-121.6240625 87.08222656 -121.716875 87.96523437 -121.8125 88.875 C-121.9053125 89.74511719 -121.998125 90.61523438 -122.09375 91.51171875 C-122.30409864 94.08473339 -122.34969144 96.60734364 -122.3125 99.1875 C-122.9725 99.1875 -123.6325 99.1875 -124.3125 99.1875 C-125.13384989 96.69011142 -125.94465748 94.19005195 -126.75 91.6875 C-127.09514648 90.64335937 -127.09514648 90.64335937 -127.44726562 89.578125 C-133.33218177 71.1557788 -130.59861329 51.44176468 -122.78125 34.01953125 C-112.08680903 13.39860118 -94.34320321 -2.46008775 -72.25 -9.75 C-48.44863168 -17.24349376 -20.97668131 -13.48309093 0 0 Z " fill="#0A010B" transform="translate(153.3125,28.8125)"/>
<path d="M0 0 C2.31 0 4.62 0 7 0 C10.87041976 7.74083951 7.4734342 19.22634967 5 27 C4.73316406 27.85335937 4.46632813 28.70671875 4.19140625 29.5859375 C-0.90077629 43.9345763 -12.59379839 55.82797988 -26 62.75 C-42.46567907 70.49855486 -60.15905294 71.31616014 -77.35546875 65.15625 C-87.17387471 61.12462136 -97.81367021 54.80738005 -104 46 C-103.984375 43.91796875 -103.984375 43.91796875 -103 42 C-100.9375 40.25 -100.9375 40.25 -99 39 C-98.32195312 39.72445312 -97.64390625 40.44890625 -96.9453125 41.1953125 C-85.58542658 53.10075293 -73.68192175 59.89681077 -56.94750977 60.52368164 C-42.24577875 60.72149625 -29.64643047 57.50765697 -18 48 C-7.06311652 37.04581132 -0.97064247 23.96233981 -0.375 8.5625 C-0.33632812 7.73556641 -0.29765625 6.90863281 -0.2578125 6.05664062 C-0.16446908 4.03808927 -0.08119039 2.01907669 0 0 Z " fill="#AC24B8" transform="translate(157,93)"/>
<path d="M0 0 C0.87822658 1.03894779 1.75268587 2.08108309 2.625 3.125 C15.40798976 16.5290257 31.64048859 23.93801047 50.09863281 24.46972656 C58.31975826 24.56359577 65.9045618 24.21069681 73.625 21.125 C74.52089844 20.77308594 75.41679688 20.42117187 76.33984375 20.05859375 C82.42874599 17.4710238 87.85134925 14.20325901 93.3125 10.48046875 C95.625 9.125 95.625 9.125 98.625 9.125 C100.8125 11.125 100.8125 11.125 102.625 13.125 C91.52601156 24.80814572 74.09983098 31.78949562 58.21875 32.36328125 C36.41880203 32.76324753 17.85099428 28.669311 1.71704102 13.28540039 C-2.51500589 9.10588018 -6.68296965 4.7943325 -10.375 0.125 C-10.375 -0.205 -10.375 -0.535 -10.375 -0.875 C-3.13030035 -2.47128975 -3.13030035 -2.47128975 0 0 Z " fill="#A81FB3" transform="translate(50.375,140.875)"/>
<path d="M0 0 C0.33 0 0.66 0 1 0 C1.03738281 0.8971875 1.07476562 1.794375 1.11328125 2.71875 C2.56867515 30.34269696 11.14461368 55.14461368 31 75 C31.76957031 75.76957031 32.53914063 76.53914063 33.33203125 77.33203125 C49.40547323 92.574536 71.78333847 102.03950523 94 103 C94.80953125 103.03996094 95.6190625 103.07992187 96.453125 103.12109375 C120.06689245 103.70798563 143.2333499 95.79160008 161.64453125 81.03125 C163 80 163 80 164 80 C164.38144428 84.53918688 164.38144428 84.53918688 162.7421875 86.51953125 C160.51920906 88.05887406 158.28512711 89.5535451 156 91 C155.03964844 91.63164062 154.07929688 92.26328125 153.08984375 92.9140625 C131.02096874 106.53942275 102.29835955 111.36364907 76.79931641 105.87280273 C73.80068024 105.07104308 70.90861178 104.08149306 68 103 C67.37963867 102.78569336 66.75927734 102.57138672 66.12011719 102.35058594 C38.67963423 92.86311146 18.93200003 73.56344678 6.21484375 47.8984375 C5 45 5 45 5 42 C4.34 42 3.68 42 3 42 C0.30213412 32.42617531 -0.38310964 23.60340404 -0.1875 13.6875 C-0.17239836 12.34962475 -0.15871981 11.01173266 -0.14648438 9.67382812 C-0.11155597 6.44877252 -0.06251124 3.22461852 0 0 Z " fill="#0A010A" transform="translate(3,93)"/>
<path d="M0 0 C5.45848659 -0.19230441 9.90917614 -0.34318112 14.3828125 3.1484375 C17.80002631 7.71186409 19.06408132 12.37610905 18.76171875 18.04296875 C18.0187368 22.17149733 16.05439975 24.79000836 12.83984375 27.40234375 C8.30102148 30.38321787 4.74266802 30.82905407 -0.6171875 30.1484375 C-6.03035738 27.55011596 -9.56784757 23.23398161 -12.6171875 18.1484375 C-13.80036134 14.40530572 -14.02288669 11.07019636 -13.6171875 7.1484375 C-11.4180472 3.65568527 -9.96031122 1.59614541 -5.9921875 0.2734375 C-3.99408312 0.19943363 -1.99626618 0.11322107 0 0 Z " fill="#F6F6F5" transform="translate(55.6171875,49.8515625)"/>
<path d="M0 0 C3.09209475 2.03797154 4.8616556 3.61684025 6.75 6.8125 C7.42220197 12.09408692 6.47560276 15.3011575 3.75 19.8125 C3.4096875 20.40289062 3.069375 20.99328125 2.71875 21.6015625 C-0.3429247 26.46300543 -3.7966721 28.99830233 -9.25 30.8125 C-12.8995862 31.38498411 -14.53778982 31.17729058 -17.8125 29.5 C-22.04757157 24.83056212 -24.90903274 19.02327506 -25.578125 12.72265625 C-25.01684212 7.7446117 -21.87987617 5.03668413 -18.25 1.8125 C-12.15423788 -1.73412523 -6.68008217 -2.44079926 0 0 Z " fill="#F6F6F5" transform="translate(55.25,107.1875)"/>
<path d="M0 0 C3.5625 1.25 3.5625 1.25 6 3 C6.875 5.1875 6.875 5.1875 7 7 C6.05125 6.34 5.1025 5.68 4.125 5 C-0.47561759 2.38707318 -4.82705528 2.14637876 -10 3 C-13.9943824 5.03350377 -16.70453129 7.16125006 -19 11 C-19.57767496 14.49858868 -19.57767496 14.49858868 -19.6875 18.25 C-19.75324219 19.51328125 -19.81898437 20.7765625 -19.88671875 22.078125 C-19.92410156 23.04234375 -19.96148437 24.0065625 -20 25 C-22 22 -22 22 -22 19 C-35.16851436 22.45322928 -35.16851436 22.45322928 -47 29 C-47.66 29 -48.32 29 -49 29 C-48.67 30.32 -48.34 31.64 -48 33 C-48.99 33.495 -48.99 33.495 -50 34 C-50.391875 33.21625 -50.78375 32.4325 -51.1875 31.625 C-53.35862607 28.48061053 -54.33660685 27.95566778 -58 27 C-60.99354616 26.56731938 -63.98597922 26.24952677 -67 26 C-64.4942679 18.4828037 -55.0616965 14.19785291 -48.3125 10.75 C-38.16335918 5.75948542 -27.62921185 2.72712674 -16.26953125 2.2734375 C-13.97065366 2.12663916 -13.97065366 2.12663916 -12.00390625 0.99609375 C-8.24033185 -0.87468885 -4.09762653 -0.41944209 0 0 Z " fill="#0C030D" transform="translate(122,24)"/>
<path d="M0 0 C3.85544798 1.99657127 5.59805092 3.39707638 8 7 C8.70672578 13.71389495 7.24385562 19.07917615 4 25 C1.5 27.5 1.5 27.5 -1 29 C-1.598125 29.4125 -2.19625 29.825 -2.8125 30.25 C-6.2378234 31.42439659 -9.46803917 31.66707014 -13 31 C-17.15357825 28.11055426 -18.76095102 25.1497278 -19.70703125 20.17578125 C-19.80371094 19.45777344 -19.90039062 18.73976563 -20 18 C-20.10699219 17.25105469 -20.21398437 16.50210938 -20.32421875 15.73046875 C-20.67119234 11.20439103 -20.1666389 8.61255038 -17.25 5.0625 C-12.27220771 -0.25468722 -7.03861879 -0.92145956 0 0 Z " fill="#F5F5F4" transform="translate(122,26)"/>
<path d="M0 0 C3.75606622 2.47740538 6.67602185 5.00838509 8.9375 8.9375 C9.3865548 13.87710282 7.7997559 16.44895494 4.75 20.125 C0.44748063 24.61951821 -3.11576774 28.09252436 -9.5625 28.4375 C-14.04976507 28.20331613 -16.71260968 27.04811244 -20.0625 23.9375 C-22.49530575 19.55844965 -23.80730171 15.93831149 -23.0625 10.9375 C-18.14306258 1.8274307 -10.32106225 -3.5807767 0 0 Z " fill="#F5F5F4" transform="translate(169.0625,63.0625)"/>
<path d="M0 0 C0.495 1.485 0.495 1.485 1 3 C1.66 2.34 2.32 1.68 3 1 C3.18175781 1.61488281 3.36351562 2.22976562 3.55078125 2.86328125 C3.80214844 3.67152344 4.05351563 4.47976562 4.3125 5.3125 C4.55613281 6.11300781 4.79976562 6.91351563 5.05078125 7.73828125 C6.07086657 10.16885491 6.89770141 11.42076134 9 13 C14.24850659 13.43020546 18.05798092 12.97680763 23 11 C23 11.99 23 12.98 23 14 C18.1755914 15.57531709 14.14139563 16.48503732 9 16 C8.071875 15.2575 8.071875 15.2575 7.125 14.5 C3.61261439 12.02066898 0.15119954 12.43680372 -4 13 C-11.02583516 14.76643867 -18.00996954 17.57043318 -23 23 C-24.22969878 26.51190809 -24.22969878 26.51190809 -25 30 C-27.50479136 32.89014387 -29.82091558 34.88061039 -33 37 C-33.66 36.34 -34.32 35.68 -35 35 C-34.05125 34.4225 -33.1025 33.845 -32.125 33.25 C-28.57106519 30.7506854 -28.57106519 30.7506854 -27 27 C-27.08146091 24.96755029 -27.16990653 22.93431647 -27.33544922 20.90698242 C-28.02327645 11.3682271 -28.02327645 11.3682271 -25.2734375 7.69140625 C-22.55825456 5.98888926 -20.05533298 4.97542929 -17 4 C-15.78699219 3.59652344 -14.57398437 3.19304688 -13.32421875 2.77734375 C-4.25783898 0 -4.25783898 0 0 0 Z " fill="#120713" transform="translate(100,43)"/>
<path d="M0 0 C0 3 0 3 -1 5 C-0.96770807 7.10484699 -0.89906576 9.20918595 -0.8125 11.3125 C-0.73490245 18.84722253 -2.5041044 24.96337868 -5 32 C-5.89119945 35.00848518 -6.11126913 37.67486003 -6.10546875 40.80859375 C-6.12029297 41.72060547 -6.13511719 42.63261719 -6.15039062 43.57226562 C-6.17507764 45.47836288 -6.1803676 47.38481254 -6.16601562 49.29101562 C-6.32548802 56.13866361 -6.32548802 56.13866361 -8.38916016 58.77392578 C-10.05078125 60.16015625 -10.05078125 60.16015625 -13 62 C-17.78118254 42.70451332 -14.12963809 23.30950113 -4.25 6.1875 C-1.24915825 1.24915825 -1.24915825 1.24915825 0 0 Z " fill="#A11CAB" transform="translate(42,52)"/>
<path d="M0 0 C1.98353646 11.8694822 2.3524671 25.38166164 -1 37 C-1.29519531 38.04027344 -1.59039062 39.08054688 -1.89453125 40.15234375 C-3.89650341 45.98848166 -5.57380851 49.38240002 -11.1875 52.25 C-15.41666667 54 -15.41666667 54 -18 54 C-16.71040839 50.64230756 -15.24739677 47.48808425 -13.5625 44.3125 C-9.52334646 36.31759727 -6.73741428 27.68288847 -7.11328125 18.65234375 C-7.14357422 17.88212891 -7.17386719 17.11191406 -7.20507812 16.31835938 C-7.27691356 14.72622487 -7.36819386 13.13485324 -7.47851562 11.54492188 C-7.65580156 5.82864848 -7.65580156 5.82864848 -5.67724609 3.32861328 C-1.75578581 0 -1.75578581 0 0 0 Z " fill="#A61DB0" transform="translate(175,85)"/>
<path d="M0 0 C-0.66 2.64 -1.32 5.28 -2 8 C-2.96679688 8.23074219 -3.93359375 8.46148437 -4.9296875 8.69921875 C-17.82547977 11.81466949 -17.82547977 11.81466949 -28.97265625 18.734375 C-31 20 -31 20 -33.359375 19.63671875 C-34.14828125 19.32347656 -34.9371875 19.01023437 -35.75 18.6875 C-36.54921875 18.38199219 -37.3484375 18.07648437 -38.171875 17.76171875 C-38.77515625 17.51035156 -39.3784375 17.25898437 -40 17 C-36.44374025 13.14905959 -32.83727303 10.40069595 -28.1875 7.9375 C-27.54385498 7.59460937 -26.90020996 7.25171875 -26.23706055 6.8984375 C-18.20689893 2.82675174 -9.04238071 0 0 0 Z " fill="#A822B4" transform="translate(102,31)"/>
<path d="M0 0 C12.08276657 3.66892766 24.92832922 12.7753981 31 24 C26.22082585 26.17235189 26.22082585 26.17235189 23 26 C20.46946566 24.08599584 18.54418937 21.90127554 16.4375 19.53125 C11.57521606 14.48195513 5.28187623 11.0311151 -1 8 C-0.67 5.36 -0.34 2.72 0 0 Z " fill="#A61EB0" transform="translate(132,36)"/>
<path d="M0 0 C2.46800047 1.15173355 4.04783565 2.04783565 6 4 C6.04345703 6.61376953 6.04345703 6.61376953 5.7578125 9.8828125 C5.66113281 11.04941406 5.56445312 12.21601562 5.46484375 13.41796875 C5.35269531 14.64128906 5.24054687 15.86460938 5.125 17.125 C5.02058594 18.35605469 4.91617188 19.58710937 4.80859375 20.85546875 C4.54859031 23.90459995 4.2786515 26.95252561 4 30 C0.04 30.495 0.04 30.495 -4 31 C-4.7454982 9.4909964 -4.7454982 9.4909964 0 0 Z " fill="#A922B5" transform="translate(43,74)"/>
<path d="M0 0 C0.33 2.31 0.66 4.62 1 7 C0.04480469 7.29132812 -0.91039063 7.58265625 -1.89453125 7.8828125 C-10.13657452 10.4705426 -17.56607999 13.50255567 -25 18 C-26.25664978 15.09399739 -27 13.20395416 -27 10 C-20.0610211 4.00433851 -9.13412065 0 0 0 Z " fill="#B128BE" transform="translate(100,43)"/>
<path d="M0 0 C9.02769019 1.25295344 16.05513812 8.52364385 22 15 C20.63016497 18.16115776 20.0109362 18.9927092 17 21 C16.39414063 20.41992188 15.78828125 19.83984375 15.1640625 19.2421875 C9.48938649 13.9516434 3.81905962 9.69970256 -3 6 C-2.01 4.02 -1.02 2.04 0 0 Z " fill="#AF25BB" transform="translate(129,48)"/>
<path d="M0 0 C0.99 0.495 0.99 0.495 2 1 C-10.50046355 14.12160459 -31.26171993 18.56542175 -48.828125 19.12109375 C-58.09048149 19.30258444 -66.86018979 18.6222801 -76 17 C-76 16.67 -76 16.34 -76 16 C-74.86908936 16.02356567 -74.86908936 16.02356567 -73.71533203 16.04760742 C-48.8094137 16.49689214 -26.71526856 15.19352251 -4.74536133 2.50317383 C-3.1927142 1.61573585 -1.59914092 0.80062949 0 0 Z " fill="#0A000A" transform="translate(160,191)"/>
<path d="M0 0 C2.64 0.33 5.28 0.66 8 1 C7.690625 2.175625 7.38125 3.35125 7.0625 4.5625 C5.54415957 11.28196405 5.3434297 18.14044366 5 25 C2.69 24.34 0.38 23.68 -2 23 C-2.05447822 20.47886908 -2.09389852 17.9589415 -2.125 15.4375 C-2.14175781 14.73302734 -2.15851562 14.02855469 -2.17578125 13.30273438 C-2.22022044 8.48108178 -1.52768004 4.57702562 0 0 Z " fill="#B42AC2" transform="translate(53,81)"/>
<path d="M0 0 C3.48371543 0.06967431 6.07858492 0.18866548 8.765625 2.5546875 C12.67329669 7.12628399 14.37054971 9.82417145 14 16 C12.10984615 21.67046156 7.06445207 25.25072602 2 28 C1.67 27.34 1.34 26.68 1 26 C1.55429688 25.54109375 2.10859375 25.0821875 2.6796875 24.609375 C3.40414062 23.99578125 4.12859375 23.3821875 4.875 22.75 C5.59429687 22.14671875 6.31359375 21.5434375 7.0546875 20.921875 C10.1221776 17.89134261 10.98252699 15.94354257 11.0625 11.625 C9.33237465 5.72221939 4.94431118 3.29620745 0 0 Z " fill="#140B15" transform="translate(166,62)"/>
<path d="M0 0 C-2.02270646 2.61762013 -3.20426589 3.05471408 -6.5 3.9375 C-10.34817045 5.1056946 -11.07079321 5.6165583 -13 9 C-13.28693438 11.52428461 -13.28693438 11.52428461 -13.0625 14.125 C-12.91015625 16.7578125 -12.91015625 16.7578125 -13 19 C-13.66 19.66 -14.32 20.32 -15 21 C-16.79484541 15.61546376 -16.83307553 10.79944314 -14.4375 5.625 C-10.41501682 1.29309504 -5.90768743 -0.53706249 0 0 Z " fill="#190E1A" transform="translate(56,48)"/>
<path d="M0 0 C2.4375 1.75 2.4375 1.75 3.3125 3.9375 C3.35375 4.535625 3.395 5.13375 3.4375 5.75 C2.48875 5.09 1.54 4.43 0.5625 3.75 C-4.00272703 1.11334847 -8.41813346 1.20138748 -13.5625 1.75 C-14.5525 2.08 -15.5425 2.41 -16.5625 2.75 C-16.5625 1.76 -16.5625 0.77 -16.5625 -0.25 C-11.02992239 -2.09419254 -5.48059076 -1.9230143 0 0 Z " fill="#120513" transform="translate(125.5625,25.25)"/>
<path d="M0 0 C0.33 0.66 0.66 1.32 1 2 C-1.53363068 6.22271781 -3.56620325 8.78310162 -8 11 C-8.66 10.34 -9.32 9.68 -10 9 C-9.05125 8.4225 -8.1025 7.845 -7.125 7.25 C-4.15005989 5.10804312 -3.33533355 4.22705608 -2 1 C-1.34 0.67 -0.68 0.34 0 0 Z " fill="#200F21" transform="translate(75,69)"/>
<path d="M0 0 C-0.33 0.99 -0.66 1.98 -1 3 C-9.57142857 3.28571429 -9.57142857 3.28571429 -13 1 C-8.62426048 0.40667939 -4.42471556 -0.13827236 0 0 Z " fill="#150116" transform="translate(125,206)"/>
<path d="M0 0 C6.4 0.36923077 6.4 0.36923077 9.4375 3.5625 C9.953125 4.366875 10.46875 5.17125 11 6 C7.05594798 6 5.9482215 4.50598828 3 2 C2.01 1.34 1.02 0.68 0 0 Z " fill="#1C161C" transform="translate(166,62)"/>
<path d="M0 0 C6.75 1.75 6.75 1.75 9 4 C8.67 4.99 8.34 5.98 8 7 C6.66144944 6.21718695 5.32926356 5.42348123 4 4.625 C3.2575 4.18414063 2.515 3.74328125 1.75 3.2890625 C1.1725 2.86367188 0.595 2.43828125 0 2 C0 1.34 0 0.68 0 0 Z " fill="#1F1720" transform="translate(120,24)"/>
<path d="M0 0 C-1.0625 1.5 -1.0625 1.5 -3 3 C-6.6875 3.1875 -6.6875 3.1875 -10 3 C-9 1 -9 1 -7.25 0.375 C-4.79549443 -0.03408426 -2.4840589 -0.06900164 0 0 Z " fill="#241A24" transform="translate(56,48)"/>
<path d="M0 0 C0.33 0.99 0.66 1.98 1 3 C1.66 3.33 2.32 3.66 3 4 C0.03 6.475 0.03 6.475 -3 9 C-3 6 -3 6 -1 4 C-0.3574765 1.93125966 -0.3574765 1.93125966 0 0 Z " fill="#291F2A" transform="translate(35,105)"/>
<path d="M0 0 C0.99 0 1.98 0 3 0 C3.66 1.98 4.32 3.96 5 6 C4.01 6 3.02 6 2 6 C1.34 4.02 0.68 2.04 0 0 Z " fill="#2C202D" transform="translate(144,80)"/>
</svg>
