<svg width="143" height="142" viewBox="0 0 143 142" fill="none" xmlns="http://www.w3.org/2000/svg">
<g clip-path="url(#clip0_14_169)">
<mask id="mask0_14_169" style="mask-type:luminance" maskUnits="userSpaceOnUse" x="0" y="0" width="143" height="142">
<path d="M143 0H0V142H143V0Z" fill="white"/>
</mask>
<g mask="url(#mask0_14_169)">
<path d="M110.775 0H32.2254C14.4278 0 0 14.3269 0 32V110C0 127.673 14.4278 142 32.2254 142H110.775C128.572 142 143 127.673 143 110V32C143 14.3269 128.572 0 110.775 0Z" fill="white"/>
<path d="M103.767 11H39.2333C23.6405 11 11 23.536 11 39V103C11 118.464 23.6405 131 39.2333 131H103.767C119.36 131 132 118.464 132 103V39C132 23.536 119.36 11 103.767 11Z" fill="#FFEDD5"/>
<path fill-rule="evenodd" clip-rule="evenodd" d="M101.711 81C101.711 79.6739 101.18 78.4021 100.236 77.4645C99.2922 76.5268 98.0114 76 96.676 76C95.3406 76 94.0598 76.5268 93.1156 77.4645C92.1713 78.4021 91.6408 79.6739 91.6408 81V91H81.5704C80.2349 91 78.9542 91.5268 78.01 92.4645C77.0657 93.4021 76.5352 94.6739 76.5352 96C76.5352 97.3261 77.0657 98.5979 78.01 99.5355C78.9542 100.473 80.2349 101 81.5704 101H91.6408V111C91.6408 112.326 92.1713 113.598 93.1156 114.536C94.0598 115.473 95.3406 116 96.676 116C98.0114 116 99.2922 115.473 100.236 114.536C101.18 113.598 101.711 112.326 101.711 111V101H111.782C113.117 101 114.398 100.473 115.343 99.5355C116.286 98.5979 116.817 97.3261 116.817 96C116.817 94.6739 116.286 93.4021 115.343 92.4645C114.398 91.5268 113.117 91 111.782 91H101.711V81Z" fill="#FCA4AF"/>
<path fill-rule="evenodd" clip-rule="evenodd" d="M35.5335 26C33.0537 26 30.6753 26.9782 28.9218 28.7195C27.1682 30.4608 26.1831 32.8225 26.1831 35.285V56.715C26.1831 61.845 30.3674 66 35.5335 66H57.1144C59.5942 66 61.9726 65.0218 63.7261 63.2805C65.4797 61.5392 66.4648 59.1775 66.4648 56.715V35.285C66.4648 32.8225 65.4797 30.4608 63.7261 28.7195C61.9726 26.9782 59.5942 26 57.1144 26H35.5335Z" fill="#92C5FD"/>
<path fill-rule="evenodd" clip-rule="evenodd" d="M85.8855 26C83.4057 26 81.0274 26.9782 79.2738 28.7195C77.5202 30.4608 76.5352 32.8225 76.5352 35.285V56.715C76.5352 61.845 80.7194 66 85.8855 66H107.466C109.947 66 112.324 65.0218 114.078 63.2805C115.832 61.5392 116.817 59.1775 116.817 56.715V35.285C116.817 32.8225 115.832 30.4608 114.078 28.7195C112.324 26.9782 109.947 26 107.466 26H85.8855Z" fill="#87EEAB"/>
<path fill-rule="evenodd" clip-rule="evenodd" d="M35.5335 76C33.0537 76 30.6753 76.9782 28.9218 78.7195C27.1682 80.4608 26.1831 82.8225 26.1831 85.285V106.715C26.1831 111.845 30.3674 116 35.5335 116H57.1144C59.5942 116 61.9726 115.022 63.7261 113.28C65.4797 111.539 66.4648 109.178 66.4648 106.715V85.285C66.4648 82.8225 65.4797 80.4608 63.7261 78.7195C61.9726 76.9782 59.5942 76 57.1144 76H35.5335Z" fill="#FDBA74"/>
</g>
</g>
<defs>
<clipPath id="clip0_14_169">
<rect width="143" height="142" fill="white"/>
</clipPath>
</defs>
</svg>
