<?xml version="1.0" encoding="UTF-8"?>
<svg version="1.1" xmlns="http://www.w3.org/2000/svg" width="580" height="580">
<path d="M0 0 C3.74645879 0.01373192 7.49189784 0.00684461 11.23828125 -0.02050781 C32.64189838 -0.1763444 53.04125721 0.05610379 73.87988281 5.57641602 C74.9494371 5.85892212 76.01899139 6.14142822 77.12095642 6.43249512 C137.4023449 22.5923178 194.55845591 56.46378083 232.87988281 106.57641602 C233.67394531 107.57672852 234.46800781 108.57704102 235.28613281 109.60766602 C271.75622704 155.74222902 295.80071209 215.98791964 296.08300781 275.20922852 C296.09002213 276.19595551 296.09703644 277.1826825 296.10426331 278.1993103 C296.12167763 281.36672577 296.12811566 284.53395443 296.12988281 287.70141602 C296.13089493 289.32261353 296.13089493 289.32261353 296.13192749 290.9765625 C296.1165918 306.40627603 295.77454454 321.37944195 292.87988281 336.57641602 C292.71359375 337.52097656 292.54730469 338.46553711 292.37597656 339.4387207 C288.26933075 362.59564015 281.26677134 385.02512321 271.87988281 406.57641602 C271.56583496 407.30086914 271.25178711 408.02532227 270.92822266 408.77172852 C253.03690914 449.53909231 223.32817702 488.46889692 187.87988281 515.57641602 C186.37941406 516.76750977 186.37941406 516.76750977 184.84863281 517.98266602 C138.71406981 554.45276025 78.46837919 578.4972453 19.24707031 578.77954102 C18.26034332 578.78655533 17.27361633 578.79356964 16.25698853 578.80079651 C13.08957306 578.81821084 9.9223444 578.82464886 6.75488281 578.82641602 C5.67408447 578.82709076 4.59328613 578.8277655 3.47973633 578.82846069 C-11.9499772 578.813125 -26.92314312 578.47107774 -42.12011719 575.57641602 C-43.53695801 575.32698242 -43.53695801 575.32698242 -44.98242188 575.07250977 C-68.13934132 570.96586395 -90.56882438 563.96330454 -112.12011719 554.57641602 C-112.84457031 554.26236816 -113.56902344 553.94832031 -114.31542969 553.62475586 C-155.08279349 535.73344234 -194.01259809 506.02471022 -221.12011719 470.57641602 C-222.31121094 469.07594727 -222.31121094 469.07594727 -223.52636719 467.54516602 C-259.99646142 421.41060302 -284.04094647 361.16491239 -284.32324219 301.94360352 C-284.33376366 300.46351303 -284.33376366 300.46351303 -284.34449768 298.95352173 C-284.36191201 295.78610626 -284.36835003 292.6188776 -284.37011719 289.45141602 C-284.37079193 288.37061768 -284.37146667 287.28981934 -284.37216187 286.17626953 C-284.35682617 270.746556 -284.01477891 255.77339008 -281.12011719 240.57641602 C-280.95382812 239.63185547 -280.78753906 238.68729492 -280.61621094 237.71411133 C-276.50956512 214.55719188 -269.50700572 192.12770883 -260.12011719 170.57641602 C-259.80606934 169.85196289 -259.49202148 169.12750977 -259.16845703 168.38110352 C-241.27714351 127.61373972 -211.56841139 88.68393511 -176.12011719 61.57641602 C-175.11980469 60.78235352 -174.11949219 59.98829102 -173.08886719 59.17016602 C-142.5096429 34.99681053 -107.79767872 18.49086856 -70.43261719 7.76391602 C-69.5217334 7.49820801 -68.61084961 7.2325 -67.67236328 6.95874023 C-64.50400994 6.08404821 -61.32094756 5.32388537 -58.12011719 4.57641602 C-57.12325897 4.32013931 -57.12325897 4.32013931 -56.10626221 4.0586853 C-37.6844893 -0.57776365 -18.85850458 -0.07152645 0 0 Z " fill="#F6EFE6" transform="translate(284.1201171875,-0.576416015625)"/>
<path d="M0 0 C1.29635376 -0.00564972 1.29635376 -0.00564972 2.61889648 -0.01141357 C14.20388528 -0.03703433 25.47152822 0.65388197 36.9375 2.3125 C38.5606311 2.5458606 38.5606311 2.5458606 40.21655273 2.78393555 C92.19413447 10.82161911 139.24205409 36.04807386 176.9375 72.3125 C177.50742676 72.8605127 178.07735352 73.40852539 178.66455078 73.97314453 C186.29062367 81.3520857 193.49359611 88.85773249 199.9375 97.3125 C200.57268555 98.14104492 200.57268555 98.14104492 201.22070312 98.98632812 C242.97596816 153.71876905 261.50876813 220.8950498 252.9375 289.3125 C251.64165733 297.72545148 249.86263284 306.02389183 247.9375 314.3125 C247.64552734 315.59761475 247.64552734 315.59761475 247.34765625 316.90869141 C240.95398044 344.61645718 229.01631399 371.86556789 212.9375 395.3125 C212.31512451 396.22563965 212.31512451 396.22563965 211.68017578 397.15722656 C197.0966426 418.40735757 179.40524604 438.54139452 158.9375 454.3125 C158.34598145 454.7751123 157.75446289 455.23772461 157.14501953 455.71435547 C147.80628055 463.00364805 138.30434639 469.5763775 127.9375 475.3125 C127.1036377 475.7765625 126.26977539 476.240625 125.41064453 476.71875 C99.82263746 490.83373612 71.97086292 501.89756431 42.9375 506.3125 C41.67873047 506.51335205 41.67873047 506.51335205 40.39453125 506.71826172 C-15.47187702 515.37677583 -71.33745017 504.70892533 -121.0625 478.3125 C-122.2175 477.70019531 -123.3725 477.08789062 -124.5625 476.45703125 C-140.87579693 467.4661801 -155.84251391 456.13377233 -169.5703125 443.58203125 C-171.19455496 442.10290137 -172.83463216 440.64091881 -174.4921875 439.19921875 C-195.99643247 420.40876827 -212.78559317 396.45978957 -226.0625 371.3125 C-226.44873535 370.59545898 -226.8349707 369.87841797 -227.23291016 369.13964844 C-239.44495247 346.19520545 -248.56636825 319.6987491 -251.71679688 293.86523438 C-251.95255884 292.12432539 -252.24288526 290.39015273 -252.58007812 288.66601562 C-254.55252924 278.16253919 -254.36466152 267.64150357 -254.32324219 256.98876953 C-254.3124115 253.66030125 -254.3232428 250.33235929 -254.3359375 247.00390625 C-254.33461778 244.88541548 -254.33205928 242.76692503 -254.328125 240.6484375 C-254.33217346 239.65476166 -254.33622192 238.66108582 -254.34039307 237.63729858 C-254.33408875 236.71848907 -254.32778442 235.79967957 -254.32128906 234.85302734 C-254.31969788 234.046185 -254.31810669 233.23934265 -254.31646729 232.40805054 C-254.0625 230.3125 -254.0625 230.3125 -252.0625 227.3125 C-247.89397363 229.05809294 -243.72802862 230.80976687 -239.5625 232.5625 C-238.38945312 233.05363281 -237.21640625 233.54476562 -236.0078125 234.05078125 C-229.91446675 236.61820221 -223.93002754 239.26254757 -218.0625 242.3125 C-218.02809814 243.22088623 -217.99369629 244.12927246 -217.95825195 245.06518555 C-215.28027347 311.1178362 -194.67799929 369.30486654 -145.96337891 415.56835938 C-140.94013543 420.17740785 -135.55972429 424.29049662 -130.0625 428.3125 C-128.56396484 429.42818359 -128.56396484 429.42818359 -127.03515625 430.56640625 C-109.98364149 442.83384094 -91.58726311 451.71571268 -72.0625 459.3125 C-72.26166016 458.59167236 -72.46082031 457.87084473 -72.66601562 457.12817383 C-77.4224801 439.81944589 -80.18483507 422.4288009 -81.77807617 404.55664062 C-82.91257478 392.12583078 -85.32522862 381.25098425 -94.9921875 372.58203125 C-98.3196439 369.91884728 -101.76635778 367.5085078 -105.3203125 365.15625 C-114.86715279 358.83578082 -122.1340135 352.32965818 -124.62573242 340.67895508 C-125.17303122 336.46056318 -125.21715722 332.3232149 -125.23828125 328.07421875 C-125.26148017 326.26626441 -125.28559754 324.45832166 -125.31054688 322.65039062 C-125.34559126 319.82649957 -125.37498555 317.00303683 -125.38842773 314.17895508 C-125.40401047 311.43519449 -125.44427631 308.69265236 -125.48828125 305.94921875 C-125.48541862 304.70189217 -125.48541862 304.70189217 -125.48249817 303.42936707 C-125.64581924 295.49844612 -128.20577613 288.65975419 -133.75 282.875 C-137.0078303 279.42183941 -137.0078303 279.42183941 -138.0625 277.3125 C-130.29386985 279.6749913 -122.9718651 282.89282461 -115.57434082 286.20346069 C-111.76308519 287.90871043 -107.94544491 289.59958507 -104.12890625 291.29296875 C-103.35549896 291.63658951 -102.58209167 291.98021027 -101.7852478 292.33424377 C-94.81187965 295.43048624 -87.81686584 298.47446293 -80.8125 301.5 C-78.34891868 302.56501259 -75.88537013 303.6301006 -73.421875 304.6953125 C-72.77631149 304.9743895 -72.13074799 305.25346649 -71.46562195 305.54100037 C-61.99176216 309.63815295 -52.52782178 313.75817292 -43.0625 317.875 C-41.11141067 318.72355412 -39.16032017 319.57210554 -37.20922852 320.4206543 C-34.22802153 321.71721432 -31.24681902 323.01378464 -28.26564026 324.31040955 C-20.91079005 327.50915677 -13.55513328 330.70604493 -6.19921875 333.90234375 C-3.0620813 335.26566905 0.07504148 336.62902812 3.2121582 337.99240112 C5.21763737 338.86388521 7.22317015 339.73524596 9.22875977 340.60647583 C12.02374763 341.82064507 14.81853453 343.03527582 17.61328125 344.25 C18.42694656 344.60331894 19.24061188 344.95663788 20.07893372 345.32066345 C25.37727335 347.6242429 30.66143508 349.9583588 35.9375 352.3125 C30.70414023 374.75874635 16.58591486 387.92915082 -0.8125 402 C-22.23569478 419.45369193 -32.70094794 442.22234515 -36.0625 469.3125 C-33.18769335 469.55206722 -30.31285301 469.79048066 -27.4375 470.0234375 C-25.4355666 470.19489939 -23.43469 470.38163384 -21.4375 470.6015625 C36.02453115 476.58719075 93.43381263 457.84687074 138.109375 421.76171875 C146.21707892 415.11376647 153.75962358 407.95293502 160.9375 400.3125 C161.65123779 399.55308105 161.65123779 399.55308105 162.37939453 398.77832031 C167.91467173 393.15128888 167.91467173 393.15128888 170.29296875 385.9296875 C169.9941452 382.88891157 169.394552 380.39099006 168.48095703 377.50048828 C167.16592279 372.20608716 166.89823229 366.66780734 166.375 361.25 C166.18647461 359.39858398 166.18647461 359.39858398 165.99414062 357.50976562 C165.37853292 351.35046548 164.87188958 345.21211204 164.53515625 339.03125 C164.11893145 332.96205211 162.88700892 327.61777509 160.9375 321.875 C157.93546646 312.7343743 156.77129197 304.21016882 156.41992188 294.62890625 C156.14847393 288.9643511 155.69989315 283.47285289 152 278.9375 C147.27104469 275.21165642 141.65529814 275.94281478 135.9375 276.3125 C132.61455575 276.74852956 129.30843503 277.2784843 126 277.8125 C109.39875489 280.46201024 94.18207133 279.9800271 79.4921875 270.78125 C67.68110965 262.05669075 60.45035676 251.54800688 56.9375 237.3125 C55.73929972 224.42488073 57.87388794 215.40265384 66.03515625 205.4296875 C67.81919331 203.44416782 69.67687757 201.63506776 71.625 199.8125 C75.69631924 195.88375615 78.79387008 191.44511965 82 186.8125 C91.99288026 172.42299978 99.26057667 165.60252674 116.9375 162.3125 C117.63085449 162.17569824 118.32420898 162.03889648 119.03857422 161.89794922 C148.01626808 156.21265516 148.01626808 156.21265516 158.9375 163.3125 C163.62034824 166.5799796 167.88368352 170.2485405 172.125 174.0625 C176.95551378 178.30230006 181.20933643 181.03619375 187.91015625 180.8046875 C192.91329344 179.59005304 196.19856342 175.42090487 198.9375 171.3125 C198.69172395 165.90542694 196.33342348 161.63355591 193.875 156.9375 C193.49794922 156.20144531 193.12089844 155.46539062 192.73242188 154.70703125 C191.80805636 152.90510354 190.87377386 151.10826901 189.9375 149.3125 C189.02742188 149.95703125 188.11734375 150.6015625 187.1796875 151.265625 C183.62746461 153.50823319 181.08197823 153.98094174 176.9375 154.3125 C174.35633123 150.91005026 173.61923768 147.94632995 173 143.8125 C172.24782907 139.26278317 171.49637079 136.4759407 167.9375 133.3125 C163.36065847 130.29594536 159.29044279 129.40595324 153.9375 130.3125 C148.18930826 132.82733388 145.37688113 137.49138548 141.8671875 142.55859375 C138.57749609 147.25339627 136.15662045 150.60889653 130.875 153.0625 C130.01777344 153.46984375 129.16054688 153.8771875 128.27734375 154.296875 C122.25301083 156.91177744 116.58735247 157.34627324 110.234375 155.546875 C104.27300832 153.01240174 101.22546564 149.98204602 98.7109375 144.0078125 C97.14647686 138.55590419 97.02752743 133.68853948 99.0625 128.375 C102.36796609 124.7389873 106.19453134 123.42719838 110.875 122.375 C118.66811284 120.50465292 122.16856187 117.47152809 126.2734375 110.8203125 C130.74183553 104.08624787 136.54606399 98.22898924 142.9375 93.3125 C141.61185047 90.2743161 140.30845575 88.52304802 137.6796875 86.515625 C137.05449219 86.03222656 136.42929687 85.54882812 135.78515625 85.05078125 C135.13417969 84.55964844 134.48320312 84.06851563 133.8125 83.5625 C133.15378906 83.05589844 132.49507813 82.54929687 131.81640625 82.02734375 C130.19535888 80.78219142 128.56711787 79.54641431 126.9375 78.3125 C127.479356 79.938068 128.03933167 81.55995623 128.69140625 83.14453125 C130.82128866 88.36119975 132.02798787 92.44996933 129.9375 97.9375 C126.29798131 102.25942844 122.45326858 104.02697772 116.83984375 104.6640625 C109.40186054 104.8554492 101.77195407 104.56597618 95.875 99.5625 C94.44462798 96.12960715 94.38197232 94.01601788 94.9375 90.3125 C99.61117515 81.6156979 106.85312407 75.75653283 116.1159668 72.85668945 C116.71707275 72.67710693 117.31817871 72.49752441 117.9375 72.3125 C95.91819954 59.02730419 73.96235064 49.38510756 48.9375 43.3125 C48.07592285 43.09867676 47.2143457 42.88485352 46.32666016 42.66455078 C31.70291581 39.11369115 16.92976686 38.14578008 1.9375 37.3125 C2.2675 38.3025 2.5975 39.2925 2.9375 40.3125 C3.95868932 55.51315416 3.95868932 55.51315416 1.4375 60.5 C-3.39159357 65.93273027 -8.48265537 69.00648526 -15.83203125 69.44921875 C-25.79774768 68.83836047 -33.3398601 61.3519647 -40.57421875 55.23828125 C-44.05799694 52.54204475 -46.5393599 52.19369317 -50.80859375 52.28515625 C-51.72833984 52.29740234 -52.64808594 52.30964844 -53.59570312 52.32226562 C-55.52807107 52.35735233 -57.46037127 52.39639922 -59.39257812 52.43945312 C-60.31361328 52.45041016 -61.23464844 52.46136719 -62.18359375 52.47265625 C-63.44320923 52.49791382 -63.44320923 52.49791382 -64.72827148 52.52368164 C-67.2847082 52.29239644 -68.80949766 51.48589584 -71.0625 50.3125 C-75.54833364 50.71124077 -79.76416106 52.02299832 -84.0625 53.3125 C-83.629375 54.07433594 -83.629375 54.07433594 -83.1875 54.8515625 C-78.99030993 62.63385242 -78.99030993 62.63385242 -80.0625 67.3125 C-83.07002294 71.69994524 -86.7861658 75.15425017 -90.9375 78.4375 C-93.36376312 80.46395001 -94.04101796 81.25822958 -95.25 84.3125 C-94.99400133 88.40847867 -93.73655168 90.22705576 -91.0625 93.3125 C-86.57494378 96.37219742 -82.3741088 97.2279968 -77.0625 96.3125 C-65.67485253 92.9774443 -58.28815443 88.05051486 -50.69921875 79.1484375 C-46.97825259 74.97456138 -43.73441547 73.07705437 -38.1875 72.6875 C-32.3075558 72.96833316 -29.23112634 75.36451929 -25.0625 79.3125 C-23.83853516 80.42044922 -23.83853516 80.42044922 -22.58984375 81.55078125 C-16.16464788 87.62709771 -8.1084348 95.32710062 -7.1875 104.625 C-8.20885843 108.92929622 -9.28588485 110.37927063 -12.78125 112.9453125 C-20.27547028 117.43671164 -28.21208965 119.64952867 -36.625 121.6875 C-44.47372439 123.62104313 -50.66227758 126.22486557 -57.0625 131.3125 C-57.84367188 131.92738281 -58.62484375 132.54226562 -59.4296875 133.17578125 C-62.78356908 135.96272555 -65.41688399 138.19444627 -67.0625 142.3125 C-67.33209104 145.9519791 -67.28935387 148.6744735 -66.0625 152.125 C-64.26762049 157.84617843 -64.06988444 163.77983304 -66.4375 169.375 C-69.47894876 174.72449852 -74.39548458 178.42797818 -79.0625 182.3125 C-80.56706332 183.57792743 -82.06751989 184.84826516 -83.5625 186.125 C-84.1915625 186.64707031 -84.820625 187.16914063 -85.46875 187.70703125 C-88.3233644 190.58263546 -89.01262961 192.58811153 -89.29296875 196.66015625 C-89.27878906 197.88605469 -89.26460937 199.11195313 -89.25 200.375 C-89.24355469 201.60347656 -89.23710937 202.83195313 -89.23046875 204.09765625 C-89.20466872 207.32982361 -89.20466872 207.32982361 -88.0625 210.3125 C-87.99279948 212.70740986 -87.97801997 215.10417691 -88 217.5 C-88.00902344 218.77230469 -88.01804688 220.04460937 -88.02734375 221.35546875 C-88.04474609 222.81919922 -88.04474609 222.81919922 -88.0625 224.3125 C-92.51236122 223.64542074 -96.38542567 222.01486713 -100.46484375 220.19921875 C-101.1973233 219.87812134 -101.92980286 219.55702393 -102.68447876 219.22619629 C-105.12497492 218.15526287 -107.56240264 217.07751321 -110 216 C-111.74120341 215.23485998 -113.48266435 214.47030577 -115.22436523 213.70629883 C-117.98081082 212.49701013 -120.73705411 211.28727644 -123.49250793 210.07572937 C-132.90521974 205.93707092 -142.33465487 201.83724492 -151.76617432 197.7416687 C-154.63593513 196.49525057 -157.50529081 195.24790457 -160.37451172 194.00024414 C-169.43627146 190.05991106 -178.49917072 186.12222908 -187.56459045 182.19032288 C-191.7461835 180.3764811 -195.92729689 178.56153517 -200.10836792 176.74649048 C-202.09016293 175.88654113 -204.0721912 175.02712909 -206.05447388 174.16830444 C-216.44666067 169.66576956 -226.81361184 165.13480786 -237.0625 160.3125 C-227.47356282 135.51461942 -214.55183484 112.45173405 -197.0625 92.3125 C-196.22589844 91.29414062 -195.38929688 90.27578125 -194.52734375 89.2265625 C-184.76142886 77.34318819 -174.13703889 66.85528073 -162.0625 57.3125 C-161.20398438 56.58675781 -160.34546875 55.86101562 -159.4609375 55.11328125 C-152.05781302 48.85665835 -144.22110581 43.51518017 -136.0625 38.3125 C-135.48048828 37.93625488 -134.89847656 37.56000977 -134.29882812 37.17236328 C-93.89518293 11.20350506 -47.57200241 0.11459262 0 0 Z " fill="#232323" transform="translate(290.0625,35.6875)"/>
<path d="M0 0 C37.7588435 -1.33615829 75.46041014 10.2545653 108 29 C109.07507813 29.61359375 110.15015625 30.2271875 111.2578125 30.859375 C116.09007475 33.68604651 116.09007475 33.68604651 118 35 C118 35.33 118 35.66 118 36 C117.443125 36.07476562 116.88625 36.14953125 116.3125 36.2265625 C106.78469399 37.86817772 100.67016839 43.38745558 95 51 C93.45413124 54.09173752 93.70640479 56.59429552 94 60 C96.24365158 63.32060433 98.85441677 64.75616561 102.75 65.6796875 C110.3960927 66.76819375 117.59789835 66.99642316 124.51171875 63.265625 C126.39526653 61.66386783 127.14411844 60.31641576 128 58 C128.32545734 52.22855649 126.62186535 47.54421845 123.7421875 42.62890625 C123.49726563 42.09136719 123.25234375 41.55382812 123 41 C123.33 40.34 123.66 39.68 124 39 C125.32064453 40.12148437 125.32064453 40.12148437 126.66796875 41.265625 C127.841115 42.26045302 129.01429382 43.25524265 130.1875 44.25 C130.76564453 44.74113281 131.34378906 45.23226562 131.93945312 45.73828125 C135.25231411 48.54579056 138.5936212 51.30568908 142 54 C140.61655012 57.22804971 139.11284974 58.95435419 136.375 61.125 C130.5657453 66.03646079 125.89845106 71.89344372 121.9375 78.375 C117.56712409 84.29615447 111.42367519 85.61612641 104.55078125 87.09375 C100.88135723 88.3974351 98.73344773 90.53310455 97 94 C96.28726019 100.28613148 96.90223272 104.94544989 100.125 110.40625 C101 112 101 112 101 114 C101.721875 114.28875 102.44375 114.5775 103.1875 114.875 C106 116 106 116 108.1875 117.125 C115.43462156 119.37966004 121.80661802 118.12683018 128.67578125 115.265625 C133.89671949 112.4226267 136.83711131 109.0903287 139.9375 104.0625 C143.32592325 98.8101237 146.32108208 94.83945896 152 92 C157.99815449 91.37950126 161.21711345 92.21570945 166.23828125 95.515625 C170.61459957 99.20298855 171.60324836 102.67384869 172.6875 108.25 C172.93886719 109.51328125 173.19023437 110.7765625 173.44921875 112.078125 C173.72185547 113.52445313 173.72185547 113.52445313 174 115 C178.76779526 116.20407033 180.73398004 115.50396824 185 113 C186.485 112.01 186.485 112.01 188 111 C189.71084854 114.05000684 191.38933996 117.11668018 193.0625 120.1875 C193.54783203 121.05181641 194.03316406 121.91613281 194.53320312 122.80664062 C195.21479492 124.06831055 195.21479492 124.06831055 195.91015625 125.35546875 C196.33433838 126.12528076 196.75852051 126.89509277 197.19555664 127.68823242 C198.19209075 130.55202044 197.88972849 132.13120742 197 135 C195.44140625 137.203125 195.44140625 137.203125 193.5625 139.25 C192.94503906 139.93578125 192.32757813 140.6215625 191.69140625 141.328125 C189.20491837 143.78590055 188.06547609 143.99181549 184.5 144.4375 C178.05405664 144.34391099 172.7177752 140.53092816 168.125 136.25390625 C167.0036877 135.08846824 165.88902288 133.91659627 164.78125 132.73828125 C158.18280844 126.29901263 150.75497113 122.73113499 141.5 122.625 C131.14024939 122.7580798 121.10356029 124.84462854 111 127 C109.82179688 127.25007813 108.64359375 127.50015625 107.4296875 127.7578125 C94.0235397 131.00665612 87.96013933 139.05263712 80.53198242 150.01831055 C76.80615972 155.43931642 72.5060307 160.21388695 68 165 C58.86855593 174.74380916 55.46113345 182.59068816 55.72265625 196.04296875 C56.58462744 208.34123372 62.77055968 219.71313381 71.66796875 228.1171875 C84.24674155 238.27291361 98.0413383 242.00791548 114 241 C117.36515501 240.56715535 120.71274032 240.03802179 124.0625 239.5 C141.7336786 236.6795722 141.7336786 236.6795722 147.9375 239.1875 C152.04116668 242.79375253 154.20529207 245.58558806 155 251 C155.17432576 253.73110353 155.31808767 256.45428433 155.4375 259.1875 C155.85311266 266.9303312 156.65204844 274.05050192 159.171875 281.43359375 C162.58038819 291.55094676 163.70479934 301.15306214 164.32983398 311.80249023 C164.7620878 319.10146343 165.44047603 326.27387069 166.5625 333.5 C166.68963379 334.32411377 166.81676758 335.14822754 166.94775391 335.99731445 C167.44830706 339.09842356 168.00501232 342.01503696 169 345 C169.41555501 348.25779447 169.67554834 350.81663251 168.00292969 353.74658203 C166.54091788 355.60967206 164.99676826 357.33661537 163.375 359.0625 C162.79032959 359.70735352 162.20565918 360.35220703 161.60327148 361.01660156 C159.75738484 363.03279834 157.88378167 365.01921214 156 367 C155.41782715 367.6192334 154.8356543 368.2384668 154.23583984 368.87646484 C146.12837453 377.4477387 137.57057351 385.10062742 128 392 C127.34080566 392.47646973 126.68161133 392.95293945 126.00244141 393.44384766 C107.4756943 406.66479228 87.47411132 416.56440329 66 424 C64.99573975 424.36448242 64.99573975 424.36448242 63.97119141 424.73632812 C54.92148531 428.02032589 45.75400072 429.96903346 36.3125 431.75 C35.19601074 431.96100342 34.07952148 432.17200684 32.92919922 432.3894043 C21.44870596 434.44933377 10.02811053 435.1962948 -1.625 435.1875 C-2.64827393 435.18741943 -3.67154785 435.18733887 -4.72583008 435.18725586 C-15.84581375 435.10525645 -27.11160097 434.38385067 -38 432 C-39.23362669 411.43955512 -28.34445232 390.57696567 -15.15893555 375.36743164 C-9.19279952 368.75437823 -2.46276142 363.06614947 4.36474609 357.37109375 C18.87173873 345.2075717 31.69545805 331.65033541 34 312 C34.26326391 307.97864377 34.37883394 303.96672191 34.4375 299.9375 C34.45997803 298.93219238 34.48245605 297.92688477 34.50561523 296.89111328 C34.47169002 286.24207681 31.39373092 277.46028874 24.41015625 269.38671875 C15.73031587 260.79128524 4.5487742 255.41015509 -6.15820312 249.7800293 C-15.83384175 244.67617757 -24.99792709 239.3056905 -33.125 231.9375 C-43.65843695 222.67464447 -51.41576671 217.85483989 -65.6875 217.625 C-72.99114045 217.42013014 -78.93268358 216.81040282 -85.69921875 213.875 C-90.73372271 211.96034994 -95.54465742 212.08812239 -100.56640625 213.953125 C-105.35817756 216.26488032 -109.87045741 219.05650218 -114.30859375 221.984375 C-119.12383944 224.87574655 -124.58357604 224.52081 -130 224 C-139.42840097 221.24451662 -146.20293071 213.66101633 -150.8125 205.34375 C-153.75080571 199.54446242 -154.73023802 194.45243107 -154 188 C-152.09733739 182.76767783 -147.83299178 180.33140801 -143 178 C-134.93295122 174.99037026 -123.49704387 173.9657126 -115.5625 177.5625 C-112.0662279 179.65428673 -109.37456196 182.44529712 -106.58203125 185.3828125 C-103.31003364 188.72752117 -100.97114259 189.90123974 -96.3125 190.375 C-95.219375 190.25125 -94.12625 190.1275 -93 190 C-90.53941173 186.3091176 -90.76221024 184.38892458 -90.8125 180 C-90.82216797 178.14375 -90.82216797 178.14375 -90.83203125 176.25 C-90.85568421 172.98821217 -90.85568421 172.98821217 -92 170 C-92.89710166 158.16119945 -92.89710166 158.16119945 -90.625 152.6875 C-85.98606544 147.93811462 -81.10521552 143.4587766 -75.8984375 139.3359375 C-71.70994499 136.00296686 -69.50795549 133.32219586 -68 128 C-67.42181857 122.13425617 -68.02565243 117.55285254 -70 112 C-70.43577312 107.93278417 -70.33711689 105.67423378 -68.5 102 C-65.31154799 98.17385759 -61.93276192 95.04806328 -58 92 C-57.33871094 91.48308594 -56.67742187 90.96617187 -55.99609375 90.43359375 C-49.49539857 85.97962907 -42.35142194 84.21714081 -34.84130859 82.18383789 C-21.61812317 78.9311989 -21.61812317 78.9311989 -11 71 C-9.94843968 65.55100562 -10.94638982 62.50037128 -13.75 57.75 C-19.07553391 49.96819943 -27.7808328 38.64941237 -37.359375 36.4609375 C-43.73470293 36.23175905 -47.12531419 37.79044952 -51.9296875 41.93359375 C-53.88618928 43.88640402 -55.59033729 45.90355689 -57.3125 48.0625 C-62.811467 54.67924768 -72.64348506 59.1002727 -81.125 60.30078125 C-85.80823406 60.33005146 -88.98450549 59.64657593 -93 57 C-95.56387627 54.43612373 -96.83047487 52.46868712 -98.0625 49.0625 C-97.99061167 45.53997168 -97.05329037 44.12008523 -94.671875 41.578125 C-92.11462127 39.16426868 -89.47295109 36.86182357 -86.76953125 34.61328125 C-84.77730559 32.92720578 -84.77730559 32.92720578 -83 30 C-82.89975678 27.87430985 -82.89975678 27.87430985 -83.25 25.625 C-83.33765625 24.87476562 -83.4253125 24.12453125 -83.515625 23.3515625 C-84.05341312 20.74068791 -84.94648901 18.44380009 -86 16 C-84.4447088 15.29634398 -82.88035173 14.61270622 -81.3125 13.9375 C-80.44238281 13.55464844 -79.57226562 13.17179687 -78.67578125 12.77734375 C-74.95972721 11.69778936 -72.41349713 12.29325143 -69 14 C-67.48606326 14.03707526 -65.97037414 14.01335475 -64.45703125 13.95703125 C-63.54759766 13.93576172 -62.63816406 13.91449219 -61.70117188 13.89257812 C-59.79454291 13.83972364 -57.88820413 13.77486476 -55.98242188 13.69726562 C-48.36357204 13.55250212 -44.51004213 15.03930549 -38.62890625 20 C-37.60603516 20.99 -37.60603516 20.99 -36.5625 22 C-30.53887472 27.46399793 -24.84267486 30.70073354 -16.59375 31.22265625 C-11.82322101 30.81313795 -7.69986664 29.01182127 -4 26 C0.19413636 20.34296041 0.52315815 15.9702494 0.25 9.0625 C0.23195313 8.18787109 0.21390625 7.31324219 0.1953125 6.41210938 C0.14858353 4.27425892 0.07685441 2.13697955 0 0 Z " fill="#F6EFE6" transform="translate(292,73)"/>
<path d="M0 0 C1.29635376 -0.00564972 1.29635376 -0.00564972 2.61889648 -0.01141357 C14.20388528 -0.03703433 25.47152822 0.65388197 36.9375 2.3125 C38.5606311 2.5458606 38.5606311 2.5458606 40.21655273 2.78393555 C92.19413447 10.82161911 139.24205409 36.04807386 176.9375 72.3125 C177.50742676 72.8605127 178.07735352 73.40852539 178.66455078 73.97314453 C186.29062367 81.3520857 193.49359611 88.85773249 199.9375 97.3125 C200.57268555 98.14104492 200.57268555 98.14104492 201.22070312 98.98632812 C237.46496524 146.494994 256.61456112 203.47151922 254.9375 263.3125 C249.75964803 261.70039011 244.86466394 259.61993394 239.90625 257.4453125 C239.01949585 257.05890594 238.1327417 256.67249939 237.21911621 256.27438354 C234.2908764 254.99777906 231.36420882 253.71761 228.4375 252.4375 C226.36860833 251.53488403 224.29959585 250.63254491 222.23046875 249.73046875 C217.93052003 247.8555661 213.63109449 245.97947114 209.33203125 244.10253906 C200.48130097 240.23944854 191.62429887 236.39080376 182.76727295 232.54217529 C178.01387696 230.47659134 173.26083086 228.41020273 168.5078125 226.34375 C167.56257721 225.93281097 166.61734192 225.52187195 165.64346313 225.09848022 C159.71208069 222.5195882 153.78140482 219.93907771 147.85121155 217.35745239 C143.82492231 215.60474198 139.79837568 213.85262328 135.77182007 212.1005249 C133.81272419 211.24784111 131.85375825 210.39485872 129.89492798 209.54156494 C120.56642864 205.47799571 111.2356448 201.42248781 101.86328125 197.4609375 C101.18571777 197.17385925 100.5081543 196.88678101 99.81005859 196.59100342 C96.75620974 195.29748516 93.70011928 194.01066965 90.63818359 192.73632812 C89.6167627 192.30513672 88.5953418 191.87394531 87.54296875 191.4296875 C86.66793701 191.06472168 85.79290527 190.69975586 84.89135742 190.32373047 C82.9375 189.3125 82.9375 189.3125 81.9375 187.3125 C89.19948139 175.5504078 95.89004905 167.19710624 109.6875 163.8125 C112.10008494 163.29316224 114.51729003 162.7950572 116.9375 162.3125 C117.98405762 162.10294678 117.98405762 162.10294678 119.05175781 161.88916016 C148.01963217 156.21484214 148.01963217 156.21484214 158.9375 163.3125 C163.62034824 166.5799796 167.88368352 170.2485405 172.125 174.0625 C176.95551378 178.30230006 181.20933643 181.03619375 187.91015625 180.8046875 C192.91329344 179.59005304 196.19856342 175.42090487 198.9375 171.3125 C198.69172395 165.90542694 196.33342348 161.63355591 193.875 156.9375 C193.49794922 156.20144531 193.12089844 155.46539062 192.73242188 154.70703125 C191.80805636 152.90510354 190.87377386 151.10826901 189.9375 149.3125 C189.02742188 149.95703125 188.11734375 150.6015625 187.1796875 151.265625 C183.62746461 153.50823319 181.08197823 153.98094174 176.9375 154.3125 C174.35633123 150.91005026 173.61923768 147.94632995 173 143.8125 C172.24782907 139.26278317 171.49637079 136.4759407 167.9375 133.3125 C163.36065847 130.29594536 159.29044279 129.40595324 153.9375 130.3125 C148.18930826 132.82733388 145.37688113 137.49138548 141.8671875 142.55859375 C138.57749609 147.25339627 136.15662045 150.60889653 130.875 153.0625 C130.01777344 153.46984375 129.16054688 153.8771875 128.27734375 154.296875 C122.25301083 156.91177744 116.58735247 157.34627324 110.234375 155.546875 C104.27300832 153.01240174 101.22546564 149.98204602 98.7109375 144.0078125 C97.14647686 138.55590419 97.02752743 133.68853948 99.0625 128.375 C102.36796609 124.7389873 106.19453134 123.42719838 110.875 122.375 C118.66811284 120.50465292 122.16856187 117.47152809 126.2734375 110.8203125 C130.74183553 104.08624787 136.54606399 98.22898924 142.9375 93.3125 C141.61185047 90.2743161 140.30845575 88.52304802 137.6796875 86.515625 C137.05449219 86.03222656 136.42929687 85.54882812 135.78515625 85.05078125 C135.13417969 84.55964844 134.48320312 84.06851563 133.8125 83.5625 C133.15378906 83.05589844 132.49507813 82.54929687 131.81640625 82.02734375 C130.19535888 80.78219142 128.56711787 79.54641431 126.9375 78.3125 C127.479356 79.938068 128.03933167 81.55995623 128.69140625 83.14453125 C130.82128866 88.36119975 132.02798787 92.44996933 129.9375 97.9375 C126.29798131 102.25942844 122.45326858 104.02697772 116.83984375 104.6640625 C109.40186054 104.8554492 101.77195407 104.56597618 95.875 99.5625 C94.44462798 96.12960715 94.38197232 94.01601788 94.9375 90.3125 C99.61117515 81.6156979 106.85312407 75.75653283 116.1159668 72.85668945 C116.71707275 72.67710693 117.31817871 72.49752441 117.9375 72.3125 C95.91819954 59.02730419 73.96235064 49.38510756 48.9375 43.3125 C48.07592285 43.09867676 47.2143457 42.88485352 46.32666016 42.66455078 C31.70291581 39.11369115 16.92976686 38.14578008 1.9375 37.3125 C2.2675 38.3025 2.5975 39.2925 2.9375 40.3125 C3.95868932 55.51315416 3.95868932 55.51315416 1.4375 60.5 C-3.39159357 65.93273027 -8.48265537 69.00648526 -15.83203125 69.44921875 C-25.79774768 68.83836047 -33.3398601 61.3519647 -40.57421875 55.23828125 C-44.05799694 52.54204475 -46.5393599 52.19369317 -50.80859375 52.28515625 C-51.72833984 52.29740234 -52.64808594 52.30964844 -53.59570312 52.32226562 C-55.52807107 52.35735233 -57.46037127 52.39639922 -59.39257812 52.43945312 C-60.31361328 52.45041016 -61.23464844 52.46136719 -62.18359375 52.47265625 C-63.44320923 52.49791382 -63.44320923 52.49791382 -64.72827148 52.52368164 C-67.2847082 52.29239644 -68.80949766 51.48589584 -71.0625 50.3125 C-75.54833364 50.71124077 -79.76416106 52.02299832 -84.0625 53.3125 C-83.629375 54.07433594 -83.629375 54.07433594 -83.1875 54.8515625 C-78.99030993 62.63385242 -78.99030993 62.63385242 -80.0625 67.3125 C-83.07002294 71.69994524 -86.7861658 75.15425017 -90.9375 78.4375 C-93.36376312 80.46395001 -94.04101796 81.25822958 -95.25 84.3125 C-94.99400133 88.40847867 -93.73655168 90.22705576 -91.0625 93.3125 C-86.57494378 96.37219742 -82.3741088 97.2279968 -77.0625 96.3125 C-65.67485253 92.9774443 -58.28815443 88.05051486 -50.69921875 79.1484375 C-46.97825259 74.97456138 -43.73441547 73.07705437 -38.1875 72.6875 C-32.3075558 72.96833316 -29.23112634 75.36451929 -25.0625 79.3125 C-23.83853516 80.42044922 -23.83853516 80.42044922 -22.58984375 81.55078125 C-16.16464788 87.62709771 -8.1084348 95.32710062 -7.1875 104.625 C-8.20885843 108.92929622 -9.28588485 110.37927063 -12.78125 112.9453125 C-20.27547028 117.43671164 -28.21208965 119.64952867 -36.625 121.6875 C-44.47372439 123.62104313 -50.66227758 126.22486557 -57.0625 131.3125 C-57.84367188 131.92738281 -58.62484375 132.54226562 -59.4296875 133.17578125 C-62.78356908 135.96272555 -65.41688399 138.19444627 -67.0625 142.3125 C-67.33209104 145.9519791 -67.28935387 148.6744735 -66.0625 152.125 C-64.26762049 157.84617843 -64.06988444 163.77983304 -66.4375 169.375 C-69.47894876 174.72449852 -74.39548458 178.42797818 -79.0625 182.3125 C-80.56706332 183.57792743 -82.06751989 184.84826516 -83.5625 186.125 C-84.1915625 186.64707031 -84.820625 187.16914063 -85.46875 187.70703125 C-88.3233644 190.58263546 -89.01262961 192.58811153 -89.29296875 196.66015625 C-89.27878906 197.88605469 -89.26460937 199.11195313 -89.25 200.375 C-89.24355469 201.60347656 -89.23710937 202.83195313 -89.23046875 204.09765625 C-89.20466872 207.32982361 -89.20466872 207.32982361 -88.0625 210.3125 C-87.99279948 212.70740986 -87.97801997 215.10417691 -88 217.5 C-88.00902344 218.77230469 -88.01804688 220.04460937 -88.02734375 221.35546875 C-88.04474609 222.81919922 -88.04474609 222.81919922 -88.0625 224.3125 C-92.51236122 223.64542074 -96.38542567 222.01486713 -100.46484375 220.19921875 C-101.1973233 219.87812134 -101.92980286 219.55702393 -102.68447876 219.22619629 C-105.12497492 218.15526287 -107.56240264 217.07751321 -110 216 C-111.74120341 215.23485998 -113.48266435 214.47030577 -115.22436523 213.70629883 C-117.98081082 212.49701013 -120.73705411 211.28727644 -123.49250793 210.07572937 C-132.90521974 205.93707092 -142.33465487 201.83724492 -151.76617432 197.7416687 C-154.63593513 196.49525057 -157.50529081 195.24790457 -160.37451172 194.00024414 C-169.43627146 190.05991106 -178.49917072 186.12222908 -187.56459045 182.19032288 C-191.7461835 180.3764811 -195.92729689 178.56153517 -200.10836792 176.74649048 C-202.09016293 175.88654113 -204.0721912 175.02712909 -206.05447388 174.16830444 C-216.44666067 169.66576956 -226.81361184 165.13480786 -237.0625 160.3125 C-227.47356282 135.51461942 -214.55183484 112.45173405 -197.0625 92.3125 C-196.22589844 91.29414062 -195.38929688 90.27578125 -194.52734375 89.2265625 C-184.76142886 77.34318819 -174.13703889 66.85528073 -162.0625 57.3125 C-161.20398438 56.58675781 -160.34546875 55.86101562 -159.4609375 55.11328125 C-152.05781302 48.85665835 -144.22110581 43.51518017 -136.0625 38.3125 C-135.48048828 37.93625488 -134.89847656 37.56000977 -134.29882812 37.17236328 C-93.89518293 11.20350506 -47.57200241 0.11459262 0 0 Z " fill="#232323" transform="translate(290.0625,35.6875)"/>
<path d="M0 0 C10.10685864 3.71883057 19.93954503 7.9654723 29.78256226 12.32440186 C34.3574763 14.35015951 38.93695905 16.36555322 43.515625 18.3828125 C44.8808857 18.98483994 44.8808857 18.98483994 46.27372742 19.59902954 C53.73249422 22.88684911 61.20511932 26.14122937 68.6875 29.375 C71.05080765 30.39707437 73.41408775 31.41921246 75.77734375 32.44140625 C76.70410164 32.84219643 76.70410164 32.84219643 77.64958191 33.25108337 C86.66759085 37.15223947 95.67948492 41.06749378 104.69107056 44.98345947 C106.69433749 45.85383683 108.69773037 46.72392437 110.70126343 47.59368896 C123.16110245 53.00283388 135.59773215 58.46005166 148 64 C147.01 65.98 147.01 65.98 146 68 C141.27214136 68.59098233 138.85289105 68.26466828 135 65.375 C132.99564984 63.73895403 131.05352656 62.04720976 129.11328125 60.3359375 C128.51902344 59.81257813 127.92476562 59.28921875 127.3125 58.75 C126.79300781 58.27046875 126.27351562 57.7909375 125.73828125 57.296875 C119.59146416 52.71093506 112.29570586 53.49226886 105 54 C98.59698053 55.08835443 92.99603094 56.7725892 88 61 C85.41405714 65.28604371 85.39574947 69.12010332 86 74 C88.74275474 84.47830854 94.90953859 92.1948145 103.984375 97.90625 C109.10327332 100.68394676 114.32408938 100.66293444 120 100 C125.87662205 97.92336376 131.1268362 94.43407048 136.30859375 91.015625 C140.87927839 88.27110304 145.85059984 88.44723953 151 89 C152.60418374 89.59214836 154.1878128 90.24207473 155.75 90.9375 C162.31087584 93.63516671 168.94631324 93.50615151 175.94433594 93.49584961 C184.22495168 93.60240705 190.86081212 95.80870233 197.3125 101.125 C198.06015625 101.72828125 198.8078125 102.3315625 199.578125 102.953125 C201.29278697 104.40229093 202.98904306 105.87336551 204.671875 107.359375 C212.53880396 114.20572939 220.80095845 119.13399827 230 124 C267.60716389 143.89781223 267.60716389 143.89781223 273.43310547 162.41088867 C274.517869 167.36520273 274.34860093 172.32786506 274.25 177.375 C274.24484375 178.45394531 274.2396875 179.53289062 274.234375 180.64453125 C274.15558639 188.53324083 274.15558639 188.53324083 273 192 C266.89874331 190.07512967 261.04731526 187.83276938 255.20703125 185.2265625 C254.3919812 184.86691406 253.57693115 184.50726563 252.73718262 184.13671875 C250.99707777 183.36839287 249.25776607 182.59826852 247.51919556 181.82647705 C243.82397987 180.18620508 240.12479985 178.55496462 236.42582703 176.92318726 C234.56016372 176.10008167 232.69469494 175.27653499 230.829422 174.45254517 C223.33777418 171.1439492 215.83069307 167.87288934 208.3125 164.625 C205.91270988 163.58735621 203.51295896 162.5496224 201.11328125 161.51171875 C200.48964188 161.24203781 199.8660025 160.97235687 199.22346497 160.69450378 C189.80986248 156.62216095 180.40565425 152.52815631 171 148.4375 C169.05493304 147.5916309 167.10986467 146.74576503 165.16479492 145.89990234 C161.17982053 144.16689778 157.19488342 142.43380753 153.20996094 140.70068359 C143.55065079 136.49975691 133.89077381 132.30013386 124.23095703 128.10037231 C119.30238878 125.95758604 114.37385138 123.81472883 109.4453125 121.671875 C107.79443375 120.95410121 106.14355486 120.23632773 104.49267578 119.51855469 C103.34009277 119.01743164 102.18750977 118.51630859 101 118 C101.63083496 118.78769775 102.26166992 119.57539551 102.91162109 120.38696289 C104.51014654 122.38708188 106.0976847 124.38301458 107.625 126.4375 C108.02976562 126.97246094 108.43453125 127.50742187 108.8515625 128.05859375 C112.12743135 133.59637204 112.30444014 138.99870428 112.34375 145.23828125 C112.3583728 146.11848434 112.37299561 146.99868744 112.38806152 147.90556335 C112.43434895 150.70782978 112.46864975 153.51002915 112.5 156.3125 C112.54144523 159.99634372 112.59525386 163.67971505 112.65625 167.36328125 C112.66416565 168.61060783 112.66416565 168.61060783 112.67224121 169.88313293 C112.83658505 179.69410259 114.68454879 188.25808587 121 196 C125.61162793 200.06009318 130.64934328 203.43289552 135.75390625 206.8359375 C145.96162075 213.72419675 152.56253985 221.34567251 155.046875 233.62890625 C156.06350574 238.92221238 156.53648588 244.19304592 156.9375 249.5625 C157.67438306 258.39249411 158.84295159 267.00060204 160.54833984 275.69140625 C161.0714118 278.36501082 161.57719286 281.04164386 162.08203125 283.71875 C163.04454203 288.81447002 164.0184738 293.90791105 165 299 C142.21785593 294.93924755 119.67927734 279.27455937 102 265 C101.44441406 264.55865723 100.88882813 264.11731445 100.31640625 263.66259766 C85.89076768 252.15581581 72.75128543 239.01411711 62 224 C61.52643066 223.34370605 61.05286133 222.68741211 60.56494141 222.01123047 C47.86641053 204.21990717 37.96439503 184.96599422 30.80664062 164.32080078 C30.08844014 162.25445277 29.33783163 160.20365986 28.578125 158.15234375 C20.10932264 133.713053 18.96978156 107.60722979 18 82 C16.6682373 81.42499756 16.6682373 81.42499756 15.30957031 80.83837891 C12.006664 79.41195669 8.70440812 77.98403411 5.40234375 76.55566406 C3.97478568 75.93839417 2.54705301 75.32152793 1.11914062 74.70507812 C-0.93666196 73.81747534 -2.99182631 72.92840913 -5.046875 72.0390625 C-5.68244324 71.76502594 -6.31801147 71.49098938 -6.97283936 71.20864868 C-10.02631588 69.88557797 -13.043971 68.5296482 -16 67 C-15.54020942 57.59914668 -14.40209176 48.6259391 -12.375 39.4375 C-12.11428711 38.23673828 -11.85357422 37.03597656 -11.58496094 35.79882812 C-8.86476301 23.70406381 -5.72968354 11.07615201 0 0 Z " fill="#F6EFE5" transform="translate(53,196)"/>
<path d="M0 0 C9.03869639 2.73119104 17.56318028 6.63561301 26.1875 10.4375 C27.89880547 11.18828541 29.61031762 11.93859988 31.32202148 12.68847656 C34.03519767 13.87717552 36.74822998 15.06619324 39.46064758 16.25662231 C49.1692756 20.51731113 58.89216535 24.74502366 68.61645508 28.96981812 C71.54995216 30.24454743 74.48303614 31.52022284 77.41601562 32.79614258 C86.0974711 36.57199619 94.78151683 40.34147349 103.4765625 44.0859375 C104.89511301 44.69756308 106.31365187 45.30921569 107.73217773 45.92089844 C110.29017376 47.02383163 112.84975895 48.12295155 115.41040039 49.21972656 C116.51633545 49.69635742 117.62227051 50.17298828 118.76171875 50.6640625 C119.71006592 51.07092285 120.65841309 51.4777832 121.63549805 51.89697266 C124 53 124 53 127 55 C126.39671875 55.43570313 125.7934375 55.87140625 125.171875 56.3203125 C118.5533343 61.23068219 118.5533343 61.23068219 114 68 C113.60103906 71.72363547 113.74568622 74.2847425 115 77.8125 C116.79487951 83.53367843 116.99261556 89.46733304 114.625 95.0625 C111.58355124 100.41199852 106.66701542 104.11547818 102 108 C100.49543668 109.26542743 98.99498011 110.53576516 97.5 111.8125 C96.8709375 112.33457031 96.241875 112.85664063 95.59375 113.39453125 C92.7391356 116.27013546 92.04987039 118.27561153 91.76953125 122.34765625 C91.78371094 123.57355469 91.79789063 124.79945313 91.8125 126.0625 C91.81894531 127.29097656 91.82539063 128.51945313 91.83203125 129.78515625 C91.85783128 133.01732361 91.85783128 133.01732361 93 136 C93.06970052 138.39490986 93.08448003 140.79167691 93.0625 143.1875 C93.05347656 144.45980469 93.04445312 145.73210937 93.03515625 147.04296875 C93.01775391 148.50669922 93.01775391 148.50669922 93 150 C88.55013878 149.33292074 84.67707433 147.70236713 80.59765625 145.88671875 C79.8651767 145.56562134 79.13269714 145.24452393 78.37802124 144.91369629 C75.93752508 143.84276287 73.50009736 142.76501321 71.0625 141.6875 C69.32129659 140.92235998 67.57983565 140.15780577 65.83813477 139.39379883 C63.08168918 138.18451013 60.32544589 136.97477644 57.56999207 135.76322937 C48.15728026 131.62457092 38.72784513 127.52474492 29.29632568 123.4291687 C26.42656487 122.18275057 23.55720919 120.93540457 20.68798828 119.68774414 C11.62622854 115.74741106 2.56332928 111.80972908 -6.50209045 107.87782288 C-10.6836835 106.0639811 -14.86479689 104.24903517 -19.04586792 102.43399048 C-21.02766293 101.57404113 -23.0096912 100.71462909 -24.99197388 99.85580444 C-35.38416067 95.35326956 -45.75111184 90.82230786 -56 86 C-46.41506739 61.2124756 -33.50266903 38.11730325 -16 18 C-15.05901046 16.87943744 -14.12034821 15.75691785 -13.18359375 14.6328125 C-12.20602824 13.46329161 -11.22816749 12.29401745 -10.25 11.125 C-9.80180908 10.58875 -9.35361816 10.0525 -8.8918457 9.5 C-6.06954127 6.16001958 -3.12733181 3.04858605 0 0 Z " fill="#3C7FF7" transform="translate(109,110)"/>
<path d="M0 0 C10.10685864 3.71883057 19.93954503 7.9654723 29.78256226 12.32440186 C34.3574763 14.35015951 38.93695905 16.36555322 43.515625 18.3828125 C44.8808857 18.98483994 44.8808857 18.98483994 46.27372742 19.59902954 C53.73249422 22.88684911 61.20511932 26.14122937 68.6875 29.375 C71.05080765 30.39707437 73.41408775 31.41921246 75.77734375 32.44140625 C76.70410164 32.84219643 76.70410164 32.84219643 77.64958191 33.25108337 C86.66759085 37.15223947 95.67948492 41.06749378 104.69107056 44.98345947 C106.69433749 45.85383683 108.69773037 46.72392437 110.70126343 47.59368896 C123.16110245 53.00283388 135.59773215 58.46005166 148 64 C147.01 65.98 147.01 65.98 146 68 C141.27214136 68.59098233 138.85289105 68.26466828 135 65.375 C132.99564984 63.73895403 131.05352656 62.04720976 129.11328125 60.3359375 C128.51902344 59.81257813 127.92476562 59.28921875 127.3125 58.75 C126.79300781 58.27046875 126.27351562 57.7909375 125.73828125 57.296875 C119.59146416 52.71093506 112.29570586 53.49226886 105 54 C98.59698053 55.08835443 92.99603094 56.7725892 88 61 C85.41405714 65.28604371 85.39574947 69.12010332 86 74 C88.74275474 84.47830854 94.90953859 92.1948145 103.984375 97.90625 C109.10327332 100.68394676 114.32408938 100.66293444 120 100 C125.87662205 97.92336376 131.1268362 94.43407048 136.30859375 91.015625 C140.87927839 88.27110304 145.85059984 88.44723953 151 89 C152.60418374 89.59214836 154.1878128 90.24207473 155.75 90.9375 C162.31087584 93.63516671 168.94631324 93.50615151 175.94433594 93.49584961 C184.22495168 93.60240705 190.86081212 95.80870233 197.3125 101.125 C198.06015625 101.72828125 198.8078125 102.3315625 199.578125 102.953125 C201.29278697 104.40229093 202.98904306 105.87336551 204.671875 107.359375 C212.53880396 114.20572939 220.80095845 119.13399827 230 124 C267.60716389 143.89781223 267.60716389 143.89781223 273.43310547 162.41088867 C274.517869 167.36520273 274.34860093 172.32786506 274.25 177.375 C274.24484375 178.45394531 274.2396875 179.53289062 274.234375 180.64453125 C274.15558639 188.53324083 274.15558639 188.53324083 273 192 C266.89874331 190.07512967 261.04731526 187.83276938 255.20703125 185.2265625 C254.3919812 184.86691406 253.57693115 184.50726563 252.73718262 184.13671875 C250.99707777 183.36839287 249.25776607 182.59826852 247.51919556 181.82647705 C243.82397987 180.18620508 240.12479985 178.55496462 236.42582703 176.92318726 C234.56016372 176.10008167 232.69469494 175.27653499 230.829422 174.45254517 C223.33777418 171.1439492 215.83069307 167.87288934 208.3125 164.625 C205.91270988 163.58735621 203.51295896 162.5496224 201.11328125 161.51171875 C200.48964188 161.24203781 199.8660025 160.97235687 199.22346497 160.69450378 C189.80986239 156.62216091 180.4056686 152.5281235 171 148.4375 C169.04980705 147.58943141 167.09961173 146.74136828 165.14941406 145.89331055 C159.09952792 143.26239432 153.04975993 140.63120644 147 138 C139.53858041 134.75485436 132.07709446 131.5098614 124.61547852 128.26516724 C121.62184177 126.96330631 118.62830141 125.66122392 115.63476562 124.35913086 C113.79948389 123.5610243 111.96419767 122.76292805 110.12890625 121.96484375 C109.30491837 121.60636353 108.48093048 121.2478833 107.63197327 120.87854004 C101.19122868 118.07819079 94.7447921 115.29827078 88.25 112.625 C86.16573769 111.75221516 84.08240283 110.87721219 82 110 C80.5459375 109.39478516 80.5459375 109.39478516 79.0625 108.77734375 C65.77841492 103.039357 58.23611307 95.17733588 51.875 82.3125 C46.79454571 72.32194021 41.17672556 62.75087841 35.33203125 53.19287109 C32.48368247 48.5037456 29.74272258 43.75147715 27 39 C21.31649377 60.36353407 20.40384786 82.02264415 20 104 C19.67 104 19.34 104 19 104 C18.67 96.74 18.34 89.48 18 82 C15.88078125 81.08476562 13.7615625 80.16953125 11.578125 79.2265625 C9.51941328 78.33653548 7.4608706 77.44611857 5.40234375 76.55566406 C3.97478568 75.93839417 2.54705301 75.32152793 1.11914062 74.70507812 C-0.93666196 73.81747534 -2.99182631 72.92840913 -5.046875 72.0390625 C-5.68244324 71.76502594 -6.31801147 71.49098938 -6.97283936 71.20864868 C-10.02631588 69.88557797 -13.043971 68.5296482 -16 67 C-15.54020942 57.59914668 -14.40209176 48.6259391 -12.375 39.4375 C-12.11428711 38.23673828 -11.85357422 37.03597656 -11.58496094 35.79882812 C-8.86476301 23.70406381 -5.72968354 11.07615201 0 0 Z " fill="#FE9020" transform="translate(53,196)"/>
<path d="M0 0 C6.27935272 1.97785509 12.30187323 4.31154979 18.32421875 6.96484375 C19.64798271 7.54233116 19.64798271 7.54233116 20.99848938 8.13148499 C23.8963932 9.39660459 26.79191527 10.66708264 29.6875 11.9375 C31.7426589 12.8356976 33.79800085 13.73347648 35.85351562 14.63085938 C40.12099019 16.4943113 44.38767386 18.35955707 48.65380859 20.22607422 C57.48553468 24.08851515 66.32679432 27.92898232 75.16802979 31.76959229 C78.96357657 33.41864566 82.75858326 35.06893993 86.55358887 36.71923828 C95.44764042 40.58690937 104.34265851 44.45235039 113.23828125 48.31640625 C124.49430702 53.20606977 135.74877367 58.09930187 147 63 C147.74813965 63.32585083 148.4962793 63.65170166 149.26708984 63.98742676 C153.61755834 65.88290323 157.96583546 67.78331154 162.3125 69.6875 C163.82420776 70.34697632 163.82420776 70.34697632 165.36645508 71.01977539 C166.25228271 71.4089917 167.13811035 71.79820801 168.05078125 72.19921875 C168.80012939 72.52752686 169.54947754 72.85583496 170.3215332 73.1940918 C172 74 172 74 173 75 C174.18315959 91.65524658 170.95716573 108.0986405 167.5 124.3125 C167.29866455 125.26068604 167.0973291 126.20887207 166.88989258 127.18579102 C165.67060216 132.67479878 164.103392 137.78432159 162 143 C157.49738285 142.33184175 153.58141478 140.65586945 149.45703125 138.81640625 C148.71162079 138.48947784 147.96621033 138.16254944 147.19821167 137.82571411 C143.87968818 136.36866524 140.56731376 134.89790772 137.25527954 133.42617798 C127.93015648 129.28487522 118.60565634 125.19231129 109.10975647 121.45503235 C105.23086341 119.92778304 101.36568193 118.36728257 97.50033569 116.80612183 C95.63270924 116.06339529 93.75827672 115.33754904 91.87734985 114.62918091 C76.98379499 109.00911845 76.98379499 109.00911845 74.49047852 103.91723633 C73.984375 100.6875 73.984375 100.6875 74.01855469 97.6796875 C73.99748594 94.63691614 73.49701338 93.60160571 71.5625 91.3125 C67.4487745 87.60011358 63.91047679 87.73751076 58.625 87.765625 C54.04869616 88.06150671 49.5867597 88.7697376 45.0625 89.5 C28.46125489 92.14951024 13.24457133 91.6675271 -1.4453125 82.46875 C-13.25639035 73.74419075 -20.48714324 63.23550688 -24 49 C-25.19496462 36.14718284 -23.08751152 27.09969215 -14.9296875 17.15625 C-12.36135402 14.28637129 -9.6322378 11.6086662 -6.8671875 8.9296875 C-4.19790202 6.17105355 -2.12668311 3.19002467 0 0 Z " fill="#3C7FF7" transform="translate(371,224)"/>
<path d="M0 0 C6.27935272 1.97785509 12.30187323 4.31154979 18.32421875 6.96484375 C19.64798271 7.54233116 19.64798271 7.54233116 20.99848938 8.13148499 C23.8963932 9.39660459 26.79191527 10.66708264 29.6875 11.9375 C31.7426589 12.8356976 33.79800085 13.73347648 35.85351562 14.63085938 C40.12099019 16.4943113 44.38767386 18.35955707 48.65380859 20.22607422 C57.48553468 24.08851515 66.32679432 27.92898232 75.16802979 31.76959229 C78.96357657 33.41864566 82.75858326 35.06893993 86.55358887 36.71923828 C95.44764042 40.58690937 104.34265851 44.45235039 113.23828125 48.31640625 C124.49430702 53.20606977 135.74877367 58.09930187 147 63 C147.74813965 63.32585083 148.4962793 63.65170166 149.26708984 63.98742676 C153.61755834 65.88290323 157.96583546 67.78331154 162.3125 69.6875 C163.82420776 70.34697632 163.82420776 70.34697632 165.36645508 71.01977539 C166.25228271 71.4089917 167.13811035 71.79820801 168.05078125 72.19921875 C168.80012939 72.52752686 169.54947754 72.85583496 170.3215332 73.1940918 C172 74 172 74 173 75 C173.13070462 77.38915895 173.18999095 79.73479205 173.1875 82.125 C173.18741943 82.83624023 173.18733887 83.54748047 173.18725586 84.28027344 C173.09653659 92.93202683 172.16748593 101.61134172 170 110 C162.22897166 107.6367794 154.9047949 104.41766191 147.50497437 101.10601807 C143.7284961 99.41624077 139.9457666 97.74054046 136.1640625 96.0625 C135.0116935 95.55047531 135.0116935 95.55047531 133.83604431 95.02810669 C126.30499151 91.68429165 118.75047942 88.39584478 111.1875 85.125 C110.55958557 84.8532193 109.93167114 84.5814386 109.284729 84.30142212 C102.7097127 81.45605679 96.12906459 78.62429253 89.53857422 75.81494141 C77.43794551 70.65552485 65.39955571 65.35606668 53.35800171 60.06066895 C41.91857965 55.03032481 30.47119745 50.01997398 19 45.0625 C5.97426676 39.43274144 -7.01979521 33.73394013 -20 28 C-19.6257896 22.61773973 -17.63205669 19.92919599 -13.9375 16.25 C-12.93750349 15.21082972 -11.9401377 14.16912198 -10.9453125 13.125 C-10.4493457 12.60679687 -9.95337891 12.08859375 -9.44238281 11.5546875 C-6.05689183 7.9056004 -3.03994176 3.93711655 0 0 Z " fill="#483FB1" transform="translate(371,224)"/>
<path d="M0 0 C4.50253972 0.66814677 8.41874446 2.34386918 12.54296875 4.18359375 C13.28846985 4.51106598 14.03397095 4.83853821 14.80206299 5.17593384 C16.4193376 5.88683131 18.03564685 6.59992813 19.65109253 7.31497192 C23.99727298 9.23844425 28.35060081 11.14562452 32.703125 13.0546875 C33.61287582 13.4542012 34.52262665 13.8537149 35.45994568 14.26533508 C46.09154864 18.92861322 56.76341765 23.49750321 67.4375 28.0625 C69.30558576 28.86189059 71.17366852 29.6612882 73.04174805 30.46069336 C77.36062194 32.30840227 81.68010922 34.15466988 86 36 C76.45662969 69.04429431 59.1370911 98.79909507 37 125 C32.24475453 124.41116438 28.19500524 122.99811916 23.8515625 121.05859375 C23.19417084 120.77146011 22.53677917 120.48432648 21.85946655 120.18849182 C19.77846236 119.27782992 17.70173725 118.35784482 15.625 117.4375 C14.20730441 116.81513261 12.78933813 116.19338142 11.37109375 115.57226562 C7.9108909 114.05528646 4.45449187 112.52993703 1 111 C1 106.92485275 2.55492255 105.98720336 5.3125 103.0625 C10.89118735 97.66526929 10.89118735 97.66526929 13.3125 90.6875 C13.14755334 87.08918424 13.14755334 87.08918424 12.078125 84.1484375 C10.33014294 78.24127485 10.02721637 72.04371657 9.4375 65.9375 C9.31181641 64.70322266 9.18613281 63.46894531 9.05664062 62.19726562 C8.44103292 56.03796548 7.93438958 49.89961204 7.59765625 43.71875 C7.18143145 37.64955211 5.94950892 32.30527509 4 26.5625 C1.57932486 19.19200094 -0.16988086 12.401303 -0.0625 4.5625 C-0.05347656 3.69753906 -0.04445313 2.83257812 -0.03515625 1.94140625 C-0.02355469 1.30074219 -0.01195312 0.66007812 0 0 Z " fill="#EBD02F" transform="translate(447,331)"/>
<path d="M0 0 C7.76863015 2.3624913 15.0906349 5.58032461 22.48815918 8.89096069 C26.29941481 10.59621043 30.11705509 12.28708507 33.93359375 13.98046875 C35.09370468 14.49589989 35.09370468 14.49589989 36.2772522 15.02174377 C43.25062035 18.11798624 50.24563416 21.16196293 57.25 24.1875 C59.71358132 25.25251259 62.17712987 26.3176006 64.640625 27.3828125 C65.28618851 27.6618895 65.93175201 27.94096649 66.59687805 28.22850037 C76.07073784 32.32565295 85.53467822 36.44567292 95 40.5625 C96.95108933 41.41105412 98.90217983 42.25960554 100.85327148 43.1081543 C103.83447847 44.40471432 106.81568098 45.70128464 109.79685974 46.99790955 C117.15170995 50.19665677 124.50736672 53.39354493 131.86328125 56.58984375 C135.0004187 57.95316905 138.13754148 59.31652812 141.2746582 60.67990112 C143.28013737 61.55138521 145.28567015 62.42274596 147.29125977 63.29397583 C150.08624763 64.50814507 152.88103453 65.72277582 155.67578125 66.9375 C156.48944656 67.29081894 157.30311188 67.64413788 158.14143372 68.00816345 C163.43977335 70.3117429 168.72393508 72.6458588 174 75 C171.3237355 86.45763741 167.2010103 96.4084654 159 105 C153.98162763 104.316623 149.65629851 102.25941889 145.06640625 100.23046875 C144.17837311 99.84269257 143.29033997 99.45491638 142.37539673 99.0553894 C139.43577822 97.77058035 136.49920912 96.47894348 133.5625 95.1875 C131.48697024 94.27932878 129.41120123 93.37170418 127.33520508 92.46459961 C123.0216509 90.57919891 118.70913715 88.69144916 114.39746094 86.80175781 C104.66798404 82.5388559 94.92839076 78.29924116 85.1875 74.0625 C84.26258759 73.65998016 83.33767517 73.25746033 82.38473511 72.84274292 C59.29843225 62.79760742 36.1516356 52.89342522 13 43 C12.98598145 41.98015015 12.98598145 41.98015015 12.97167969 40.93969727 C12.91748724 37.81327105 12.83393761 34.68826352 12.75 31.5625 C12.73582031 30.49322266 12.72164062 29.42394531 12.70703125 28.32226562 C12.43443857 19.40848514 10.61983413 12.14347118 4.3125 5.5625 C1.0546697 2.10933941 1.0546697 2.10933941 0 0 Z " fill="#CB300D" transform="translate(152,313)"/>
<path d="M0 0 C4.29390459 0.56702221 7.7729829 1.59992753 11.69921875 3.4140625 C12.8068457 3.9196167 13.91447266 4.4251709 15.05566406 4.94604492 C15.64448364 5.21838959 16.23330322 5.49073425 16.83996582 5.77133179 C20.08221979 7.26944163 23.33628969 8.74147518 26.58984375 10.21484375 C27.27619904 10.5261171 27.96255432 10.83739044 28.66970825 11.15809631 C36.31493137 14.61419331 44.03007064 17.90261462 51.75 21.1875 C70.80573307 29.30770239 89.7648863 37.64397291 108.72003174 45.99572754 C112.1968578 47.52718775 115.67455709 49.05666024 119.15234375 50.5859375 C124.76884802 53.05588736 130.38477867 55.5271349 136 58 C135.67475342 58.75394043 135.34950684 59.50788086 135.0144043 60.28466797 C133.74268664 63.68876996 133.77016974 66.49999084 133.8125 70.125 C133.81894531 71.34445313 133.82539063 72.56390625 133.83203125 73.8203125 C133.85998484 77.02285872 133.85998484 77.02285872 135 80 C135.06970052 82.39490986 135.08448003 84.79167691 135.0625 87.1875 C135.05347656 88.45980469 135.04445312 89.73210937 135.03515625 91.04296875 C135.01775391 92.50669922 135.01775391 92.50669922 135 94 C130.55013878 93.33292074 126.67707433 91.70236713 122.59765625 89.88671875 C121.8651767 89.56562134 121.13269714 89.24452393 120.37802124 88.91369629 C117.93752508 87.84276287 115.50009736 86.76501321 113.0625 85.6875 C111.32129659 84.92235998 109.57983565 84.15780577 107.83813477 83.39379883 C105.08168918 82.18451013 102.32544589 80.97477644 99.56999207 79.76322937 C90.15728026 75.62457092 80.72784513 71.52474492 71.29632568 67.4291687 C68.42656487 66.18275057 65.55720919 64.93540457 62.68798828 63.68774414 C53.62622854 59.74741106 44.56332928 55.80972908 35.49790955 51.87782288 C31.3163165 50.0639811 27.13520311 48.24903517 22.95413208 46.43399048 C20.97233707 45.57404113 18.9903088 44.71462909 17.00802612 43.85580444 C6.61583933 39.35326956 -3.75111184 34.82230786 -14 30 C-9.91037156 19.62054787 -5.5451896 9.69144079 0 0 Z " fill="#44D74F" transform="translate(67,166)"/>
<path d="M0 0 C10.10685864 3.71883057 19.93954503 7.9654723 29.78256226 12.32440186 C34.3574763 14.35015951 38.93695905 16.36555322 43.515625 18.3828125 C44.8808857 18.98483994 44.8808857 18.98483994 46.27372742 19.59902954 C53.73249422 22.88684911 61.20511932 26.14122937 68.6875 29.375 C71.05080765 30.39707437 73.41408775 31.41921246 75.77734375 32.44140625 C76.70410164 32.84219643 76.70410164 32.84219643 77.64958191 33.25108337 C86.66759085 37.15223947 95.67948492 41.06749378 104.69107056 44.98345947 C106.69433749 45.85383683 108.69773037 46.72392437 110.70126343 47.59368896 C123.16110245 53.00283388 135.59773215 58.46005166 148 64 C147.01 65.98 147.01 65.98 146 68 C141.27214136 68.59098233 138.85289105 68.26466828 135 65.375 C132.99564984 63.73895403 131.05352656 62.04720976 129.11328125 60.3359375 C128.51902344 59.81257813 127.92476562 59.28921875 127.3125 58.75 C126.79300781 58.27046875 126.27351562 57.7909375 125.73828125 57.296875 C119.59146416 52.71093506 112.29570586 53.49226886 105 54 C98.59698053 55.08835443 92.99603094 56.7725892 88 61 C86.23253228 63.90856969 85.67244666 66.37893783 85.375 69.75 C85.26285156 70.94882812 85.26285156 70.94882812 85.1484375 72.171875 C85.09945312 72.77515625 85.05046875 73.3784375 85 74 C78.13293008 71.1634231 71.27452651 68.30667179 64.42285156 65.43310547 C62.17892585 64.49360162 59.93352918 63.55760163 57.68652344 62.62548828 C54.55661421 61.32491292 51.43395942 60.00820486 48.3125 58.6875 C47.35206787 58.29191895 46.39163574 57.89633789 45.40209961 57.48876953 C38.01334367 54.33265188 33.73066784 50.73953692 29.6875 43.6875 C29.17574219 42.80449219 28.66398437 41.92148438 28.13671875 41.01171875 C27.76160156 40.34785156 27.38648438 39.68398437 27 39 C21.31649377 60.36353407 20.40384786 82.02264415 20 104 C19.67 104 19.34 104 19 104 C18.67 96.74 18.34 89.48 18 82 C15.88078125 81.08476562 13.7615625 80.16953125 11.578125 79.2265625 C9.51941328 78.33653548 7.4608706 77.44611857 5.40234375 76.55566406 C3.97478568 75.93839417 2.54705301 75.32152793 1.11914062 74.70507812 C-0.93666196 73.81747534 -2.99182631 72.92840913 -5.046875 72.0390625 C-5.68244324 71.76502594 -6.31801147 71.49098938 -6.97283936 71.20864868 C-10.02631588 69.88557797 -13.043971 68.5296482 -16 67 C-15.54020942 57.59914668 -14.40209176 48.6259391 -12.375 39.4375 C-12.11428711 38.23673828 -11.85357422 37.03597656 -11.58496094 35.79882812 C-8.86476301 23.70406381 -5.72968354 11.07615201 0 0 Z " fill="#EBD02E" transform="translate(53,196)"/>
<path d="M0 0 C9.03869639 2.73119104 17.56318028 6.63561301 26.1875 10.4375 C27.89880547 11.18828541 29.61031762 11.93859988 31.32202148 12.68847656 C34.03519767 13.87717552 36.74822998 15.06619324 39.46064758 16.25662231 C49.1692756 20.51731113 58.89216535 24.74502366 68.61645508 28.96981812 C71.54995216 30.24454743 74.48303614 31.52022284 77.41601562 32.79614258 C86.0974711 36.57199619 94.78151683 40.34147349 103.4765625 44.0859375 C104.89511301 44.69756308 106.31365187 45.30921569 107.73217773 45.92089844 C110.29017376 47.02383163 112.84975895 48.12295155 115.41040039 49.21972656 C116.51633545 49.69635742 117.62227051 50.17298828 118.76171875 50.6640625 C119.71006592 51.07092285 120.65841309 51.4777832 121.63549805 51.89697266 C124 53 124 53 127 55 C126.39671875 55.43570313 125.7934375 55.87140625 125.171875 56.3203125 C118.5533343 61.23068219 118.5533343 61.23068219 114 68 C113.47265155 72.92191883 114.42863569 76.38411733 116 81 C116.03925624 82.9996147 116.04437188 85.00049228 116 87 C105.16492749 82.58824206 94.39662337 78.04674603 83.6817627 73.35076904 C81.21406198 72.26936205 78.74534416 71.1903062 76.27636719 70.11181641 C73.62092453 68.95186946 70.96552847 67.79181747 68.31039429 66.63116455 C57.79513165 62.03459161 47.27358244 57.45248894 36.75 52.875 C35.78903412 52.45695099 34.82806824 52.03890198 33.83798218 51.60818481 C15.58764409 43.67090703 -2.69545396 35.81137953 -21 28 C-21 23.02208628 -19.08174324 21.26025599 -15.9375 17.75 C-15.43669922 17.17588379 -14.93589844 16.60176758 -14.41992188 16.01025391 C-13.41679249 14.86220654 -12.40952683 13.71775883 -11.39794922 12.57714844 C-9.5798274 10.52596665 -7.79233576 8.4487132 -6 6.375 C-4.0709658 4.16625585 -2.08008663 2.06640185 0 0 Z " fill="#493FB1" transform="translate(109,110)"/>
<path d="M0 0 C4.50253972 0.66814677 8.41874446 2.34386918 12.54296875 4.18359375 C13.28846985 4.51106598 14.03397095 4.83853821 14.80206299 5.17593384 C16.4193376 5.88683131 18.03564685 6.59992813 19.65109253 7.31497192 C23.99727298 9.23844425 28.35060081 11.14562452 32.703125 13.0546875 C33.61287582 13.4542012 34.52262665 13.8537149 35.45994568 14.26533508 C46.09154864 18.92861322 56.76341765 23.49750321 67.4375 28.0625 C69.30558576 28.86189059 71.17366852 29.6612882 73.04174805 30.46069336 C77.36062194 32.30840227 81.68010922 34.15466988 86 36 C84.11538549 42.59398456 81.96256721 48.99988408 79.4375 55.375 C78.98213867 56.54482422 78.98213867 56.54482422 78.51757812 57.73828125 C77.14152591 61.24586534 75.69923202 64.63553754 74 68 C67.70758781 66.02556919 61.69687232 63.67268881 55.6796875 60.98046875 C54.81795929 60.59941483 53.95623108 60.2183609 53.06838989 59.82575989 C50.33553382 58.61685709 47.60507488 57.40266902 44.875 56.1875 C42.1744615 54.98723374 39.4733777 53.78825729 36.77081299 52.59255981 C35.0109645 51.81358693 33.25244079 51.03161376 31.49530029 50.24655151 C27.52003504 48.48413515 23.55347206 46.79884513 19.45800781 45.33447266 C18.41847458 44.9556469 18.41847458 44.9556469 17.35794067 44.56916809 C15.5266135 43.91467398 13.68383446 43.29246678 11.84033203 42.6730957 C8.01187399 40.41794503 7.37302158 38.14705674 6 34 C5.74138184 33.25943359 5.48276367 32.51886719 5.21630859 31.75585938 C4.59742147 29.67197118 3.98009306 27.58794459 3.375 25.5 C3.05015625 24.41912109 3.05015625 24.41912109 2.71875 23.31640625 C0.89715677 17.09825159 -0.15161797 11.06811183 -0.0625 4.5625 C-0.05347656 3.69753906 -0.04445313 2.83257812 -0.03515625 1.94140625 C-0.02355469 1.30074219 -0.01195312 0.66007812 0 0 Z " fill="#44D74F" transform="translate(447,331)"/>
<path d="M0 0 C0.80824219 0.350625 1.61648437 0.70125 2.44921875 1.0625 C9.01009459 3.76016671 15.64553199 3.63115151 22.64355469 3.62084961 C30.92417043 3.72740705 37.56003087 5.93370233 44.01171875 11.25 C44.759375 11.85328125 45.50703125 12.4565625 46.27734375 13.078125 C47.99200572 14.52729093 49.68826181 15.99836551 51.37109375 17.484375 C59.23802271 24.33072939 67.5001772 29.25899827 76.69921875 34.125 C105.93552271 49.593821 105.93552271 49.593821 114.69921875 61.125 C114.69921875 61.785 114.69921875 62.445 114.69921875 63.125 C106.9305886 60.7625087 99.60858385 57.54467539 92.21105957 54.23403931 C88.39980394 52.52878957 84.58216366 50.83791493 80.765625 49.14453125 C79.99221771 48.80091049 79.21881042 48.45728973 78.42196655 48.10325623 C71.44859913 45.00701409 64.45361599 41.9629634 57.44921875 38.9375 C55.02729183 37.89074489 52.60540177 36.84390512 50.18359375 35.796875 C49.54463669 35.52068832 48.90567963 35.24450165 48.24736023 34.95994568 C42.19130837 32.34082395 36.14033365 29.71006581 30.08984375 27.078125 C29.0708197 26.63486374 28.05179565 26.19160248 27.00189209 25.73490906 C22.9004923 23.95068531 18.79917894 22.16626343 14.69812012 20.3812561 C11.82362547 19.13015271 8.94897376 17.87941126 6.07421875 16.62890625 C5.16738342 16.23435745 4.2605481 15.83980865 3.32623291 15.43330383 C-2.97777535 12.69313079 -9.29329969 9.98139862 -15.62109375 7.29663086 C-17.88936472 6.30488228 -20.10119843 5.25932433 -22.30078125 4.125 C-15.0660856 -0.18503145 -8.30833743 -3.15970728 0 0 Z " fill="#ECD02F" transform="translate(206.30078125,285.875)"/>
<path d="M0 0 C8.09369833 2.51001526 15.80021546 5.81598274 23.5625 9.1875 C24.87029608 9.75229278 26.17823778 10.31674848 27.48632812 10.88085938 C30.65923901 12.25002748 33.83015975 13.62373526 37 15 C33.17037495 21.00081074 28.59052187 25.77685414 23.5625 30.8125 C22.2930957 32.11864258 22.2930957 32.11864258 20.99804688 33.45117188 C19.76344727 34.69157227 19.76344727 34.69157227 18.50390625 35.95703125 C17.75955322 36.70960205 17.0152002 37.46217285 16.24829102 38.23754883 C13.60386689 40.31053154 12.3638404 40.93447655 9 41 C6.263471 40.07430677 3.78787963 39.0904926 1.1796875 37.88671875 C0.43921173 37.55710648 -0.30126404 37.2274942 -1.06417847 36.88789368 C-3.42360296 35.83354209 -5.77401789 34.76052345 -8.125 33.6875 C-9.71432112 32.97604488 -11.30416002 32.26574523 -12.89453125 31.55664062 C-24.41969056 26.38687296 -24.41969056 26.38687296 -28 24 C-27.03513672 23.34257812 -27.03513672 23.34257812 -26.05078125 22.671875 C-16.53929472 15.99619544 -8.16169003 8.26002365 0 0 Z " fill="#CB310E" transform="translate(446,441)"/>
<path d="M0 0 C5.04791777 0.68166939 9.40606642 2.77145948 14.01953125 4.81640625 C14.87810226 5.19232407 15.73667328 5.56824188 16.6212616 5.95555115 C19.3537435 7.15321703 22.08313386 8.35775293 24.8125 9.5625 C26.66841988 10.37740857 28.52453752 11.19186691 30.38085938 12.00585938 C34.92288133 13.99869569 39.46214368 15.9976974 44 18 C41.81799507 28.17768926 31.58826802 38.22802425 25 46 C20.24475453 45.41116438 16.19500524 43.99811916 11.8515625 42.05859375 C11.19417084 41.77146011 10.53677917 41.48432648 9.85946655 41.18849182 C7.77846236 40.27782992 5.70173725 39.35784482 3.625 38.4375 C2.20730441 37.81513261 0.78933813 37.19338142 -0.62890625 36.57226562 C-4.0891091 35.05528646 -7.54550813 33.52993703 -11 32 C-11 27.92485275 -9.44507745 26.98720336 -6.6875 24.0625 C-1.10912043 18.69890414 -1.10912043 18.69890414 1.25 11.75 C0.98626548 7.79398225 0.55096289 3.9256106 0 0 Z " fill="#FE9021" transform="translate(459,410)"/>
<path d="M0 0 C8.77581511 3.15642396 17.41441027 6.52064384 25.9375 10.3125 C26.72431152 10.66183594 27.51112305 11.01117188 28.32177734 11.37109375 C33.8645388 13.8645388 33.8645388 13.8645388 35 15 C35.2315292 17.73516465 35.40365931 20.45090561 35.53515625 23.19140625 C35.57813339 24.01124496 35.62111053 24.83108368 35.66539001 25.67576599 C35.8021706 28.3044715 35.9324015 30.93345612 36.0625 33.5625 C36.15386695 35.34051694 36.24565821 37.11851212 36.33789062 38.89648438 C36.56352536 43.26408538 36.78328505 47.63194768 37 52 C32.53638231 51.33142164 28.64096738 49.69279422 24.546875 47.875 C23.84604797 47.56804199 23.14522095 47.26108398 22.42315674 46.94482422 C20.94968679 46.29825767 19.47727059 45.64928497 18.00585938 44.99804688 C15.74595072 43.9982085 13.48267255 43.00633634 11.21875 42.015625 C9.78625482 41.38587939 8.35395606 40.75568676 6.921875 40.125 C6.24276062 39.82706543 5.56364624 39.52913086 4.86395264 39.22216797 C0.11621337 37.11621337 0.11621337 37.11621337 -1 36 C-1.10088576 33.58673652 -1.13972059 31.20273434 -1.1328125 28.7890625 C-1.13376923 28.06512299 -1.13472595 27.34118347 -1.13571167 26.5953064 C-1.13639353 25.06028151 -1.13453886 23.52525376 -1.13037109 21.99023438 C-1.12503829 19.64186084 -1.13030784 17.29367992 -1.13671875 14.9453125 C-1.13605767 13.45572874 -1.13477588 11.96614511 -1.1328125 10.4765625 C-1.13483673 9.77334869 -1.13686096 9.07013489 -1.13894653 8.34561157 C-1.12427044 5.28562232 -0.97574438 2.92723313 0 0 Z " fill="#CB300D" transform="translate(37,263)"/>
<path d="M0 0 C4.75996136 0.58628019 8.57368923 1.9561504 12.9296875 3.94140625 C13.56488312 4.22853989 14.20007874 4.51567352 14.85452271 4.81150818 C16.86443181 5.72189079 18.86970656 6.64200189 20.875 7.5625 C22.24449625 8.18489523 23.61428528 8.80664666 24.984375 9.42773438 C28.32633508 10.94439226 31.66421384 12.46980249 35 14 C34.57978878 20.65703032 34.01191445 27.22835071 32.9765625 33.8203125 C31.82692343 41.50945694 31.55778252 49.1143587 31.375 56.875 C31.33666926 58.25653091 31.29760983 59.63804181 31.2578125 61.01953125 C31.16475798 64.34623042 31.07892541 67.67294084 31 71 C30.67 71 30.34 71 30 71 C29.67 63.74 29.34 56.48 29 49 C26.88078125 48.08476562 24.7615625 47.16953125 22.578125 46.2265625 C20.51941328 45.33653548 18.4608706 44.44611857 16.40234375 43.55566406 C14.97478568 42.93839417 13.54705301 42.32152793 12.11914062 41.70507812 C10.06333804 40.81747534 8.00817369 39.92840913 5.953125 39.0390625 C5.31755676 38.76502594 4.68198853 38.49098938 4.02716064 38.20864868 C0.97368412 36.88557797 -2.043971 35.5296482 -5 34 C-4.61465294 22.36251893 -2.45479317 11.34913679 0 0 Z " fill="#FE9022" transform="translate(42,229)"/>
<path d="M0 0 C5.09858156 1.59029001 9.91948653 3.62764809 14.80078125 5.7734375 C16.05449776 6.32096176 16.05449776 6.32096176 17.33354187 6.87954712 C19.99426473 8.04226885 22.65338475 9.20860713 25.3125 10.375 C27.08778911 11.15127388 28.8631788 11.92731776 30.63867188 12.703125 C38.43603784 16.11259701 46.22631949 19.53681232 54 23 C52 25 52 25 49.53125 25.265625 C34.28781914 25.18705061 20.39117175 21.67667173 9 11 C0 1.71100917 0 1.71100917 0 0 Z " fill="#49D757" transform="translate(354,290)"/>
</svg>
