<?xml version="1.0" encoding="UTF-8"?>
<svg version="1.1" xmlns="http://www.w3.org/2000/svg" width="580" height="584">
<path d="M0 0 C0.98672699 -0.00701431 1.97345398 -0.01402863 2.99008179 -0.02125549 C6.15749726 -0.03866982 9.32472591 -0.04510784 12.4921875 -0.046875 C13.57298584 -0.04754974 14.65378418 -0.04822449 15.76733398 -0.04891968 C31.19704751 -0.03358398 46.17021343 0.30846327 61.3671875 3.203125 C62.31174805 3.36941406 63.25630859 3.53570312 64.22949219 3.70703125 C87.38641163 7.81367706 109.81589469 14.81623647 131.3671875 24.203125 C132.09164063 24.51717285 132.81609375 24.8312207 133.5625 25.15478516 C174.3298638 43.04609868 213.2596684 72.75483079 240.3671875 108.203125 C241.16125 109.2034375 241.9553125 110.20375 242.7734375 111.234375 C279.24353173 157.368938 303.28801678 217.61462863 303.5703125 276.8359375 C303.57732681 277.82266449 303.58434113 278.80939148 303.59156799 279.82601929 C303.60898232 282.99343476 303.61542034 286.16066341 303.6171875 289.328125 C303.61819962 290.94932251 303.61819962 290.94932251 303.61923218 292.60327148 C303.60389648 308.03298501 303.26184923 323.00615093 300.3671875 338.203125 C300.20089844 339.14768555 300.03460937 340.09224609 299.86328125 341.06542969 C295.75663544 364.22234913 288.75407603 386.65183219 279.3671875 408.203125 C279.05313965 408.92757813 278.7390918 409.65203125 278.41552734 410.3984375 C260.52421382 451.1658013 230.81548171 490.0956059 195.3671875 517.203125 C193.86671875 518.39421875 193.86671875 518.39421875 192.3359375 519.609375 C146.2013745 556.07946923 85.95568387 580.12395428 26.734375 580.40625 C25.74764801 580.41326431 24.76092102 580.42027863 23.74429321 580.42750549 C20.57687774 580.44491982 17.40964909 580.45135784 14.2421875 580.453125 C13.16138916 580.45379974 12.08059082 580.45447449 10.96704102 580.45516968 C-4.46267251 580.43983398 -19.43583843 580.09778673 -34.6328125 577.203125 C-36.04965332 576.95369141 -36.04965332 576.95369141 -37.49511719 576.69921875 C-60.65203663 572.59257294 -83.08151969 565.59001353 -104.6328125 556.203125 C-105.35726562 555.88907715 -106.08171875 555.5750293 -106.828125 555.25146484 C-147.5954888 537.36015132 -186.5252934 507.65141921 -213.6328125 472.203125 C-214.82390625 470.70265625 -214.82390625 470.70265625 -216.0390625 469.171875 C-252.50915673 423.037312 -276.55364178 362.79162137 -276.8359375 303.5703125 C-276.84645897 302.09022202 -276.84645897 302.09022202 -276.85719299 300.58023071 C-276.87460732 297.41281524 -276.88104534 294.24558659 -276.8828125 291.078125 C-276.88348724 289.99732666 -276.88416199 288.91652832 -276.88485718 287.80297852 C-276.86952148 272.37326499 -276.52747423 257.40009907 -273.6328125 242.203125 C-273.46652344 241.25856445 -273.30023438 240.31400391 -273.12890625 239.34082031 C-269.02226044 216.18390087 -262.01970103 193.75441781 -252.6328125 172.203125 C-252.31876465 171.47867188 -252.0047168 170.75421875 -251.68115234 170.0078125 C-233.78983882 129.2404487 -204.08110671 90.3106441 -168.6328125 63.203125 C-167.6325 62.4090625 -166.6321875 61.615 -165.6015625 60.796875 C-119.4669995 24.32678077 -59.22130887 0.28229572 0 0 Z " fill="#FCB07A" transform="translate(276.6328125,-0.203125)"/>
<path d="M0 0 C37.7588435 -1.33615829 75.46041014 10.2545653 108 29 C109.07507813 29.61359375 110.15015625 30.2271875 111.2578125 30.859375 C116.09007475 33.68604651 116.09007475 33.68604651 118 35 C118 35.33 118 35.66 118 36 C117.443125 36.07476562 116.88625 36.14953125 116.3125 36.2265625 C106.78469399 37.86817772 100.67016839 43.38745558 95 51 C93.38643742 54.22712516 93.27014302 57.52285118 94 61 C100.02954771 66.46865955 106.97930376 66.34689045 114.7578125 66.28515625 C119.07058784 65.90583986 122.66800117 64.83351082 126 62 C128.39258577 58.30726311 128.1205398 55.60689477 127.5625 51.38671875 C126.79944626 48.14903935 125.41627933 45.48640783 123.7421875 42.62890625 C123.49726563 42.09136719 123.25234375 41.55382812 123 41 C123.33 40.34 123.66 39.68 124 39 C125.32064453 40.12148437 125.32064453 40.12148437 126.66796875 41.265625 C127.841115 42.26045302 129.01429382 43.25524265 130.1875 44.25 C130.76564453 44.74113281 131.34378906 45.23226562 131.93945312 45.73828125 C135.25231411 48.54579056 138.5936212 51.30568908 142 54 C140.61655012 57.22804971 139.11284974 58.95435419 136.375 61.125 C130.5657453 66.03646079 125.89845106 71.89344372 121.9375 78.375 C117.56712409 84.29615447 111.42367519 85.61612641 104.55078125 87.09375 C100.88135723 88.3974351 98.73344773 90.53310455 97 94 C96.28726019 100.28613148 96.90223272 104.94544989 100.125 110.40625 C101 112 101 112 101 114 C101.721875 114.28875 102.44375 114.5775 103.1875 114.875 C106 116 106 116 108.1875 117.125 C115.43462156 119.37966004 121.80661802 118.12683018 128.67578125 115.265625 C133.89671949 112.4226267 136.83711131 109.0903287 139.9375 104.0625 C143.32592325 98.8101237 146.32108208 94.83945896 152 92 C157.99815449 91.37950126 161.21711345 92.21570945 166.23828125 95.515625 C170.61459957 99.20298855 171.60324836 102.67384869 172.6875 108.25 C172.93886719 109.51328125 173.19023437 110.7765625 173.44921875 112.078125 C173.72185547 113.52445313 173.72185547 113.52445313 174 115 C178.76779526 116.20407033 180.73398004 115.50396824 185 113 C186.485 112.01 186.485 112.01 188 111 C189.71084854 114.05000684 191.38933996 117.11668018 193.0625 120.1875 C193.54783203 121.05181641 194.03316406 121.91613281 194.53320312 122.80664062 C195.21479492 124.06831055 195.21479492 124.06831055 195.91015625 125.35546875 C196.33433838 126.12528076 196.75852051 126.89509277 197.19555664 127.68823242 C198.19209075 130.55202044 197.88972849 132.13120742 197 135 C195.44140625 137.203125 195.44140625 137.203125 193.5625 139.25 C192.94503906 139.93578125 192.32757813 140.6215625 191.69140625 141.328125 C189.20491837 143.78590055 188.06547609 143.99181549 184.5 144.4375 C178.05405664 144.34391099 172.7177752 140.53092816 168.125 136.25390625 C167.0036877 135.08846824 165.88902288 133.91659627 164.78125 132.73828125 C158.18280844 126.29901263 150.75497113 122.73113499 141.5 122.625 C131.14024939 122.7580798 121.10356029 124.84462854 111 127 C109.82179688 127.25007813 108.64359375 127.50015625 107.4296875 127.7578125 C95.67669313 130.60603119 89.45810025 136.8175724 82.8840332 146.6237793 C82.50980225 147.18105713 82.13557129 147.73833496 81.75 148.3125 C81.37125732 148.87686768 80.99251465 149.44123535 80.60229492 150.02270508 C77.338625 154.76498124 73.50899669 158.61693486 69.359375 162.60546875 C61.03894569 171.04987797 55.87665098 180.45581894 55.5 192.375 C55.91499049 205.68146927 61.23840122 216.94964549 70.1875 226.75 C81.37983019 237.21294238 95.30189804 241.30987709 110.2890625 241.234375 C114.93650749 240.94085216 119.46777153 240.23798251 124.0625 239.5 C141.7336786 236.6795722 141.7336786 236.6795722 147.9375 239.1875 C152.02775288 242.78196465 154.24361942 245.58668799 155 251 C155.03684054 252.97301569 155.0717448 254.9461361 155.08740234 256.91943359 C155.22785509 265.62567955 156.72709497 273.09674141 159.375 281.375 C163.28476637 293.79774427 164.28571985 306.04752193 165.02490234 318.97021484 C165.49890282 327.0128188 166.39225024 334.43616799 168.35839844 342.2878418 C169.16669307 345.70463975 169.5340462 348.51534855 169 352 C167.15625 354.96484375 167.15625 354.96484375 164.5 357.9375 C164.01442627 358.48325684 163.52885254 359.02901367 163.02856445 359.59130859 C161.37787921 361.41970471 159.69504501 363.21267594 158 365 C157.38431152 365.65274902 156.76862305 366.30549805 156.13427734 366.97802734 C147.38373437 376.1745985 138.32524458 384.60631506 128 392 C127.34370605 392.47356934 126.68741211 392.94713867 126.01123047 393.43505859 C107.48169678 406.66048604 87.47888922 416.5627489 66 424 C64.99573975 424.36448242 64.99573975 424.36448242 63.97119141 424.73632812 C54.92148531 428.02032589 45.75400072 429.96903346 36.3125 431.75 C35.19601074 431.96100342 34.07952148 432.17200684 32.92919922 432.3894043 C21.44870596 434.44933377 10.02811053 435.1962948 -1.625 435.1875 C-2.64827393 435.18741943 -3.67154785 435.18733887 -4.72583008 435.18725586 C-15.84581375 435.10525645 -27.11160097 434.38385067 -38 432 C-40.04456589 412.69021099 -29.29431779 393.09162543 -17.6394043 378.35913086 C-12.04773294 371.49267433 -5.9151617 366.07356716 0.9609375 360.5234375 C6.51844327 355.90885045 11.80251208 351.01432453 17 346 C18.05574219 344.98486328 18.05574219 344.98486328 19.1328125 343.94921875 C30.21028506 332.35016116 34.5375226 316.67511849 34.4375 301.0625 C34.45748047 299.95970703 34.47746094 298.85691406 34.49804688 297.72070312 C34.49153859 286.68915914 31.66788458 277.77723226 24.41015625 269.38671875 C15.73031587 260.79128524 4.5487742 255.41015509 -6.15820312 249.7800293 C-15.83384175 244.67617757 -24.99792709 239.3056905 -33.125 231.9375 C-43.65843695 222.67464447 -51.41576671 217.85483989 -65.6875 217.625 C-72.99114045 217.42013014 -78.93268358 216.81040282 -85.69921875 213.875 C-90.73372271 211.96034994 -95.54465742 212.08812239 -100.56640625 213.953125 C-105.35817756 216.26488032 -109.87045741 219.05650218 -114.30859375 221.984375 C-119.37146116 225.02443395 -125.32309001 224.70701443 -131 224 C-141.13995047 220.19933187 -148.70066343 211.26984709 -153.15625 201.62109375 C-154.94009827 196.07960212 -154.90882494 190.6128717 -153 185.125 C-145.74039627 177.41167103 -137.13028321 175.96222122 -126.9375 175.625 C-118.64518492 175.77657995 -114.09082676 177.73478583 -108.3125 183.5625 C-107.74144531 184.16320312 -107.17039063 184.76390625 -106.58203125 185.3828125 C-103.31003364 188.72752117 -100.97114259 189.90123974 -96.3125 190.375 C-95.219375 190.25125 -94.12625 190.1275 -93 190 C-90.54706494 186.32059741 -90.7620082 184.43692571 -90.8125 180.0625 C-90.82216797 178.22365234 -90.82216797 178.22365234 -90.83203125 176.34765625 C-90.96818927 173.63399519 -91.3290342 171.58579895 -92 169 C-92.44292074 163.37998933 -92.84668695 158.00126006 -90.625 152.75 C-86.03041898 147.93662941 -81.11632367 143.46757228 -75.8984375 139.3359375 C-71.70994499 136.00296686 -69.50795549 133.32219586 -68 128 C-67.42181857 122.13425617 -68.02565243 117.55285254 -70 112 C-70.43577312 107.93278417 -70.33711689 105.67423378 -68.5 102 C-65.31154799 98.17385759 -61.93276192 95.04806328 -58 92 C-57.33871094 91.48308594 -56.67742187 90.96617187 -55.99609375 90.43359375 C-49.49900511 85.9821001 -42.35481843 84.20786289 -34.84350586 82.19042969 C-27.9124437 80.3213514 -21.5500248 77.94633732 -15 75 C-14.01 74.67 -13.02 74.34 -12 74 C-10.34332073 69.0299622 -9.99467851 65.24475895 -12.140625 60.453125 C-17.37652238 51.65885075 -25.65615272 41.59681233 -35 37 C-39.42807403 35.98828772 -43.36358654 36.12192449 -47.40234375 38.2890625 C-51.24918362 41.16926056 -54.32386257 44.31587482 -57.3125 48.0625 C-62.811467 54.67924768 -72.64348506 59.1002727 -81.125 60.30078125 C-85.80823406 60.33005146 -88.98450549 59.64657593 -93 57 C-95.56387627 54.43612373 -96.83047487 52.46868712 -98.0625 49.0625 C-97.99063339 45.54103629 -97.05029393 44.05993618 -94.671875 41.5078125 C-92.19562849 39.27456215 -89.52894191 37.35993391 -86.76953125 35.4921875 C-84.72875789 33.77127045 -83.89278474 32.51008065 -83 30 C-82.89745707 27.79849687 -82.89745707 27.79849687 -83.25 25.5625 C-83.33765625 24.82128906 -83.4253125 24.08007812 -83.515625 23.31640625 C-84.05808257 20.72223414 -84.95408267 18.43047184 -86 16 C-84.4447088 15.29634398 -82.88035173 14.61270622 -81.3125 13.9375 C-80.44238281 13.55464844 -79.57226562 13.17179687 -78.67578125 12.77734375 C-74.95972721 11.69778936 -72.41349713 12.29325143 -69 14 C-67.48606326 14.03707526 -65.97037414 14.01335475 -64.45703125 13.95703125 C-63.54759766 13.93576172 -62.63816406 13.91449219 -61.70117188 13.89257812 C-59.79454291 13.83972364 -57.88820413 13.77486476 -55.98242188 13.69726562 C-48.36357204 13.55250212 -44.51004213 15.03930549 -38.62890625 20 C-37.60603516 20.99 -37.60603516 20.99 -36.5625 22 C-29.80488774 28.12979356 -23.31549089 31.38053476 -14 31 C-8.1801912 29.28267937 -4.02987045 26.38634922 -0.87548828 21.12402344 C0.11202544 18.72821492 0.23020981 17.03552572 0.1953125 14.453125 C0.18886719 13.60878906 0.18242187 12.76445313 0.17578125 11.89453125 C0.15902344 11.02183594 0.14226562 10.14914063 0.125 9.25 C0.11597656 8.36183594 0.10695313 7.47367187 0.09765625 6.55859375 C0.07414577 4.37211942 0.04128499 2.18619906 0 0 Z " fill="#F6EFE6" transform="translate(292,75)"/>
<path d="M0 0 C0.98672699 -0.00701431 1.97345398 -0.01402863 2.99008179 -0.02125549 C6.15749726 -0.03866982 9.32472591 -0.04510784 12.4921875 -0.046875 C13.57298584 -0.04754974 14.65378418 -0.04822449 15.76733398 -0.04891968 C31.19704751 -0.03358398 46.17021343 0.30846327 61.3671875 3.203125 C62.31174805 3.36941406 63.25630859 3.53570312 64.22949219 3.70703125 C87.38641163 7.81367706 109.81589469 14.81623647 131.3671875 24.203125 C132.09164063 24.51717285 132.81609375 24.8312207 133.5625 25.15478516 C174.3298638 43.04609868 213.2596684 72.75483079 240.3671875 108.203125 C241.16125 109.2034375 241.9553125 110.20375 242.7734375 111.234375 C279.24353173 157.368938 303.28801678 217.61462863 303.5703125 276.8359375 C303.57732681 277.82266449 303.58434113 278.80939148 303.59156799 279.82601929 C303.60898232 282.99343476 303.61542034 286.16066341 303.6171875 289.328125 C303.61819962 290.94932251 303.61819962 290.94932251 303.61923218 292.60327148 C303.60389648 308.03298501 303.26184923 323.00615093 300.3671875 338.203125 C300.20089844 339.14768555 300.03460937 340.09224609 299.86328125 341.06542969 C295.75663544 364.22234913 288.75407603 386.65183219 279.3671875 408.203125 C279.05313965 408.92757813 278.7390918 409.65203125 278.41552734 410.3984375 C260.52421382 451.1658013 230.81548171 490.0956059 195.3671875 517.203125 C193.86671875 518.39421875 193.86671875 518.39421875 192.3359375 519.609375 C146.2013745 556.07946923 85.95568387 580.12395428 26.734375 580.40625 C25.74764801 580.41326431 24.76092102 580.42027863 23.74429321 580.42750549 C20.57687774 580.44491982 17.40964909 580.45135784 14.2421875 580.453125 C13.16138916 580.45379974 12.08059082 580.45447449 10.96704102 580.45516968 C-4.46267251 580.43983398 -19.43583843 580.09778673 -34.6328125 577.203125 C-36.04965332 576.95369141 -36.04965332 576.95369141 -37.49511719 576.69921875 C-60.65203663 572.59257294 -83.08151969 565.59001353 -104.6328125 556.203125 C-105.35726562 555.88907715 -106.08171875 555.5750293 -106.828125 555.25146484 C-147.5954888 537.36015132 -186.5252934 507.65141921 -213.6328125 472.203125 C-214.82390625 470.70265625 -214.82390625 470.70265625 -216.0390625 469.171875 C-252.50915673 423.037312 -276.55364178 362.79162137 -276.8359375 303.5703125 C-276.84645897 302.09022202 -276.84645897 302.09022202 -276.85719299 300.58023071 C-276.87460732 297.41281524 -276.88104534 294.24558659 -276.8828125 291.078125 C-276.88348724 289.99732666 -276.88416199 288.91652832 -276.88485718 287.80297852 C-276.86952148 272.37326499 -276.52747423 257.40009907 -273.6328125 242.203125 C-273.46652344 241.25856445 -273.30023438 240.31400391 -273.12890625 239.34082031 C-269.02226044 216.18390087 -262.01970103 193.75441781 -252.6328125 172.203125 C-252.31876465 171.47867188 -252.0047168 170.75421875 -251.68115234 170.0078125 C-233.78983882 129.2404487 -204.08110671 90.3106441 -168.6328125 63.203125 C-167.6325 62.4090625 -166.6321875 61.615 -165.6015625 60.796875 C-119.4669995 24.32678077 -59.22130887 0.28229572 0 0 Z M-33.6328125 41.203125 C-34.38723633 41.32107422 -35.14166016 41.43902344 -35.91894531 41.56054688 C-58.93897238 45.30037688 -83.14128301 54.18898967 -103.6328125 65.203125 C-104.66414307 65.74767334 -104.66414307 65.74767334 -105.71630859 66.30322266 C-123.65349407 75.82854462 -140.42810105 87.35949613 -155.375 101.12890625 C-157.40444713 102.99332913 -159.47315406 104.79087054 -161.5703125 106.578125 C-170.47614621 114.3707295 -178.37672766 122.86360986 -185.6328125 132.203125 C-186.08237305 132.77095703 -186.53193359 133.33878906 -186.99511719 133.92382812 C-195.56123419 144.76921662 -202.8216596 156.18628796 -209.6328125 168.203125 C-210.05191895 168.94208008 -210.47102539 169.68103516 -210.90283203 170.44238281 C-236.79957812 216.60020472 -245.89222996 269.89227906 -239.6328125 322.203125 C-239.4884375 323.5128125 -239.3440625 324.8225 -239.1953125 326.171875 C-238.75331888 329.8656788 -238.22010212 333.52968601 -237.6328125 337.203125 C-237.53339355 337.8523291 -237.43397461 338.5015332 -237.33154297 339.17041016 C-231.02012995 378.70374687 -211.76519704 418.36978422 -186.6328125 449.203125 C-185.88773438 450.151875 -185.14265625 451.100625 -184.375 452.078125 C-171.1901358 468.35782871 -155.67879162 484.0062505 -138.6328125 496.203125 C-137.60542969 496.986875 -136.57804687 497.770625 -135.51953125 498.578125 C-118.7617411 511.23108364 -100.01865728 521.24580288 -80.6328125 529.203125 C-79.64619629 529.61933105 -79.64619629 529.61933105 -78.63964844 530.04394531 C-49.82725936 542.11983551 -18.00232917 547.39212358 13.12036133 547.38842773 C15.16704219 547.39061151 17.21317947 547.40884583 19.25976562 547.42773438 C28.43316997 547.46737131 37.29584047 546.59752875 46.3671875 545.203125 C48.54812815 544.91369356 50.72911653 544.62462149 52.91015625 544.3359375 C95.64549157 538.10730563 138.55619504 520.43633774 171.74316406 492.56689453 C173.39521896 491.17958566 175.06394458 489.81431719 176.734375 488.44921875 C190.12252801 477.37304551 202.88891948 465.09566012 213.3671875 451.203125 C213.7703418 450.68169922 214.17349609 450.16027344 214.58886719 449.62304688 C245.42509218 409.69557175 267.30637658 358.34504474 267.5703125 307.296875 C267.57732681 306.38220459 267.58434113 305.46753418 267.59156799 304.52514648 C267.60898706 301.58442204 267.6154215 298.64389916 267.6171875 295.703125 C267.61786224 294.69757568 267.61853699 293.69202637 267.61923218 292.65600586 C267.59464809 269.5864785 265.79741689 247.45802055 259.3671875 225.203125 C258.93092041 223.6869458 258.93092041 223.6869458 258.48583984 222.14013672 C251.3093316 197.81667607 240.84712854 174.10605178 226.3671875 153.203125 C225.9551709 152.60016602 225.5431543 151.99720703 225.11865234 151.37597656 C210.29046867 129.76317254 192.20937128 109.21233863 171.3671875 93.203125 C170.43648438 92.47867188 169.50578125 91.75421875 168.546875 91.0078125 C144.35548894 72.49333837 118.1479162 59.06129794 89.3671875 49.203125 C88.58682129 48.93226074 87.80645508 48.66139648 87.00244141 48.38232422 C72.73942506 43.51023092 58.29685933 41.07887818 43.3671875 39.203125 C42.6050293 39.0985498 41.84287109 38.99397461 41.05761719 38.88623047 C32.04804762 37.79089567 22.92877211 37.96007023 13.8671875 37.953125 C12.957341 37.95211792 12.04749451 37.95111084 11.1100769 37.95007324 C-3.99557812 37.96135615 -18.70627955 38.70134608 -33.6328125 41.203125 Z " fill="#F6EFE6" transform="translate(276.6328125,-0.203125)"/>
<path d="M0 0 C3.00623622 1.06765301 5.88870106 2.36594352 8.7890625 3.69140625 C9.63269348 4.06810455 10.47632446 4.44480286 11.34552002 4.83291626 C13.16123927 5.64474769 14.97519534 6.460532 16.78753662 7.27987671 C20.65032361 9.02597874 24.52170265 10.75262547 28.39273071 12.48036194 C30.37718801 13.36623408 32.36121472 14.25307138 34.34481812 15.14085388 C43.48962111 19.23113061 52.67414689 23.22524781 61.875 27.1875 C63.36371463 27.82944707 64.85240282 28.47145544 66.34106445 29.11352539 C69.33010495 30.40238707 72.31950848 31.69040266 75.30908203 32.97802734 C82.97469693 36.28077325 90.63454778 39.5968681 98.29522705 42.91104126 C102.26564344 44.62862204 106.23634332 46.34554711 110.20703125 48.0625 C111.53491354 48.63671545 112.86279455 49.21093383 114.19067383 49.78515625 C115.11775146 50.18605469 116.0448291 50.58695313 117 51 C115.38331641 54.40736003 113.38560204 57.07571362 111 60 C109.48172328 63.03655344 109.83195641 65.63912824 110 69 C110.33 69.928125 110.66 70.85625 111 71.8125 C112.79487951 77.53367843 112.99261556 83.46733304 110.625 89.0625 C107.58355124 94.41199852 102.66701542 98.11547818 98 102 C96.49543668 103.26542743 94.99498011 104.53576516 93.5 105.8125 C92.8709375 106.33457031 92.241875 106.85664063 91.59375 107.39453125 C88.84310457 110.16540201 88.06094202 112.1819308 87.76953125 116.09375 C87.78371094 117.2178125 87.79789063 118.341875 87.8125 119.5 C87.81894531 120.6240625 87.82539063 121.748125 87.83203125 122.90625 C87.89216826 125.83715256 87.89216826 125.83715256 88.49609375 127.96875 C89.24337943 130.98106437 89.21062504 133.90250322 89.25 137 C89.28867187 138.8253125 89.28867187 138.8253125 89.328125 140.6875 C88.97965179 144.20542006 88.53744466 145.58618953 86 148 C82.49099744 148.68803972 80.16255629 148.66692816 77.01171875 146.859375 C74.25012934 144.82169738 71.68578603 142.60485476 69.11328125 140.3359375 C68.51902344 139.81257812 67.92476562 139.28921875 67.3125 138.75 C66.79300781 138.27046875 66.27351562 137.7909375 65.73828125 137.296875 C59.59146416 132.71093506 52.29570586 133.49226886 45 134 C38.59698053 135.08835443 32.99603094 136.7725892 28 141 C25.07611911 145.72711056 25.20521333 150.62473225 26 156 C29.7893767 165.7609117 36.06593184 173.77387635 45.2265625 178.890625 C51.06159577 181.22463831 56.80223635 181.13677725 62.703125 179.0390625 C65.23798977 177.81828407 67.60953434 176.48249047 70 175 C70.75667969 174.53464844 71.51335937 174.06929687 72.29296875 173.58984375 C73.6413928 172.74738574 74.98141722 171.89117361 76.30859375 171.015625 C80.87927839 168.27110304 85.85059984 168.44723953 91 169 C92.60418374 169.59214836 94.1878128 170.24207473 95.75 170.9375 C102.31087584 173.63516671 108.94631324 173.50615151 115.94433594 173.49584961 C124.22495168 173.60240705 130.86081212 175.80870233 137.3125 181.125 C138.06015625 181.72828125 138.8078125 182.3315625 139.578125 182.953125 C141.29278697 184.40229093 142.98904306 185.87336551 144.671875 187.359375 C152.53880396 194.20572939 160.80095845 199.13399827 170 204 C207.63205565 223.91098237 207.63205565 223.91098237 213.4375 242.33520508 C214.56832668 247.69239831 214.30508573 253.11436133 214.1875 258.5625 C214.17396484 259.76197266 214.16042969 260.96144531 214.14648438 262.19726562 C214.111408 265.13198879 214.06225427 268.06574882 214 271 C213.45448486 270.39260986 212.90896973 269.78521973 212.34692383 269.15942383 C209.79155757 266.80821041 207.65524437 265.75207322 204.44921875 264.44921875 C202.82367065 263.77765747 202.82367065 263.77765747 201.1652832 263.0925293 C200.01761475 262.62886963 198.86994629 262.16520996 197.6875 261.6875 C195.31941831 260.71049789 192.95222394 259.73134219 190.5859375 258.75 C189.44608398 258.27820313 188.30623047 257.80640625 187.13183594 257.3203125 C183.30819595 255.70835077 179.55132481 253.98577799 175.8125 252.1875 C170.4337086 249.62326346 165.00180921 247.35700745 159.45751953 245.18701172 C155.63585159 243.68192652 151.90093774 242.06648544 148.1875 240.3125 C141.58059891 237.20144373 134.85863663 234.38714299 128.125 231.5625 C120.96147204 228.55622328 113.82219309 225.53887762 106.8125 222.1875 C101.4337086 219.62326346 96.00180921 217.35700745 90.45751953 215.18701172 C86.63585159 213.68192652 82.90093774 212.06648544 79.1875 210.3125 C72.58058991 207.20143949 65.85856048 204.38734091 59.125 201.5625 C50.92763706 198.119861 42.82291152 194.57802066 34.79296875 190.76171875 C29.90791117 188.46626552 24.95502372 186.32663562 20 184.1875 C18.67198364 183.60911377 18.67198364 183.60911377 17.31713867 183.01904297 C12.59548047 180.99387145 7.97758092 179.27821032 3 178 C8.56332928 182.87223248 14.44542198 185.63349653 21.25390625 188.42578125 C25.09785039 190.01321211 28.83671895 191.77898618 32.5625 193.625 C34.23505859 194.44871094 34.23505859 194.44871094 35.94140625 195.2890625 C40.72219864 197.96337549 44.18372791 200.78478528 47.1875 205.375 C47.67605469 206.10460937 48.16460937 206.83421875 48.66796875 207.5859375 C51.89659191 213.43722522 52.30264935 218.71445558 52.34375 225.23828125 C52.3583728 226.11848434 52.37299561 226.99868744 52.38806152 227.90556335 C52.43434895 230.70782978 52.46864975 233.51002915 52.5 236.3125 C52.54144523 239.99634372 52.59525386 243.67971505 52.65625 247.36328125 C52.66416565 248.61060783 52.66416565 248.61060783 52.67224121 249.88313293 C52.83656659 259.69300059 54.68370782 268.2598038 61 276 C66.19391707 280.580695 71.9056685 284.31310803 77.75 288 C86.2656814 293.61014945 92.09701912 301.35838107 94.56323242 311.26171875 C95.8001289 317.35492888 96.47480366 323.36714028 96.9375 329.5625 C97.67438306 338.39249411 98.84295159 347.00060204 100.54833984 355.69140625 C101.0714118 358.36501082 101.57719286 361.04164386 102.08203125 363.71875 C103.04454203 368.81447002 104.0184738 373.90791105 105 379 C98.76161733 378.46074997 93.48298369 375.78007535 87.875 373.1875 C86.28788208 372.45478882 86.28788208 372.45478882 84.66870117 371.70727539 C69.31214277 364.47138749 55.08687546 355.81461118 42 345 C40.97132813 344.17371094 39.94265625 343.34742188 38.8828125 342.49609375 C25.0311695 331.22768118 12.40407306 318.52923674 2 304 C1.52643066 303.34370605 1.05286133 302.68741211 0.56494141 302.01123047 C-12.13358947 284.21990717 -22.03560497 264.96599422 -29.19335938 244.32080078 C-29.91155986 242.25445277 -30.66216837 240.20365986 -31.421875 238.15234375 C-40.41895825 212.18853868 -40.89164295 185.15087807 -41 158 C-44.95706904 156.24713147 -48.9158837 154.49823899 -52.875 152.75 C-53.98359375 152.25886719 -55.0921875 151.76773438 -56.234375 151.26171875 C-62.77447612 148.37638002 -69.33962005 145.5963235 -76 143 C-70.27414897 94.78230714 -51.27217789 50.86659186 -21 13 C-20.44570312 12.30132812 -19.89140625 11.60265625 -19.3203125 10.8828125 C-17.93178894 9.19406763 -16.50377481 7.58666004 -15 6 C-14.37480469 5.33742188 -13.74960938 4.67484375 -13.10546875 3.9921875 C-12.43128906 3.33476563 -11.75710937 2.67734375 -11.0625 2 C-10.15177734 1.1028125 -10.15177734 1.1028125 -9.22265625 0.1875 C-5.87122049 -1.60307376 -3.69208605 -0.75999299 0 0 Z " fill="#E0452F" transform="translate(113,118)"/>
<path d="M0 0 C4.41908947 0.56386008 7.87512725 1.68220467 11.875 3.625 C17.82329959 6.46177567 23.82587299 9.12944759 29.88232422 11.72705078 C34.89463834 13.89463834 34.89463834 13.89463834 36 15 C36.09910605 17.54372195 36.13799757 20.06499016 36.140625 22.609375 C36.15448241 24.23316956 36.17010165 25.85694981 36.18725586 27.48071289 C36.19626923 28.33972198 36.20528259 29.19873108 36.21456909 30.08377075 C37.03451127 91.78565577 60.89858406 147.31070096 105.16796875 190.421875 C110.76663004 195.73883373 116.76694031 200.4547954 123 205 C124.04542969 205.76699219 125.09085937 206.53398437 126.16796875 207.32421875 C129.39916212 209.6241862 132.67229985 211.84327798 136 214 C136.60054199 214.39010254 137.20108398 214.78020508 137.81982422 215.18212891 C151.18938056 223.73575127 165.93189219 230.9772974 181 236 C180.72736328 235.05253906 180.72736328 235.05253906 180.44921875 234.0859375 C175.57446503 216.73681399 172.88299051 199.1760405 171.28442383 181.24414062 C170.14666916 168.7776538 167.72547129 157.8357817 157.96484375 149.19921875 C154.0410603 146.07818465 149.92573325 143.23879999 145.8125 140.375 C144.97847656 139.78847656 144.14445313 139.20195312 143.28515625 138.59765625 C141.45326786 137.3169001 139.60430054 136.0605869 137.75 134.8125 C129.42801812 126.30138217 127.88066664 116.11593477 127.82421875 104.76171875 C127.80101983 102.95376441 127.77690246 101.14582166 127.75195312 99.33789062 C127.71690874 96.51399957 127.68751445 93.69053683 127.67407227 90.86645508 C127.65848953 88.12269449 127.61822369 85.38015236 127.57421875 82.63671875 C127.57708138 81.38939217 127.57708138 81.38939217 127.58000183 80.11686707 C127.40445035 71.59203335 123.9865137 63.1820531 118 57 C111.22658213 51.5607402 102.66057865 48.60109367 94.6640625 45.42236328 C80.90010765 39.8002153 80.90010765 39.8002153 78 34 C83.67777033 34.56869428 88.21802293 36.73045362 93.3125 39.125 C99.80427717 42.1162098 106.30969316 45.01050523 112.9375 47.6875 C117.66122524 49.6022322 122.325888 51.57436047 126.9375 53.75 C133.54513651 56.85751047 140.26872364 59.67193886 147 62.5 C154.71606562 65.74180796 162.37340308 69.03588096 169.94140625 72.609375 C173.75414136 74.34287909 177.62035096 75.92328066 181.5 77.5 C186.36837441 79.47854497 191.18382548 81.50538842 195.9375 83.75 C202.54513651 86.85751047 209.26872364 89.67193886 216 92.5 C223.71606562 95.74180796 231.37340308 99.03588096 238.94140625 102.609375 C242.7541425 104.3428796 246.62035925 105.92325672 250.5 107.5 C256.62933795 109.99140199 262.65553129 112.63309836 268.64453125 115.44921875 C273.35499515 117.62623175 278.11635944 119.68254924 282.88500977 121.72851562 C287.89381654 123.89381654 287.89381654 123.89381654 289 125 C289.86180524 137.24994591 282.7545672 149.01114183 275 158 C269.07495647 164.46532106 262.70985483 170.15096915 255.88671875 175.640625 C236.68290085 191.33630296 220.88692365 212.08898976 217.54296875 237.46875 C217.29360396 240.31483345 217.10287288 243.14527748 217 246 C219.87480665 246.23956722 222.74964699 246.47798066 225.625 246.7109375 C227.6269334 246.88239939 229.62781 247.06913384 231.625 247.2890625 C288.1312507 253.17513028 345.49617884 235.19802858 389.59667969 199.71533203 C397.54623211 193.25897447 404.88810203 186.36843938 412 179 C424.61893196 182.04376248 436.47441402 188.15880166 448 194 C441.17153158 208.25638255 424.30296787 221.55365791 412 231 C411.40993164 231.46116211 410.81986328 231.92232422 410.21191406 232.39746094 C400.87197371 239.68821174 391.369544 246.26458209 381 252 C380.15550293 252.46937988 379.31100586 252.93875977 378.44091797 253.42236328 C365.84393643 260.36219143 353.18482831 266.39769262 339.58740234 271.10302734 C337.88016627 271.69487348 336.17717747 272.29913575 334.47900391 272.91650391 C322.4610897 277.27925108 310.3672398 280.10870457 297.8125 282.375 C297.10726196 282.50255676 296.40202393 282.63011353 295.67541504 282.76153564 C282.37058093 285.13787014 269.45443621 286.23626902 255.9375 286.25 C255.24257446 286.25100708 254.54764893 286.25201416 253.83166504 286.25305176 C217.19059404 286.21750835 181.19293858 278.56520566 148 263 C147.27876953 262.66355469 146.55753906 262.32710937 145.81445312 261.98046875 C109.00507986 244.62994727 74.11737014 217.73155217 50.18261719 184.63134766 C48.97869483 182.97061083 47.7458285 181.33465234 46.5078125 179.69921875 C19.77667321 143.92077692 3.12161866 99.37928932 -1 55 C-1.11085937 53.86820312 -1.22171875 52.73640625 -1.3359375 51.5703125 C-2.7448715 34.47270803 -3.08156576 16.92109772 0 0 Z " fill="#A80504" transform="translate(37,261)"/>
<path d="M0 0 C4.22631427 1.01184927 7.96152226 2.61419255 11.9140625 4.39550781 C12.73335739 4.75798615 13.55265228 5.12046448 14.39677429 5.493927 C17.07197162 6.6789488 19.74291223 7.87327042 22.4140625 9.06738281 C24.2871588 9.89842989 26.16061636 10.72866316 28.03442383 11.55810547 C31.77994366 13.21624388 35.52435652 14.87684215 39.26806641 16.5390625 C45.86225866 19.46300078 52.47859153 22.33422176 59.1015625 25.19238281 C61.50139536 26.22992828 63.9011488 27.26765537 66.30078125 28.30566406 C66.92443573 28.57535507 67.54809021 28.84504608 68.19064331 29.12290955 C79.55543269 34.03927761 90.90777668 38.98440261 102.26245117 43.92407227 C104.24006498 44.78435771 106.21768547 45.64462777 108.1953125 46.50488281 C109.18594193 46.93580734 110.17657135 47.36673187 111.19721985 47.81071472 C117.50907303 50.55575662 123.82264565 53.29680627 130.13745117 56.03504944 C134.37649411 57.87328747 138.6150202 59.71271554 142.85351562 61.55221558 C144.87930034 62.43100231 146.90533846 63.30920515 148.93164062 64.1867981 C151.74935032 65.40721392 154.56616992 66.62966283 157.3828125 67.85253906 C158.21196167 68.21101929 159.04111084 68.56949951 159.89538574 68.93884277 C164.13427395 70.78167454 168.3010922 72.70276527 172.4140625 74.81738281 C175.76531845 127.81687509 146.61043002 184.83157154 114.4140625 224.81738281 C89.63779363 214.11687966 89.63779363 214.11687966 78.4140625 208.81738281 C79.3296651 207.58742332 80.24660453 206.35845896 81.1640625 205.12988281 C81.70804687 204.39511719 82.25203125 203.66035156 82.8125 202.90332031 C84.4140625 200.81738281 84.4140625 200.81738281 86.7890625 198.25488281 C88.96866861 194.98547365 88.99810496 192.57321204 88.4140625 188.81738281 C87.94157726 186.93448597 87.45700049 185.05460886 86.96484375 183.17675781 C85.18995292 175.61541712 84.74717114 168.17578716 84.30535889 160.45184326 C83.51655545 147.14031683 81.91868027 134.96854527 77.83227539 122.20361328 C75.35336076 114.31087729 74.61031462 107.02009358 74.58203125 98.77832031 C74.36615858 93.68774149 73.74315872 89.44659753 70.4765625 85.44238281 C65.74760719 81.71653923 60.13186064 82.44769759 54.4140625 82.81738281 C51.09111825 83.25341237 47.78499753 83.78336711 44.4765625 84.31738281 C27.88275858 86.96570546 12.59357707 86.50869831 -2.06640625 77.25097656 C-13.52192931 68.75298958 -21.24599415 57.76923708 -24.5859375 43.81738281 C-25.71793568 31.641821 -23.93727619 22.29527025 -16.296875 12.69628906 C-13.85442201 10.01405187 -11.19333289 7.67216385 -8.3984375 5.36425781 C-6.42718774 3.76498211 -6.42718774 3.76498211 -4.4609375 1.31738281 C-2.5859375 -0.18261719 -2.5859375 -0.18261719 0 0 Z " fill="#F16C49" transform="translate(371.5859375,231.1826171875)"/>
<path d="M0 0 C3.02259041 3.70822594 5.16706829 7.81249536 7.4375 12 C11.62890143 19.6515171 16.045836 27.1380076 20.6027832 34.5769043 C23.48326467 39.32212581 26.09688406 44.10686818 28.53173828 49.09423828 C34.5224138 61.24950353 41.86135113 65.36682549 54.32421875 70.4609375 C58.14164001 72.05930517 61.85572834 73.7883646 65.5625 75.625 C66.67753906 76.17414063 67.79257813 76.72328125 68.94140625 77.2890625 C73.72219864 79.96337549 77.18372791 82.78478528 80.1875 87.375 C80.67605469 88.10460937 81.16460937 88.83421875 81.66796875 89.5859375 C84.89659191 95.43722522 85.30264935 100.71445558 85.34375 107.23828125 C85.3583728 108.11848434 85.37299561 108.99868744 85.38806152 109.90556335 C85.43434895 112.70782978 85.46864975 115.51002915 85.5 118.3125 C85.54144523 121.99634372 85.59525386 125.67971505 85.65625 129.36328125 C85.66416565 130.61060783 85.66416565 130.61060783 85.67224121 131.88313293 C85.83656659 141.69300059 87.68370782 150.2598038 94 158 C99.19391707 162.580695 104.9056685 166.31310803 110.75 170 C119.2656814 175.61014945 125.09701912 183.35838107 127.56323242 193.26171875 C128.8001289 199.35492888 129.47480366 205.36714028 129.9375 211.5625 C130.67438306 220.39249411 131.84295159 229.00060204 133.54833984 237.69140625 C134.0714118 240.36501082 134.57719286 243.04164386 135.08203125 245.71875 C136.04454203 250.81447002 137.0184738 255.90791105 138 261 C131.76161733 260.46074997 126.48298369 257.78007535 120.875 255.1875 C119.81692139 254.69902588 118.75884277 254.21055176 117.66870117 253.70727539 C102.31214277 246.47138749 88.08687546 237.81461118 75 227 C73.97132813 226.17371094 72.94265625 225.34742188 71.8828125 224.49609375 C58.0311695 213.22768118 45.40407306 200.52923674 35 186 C34.52643066 185.34370605 34.05286133 184.68741211 33.56494141 184.01123047 C20.86641053 166.21990717 10.96439503 146.96599422 3.80664062 126.32080078 C3.08844014 124.25445277 2.33783163 122.20365986 1.578125 120.15234375 C0.185366 116.13311638 -0.97236699 112.12561964 -2 108 C-2.22848633 107.08573242 -2.45697266 106.17146484 -2.69238281 105.22949219 C-6.62552503 88.6081077 -7.48132893 72.38828301 -7.5 55.375 C-7.50440094 54.40584656 -7.50880188 53.43669312 -7.51333618 52.43817139 C-7.54634376 35.02381344 -5.79312209 17.80480156 -1 1 C-0.67 0.67 -0.34 0.34 0 0 Z " fill="#F6EEE5" transform="translate(80,236)"/>
<path d="M0 0 C5.67777033 0.56869428 10.21802293 2.73045362 15.3125 5.125 C21.80427717 8.1162098 28.30969316 11.01050523 34.9375 13.6875 C39.66122524 15.6022322 44.325888 17.57436047 48.9375 19.75 C55.54513651 22.85751047 62.26872364 25.67193886 69 28.5 C76.71606562 31.74180796 84.37340308 35.03588096 91.94140625 38.609375 C95.75414136 40.34287909 99.62035096 41.92328066 103.5 43.5 C108.36837441 45.47854497 113.18382548 47.50538842 117.9375 49.75 C124.54513651 52.85751047 131.26872364 55.67193886 138 58.5 C145.71606562 61.74180796 153.37340308 65.03588096 160.94140625 68.609375 C164.7541425 70.3428796 168.62035925 71.92325672 172.5 73.5 C178.62933795 75.99140199 184.65553129 78.63309836 190.64453125 81.44921875 C195.35499515 83.62623175 200.11635944 85.68254924 204.88500977 87.72851562 C209.89381654 89.89381654 209.89381654 89.89381654 211 91 C211.86180524 103.24994591 204.7545672 115.01114183 197 124 C191.09019623 130.44869165 184.76765936 136.16979886 177.90625 141.58203125 C175.69856242 143.41880358 173.64771015 145.26487716 171.59375 147.26171875 C171.0167334 147.81867432 170.4397168 148.37562988 169.84521484 148.94946289 C168.71861828 150.04679928 167.60376432 151.15635295 166.50244141 152.27905273 C164.9453125 153.7890625 164.9453125 153.7890625 162 156 C157.16668649 155.7032852 152.71525053 153.26763991 148.3515625 151.31640625 C147.08893333 150.75902519 147.08893333 150.75902519 145.80079651 150.19038391 C144.0027307 149.3959445 142.20566394 148.59924074 140.40951538 147.80047607 C137.61804951 146.55940986 134.823761 145.32492356 132.02856445 144.09228516 C125.31036982 141.12826233 118.59576677 138.15618053 111.88720703 135.17041016 C108.65631568 133.73323122 105.42224843 132.30346795 102.1875 130.875 C100.83229248 130.26507202 100.83229248 130.26507202 99.44970703 129.64282227 C98.6348584 129.28373779 97.82000977 128.92465332 96.98046875 128.5546875 C96.29879639 128.25030762 95.61712402 127.94592773 94.91479492 127.63232422 C92.70304111 126.79094996 92.70304111 126.79094996 89 127 C87.578125 125.27734375 87.578125 125.27734375 86.25 122.9375 C81.88051157 115.97464937 76.34995466 111.764886 69.4375 107.4375 C60.09663228 101.58010505 55.09517756 96.55401465 51 86 C49.90328805 80.90441224 49.84999397 75.94627784 49.82421875 70.76171875 C49.80101983 68.95376441 49.77690246 67.14582166 49.75195312 65.33789062 C49.71690874 62.51399957 49.68751445 59.69053683 49.67407227 56.86645508 C49.65848953 54.12269449 49.61822369 51.38015236 49.57421875 48.63671875 C49.57612717 47.80516769 49.57803558 46.97361664 49.58000183 46.11686707 C49.40445035 37.59203335 45.9865137 29.1820531 40 23 C33.22658213 17.5607402 24.66057865 14.60109367 16.6640625 11.42236328 C2.90010765 5.8002153 2.90010765 5.8002153 0 0 Z " fill="#C61A13" transform="translate(115,295)"/>
<path d="M0 0 C3.00623622 1.06765301 5.88870106 2.36594352 8.7890625 3.69140625 C9.63269348 4.06810455 10.47632446 4.44480286 11.34552002 4.83291626 C13.16123927 5.64474769 14.97519534 6.460532 16.78753662 7.27987671 C20.65032361 9.02597874 24.52170265 10.75262547 28.39273071 12.48036194 C30.37718801 13.36623408 32.36121472 14.25307138 34.34481812 15.14085388 C43.48962111 19.23113061 52.67414689 23.22524781 61.875 27.1875 C63.36371463 27.82944707 64.85240282 28.47145544 66.34106445 29.11352539 C69.33010495 30.40238707 72.31950848 31.69040266 75.30908203 32.97802734 C82.97469693 36.28077325 90.63454778 39.5968681 98.29522705 42.91104126 C102.26564344 44.62862204 106.23634332 46.34554711 110.20703125 48.0625 C111.53491354 48.63671545 112.86279455 49.21093383 114.19067383 49.78515625 C115.11775146 50.18605469 116.0448291 50.58695313 117 51 C115.38331641 54.40736003 113.38560204 57.07571362 111 60 C109.48172328 63.03655344 109.83195641 65.63912824 110 69 C110.33 69.928125 110.66 70.85625 111 71.8125 C112.79487951 77.53367843 112.99261556 83.46733304 110.625 89.0625 C107.58355124 94.41199852 102.66701542 98.11547818 98 102 C96.49543668 103.26542743 94.99498011 104.53576516 93.5 105.8125 C92.8709375 106.33457031 92.241875 106.85664063 91.59375 107.39453125 C87.92711234 111.08812948 87.67992888 114.66785208 87.375 119.75 C87.30023438 120.92046875 87.22546875 122.0909375 87.1484375 123.296875 C87.07496094 124.63492188 87.07496094 124.63492188 87 126 C74.29918695 120.81399775 61.68804439 115.4654087 49.1875 109.8125 C38.36281642 104.92043575 27.48753474 100.16368668 16.5625 95.5 C15.82858032 95.18663696 15.09466064 94.87327393 14.33850098 94.55041504 C11.39091445 93.29207157 8.44324054 92.03393329 5.49536133 90.77627563 C-1.39709372 87.83420275 -8.27881718 84.86763529 -15.15533447 81.88851929 C-17.03396612 81.07485841 -18.91321416 80.26263317 -20.79248047 79.45043945 C-26.11055823 77.14656727 -31.41711031 74.82526578 -36.6875 72.4140625 C-37.52531006 72.03241943 -38.36312012 71.65077637 -39.22631836 71.25756836 C-40.71808263 70.57427828 -42.20629799 69.88314973 -43.68969727 69.18188477 C-47.26873535 67.54128579 -50.04609257 66.61295724 -54 67 C-52.40787666 61.41852216 -49.80062671 56.60728337 -47 51.5625 C-46.51088135 50.67941162 -46.0217627 49.79632324 -45.51782227 48.88647461 C-38.37396204 36.15056511 -30.1104156 24.3959554 -21 13 C-20.44570312 12.30132812 -19.89140625 11.60265625 -19.3203125 10.8828125 C-17.93178894 9.19406763 -16.50377481 7.58666004 -15 6 C-14.37480469 5.33742188 -13.74960938 4.67484375 -13.10546875 3.9921875 C-12.43128906 3.33476563 -11.75710937 2.67734375 -11.0625 2 C-10.15177734 1.1028125 -10.15177734 1.1028125 -9.22265625 0.1875 C-5.87122049 -1.60307376 -3.69208605 -0.75999299 0 0 Z " fill="#F06C49" transform="translate(113,118)"/>
<path d="M0 0 C3.83883085 0.6390761 7.14181506 1.76994936 10.71875 3.29296875 C11.81050537 3.75590332 12.90226074 4.21883789 14.02709961 4.69580078 C15.17315674 5.18806152 16.31921387 5.68032227 17.5 6.1875 C19.25098999 6.93362549 19.25098999 6.93362549 21.03735352 7.69482422 C28.00577174 10.67635585 34.93300763 13.71914806 41.77734375 16.9765625 C44.09183469 18.09146988 44.09183469 18.09146988 47 19 C47.97731741 21.35291463 48.73896251 23.56280441 49.4375 26 C49.65067871 26.72203613 49.86385742 27.44407227 50.08349609 28.18798828 C50.74076657 30.45388047 51.37324977 32.72549522 52 35 C52.18739746 35.6609668 52.37479492 36.32193359 52.56787109 37.00292969 C59.41760457 61.552474 59.44408429 86.73502019 59 112 C49.91823308 108.62868655 41.05273482 104.90447103 32.21008301 100.9581604 C28.45181463 99.28138054 24.68846036 97.61607131 20.92578125 95.94921875 C20.16474091 95.61178146 19.40370056 95.27434418 18.61959839 94.92668152 C11.67895664 91.85158451 4.71859272 88.82377644 -2.25 85.8125 C-4.71356485 84.74744941 -7.17711248 83.68235912 -9.640625 82.6171875 C-10.28616837 82.33812057 -10.93171173 82.05905365 -11.59681702 81.77153015 C-20.09318649 78.09709478 -28.58120977 74.40345085 -37.06994629 70.71142578 C-39.99516527 69.43960204 -42.92086403 68.16888794 -45.84667969 66.8984375 C-55.14623495 62.85908542 -64.44155021 58.81068718 -73.72338867 54.73075867 C-77.9605822 52.86885828 -82.19992661 51.0118849 -86.43945312 49.15530396 C-88.46658076 48.26590898 -90.49263978 47.37407406 -92.51757812 46.47970581 C-95.33198723 45.23684482 -98.14992731 44.00234235 -100.96875 42.76953125 C-101.79789917 42.40072845 -102.62704834 42.03192566 -103.48132324 41.65194702 C-107.60982207 39.85630042 -111.44236958 38.23372464 -116 38 C-118.89647237 40.04940588 -118.89647237 40.04940588 -121.375 42.9375 C-122.24898438 43.87464844 -123.12296875 44.81179687 -124.0234375 45.77734375 C-124.67570312 46.51082031 -125.32796875 47.24429688 -126 48 C-126 45 -126 45 -124.19921875 43.08203125 C-122.95591797 41.95861328 -122.95591797 41.95861328 -121.6875 40.8125 C-117.20030589 36.49666974 -113.78712834 32.0084584 -110.375 26.8125 C-102.8010014 15.37470282 -95.39572036 9.68398764 -81.8203125 6.76171875 C-80.55960937 6.51035156 -79.29890625 6.25898438 -78 6 C-77.30229492 5.86029785 -76.60458984 5.7205957 -75.88574219 5.57666016 C-46.91786783 -0.09765786 -46.91786783 -0.09765786 -36 7 C-31.31715176 10.2674796 -27.05381648 13.9360405 -22.8125 17.75 C-17.98198622 21.98980006 -13.72816357 24.72369375 -7.02734375 24.4921875 C-2.02420656 23.27755304 1.26106342 19.10840487 4 15 C3.69215476 10.38232137 2.08199586 7.07347015 0 3 C0 2.01 0 1.02 0 0 Z " fill="#F98E5D" transform="translate(485,194)"/>
<path d="M0 0 C1.76976197 0.82391978 3.54061551 1.64549853 5.3125 2.46484375 C6.63314453 3.07755127 6.63314453 3.07755127 7.98046875 3.70263672 C11.77880285 5.42725854 15.63143326 7.00334633 19.5 8.5625 C25.68872223 11.06853981 31.75512527 13.74895464 37.80078125 16.5859375 C41.02596345 18.09132664 44.27969104 19.5008009 47.5625 20.875 C47.5625 21.205 47.5625 21.535 47.5625 21.875 C28.8145776 24.15240489 28.8145776 24.15240489 22.5625 20.875 C18.07666636 21.27374077 13.86083894 22.58549832 9.5625 23.875 C9.85125 24.38289063 10.14 24.89078125 10.4375 25.4140625 C12.73621814 29.67626905 14.4237106 32.92303905 13.5625 37.875 C10.91430036 43.4121447 6.66773889 46.26370474 1.70703125 49.75 C-1.00116242 52.43352888 -1.30779751 54.10863911 -1.4375 57.875 C0.95290833 62.75143298 3.43675257 65.10070281 8.5625 66.875 C17.53939325 68.13491484 26.67042535 64.2229713 33.9375 59.0625 C37.34920901 56.28869456 40.0816224 53.04723171 42.92578125 49.7109375 C46.64674741 45.53706138 49.89058453 43.63955437 55.4375 43.25 C61.3174442 43.53083316 64.39387366 45.92701929 68.5625 49.875 C69.78646484 50.98294922 69.78646484 50.98294922 71.03515625 52.11328125 C85.64690208 65.93162912 85.64690208 65.93162912 86.3125 75.25 C85.38640663 79.72611797 83.97803203 80.91110857 80.5625 83.875 C72.34772872 88.50554858 63.51324995 90.72185239 54.41748047 92.90136719 C48.39357285 94.43463628 43.65404066 96.73875205 38.59375 100.421875 C36.5625 101.875 36.5625 101.875 33.5625 102.875 C31.07581983 101.994606 28.75135081 101.04322935 26.35546875 99.95703125 C25.6196608 99.63287735 24.88385284 99.30872345 24.12574768 98.9747467 C21.66321477 97.88769556 19.20682411 96.78738533 16.75 95.6875 C15.00796801 94.91639285 13.26544449 94.14639526 11.52246094 93.37744141 C7.80226863 91.73553151 4.0839657 90.08944037 0.36669922 88.44091797 C-11.22924025 83.30603764 -22.86978001 78.27238465 -34.50488281 73.22705078 C-35.45813446 72.81364441 -36.41138611 72.40023804 -37.39352417 71.9743042 C-39.29670235 71.14896254 -41.19996088 70.32380614 -43.103302 69.49884033 C-48.54568278 67.1377645 -53.97987474 64.75910585 -59.40682983 62.36279297 C-62.67199984 60.92301574 -65.94153866 59.49336261 -69.21203613 58.06573486 C-70.72202767 57.40362818 -72.22998002 56.7368488 -73.73571777 56.06512451 C-75.78877709 55.14974368 -77.84830033 54.25081938 -79.91015625 53.35546875 C-81.05750244 52.84910889 -82.20484863 52.34274902 -83.38696289 51.82104492 C-86.67040086 50.80277184 -88.22076602 50.76304685 -91.4375 51.875 C-94.2075997 53.84009909 -94.2075997 53.84009909 -96.4375 55.875 C-95.1026174 52.91321661 -93.63617264 50.81746956 -91.34765625 48.51953125 C-90.73374023 47.90158691 -90.11982422 47.28364258 -89.48730469 46.64697266 C-88.83149414 46.00034668 -88.17568359 45.3537207 -87.5 44.6875 C-86.48728027 43.68275635 -86.48728027 43.68275635 -85.45410156 42.65771484 C-80.04216408 37.34713893 -74.40331292 32.55600682 -68.4375 27.875 C-66.68719061 26.39619945 -64.93719792 24.91702398 -63.1875 23.4375 C-52.12622983 14.40308189 -39.78594663 7.00125775 -27.4375 -0.125 C-26.01050781 -0.96998047 -26.01050781 -0.96998047 -24.5546875 -1.83203125 C-23.29011719 -2.53392578 -23.29011719 -2.53392578 -22 -3.25 C-21.30003906 -3.64445312 -20.60007812 -4.03890625 -19.87890625 -4.4453125 C-12.74337671 -6.43184392 -6.30134006 -3.02229221 0 0 Z " fill="#F98E5D" transform="translate(196.4375,67.125)"/>
<path d="M0 0 C9.0305854 2.7390373 17.55456057 6.60091764 26.1875 10.375 C27.82364945 11.08696187 29.45996325 11.79854616 31.09643555 12.50976562 C34.42934207 13.95879678 37.7613957 15.40976238 41.09277344 16.86230469 C47.83404731 19.80062116 54.58298688 22.72120715 61.33169556 25.64239502 C64.46767439 27.00014191 67.60297188 28.35945791 70.73828125 29.71875 C71.75962158 30.16154297 72.78096191 30.60433594 73.83325195 31.06054688 C74.54827881 31.37056641 75.26330566 31.68058594 76 32 C75.5770859 38.96332982 72.71843738 44.54516539 69.6875 50.75 C68.8821582 52.40793579 68.8821582 52.40793579 68.06054688 54.09936523 C59.61645847 71.15627601 49.00490278 89.82085799 35 103 C33.92234375 102.44570313 32.8446875 101.89140625 31.734375 101.3203125 C26.33431806 98.62028403 20.79623843 96.25599662 15.25 93.875 C13.21311074 92.99839647 11.17663522 92.12083076 9.140625 91.2421875 C7.80306152 90.66766846 7.80306152 90.66766846 6.43847656 90.08154297 C4.25661896 89.11381878 2.12396944 88.08793199 0 87 C0.9156026 85.77004051 1.83254203 84.54107614 2.75 83.3125 C3.29398437 82.57773437 3.83796875 81.84296875 4.3984375 81.0859375 C6 79 6 79 8.375 76.4375 C10.55463123 73.16805316 10.58351169 70.75593244 10 67 C9.53148575 65.13141137 9.05077751 63.26586573 8.5625 61.40234375 C6.37750246 52.09156282 5.9860439 42.66782641 5.41870117 33.15014648 C4.83062773 23.55469933 3.81128515 14.89110533 0.82006836 5.70288086 C0 3 0 3 0 0 Z " fill="#E0452F" transform="translate(450,353)"/>
<path d="M0 0 C12.61893196 3.04376248 24.47441402 9.15880166 36 15 C29.17153158 29.25638255 12.30296787 42.55365791 0 52 C-0.59006836 52.46116211 -1.18013672 52.92232422 -1.78808594 53.39746094 C-5.7901093 56.52143753 -9.84689822 59.54964561 -13.97119141 62.51025391 C-15.94644278 63.96067314 -17.85022872 65.47880141 -19.76171875 67.01171875 C-23.42512791 69.78481732 -26.57116292 71.65090809 -31 73 C-36.40801453 72.12525502 -40.62783524 69.93832669 -45.40673828 67.34423828 C-50.57145772 64.667064 -55.97101701 62.48469782 -61.3125 60.1875 C-63.4560233 59.24711967 -65.59805405 58.30332678 -67.73828125 57.35546875 C-68.65649658 56.94965576 -69.57471191 56.54384277 -70.52075195 56.12573242 C-72.70881459 55.13221624 -74.85980974 54.09213799 -77 53 C-76.32646484 52.68885254 -75.65292969 52.37770508 -74.95898438 52.05712891 C-46.42936677 38.80845679 -21.90160896 22.69164696 0 0 Z " fill="#C61B14" transform="translate(449,440)"/>
<path d="M0 0 C4.41908947 0.56386008 7.87512725 1.68220467 11.875 3.625 C17.82329959 6.46177567 23.82587299 9.12944759 29.88232422 11.72705078 C34.89463834 13.89463834 34.89463834 13.89463834 36 15 C36.09910598 17.54372018 36.13794686 20.06499231 36.140625 22.609375 C36.15476265 24.23382054 36.17062423 25.85825176 36.18798828 27.48266602 C36.19703186 28.34175568 36.20607544 29.20084534 36.21539307 30.08596802 C36.54531594 55.48333788 39.79107226 79.18418513 48.43676758 103.21362305 C49 105 49 105 49 107 C44.12212028 106.31802873 39.9497165 104.38161664 35.48828125 102.40234375 C34.67884567 102.04862198 33.8694101 101.69490021 33.03544617 101.33045959 C30.45905231 100.2041469 27.88554908 99.07143087 25.3125 97.9375 C22.7285452 96.80046388 20.14398613 95.66491007 17.55741882 94.53382874 C15.94989397 93.8307505 14.34389514 93.12417094 12.73957825 92.4138031 C9.01091322 90.63709699 9.01091322 90.63709699 5 90 C2.39485786 78.36538461 0.16236365 66.88058002 -1 55 C-1.11214844 53.86175781 -1.22429688 52.72351563 -1.33984375 51.55078125 C-2.73724052 34.45659887 -3.08088323 16.91734988 0 0 Z " fill="#C61C15" transform="translate(37,261)"/>
<path d="M0 0 C6.39746069 1.98344211 12.42838446 4.43312212 18.5 7.25 C25.54900044 10.47523471 32.62602823 13.57223929 39.828125 16.44042969 C43.93860847 18.09355891 47.95777997 19.89526011 51.97265625 21.76953125 C59.73299207 25.37684206 67.60957759 28.68930801 75.5 32 C84.28844742 35.68748858 93.0169606 39.44011659 101.65429688 43.47265625 C108.20512548 46.46316878 114.86022276 49.21405823 121.5 52 C137.11021167 58.54978911 137.11021167 58.54978911 144.46484375 61.98828125 C149.38277314 64.28524626 154.34247936 66.44566504 159.34765625 68.54296875 C160.41703934 68.99145676 160.41703934 68.99145676 161.50802612 69.44900513 C164.4414786 70.67718747 167.3760671 71.90254733 170.31323242 73.12182617 C172.49347525 74.02810175 174.67072033 74.94128387 176.84765625 75.85546875 C177.83826805 76.26335884 177.83826805 76.26335884 178.84889221 76.67948914 C182.24887312 78.11276041 185.16781966 79.62285634 188 82 C145.01946918 83.26441933 104.88643904 73.42268996 67 53 C66.35836914 52.66178223 65.71673828 52.32356445 65.05566406 51.97509766 C49.91668768 43.97370556 35.95655017 34.19068121 23 23 C22.19691406 22.30777344 21.39382812 21.61554688 20.56640625 20.90234375 C15.50108938 16.4367604 10.66205445 11.75972959 5.875 7 C5.29379395 6.4234668 4.71258789 5.84693359 4.11376953 5.25292969 C0 1.12305687 0 1.12305687 0 0 Z " fill="#810102" transform="translate(104,464)"/>
<path d="M0 0 C1.20205078 0.53818359 2.40410156 1.07636719 3.64257812 1.63085938 C4.90109209 2.20040943 6.159555 2.7700723 7.41796875 3.33984375 C8.69575194 3.91388271 9.97374472 4.48745536 11.25195312 5.06054688 C14.37188402 6.46157245 17.48959593 7.86732173 20.60546875 9.27734375 C19.65356175 10.875726 18.70014438 12.47320882 17.74609375 14.0703125 C17.21532227 14.96000732 16.68455078 15.84970215 16.13769531 16.76635742 C11.31618475 24.66776534 5.35005046 28.36248318 -3.39453125 31.27734375 C-9.97166251 32.1221129 -15.38007257 31.26229703 -21.1875 28.015625 C-25.89193817 24.31035954 -27.93072197 19.4148771 -28.79296875 13.58203125 C-28.97929835 8.78046089 -28.74804094 4.96620441 -25.39453125 1.27734375 C-16.3922458 -4.37525409 -9.4789407 -4.26776951 0 0 Z " fill="#F98F5E" transform="translate(416.39453125,162.72265625)"/>
<path d="M0 0 C28.96132685 2.96616719 58.67666722 18.38462928 83.125 33.5 C83.80675293 33.92144287 84.48850586 34.34288574 85.19091797 34.77709961 C89.87287134 37.74574269 89.87287134 37.74574269 91 40 C85.01170551 38.10562638 79.25709609 35.92615482 73.5234375 33.3671875 C72.3347834 32.84289658 72.3347834 32.84289658 71.12211609 32.30801392 C68.53807502 31.16741006 65.95651998 30.02129693 63.375 28.875 C59.7155366 27.25624322 56.0550048 25.63990849 52.39453125 24.0234375 C51.46086227 23.61063538 50.5271933 23.19783325 49.56523132 22.77252197 C42.95563392 19.853212 36.3318091 16.96821025 29.69921875 14.1015625 C28.79814392 13.71153046 27.89706909 13.32149841 26.96868896 12.91964722 C21.72594661 10.65024603 21.72594661 10.65024603 16.47943115 8.3895874 C14.07952084 7.35762655 11.68212868 6.32001241 9.28515625 5.28125 C8.57252121 4.9768399 7.85988617 4.67242981 7.12565613 4.35879517 C4.32274173 3.13916219 2.18210824 2.18210824 0 0 Z " fill="#FCCA94" transform="translate(342,43)"/>
<path d="M0 0 C7.24576554 2.27421838 14.12051872 5.11726096 21.0625 8.1875 C22.64708008 8.88262695 22.64708008 8.88262695 24.26367188 9.59179688 C26.84401964 10.7243477 29.42272601 11.86047603 32 13 C32 13.66 32 14.32 32 15 C23.99118725 16.53873023 19.0547579 15.329329 12.0625 11.3125 C7.83248153 8.11840442 3.80394652 4.69405473 0 1 C0 0.67 0 0.34 0 0 Z " fill="#F99364" transform="translate(249,91)"/>
<path d="M0 0 C4.95 1.98 4.95 1.98 10 4 C10 4.99 10 5.98 10 7 C7.69 7.33 5.38 7.66 3 8 C0 3.375 0 3.375 0 0 Z " fill="#FA9060" transform="translate(464,184)"/>
</svg>
