<?xml version="1.0" encoding="UTF-8"?>
<svg version="1.1" xmlns="http://www.w3.org/2000/svg" width="256" height="162">
<path d="M0 0 C1.23641235 -0.0071553 2.47282471 -0.01431061 3.7467041 -0.02168274 C5.11941503 -0.024523 6.49212623 -0.02723473 7.86483765 -0.02983093 C9.30878869 -0.03609672 10.75273812 -0.04274362 12.19668579 -0.04974365 C16.94201537 -0.07077799 21.68734524 -0.08114747 26.43270874 -0.09111023 C28.06789542 -0.09515843 29.70308194 -0.09927537 31.33826828 -0.10346031 C39.02321392 -0.12251294 46.70814997 -0.13674215 54.39311469 -0.14507228 C63.2541869 -0.15483646 72.11500876 -0.18113412 80.9759928 -0.22157317 C87.83049179 -0.25177762 94.68491921 -0.26654537 101.53948343 -0.26985329 C105.63052693 -0.27219943 109.72130302 -0.2811023 113.81227493 -0.30631447 C117.66519428 -0.32967533 121.51767168 -0.33379657 125.37064362 -0.32355309 C126.77948099 -0.3230595 128.1883407 -0.32932733 129.59711075 -0.34310913 C137.69664096 -0.41786753 143.9989731 0.05571984 151.08114624 4.14717102 C152.01184937 4.62799133 152.94255249 5.10881165 153.90145874 5.60420227 C159.42043045 8.85010597 163.88550387 12.30438587 168.08114624 17.14717102 C168.94739624 18.13717102 169.81364624 19.12717102 170.70614624 20.14717102 C178.0718001 30.97758968 180.12591067 46.60011653 181.97567749 59.23701477 C183.01793291 66.10363869 184.50790372 72.82316831 186.08114624 79.58467102 C187.90555587 87.58400555 189.54848395 95.4415132 190.51473999 103.58857727 C191.132878 107.47218921 192.04973867 111.21674654 192.99935913 115.03022766 C199.64557334 141.98929274 199.64557334 141.98929274 194.01864624 151.89717102 C190.78600813 155.9333506 186.72991407 159.82278711 182.08114624 162.14717102 C179.00482323 162.43742794 175.91958381 162.42504728 172.83114624 162.45967102 C171.98423218 162.48867493 171.13731812 162.51767883 170.26473999 162.54756165 C163.49009461 162.61604562 160.16365219 160.78436185 154.99911499 156.36592102 C154.4280603 155.79873352 153.85700562 155.23154602 153.26864624 154.64717102 C152.68470093 154.07998352 152.10075562 153.51279602 151.49911499 152.92842102 C149.95666309 150.9907955 149.4897343 149.56686133 149.08114624 147.14717102 C148.42114624 147.14717102 147.76114624 147.14717102 147.08114624 147.14717102 C145.37592587 145.11813703 143.78022756 143.08674593 142.20614624 140.95967102 C141.33417342 139.7991968 140.46178296 138.63903626 139.58895874 137.47920227 C138.9520813 136.62950867 138.9520813 136.62950867 138.30233765 135.76264954 C134.9639942 131.3464523 131.383345 127.20963909 127.66708374 123.11201477 C126.08114624 121.14717102 126.08114624 121.14717102 125.05770874 118.96357727 C124.15764678 116.79165361 124.15764678 116.79165361 121.08114624 116.14717102 C118.4459072 117.14666233 118.4459072 117.14666233 115.58114624 118.58467102 C107.66206313 122.00037193 101.06814839 122.45510689 92.89364624 119.58467102 C84.30681835 115.65926399 79.68227287 110.47998762 75.89364624 101.89326477 C75.08114624 99.14717102 75.08114624 99.14717102 75.08114624 93.14717102 C70.79114624 93.14717102 66.50114624 93.14717102 62.08114624 93.14717102 C61.85427124 94.61154602 61.62739624 96.07592102 61.39364624 97.58467102 C59.98708216 104.52896641 57.29011093 109.83546378 52.39364624 114.95967102 C44.80571533 119.97056879 37.22769584 122.66125386 28.08114624 121.14717102 C24.84865774 119.97955699 21.79411096 118.65860109 18.71005249 117.14326477 C16.19702524 115.97277385 16.19702524 115.97277385 13.83895874 116.34638977 C11.50709954 117.40868118 10.69486612 119.028733 9.38973999 121.16670227 C7.74009523 123.66332881 5.86822293 125.90778608 3.95614624 128.20967102 C1.35291651 131.34390781 -1.20474632 134.49565336 -3.65713501 137.74873352 C-4.10750122 138.34548889 -4.55786743 138.94224426 -5.0218811 139.55708313 C-5.90121788 140.72840604 -6.77538586 141.90362985 -7.64395142 143.08296204 C-8.68956663 144.47352465 -9.79902082 145.81564943 -10.91885376 147.14717102 C-11.57885376 147.14717102 -12.23885376 147.14717102 -12.91885376 147.14717102 C-12.98072876 147.70404602 -13.04260376 148.26092102 -13.10635376 148.83467102 C-14.94964625 154.08096503 -20.62925959 157.79009732 -24.91885376 161.14717102 C-31.23355335 163.25207088 -40.21411911 163.37840176 -46.53994751 161.27607727 C-52.19703907 157.91269925 -57.50902398 152.32371671 -59.91885376 146.14717102 C-61.77247807 131.88852249 -57.80781625 118.11610981 -54.62783813 104.32978821 C-53.73654601 100.32879504 -53.01281919 96.31721523 -52.35635376 92.27217102 C-51.10536316 84.80345928 -49.41349679 77.4717917 -47.68643188 70.10029602 C-46.51043249 65.00310715 -45.5197833 59.96706129 -44.85635376 54.77217102 C-42.67613949 37.79910103 -37.97298762 20.8940334 -24.67276001 9.16670227 C-21.66485278 6.96090363 -18.69637207 5.48102691 -15.29385376 3.95967102 C-14.16721313 3.45049133 -13.04057251 2.94131165 -11.87979126 2.41670227 C-7.64273152 0.60002098 -4.58483398 0.01819326 0 0 Z " fill="#333333" transform="translate(59.918853759765625,-0.1471710205078125)"/>
<path d="M0 0 C4.5567375 2.30861258 8.17410286 6.07956785 10.953125 10.33203125 C12.529026 15.25309634 13.09321221 20.00212149 10.7890625 24.7109375 C7.4172736 29.95882432 4.04131802 34.30263358 -2.046875 36.33203125 C-7.79243099 37.06530899 -12.62500122 37.20397588 -17.484375 33.76953125 C-21.82074123 29.94070686 -24.59662784 26.50721174 -25.421875 20.6875 C-25.68732311 14.62366985 -25.11704132 9.96717817 -21.046875 5.33203125 C-15.08510103 -0.98043531 -8.37263319 -2.7322906 0 0 Z " fill="#929698" transform="translate(100.046875,73.66796875)"/>
<path d="M0 0 C6.13663661 3.05926722 10.48923777 7.66851265 13 14 C13.94161865 19.00687608 13.44564168 22.83248954 10.875 27.25 C7.74408773 31.7062132 4.26061863 35.24646046 -1 37 C-6.35244939 37.51255795 -10.66302103 37.69236411 -15.5 35.1875 C-16.325 34.465625 -17.15 33.74375 -18 33 C-18.556875 32.566875 -19.11375 32.13375 -19.6875 31.6875 C-23.14222566 27.24570987 -24.54234218 22.66035697 -24.28125 17.046875 C-23.55984059 11.79661766 -22.10886154 7.61037757 -18 4.125 C-11.77987376 -0.28092275 -7.60976771 -1.22738189 0 0 Z " fill="#919597" transform="translate(169,73)"/>
<path d="M0 0 C2.125 1 2.125 1 3.125 3 C3.27411411 5.28832811 3.34639705 7.58199707 3.375 9.875 C3.41367188 11.72738281 3.41367188 11.72738281 3.453125 13.6171875 C3.11050073 17.14948054 2.53430359 18.4765715 0.125 21 C-3.60273314 20.78698668 -4.87599259 19.99909564 -7.6875 17.4375 C-9.98535846 14.37613585 -10.73894925 11.79211098 -10.49609375 7.97265625 C-9.00362493 3.23242508 -4.90950806 0 0 0 Z " fill="#8E9091" transform="translate(85.875,33)"/>
<path d="M0 0 C2.75473413 1.41268417 3.88059452 2.5626837 6 5 C5.65625 8.6796875 5.65625 8.6796875 5 12 C2.39555652 12.05394705 -0.20776998 12.09364469 -2.8125 12.125 C-3.55048828 12.14175781 -4.28847656 12.15851563 -5.04882812 12.17578125 C-8.91246426 12.21074628 -10.70903668 12.19397555 -14 10 C-14.5 7.6875 -14.5 7.6875 -14 5 C-9.30533808 -0.43592432 -7.06112126 -1.64759496 0 0 Z " fill="#919293" transform="translate(70,55)"/>
<path d="M0 0 C3.64099964 1.38704748 5.82546239 3.61087083 7.625 7 C7.9375 10.875 7.9375 10.875 7.625 14 C6.635 14.33 5.645 14.66 4.625 15 C4.356875 15.66 4.08875 16.32 3.8125 17 C2.625 19 2.625 19 -0.375 19.875 C-1.365 19.91625 -2.355 19.9575 -3.375 20 C-5.9261034 17.4488966 -5.66227585 15.72062918 -5.69726562 12.234375 C-5.69404297 11.49703125 -5.69082031 10.7596875 -5.6875 10 C-5.70361328 9.26265625 -5.71972656 8.5253125 -5.73632812 7.765625 C-5.73828125 5.625 -5.73828125 5.625 -5.375 2 C-2.375 0 -2.375 0 0 0 Z " fill="#909292" transform="translate(48.375,34)"/>
<path d="M0 0 C0.78503906 0.00773437 1.57007812 0.01546875 2.37890625 0.0234375 C3.55646484 0.01183594 3.55646484 0.01183594 4.7578125 0 C10.62559838 0.02012963 10.62559838 0.02012963 12.87890625 2.2734375 C12.87890625 6.07226355 11.8713382 7.28154612 9.25390625 10.0859375 C6.75439982 11.96953684 5.61612296 12.32036309 2.37890625 12.8984375 C-2.32448933 12.05854543 -3.86647716 10.7605267 -7.12109375 7.2734375 C-8.12109375 4.5859375 -8.12109375 4.5859375 -8.12109375 2.2734375 C-5.49385551 -0.35380074 -3.57897702 0.01227779 0 0 Z " fill="#909395" transform="translate(63.12109375,20.7265625)"/>
<path d="M0 0 C2 1 2 1 3 3 C3.39309578 6.09562931 3.62338668 8.04336605 3 11 C0.9375 13.5625 0.9375 13.5625 -2 15 C-5.625 15.0625 -5.625 15.0625 -9 14 C-11.40753183 11.28181891 -11.93576192 9.45884341 -12.4375 5.875 C-12 3 -12 3 -10.5 1.125 C-6.74715576 -0.56377991 -4.11331542 -0.39174433 0 0 Z " fill="#E0AB0F" transform="translate(184,52)"/>
<path d="M0 0 C1.94140625 0.3828125 1.94140625 0.3828125 4.44140625 2.0078125 C6.42338939 5.14595248 6.61204683 6.73154715 5.94140625 10.3828125 C3.45538176 13.74625739 2.02715102 15.18338999 -2.12109375 15.9453125 C-5.05859375 15.3828125 -5.05859375 15.3828125 -7.43359375 13.8203125 C-9.66715065 10.46997715 -9.55257584 8.3346692 -9.05859375 4.3828125 C-7.24997024 -0.02570731 -4.5929287 -0.25375297 0 0 Z " fill="#EAB007" transform="translate(204.05859375,43.6171875)"/>
<path d="M0 0 C3.36996335 2.49084248 4.81810427 3.88588865 5.5 8.0625 C4.67833209 12.88979896 4.67833209 12.88979896 2 15 C-1.0999756 15.56573112 -3.89890985 15.55335438 -7 15 C-9.125 13.5 -9.125 13.5 -10 11 C-10.08843915 7.33714529 -9.69669438 4.17338001 -7.8125 1 C-4.98062754 -0.56241239 -3.17986045 -0.50877767 0 0 Z " fill="#E2AA11" transform="translate(182,28)"/>
<path d="M0 0 C3 2 3 2 4 5.8125 C4.31529243 9.34506215 4.07822824 9.88621348 1.9375 13 C-1 15 -1 15 -4.0625 15.625 C-7 15 -7 15 -9.4375 12.9375 C-11.47631034 9.10453656 -11.14831346 7.13392844 -10 3 C-7.66736113 -1.0173225 -4.26712609 -0.3809934 0 0 Z " fill="#F1B202" transform="translate(205,21)"/>
<path d="M0 0 C0.625 1.875 0.625 1.875 1 4 C0.34 4.66 -0.32 5.32 -1 6 C-0.360625 6.70125 0.27875 7.4025 0.9375 8.125 C3.25352181 11.35339403 3.84220717 13.05517922 4 17 C3.0625 20.875 3.0625 20.875 2 24 C1.67 24 1.34 24 1 24 C0.8046875 21.98177083 0.609375 19.96354167 0.4140625 17.9453125 C0.13625251 15.77331755 0.13625251 15.77331755 -2 14 C-6.13997567 13.8028583 -9.07703567 13.69234522 -13 15 C-12.67 12.36 -12.34 9.72 -12 7 C-10.68 7 -9.36 7 -8 7 C-8 6.34 -8 5.68 -8 5 C-8.66 4.67 -9.32 4.34 -10 4 C-7.36 4 -4.72 4 -2 4 C-1.34 2.68 -0.68 1.36 0 0 Z " fill="#3B3824" transform="translate(186,39)"/>
<path d="M0 0 C12.32142857 -0.13392857 12.32142857 -0.13392857 16 1 C16 1.66 16 2.32 16 3 C16.99 3.33 17.98 3.66 19 4 C19.0270043 5.45823212 19.04639787 6.91660675 19.0625 8.375 C19.07410156 9.18710937 19.08570313 9.99921875 19.09765625 10.8359375 C19 13 19 13 18 15 C17.34 14.67 16.68 14.34 16 14 C16.33 13.34 16.66 12.68 17 12 C17.349104 7.90814871 17.349104 7.90814871 16 4.125 C12.62193105 2.22483621 9.83381731 2.63487454 6 3 C3.87491756 6.18762365 3.4979837 8.26512223 3 12 C2.34 12 1.68 12 1 12 C0.67 8.04 0.34 4.08 0 0 Z " fill="#363423" transform="translate(192,42)"/>
<path d="M0 0 C1.8871875 0.061875 1.8871875 0.061875 3.8125 0.125 C3.8125 0.455 3.8125 0.785 3.8125 1.125 C2.141875 1.5271875 2.141875 1.5271875 0.4375 1.9375 C-3.40590951 2.78309019 -3.40590951 2.78309019 -5.1875 6.125 C-4.95537034 11.16501408 -4.95537034 11.16501408 -2.1875 15.125 C0.50089385 15.39491906 3.10391936 15.21237357 5.8125 15.125 C5.8125 15.785 5.8125 16.445 5.8125 17.125 C1.8525 17.455 -2.1075 17.785 -6.1875 18.125 C-6.1875 17.465 -6.1875 16.805 -6.1875 16.125 C-6.8475 15.795 -7.5075 15.465 -8.1875 15.125 C-8.1006724 12.99922093 -7.9925049 10.87430419 -7.875 8.75 C-7.81699219 7.56664062 -7.75898438 6.38328125 -7.69921875 5.1640625 C-7.53035156 4.16117188 -7.36148438 3.15828125 -7.1875 2.125 C-4.09861478 0.06574319 -3.47814073 -0.1140374 0 0 Z " fill="#564112" transform="translate(200.1875,19.875)"/>
<path d="M0 0 C6.625 -0.25 6.625 -0.25 10 2 C10.80129265 5.05492821 11.28577627 6.94977575 11 10 C8.58250724 13.5163531 7.12803728 14.76978831 2.9375 15.625 C-0.89797677 14.80894111 -1.90856056 13.21759913 -4 10 C-3.01 9.67 -2.02 9.34 -1 9 C-1 9.99 -1 10.98 -1 12 C1.64 12.33 4.28 12.66 7 13 C7 12.01 7 11.02 7 10 C7.66 10 8.32 10 9 10 C8.67 7.69 8.34 5.38 8 3 C5.36 2.34 2.72 1.68 0 1 C0 0.67 0 0.34 0 0 Z " fill="#CAA225" transform="translate(198,21)"/>
<path d="M0 0 C0.66 0.99 1.32 1.98 2 3 C1.01 3 0.02 3 -1 3 C-1 2.34 -1 1.68 -1 1 C-3.31 1.66 -5.62 2.32 -8 3 C-8.29877597 8.35508843 -8.29877597 8.35508843 -6 13 C-3.44480079 13.81171228 -3.44480079 13.81171228 -1 14 C-1 14.33 -1 14.66 -1 15 C-4.49644963 15.31785906 -6.397402 15.39644605 -9.375 13.4375 C-11.6085569 10.08716465 -11.49398209 7.9518567 -11 4 C-8.831709 -1.28520932 -5.03700069 -0.55966674 0 0 Z " fill="#CDA023" transform="translate(206,44)"/>
<path d="M0 0 C1.50433594 0.01353516 1.50433594 0.01353516 3.0390625 0.02734375 C3.80992188 0.03894531 4.58078125 0.05054687 5.375 0.0625 C5.375 0.3925 5.375 0.7225 5.375 1.0625 C2.075 1.0625 -1.225 1.0625 -4.625 1.0625 C-4.625 1.7225 -4.625 2.3825 -4.625 3.0625 C-6.3046875 4.38671875 -6.3046875 4.38671875 -8.5 5.75 C-9.21929687 6.20761719 -9.93859375 6.66523437 -10.6796875 7.13671875 C-11.64261719 7.59498047 -11.64261719 7.59498047 -12.625 8.0625 C-13.285 7.7325 -13.945 7.4025 -14.625 7.0625 C-13.50220538 6.08080524 -12.37668527 5.10222702 -11.25 4.125 C-10.31027344 3.30708984 -10.31027344 3.30708984 -9.3515625 2.47265625 C-6.17549252 -0.12137376 -4.03279192 -0.04689293 0 0 Z " fill="#7D7F81" transform="translate(92.625,72.9375)"/>
<path d="M0 0 C0.33 1.32 0.66 2.64 1 4 C-2.67996503 6.45331002 -4.65413172 6.39507893 -9 6 C-9.66 5.01 -10.32 4.02 -11 3 C-9.9275 3.061875 -8.855 3.12375 -7.75 3.1875 C-3.89133813 2.99456691 -2.71182212 2.60334924 0 0 Z " fill="#4A411D" transform="translate(186,63)"/>
<path d="M0 0 C0.66 0.495 1.32 0.99 2 1.5 C5.96633241 3.48316621 8.60303262 3.22357461 13 3 C13 3.66 13 4.32 13 5 C7.06 5.495 7.06 5.495 1 6 C1 5.34 1 4.68 1 4 C0.34 3.67 -0.32 3.34 -1 3 C-0.67 2.01 -0.34 1.02 0 0 Z " fill="#473B1D" transform="translate(193,32)"/>
<path d="M0 0 C2.64 0 5.28 0 8 0 C8 0.66 8 1.32 8 2 C8.99 2.33 9.98 2.66 11 3 C11.0270043 4.45823212 11.04639787 5.91660675 11.0625 7.375 C11.07410156 8.18710937 11.08570313 8.99921875 11.09765625 9.8359375 C11 12 11 12 10 14 C9.34 13.67 8.68 13.34 8 13 C8.33 12.34 8.66 11.68 9 11 C9.38938338 6.89294529 9.38938338 6.89294529 7.875 3.1875 C5.33323785 1.57771731 2.9601892 1.32890991 0 1 C0 0.67 0 0.34 0 0 Z " fill="#4F4411" transform="translate(200,43)"/>
<path d="M0 0 C0.99 0.33 1.98 0.66 3 1 C3.6875 4.3125 3.6875 4.3125 4 8 C2.5625 9.9375 2.5625 9.9375 1 11 C0.01 10.67 -0.98 10.34 -2 10 C-1.34 9.01 -0.68 8.02 0 7 C0.07905064 4.66800612 0.08798769 2.33167378 0 0 Z " fill="#4D421F" transform="translate(208,24)"/>
<path d="M0 0 C0.66 0.33 1.32 0.66 2 1 C1.46930939 4.82097239 0.50298434 7.06171403 -2 10 C-3 9 -3 9 -3.25 6.6875 C-2.95899829 3.55923162 -2.05619793 2.31322267 0 0 Z " fill="#868889" transform="translate(59,56)"/>
<path d="M0 0 C0.33 1.32 0.66 2.64 1 4 C-2.45245824 6.30163882 -3.94738713 6.34490322 -8 6 C-8.66 5.34 -9.32 4.68 -10 4 C-7.36 4 -4.72 4 -2 4 C-1.34 2.68 -0.68 1.36 0 0 Z " fill="#5B4B15" transform="translate(186,39)"/>
<path d="M0 0 C1.093125 0.0825 2.18625 0.165 3.3125 0.25 C2.755625 0.45625 2.19875 0.6625 1.625 0.875 C-1.61251302 2.80000774 -3.36981141 5.28850902 -5.6875 8.25 C-6.375 6.5 -6.375 6.5 -6.6875 4.25 C-5.02756724 0.51515129 -4.13582103 0.28039465 0 0 Z " fill="#E6B219" transform="translate(200.6875,21.75)"/>
<path d="M0 0 C1.57043101 0.01330874 3.14079971 0.03717648 4.7109375 0.0703125 C5.51273438 0.07933594 6.31453125 0.08835937 7.140625 0.09765625 C9.12252273 0.12125027 11.10426731 0.15712185 13.0859375 0.1953125 C13.0859375 0.5253125 13.0859375 0.8553125 13.0859375 1.1953125 C7.8059375 1.1953125 2.5259375 1.1953125 -2.9140625 1.1953125 C-3.5740625 2.5153125 -4.2340625 3.8353125 -4.9140625 5.1953125 C-5.2440625 4.2053125 -5.5740625 3.2153125 -5.9140625 2.1953125 C-3.9140625 0.1953125 -3.9140625 0.1953125 0 0 Z " fill="#828385" transform="translate(60.9140625,20.8046875)"/>
<path d="M0 0 C0.33 0.66 0.66 1.32 1 2 C1.66 2 2.32 2 3 2 C2.67 4.64 2.34 7.28 2 10 C1.34 10 0.68 10 0 10 C0 6.7 0 3.4 0 0 Z " fill="#493E18" transform="translate(193,44)"/>
</svg>
