<?xml version="1.0" encoding="UTF-8"?>
<svg version="1.1" xmlns="http://www.w3.org/2000/svg" width="92" height="92">
<path d="M0 0 C30.36 0 60.72 0 92 0 C92 30.36 92 60.72 92 92 C61.64 92 31.28 92 0 92 C0 61.64 0 31.28 0 0 Z " fill="#1B1B1B" transform="translate(0,0)"/>
<path d="M0 0 C11.22 0 22.44 0 34 0 C34.495 0.99 34.495 0.99 35 2 C34.34 2 33.68 2 33 2 C33.81102285 5.83392621 34.48581354 8.42532101 37.125 11.375 C40.01547181 13.29865733 40.01547181 13.29865733 43.89453125 13.1484375 C46.40554336 13.42456846 47.60340544 13.60710042 49.41503906 15.40185547 C50.62868201 17.30055303 51.61066266 19.20787624 52.5625 21.25 C52.91634766 21.91902344 53.27019531 22.58804687 53.63476562 23.27734375 C55.11785746 26.24352742 56.02312009 28.50495809 55.8671875 31.84375 C54.40269635 35.48518745 51.4207217 37.28963915 48 39 C48.31323028 40.67056149 48.65334443 42.33605325 49 44 C49.09925781 44.66257813 49.19851562 45.32515625 49.30078125 46.0078125 C49.69327022 48.15659047 50.10572761 50.00408771 51 52 C53.96825898 54.07032881 53.96825898 54.07032881 57 55 C56.42770134 59.00609065 55.06310411 61.56149315 53 65 C52.29329272 67.69254991 52.29329272 67.69254991 52 70 C52.66 70 53.32 70 54 70 C54.25 76.625 54.25 76.625 52 80 C52.66 80 53.32 80 54 80 C53.67 82.31 53.34 84.62 53 87 C52.34 87 51.68 87 51 87 C51 86.34 51 85.68 51 85 C50.01 85 49.02 85 48 85 C48.08701172 83.91332031 48.08701172 83.91332031 48.17578125 82.8046875 C48.60784547 76.11179863 48.60784547 76.11179863 45.625 70.375 C43.2513506 68.0138177 43.2513506 68.0138177 41 67 C41 68.98 41 70.96 41 73 C40.01 72.67 39.02 72.34 38 72 C38 71.34 38 70.68 38 70 C34.7 69.01 31.4 68.02 28 67 C28 67.66 28 68.32 28 69 C26.23042094 71.3283935 25.18416484 71.95288806 22.3125 72.6875 C21.549375 72.790625 20.78625 72.89375 20 73 C19.82057837 69.05272412 19.90649311 66.4019487 22 63 C16.99188447 66.29104735 14.06578368 70.43627168 12 76 C11.75615272 78.61545874 11.80579759 81.07138528 11.95703125 83.69140625 C12.01392247 86.74801609 11.17741238 89.2036456 10 92 C6.7 92 3.4 92 0 92 C0 61.64 0 31.28 0 0 Z " fill="#C7C6C6" transform="translate(0,0)"/>
<path d="M0 0 C3.63 0 7.26 0 11 0 C11 30.36 11 60.72 11 92 C6.38 92 1.76 92 -3 92 C-3.07329796 87.60212211 -3.07396066 84.29584263 -2 80 C-6.95 80 -11.9 80 -17 80 C-17 79.01 -17 78.02 -17 77 C-17.66 77 -18.32 77 -19 77 C-18.97679687 76.02417969 -18.95359375 75.04835938 -18.9296875 74.04296875 C-18.91164062 72.77066406 -18.89359375 71.49835938 -18.875 70.1875 C-18.85179687 68.92292969 -18.82859375 67.65835938 -18.8046875 66.35546875 C-18.72418082 62.8661976 -18.72418082 62.8661976 -21 60 C-21.4375 57.0625 -21.4375 57.0625 -21 54 C-20.175 53.4225 -19.35 52.845 -18.5 52.25 C-15.84114414 50.2984014 -15.84114414 50.2984014 -15.52734375 47.8125 C-15.3349061 42.32384343 -16.24818468 38.50365947 -19.22265625 33.88671875 C-20.81790154 30.01484199 -18.81515963 26.37914816 -17.3984375 22.6796875 C-16.72986794 21.07564906 -16.05521062 19.47413667 -15.375 17.875 C-14.89740234 16.65876953 -14.89740234 16.65876953 -14.41015625 15.41796875 C-12.68575249 11.38992136 -11.50492762 8.78535748 -7.34375 7.0390625 C-6.2403125 6.69617188 -5.136875 6.35328125 -4 6 C-1.4757517 3.98060136 -1.05166468 3.15499404 0 0 Z " fill="#CACACA" transform="translate(81,0)"/>
<path d="M0 0 C3.96 0 7.92 0 12 0 C12.12117187 1.24394531 12.24234375 2.48789062 12.3671875 3.76953125 C12.5353316 5.45063391 12.70468463 7.13161593 12.875 8.8125 C12.96378418 9.68890137 13.05256836 10.56530273 13.14404297 11.46826172 C13.61236374 15.91360524 14.17298849 20.25254713 15.125 24.625 C17.89088381 39.09820234 15.24539242 53.03016402 12.125 67.1875 C11.75502067 68.93783681 11.38652445 70.68848778 11.01953125 72.43945312 C8.14755086 85.9673995 8.14755086 85.9673995 6 92 C4.02 92 2.04 92 0 92 C0 61.64 0 31.28 0 0 Z " fill="#FBFBFB" transform="translate(0,0)"/>
<path d="M0 0 C1.37216028 2.38701843 2.72243979 4.78255054 4.0625 7.1875 C4.64741211 8.19780273 4.64741211 8.19780273 5.24414062 9.22851562 C8.02585758 14.27499328 8.02585758 14.27499328 7.8984375 17.84765625 C6.38628795 21.4702406 3.42638416 23.28680792 0 25 C0.31323028 26.67056149 0.65334443 28.33605325 1 30 C1.14888672 30.99386719 1.14888672 30.99386719 1.30078125 32.0078125 C1.69327022 34.15659047 2.10572761 36.00408771 3 38 C5.96825898 40.07032881 5.96825898 40.07032881 9 41 C8.42770134 45.00609065 7.06310411 47.56149315 5 51 C4.29329272 53.69254991 4.29329272 53.69254991 4 56 C4.66 56 5.32 56 6 56 C6.25 62.625 6.25 62.625 4 66 C4.66 66 5.32 66 6 66 C5.67 68.31 5.34 70.62 5 73 C4.34 73 3.68 73 3 73 C3 72.34 3 71.68 3 71 C2.01 71 1.02 71 0 71 C0.05800781 70.27554688 0.11601563 69.55109375 0.17578125 68.8046875 C0.60784547 62.11179863 0.60784547 62.11179863 -2.375 56.375 C-4.7486494 54.0138177 -4.7486494 54.0138177 -7 53 C-7 54.98 -7 56.96 -7 59 C-7.99 58.67 -8.98 58.34 -10 58 C-10 57.34 -10 56.68 -10 56 C-11.98 55.34 -13.96 54.68 -16 54 C-16 50 -16 50 -15.375 46.9375 C-14.65012778 43.81457626 -14.65012778 43.81457626 -17 41 C-17.56866568 35.01005479 -16.09441331 30.01090649 -14.3125 24.375 C-14.04066895 23.49996826 -13.76883789 22.62493652 -13.48876953 21.72338867 C-12.67644335 19.14296083 -11.84384246 16.57027785 -11 14 C-10.76555176 13.28183105 -10.53110352 12.56366211 -10.28955078 11.82373047 C-7.65231175 3.90421667 -7.65231175 3.90421667 -6 1 C-3.83170816 0.10840509 -2.32731844 0 0 0 Z " fill="#FAFAFA" transform="translate(48,14)"/>
<path d="M0 0 C0.33 0 0.66 0 1 0 C1 27.72 1 55.44 1 84 C-3.62 84 -8.24 84 -13 84 C-13.06790973 80.06123582 -13.10630814 76.56343312 -12.375 72.6875 C-11.66608797 69.78114056 -11.66608797 69.78114056 -14 67 C-14.12547688 60.52748453 -12.75329953 54.19499166 -11 48 C-10.34 48.33 -9.68 48.66 -9 49 C-7.80011955 43.71800407 -7.80011955 43.71800407 -10 39 C-11.00872534 32.39352378 -9.26060844 26.29934263 -7.25 20.0625 C-6.97849121 19.18948242 -6.70698242 18.31646484 -6.42724609 17.41699219 C-4.55984886 11.50007062 -2.53586769 5.66841014 0 0 Z " fill="#FDFDFD" transform="translate(91,8)"/>
<path d="M0 0 C0.66 0 1.32 0 2 0 C1.67 2.97 1.34 5.94 1 9 C2.32 9 3.64 9 5 9 C5.33 8.01 5.66 7.02 6 6 C6.66 6 7.32 6 8 6 C8 5.34 8 4.68 8 4 C11.71888239 4.50712033 14.73454239 5.11608215 18 7 C18 7.66 18 8.32 18 9 C18.66 9 19.32 9 20 9 C20 7.02 20 5.04 20 3 C24.00503836 5.11377025 26.53721882 7.17844299 29 11 C29.171875 14.33203125 29.171875 14.33203125 28.75 17.8125 C28.62109375 18.97394531 28.4921875 20.13539062 28.359375 21.33203125 C28.24078125 22.21246094 28.1221875 23.09289062 28 24 C26.97519531 24.10957031 25.95039062 24.21914062 24.89453125 24.33203125 C23.53378133 24.49156745 22.17310806 24.6517584 20.8125 24.8125 C20.13896484 24.88275391 19.46542969 24.95300781 18.77148438 25.02539062 C15.60371895 25.41170348 13.29198075 25.81040211 10.59375 27.5625 C6.70236953 29.71916869 3.05344701 29.32188984 -1.3125 29.1875 C-2.56643555 29.16719727 -2.56643555 29.16719727 -3.84570312 29.14648438 C-5.89741498 29.11131217 -7.94879275 29.05751048 -10 29 C-9.77259317 26.00984217 -9.531141 23.02221121 -9.265625 20.03515625 C-9.08430988 17.96336431 -8.93462482 15.88862199 -8.8125 13.8125 C-7.29434255 8.55733961 -3.84921535 3.84921535 0 0 Z " fill="#0A0A0A" transform="translate(20,63)"/>
<path d="M0 0 C15.51 0 31.02 0 47 0 C45.93718532 4.25125871 45.35419782 5.37103414 42 8 C38.75 8.75 38.75 8.75 36 9 C36 9.66 36 10.32 36 11 C35.56042969 11.40863281 35.12085938 11.81726562 34.66796875 12.23828125 C32.40873422 14.62449852 31.52300322 17.14488379 30.3125 20.1875 C29.87550781 21.27417969 29.43851563 22.36085938 28.98828125 23.48046875 C28.66214844 24.31191406 28.33601563 25.14335937 28 26 C27.01 25.67 26.02 25.34 25 25 C24.97308315 22.54159395 24.95320198 20.08348118 24.9375 17.625 C24.92912109 16.92632813 24.92074219 16.22765625 24.91210938 15.5078125 C24.88671875 10.2265625 24.88671875 10.2265625 26 8 C25.34 8 24.68 8 24 8 C24 13.61 24 19.22 24 25 C23.67 25 23.34 25 23 25 C22.34 22.03 21.68 19.06 21 16 C20.67 17.32 20.34 18.64 20 20 C18.515 15.05 18.515 15.05 17 10 C17.66 13.63 18.32 17.26 19 21 C16 17 16 17 15 15 C13.07045668 14.72210436 13.07045668 14.72210436 10.8125 14.6875 C5.62416429 14.1992834 3.43094967 12.94559212 0 9 C-1.51685393 3.03370787 -1.51685393 3.03370787 0 0 Z " fill="#677F82" transform="translate(34,0)"/>
<path d="M0 0 C1.32 0 2.64 0 4 0 C4.495 3.96 4.495 3.96 5 8 C5.33 7.67 5.66 7.34 6 7 C6.66 7 7.32 7 8 7 C8 7.99 8 8.98 8 10 C12.95 10 17.9 10 23 10 C22.67 13.96 22.34 17.92 22 22 C5.5 22 -11 22 -28 22 C-27.34 20.68 -26.68 19.36 -26 18 C-26 18.66 -26 19.32 -26 20 C-25.34 20 -24.68 20 -24 20 C-23.67 19.34 -23.34 18.68 -23 18 C-20.45058627 17.68758629 -17.99638487 17.48696579 -15.4375 17.375 C-14.72658203 17.33632812 -14.01566406 17.29765625 -13.28320312 17.2578125 C-11.52257575 17.16328217 -9.76132272 17.08054183 -8 17 C-8 16.34 -8 15.68 -8 15 C-7.01 15 -6.02 15 -5 15 C-5 15.66 -5 16.32 -5 17 C-4.34 17 -3.68 17 -3 17 C-2.67 14.69 -2.34 12.38 -2 10 C-2.66 9.67 -3.32 9.34 -4 9 C-3.01 8.34 -2.02 7.68 -1 7 C-0.26393501 3.43230448 -0.26393501 3.43230448 0 0 Z " fill="#A09F9F" transform="translate(56,70)"/>
<path d="M0 0 C7.59 0 15.18 0 23 0 C21.93718532 4.25125871 21.35419782 5.37103414 18 8 C14.75 8.75 14.75 8.75 12 9 C12 9.66 12 10.32 12 11 C11.34064453 11.61294922 11.34064453 11.61294922 10.66796875 12.23828125 C8.40873422 14.62449852 7.52300322 17.14488379 6.3125 20.1875 C5.87550781 21.27417969 5.43851563 22.36085938 4.98828125 23.48046875 C4.66214844 24.31191406 4.33601563 25.14335937 4 26 C3.01 25.67 2.02 25.34 1 25 C0.97308315 22.54159395 0.95320198 20.08348118 0.9375 17.625 C0.92912109 16.92632813 0.92074219 16.22765625 0.91210938 15.5078125 C0.88671875 10.2265625 0.88671875 10.2265625 2 8 C1.34 8 0.68 8 0 8 C0 5.36 0 2.72 0 0 Z " fill="#4C805F" transform="translate(58,0)"/>
<path d="M0 0 C0.66 0 1.32 0 2 0 C1.97679687 0.98742188 1.95359375 1.97484375 1.9296875 2.9921875 C1.91164063 4.27351562 1.89359375 5.55484375 1.875 6.875 C1.85179687 8.15117187 1.82859375 9.42734375 1.8046875 10.7421875 C1.64358476 14.08593338 1.64358476 14.08593338 4 16 C4.50660156 14.71802734 4.50660156 14.71802734 5.0234375 13.41015625 C5.46945313 12.30542969 5.91546875 11.20070313 6.375 10.0625 C6.81585938 8.96035156 7.25671875 7.85820312 7.7109375 6.72265625 C9 4 9 4 11 3 C9.51952304 7.7442557 7.91758996 12.27181935 5.75 16.75 C4.54989029 19.40311609 3.99404675 20.74401012 4.0625 23.6875 C4.9856274 26.12062493 4.9856274 26.12062493 6.5625 28.6875 C8.49961732 33.15129208 8.92001683 37.20276939 8 42 C5.5 44.625 5.5 44.625 3 46 C3.309375 45.443125 3.61875 44.88625 3.9375 44.3125 C5.05761821 41.87459567 5.56037364 39.63775814 6 37 C5.34 36.67 4.68 36.34 4 36 C4 35.34 4 34.68 4 34 C3.34 33.67 2.68 33.34 2 33 C2.99 33 3.98 33 5 33 C3.27773504 29.75150023 3.27773504 29.75150023 0 29 C0 29.66 0 30.32 0 31 C-1.65 30.67 -3.3 30.34 -5 30 C-2.08235 28.0549 -0.37462715 27.54723683 3 27 C2.236875 27 1.47375 27 0.6875 27 C-1.20833333 27 -3.10416667 27 -5 27 C-4.34 26.01 -3.68 25.02 -3 24 C-3.40091101 18.79687232 -6.23524139 14.8275498 -8.8203125 10.42578125 C-9.20960937 9.62527344 -9.59890625 8.82476562 -10 8 C-9.67 7.34 -9.34 6.68 -9 6 C-8.01 7.32 -7.02 8.64 -6 10 C-6.66 7.03 -7.32 4.06 -8 1 C-6 2 -6 2 -4.875 5.0625 C-4.58625 6.031875 -4.2975 7.00125 -4 8 C-4 6.35 -4 4.7 -4 3 C-2 6 -2 6 -1 11 C-0.67 7.37 -0.34 3.74 0 0 Z " fill="#1A1A1A" transform="translate(58,8)"/>
<path d="M0 0 C1.65 0 3.3 0 5 0 C5.3570782 10.25607949 4.55027524 19.69261882 0 29 C-0.66 29 -1.32 29 -2 29 C-2.70194375 26.94237091 -3.38601697 24.87863969 -4.0625 22.8125 C-4.44535156 21.66394531 -4.82820313 20.51539062 -5.22265625 19.33203125 C-6.51782435 13.78038105 -4.80487837 10.22576678 -2.4375 5.1875 C-1.98246094 4.21167969 -1.52742188 3.23585938 -1.05859375 2.23046875 C-0.70925781 1.49441406 -0.35992187 0.75835937 0 0 Z " fill="#F3F3F3" transform="translate(70,9)"/>
<path d="M0 0 C4.62 0 9.24 0 14 0 C13.74320437 2.5437873 13.47007458 5.08405374 13.1875 7.625 C13.11724609 8.33785156 13.04699219 9.05070313 12.97460938 9.78515625 C12.44318938 14.41913863 11.36531606 17.89147841 9 22 C8.34 22 7.68 22 7 22 C5.82538445 18.89878289 4.66169544 15.79357759 3.5 12.6875 C3.16613281 11.80642578 2.83226562 10.92535156 2.48828125 10.01757812 C2.17246094 9.17001953 1.85664063 8.32246094 1.53125 7.44921875 C1.23798828 6.66893311 0.94472656 5.88864746 0.64257812 5.0847168 C0 3 0 3 0 0 Z " fill="#FAFAFA" transform="translate(16,0)"/>
<path d="M0 0 C0.33 0 0.66 0 1 0 C1.28875 0.928125 1.5775 1.85625 1.875 2.8125 C2.8875 6.09791667 2.8875 6.09791667 5 9 C5.22705078 10.90112305 5.22705078 10.90112305 5.1953125 13.01171875 C5.18564453 14.14770508 5.18564453 14.14770508 5.17578125 15.30664062 C5.15902344 16.09232422 5.14226563 16.87800781 5.125 17.6875 C5.11597656 18.48478516 5.10695313 19.28207031 5.09765625 20.10351562 C5.07411585 22.069139 5.03824547 24.03460775 5 26 C4.01 25.34 3.02 24.68 2 24 C1.59156077 21.28796348 1.86663133 18.7562858 2 16 C0.68 16 -0.64 16 -2 16 C-2 18.31 -2 20.62 -2 23 C-3.98 23.99 -3.98 23.99 -6 25 C-5.34 22.03 -4.68 19.06 -4 16 C-4.66 16 -5.32 16 -6 16 C-5.25531915 8.25531915 -5.25531915 8.25531915 -2 5 C-1.34 5 -0.68 5 0 5 C0 3.35 0 1.7 0 0 Z " fill="#212020" transform="translate(58,54)"/>
<path d="M0 0 C4.95 0 9.9 0 15 0 C15 8.25 15 16.5 15 25 C14.67 25 14.34 25 14 25 C13.34 20.38 12.68 15.76 12 11 C11.34 11 10.68 11 10 11 C10 10.01 10 9.02 10 8 C9.278125 7.938125 8.55625 7.87625 7.8125 7.8125 C4.11600926 6.7446249 2.46861132 4.89180184 0 2 C0 1.34 0 0.68 0 0 Z " fill="#7F506F" transform="translate(43,0)"/>
<path d="M0 0 C1.32 0.66 2.64 1.32 4 2 C3.34 3.11375 2.68 4.2275 2 5.375 C-0.15767339 9.62999227 -0.22518158 12.96107793 -0.0078125 17.65625 C0.00239105 20.71731506 -0.81976323 23.19693766 -2 26 C-3.32 26 -4.64 26 -6 26 C-5.05628655 20.15700824 -4.09393958 14.31698031 -3 8.5 C-2.855625 7.7265625 -2.71125 6.953125 -2.5625 6.15625 C-1.97468229 3.90294876 -1.11249519 2.03957452 0 0 Z " fill="#A9A8A8" transform="translate(12,66)"/>
<path d="M0 0 C-0.875 7.625 -0.875 7.625 -2 11 C-3.98 11 -5.96 11 -8 11 C-8 7.37 -8 3.74 -8 0 C-4.71023192 -1.09658936 -3.28696233 -0.79953138 0 0 Z " fill="#F0F0F0" transform="translate(8,81)"/>
<path d="M0 0 C0.33 1.32 0.66 2.64 1 4 C-7.25 4 -15.5 4 -24 4 C-16.41407644 0.20703822 -8.37560458 -0.27460999 0 0 Z " fill="#070707" transform="translate(54,88)"/>
<path d="M0 0 C0.99 0.33 1.98 0.66 3 1 C3 2.98 3 4.96 3 7 C3.2475 6.030625 3.495 5.06125 3.75 4.0625 C4.1625 3.051875 4.575 2.04125 5 1 C7.078125 0.30859375 7.078125 0.30859375 9 0 C7.25192871 5.46737191 5.34205919 10.75824848 3 16 C2.01 15.67 1.02 15.34 0 15 C0 10.05 0 5.1 0 0 Z " fill="#E5E6E6" transform="translate(59,10)"/>
<path d="M0 0 C0.33 0.66 0.66 1.32 1 2 C-1.64 2.66 -4.28 3.32 -7 4 C-4.525 4.99 -4.525 4.99 -2 6 C-4.94017338 7.52453435 -7.85472185 8.95157395 -11 10 C-11.99 9.67 -12.98 9.34 -14 9 C-14 6.75 -14 6.75 -13 4 C-9.05788266 1.11709643 -4.93545967 -0.61693246 0 0 Z " fill="#6A6A6A" transform="translate(61,34)"/>
<path d="M0 0 C-0.33 2.31 -0.66 4.62 -1 7 C-3.8125 7.6875 -3.8125 7.6875 -7 8 C-8.9375 6.8125 -8.9375 6.8125 -10 5 C-9.8125 2.875 -9.8125 2.875 -9 1 C-6.04335481 -0.4783226 -3.25770263 -0.06032783 0 0 Z " fill="#9F9E9E" transform="translate(62,43)"/>
<path d="M0 0 C2.625 0.375 2.625 0.375 5 1 C5 3.31 5 5.62 5 8 C2.03 8 -0.94 8 -4 8 C-2.25 2.25 -2.25 2.25 0 0 Z " fill="#B5B4B4" transform="translate(87,84)"/>
<path d="M0 0 C0.66 0 1.32 0 2 0 C1.97679687 0.98742188 1.95359375 1.97484375 1.9296875 2.9921875 C1.91164062 4.27351562 1.89359375 5.55484375 1.875 6.875 C1.85179687 8.15117187 1.82859375 9.42734375 1.8046875 10.7421875 C1.64358476 14.08593338 1.64358476 14.08593338 4 16 C4.50660156 14.71802734 4.50660156 14.71802734 5.0234375 13.41015625 C5.46945313 12.30542969 5.91546875 11.20070313 6.375 10.0625 C6.81585938 8.96035156 7.25671875 7.85820312 7.7109375 6.72265625 C9 4 9 4 11 3 C10.03661934 6.01312673 9.02448952 9.00716257 8 12 C7.7834375 12.69996094 7.566875 13.39992188 7.34375 14.12109375 C6.6875 16 6.6875 16 5 19 C3.02 19.33 1.04 19.66 -1 20 C-0.67 13.4 -0.34 6.8 0 0 Z " fill="#3C3D3D" transform="translate(58,8)"/>
<path d="M0 0 C2 1 2 1 3.125 4.0625 C3.41375 5.031875 3.7025 6.00125 4 7 C4 5.35 4 3.7 4 2 C6.02350324 5.03525486 6.32124018 6.19426202 6.625 9.6875 C6.69976562 10.49574219 6.77453125 11.30398437 6.8515625 12.13671875 C6.92503906 13.05904297 6.92503906 13.05904297 7 14 C5.02 14.99 5.02 14.99 3 16 C2.1361871 14.54735962 1.28419546 13.0876837 0.4375 11.625 C-0.03816406 10.81289063 -0.51382813 10.00078125 -1.00390625 9.1640625 C-1.33261719 8.44992188 -1.66132812 7.73578125 -2 7 C-1.67 6.34 -1.34 5.68 -1 5 C-0.01 6.32 0.98 7.64 2 9 C1.34 6.03 0.68 3.06 0 0 Z " fill="#434343" transform="translate(50,9)"/>
<path d="M0 0 C2.31 0 4.62 0 7 0 C6.45564371 3.81049403 5.01129759 5.63979378 2 8 C-1.25 8.75 -1.25 8.75 -4 9 C-2.68 6.03 -1.36 3.06 0 0 Z " fill="#A57B4A" transform="translate(74,0)"/>
<path d="M0 0 C3 1 3 1 4 3 C4.039992 4.99960012 4.04346799 7.00047242 4 9 C3.34 9 2.68 9 2 9 C2 8.34 2 7.68 2 7 C1.34 7 0.68 7 0 7 C0 7.66 0 8.32 0 9 C-0.99 9 -1.98 9 -3 9 C-2.5020163 5.26512223 -2.12508244 3.18762365 0 0 Z " fill="#E0E0E0" transform="translate(57,60)"/>
<path d="M0 0 C0.99 0 1.98 0 3 0 C2.50666649 4.34133489 1.63910173 6.59116027 -1 10 C-1.71433121 12.64934822 -1.71433121 12.64934822 -2 15 C-2.99 15 -3.98 15 -5 15 C-5 13.68 -5 12.36 -5 11 C-5.66 10.67 -6.32 10.34 -7 10 C-7.33 9.34 -7.66 8.68 -8 8 C-6.35 8 -4.7 8 -3 8 C-3 7.34 -3 6.68 -3 6 C-2.34 6 -1.68 6 -1 6 C-0.67 4.02 -0.34 2.04 0 0 Z " fill="#494949" transform="translate(62,44)"/>
<path d="M0 0 C0.99 0 1.98 0 3 0 C3 6.6 3 13.2 3 20 C2.67 20 2.34 20 2 20 C1.47008907 16.8556249 0.95259982 13.70933252 0.4375 10.5625 C0.28603516 9.66466797 0.13457031 8.76683594 -0.02148438 7.84179688 C-0.16005859 6.98779297 -0.29863281 6.13378906 -0.44140625 5.25390625 C-0.57232666 4.46314697 -0.70324707 3.6723877 -0.83813477 2.85766602 C-0.89155029 2.24463623 -0.94496582 1.63160645 -1 1 C-0.67 0.67 -0.34 0.34 0 0 Z " fill="#E9E9E9" transform="translate(55,5)"/>
<path d="M0 0 C1.32 0 2.64 0 4 0 C4.33 3.3 4.66 6.6 5 10 C3.35 10 1.7 10 0 10 C0 6.7 0 3.4 0 0 Z " fill="#ABAAAA" transform="translate(56,70)"/>
<path d="M0 0 C2.5625 1.5625 2.5625 1.5625 5 4 C4.8125 7.75 4.8125 7.75 4 11 C3.34 11 2.68 11 2 11 C2 10.34 2 9.68 2 9 C1.01 9 0.02 9 -1 9 C-0.67 6.03 -0.34 3.06 0 0 Z " fill="#E6E6E6" transform="translate(49,76)"/>
<path d="M0 0 C1.9375 0.375 1.9375 0.375 4 1 C5.84954072 4.69908144 5.61055931 8.9729067 5 13 C2.5 15.625 2.5 15.625 0 17 C0.309375 16.443125 0.61875 15.88625 0.9375 15.3125 C2.05761821 12.87459567 2.56037364 10.63775814 3 8 C2.34 7.67 1.68 7.34 1 7 C1 6.34 1 5.68 1 5 C0.34 4.67 -0.32 4.34 -1 4 C-0.01 4 0.98 4 2 4 C1.34 2.68 0.68 1.36 0 0 Z " fill="#0C0C0C" transform="translate(61,37)"/>
<path d="M0 0 C1.32 0.66 2.64 1.32 4 2 C3.58427734 2.77923828 3.58427734 2.77923828 3.16015625 3.57421875 C1.19266733 7.36216005 -0.46337389 10.70699113 -1 15 C-3 13 -3 13 -3.046875 10.9765625 C-2.94890625 10.20054688 -2.8509375 9.42453125 -2.75 8.625 C-2.66234375 7.85414062 -2.5746875 7.08328125 -2.484375 6.2890625 C-1.98335114 3.9213207 -1.17347456 2.10648302 0 0 Z " fill="#B2B1B1" transform="translate(12,66)"/>
<path d="M0 0 C1.32 0 2.64 0 4 0 C4 0.99 4 1.98 4 3 C4.99 3 5.98 3 7 3 C7 2.34 7 1.68 7 1 C7.66 1 8.32 1 9 1 C8.34 2.65 7.68 4.3 7 6 C5.00045254 6.04254356 2.99958364 6.04080783 1 6 C0 5 0 5 -0.0625 2.4375 C-0.041875 1.633125 -0.02125 0.82875 0 0 Z " fill="#CFCFCF" transform="translate(26,80)"/>
<path d="M0 0 C1.32 0.33 2.64 0.66 4 1 C4 2.66666667 4 4.33333333 4 6 C0.7 6.66 -2.6 7.32 -6 8 C-4.85077718 4.55233155 -3.85016633 4.04855705 -1 2 C-0.67 1.34 -0.34 0.68 0 0 Z " fill="#454545" transform="translate(58,37)"/>
<path d="M0 0 C0.99 0.33 1.98 0.66 3 1 C3.08082094 2.95766281 3.13910778 4.91626728 3.1875 6.875 C3.23970703 8.51082031 3.23970703 8.51082031 3.29296875 10.1796875 C3.19628906 11.11039063 3.09960938 12.04109375 3 13 C2.01 13.66 1.02 14.32 0 15 C0 10.05 0 5.1 0 0 Z " fill="#A7A8A7" transform="translate(59,10)"/>
<path d="M0 0 C0 1.65 0 3.3 0 5 C-0.99 5.495 -0.99 5.495 -2 6 C-2 4.35 -2 2.7 -2 1 C-2.66 1 -3.32 1 -4 1 C-3.67 2.32 -3.34 3.64 -3 5 C-4.32 5 -5.64 5 -7 5 C-7 4.01 -7 3.02 -7 2 C-7.66 1.67 -8.32 1.34 -9 1 C-6.04335481 -0.4783226 -3.25770263 -0.06032783 0 0 Z " fill="#F4F4F4" transform="translate(62,43)"/>
<path d="M0 0 C3.5625 0.1875 3.5625 0.1875 5.5625 2.1875 C1.1075 3.6725 1.1075 3.6725 -3.4375 5.1875 C-3.7675 3.8675 -4.0975 2.5475 -4.4375 1.1875 C-3.4375 0.1875 -3.4375 0.1875 0 0 Z " fill="#EAEAEA" transform="translate(53.4375,38.8125)"/>
<path d="M0 0 C1.32 0 2.64 0 4 0 C4 0.66 4 1.32 4 2 C4.99 2 5.98 2 7 2 C7.33 1.34 7.66 0.68 8 0 C7.67 1.32 7.34 2.64 7 4 C5.35 4 3.7 4 2 4 C1.34 2.68 0.68 1.36 0 0 Z " fill="#DDDDDD" transform="translate(37,81)"/>
<path d="M0 0 C0.99 0 1.98 0 3 0 C2.4140625 6.15234375 2.4140625 6.15234375 2 8 C1.01 8.495 1.01 8.495 0 9 C-0.87890625 2.84765625 -0.87890625 2.84765625 -1 1 C-0.67 0.67 -0.34 0.34 0 0 Z " fill="#DDD8DA" transform="translate(55,5)"/>
<path d="M0 0 C0.33 0 0.66 0 1 0 C1 1.65 1 3.3 1 5 C-1.97 4.67 -4.94 4.34 -8 4 C-8 3.67 -8 3.34 -8 3 C-6.865625 2.690625 -5.73125 2.38125 -4.5625 2.0625 C-1.21224901 1.37075469 -1.21224901 1.37075469 0 0 Z " fill="#292929" transform="translate(47,82)"/>
<path d="M0 0 C2.15377564 2.62198774 3.40072174 4.64404172 4 8 C2.68 8 1.36 8 0 8 C0 5.36 0 2.72 0 0 Z " fill="#D9D8D8" transform="translate(78,84)"/>
<path d="M0 0 C0.99 0.33 1.98 0.66 3 1 C3 2.65 3 4.3 3 6 C1.68 6 0.36 6 -1 6 C-0.67 4.02 -0.34 2.04 0 0 Z " fill="#B0AFAF" transform="translate(7,86)"/>
<path d="M0 0 C0.66 0 1.32 0 2 0 C2.33 2.31 2.66 4.62 3 7 C2.01 7.495 2.01 7.495 1 8 C-0.35439668 5.29120665 -0.06501451 2.99066732 0 0 Z " fill="#B9B8B8" transform="translate(81,48)"/>
<path d="M0 0 C0.66 0.33 1.32 0.66 2 1 C2 2.65 2 4.3 2 6 C2.66 6.33 3.32 6.66 4 7 C2.68 7 1.36 7 0 7 C-0.93423645 3.98968256 -1.04449911 3.13349732 0 0 Z " fill="#111111" transform="translate(55,22)"/>
<path d="M0 0 C0.99 0 1.98 0 3 0 C2.67 1.65 2.34 3.3 2 5 C1.34 5 0.68 5 0 5 C-0.33 5.66 -0.66 6.32 -1 7 C-1.125 2.25 -1.125 2.25 0 0 Z " fill="#6A8687" transform="translate(34,0)"/>
</svg>
