<?xml version="1.0" encoding="UTF-8"?>
<svg version="1.1" xmlns="http://www.w3.org/2000/svg" width="240" height="240">
<path d="M0 0 C79.2 0 158.4 0 240 0 C240 79.2 240 158.4 240 240 C160.8 240 81.6 240 0 240 C0 160.8 0 81.6 0 0 Z " fill="#010101" transform="translate(0,0)"/>
<path d="M0 0 C1.04607422 -0.01160156 2.09214844 -0.02320313 3.16992188 -0.03515625 C23.21905017 0.03951462 41.37199073 9.5570437 55.4375 23.375 C56.59958984 24.50035156 56.59958984 24.50035156 57.78515625 25.6484375 C76.50246276 44.97574199 78.29914862 69.45064066 78.08935547 95.02294922 C78.0604776 98.58173376 78.07758474 102.13866445 78.10721779 105.69738579 C78.12528602 108.46678696 78.11954217 111.23574685 78.10657883 114.00516129 C78.10166619 115.9511158 78.11673431 117.89708806 78.13223267 119.84298706 C78.00223874 129.57209778 78.00223874 129.57209778 75.06811523 132.66992188 C72.07656291 134.60894753 70.42019411 135.04930729 66.875 135 C65.94558594 135.01289063 65.01617187 135.02578125 64.05859375 135.0390625 C61.4375 134.375 61.4375 134.375 59.30908203 132.55029297 C56.49888149 127.78255644 56.84596873 123.34712994 56.87109375 117.90625 C56.86489517 116.79318481 56.85869659 115.68011963 56.85231018 114.5333252 C56.84521547 112.18319574 56.84837984 109.83301598 56.86108398 107.48291016 C56.87495215 103.88740614 56.84086692 100.29450315 56.80273438 96.69921875 C56.80178319 94.41406186 56.80364194 92.12890172 56.80859375 89.84375 C56.79533554 88.76967896 56.78207733 87.69560791 56.76841736 86.58898926 C56.86076276 79.18740733 56.86076276 79.18740733 59.70727539 75.17773438 C63.70909892 72.53537857 65.75965396 72.97857237 70.4375 73.375 C64.59531394 52.77224652 55.1833464 35.29750784 36.25 23.9375 C19.77009347 14.78199637 1.23361866 11.13218622 -17.3112793 15.76269531 C-34.95746248 20.84440704 -51.23754497 31.97985083 -60.55224609 48.08642578 C-64.98719947 56.25032467 -68.44737683 64.08230692 -69.5625 73.375 C-67.609375 73.21223958 -65.65625 73.04947917 -63.703125 72.88671875 C-61.5625 73.375 -61.5625 73.375 -59.46411133 75.1887207 C-56.61651205 79.96006724 -56.97087635 84.38286418 -56.99609375 89.84375 C-56.98989517 90.95681519 -56.98369659 92.06988037 -56.97731018 93.2166748 C-56.97021547 95.56680426 -56.97337984 97.91698402 -56.98608398 100.26708984 C-56.99995215 103.86259386 -56.96586692 107.45549685 -56.92773438 111.05078125 C-56.92678319 113.33593814 -56.92864194 115.62109828 -56.93359375 117.90625 C-56.92033554 118.98032104 -56.90707733 120.05439209 -56.89341736 121.16101074 C-56.98630446 128.60601056 -56.98630446 128.60601056 -59.94335938 132.55249023 C-62.80496145 134.54371502 -64.17649746 135.0281098 -67.625 134.9375 C-68.46160156 134.93878906 -69.29820313 134.94007813 -70.16015625 134.94140625 C-73.3986104 134.17786828 -74.49453469 132.96436577 -76.5625 130.375 C-77.07043457 127.48930359 -77.07043457 127.48930359 -77.08007812 124.1003418 C-77.09268677 122.82768967 -77.10529541 121.55503754 -77.11828613 120.24382019 C-77.11111783 118.85394747 -77.10291175 117.46407976 -77.09375 116.07421875 C-77.09644848 114.63613117 -77.10033386 113.19804537 -77.10534668 111.75996399 C-77.11124591 108.73945823 -77.10267976 105.71942533 -77.08398438 102.69897461 C-77.06141906 98.87082874 -77.07416951 95.04381869 -77.09827423 91.21571636 C-77.11291559 88.2392006 -77.10804003 85.26294168 -77.09776306 82.28641701 C-77.09513411 80.87815015 -77.098227 79.46985829 -77.10768127 78.06162071 C-77.21571568 57.41175749 -70.40330051 39.73183139 -56.5625 24.375 C-55.99917969 23.74207031 -55.43585938 23.10914062 -54.85546875 22.45703125 C-40.61400106 7.34840159 -20.48767015 -0.22806312 0 0 Z " fill="#F7F7F7" transform="translate(119.5625,44.625)"/>
<path d="M0 0 C1.55906782 1.55906782 1.12722371 3.06154281 1.12939453 5.22851562 C1.13254669 6.12614624 1.13569885 7.02377686 1.13894653 7.9486084 C1.1369223 8.92463013 1.13489807 9.90065186 1.1328125 10.90625 C1.13376923 11.9012854 1.13472595 12.8963208 1.13571167 13.92150879 C1.1363936 16.02986718 1.13453844 18.13822765 1.13037109 20.24658203 C1.12502303 23.48605027 1.13031567 26.72537985 1.13671875 29.96484375 C1.13605797 32.00781281 1.13477681 34.05078178 1.1328125 36.09375 C1.13483673 37.06977173 1.13686096 38.04579346 1.13894653 39.0513916 C1.13579437 39.94902222 1.13264221 40.84665283 1.12939453 41.77148438 C1.12820114 42.9627594 1.12820114 42.9627594 1.12698364 44.17810059 C1 46 1 46 0 47 C-3.95262567 46.85084431 -6.24796952 46.70062247 -9.19287109 43.95703125 C-11.47622403 40.22074771 -11.61195957 37.06737241 -11.6015625 32.8125 C-11.61013275 32.03237549 -11.618703 31.25225098 -11.62753296 30.44848633 C-11.6389822 28.80456412 -11.64004745 27.16054062 -11.63134766 25.51660156 C-11.62501691 23.00670333 -11.67199775 20.50150458 -11.72265625 17.9921875 C-11.72720203 16.39063092 -11.72860932 14.78906172 -11.7265625 13.1875 C-11.74498199 12.44153564 -11.76340149 11.69557129 -11.78237915 10.92700195 C-11.73118109 8.03275958 -11.56270818 5.7026573 -9.71429443 3.39453125 C-6.52644212 0.61144073 -4.24004857 -0.72686547 0 0 Z " fill="#EFF0F0" transform="translate(38,125)"/>
<path d="M0 0 C7.19923918 -0.47994928 7.19923918 -0.47994928 10.46679688 1.47851562 C12.62484658 5.02761394 12.57332606 8.31051878 12.53125 12.34375 C12.5350769 13.14985718 12.53890381 13.95596436 12.54284668 14.78649902 C12.5455639 16.48772432 12.5382159 18.18899153 12.52148438 19.89013672 C12.5000699 22.49150896 12.52129019 25.09011972 12.546875 27.69140625 C12.54423169 29.34636025 12.53910663 31.00131254 12.53125 32.65625 C12.53934692 33.43238647 12.54744385 34.20852295 12.55578613 35.00817871 C12.49504465 38.51313672 12.28940509 40.60336139 10.19726562 43.47070312 C7.19570266 45.55979095 4.60782335 45.79578358 1 46 C0 45 0 45 -0.12025452 43.17137146 C-0.11803391 42.37417191 -0.11581329 41.57697235 -0.11352539 40.75561523 C-0.11344986 39.85475693 -0.11337433 38.95389862 -0.11329651 38.02574158 C-0.10813522 37.04658279 -0.10297394 36.06742401 -0.09765625 35.05859375 C-0.0962413 34.06118668 -0.09482635 33.0637796 -0.09336853 32.03614807 C-0.08775114 28.83656876 -0.07519571 25.63705831 -0.0625 22.4375 C-0.05748724 20.27408955 -0.05292395 18.11067801 -0.04882812 15.94726562 C-0.03777607 10.63148675 -0.02102104 5.31574829 0 0 Z " fill="#EFEFEF" transform="translate(200,126)"/>
<path d="M0 0 C3.69230769 0.69230769 3.69230769 0.69230769 5 2 C5.10495122 4.25906818 5.13857388 6.52146412 5.14526367 8.78295898 C5.15030159 9.84637512 5.15030159 9.84637512 5.15544128 10.93127441 C5.16497816 13.28623178 5.16689576 15.64111825 5.16796875 17.99609375 C5.17117945 19.62655162 5.17454337 21.25700919 5.17805481 22.88746643 C5.18405295 26.30983142 5.18589401 29.73217113 5.18530273 33.15454102 C5.18520108 37.54759232 5.19885393 41.94048213 5.21607494 46.33349514 C5.22717424 49.70230356 5.22922258 53.07107269 5.22869301 56.43989754 C5.22987623 58.05987162 5.23431707 59.67984661 5.24202538 61.29980278 C5.25178367 63.56253355 5.24896393 65.82491046 5.24291992 68.08764648 C5.24434494 69.37702621 5.24576996 70.66640594 5.24723816 71.99485779 C5 75 5 75 3 77 C0.875 76.625 0.875 76.625 -1 76 C-1.02312446 66.23849012 -1.04091561 56.4769867 -1.05181217 46.71545506 C-1.05704078 42.18325906 -1.06413801 37.65108173 -1.07543945 33.11889648 C-1.08626914 28.7487717 -1.09227701 24.37866492 -1.09487724 20.00852776 C-1.09673135 18.33749037 -1.10035168 16.66645403 -1.10573006 14.99542427 C-1.11294159 12.66302449 -1.1139909 10.33070007 -1.11352539 7.99829102 C-1.11712067 7.3005809 -1.12071594 6.60287079 -1.12442017 5.88401794 C-1.11405216 1.11405216 -1.11405216 1.11405216 0 0 Z " fill="#E8E8E8" transform="translate(118,110)"/>
<path d="M0 0 C1.65 0.33 3.3 0.66 5 1 C5 17.83 5 34.66 5 52 C2.525 52.495 2.525 52.495 0 53 C-1.64087745 51.35912255 -1.12739755 49.48168938 -1.12939453 47.22070312 C-1.13254669 46.202948 -1.13569885 45.18519287 -1.13894653 44.13659668 C-1.1369223 43.02933228 -1.13489807 41.92206787 -1.1328125 40.78125 C-1.13376923 39.65303833 -1.13472595 38.52482666 -1.13571167 37.36242676 C-1.13639368 34.97159774 -1.13453797 32.58076689 -1.13037109 30.18994141 C-1.12502316 26.51590849 -1.13031543 22.84199783 -1.13671875 19.16796875 C-1.13605797 16.85156223 -1.13477682 14.53515578 -1.1328125 12.21875 C-1.13584885 10.55785339 -1.13584885 10.55785339 -1.13894653 8.86340332 C-1.13579437 7.84564819 -1.13264221 6.82789307 -1.12939453 5.77929688 C-1.12859894 4.87852417 -1.12780334 3.97775146 -1.12698364 3.04968262 C-1 1 -1 1 0 0 Z " fill="#EDEDED" transform="translate(137,122)"/>
<path d="M0 0 C2.475 0.495 2.475 0.495 5 1 C5 18.16 5 35.32 5 53 C3.35 53 1.7 53 0 53 C0 35.51 0 18.02 0 0 Z " fill="#FCFCFC" transform="translate(98,122)"/>
<path d="M0 0 C1.32 0.33 2.64 0.66 4 1 C4 13.21 4 25.42 4 38 C2.02 38.495 2.02 38.495 0 39 C-2.51704805 36.48295195 -2.24669599 34.92327101 -2.27789307 31.48840332 C-2.2738446 30.73941772 -2.26979614 29.99043213 -2.265625 29.21875 C-2.26753845 28.44946167 -2.2694519 27.68017334 -2.27142334 26.88757324 C-2.27278508 25.2601692 -2.26908939 23.6327543 -2.26074219 22.00537109 C-2.25004221 19.50984369 -2.26063751 17.01503618 -2.2734375 14.51953125 C-2.2721159 12.94010257 -2.2695535 11.36067434 -2.265625 9.78125 C-2.26967346 9.0322644 -2.27372192 8.28327881 -2.27789307 7.51159668 C-2.22992243 2.22992243 -2.22992243 2.22992243 0 0 Z " fill="#E4E4E4" transform="translate(128,129)"/>
<path d="M0 0 C1.65 0.33 3.3 0.66 5 1 C5 12.55 5 24.1 5 36 C2.525 36.495 2.525 36.495 0 37 C-1.76072584 35.23927416 -1.12834784 32.9210371 -1.13894653 30.5760498 C-1.1369223 29.81876587 -1.13489807 29.06148193 -1.1328125 28.28125 C-1.13376923 27.50817505 -1.13472595 26.7351001 -1.13571167 25.93859863 C-1.13639341 24.30102456 -1.13453957 22.66344781 -1.13037109 21.02587891 C-1.12502271 18.51068079 -1.13031626 15.99566127 -1.13671875 13.48046875 C-1.13605797 11.89322877 -1.1347768 10.3059889 -1.1328125 8.71875 C-1.13483673 7.96146606 -1.13686096 7.20418213 -1.13894653 6.4239502 C-1.11495132 1.11495132 -1.11495132 1.11495132 0 0 Z " fill="#EEEDEE" transform="translate(108,130)"/>
<path d="M0 0 C1.65 0.33 3.3 0.66 5 1 C5 9.25 5 17.5 5 26 C3.35 26.33 1.7 26.66 0 27 C-1.74545605 25.25454395 -1.1302316 22.83875783 -1.1328125 20.46875 C-1.13410156 19.34855469 -1.13539062 18.22835937 -1.13671875 17.07421875 C-1.13285156 15.89472656 -1.12898438 14.71523437 -1.125 13.5 C-1.12886719 12.32050781 -1.13273437 11.14101562 -1.13671875 9.92578125 C-1.13542969 8.80558594 -1.13414063 7.68539062 -1.1328125 6.53125 C-1.13168457 5.49548828 -1.13055664 4.45972656 -1.12939453 3.39257812 C-1 1 -1 1 0 0 Z " fill="#E5E6E6" transform="translate(89,135)"/>
<path d="M0 0 C1.98 0.495 1.98 0.495 4 1 C4 9.25 4 17.5 4 26 C2.68 26.33 1.36 26.66 0 27 C-1.74545605 25.25454395 -1.1302316 22.83875783 -1.1328125 20.46875 C-1.13410156 19.34855469 -1.13539063 18.22835937 -1.13671875 17.07421875 C-1.13285156 15.89472656 -1.12898437 14.71523437 -1.125 13.5 C-1.12886719 12.32050781 -1.13273438 11.14101562 -1.13671875 9.92578125 C-1.13542969 8.80558594 -1.13414062 7.68539062 -1.1328125 6.53125 C-1.13168457 5.49548828 -1.13055664 4.45972656 -1.12939453 3.39257812 C-1 1 -1 1 0 0 Z " fill="#F7F7F7" transform="translate(147,135)"/>
<path d="M0 0 C1.65 0.33 3.3 0.66 5 1 C5 5.29 5 9.58 5 14 C3.35 14.33 1.7 14.66 0 15 C-1 14 -1 14 -1.1328125 11.09375 C-1.13023437 9.9078125 -1.12765625 8.721875 -1.125 7.5 C-1.12757813 6.3140625 -1.13015625 5.128125 -1.1328125 3.90625 C-1 1 -1 1 0 0 Z " fill="#E3E3E3" transform="translate(156,141)"/>
<path d="M0 0 C1.65 0.33 3.3 0.66 5 1 C5 5.29 5 9.58 5 14 C3.35 14.33 1.7 14.66 0 15 C-1 14 -1 14 -1.1328125 11.09375 C-1.13023438 9.9078125 -1.12765625 8.721875 -1.125 7.5 C-1.12757812 6.3140625 -1.13015625 5.128125 -1.1328125 3.90625 C-1 1 -1 1 0 0 Z " fill="#E6E6E6" transform="translate(79,141)"/>
<path d="M0 0 C1.67542976 0.28604898 3.34385343 0.61781233 5 1 C5 3.97 5 6.94 5 10 C3.34385343 10.38218767 1.67542976 10.71395102 0 11 C-1 10 -1 10 -1.1328125 7.96875 C-1.13023437 7.1540625 -1.12765625 6.339375 -1.125 5.5 C-1.12757813 4.6853125 -1.13015625 3.870625 -1.1328125 3.03125 C-1 1 -1 1 0 0 Z " fill="#E3E2E3" transform="translate(166,143)"/>
<path d="M0 0 C1.32 0 2.64 0 4 0 C3.67 17.49 3.34 34.98 3 53 C2.67 53 2.34 53 2 53 C1.9845388 52.07038704 1.9845388 52.07038704 1.96876526 51.12199402 C1.86073394 44.68205136 1.74613309 38.24224957 1.62768555 31.80249023 C1.58432591 29.39789777 1.5426516 26.99327431 1.50268555 24.58862305 C1.44500811 21.13580984 1.38130615 17.68315281 1.31640625 14.23046875 C1.29969376 13.15226364 1.28298126 12.07405853 1.26576233 10.96318054 C1.24581711 9.96236954 1.22587189 8.96155853 1.20532227 7.93041992 C1.18977798 7.04883713 1.1742337 6.16725433 1.15821838 5.25895691 C1.0825248 2.8322892 1.0825248 2.8322892 0 0 Z " fill="#1B1D1D" transform="translate(60,120)"/>
<path d="M0 0 C1.32 0 2.64 0 4 0 C4 3.63 4 7.26 4 11 C2.35 10.67 0.7 10.34 -1 10 C-1.02689216 8.52093108 -1.04634621 7.04172517 -1.0625 5.5625 C-1.07410156 4.73878906 -1.08570312 3.91507813 -1.09765625 3.06640625 C-1 1 -1 1 0 0 Z " fill="#F4F3F4" transform="translate(70,143)"/>
<path d="M0 0 C0.99 0.33 1.98 0.66 3 1 C2.34 1.66 1.68 2.32 1 3 C0.62995706 5.22658154 0.62995706 5.22658154 0.5859375 7.7890625 C0.54726562 8.73007813 0.50859375 9.67109375 0.46875 10.640625 C0.4378125 11.62546875 0.406875 12.6103125 0.375 13.625 C0.33632812 14.61757812 0.29765625 15.61015625 0.2578125 16.6328125 C0.1633686 19.08835385 0.07780125 21.5438841 0 24 C-0.33 24 -0.66 24 -1 24 C-1.02887236 20.18751574 -1.04675492 16.3750593 -1.0625 12.5625 C-1.07087891 11.47388672 -1.07925781 10.38527344 -1.08789062 9.26367188 C-1.09111328 8.22919922 -1.09433594 7.19472656 -1.09765625 6.12890625 C-1.10289307 5.17056885 -1.10812988 4.21223145 -1.11352539 3.22485352 C-1 1 -1 1 0 0 Z " fill="#E7E7E6" transform="translate(118,110)"/>
</svg>
