<?xml version="1.0" encoding="UTF-8"?>
<svg version="1.1" xmlns="http://www.w3.org/2000/svg" width="867" height="500">
<path d="M0 0 C286.11 0 572.22 0 867 0 C867 165 867 330 867 500 C580.89 500 294.78 500 0 500 C0 335 0 170 0 0 Z " fill="#0D1015" transform="translate(0,0)"/>
<path d="M0 0 C2.00879705 7.71898867 3.57330721 15.51400131 5.14453125 23.33203125 C6.34664256 29.25936638 6.34664256 29.25936638 8.0234375 35.0625 C9.52219686 39.57076816 10.27125353 44.20785264 11.125 48.875 C11.30675781 49.84953125 11.48851562 50.8240625 11.67578125 51.828125 C12.12096813 54.21807562 12.56225969 56.60867627 13 59 C14.89398411 51.24729172 15.93777782 43.47485655 16.9375 35.5625 C18.0731033 26.77348613 19.23115018 17.99269889 20.6875 9.25 C20.86623657 8.16247437 20.86623657 8.16247437 21.04858398 7.05297852 C21.86884209 2.26231581 21.86884209 2.26231581 23 0 C27.29 0 31.58 0 36 0 C39.65985795 19.28563445 42.94006094 38.6094771 46 58 C46.33 58 46.66 58 47 58 C47.22139648 56.81148437 47.44279297 55.62296875 47.67089844 54.3984375 C48.50843994 49.90955416 49.3524537 45.42190641 50.19824219 40.93457031 C50.56063426 39.0071576 50.92136398 37.07943144 51.28027344 35.15136719 C53.48480642 23.31585769 55.95052257 11.64845432 59 0 C67.25 0 75.5 0 84 0 C82.84002988 6.95982069 81.68023057 13.89103587 80.3359375 20.8125 C80.01904786 22.46043451 79.7022383 24.10838442 79.38549805 25.75634766 C79.22093109 26.60996887 79.05636414 27.46359009 78.8868103 28.34307861 C75.37620405 46.56741832 72.00007795 64.81410007 68.70263672 83.078125 C68.38901437 84.81510723 68.07537547 86.55208647 67.76171875 88.2890625 C67.61287231 89.11367981 67.46402588 89.93829712 67.31066895 90.78790283 C65.90979452 98.53217343 64.45955953 106.26657995 63 114 C54.09 114 45.18 114 36 114 C35.566875 111.69 35.13375 109.38 34.6875 107 C34.46960815 105.84262329 34.46960815 105.84262329 34.24731445 104.66186523 C33.54193317 100.91343413 32.84624259 97.16359334 32.16796875 93.41015625 C32.03495361 92.68119141 31.90193848 91.95222656 31.76489258 91.20117188 C31.50767919 89.79028316 31.25354181 88.37882975 31.00268555 86.96679688 C30.61932058 83.70205659 30.61932058 83.70205659 29 81 C28.78065796 82.44620728 28.78065796 82.44620728 28.55688477 83.92163086 C28.01497119 87.48737656 27.46766661 91.0522771 26.91870117 94.61694336 C26.68154332 96.16196419 26.44586215 97.70721241 26.21166992 99.25268555 C25.87543455 101.46984858 25.53395425 103.6861484 25.19140625 105.90234375 C25.08719864 106.5971434 24.98299103 107.29194305 24.87562561 108.00779724 C24.11387171 112.88612829 24.11387171 112.88612829 23 114 C21.07332493 114.08748207 19.14348139 114.10697334 17.21484375 114.09765625 C15.46010742 114.09282227 15.46010742 114.09282227 13.66992188 114.08789062 C12.43822266 114.07951172 11.20652344 114.07113281 9.9375 114.0625 C8.08415039 114.05573242 8.08415039 114.05573242 6.19335938 114.04882812 C3.12885883 114.03699608 0.06445279 114.02051173 -3 114 C-5.72788454 100.68893376 -8.38658945 87.37987615 -10.56738281 73.96655273 C-11.31166 69.50130219 -12.19338205 65.14542144 -13.35546875 60.76953125 C-15.61499601 51.9784695 -17.07482171 43.02269806 -18.64428711 34.08837891 C-19.19129354 30.97843226 -19.74657776 27.87004068 -20.30273438 24.76171875 C-20.65413486 22.77873243 -21.00506354 20.79566243 -21.35546875 18.8125 C-21.52104782 17.88646973 -21.68662689 16.96043945 -21.85722351 16.00634766 C-22.08294792 14.71349854 -22.08294792 14.71349854 -22.31323242 13.39453125 C-22.44630295 12.64018799 -22.57937347 11.88584473 -22.71647644 11.10864258 C-23 9 -23 9 -23 5 C-23.66 5 -24.32 5 -25 5 C-25.33 6.258125 -25.66 7.51625 -26 8.8125 C-27.26213408 13.02157039 -28.79593637 17.03609115 -30.52374268 21.06925964 C-31.55149381 23.474245 -32.56446415 25.88506339 -33.57666016 28.29663086 C-35.18139822 32.11413169 -36.86067241 35.88735852 -38.58129883 39.65380859 C-46.0578004 56.68475092 -47.39906052 71.687342 -47.125 90.125 C-47.12305122 92.75260473 -47.12563506 95.38021685 -47.1328125 98.0078125 C-47.14876638 104.34150396 -47.07282436 110.66428086 -47 117 C-55.25 117 -63.5 117 -72 117 C-71.95617187 113.17535156 -71.91234375 109.35070312 -71.8671875 105.41015625 C-71.85875311 101.61339133 -71.86757469 97.81701874 -71.87792969 94.02026367 C-71.87600964 91.42643838 -71.85677976 88.83255512 -71.81835938 86.23901367 C-71.56644482 68.18163816 -73.92647006 54.03481478 -81.73228455 37.68742371 C-83.73779154 33.43595937 -85.51380502 29.09186509 -87.3125 24.75 C-87.95319478 23.23515529 -88.59493614 21.72075228 -89.23828125 20.20703125 C-96 4.15848577 -96 4.15848577 -96 1 C-87.75 1 -79.5 1 -71 1 C-69.7625 4.34125 -69.7625 4.34125 -68.5 7.75 C-68.10844727 8.79172363 -68.10844727 8.79172363 -67.70898438 9.85449219 C-66.50706036 13.16073715 -66 15.42947796 -66 19 C-65.34 19 -64.68 19 -64 19 C-62.68 22.96 -61.36 26.92 -60 31 C-57.15144809 24.27425243 -54.4075473 17.56136287 -51.9921875 10.66796875 C-50.77351072 7.39097568 -49.39576504 4.20552818 -48 1 C-31.98877702 0.1934325 -16.03092418 -0.13960478 0 0 Z " fill="#FAFAFA" transform="translate(398,196)"/>
<path d="M0 0 C16.5 0 33 0 50 0 C67.46280891 17.46280891 67.46280891 17.46280891 68.28225708 27.75074768 C68.26274994 28.46149948 68.2432428 29.17225128 68.22314453 29.90454102 C68.20914612 30.72431427 68.19514771 31.54408752 68.1807251 32.38870239 C68.15314117 33.65035721 68.15314117 33.65035721 68.125 34.9375 C68.13582124 36.71479669 68.1513852 38.49207003 68.17138672 40.26928711 C68.19478679 43.96928446 68.16137962 47.66304273 68.0859375 51.36230469 C67.99469885 56.0600771 68.04730225 60.74323767 68.14309692 65.44047546 C68.20147481 69.10341713 68.18227773 72.76300197 68.14105225 76.42605591 C68.13052852 78.15448836 68.14294421 79.88324608 68.1807251 81.61129761 C68.19472351 82.43107086 68.20872192 83.25084412 68.22314453 84.09545898 C68.25240524 85.16158669 68.25240524 85.16158669 68.28225708 86.24925232 C67.05536399 101.65254614 63.06168825 100.93831175 50 114 C33.5 114 17 114 0 114 C0 76.38 0 38.76 0 0 Z " fill="#FCFCFC" transform="translate(643,196)"/>
<path d="M0 0 C2.34991945 0.06595663 4.69229617 0.06157433 7.04296875 0.0480957 C8.54301857 0.06415352 10.0430322 0.08419541 11.54296875 0.10864258 C12.58991913 0.10757759 12.58991913 0.10757759 13.65802002 0.10649109 C17.37691666 0.25104619 18.81084101 0.58918597 21.43652344 3.30883789 C21.98211914 4.15671875 22.52771484 5.00459961 23.08984375 5.87817383 C24.39114799 7.10068816 25.72390361 8.29082968 27.08984375 9.44067383 C28.43220723 10.57591482 29.76550124 11.72196074 31.08984375 12.87817383 C32.11981476 13.6802829 32.11981476 13.6802829 33.17059326 14.49859619 C35.79426283 17.75154596 35.73925145 20.6843076 35.79785156 24.69750977 C35.82413635 25.48193954 35.85042114 26.26636932 35.87750244 27.0745697 C35.95631293 29.67058026 36.00307331 32.26566231 36.04296875 34.86254883 C36.05927086 35.75461281 36.07557297 36.64667679 36.09236908 37.56577301 C36.17580538 42.29796099 36.23298561 47.02968709 36.27050781 51.76245117 C36.30581143 55.65402673 36.38888725 59.53982032 36.51660156 63.42944336 C37.6581755 98.98561007 37.6581755 98.98561007 30.17166138 108.41641235 C23.92558536 114.53524989 16.84996868 117.60478475 8.09838867 117.6673584 C6.62641831 117.60737597 5.15523658 117.52315463 3.68603516 117.41479492 C1.42608167 117.25035337 -0.81268743 117.2096902 -3.078125 117.18676758 C-14.80208637 116.87468371 -14.80208637 116.87468371 -18.93359375 112.91723633 C-20.91015625 109.87817383 -20.91015625 109.87817383 -20.91015625 107.87817383 C-22.23015625 107.21817383 -23.55015625 106.55817383 -24.91015625 105.87817383 C-24.91015625 105.21817383 -24.91015625 104.55817383 -24.91015625 103.87817383 C-25.52890625 103.58942383 -26.14765625 103.30067383 -26.78515625 103.00317383 C-28.91015625 101.87817383 -28.91015625 101.87817383 -30.91015625 99.87817383 C-31.09811236 97.22773278 -31.16199486 94.68266569 -31.13720703 92.03198242 C-31.13749908 91.22214401 -31.13779114 90.4123056 -31.13809204 89.57792664 C-31.13669575 86.89404686 -31.1211206 84.21044276 -31.10546875 81.52661133 C-31.10173968 79.66859082 -31.09889221 77.81056834 -31.09689331 75.95254517 C-31.08924849 71.05670769 -31.06959274 66.16098844 -31.04748535 61.26519775 C-31.02704518 56.27162272 -31.01789551 51.27802862 -31.0078125 46.28442383 C-30.98634763 36.48228848 -30.95220147 26.68024098 -30.91015625 16.87817383 C-30.25015625 16.87817383 -29.59015625 16.87817383 -28.91015625 16.87817383 C-28.58015625 15.88817383 -28.25015625 14.89817383 -27.91015625 13.87817383 C-26.7882008 12.68822108 -25.65030558 11.50997215 -24.4440918 10.40551758 C-22.83027386 8.88264285 -22.83027386 8.88264285 -21.47973633 6.88208008 C-15.64023188 -0.53964835 -8.72086095 -0.26011843 0 0 Z " fill="#FAFAFB" transform="translate(126.91015625,204.121826171875)"/>
<path d="M0 0 C2.250889 0.14895041 4.47583907 0.16406228 6.73120117 0.16210938 C16.83266015 0.35760617 16.83266015 0.35760617 20.91625977 3.25195312 C22.6159668 5.24023437 22.6159668 5.24023437 23.95230103 7.37219238 C25.81978308 9.8722774 27.66990848 11.0501144 30.25073242 12.7734375 C33.99901388 16.06550826 35.25011691 18.64038935 35.7869339 23.62146759 C36.03852999 27.75725598 36.09129048 31.87889573 36.0925293 36.02148438 C36.11641578 37.83262245 36.14191108 39.64373994 36.16893005 41.45483398 C36.21369265 45.24794322 36.22251343 49.03919106 36.20898438 52.83251953 C36.19932575 56.6973476 36.24761804 60.55407712 36.35253906 64.41748047 C37.29602691 99.61717653 37.29602691 99.61717653 29.71028137 109.16343689 C23.47701429 115.28434199 16.40632103 118.38716047 7.65959167 118.47793579 C6.1877103 118.42232937 4.71654878 118.34233159 3.24731445 118.23803711 C0.98645408 118.0812331 -1.25098731 118.05345658 -3.5168457 118.04296875 C-13.66922368 117.8085917 -13.66922368 117.8085917 -17.55395508 115.12084961 C-19.04219798 113.3707602 -20.1872752 111.62286284 -21.34887695 109.64648438 C-22.7310338 108.33820143 -24.14202493 107.05854306 -25.59887695 105.83398438 C-31.31185413 100.99566843 -31.31185413 100.99566843 -31.697052 97.36264038 C-31.75184014 95.9268564 -31.79517598 94.49061009 -31.82983398 93.05419922 C-31.85582672 92.27006149 -31.88181946 91.48592377 -31.90859985 90.67802429 C-32.16342786 82.42545156 -32.27583103 74.16871287 -32.37866211 65.91308594 C-32.43187957 62.00807272 -32.52887747 58.10803672 -32.66577148 54.20507812 C-33.88750995 18.48153456 -33.88750995 18.48153456 -26.43659973 9.10549927 C-18.8727045 1.71295949 -10.37386264 -0.70963902 0 0 Z " fill="#FAFAFA" transform="translate(516.348876953125,203.353515625)"/>
<path d="M0 0 C1.52084144 -0.05408078 3.04092314 -0.14201185 4.55761719 -0.26660156 C13.9241882 -1.02888922 21.73499168 0.44611502 29.11450195 6.58569336 C38.65598989 16.02271167 38.21300393 29.10180797 38.3327179 41.68193054 C38.33534853 45.4208847 38.2845013 49.15658334 38.2121582 52.89477539 C38.12091443 57.65340301 38.17503651 62.39774802 38.26713085 67.1558857 C38.79288236 98.98356213 38.79288236 98.98356213 31.13761902 108.60171509 C24.91810388 114.73821713 18.04426887 117.77815294 9.29348755 117.72491455 C7.12720263 117.60865948 4.97455339 117.42120791 2.8137207 117.23022461 C1.32247917 117.16686431 -0.16909284 117.11084643 -1.66088867 117.06225586 C-12.10781195 116.6158695 -12.10781195 116.6158695 -15.8737793 114.10522461 C-15.8737793 113.44522461 -15.8737793 112.78522461 -15.8737793 112.10522461 C-16.5337793 112.10522461 -17.1937793 112.10522461 -17.8737793 112.10522461 C-19.4597168 110.46069336 -19.4597168 110.46069336 -21.2487793 108.29272461 C-23.74881526 105.21564475 -23.74881526 105.21564475 -26.95417786 102.97381592 C-29.3968217 100.59608117 -29.37522999 98.79961568 -29.44921875 95.47897339 C-29.44583496 94.71529449 -29.44245117 93.9516156 -29.43896484 93.16479492 C-29.450793 92.35630096 -29.46262115 91.54780701 -29.47480774 90.71481323 C-29.50775047 88.03738382 -29.51065151 85.36096852 -29.51049805 82.68334961 C-29.52081142 80.82110172 -29.53187433 78.95885784 -29.5436554 77.09661865 C-29.56310796 73.1892248 -29.56650309 69.28218894 -29.56005859 65.37475586 C-29.55407197 60.3762311 -29.5982263 55.37956964 -29.65594769 50.38142776 C-29.69299494 46.53280112 -29.69784575 42.68462094 -29.69367409 38.83583832 C-29.69654164 36.99387227 -29.71058203 35.15188755 -29.73615074 33.31009674 C-29.91544135 18.87381968 -29.91544135 18.87381968 -27.33023071 14.48449707 C-25.60007319 12.76042445 -23.88305664 11.4757225 -21.8737793 10.10522461 C-21.2137793 9.11522461 -20.5537793 8.12522461 -19.8737793 7.10522461 C-19.2137793 7.10522461 -18.5537793 7.10522461 -17.8737793 7.10522461 C-17.5437793 6.11522461 -17.2137793 5.12522461 -16.8737793 4.10522461 C-13.3326209 -1.08666437 -5.67235382 0.14837143 0 0 Z " fill="#FBFCFC" transform="translate(593.873779296875,203.894775390625)"/>
<path d="M0 0 C8.25 0 16.5 0 25 0 C25 37.95 25 75.9 25 115 C16.75 115 8.5 115 0 115 C0 100.15 0 85.3 0 70 C-5.61 70 -11.22 70 -17 70 C-17 84.85 -17 99.7 -17 115 C-24.92 115 -32.84 115 -41 115 C-41 77.38 -41 39.76 -41 1 C-33.08 1 -25.16 1 -17 1 C-17 15.85 -17 30.7 -17 46 C-11.39 46 -5.78 46 0 46 C0 30.82 0 15.64 0 0 Z " fill="#FAFAFA" transform="translate(59,205)"/>
<path d="M0 0 C18.81 0 37.62 0 57 0 C57 7.92 57 15.84 57 24 C46.11 24 35.22 24 24 24 C24 31.26 24 38.52 24 46 C34.89 46 45.78 46 57 46 C57 53.92 57 61.84 57 70 C46.11 70 35.22 70 24 70 C24 76.6 24 83.2 24 90 C34.89 90 45.78 90 57 90 C57 97.92 57 105.84 57 114 C38.19 114 19.38 114 0 114 C0 76.38 0 38.76 0 0 Z " fill="#FDFDFD" transform="translate(787,196)"/>
<path d="M0 0 C8.25 0 16.5 0 25 0 C25 30.03 25 60.06 25 91 C35.56 91 46.12 91 57 91 C62.89726867 96.89726867 58 107.66000266 58 116 C38.86 116 19.72 116 0 116 C0 77.72 0 39.44 0 0 Z " fill="#F7F7F7" transform="translate(721,208)"/>
<path d="M0 0 C7.92 0 15.84 0 24 0 C24 30.03 24 60.06 24 91 C34.89 91 45.78 91 57 91 C57 99.25 57 107.5 57 116 C37.86 116 18.72 116 -1 116 C-1.04016367 87.30082761 -1.04016367 87.30082761 -1.05025387 73.17377186 C-1.05580559 65.51875505 -1.0628651 57.86374908 -1.07543945 50.20874023 C-1.08644694 43.50442791 -1.09227621 36.80012975 -1.09487724 30.09580803 C-1.09673202 27.53162387 -1.10035364 24.96744038 -1.10573006 22.40326118 C-1.11293659 18.82554842 -1.11399111 15.24788481 -1.11352539 11.67016602 C-1.11712067 10.59842636 -1.12071594 9.52668671 -1.12442017 8.42247009 C-1.1230455 7.45346771 -1.12167084 6.48446533 -1.12025452 5.48609924 C-1.12117631 4.63897149 -1.1220981 3.79184374 -1.12304783 2.91904545 C-1 1 -1 1 0 0 Z " fill="#F6F7F7" transform="translate(241,208)"/>
<path d="M0 0 C7.92 0 15.84 0 24 0 C24 30.03 24 60.06 24 91 C34.89 91 45.78 91 57 91 C57 98.92 57 106.84 57 115 C38.19 115 19.38 115 0 115 C0 77.05 0 39.1 0 0 Z " fill="#FDFDFE" transform="translate(175,209)"/>
<path d="M0 0 C5.61 0 11.22 0 17 0 C17 22.11 17 44.22 17 67 C11.39 67 5.78 67 0 67 C0 44.89 0 22.78 0 0 Z " fill="#16171C" transform="translate(121,229)"/>
<path d="M0 0 C5.61 0 11.22 0 17 0 C17 21.78 17 43.56 17 66 C11.39 66 5.78 66 0 66 C0 44.22 0 22.44 0 0 Z " fill="#15161B" transform="translate(509,229)"/>
<path d="M0 0 C5.61 0 11.22 0 17 0 C17 21.78 17 43.56 17 66 C11.39 66 5.78 66 0 66 C0 44.22 0 22.44 0 0 Z " fill="#111418" transform="translate(667,220)"/>
<path d="M0 0 C5.61 0 11.22 0 17 0 C17 21.45 17 42.9 17 65 C11.39 65 5.78 65 0 65 C0 43.55 0 22.1 0 0 Z " fill="#0F1115" transform="translate(589,230)"/>
<path d="M0 0 C2.475 0.99 2.475 0.99 5 2 C4.3867404 5.77284087 3.75739086 9.54282258 3.125 13.3125 C2.95097656 14.38435547 2.77695312 15.45621094 2.59765625 16.56054688 C2.42363281 17.58857422 2.24960937 18.61660156 2.0703125 19.67578125 C1.91320801 20.62364502 1.75610352 21.57150879 1.59423828 22.5480957 C1 25 1 25 -1 28 C-1.53590819 25.33559769 -2.05389262 22.66963352 -2.5625 20 C-2.78969727 18.88431641 -2.78969727 18.88431641 -3.02148438 17.74609375 C-3.99925189 12.5161745 -4.01102674 8.23895675 -3 3 C-1.4375 1 -1.4375 1 0 0 Z " fill="#181B1D" transform="translate(445,229)"/>
<path d="M0 0 C0.28875 0.639375 0.5775 1.27875 0.875 1.9375 C1.82823451 4.15206079 1.82823451 4.15206079 4 5 C2.35 9.29 0.7 13.58 -1 18 C-3 17 -3 17 -3.8515625 15.0390625 C-4.10679687 14.24242187 -4.36203125 13.44578125 -4.625 12.625 C-4.88539063 11.83351562 -5.14578125 11.04203125 -5.4140625 10.2265625 C-6 8 -6 8 -6 5 C-6.66 5 -7.32 5 -8 5 C-7.67 4.01 -7.34 3.02 -7 2 C-7 2.66 -7 3.32 -7 4 C-6.34 4 -5.68 4 -5 4 C-5 3.01 -5 2.02 -5 1 C-3 0 -3 0 0 0 Z " fill="#16191C" transform="translate(340,210)"/>
<path d="M0 0 C0 2.62113708 -0.31292445 4.50935112 -1 7 C-0.34 7.33 0.32 7.66 1 8 C0.34 8 -0.32 8 -1 8 C-1.33 8.66 -1.66 9.32 -2 10 C-2.99 10 -3.98 10 -5 10 C-5.99 10.66 -6.98 11.32 -8 12 C-8.66 11.34 -9.32 10.68 -10 10 C-6.7 6.7 -3.4 3.4 0 0 Z " fill="#181A1D" transform="translate(159,306)"/>
<path d="M0 0 C0.33 0 0.66 0 1 0 C1.18644068 14.93596987 1.18644068 14.93596987 0 21 C-0.12375 21.7425 -0.2475 22.485 -0.375 23.25 C-1 25 -1 25 -4 28 C-2.68 18.76 -1.36 9.52 0 0 Z " fill="#D5D6D7" transform="translate(415,230)"/>
<path d="M0 0 C1.94566808 2.91850212 2.5152457 4.57622848 3.1875 7.9375 C3.36667969 8.79214844 3.54585938 9.64679688 3.73046875 10.52734375 C4.00123705 13.01134859 3.77059444 14.64449502 3 17 C-1.68217597 7.59384292 -1.68217597 7.59384292 -1 2 C-0.67 1.34 -0.34 0.68 0 0 Z " fill="#353538" transform="translate(427,275)"/>
<path d="M0 0 C1.13732426 3.40401948 0.83989957 5.77456664 0.0625 9.25 C-0.13214844 10.14203125 -0.32679688 11.0340625 -0.52734375 11.953125 C-0.68332031 12.62859375 -0.83929688 13.3040625 -1 14 C-1.66 13.67 -2.32 13.34 -3 13 C-3.68150352 10.07927065 -4.16011511 7.93728408 -4 5 C-2.0625 2 -2.0625 2 0 0 Z " fill="#1F2022" transform="translate(413,242)"/>
<path d="M0 0 C0.33 0 0.66 0 1 0 C1.19601608 1.74906659 1.38147403 3.49931846 1.5625 5.25 C1.66691406 6.22453125 1.77132813 7.1990625 1.87890625 8.203125 C1.99138933 10.80112138 1.89524667 12.57693717 1 15 C0.34 15.66 -0.32 16.32 -1 17 C-2.08318662 12.91721966 -1.83473185 9.82121165 -1.0625 5.6875 C-0.86785156 4.61886719 -0.67320312 3.55023438 -0.47265625 2.44921875 C-0.31667969 1.64097656 -0.16070312 0.83273438 0 0 Z " fill="#36383B" transform="translate(475,228)"/>
<path d="M0 0 C0.66 0 1.32 0 2 0 C2.33 2.64 2.66 5.28 3 8 C1.68 8.33 0.36 8.66 -1 9 C-0.67 8.01 -0.34 7.02 0 6 C-0.66 6 -1.32 6 -2 6 C-1.34 4.02 -0.68 2.04 0 0 Z " fill="#2E2F31" transform="translate(373,201)"/>
<path d="M0 0 C-1.75 2.5 -1.75 2.5 -4 5 C-5.32 5 -6.64 5 -8 5 C-8 3.68 -8 2.36 -8 1 C-5.07175348 0.02391783 -3.04386724 -0.08226668 0 0 Z " fill="#1B1C20" transform="translate(570,216)"/>
<path d="M0 0 C0.66 0.99 1.32 1.98 2 3 C2.66 3.33 3.32 3.66 4 4 C2.68 6.31 1.36 8.62 0 11 C-0.33 11 -0.66 11 -1 11 C-0.67 7.37 -0.34 3.74 0 0 Z " fill="#323337" transform="translate(467,271)"/>
<path d="M0 0 C0.33 1.32 0.66 2.64 1 4 C1.33 4.99 1.66 5.98 2 7 C0.5625 9.1875 0.5625 9.1875 -1 11 C-1.66 10.67 -2.32 10.34 -3 10 C-2.01 6.7 -1.02 3.4 0 0 Z " fill="#36373C" transform="translate(364,222)"/>
<path d="M0 0 C0.66 0.33 1.32 0.66 2 1 C2 2.65 2 4.3 2 6 C-0.31 6 -2.62 6 -5 6 C-3.35 4.02 -1.7 2.04 0 0 Z " fill="#191A1F" transform="translate(709,293)"/>
<path d="M0 0 C0.33 1.32 0.66 2.64 1 4 C-1.475 5.485 -1.475 5.485 -4 7 C-4.6875 5.1875 -4.6875 5.1875 -5 3 C-3.38441968 0.84589291 -2.74502455 0 0 0 Z " fill="#18191D" transform="translate(376,209)"/>
<path d="M0 0 C2.0625 0.4375 2.0625 0.4375 4 1 C3.34 1 2.68 1 2 1 C1.67 2.98 1.34 4.96 1 7 C0.01 7 -0.98 7 -2 7 C-1.67 6.01 -1.34 5.02 -1 4 C-1 3.01 -1 2.02 -1 1 C-0.67 0.67 -0.34 0.34 0 0 Z " fill="#282A2E" transform="translate(348,196)"/>
<path d="M0 0 C1.65 1.65 3.3 3.3 5 5 C4.34 5 3.68 5 3 5 C2.67 5.66 2.34 6.32 2 7 C1.67 6.01 1.34 5.02 1 4 C0.34 3.67 -0.32 3.34 -1 3 C-0.67 2.01 -0.34 1.02 0 0 Z M-3 2 C-2.34 2.66 -1.68 3.32 -1 4 C-1.66 4 -2.32 4 -3 4 C-3 3.34 -3 2.68 -3 2 Z " fill="#191D20" transform="translate(487,306)"/>
<path d="M0 0 C1.65 0 3.3 0 5 0 C5 0.66 5 1.32 5 2 C5.66 2.33 6.32 2.66 7 3 C6.01 4.485 6.01 4.485 5 6 C3.35 4.02 1.7 2.04 0 0 Z " fill="#323537" transform="translate(535,206)"/>
<path d="M0 0 C0.99 0.33 1.98 0.66 3 1 C2.01 1.495 2.01 1.495 1 2 C1.33 2.99 1.66 3.98 2 5 C0.68 5.99 -0.64 6.98 -2 8 C-1.814375 7.21625 -1.62875 6.4325 -1.4375 5.625 C-0.74037734 3.02910225 -0.74037734 3.02910225 -2 1 C-1.34 0.67 -0.68 0.34 0 0 Z " fill="#14171C" transform="translate(108,203)"/>
<path d="M0 0 C0.598125 0.20625 1.19625 0.4125 1.8125 0.625 C0.8225 0.955 -0.1675 1.285 -1.1875 1.625 C-1.92073796 3.64008358 -1.92073796 3.64008358 -2.1875 5.625 C-2.5175 4.635 -2.8475 3.645 -3.1875 2.625 C-3.8475 2.295 -4.5075 1.965 -5.1875 1.625 C-2.1875 -0.375 -2.1875 -0.375 0 0 Z " fill="#17181D" transform="translate(574.1875,313.375)"/>
<path d="M0 0 C0.99 0.33 1.98 0.66 3 1 C-0.465 3.97 -0.465 3.97 -4 7 C-4 6.01 -4 5.02 -4 4 C-3.34 4 -2.68 4 -2 4 C-2 3.01 -2 2.02 -2 1 C-1.34 0.67 -0.68 0.34 0 0 Z " fill="#1F2022" transform="translate(494,209)"/>
<path d="M0 0 C0.99 0 1.98 0 3 0 C3 1.98 3 3.96 3 6 C2.67 5.34 2.34 4.68 2 4 C1.01 4.33 0.02 4.66 -1 5 C-0.67 3.35 -0.34 1.7 0 0 Z " fill="#1E1F24" transform="translate(465,287)"/>
<path d="M0 0 C1.5 1.3125 1.5 1.3125 3 3 C3 3.99 3 4.98 3 6 C1.02 6.99 1.02 6.99 -1 8 C-0.67 5.36 -0.34 2.72 0 0 Z " fill="#15191C" transform="translate(481,199)"/>
</svg>
