<svg width="96" height="96" viewBox="0 0 96 96" fill="none" xmlns="http://www.w3.org/2000/svg">
<g filter="url(#filter0_d_5239_21580)">
<rect x="9" y="9" width="72" height="72" fill="white"/>
<rect x="8.04" y="8.04" width="73.92" height="73.92" stroke="#150C09" stroke-width="1.92"/>
</g>
<rect x="9" y="57" width="24" height="24" fill="#E3DCDA"/>
<rect x="33" y="33" width="24" height="24" fill="#E3DCDA"/>
<rect x="9" y="9" width="24" height="24" fill="#E3DCDA"/>
<path d="M33 9V81" stroke="black" stroke-width="1.92"/>
<path d="M57 9V81" stroke="black" stroke-width="1.92"/>
<path d="M9 33H81" stroke="black" stroke-width="1.92"/>
<path d="M9 57H81" stroke="black" stroke-width="1.92"/>
<path d="M13.4549 78.0895C12.9392 78.0895 12.4811 78.0011 12.0806 77.8242C11.6821 77.6452 11.3689 77.3991 11.1409 77.0859C10.913 76.7727 10.7979 76.4126 10.7958 76.0057H12.5855C12.5877 76.1314 12.626 76.2443 12.7006 76.3445C12.7773 76.4425 12.8817 76.5192 13.0138 76.5746C13.1459 76.63 13.2972 76.6577 13.4676 76.6577C13.6317 76.6577 13.7766 76.6289 13.9023 76.5714C14.028 76.5117 14.126 76.4297 14.1963 76.3253C14.2666 76.2209 14.3007 76.1016 14.2986 75.9673C14.3007 75.8352 14.2603 75.718 14.1772 75.6158C14.0962 75.5135 13.9822 75.4336 13.8352 75.3761C13.6882 75.3185 13.5188 75.2898 13.327 75.2898H12.6622V74.0625H13.327C13.5039 74.0625 13.6594 74.0337 13.7936 73.9762C13.93 73.9187 14.0355 73.8388 14.11 73.7365C14.1867 73.6342 14.224 73.517 14.2219 73.3849C14.224 73.2571 14.1931 73.1442 14.1292 73.0462C14.0653 72.9482 13.9758 72.8714 13.8608 72.8161C13.7478 72.7607 13.6168 72.733 13.4676 72.733C13.3057 72.733 13.1608 72.7617 13.033 72.8192C12.9073 72.8768 12.8082 72.9567 12.7358 73.0589C12.6633 73.1612 12.626 73.2784 12.6239 73.4105H10.9236C10.9257 73.0099 11.0355 72.6562 11.2528 72.3494C11.4723 72.0426 11.7727 71.8018 12.1541 71.6271C12.5355 71.4524 12.9733 71.3651 13.4676 71.3651C13.9513 71.3651 14.3785 71.4471 14.7492 71.6112C15.1221 71.7752 15.413 72.0011 15.6218 72.2887C15.8327 72.5742 15.9371 72.9013 15.935 73.2699C15.9392 73.6364 15.8135 73.9368 15.5578 74.1712C15.3043 74.4055 14.9826 74.544 14.5926 74.5866V74.6378C15.121 74.6953 15.5184 74.8572 15.7848 75.1236C16.0511 75.3878 16.1821 75.7202 16.1779 76.1207C16.18 76.5043 16.0649 76.8441 15.8327 77.1403C15.6026 77.4364 15.2819 77.6687 14.8707 77.837C14.4616 78.0053 13.9897 78.0895 13.4549 78.0895Z" fill="black"/>
<path d="M48.5255 42V40.7216L50.9672 38.7017C51.1292 38.5675 51.2677 38.4418 51.3827 38.3246C51.4999 38.2053 51.5894 38.0827 51.6512 37.957C51.7151 37.8313 51.7471 37.6918 51.7471 37.5384C51.7471 37.37 51.7108 37.2262 51.6384 37.1069C51.5681 36.9876 51.4701 36.896 51.3444 36.832C51.2187 36.766 51.0738 36.733 50.9097 36.733C50.7457 36.733 50.6008 36.766 50.4751 36.832C50.3515 36.8981 50.2556 36.995 50.1874 37.1229C50.1192 37.2507 50.0851 37.4062 50.0851 37.5895H48.3976C48.3976 37.1293 48.501 36.733 48.7077 36.4006C48.9143 36.0682 49.2062 35.8125 49.5834 35.6335C49.9605 35.4545 50.4026 35.3651 50.9097 35.3651C51.4339 35.3651 51.8877 35.4492 52.2712 35.6175C52.6569 35.7837 52.9541 36.0181 53.1629 36.3207C53.3738 36.6232 53.4793 36.978 53.4793 37.3849C53.4793 37.6364 53.4271 37.8867 53.3227 38.136C53.2183 38.3832 53.0308 38.657 52.7602 38.9574C52.4896 39.2578 52.105 39.6158 51.6064 40.0312L50.9928 40.5426V40.581H53.5496V42H48.5255Z" fill="black"/>
<path d="M28.3671 11.4545V18H26.5901V13.0909H26.5518L25.1199 13.9474V12.4389L26.7307 11.4545H28.3671Z" fill="black"/>
<path d="M33 33L57 57" stroke="#150C09" stroke-width="1.92"/>
<path d="M9 9L33 33" stroke="#150C09" stroke-width="1.92"/>
<path d="M7.5 57L33 82.5" stroke="#150C09" stroke-width="1.92"/>
<defs>
<filter id="filter0_d_5239_21580" x="7.08" y="7.08008" width="81.84" height="81.8398" filterUnits="userSpaceOnUse" color-interpolation-filters="sRGB">
<feFlood flood-opacity="0" result="BackgroundImageFix"/>
<feColorMatrix in="SourceAlpha" type="matrix" values="0 0 0 0 0 0 0 0 0 0 0 0 0 0 0 0 0 0 127 0" result="hardAlpha"/>
<feOffset dx="6" dy="6"/>
<feComposite in2="hardAlpha" operator="out"/>
<feColorMatrix type="matrix" values="0 0 0 0 0.0823529 0 0 0 0 0.0470588 0 0 0 0 0.0352941 0 0 0 1 0"/>
<feBlend mode="normal" in2="BackgroundImageFix" result="effect1_dropShadow_5239_21580"/>
<feBlend mode="normal" in="SourceGraphic" in2="effect1_dropShadow_5239_21580" result="shape"/>
</filter>
</defs>
</svg>
