<?xml version="1.0" encoding="UTF-8"?>
<svg version="1.1" xmlns="http://www.w3.org/2000/svg" width="192" height="192">
<path d="M0 0 C63.36 0 126.72 0 192 0 C192 63.36 192 126.72 192 192 C128.64 192 65.28 192 0 192 C0 128.64 0 65.28 0 0 Z " fill="#111920" transform="translate(0,0)"/>
<path d="M0 0 C13.2 0 26.4 0 40 0 C39.67 37.95 39.34 75.9 39 115 C61.11 115 83.22 115 106 115 C106 125.56 106 136.12 106 147 C71.02 147 36.04 147 0 147 C0 98.49 0 49.98 0 0 Z " fill="#704EBB" transform="translate(36,23)"/>
<path d="M0 0 C6.73344227 3.4207327 11.72610355 9.11581064 14.125 16.3125 C15.01545492 24.67005551 14.19598502 31.44528655 9.125 38.3125 C3.55599098 43.82433233 -2.132074 46.36116079 -9.96020508 46.55664062 C-15.76892051 46.51602233 -20.34901078 45.17679914 -25.69921875 43.03125 C-27.00763481 42.53183899 -27.00763481 42.53183899 -28.34248352 42.02233887 C-31.08941784 40.96940212 -33.8257379 39.89156206 -36.5625 38.8125 C-38.43880556 38.08816406 -40.31575445 37.3654923 -42.19335938 36.64453125 C-46.76155944 34.88631305 -51.32042951 33.10571309 -55.875 31.3125 C-54.170623 27.62383708 -52.34880507 25.83050159 -49.125 23.3125 C-45.20783654 20.20135838 -41.37322766 17.03768055 -37.60375977 13.74926758 C-14.7802299 -6.15016278 -14.7802299 -6.15016278 0 0 Z " fill="#4B91C7" transform="translate(148.875,31.6875)"/>
<path d="M0 0 C5.71740276 2.11029692 10.45068596 5.38842092 15.5 8.75 C16.43714844 9.3584375 17.37429687 9.966875 18.33984375 10.59375 C23.97894174 14.33715122 28.90245194 17.80490387 32 24 C32.5238576 29.25575165 32.66505372 33.64526095 30.3125 38.4375 C26.6038159 42.54712292 23.41532795 45.64141996 17.73046875 46.23828125 C11.91872264 46.4079021 8.54019896 45.99969908 4 42 C-0.70913146 36.65449943 -1.1631216 33.35465562 -1.125 26.375 C-1.12306641 25.53283936 -1.12113281 24.69067871 -1.11914062 23.82299805 C-1.06528507 15.85611517 -0.61347255 7.94227852 0 0 Z " fill="#4B91C8" transform="translate(93,77)"/>
<path d="M0 0 C3.00635535 0.30063553 6.00086612 0.63723556 9 1 C10.00933594 1.11085938 11.01867187 1.22171875 12.05859375 1.3359375 C19.68920233 2.34573089 23.58805656 3.69798436 28.4375 9.8125 C29.34304597 13.33406764 29.07418575 16.57348343 28 20 C25.37433009 23.16426887 23.18666688 25.61514663 19.046875 26.34375 C15.82952895 26.56261708 13.1488754 26.64640597 10.28515625 25.03515625 C4.43279257 19.18279257 2.31968873 9.72406991 0 2 C0 1.34 0 0.68 0 0 Z " fill="#4A90C6" transform="translate(135,91)"/>
<path d="M0 0 C13.2 0 26.4 0 40 0 C40 3.96 40 7.92 40 12 C26.8 12 13.6 12 0 12 C0 8.04 0 4.08 0 0 Z " fill="#5EA242" transform="translate(36,23)"/>
</svg>
