<?xml version="1.0" encoding="UTF-8"?>
<svg version="1.1" xmlns="http://www.w3.org/2000/svg" width="152" height="146">
<path d="M0 0 C2.28255595 1.70599338 4.43314365 3.49040565 6.5703125 5.375 C7.32054688 6.03113281 8.07078125 6.68726562 8.84375 7.36328125 C20.0987977 17.86927288 28.6640566 33.32616506 29.74731445 48.92358398 C30.23870581 70.55459255 27.41399358 88.54195959 12.5703125 105.375 C11.91417969 106.12523438 11.25804688 106.87546875 10.58203125 107.6484375 C0.07603962 118.9034852 -15.38085256 127.4687441 -30.97827148 128.55200195 C-52.60928005 129.04339331 -70.59664709 126.21868108 -87.4296875 111.375 C-88.17992188 110.71886719 -88.93015625 110.06273438 -89.703125 109.38671875 C-100.9581727 98.88072712 -109.5234316 83.42383494 -110.60668945 67.82641602 C-111.09808081 46.19540745 -108.27336858 28.20804041 -93.4296875 11.375 C-92.77355469 10.62476562 -92.11742188 9.87453125 -91.44140625 9.1015625 C-67.94311646 -16.07210809 -28.11920158 -18.80641135 0 0 Z " fill="#F5F5F3" transform="translate(116.4296875,14.625)"/>
<path d="M0 0 C4.68597212 2.64169344 7.40547853 6.00608122 10.0625 10.6875 C11.05968911 14.58560288 10.90689329 18.37422098 10.75 22.375 C5 21.5 5 21.5 2.75 20.375 C1.90307099 18.14903998 1.28153701 15.89136413 0.62890625 13.6015625 C-0.34787577 11.12704806 -1.10214791 9.94021635 -3.25 8.375 C-8.58482065 7.33974634 -13.94057402 7.84234166 -18.52734375 10.921875 C-26.05462924 17.27142194 -30.52286954 24.27247237 -33.1875 33.6875 C-34.53118698 37.08623765 -36.30044298 38.28872796 -39.25 40.375 C-40.26421583 41.36057915 -41.26733719 42.35795831 -42.25 43.375 C-43.07659689 30.21833283 -39.71518928 20.50206693 -31.25 10.375 C-23.01086184 1.58772791 -11.95502898 -5.30588365 0 0 Z " fill="#0B5CFE" transform="translate(59.25,23.625)"/>
<path d="M0 0 C0.91289615 13.11020309 -3.36121541 22.90949101 -11.58984375 32.9375 C-17.76889666 39.68357188 -25.67616965 43.36835911 -34.6875 44.4375 C-40.16986377 44.33502591 -44.11636289 41.71544811 -48 38 C-51.7823867 32.45111402 -52.58234108 26.57812803 -53 20 C-46.25 20.875 -46.25 20.875 -44 22 C-43.71125 23.258125 -43.4225 24.51625 -43.125 25.8125 C-42.21284325 29.63258503 -41.48900093 31.85292251 -38 34 C-33.21784676 34.99038677 -29.18686843 34.47634242 -24.9375 32.0625 C-16.2441363 25.82821527 -12.49163975 19.29741219 -9.29296875 9.19921875 C-7.8728735 5.68544832 -4.47808364 0 0 0 Z " fill="#FE0A5B" transform="translate(135,79)"/>
<path d="M0 0 C4.14613314 2.62306382 6.89031836 5.16655139 9.6875 9.1875 C10.120625 9.80625 10.55375 10.425 11 11.0625 C12.65268348 16.1707944 12.22933802 20.60042586 10 25.375 C7.41730931 30.03666511 4.11177019 33.23798654 -0.3125 36.1875 C-1.3025 36.1875 -2.2925 36.1875 -3.3125 36.1875 C-4.74985246 33.31279507 -4.69422649 31.36855412 -4.3125 28.1875 C-1.9375 26.125 -1.9375 26.125 0.6875 24.1875 C2.33218966 21.34667241 2.68021211 19.53003066 2.75 16.25 C1.03093817 11.29505706 -2.6319194 8.65273262 -7.15625 6.1796875 C-15.25617874 2.52050917 -24.40806595 1.95084506 -32.9375 4.375 C-37.93727752 5.6859724 -41.69792441 4.21660416 -46.3125 2.1875 C-34.67630303 -10.51623798 -13.64590968 -7.63449573 0 0 Z " fill="#9079BB" transform="translate(98.3125,16.8125)"/>
<path d="M0 0 C-1.36983503 3.16115776 -1.9890638 3.9927092 -5 6 C-8.32738222 5.81779654 -11.57115959 5.35644884 -14.87109375 4.8984375 C-18.06084487 4.70664475 -18.06084487 4.70664475 -20.328125 6.7109375 C-23.70489341 11.33426995 -24.05305119 16.32888754 -23.875 21.9375 C-22.58038568 29.26879909 -20.12031559 35.10650775 -14.875 40.4375 C-10.3466876 45.13415115 -9.47691531 49.62125767 -9 56 C-19.5527008 52.29079058 -25.18003599 43.59498727 -29.99609375 34.01953125 C-33.48218568 26.46355208 -34.58920122 16.7441008 -32.3515625 8.65625 C-30.09177614 3.63450254 -26.55258497 0.05266138 -22 -3 C-13.98863123 -5.67045626 -7.40998242 -3.46521098 0 0 Z " fill="#7382CE" transform="translate(50,64)"/>
<path d="M0 0 C2 2 2 2 2.4375 5.3125 C1.89590913 9.87733731 0.46826014 11.12388184 -3 14 C-4.36607015 15.14913969 -4.36607015 15.14913969 -4.25 18.25 C-3.98035512 22.29467316 -3.52493184 23.8859174 -1 27 C5.84750016 32.21005447 11.06559404 33.30995282 19.4375 33.1875 C20.68756836 33.1865332 20.68756836 33.1865332 21.96289062 33.18554688 C25.51407165 33.16028156 28.7904424 33.03828217 32.29296875 32.3984375 C35.34175505 31.94969839 37.01750355 32.35511498 39.875 33.4375 C41.04675781 33.86869141 41.04675781 33.86869141 42.2421875 34.30859375 C42.82226562 34.53675781 43.40234375 34.76492187 44 35 C41.65276062 37.68475092 39.43528366 38.84717014 36.125 40.125 C35.28195313 40.45757812 34.43890625 40.79015625 33.5703125 41.1328125 C22.77741599 44.77418488 11.05240395 43.74266663 0.78125 38.96875 C-5.10839549 35.61618257 -10.82237236 30.53288291 -13 24 C-13.60586623 18.31876254 -13.55878449 13.45853784 -10.34765625 8.6015625 C-7.44727665 5.15473457 -4.04460211 2.02230105 0 0 Z " fill="#AD6FA7" transform="translate(56,91)"/>
<path d="M0 0 C9.08505756 3.24353875 15.81056265 10.91663228 20.22265625 19.33203125 C24.59826628 28.78899487 25.95051886 39.48639496 22.4375 49.5 C20.23727445 54.33263825 17.58623001 56.41503399 13 59 C4.98863123 61.67045626 -1.59001758 59.46521098 -9 56 C-7.63016497 52.83884224 -7.0109362 52.0072908 -4 50 C-1.0390625 50.19921875 -1.0390625 50.19921875 2.375 50.6875 C7.66903895 51.30131761 7.66903895 51.30131761 12.25 48.75 C15.8253738 43.13155546 15.5537017 37.4703999 15 31 C13.21531144 23.58171623 9.14082903 17.55867967 4 12 C3.34 11.67 2.68 11.34 2 11 C1.3671875 8.49609375 1.3671875 8.49609375 0.875 5.4375 C0.70742187 4.42558594 0.53984375 3.41367187 0.3671875 2.37109375 C0.24601562 1.58863281 0.12484375 0.80617188 0 0 Z " fill="#C86494" transform="translate(111,25)"/>
<path d="M0 0 C0.125 5.75 0.125 5.75 -1 8 C-1.6290625 7.95359375 -2.258125 7.9071875 -2.90625 7.859375 C-10.32087151 7.54671024 -15.20727482 8.79673722 -20.91015625 13.61328125 C-24.53221124 17.08153348 -27.39366056 20.72560332 -30 25 C-32.3431213 24.74438677 -34.67843403 24.40729228 -37 24 C-37.33 23.34 -37.66 22.68 -38 22 C-34.10392262 12.67409531 -26.48172034 4.96810229 -17.5 0.4375 C-11.81811537 -1.7867253 -5.77185507 -1.92395169 0 0 Z " fill="#FE0A5B" transform="translate(124,61)"/>
<path d="M0 0 C3.34448359 0.33444836 5.52337009 1.78872329 8 4 C8 4.66 8 5.32 8 6 C6.78183594 7.07894531 6.78183594 7.07894531 5.5390625 8.1796875 C1.57953559 12.57780815 2.32688398 16.42932517 2.48828125 22.1171875 C3.12403012 26.941114 4.64414239 30.60740915 7.00390625 34.828125 C8 37 8 37 7 40 C6.34 40 5.68 40 5 40 C4.34 41.32 3.68 42.64 3 44 C-3.01490868 38.47348134 -5.85003096 31.61402238 -6.45703125 23.4921875 C-6.51097185 21.91198781 -6.5461973 20.33103602 -6.5625 18.75 C-6.57700195 18.0060498 -6.59150391 17.26209961 -6.60644531 16.49560547 C-6.49001833 10.10206011 -4.57782508 4.57782508 0 0 Z " fill="#9D76B3" transform="translate(89,26)"/>
<path d="M0 0 C0.61875 1.60875 0.61875 1.60875 1.25 3.25 C3.74730426 9.01122286 7.28662759 11.52881816 13 14 C15.77547926 14.59827831 18.55145606 14.9092303 21.375 15.1875 C22.11105469 15.26935547 22.84710938 15.35121094 23.60546875 15.43554688 C25.40254625 15.63392556 27.20114893 15.81840577 29 16 C29.495 19.96 29.495 19.96 30 24 C17.80944094 24.74941961 8.2516012 23.59221916 -1.5625 15.5625 C-4.57136485 12.68499931 -6.5868728 9.97442025 -8 6 C-8 4.68 -8 3.36 -8 2 C-4.91190305 0.23537317 -3.76687864 0 0 0 Z " fill="#6886D5" transform="translate(51,34)"/>
<path d="M0 0 C2.64 0.33 5.28 0.66 8 1 C6.23477565 9.90635921 -0.94645721 16.80943612 -8 22 C-14.11374718 25.80768465 -19.85150955 26.82430608 -27 26 C-27.66 25.67 -28.32 25.34 -29 25 C-29 22.36 -29 19.72 -29 17 C-28.01 17 -27.02 17 -26 17 C-19.04522935 16.84638057 -13.5704879 15.28257434 -8 11 C-5.71417046 8.49437916 -3.82189235 5.85529358 -2 3 C-1.34 2.01 -0.68 1.02 0 0 Z " fill="#085AFE" transform="translate(58,59)"/>
<path d="M0 0 C3 1 3 1 4.31640625 3.0390625 C8.99491505 12.74806821 12.17021939 22.08885542 9.20703125 32.890625 C7.65484082 36.9584344 6.27747004 40.0606071 3 43 C-1.67692308 41.52307692 -1.67692308 41.52307692 -3.3125 38.875 C-3.539375 38.25625 -3.76625 37.6375 -4 37 C-3.360625 36.21625 -2.72125 35.4325 -2.0625 34.625 C1.84533574 29.65139088 1.59232257 25.17262468 1 19 C0.16056636 16.03908863 -0.85827735 13.25530352 -2.02734375 10.41015625 C-3.6841461 6.3047464 -3.6841461 6.3047464 -4 4 C-2.0625 1.75 -2.0625 1.75 0 0 Z " fill="#A073AF" transform="translate(60,76)"/>
<path d="M0 0 C12.44632581 -0.6046798 21.74728966 -0.01118954 31.5625 8.5 C35.24762867 11.94338423 37.88985505 14.57681116 38.125 19.75 C38.08375 20.4925 38.0425 21.235 38 22 C35.09399739 23.25664978 33.20395416 24 30 24 C29.773125 22.9275 29.54625 21.855 29.3125 20.75 C27.50292234 15.57977813 24.936162 14.10920068 20.3203125 11.46484375 C16.6060286 9.82618909 13.11820727 9.23426317 9.125 8.8125 C8.43664062 8.73064453 7.74828125 8.64878906 7.0390625 8.56445312 C5.36052643 8.36629262 3.68039519 8.18172213 2 8 C1.34 5.36 0.68 2.72 0 0 Z " fill="#D3628D" transform="translate(71,87)"/>
</svg>
