<?xml version="1.0" encoding="UTF-8"?>
<svg version="1.1" xmlns="http://www.w3.org/2000/svg" width="200" height="200">
<path d="M0 0 C66 0 132 0 200 0 C200 66 200 132 200 200 C134 200 68 200 0 200 C0 134 0 68 0 0 Z " fill="#F7F7F8" transform="translate(0,0)"/>
<path d="M0 0 C1.56226067 -0.01913956 1.56226067 -0.01913956 3.15608215 -0.03866577 C4.28108627 -0.04089142 5.40609039 -0.04311707 6.56518555 -0.04541016 C8.30205879 -0.05539536 8.30205879 -0.05539536 10.07402039 -0.06558228 C12.52605601 -0.07571529 14.97811924 -0.0803991 17.43017578 -0.08007812 C21.17681566 -0.08444342 24.92227041 -0.12073664 28.66870117 -0.15869141 C31.0508586 -0.16456098 33.43302163 -0.16852943 35.81518555 -0.17041016 C37.49358269 -0.19196671 37.49358269 -0.19196671 39.20588684 -0.21395874 C43.7026105 -0.18763099 47.31679334 0.09748233 51.59643555 1.5402832 C55.39422535 6.0954474 54.72494445 11.0138656 54.65112305 16.75537109 C54.65449173 17.98083145 54.65786041 19.20629181 54.66133118 20.46888733 C54.66103217 23.06043697 54.645769 25.65202159 54.61669922 28.2434082 C54.5770835 32.21008365 54.59597065 36.17340766 54.62182617 40.14013672 C54.6142659 42.65772782 54.60331128 45.17531149 54.58862305 47.69287109 C54.5990992 49.47273659 54.5990992 49.47273659 54.60978699 51.28855896 C54.52873768 56.01733768 54.39774228 59.35051782 52.12817383 63.54736328 C47.00323422 66.30569803 42.09488741 65.90430614 36.36987305 65.77880859 C34.54931145 65.76819649 34.54931145 65.76819649 32.69197083 65.75737 C28.81965218 65.72940624 24.94878513 65.66665825 21.0769043 65.60302734 C18.44997207 65.5779473 15.82301715 65.55513363 13.19604492 65.53466797 C6.76000369 65.47957265 0.3248077 65.39592389 -6.1105957 65.29052734 C-6.7705957 63.97052734 -7.4305957 62.65052734 -8.1105957 61.29052734 C-8.7705957 61.29052734 -9.4305957 61.29052734 -10.1105957 61.29052734 C-10.16126307 53.53095281 -10.19631554 45.77142087 -10.22045898 38.01171875 C-10.2305229 35.37140305 -10.24417522 32.73109852 -10.26147461 30.09082031 C-10.28570542 26.29798632 -10.29707494 22.50529956 -10.3059082 18.71240234 C-10.31623077 17.52998962 -10.32655334 16.3475769 -10.33718872 15.1293335 C-10.33733978 14.02849426 -10.33749084 12.92765503 -10.33764648 11.79345703 C-10.34208771 10.82527039 -10.34652893 9.85708374 -10.35110474 8.85955811 C-10.0960388 6.13503579 -9.61002325 4.56663706 -8.1105957 2.29052734 C-4.82500569 0.100134 -3.81715985 0.03174205 0 0 Z " fill="#000000" transform="translate(78.110595703125,134.70947265625)"/>
<path d="M0 0 C1.10794922 -0.01260864 2.21589844 -0.02521729 3.35742188 -0.03820801 C4.54916016 -0.03011108 5.74089844 -0.02201416 6.96875 -0.01367188 C8.19658203 -0.01749878 9.42441406 -0.02132568 10.68945312 -0.02526855 C13.28516459 -0.02799029 15.88090336 -0.02061099 18.4765625 -0.00390625 C22.45374599 0.01749738 26.42912282 -0.0037015 30.40625 -0.02929688 C32.92708733 -0.02665365 35.44792353 -0.02152878 37.96875 -0.01367188 C39.16048828 -0.0217688 40.35222656 -0.02986572 41.58007812 -0.03820801 C43.24200195 -0.01929504 43.24200195 -0.01929504 44.9375 0 C45.91138672 0.00318237 46.88527344 0.00636475 47.88867188 0.00964355 C51.25330491 0.6720318 52.42675164 1.79655106 54.46875 4.51757812 C55.02378845 6.72233582 55.02378845 6.72233582 55.09741211 9.14331055 C55.13261459 10.05493454 55.16781708 10.96655853 55.2040863 11.9058075 C55.21794876 12.88499649 55.23181122 13.86418549 55.24609375 14.87304688 C55.26652237 15.88925613 55.28695099 16.90546539 55.30799866 17.95246887 C55.34138267 20.10334114 55.36334887 22.25441649 55.37475586 24.40551758 C55.40600011 27.67889769 55.51711623 30.94343299 55.63085938 34.21484375 C55.91979791 50.44670255 55.91979791 50.44670255 52.09423828 54.90673828 C49.31196641 57.19358148 46.66158209 58.8719483 43.46875 60.51757812 C42.84718018 61.06381836 42.22561035 61.61005859 41.58520508 62.17285156 C38.51320763 64.1246986 35.45419916 64.12051004 31.9140625 64.23242188 C31.17606415 64.25663712 30.4380658 64.28085236 29.67770386 64.30580139 C28.1128225 64.34723726 26.54767331 64.37944306 24.98242188 64.40307617 C23.40704936 64.43737241 21.83200131 64.49832672 20.25878906 64.58764648 C10.34856261 65.14925387 2.31624568 64.15828244 -5.36346436 57.40208435 C-11.52428862 50.73198756 -11.18207837 42.58433856 -10.95703125 33.95117188 C-10.90756348 32.89526855 -10.8580957 31.83936523 -10.80712891 30.75146484 C-10.6552225 27.49555504 -10.60214492 24.24930775 -10.56640625 20.99023438 C-10.52126039 18.91588532 -10.47067503 16.84164591 -10.4140625 14.76757812 C-10.39078888 13.79780029 -10.36751526 12.82802246 -10.34353638 11.82885742 C-10.29865082 10.9269165 -10.25376526 10.02497559 -10.20751953 9.09570312 C-10.17417511 8.30583008 -10.14083069 7.51595703 -10.10647583 6.70214844 C-8.68715035 1.31188925 -5.17392039 0.01690684 0 0 Z " fill="#000202" transform="translate(77.53125,0.482421875)"/>
<path d="M0 0 C0 12.21 0 24.42 0 37 C6.6 37 13.2 37 20 37 C20 24.79 20 12.58 20 0 C25.94 0 31.88 0 38 0 C42.50143328 4.50143328 42.50143328 4.50143328 42.53344727 9.62304688 C42.5492836 10.75101685 42.56511993 11.87898682 42.58143616 13.0411377 C42.57647629 14.25474976 42.57151642 15.46836182 42.56640625 16.71875 C42.57260483 17.96877808 42.57880341 19.21880615 42.58518982 20.50671387 C42.59229504 23.15006344 42.59104584 25.79189233 42.57641602 28.43505859 C42.55922018 31.81836512 42.58273289 35.19997457 42.61790562 38.58309174 C42.64517209 41.81583163 42.63514405 45.04842754 42.62890625 48.28125 C42.64216446 49.49486206 42.65542267 50.70847412 42.66908264 51.9588623 C42.65028297 53.65081726 42.65028297 53.65081726 42.63110352 55.37695312 C42.63014175 56.36860474 42.62917999 57.36025635 42.62818909 58.38195801 C42 61 42 61 39.83453369 63.32305908 C36.57057504 65.25405247 34.78189743 65.48635458 31.01635742 65.45410156 C29.83551071 65.45379944 28.654664 65.45349731 27.43803406 65.45318604 C26.17328751 65.43254089 24.90854095 65.41189575 23.60546875 65.390625 C22.30297684 65.38496521 21.00048492 65.37930542 19.65852356 65.37347412 C16.20753899 65.35825289 12.75723538 65.31900316 9.30651855 65.2746582 C5.78061127 65.23362858 2.25459319 65.21544682 -1.27148438 65.1953125 C-8.18126807 65.15250415 -15.09060128 65.08429651 -22 65 C-22.06948567 57.09843395 -22.12280364 49.19699537 -22.15543652 41.29519939 C-22.17109805 37.62613324 -22.19234475 33.95727599 -22.22631836 30.28833008 C-22.25889514 26.74811053 -22.27684934 23.20809201 -22.28463173 19.66773415 C-22.29287924 17.65852345 -22.31630137 15.64939372 -22.33988953 13.64030457 C-22.34011612 12.41926529 -22.34034271 11.19822601 -22.34057617 9.94018555 C-22.34723801 8.86318893 -22.35389984 7.78619232 -22.36076355 6.67655945 C-22 4 -22 4 -20.66621399 2.1912384 C-14.51827123 -2.20415472 -7.79845348 0 0 0 Z " fill="#000001" transform="translate(22,135)"/>
<path d="M0 0 C5.94 0 11.88 0 18 0 C18 12.21 18 24.42 18 37 C24.93 37 31.86 37 39 37 C39 24.79 39 12.58 39 0 C54 0 54 0 60 4 C60.7215271 6.79681396 60.7215271 6.79681396 60.68115234 10.05371094 C60.68047256 11.88515656 60.68047256 11.88515656 60.67977905 13.75360107 C60.64881134 15.06725647 60.61784363 16.38091187 60.5859375 17.734375 C60.57474139 19.09627411 60.56620315 20.45819745 60.56021118 21.82012939 C60.53734395 25.39808326 60.47844379 28.97456659 60.4119873 32.55194092 C60.35051638 36.20499782 60.32318621 39.8582933 60.29296875 43.51171875 C60.22869432 50.6751483 60.12634546 57.83736781 60 65 C52.24614942 65.09272074 44.49242894 65.16377508 36.73816299 65.20724869 C33.13741714 65.22811513 29.53705084 65.25641421 25.93652344 65.30175781 C22.46112087 65.34525125 18.98608312 65.36914421 15.51042938 65.37950897 C13.54054216 65.39048615 11.57080153 65.421707 9.60113525 65.45318604 C7.79972076 65.45363922 7.79972076 65.45363922 5.96191406 65.45410156 C4.3763974 65.46742523 4.3763974 65.46742523 2.7588501 65.48101807 C-0.77546223 64.86479463 -1.92578669 63.90319688 -4 61 C-4.50793457 58.38195801 -4.50793457 58.38195801 -4.51757812 55.37695312 C-4.53018677 54.24898315 -4.54279541 53.12101318 -4.55578613 51.9588623 C-4.54768921 50.74525024 -4.53959229 49.53163818 -4.53125 48.28125 C-4.5350769 47.03122192 -4.53890381 45.78119385 -4.54284668 44.49328613 C-4.54556914 41.84994095 -4.54019953 39.20807514 -4.52148438 36.56494141 C-4.49869354 33.18182509 -4.51181983 29.79997803 -4.53577423 26.41690826 C-4.55372684 23.18414367 -4.54114701 19.95153118 -4.53125 16.71875 C-4.53934692 15.50513794 -4.54744385 14.29152588 -4.55578613 13.0411377 C-4.54317749 11.91316772 -4.53056885 10.78519775 -4.51757812 9.62304688 C-4.51439575 8.63139526 -4.51121338 7.63974365 -4.50793457 6.61804199 C-4 4 -4 4 0 0 Z " fill="#010304" transform="translate(140,135)"/>
<path d="M0 0 C1.15129395 -0.00938095 2.30258789 -0.0187619 3.48876953 -0.02842712 C4.73255371 -0.01719315 5.97633789 -0.00595917 7.2578125 0.00561523 C9.17182861 0.00343239 9.17182861 0.00343239 11.12451172 0.00120544 C13.8250894 0.00286709 16.52426427 0.01238014 19.22460938 0.03515625 C22.68503592 0.06354208 26.14458018 0.06080443 29.60507202 0.04806614 C32.90604243 0.03943712 36.20686974 0.05455496 39.5078125 0.06811523 C40.75159668 0.0651796 41.99538086 0.06224396 43.27685547 0.05921936 C44.42814941 0.07190353 45.57944336 0.08458771 46.765625 0.09765625 C47.78027832 0.10305923 48.79493164 0.10846222 49.84033203 0.11402893 C52.3828125 0.50170898 52.3828125 0.50170898 54.21260071 1.75323486 C55.68731618 3.95668373 55.74609316 5.24005868 55.72338867 7.88134766 C55.72316208 8.76203415 55.72293549 9.64272064 55.72270203 10.5500946 C55.70721817 11.49705704 55.69173431 12.44401947 55.67578125 13.41967773 C55.67153641 14.39205887 55.66729156 15.36444 55.66291809 16.36628723 C55.64611565 19.47420864 55.60846029 22.58148332 55.5703125 25.68920898 C55.5552677 27.79531942 55.54157894 29.90144 55.52929688 32.00756836 C55.49620694 37.17253136 55.44441359 42.3370105 55.3828125 47.50170898 C51.37761428 45.62803952 48.26288231 43.00825533 44.9453125 40.12670898 C43.27233562 38.68667826 41.59865613 37.2488277 39.90942383 35.82788086 C38.58825966 34.68018155 37.34404092 33.44502755 36.1171875 32.19702148 C31.9484227 29.61238731 27.88113042 29.82778162 23.0703125 29.75170898 C19.8734375 29.66920898 16.6765625 29.58670898 13.3828125 29.50170898 C13.3828125 40.72170898 13.3828125 51.94170898 13.3828125 63.50170898 C8.773125 63.65639648 8.773125 63.65639648 4.0703125 63.81420898 C3.10569092 63.859729 2.14106934 63.90524902 1.1472168 63.95214844 C0.00119995 63.97088013 0.00119995 63.97088013 -1.16796875 63.98999023 C-1.94825439 64.01617432 -2.72854004 64.0423584 -3.5324707 64.06933594 C-5.6171875 63.50170898 -5.6171875 63.50170898 -7.22322083 61.30755615 C-8.73979785 58.25491263 -8.99674894 56.42228329 -9.00537109 53.04052734 C-9.01482758 51.97269516 -9.02428406 50.90486298 -9.0340271 49.80467224 C-9.02491806 48.09042809 -9.02491806 48.09042809 -9.015625 46.34155273 C-9.01849518 45.15952774 -9.02136536 43.97750275 -9.02432251 42.75965881 C-9.02636171 40.26408407 -9.02084201 37.76849329 -9.00830078 35.27294922 C-8.99223181 31.4497514 -9.00816276 27.62760852 -9.02734375 23.80444336 C-9.02536157 21.37931082 -9.02151843 18.95417893 -9.015625 16.52905273 C-9.02169769 15.38419907 -9.02777039 14.2393454 -9.0340271 13.05979919 C-9.02457062 11.99511917 -9.01511414 10.93043915 -9.00537109 9.83349609 C-9.00298431 8.89815536 -9.00059753 7.96281464 -8.99813843 6.99913025 C-8.12062932 1.24639479 -5.52784834 0.00090529 0 0 Z " fill="#010202" transform="translate(8.6171875,0.498291015625)"/>
<path d="M0 0 C1.1280455 -0.00945648 2.256091 -0.01891296 3.4183197 -0.02865601 C4.63709305 -0.02258331 5.85586639 -0.01651062 7.11157227 -0.01025391 C8.36301529 -0.01312408 9.61445831 -0.01599426 10.90382385 -0.01895142 C13.55289711 -0.02099482 16.2011425 -0.01695048 18.85009766 -0.00292969 C22.24089765 0.01414526 25.63098437 0.00433184 29.02175808 -0.01364708 C32.26005481 -0.02711447 35.49826621 -0.01767527 38.73657227 -0.01025391 C39.95332138 -0.0163266 41.1700705 -0.02239929 42.4236908 -0.02865601 C43.55488846 -0.01919952 44.68608612 -0.00974304 45.8515625 0 C46.84623032 0.00238678 47.84089813 0.00477356 48.8657074 0.00723267 C51.99022561 0.4607153 53.34447608 1.07045418 55.49047852 3.38818359 C55.99841309 5.8480072 55.99841309 5.8480072 56.00805664 8.8059082 C56.02066528 9.91393295 56.03327393 11.0219577 56.04626465 12.16355896 C56.03816772 13.36045853 56.0300708 14.55735809 56.02172852 15.79052734 C56.02746887 17.63439781 56.02746887 17.63439781 56.0333252 19.51551819 C56.03674762 22.7841304 56.02063504 26.0519842 55.99829102 29.32049561 C55.98536017 32.63937917 56.01602781 35.95804224 56.03735352 39.27685547 C56.03470997 41.80225008 56.02958445 44.32764357 56.02172852 46.85302734 C56.02982544 48.04790268 56.03792236 49.24277802 56.04626465 50.47386169 C56.03365601 51.5850386 56.02104736 52.69621552 56.00805664 53.84106445 C56.00487427 54.81796738 56.00169189 55.7948703 55.99841309 56.80137634 C55.49047852 59.38818359 55.49047852 59.38818359 51.49047852 63.38818359 C45.88047852 63.38818359 40.27047852 63.38818359 34.49047852 63.38818359 C34.49047852 52.16818359 34.49047852 40.94818359 34.49047852 29.38818359 C27.23047852 29.38818359 19.97047852 29.38818359 12.49047852 29.38818359 C12.49047852 30.04818359 12.49047852 30.70818359 12.49047852 31.38818359 C10.33969258 33.24066357 8.18152537 34.98141228 5.92797852 36.70068359 C5.31889648 37.17441406 4.70981445 37.64814453 4.08227539 38.13623047 C-0.04167863 41.32629437 -4.25986255 44.36855863 -8.50952148 47.38818359 C-8.58360595 41.17686585 -8.63809262 34.96580455 -8.67431641 28.75415039 C-8.68941508 26.64049806 -8.70989574 24.52687711 -8.73583984 22.41333008 C-8.77217545 19.37752544 -8.78923693 16.34213453 -8.80249023 13.30615234 C-8.81797409 12.35918991 -8.83345795 11.41222748 -8.84941101 10.43656921 C-8.8496376 9.55588272 -8.8498642 8.67519623 -8.85009766 7.76782227 C-8.85675949 6.99282883 -8.86342133 6.21783539 -8.87028503 5.4193573 C-8.50952148 3.38818359 -8.50952148 3.38818359 -7.33258057 1.63871765 C-4.81284183 -0.08970637 -3.04417187 0.00731057 0 0 Z " fill="#000101" transform="translate(144.509521484375,0.61181640625)"/>
<path d="M0 0 C3.79702953 1.78901432 6.73345328 4.19132611 9.875 6.9375 C16.74279476 12.85273252 23.83725665 18.4480685 31 24 C34.85350618 22.36825217 37.75984286 19.78477996 40.875 17.0625 C45.73904848 12.88398384 50.66189999 8.795632 55.6875 4.8125 C56.28739746 4.33111572 56.88729492 3.84973145 57.50537109 3.35375977 C61.76308111 0 61.76308111 0 64 0 C64.0760407 6.76262208 64.12859585 13.52513398 64.16479492 20.28808594 C64.17988495 22.5889091 64.20035927 24.88970349 64.22631836 27.19042969 C64.26269147 30.49681702 64.27972432 33.80282416 64.29296875 37.109375 C64.30845261 38.13867126 64.32393646 39.16796753 64.33988953 40.22845459 C64.34011612 41.18914856 64.34034271 42.14984253 64.34057617 43.13964844 C64.35056892 44.40539703 64.35056892 44.40539703 64.36076355 45.69671631 C63.90003809 48.63820372 63.1611017 49.94972449 61 52 C58.50221252 52.5146637 58.50221252 52.5146637 55.49047852 52.53344727 C54.36243301 52.5492836 53.23438751 52.56511993 52.07215881 52.58143616 C50.85338547 52.57647629 49.63461212 52.57151642 48.37890625 52.56640625 C47.12746323 52.57260483 45.8760202 52.57880341 44.58665466 52.58518982 C41.93733151 52.59230114 39.28952204 52.59103045 36.64038086 52.57641602 C33.24919899 52.5592375 29.85971297 52.58270542 26.46872044 52.61790562 C23.23042869 52.6451782 19.99228047 52.63514293 16.75390625 52.62890625 C15.53715714 52.64216446 14.32040802 52.65542267 13.06678772 52.66908264 C4.85897207 52.5781441 4.85897207 52.5781441 1.22729492 50.13378906 C-0.59828838 45.47232351 -0.49284387 41.19289585 -0.390625 36.23046875 C-0.38496521 35.19432938 -0.37930542 34.15819 -0.37347412 33.09065247 C-0.35112666 29.78912692 -0.30093178 26.48869619 -0.25 23.1875 C-0.22993296 20.94597924 -0.21168255 18.70444143 -0.1953125 16.46289062 C-0.15126733 10.9748884 -0.08437118 5.48752243 0 0 Z " fill="#010202" transform="translate(68,80)"/>
<path d="M0 0 C15.24735237 0 15.24735237 0 20.38461304 4.69229126 C23.52148053 9.17355593 23.18124027 13.83932528 23.01953125 19.13671875 C23.01628342 20.2937178 23.01303558 21.45071686 23.00968933 22.64277649 C22.99395087 25.07954531 22.95650458 27.51625906 22.89868164 29.95239258 C22.81252799 33.68628692 22.79617453 37.41559203 22.79101562 41.15039062 C22.76710507 43.52087805 22.7392462 45.89132964 22.70703125 48.26171875 C22.69564873 49.93677742 22.69564873 49.93677742 22.68403625 51.64567566 C22.65528915 52.68387955 22.62654205 53.72208344 22.59692383 54.79174805 C22.57866043 55.70329147 22.56039703 56.6148349 22.5415802 57.55400085 C22 60 22 60 18 64 C12.06 64 6.12 64 0 64 C0 42.88 0 21.76 0 0 Z " fill="#000102" transform="translate(42,68)"/>
<path d="M0 0 C5.94 0 11.88 0 18 0 C18 21.12 18 42.24 18 64 C12.06 64 6.12 64 0 64 C-3.1215272 59.83796373 -3.37655681 59.20643504 -3.38818359 54.36108398 C-3.39764008 53.22988632 -3.40709656 52.09868866 -3.4168396 50.93321228 C-3.41076691 49.71646317 -3.40469421 48.49971405 -3.3984375 47.24609375 C-3.40130768 45.993694 -3.40417786 44.74129425 -3.40713501 43.45094299 C-3.40917652 40.80364858 -3.40514942 38.15718537 -3.39111328 35.51000977 C-3.37400362 32.11801974 -3.38387717 28.72674094 -3.40183067 25.33477688 C-3.41527786 22.09685695 -3.40586367 18.85902295 -3.3984375 15.62109375 C-3.40754654 13.79293373 -3.40754654 13.79293373 -3.4168396 11.92784119 C-3.40738312 10.79979568 -3.39792664 9.67175018 -3.38818359 8.50952148 C-3.38579681 7.51564926 -3.38341003 6.52177704 -3.38095093 5.49778748 C-3 3 -3 3 0 0 Z " fill="#000101" transform="translate(4,68)"/>
<path d="M0 0 C5.94 0 11.88 0 18 0 C21.41494833 3.41494833 21.3787435 3.84359798 21.40405273 8.40185547 C21.41673691 9.50665253 21.42942108 10.61144958 21.44248962 11.74972534 C21.43955399 12.94348785 21.43661835 14.13725037 21.43359375 15.3671875 C21.4388356 16.59406281 21.44407745 17.82093811 21.44947815 19.08499146 C21.45590708 21.68246707 21.45455017 24.27997176 21.44604492 26.87744141 C21.43754827 30.8524164 21.46626595 34.82594881 21.49804688 38.80078125 C21.49965925 41.32291624 21.49908066 43.84505377 21.49609375 46.3671875 C21.51294472 48.15175858 21.51294472 48.15175858 21.53013611 49.97238159 C21.51606468 51.63903366 21.51606468 51.63903366 21.50170898 53.33935547 C21.50154282 54.31403778 21.50137665 55.28872009 21.50120544 56.29293823 C21 59 21 59 17 64 C11.39 64 5.78 64 0 64 C0 42.88 0 21.76 0 0 Z " fill="#000000" transform="translate(179,68)"/>
<path d="M0 0 C0 21.12 0 42.24 0 64 C-5.94 64 -11.88 64 -18 64 C-21.37944128 60.62055872 -21.38499879 60.20520999 -21.4675293 55.70581055 C-21.49312424 54.62426193 -21.51871918 53.54271332 -21.54508972 52.4283905 C-21.5547023 51.25963882 -21.56431488 50.09088715 -21.57421875 48.88671875 C-21.5889473 47.68441116 -21.60367584 46.48210358 -21.61885071 45.24336243 C-21.64282274 42.69721854 -21.65822919 40.15098189 -21.66577148 37.60473633 C-21.68736356 33.71209748 -21.76752948 29.823411 -21.84960938 25.93164062 C-21.86560509 23.45835413 -21.87808995 20.98504192 -21.88671875 18.51171875 C-21.91859787 17.34903976 -21.95047699 16.18636078 -21.98332214 14.9884491 C-21.92018592 7.40135223 -21.92018592 7.40135223 -19.61611938 3.89248657 C-13.40152997 -1.70510206 -8.88744405 0 0 0 Z " fill="#090D0F" transform="translate(158,68)"/>
<path d="M0 0 C1.56226067 -0.01913956 1.56226067 -0.01913956 3.15608215 -0.03866577 C4.28108627 -0.04089142 5.40609039 -0.04311707 6.56518555 -0.04541016 C8.30205879 -0.05539536 8.30205879 -0.05539536 10.07402039 -0.06558228 C12.52605601 -0.07571529 14.97811924 -0.0803991 17.43017578 -0.08007812 C21.17681566 -0.08444342 24.92227041 -0.12073664 28.66870117 -0.15869141 C31.0508586 -0.16456098 33.43302163 -0.16852943 35.81518555 -0.17041016 C37.49358269 -0.19196671 37.49358269 -0.19196671 39.20588684 -0.21395874 C43.7026105 -0.18763099 47.31679334 0.09748233 51.59643555 1.5402832 C55.39422535 6.0954474 54.72494445 11.0138656 54.65112305 16.75537109 C54.65449173 17.98083145 54.65786041 19.20629181 54.66133118 20.46888733 C54.66103217 23.06043697 54.645769 25.65202159 54.61669922 28.2434082 C54.5770835 32.21008365 54.59597065 36.17340766 54.62182617 40.14013672 C54.6142659 42.65772782 54.60331128 45.17531149 54.58862305 47.69287109 C54.5990992 49.47273659 54.5990992 49.47273659 54.60978699 51.28855896 C54.52873768 56.01733768 54.39774228 59.35051782 52.12817383 63.54736328 C47.00323422 66.30569803 42.09488741 65.90430614 36.36987305 65.77880859 C34.54931145 65.76819649 34.54931145 65.76819649 32.69197083 65.75737 C28.81965218 65.72940624 24.94878513 65.66665825 21.0769043 65.60302734 C18.44997207 65.5779473 15.82301715 65.55513363 13.19604492 65.53466797 C6.76000369 65.47957265 0.3248077 65.39592389 -6.1105957 65.29052734 C-6.7705957 63.97052734 -7.4305957 62.65052734 -8.1105957 61.29052734 C-8.7705957 61.29052734 -9.4305957 61.29052734 -10.1105957 61.29052734 C-10.16126307 53.53095281 -10.19631554 45.77142087 -10.22045898 38.01171875 C-10.2305229 35.37140305 -10.24417522 32.73109852 -10.26147461 30.09082031 C-10.28570542 26.29798632 -10.29707494 22.50529956 -10.3059082 18.71240234 C-10.31623077 17.52998962 -10.32655334 16.3475769 -10.33718872 15.1293335 C-10.33733978 14.02849426 -10.33749084 12.92765503 -10.33764648 11.79345703 C-10.34208771 10.82527039 -10.34652893 9.85708374 -10.35110474 8.85955811 C-10.0960388 6.13503579 -9.61002325 4.56663706 -8.1105957 2.29052734 C-4.82500569 0.100134 -3.81715985 0.03174205 0 0 Z M-7.1105957 5.29052734 C-7.41035569 7.74365539 -7.41035569 7.74365539 -7.35351562 10.62646484 C-7.35659225 11.74102051 -7.35966888 12.85557617 -7.36283875 14.00390625 C-7.35565323 15.21224121 -7.34846771 16.42057617 -7.34106445 17.66552734 C-7.34060623 18.90093262 -7.34014801 20.13633789 -7.3396759 21.40917969 C-7.33587408 24.69644964 -7.32285478 27.98352747 -7.30621338 31.27075195 C-7.29276895 34.61588801 -7.2959375 37.96099019 -7.29614258 41.30615234 C-7.29122672 43.84261268 -7.28539811 46.37907145 -7.27856445 48.91552734 C-7.27745163 50.1238623 -7.27633881 51.33219727 -7.27519226 52.57714844 C-7.26881241 53.6917041 -7.26243256 54.80625977 -7.25585938 55.95458984 C-7.25204758 56.9389502 -7.24823578 57.92331055 -7.24430847 58.9375 C-7.26511932 61.31127058 -7.26511932 61.31127058 -6.1105957 63.29052734 C1.66725425 63.36645948 9.44500898 63.41907746 17.22314453 63.45532227 C19.87031628 63.47042854 22.51746294 63.49091465 25.16455078 63.5168457 C28.96482531 63.55314726 32.76476956 63.57023537 36.56518555 63.58349609 C37.75275955 63.59897995 38.94033356 63.61446381 40.16389465 63.63041687 C41.26480942 63.63064346 42.36572418 63.63087006 43.5 63.63110352 C44.47040726 63.63776535 45.44081451 63.64442719 46.44062805 63.65129089 C48.90143949 63.46383376 48.90143949 63.46383376 50.70198059 62.10409546 C52.32593231 59.62381227 52.27027085 57.88930003 52.27758789 54.93286133 C52.28704437 53.83840195 52.29650085 52.74394257 52.3062439 51.61631775 C52.3001712 50.43501785 52.29409851 49.25371796 52.2878418 48.03662109 C52.29214706 46.21892967 52.29214706 46.21892967 52.29653931 44.36451721 C52.298582 41.80151909 52.29303787 39.23850546 52.28051758 36.67553711 C52.26445402 32.7402076 52.28036757 28.80590309 52.29956055 24.87060547 C52.29757843 22.38427507 52.2937354 19.8979453 52.2878418 17.41162109 C52.29391449 16.22829697 52.29998718 15.04497284 52.3062439 13.82579041 C52.29678741 12.73448318 52.28733093 11.64317596 52.27758789 10.51879883 C52.27400772 9.07342995 52.27400772 9.07342995 52.27035522 7.59886169 C52.14464142 6.83711136 52.01892761 6.07536102 51.8894043 5.29052734 C48.55944694 3.07055578 47.50493361 3.03826265 43.62353516 3.03173828 C42.01187721 3.0222818 42.01187721 3.0222818 40.36766052 3.01263428 C39.20823441 3.01668274 38.04880829 3.0207312 36.85424805 3.02490234 C35.06985069 3.02203217 35.06985069 3.02203217 33.24940491 3.019104 C30.73348784 3.01774227 28.21756375 3.02143787 25.70166016 3.02978516 C21.83895181 3.04049394 17.97670759 3.02988429 14.11401367 3.01708984 C11.67325743 3.01841125 9.23250148 3.02097327 6.79174805 3.02490234 C5.6302977 3.02085388 4.46884735 3.01680542 3.27220154 3.01263428 C2.20091507 3.0189386 1.1296286 3.02524292 0.02587891 3.03173828 C-1.39284264 3.03412506 -1.39284264 3.03412506 -2.84022522 3.03656006 C-5.30984372 3.073698 -5.30984372 3.073698 -7.1105957 5.29052734 Z " fill="#36505B" transform="translate(78.110595703125,134.70947265625)"/>
<path d="M0 0 C5.28 0 10.56 0 16 0 C16 12.21 16 24.42 16 37 C22.6 37 29.2 37 36 37 C36 24.79 36 12.58 36 0 C41.94 0 47.88 0 54 0 C58.50143328 4.50143328 58.50143328 4.50143328 58.53344727 9.62304688 C58.5492836 10.75101685 58.56511993 11.87898682 58.58143616 13.0411377 C58.57647629 14.25474976 58.57151642 15.46836182 58.56640625 16.71875 C58.57260483 17.96877808 58.57880341 19.21880615 58.58518982 20.50671387 C58.59229504 23.15006344 58.59104584 25.79189233 58.57641602 28.43505859 C58.55922018 31.81836512 58.58273289 35.19997457 58.61790562 38.58309174 C58.64517209 41.81583163 58.63514405 45.04842754 58.62890625 48.28125 C58.64216446 49.49486206 58.65542267 50.70847412 58.66908264 51.9588623 C58.65028297 53.65081726 58.65028297 53.65081726 58.63110352 55.37695312 C58.63014175 56.36860474 58.62917999 57.36025635 58.62818909 58.38195801 C58 61 58 61 55.83453369 63.32305908 C52.57057504 65.25405247 50.78189743 65.48635458 47.01635742 65.45410156 C45.83551071 65.45379944 44.654664 65.45349731 43.43803406 65.45318604 C42.17328751 65.43254089 40.90854095 65.41189575 39.60546875 65.390625 C38.30297684 65.38496521 37.00048492 65.37930542 35.65852356 65.37347412 C32.20753899 65.35825289 28.75723538 65.31900316 25.30651855 65.2746582 C21.78061127 65.23362858 18.25459319 65.21544682 14.72851562 65.1953125 C7.81873193 65.15250415 0.90939872 65.08429651 -6 65 C-5.67 63.68 -5.34 62.36 -5 61 C-4.67 61.33 -4.34 61.66 -4 62 C-2.23613239 62.0989318 -0.46829947 62.12799087 1.29833984 62.12939453 C2.4297641 62.13254669 3.56118835 62.13569885 4.72689819 62.13894653 C5.95913116 62.1369223 7.19136414 62.13489807 8.4609375 62.1328125 C9.71758209 62.13376923 10.97422668 62.13472595 12.26895142 62.13571167 C14.93389285 62.13639385 17.59874336 62.13503486 20.26367188 62.13037109 C23.67907068 62.12468536 27.09439072 62.12794544 30.50978661 62.13394356 C33.76433972 62.13842895 37.01888336 62.13528654 40.2734375 62.1328125 C42.11571426 62.13584885 42.11571426 62.13584885 43.99520874 62.13894653 C45.13293732 62.13579437 46.27066589 62.13264221 47.44287109 62.12939453 C48.44579193 62.12859894 49.44871277 62.12780334 50.48202515 62.12698364 C53.12774461 62.10633191 53.12774461 62.10633191 56 61 C55.67 42.52 55.34 24.04 55 5 C49.60041154 2.30020577 43.02516699 3.37657294 37 3 C37 14.55 37 26.1 37 38 C29.74 38 22.48 38 15 38 C15 25.79 15 13.58 15 1 C10.05 1 5.1 1 0 1 C0 0.67 0 0.34 0 0 Z " fill="#3D4F58" transform="translate(6,135)"/>
<path d="M0 0 C1.1280455 -0.00945648 2.256091 -0.01891296 3.4183197 -0.02865601 C4.63709305 -0.02258331 5.85586639 -0.01651062 7.11157227 -0.01025391 C8.36301529 -0.01312408 9.61445831 -0.01599426 10.90382385 -0.01895142 C13.55289711 -0.02099482 16.2011425 -0.01695048 18.85009766 -0.00292969 C22.24089765 0.01414526 25.63098437 0.00433184 29.02175808 -0.01364708 C32.26005481 -0.02711447 35.49826621 -0.01767527 38.73657227 -0.01025391 C39.95332138 -0.0163266 41.1700705 -0.02239929 42.4236908 -0.02865601 C43.55488846 -0.01919952 44.68608612 -0.00974304 45.8515625 0 C46.84623032 0.00238678 47.84089813 0.00477356 48.8657074 0.00723267 C51.99022561 0.4607153 53.34447608 1.07045418 55.49047852 3.38818359 C55.99841309 5.8480072 55.99841309 5.8480072 56.00805664 8.8059082 C56.02066528 9.91393295 56.03327393 11.0219577 56.04626465 12.16355896 C56.03816772 13.36045853 56.0300708 14.55735809 56.02172852 15.79052734 C56.02746887 17.63439781 56.02746887 17.63439781 56.0333252 19.51551819 C56.03674762 22.7841304 56.02063504 26.0519842 55.99829102 29.32049561 C55.98536017 32.63937917 56.01602781 35.95804224 56.03735352 39.27685547 C56.03470997 41.80225008 56.02958445 44.32764357 56.02172852 46.85302734 C56.02982544 48.04790268 56.03792236 49.24277802 56.04626465 50.47386169 C56.03365601 51.5850386 56.02104736 52.69621552 56.00805664 53.84106445 C56.00487427 54.81796738 56.00169189 55.7948703 55.99841309 56.80137634 C55.49047852 59.38818359 55.49047852 59.38818359 51.49047852 63.38818359 C45.88047852 63.38818359 40.27047852 63.38818359 34.49047852 63.38818359 C34.49047852 52.16818359 34.49047852 40.94818359 34.49047852 29.38818359 C34.82047852 29.38818359 35.15047852 29.38818359 35.49047852 29.38818359 C35.49047852 39.94818359 35.49047852 50.50818359 35.49047852 61.38818359 C39.41954102 61.17162109 39.41954102 61.17162109 43.42797852 60.95068359 C44.25418701 60.90758057 45.08039551 60.86447754 45.93164062 60.82006836 C49.51092143 60.92613537 49.51092143 60.92613537 52.49047852 59.38818359 C52.61363022 57.63979524 52.66835663 55.88653855 52.69580078 54.1340332 C52.715746 53.01294662 52.73569122 51.89186005 52.75624084 50.73680115 C52.78130959 48.90714561 52.78130959 48.90714561 52.80688477 47.04052734 C52.82766586 45.79896378 52.84844696 44.55740021 52.86985779 43.2782135 C52.92431461 39.97219236 52.97452056 36.66616114 53.02270508 33.36004639 C53.07287707 29.98850869 53.12858553 26.61706306 53.18383789 23.24560547 C53.2911789 16.62653809 53.3929205 10.007402 53.49047852 3.38818359 C46.24086197 3.31868435 38.99131721 3.26537297 31.74143505 3.23274708 C28.37502974 3.21708849 25.00885229 3.19584739 21.64257812 3.16186523 C17.77280602 3.1255661 13.90335826 3.1084761 10.03344727 3.09521484 C8.82399948 3.07973099 7.6145517 3.06424713 6.36845398 3.04829407 C4.6870507 3.04795418 4.6870507 3.04795418 2.97167969 3.04760742 C1.48942146 3.03761467 1.48942146 3.03761467 -0.02278137 3.02742004 C-2.53394655 3.20116463 -2.53394655 3.20116463 -4.33378601 4.66641235 C-6.44676331 7.76069982 -5.80517828 11.53040973 -5.69702148 15.14208984 C-5.68566162 15.99874741 -5.67430176 16.85540497 -5.66259766 17.73802185 C-5.62592473 20.47603344 -5.57003116 23.21310115 -5.50952148 25.95068359 C-5.4299827 29.5561261 -5.36989278 33.16110364 -5.32202148 36.76708984 C-5.29712646 37.6004335 -5.27223145 38.43377716 -5.24658203 39.29237366 C-5.21655273 41.62866211 -5.21655273 41.62866211 -5.50952148 45.38818359 C-6.49952148 46.04818359 -7.48952148 46.70818359 -8.50952148 47.38818359 C-8.58360595 41.17686585 -8.63809262 34.96580455 -8.67431641 28.75415039 C-8.68941508 26.64049806 -8.70989574 24.52687711 -8.73583984 22.41333008 C-8.77217545 19.37752544 -8.78923693 16.34213453 -8.80249023 13.30615234 C-8.81797409 12.35918991 -8.83345795 11.41222748 -8.84941101 10.43656921 C-8.8496376 9.55588272 -8.8498642 8.67519623 -8.85009766 7.76782227 C-8.85675949 6.99282883 -8.86342133 6.21783539 -8.87028503 5.4193573 C-8.50952148 3.38818359 -8.50952148 3.38818359 -7.33258057 1.63871765 C-4.81284183 -0.08970637 -3.04417187 0.00731057 0 0 Z " fill="#0F2935" transform="translate(144.509521484375,0.61181640625)"/>
<path d="M0 0 C5.94 0 11.88 0 18 0 C18 12.21 18 24.42 18 37 C24.93 37 31.86 37 39 37 C39 37.33 39 37.66 39 38 C31.74 38 24.48 38 17 38 C17 25.79 17 13.58 17 1 C9.08 1.495 9.08 1.495 1 2 C-1.23364888 5.35047332 -1.25233246 6.4444963 -1.25878906 10.35766602 C-1.26509338 11.4521254 -1.27139771 12.54658478 -1.27789307 13.67420959 C-1.2738446 14.85550949 -1.26979614 16.03680939 -1.265625 17.25390625 C-1.26753845 18.46570053 -1.2694519 19.67749481 -1.27142334 20.92601013 C-1.27278514 23.48900561 -1.2690891 26.05200799 -1.26074219 28.61499023 C-1.25003368 32.55012404 -1.26064276 36.48480224 -1.2734375 40.41992188 C-1.27211609 42.90625101 -1.26955407 45.39257987 -1.265625 47.87890625 C-1.26967346 49.06223038 -1.27372192 50.2455545 -1.27789307 51.46473694 C-1.27158875 52.55604416 -1.26528442 53.64735138 -1.25878906 54.77172852 C-1.25719788 55.73530777 -1.25560669 56.69888702 -1.25396729 57.69166565 C-1.22212763 60.19489568 -1.22212763 60.19489568 1 62 C3.54903294 62.29305711 3.54903294 62.29305711 6.55126953 62.22705078 C7.71232208 62.22689972 8.87337463 62.22674866 10.0696106 62.22659302 C11.95714554 62.21110916 11.95714554 62.21110916 13.8828125 62.1953125 C15.80962357 62.19106766 15.80962357 62.19106766 17.77536011 62.18673706 C21.19162767 62.17909809 24.60772537 62.15944752 28.02392578 62.1373291 C31.50941673 62.11687624 34.9949351 62.10773655 38.48046875 62.09765625 C45.32038231 62.07620175 52.160183 62.04206271 59 62 C59.495 61.01 59.495 61.01 60 60 C60 61.65 60 63.3 60 65 C52.24614942 65.09272074 44.49242894 65.16377508 36.73816299 65.20724869 C33.13741714 65.22811513 29.53705084 65.25641421 25.93652344 65.30175781 C22.46112087 65.34525125 18.98608312 65.36914421 15.51042938 65.37950897 C13.54054216 65.39048615 11.57080153 65.421707 9.60113525 65.45318604 C7.79972076 65.45363922 7.79972076 65.45363922 5.96191406 65.45410156 C4.3763974 65.46742523 4.3763974 65.46742523 2.7588501 65.48101807 C-0.77546223 64.86479463 -1.92578669 63.90319688 -4 61 C-4.50793457 58.38195801 -4.50793457 58.38195801 -4.51757812 55.37695312 C-4.53018677 54.24898315 -4.54279541 53.12101318 -4.55578613 51.9588623 C-4.54768921 50.74525024 -4.53959229 49.53163818 -4.53125 48.28125 C-4.5350769 47.03122192 -4.53890381 45.78119385 -4.54284668 44.49328613 C-4.54556914 41.84994095 -4.54019953 39.20807514 -4.52148438 36.56494141 C-4.49869354 33.18182509 -4.51181983 29.79997803 -4.53577423 26.41690826 C-4.55372684 23.18414367 -4.54114701 19.95153118 -4.53125 16.71875 C-4.53934692 15.50513794 -4.54744385 14.29152588 -4.55578613 13.0411377 C-4.54317749 11.91316772 -4.53056885 10.78519775 -4.51757812 9.62304688 C-4.51439575 8.63139526 -4.51121338 7.63974365 -4.50793457 6.61804199 C-4 4 -4 4 0 0 Z " fill="#384B54" transform="translate(140,135)"/>
<path d="M0 0 C1.15129395 -0.00938095 2.30258789 -0.0187619 3.48876953 -0.02842712 C4.73255371 -0.01719315 5.97633789 -0.00595917 7.2578125 0.00561523 C9.17182861 0.00343239 9.17182861 0.00343239 11.12451172 0.00120544 C13.8250894 0.00286709 16.52426427 0.01238014 19.22460938 0.03515625 C22.68503592 0.06354208 26.14458018 0.06080443 29.60507202 0.04806614 C32.90604243 0.03943712 36.20686974 0.05455496 39.5078125 0.06811523 C40.75159668 0.0651796 41.99538086 0.06224396 43.27685547 0.05921936 C44.42814941 0.07190353 45.57944336 0.08458771 46.765625 0.09765625 C47.78027832 0.10305923 48.79493164 0.10846222 49.84033203 0.11402893 C52.3828125 0.50170898 52.3828125 0.50170898 54.21260071 1.75323486 C55.68731618 3.95668373 55.74609316 5.24005868 55.72338867 7.88134766 C55.72316208 8.76203415 55.72293549 9.64272064 55.72270203 10.5500946 C55.70721817 11.49705704 55.69173431 12.44401947 55.67578125 13.41967773 C55.67153641 14.39205887 55.66729156 15.36444 55.66291809 16.36628723 C55.64611565 19.47420864 55.60846029 22.58148332 55.5703125 25.68920898 C55.5552677 27.79531942 55.54157894 29.90144 55.52929688 32.00756836 C55.49620694 37.17253136 55.44441359 42.3370105 55.3828125 47.50170898 C54.0628125 46.84170898 52.7428125 46.18170898 51.3828125 45.50170898 C52.0428125 45.17170898 52.7028125 44.84170898 53.3828125 44.50170898 C53.3828125 30.97170898 53.3828125 17.44170898 53.3828125 3.50170898 C49.97204163 2.64901627 47.43440088 2.35302001 43.97167969 2.29638672 C42.89086121 2.2764415 41.81004272 2.25649628 40.69647217 2.23594666 C39.53593323 2.21923416 38.37539429 2.20252167 37.1796875 2.18530273 C35.98676086 2.16452164 34.79383423 2.14374054 33.5647583 2.12232971 C29.75416827 2.05694659 25.94350936 1.99800122 22.1328125 1.93920898 C19.54947204 1.8960131 16.96613855 1.85239846 14.3828125 1.80834961 C8.04955198 1.70127665 1.71622294 1.59948926 -4.6171875 1.50170898 C-5.54450091 4.65269911 -5.7437481 7.47838631 -5.74658203 10.75756836 C-5.74973419 11.80545532 -5.75288635 12.85334229 -5.75613403 13.9329834 C-5.7541098 15.05910034 -5.75208557 16.18521729 -5.75 17.34545898 C-5.75095673 18.50670288 -5.75191345 19.66794678 -5.75289917 20.86437988 C-5.75357948 23.31884821 -5.75173559 25.77331834 -5.74755859 28.2277832 C-5.74220829 31.98710161 -5.74750867 35.74630055 -5.75390625 39.50561523 C-5.75324544 41.88973008 -5.75196422 44.27384485 -5.75 46.65795898 C-5.75202423 47.78407593 -5.75404846 48.91019287 -5.75613403 50.07043457 C-5.75298187 51.11832153 -5.74982971 52.1662085 -5.74658203 53.24584961 C-5.74578644 54.16644165 -5.74499084 55.08703369 -5.74417114 56.03552246 C-5.68167302 58.78869716 -5.68167302 58.78869716 -4.6171875 62.50170898 C0.9928125 62.50170898 6.6028125 62.50170898 12.3828125 62.50170898 C12.3828125 51.61170898 12.3828125 40.72170898 12.3828125 29.50170898 C12.7128125 29.50170898 13.0428125 29.50170898 13.3828125 29.50170898 C13.3828125 40.72170898 13.3828125 51.94170898 13.3828125 63.50170898 C8.773125 63.65639648 8.773125 63.65639648 4.0703125 63.81420898 C3.10569092 63.859729 2.14106934 63.90524902 1.1472168 63.95214844 C0.00119995 63.97088013 0.00119995 63.97088013 -1.16796875 63.98999023 C-1.94825439 64.01617432 -2.72854004 64.0423584 -3.5324707 64.06933594 C-5.6171875 63.50170898 -5.6171875 63.50170898 -7.22322083 61.30755615 C-8.73979785 58.25491263 -8.99674894 56.42228329 -9.00537109 53.04052734 C-9.01482758 51.97269516 -9.02428406 50.90486298 -9.0340271 49.80467224 C-9.02491806 48.09042809 -9.02491806 48.09042809 -9.015625 46.34155273 C-9.01849518 45.15952774 -9.02136536 43.97750275 -9.02432251 42.75965881 C-9.02636171 40.26408407 -9.02084201 37.76849329 -9.00830078 35.27294922 C-8.99223181 31.4497514 -9.00816276 27.62760852 -9.02734375 23.80444336 C-9.02536157 21.37931082 -9.02151843 18.95417893 -9.015625 16.52905273 C-9.02169769 15.38419907 -9.02777039 14.2393454 -9.0340271 13.05979919 C-9.02457062 11.99511917 -9.01511414 10.93043915 -9.00537109 9.83349609 C-9.00298431 8.89815536 -9.00059753 7.96281464 -8.99813843 6.99913025 C-8.12062932 1.24639479 -5.52784834 0.00090529 0 0 Z " fill="#19333F" transform="translate(8.6171875,0.498291015625)"/>
<path d="M0 0 C5.94 0 11.88 0 18 0 C21.41494833 3.41494833 21.3787435 3.84359798 21.40405273 8.40185547 C21.41673691 9.50665253 21.42942108 10.61144958 21.44248962 11.74972534 C21.43955399 12.94348785 21.43661835 14.13725037 21.43359375 15.3671875 C21.4388356 16.59406281 21.44407745 17.82093811 21.44947815 19.08499146 C21.45590708 21.68246707 21.45455017 24.27997176 21.44604492 26.87744141 C21.43754827 30.8524164 21.46626595 34.82594881 21.49804688 38.80078125 C21.49965925 41.32291624 21.49908066 43.84505377 21.49609375 46.3671875 C21.51294472 48.15175858 21.51294472 48.15175858 21.53013611 49.97238159 C21.51606468 51.63903366 21.51606468 51.63903366 21.50170898 53.33935547 C21.50154282 54.31403778 21.50137665 55.28872009 21.50120544 56.29293823 C21 59 21 59 17 64 C11.39 64 5.78 64 0 64 C0 42.88 0 21.76 0 0 Z M1 2 C1 21.8 1 41.6 1 62 C5.95 62 10.9 62 16 62 C19.19461244 59.40364797 19.19461244 59.40364797 19.36076355 56.51325989 C19.35410172 55.52508774 19.34743988 54.53691559 19.34057617 53.51879883 C19.34034958 52.39786331 19.34012299 51.2769278 19.33988953 50.12202454 C19.32440567 48.91257675 19.30892181 47.70312897 19.29296875 46.45703125 C19.28660149 44.59893074 19.28660149 44.59893074 19.28010559 42.70329285 C19.26614733 39.41350999 19.23920213 36.12416797 19.20599365 32.83453369 C19.17527933 29.47633254 19.16159739 26.11806682 19.14648438 22.75976562 C19.11337359 16.17300426 19.06314257 9.5865382 19 3 C13.6251615 0.31258075 7.00925213 2 1 2 Z " fill="#162C36" transform="translate(179,68)"/>
<path d="M0 0 C5.94 0 11.88 0 18 0 C18 21.12 18 42.24 18 64 C12.06 64 6.12 64 0 64 C-3.1215272 59.83796373 -3.37655681 59.20643504 -3.38818359 54.36108398 C-3.39764008 53.22988632 -3.40709656 52.09868866 -3.4168396 50.93321228 C-3.41076691 49.71646317 -3.40469421 48.49971405 -3.3984375 47.24609375 C-3.40130768 45.993694 -3.40417786 44.74129425 -3.40713501 43.45094299 C-3.40917652 40.80364858 -3.40514942 38.15718537 -3.39111328 35.51000977 C-3.37400362 32.11801974 -3.38387717 28.72674094 -3.40183067 25.33477688 C-3.41527786 22.09685695 -3.40586367 18.85902295 -3.3984375 15.62109375 C-3.40754654 13.79293373 -3.40754654 13.79293373 -3.4168396 11.92784119 C-3.40738312 10.79979568 -3.39792664 9.67175018 -3.38818359 8.50952148 C-3.38579681 7.51564926 -3.38341003 6.52177704 -3.38095093 5.49778748 C-3 3 -3 3 0 0 Z M1 1 C-1.21841927 4.32762891 -1.24879108 5.35889747 -1.24291992 9.23413086 C-1.24599655 10.30211411 -1.24907318 11.37009735 -1.25224304 12.47044373 C-1.24505753 13.62359573 -1.23787201 14.77674774 -1.23046875 15.96484375 C-1.23001053 17.14969864 -1.22955231 18.33455353 -1.2290802 19.55531311 C-1.2260571 22.06284587 -1.21816911 24.57037673 -1.20581055 27.07788086 C-1.18759002 30.91852467 -1.18530063 34.75892692 -1.18554688 38.59960938 C-1.18063026 41.03385625 -1.17480131 43.4681015 -1.16796875 45.90234375 C-1.16685593 47.05347153 -1.1657431 48.2045993 -1.16459656 49.39060974 C-1.15821671 50.46174515 -1.15183685 51.53288055 -1.14526367 52.63647461 C-1.14145187 53.57784775 -1.13764008 54.51922089 -1.13371277 55.48912048 C-1.06509701 58.27965152 -1.06509701 58.27965152 0 62 C5.61 62 11.22 62 17 62 C17 41.87 17 21.74 17 1 C11.72 1 6.44 1 1 1 Z " fill="#273A43" transform="translate(4,68)"/>
<path d="M0 0 C1.05441788 -0.00292557 2.10883575 -0.00585114 3.19520569 -0.00886536 C4.90153419 0.01739677 4.90153419 0.01739677 6.64233398 0.04418945 C7.80973618 0.04747757 8.97713837 0.05076569 10.17991638 0.05415344 C12.64880949 0.06458281 15.11767786 0.08454688 17.58642578 0.11328125 C21.37668228 0.15733419 25.16630639 0.17471087 28.95678711 0.18676758 C31.35197859 0.20019193 33.74716223 0.21511498 36.14233398 0.23168945 C37.85169884 0.24276985 37.85169884 0.24276985 39.59559631 0.2540741 C40.64686203 0.26690933 41.69812775 0.27974457 42.78125 0.29296875 C44.1733242 0.30773506 44.1733242 0.30773506 45.59352112 0.32279968 C47.82592773 0.4699707 47.82592773 0.4699707 49.82592773 1.4699707 C49.49592773 2.4599707 49.16592773 3.4499707 48.82592773 4.4699707 C48.15163223 4.46775009 47.47733673 4.46552948 46.78260803 4.46324158 C39.79160083 4.44119141 32.80060343 4.42606523 25.80957031 4.41503906 C23.19726155 4.40999694 20.58495562 4.40316345 17.97265625 4.39453125 C14.22712505 4.38246034 10.48163102 4.37674135 6.73608398 4.37231445 C4.97204979 4.36457253 4.97204979 4.36457253 3.17237854 4.35667419 C2.09133347 4.35659866 1.01028839 4.35652313 -0.10351562 4.35644531 C-1.06059921 4.3542247 -2.0176828 4.35200409 -3.00376892 4.34971619 C-5.1532485 4.22684571 -5.1532485 4.22684571 -6.17407227 5.4699707 C-6.29714537 7.18771238 -6.35193785 8.91039809 -6.37939453 10.63232422 C-6.39933975 11.73339005 -6.41928497 12.83445587 -6.43983459 13.96888733 C-6.45654709 15.16678391 -6.47325958 16.36468048 -6.49047852 17.59887695 C-6.51125961 18.81824448 -6.53204071 20.037612 -6.55345154 21.29393005 C-6.61907654 25.20671716 -6.67789199 29.11957387 -6.73657227 33.0324707 C-6.77974518 35.67766033 -6.82335905 38.32284279 -6.86743164 40.96801758 C-6.97477107 47.46859406 -7.07651294 53.96924049 -7.17407227 60.4699707 C-7.50407227 60.4699707 -7.83407227 60.4699707 -8.17407227 60.4699707 C-8.25006807 52.56801506 -8.3026494 44.66615348 -8.33886719 36.76391602 C-8.35227111 34.07500824 -8.37315583 31.38631219 -8.40039062 28.69750977 C-8.43673393 24.8351432 -8.45379 20.97310191 -8.46704102 17.1105957 C-8.48252487 15.9063092 -8.49800873 14.70202271 -8.51396179 13.46124268 C-8.51418839 12.34038269 -8.51441498 11.21952271 -8.51464844 10.06469727 C-8.52464119 8.58576996 -8.52464119 8.58576996 -8.53483582 7.07696533 C-7.76747763 1.53178577 -5.39913378 -0.03409893 0 0 Z " fill="#22363F" transform="translate(78.174072265625,134.530029296875)"/>
<path d="M0 0 C0.33 0 0.66 0 1 0 C1 20.46 1 40.92 1 62 C10.31278926 62.16161065 10.31278926 62.16161065 19 60 C19 42.18 19 24.36 19 6 C19.99 6.33 20.98 6.66 22 7 C22.10134735 14.47465445 22.1714435 21.949132 22.21972656 29.42431641 C22.23985272 31.96767803 22.26715637 34.51099333 22.30175781 37.05419922 C22.3502297 40.70812404 22.37295916 44.36143756 22.390625 48.015625 C22.41127014 49.15429016 22.43191528 50.29295532 22.45318604 51.46612549 C22.45348816 52.52692322 22.45379028 53.58772095 22.45410156 54.68066406 C22.46298401 55.61332092 22.47186646 56.54597778 22.48101807 57.50689697 C22 60 22 60 18 64 C12.06 64 6.12 64 0 64 C0 42.88 0 21.76 0 0 Z " fill="#43545C" transform="translate(42,68)"/>
<path d="M0 0 C1.98 0.99 1.98 0.99 4 2 C3.67 2.66 3.34 3.32 3 4 C2.89097724 5.37251121 2.84105864 6.74999304 2.82299805 8.12670898 C2.80374519 9.40329628 2.80374519 9.40329628 2.78410339 10.70567322 C2.77671646 11.62651199 2.76932953 12.54735077 2.76171875 13.49609375 C2.753647 14.44057877 2.74557526 15.38506378 2.73725891 16.35816956 C2.72341712 18.35798301 2.71269539 20.35782011 2.70483398 22.35766602 C2.68758815 25.42183829 2.6436994 28.48494087 2.59960938 31.54882812 C2.58948551 33.48957538 2.58096845 35.43033182 2.57421875 37.37109375 C2.55671066 38.28990829 2.53920258 39.20872284 2.52116394 40.15538025 C2.52408951 41.00959061 2.52701508 41.86380096 2.5300293 42.74389648 C2.52416306 43.49509262 2.51829681 44.24628876 2.51225281 45.02024841 C2.85979112 47.14893199 2.85979112 47.14893199 4.69117737 48.73898315 C7.46276142 50.25274785 9.26127258 50.39557561 12.41113281 50.43237305 C13.49195129 50.45216721 14.57276978 50.47196136 15.68634033 50.49235535 C17.42714874 50.50194023 17.42714874 50.50194023 19.203125 50.51171875 C20.39605164 50.52966995 21.58897827 50.54762115 22.8180542 50.56611633 C26.62866683 50.62030371 30.43915359 50.6541431 34.25 50.6875 C36.83335088 50.72066551 39.41668513 50.75515445 42 50.79101562 C48.33322047 50.87603522 54.66645706 50.94434958 61 51 C61 51.33 61 51.66 61 52 C53.63738276 52.11591817 46.27496266 52.20472648 38.91161728 52.25906086 C35.49234507 52.28514091 32.07369772 52.3205065 28.65478516 52.37719727 C24.72305822 52.44198227 20.79158311 52.4661939 16.859375 52.48828125 C15.63321472 52.51408768 14.40705444 52.5398941 13.14373779 52.56648254 C11.43241669 52.56704903 11.43241669 52.56704903 9.68652344 52.56762695 C8.18094879 52.58428154 8.18094879 52.58428154 6.6449585 52.60127258 C4 52 4 52 1.67297363 49.76965332 C-0.09033313 46.85045105 -0.49027724 45.47321427 -0.45410156 42.11791992 C-0.45379944 41.17732224 -0.45349731 40.23672455 -0.45318604 39.2676239 C-0.43254089 38.2653627 -0.41189575 37.2631015 -0.390625 36.23046875 C-0.38496521 35.19432938 -0.37930542 34.15819 -0.37347412 33.09065247 C-0.35112666 29.78912692 -0.30093178 26.48869619 -0.25 23.1875 C-0.22993296 20.94597924 -0.21168255 18.70444143 -0.1953125 16.46289062 C-0.15126733 10.9748884 -0.08437118 5.48752243 0 0 Z " fill="#37505B" transform="translate(68,80)"/>
<path d="M0 0 C0.80244141 0.00966797 1.60488281 0.01933594 2.43164062 0.02929688 C3.26501953 0.05443359 4.09839844 0.07957031 4.95703125 0.10546875 C6.22450195 0.12577148 6.22450195 0.12577148 7.51757812 0.14648438 C9.60183509 0.18181076 11.68576402 0.23561736 13.76953125 0.29296875 C13.76953125 0.95296875 13.76953125 1.61296875 13.76953125 2.29296875 C12.72152344 2.33035156 11.67351563 2.36773437 10.59375 2.40625 C9.2148082 2.4719139 7.83590354 2.5383611 6.45703125 2.60546875 C5.4215918 2.63930664 5.4215918 2.63930664 4.36523438 2.67382812 C0.49089801 2.84378302 0.49089801 2.84378302 -2.93257141 4.4823761 C-4.72961882 6.98929304 -4.59173731 8.70479885 -4.57104492 11.77416992 C-4.57081833 12.89510544 -4.57059174 14.01604095 -4.57035828 15.17094421 C-4.55487442 16.380392 -4.53939056 17.58983978 -4.5234375 18.8359375 C-4.51919266 20.07467117 -4.51494781 21.31340485 -4.51057434 22.5896759 C-4.49661608 25.87945876 -4.46967088 29.16880078 -4.4364624 32.45843506 C-4.40574808 35.81663621 -4.39206614 39.17490193 -4.37695312 42.53320312 C-4.34384234 49.11996449 -4.29361132 55.70643055 -4.23046875 62.29296875 C-5.22046875 61.63296875 -6.21046875 60.97296875 -7.23046875 60.29296875 C-7.61141968 57.90870667 -7.61141968 57.90870667 -7.61865234 54.88110352 C-7.62810883 53.74975479 -7.63756531 52.61840607 -7.64730835 51.45277405 C-7.64123566 50.22570236 -7.63516296 48.99863068 -7.62890625 47.734375 C-7.63177643 46.47914536 -7.63464661 45.22391571 -7.63760376 43.9306488 C-7.63964877 41.27140515 -7.63558879 38.61298396 -7.62158203 35.95385742 C-7.60450674 32.54611633 -7.61431796 29.1390849 -7.63229942 25.73136997 C-7.64575267 22.48234624 -7.63632975 19.23340799 -7.62890625 15.984375 C-7.63497894 14.75932755 -7.64105164 13.53428009 -7.64730835 12.27210999 C-7.63785187 11.1376091 -7.62839539 10.00310822 -7.61865234 8.83422852 C-7.61626556 7.83432388 -7.61387878 6.83441925 -7.61141968 5.80421448 C-7.23046875 3.29296875 -7.23046875 3.29296875 -5.83076477 1.46792603 C-3.76188878 -0.0510685 -2.54878422 -0.05422945 0 0 Z " fill="#0B2634" transform="translate(7.23046875,135.70703125)"/>
<path d="M0 0 C1.68128998 0.00045319 1.68128998 0.00045319 3.39654541 0.00091553 C4.60083191 0.02156067 5.80511841 0.04220581 7.04589844 0.06347656 C8.28321716 0.06913635 9.52053589 0.07479614 10.79534912 0.08062744 C14.0770528 0.09921905 17.35796625 0.13512658 20.6394043 0.17944336 C23.9909741 0.22043991 27.34257788 0.23830655 30.69433594 0.25878906 C37.26495734 0.30290252 43.83505076 0.36985079 50.40527344 0.45410156 C50.40527344 0.78410156 50.40527344 1.11410156 50.40527344 1.45410156 C32.25527344 1.45410156 14.10527344 1.45410156 -4.59472656 1.45410156 C-4.92472656 2.44410156 -5.25472656 3.43410156 -5.59472656 4.45410156 C-6.25472656 4.45410156 -6.91472656 4.45410156 -7.59472656 4.45410156 C-7.59472656 20.29410156 -7.59472656 36.13410156 -7.59472656 52.45410156 C-8.25472656 52.12410156 -8.91472656 51.79410156 -9.59472656 51.45410156 C-9.69612221 44.83395464 -9.76618992 38.21400784 -9.81445312 31.59326172 C-9.83457213 29.34090695 -9.86187064 27.08860443 -9.89648438 24.83642578 C-9.94498866 21.59947825 -9.96769261 18.3632211 -9.98535156 15.12597656 C-10.0059967 14.11855408 -10.02664185 13.11113159 -10.0479126 12.07318115 C-10.04821472 11.13250793 -10.04851685 10.19183472 -10.04882812 9.22265625 C-10.06215179 7.98355499 -10.06215179 7.98355499 -10.07574463 6.71942139 C-8.89751085 1.17061456 -5.18812059 -0.04673983 0 0 Z " fill="#26424E" transform="translate(77.5947265625,0.5458984375)"/>
<path d="M0 0 C0.66 0 1.32 0 2 0 C2.05064156 6.78097348 2.08570883 13.56189833 2.10986328 20.34301758 C2.11993107 22.6506533 2.13358623 24.95827625 2.15087891 27.26586914 C2.17509287 30.57962191 2.18647526 33.89320626 2.1953125 37.20703125 C2.20563507 38.2414888 2.21595764 39.27594635 2.22659302 40.3417511 C2.22681961 41.78290535 2.22681961 41.78290535 2.22705078 43.25317383 C2.231492 44.09922684 2.23593323 44.94527985 2.24050903 45.81697083 C2 48 2 48 0 51 C-2.32852173 51.36076355 -2.32852173 51.36076355 -5.27587891 51.34057617 C-6.92736435 51.34023628 -6.92736435 51.34023628 -8.61221313 51.33988953 C-9.80494843 51.32440567 -10.99768372 51.30892181 -12.2265625 51.29296875 C-13.44451508 51.28872391 -14.66246765 51.28447906 -15.91732788 51.28010559 C-19.82010704 51.26326831 -23.72237604 51.22560595 -27.625 51.1875 C-30.26561756 51.17245974 -32.90624319 51.15877019 -35.546875 51.14648438 C-42.03142504 51.11334822 -48.51567608 51.06309861 -55 51 C-55 50.67 -55 50.34 -55 50 C-54.33823257 49.98969254 -53.67646515 49.97938507 -52.99464417 49.96876526 C-46.13328687 49.86094051 -39.27206734 49.74632391 -32.41088867 49.62768555 C-29.84711579 49.58425934 -27.28331254 49.54259015 -24.71948242 49.50268555 C-21.04336372 49.44516853 -17.36739901 49.38142137 -13.69140625 49.31640625 C-12.53725723 49.29969376 -11.38310822 49.28298126 -10.19398499 49.26576233 C-9.13296066 49.24581711 -8.07193634 49.22587189 -6.97875977 49.20532227 C-5.56978172 49.18200584 -5.56978172 49.18200584 -4.13233948 49.15821838 C-2.01693335 49.23454841 -2.01693335 49.23454841 -1 48 C-0.91216005 46.53156156 -0.89305917 45.05892465 -0.90234375 43.58789062 C-0.90564697 42.65021851 -0.9089502 41.71254639 -0.91235352 40.74645996 C-0.92065186 39.72669067 -0.9289502 38.70692139 -0.9375 37.65625 C-0.94128662 36.61682251 -0.94507324 35.57739502 -0.94897461 34.50646973 C-0.96124265 31.17093885 -0.97987492 27.8354922 -1 24.5 C-1.0264599 20.11458575 -1.04652381 15.72921355 -1.0625 11.34375 C-1.07079834 10.32398071 -1.07909668 9.30421143 -1.08764648 8.25354004 C-1.09094971 7.31586792 -1.09425293 6.3781958 -1.09765625 5.41210938 C-1.10289307 4.58239624 -1.10812988 3.75268311 -1.11352539 2.89782715 C-1 1 -1 1 0 0 Z " fill="#082330" transform="translate(130,80)"/>
<path d="M0 0 C7.26 0 14.52 0 22 0 C15 7 15 7 12 9 C8.37310038 8.65458099 6.39426322 6.88963047 3.75 4.5 C3.04359375 3.8709375 2.3371875 3.241875 1.609375 2.59375 C1.07828125 2.0678125 0.5471875 1.541875 0 1 C0 0.67 0 0.34 0 0 Z " fill="#0D0E0E" transform="translate(89,68)"/>
<path d="M0 0 C3 1 3 1 4 3 C4.08977728 4.51164392 4.11757433 6.02720179 4.11352539 7.54150391 C4.11344986 8.48232819 4.11337433 9.42315247 4.11329651 10.39248657 C4.10813522 11.41023163 4.10297394 12.42797668 4.09765625 13.4765625 C4.0962413 14.51694672 4.09482635 15.55733093 4.09336853 16.62924194 C4.08775866 19.96119021 4.07520447 23.29307195 4.0625 26.625 C4.05748627 28.88020736 4.05292314 31.13541578 4.04882812 33.390625 C4.03778603 38.92710614 4.02103827 44.46354832 4 50 C3.01 50.495 3.01 50.495 2 51 C1.98969254 50.42006287 1.97938507 49.84012573 1.96876526 49.24261475 C1.86060631 43.20801737 1.74601586 37.17356647 1.62768555 31.13916016 C1.58436686 28.88691268 1.54268958 26.63463301 1.50268555 24.38232422 C1.44490897 21.14540911 1.38123548 17.90865558 1.31640625 14.671875 C1.29969376 13.66445251 1.28298126 12.65703003 1.26576233 11.61907959 C1.24581711 10.67840637 1.22587189 9.73773315 1.20532227 8.76855469 C1.18977798 7.94248718 1.1742337 7.11641968 1.15821838 6.26531982 C1.00447734 4.06410512 0.60602394 2.11720207 0 0 Z " fill="#364F5B" transform="translate(128,2)"/>
<path d="M0 0 C1.46535356 0.02652224 2.93044676 0.07413383 4.39453125 0.140625 C5.14412109 0.15867188 5.89371094 0.17671875 6.66601562 0.1953125 C8.51356835 0.24238391 10.36046284 0.31412734 12.20703125 0.390625 C12.20703125 1.050625 12.20703125 1.710625 12.20703125 2.390625 C11.14742187 2.43960938 10.0878125 2.48859375 8.99609375 2.5390625 C7.60804628 2.61409209 6.22002674 2.68963985 4.83203125 2.765625 C3.78402344 2.81203125 3.78402344 2.81203125 2.71484375 2.859375 C-1.49482702 2.98561998 -1.49482702 2.98561998 -4.79296875 5.390625 C-5.12428288 7.77542546 -5.12428288 7.77542546 -5.11181641 10.57470703 C-5.1316861 11.65567657 -5.15155579 12.73664612 -5.17202759 13.85037231 C-5.1835788 15.02123383 -5.19513 16.19209534 -5.20703125 17.3984375 C-5.2263974 18.59419403 -5.24576355 19.78995056 -5.26571655 21.02194214 C-5.32564819 24.85309648 -5.37195235 28.68428065 -5.41796875 32.515625 C-5.45613599 35.10808625 -5.49518696 37.70053466 -5.53515625 40.29296875 C-5.63136085 46.65874037 -5.71636836 53.02458895 -5.79296875 59.390625 C-6.12296875 59.390625 -6.45296875 59.390625 -6.79296875 59.390625 C-6.86896945 51.63108588 -6.92154793 43.87164258 -6.95776367 36.11181641 C-6.97285965 33.47148044 -6.99333829 30.83116958 -7.01928711 28.19091797 C-7.05563366 24.39804897 -7.0726872 20.60551123 -7.0859375 16.8125 C-7.10142136 15.63008728 -7.11690521 14.44767456 -7.13285828 13.22943115 C-7.13308487 12.12859192 -7.13331146 11.02775269 -7.13354492 9.89355469 C-7.14020676 8.92536804 -7.14686859 7.9571814 -7.1537323 6.95965576 C-6.46154154 2.03050101 -4.9137018 0.5060455 0 0 Z " fill="#041116" transform="translate(144.79296875,135.609375)"/>
<path d="M0 0 C0.33 0 0.66 0 1 0 C1 3.96 1 7.92 1 12 C0.17242187 11.51917969 -0.65515625 11.03835937 -1.5078125 10.54296875 C-5.36467547 8.83887381 -8.73033687 8.45306513 -12.875 8.3125 C-13.56335938 8.27833984 -14.25171875 8.24417969 -14.9609375 8.20898438 C-16.64008613 8.12735909 -18.32001168 8.0619843 -20 8 C-20 7.01 -20 6.02 -20 5 C-18.21142578 4.96132812 -18.21142578 4.96132812 -16.38671875 4.921875 C-14.8202758 4.86559561 -13.25387097 4.80824823 -11.6875 4.75 C-10.90181641 4.73582031 -10.11613281 4.72164062 -9.30664062 4.70703125 C-4.63632631 4.63031281 -4.63632631 4.63031281 -1.01953125 1.953125 C-0.51486328 0.98632812 -0.51486328 0.98632812 0 0 Z " fill="#E5E8EA" transform="translate(199,127)"/>
<path d="M0 0 C19.8 0 39.6 0 60 0 C59.67 1.32 59.34 2.64 59 4 C58.01 3.34 57.02 2.68 56 2 C53.43424748 1.67160363 53.43424748 1.67160363 50.51879883 1.68115234 C49.39786331 1.66128265 48.2769278 1.64141296 47.12202454 1.62094116 C45.30785286 1.60361435 45.30785286 1.60361435 43.45703125 1.5859375 C42.21829758 1.56657135 40.9795639 1.5472052 39.70329285 1.5272522 C36.41374825 1.47756593 33.12423875 1.43630718 29.83453369 1.39910889 C26.47617475 1.35906688 23.11798594 1.30797549 19.75976562 1.2578125 C13.17328642 1.16167847 6.58673317 1.07665152 0 1 C0 0.67 0 0.34 0 0 Z " fill="#DADFE1" transform="translate(140,0)"/>
<path d="M0 0 C0.33 0 0.66 0 1 0 C1 1.65 1 3.3 1 5 C-18.8 5 -38.6 5 -59 5 C-59 4.67 -59 4.34 -59 4 C-57.93551132 3.99120064 -57.93551132 3.99120064 -56.84951782 3.98222351 C-50.16879347 3.92437234 -43.48839124 3.85234008 -36.80799294 3.76428509 C-33.37332113 3.7195151 -29.93876975 3.68027428 -26.50390625 3.65356445 C-22.5570311 3.6226329 -18.61066324 3.56784148 -14.6640625 3.51171875 C-12.80933823 3.50213387 -12.80933823 3.50213387 -10.91714478 3.49235535 C-9.77611298 3.47256119 -8.63508118 3.45276703 -7.45947266 3.43237305 C-6.451315 3.42126999 -5.44315735 3.41016693 -4.40444946 3.39872742 C-3.61098114 3.26714737 -2.81751282 3.13556732 -2 3 C-1.34 2.01 -0.68 1.02 0 0 Z " fill="#7B8C93" transform="translate(199,195)"/>
<path d="M0 0 C0.66 0.33 1.32 0.66 2 1 C1.01 2.485 1.01 2.485 0 4 C-0.66 4 -1.32 4 -2 4 C-2 22.48 -2 40.96 -2 60 C-2.33 60 -2.66 60 -3 60 C-3.06949629 52.6199985 -3.12280914 45.2400675 -3.15543652 37.85980511 C-3.17109574 34.43286777 -3.19233804 31.00615423 -3.22631836 27.5793457 C-3.26513514 23.64016392 -3.27970716 19.70107291 -3.29296875 15.76171875 C-3.30845261 14.53039719 -3.32393646 13.29907562 -3.33988953 12.03044128 C-3.34011612 10.88948502 -3.34034271 9.74852875 -3.34057617 8.57299805 C-3.35056892 7.06409248 -3.35056892 7.06409248 -3.36076355 5.52470398 C-2.947951 2.63574944 -2.26471848 1.76386256 0 0 Z " fill="#2B4753" transform="translate(139,136)"/>
<path d="M0 0 C1.485 0.99 1.485 0.99 3 2 C5.56575252 2.32839637 5.56575252 2.32839637 8.48120117 2.31884766 C9.60213669 2.33871735 10.7230722 2.35858704 11.87797546 2.37905884 C13.69214714 2.39638565 13.69214714 2.39638565 15.54296875 2.4140625 C16.78170242 2.43342865 18.0204361 2.4527948 19.29670715 2.4727478 C22.58625175 2.52243407 25.87576125 2.56369282 29.16546631 2.60089111 C32.52382525 2.64093312 35.88201406 2.69202451 39.24023438 2.7421875 C45.82671358 2.83832153 52.41326683 2.92334848 59 3 C59 3.33 59 3.66 59 4 C39.53 4 20.06 4 0 4 C0 2.68 0 1.36 0 0 Z " fill="#7C8D94" transform="translate(0,196)"/>
<path d="M0 0 C19.14 0 38.28 0 58 0 C58 0.33 58 0.66 58 1 C56.97642647 1.00879936 56.97642647 1.00879936 55.93217468 1.01777649 C48.84326015 1.0816067 41.75480398 1.16599941 34.66625977 1.26245117 C32.01918574 1.29574872 29.37203989 1.32376542 26.72485352 1.34643555 C22.9243299 1.37989211 19.12446745 1.43220486 15.32421875 1.48828125 C13.54285774 1.49786613 13.54285774 1.49786613 11.72550964 1.50764465 C10.62459488 1.52743881 9.52368011 1.54723297 8.3894043 1.56762695 C7.41899704 1.57873001 6.44858978 1.58983307 5.44877625 1.60127258 C2.63177961 2.0599563 1.74101271 2.79525929 0 5 C0 3.35 0 1.7 0 0 Z " fill="#DDE1E3" transform="translate(0,0)"/>
<path d="M0 0 C7.26 0 14.52 0 22 0 C20 3 20 3 18.15234375 3.38818359 C17.42144531 3.39156738 16.69054687 3.39495117 15.9375 3.3984375 C14.74253906 3.40423828 14.74253906 3.40423828 13.5234375 3.41015625 C12.69070312 3.39855469 11.85796875 3.38695313 11 3.375 C10.16726562 3.38660156 9.33453125 3.39820312 8.4765625 3.41015625 C7.67992188 3.40628906 6.88328125 3.40242188 6.0625 3.3984375 C5.33160156 3.39505371 4.60070312 3.39166992 3.84765625 3.38818359 C2 3 2 3 0 0 Z " fill="#122B37" transform="translate(89,68)"/>
<path d="M0 0 C-1 3 -1 3 -3 4 C-5.88370333 4.07194869 -8.74239664 4.09291708 -11.625 4.0625 C-12.42679688 4.05798828 -13.22859375 4.05347656 -14.0546875 4.04882812 C-16.03649006 4.03703168 -18.01825433 4.01909605 -20 4 C-20 3.34 -20 2.68 -20 2 C-18.86820313 1.93941406 -17.73640625 1.87882813 -16.5703125 1.81640625 C-15.08852855 1.73200083 -13.6067584 1.64735283 -12.125 1.5625 C-11.37863281 1.52318359 -10.63226563 1.48386719 -9.86328125 1.44335938 C-6.43744287 1.24274722 -3.2500626 0 0 0 Z " fill="#223D4A" transform="translate(63,128)"/>
<path d="M0 0 C5.94 0 11.88 0 18 0 C18.33 1.32 18.66 2.64 19 4 C18.01 3.67 17.02 3.34 16 3 C13.26710707 2.77202438 10.54957796 2.58331813 7.8125 2.4375 C7.06291016 2.39431641 6.31332031 2.35113281 5.54101562 2.30664062 C3.69421625 2.20077315 1.84713166 2.0999024 0 2 C0 1.34 0 0.68 0 0 Z " fill="#0E2632" transform="translate(43,136)"/>
<path d="M0 0 C1.57043101 0.01330874 3.14079971 0.03717648 4.7109375 0.0703125 C5.51273438 0.07933594 6.31453125 0.08835937 7.140625 0.09765625 C9.12252273 0.12125027 11.10426731 0.15712185 13.0859375 0.1953125 C13.0859375 0.5253125 13.0859375 0.8553125 13.0859375 1.1953125 C7.8059375 1.1953125 2.5259375 1.1953125 -2.9140625 1.1953125 C-3.2440625 2.1853125 -3.5740625 3.1753125 -3.9140625 4.1953125 C-4.5740625 4.1953125 -5.2340625 4.1953125 -5.9140625 4.1953125 C-6.2440625 5.1853125 -6.5740625 6.1753125 -6.9140625 7.1953125 C-6.09399063 2.00152401 -5.68427392 0.2836464 0 0 Z " fill="#243F4D" transform="translate(7.9140625,67.8046875)"/>
<path d="M0 0 C2.88437779 1.29299694 4.87219421 2.65941363 7 5 C4.69 5 2.38 5 0 5 C0 3.35 0 1.7 0 0 Z " fill="#3E4B52" transform="translate(42,59)"/>
<path d="M0 0 C0 1.65 0 3.3 0 5 C-1.98 5 -3.96 5 -6 5 C-1.125 0 -1.125 0 0 0 Z " fill="#202F37" transform="translate(157,59)"/>
</svg>
