<?xml version="1.0" encoding="UTF-8"?>
<svg version="1.1" xmlns="http://www.w3.org/2000/svg" width="180" height="180">
<path d="M0 0 C59.4 0 118.8 0 180 0 C180 59.4 180 118.8 180 180 C120.6 180 61.2 180 0 180 C0 120.6 0 61.2 0 0 Z " fill="#FCE1BD" transform="translate(0,0)"/>
<path d="M0 0 C6.39349809 -0.32266252 11.61083314 -0.09892413 17.59765625 2.20703125 C21.44187197 3.47593498 25.39677545 3.92979512 29.3984375 4.47265625 C32 5 32 5 35 7 C34.8125 8.75 34.8125 8.75 34 11 C33.175 11.5259375 32.35 12.051875 31.5 12.59375 C28.37147802 15.6049524 28.36605394 17.20916017 28.20507812 21.39453125 C28.19637695 22.56048828 28.19637695 22.56048828 28.1875 23.75 C28.16236328 24.54277344 28.13722656 25.33554687 28.11132812 26.15234375 C28.0526327 28.10103195 28.0234102 30.05056859 28 32 C29.86591797 31.89171875 29.86591797 31.89171875 31.76953125 31.78125 C63.2912751 29.99711993 63.2912751 29.99711993 74 38 C76.81311515 40.56849644 78.88899842 42.83349764 81 46 C80.9375 48.4375 80.9375 48.4375 80 51 C78.34997172 52.35386936 76.6825613 53.68678142 75 55 C72.89001405 59.15116801 72.36311839 63.51059101 71.6875 68.0625 C68.8399419 85.51673255 68.8399419 85.51673255 63.0234375 90.79296875 C60.13653112 92.51508085 58.30676397 92.47239485 55 92 C53.32012773 90.68334336 51.65533995 89.34736973 50 88 C44.62738519 85.29605819 39.11349756 84.74177976 33.1796875 84.41796875 C32.48738037 84.37619507 31.79507324 84.33442139 31.08178711 84.29138184 C29.38811816 84.18982015 27.69408912 84.09429389 26 84 C25.95512451 84.91064209 25.91024902 85.82128418 25.86401367 86.75952148 C23.5398441 132.53958388 23.5398441 132.53958388 16 143 C15.34 143 14.68 143 14 143 C13.94465088 141.73406006 13.88930176 140.46812012 13.83227539 139.16381836 C13.62512356 134.44670108 13.413449 129.72979555 13.20043945 125.01293945 C13.10904438 122.97523365 13.01885983 120.93747316 12.92993164 118.8996582 C12.8015605 115.9628995 12.66877196 113.02636795 12.53515625 110.08984375 C12.47727684 108.73317848 12.47727684 108.73317848 12.41822815 107.34910583 C12.19313831 102.50350601 11.71106176 97.80326463 11 93 C10.93943849 91.35514934 10.91218045 89.70827043 10.9375 88.0625 C10.94652344 87.29035156 10.95554688 86.51820312 10.96484375 85.72265625 C10.97644531 85.15417969 10.98804688 84.58570312 11 84 C7.47816007 84.28023339 3.95781392 84.57625265 0.4375 84.875 C-0.55314453 84.95363281 -1.54378906 85.03226562 -2.56445312 85.11328125 C-7.93190773 85.5769152 -12.94792822 86.06931478 -18 88 C-20.40521237 90.93942994 -20.40521237 90.93942994 -22 94 C-23 95 -23 95 -25.5 95.125 C-28 95 -28 95 -29 94 C-29.17734275 91.93839054 -29.34079056 89.87558904 -29.5 87.8125 C-30.507315 77.67146832 -33.77423939 68.06163418 -36.8125 58.38598633 C-37.40224609 56.50496216 -37.40224609 56.50496216 -38.00390625 54.5859375 C-38.36299072 53.4623584 -38.7220752 52.3387793 -39.09204102 51.18115234 C-39.97198828 48.0981427 -40.68941537 45.19254757 -41 42 C-38.81567858 39.11357527 -37.44696406 38.14898802 -34 37 C-30.4375 36.8125 -30.4375 36.8125 -27 37 C-26.34 37.66 -25.68 38.32 -25 39 C-22.58646543 38.64086119 -20.3062767 38.18151644 -17.9375 37.625 C-9.23579377 35.75762508 -0.86147737 35.70388628 8 36 C8.96648262 20.37305833 8.96648262 20.37305833 2.875 6.75 C2.12992188 6.06421875 1.38484375 5.3784375 0.6171875 4.671875 C0.08351562 4.12015625 -0.45015625 3.5684375 -1 3 C-0.67 2.01 -0.34 1.02 0 0 Z " fill="#EB4123" transform="translate(71,12)"/>
<path d="M0 0 C59.4 0 118.8 0 180 0 C180 5.28 180 10.56 180 16 C120.6 16 61.2 16 0 16 C0 10.72 0 5.44 0 0 Z " fill="#DCA074" transform="translate(0,164)"/>
<path d="M0 0 C7.5796875 -0.0928125 7.5796875 -0.0928125 15.3125 -0.1875 C17.69915894 -0.22846802 17.69915894 -0.22846802 20.1340332 -0.27026367 C21.38531006 -0.27775635 22.63658691 -0.28524902 23.92578125 -0.29296875 C25.85031128 -0.31653442 25.85031128 -0.31653442 27.8137207 -0.34057617 C31 0 31 0 32.94799805 1.26806641 C35.0135428 4.66861746 33.78643962 8.28196624 33 12 C31.98107616 15.70105117 30.76772599 19.31506209 29.5 22.9375 C29.17902344 23.88173828 28.85804687 24.82597656 28.52734375 25.79882812 C26.20076885 32.5984623 26.20076885 32.5984623 25 35 C23.58318366 34.68817931 22.16655349 34.37551263 20.75 34.0625 C19.96109375 33.88847656 19.1721875 33.71445313 18.359375 33.53515625 C16.23271327 33.0527843 14.11557202 32.52889301 12 32 C7.71 31.67 3.42 31.34 -1 31 C-0.67 20.77 -0.34 10.54 0 0 Z " fill="#FCDDB7" transform="translate(99,56)"/>
<path d="M0 0 C0 9.24 0 18.48 0 28 C-2.92875 28.2475 -5.8575 28.495 -8.875 28.75 C-15.46804759 29.37513023 -21.25235942 30.29023986 -27.28515625 33.1953125 C-29 34 -29 34 -31 34 C-31.66 24.43 -32.32 14.86 -33 5 C-21.58331755 2.02590625 -11.83525109 0 0 0 Z " fill="#FCDDB8" transform="translate(81,57)"/>
</svg>
