<svg width="142" height="142" viewBox="0 0 142 142" fill="none" xmlns="http://www.w3.org/2000/svg">
<g clip-path="url(#clip0_444_639)">
<rect width="142" height="142" rx="71" fill="white"/>
<rect x="11" y="11" width="120" height="120" rx="60" fill="#FFE7B2"/>
<path d="M99.8088 38.5285C100.816 38.3907 101.829 38.7335 102.548 39.452C103.266 40.1706 103.609 41.1843 103.471 42.191C102.123 52.0466 98.1369 61.3542 91.9377 69.1337C86.3311 76.1694 79.0978 81.7112 70.8826 85.3075C71.2154 88.0718 70.8329 90.8822 69.7622 93.4674C68.5325 96.4362 66.4512 98.9753 63.7795 100.761C61.1072 102.546 57.9639 103.5 54.75 103.5H41.75C39.9551 103.5 38.5 102.045 38.5 100.25V87.2499C38.5 84.0359 39.4534 80.8926 41.239 78.2203C43.0245 75.5486 45.5636 73.4674 48.5325 72.2377C51.1165 71.1674 53.9261 70.782 56.6892 71.1141C60.2855 62.8995 65.8309 55.6684 72.8662 50.0621C80.6456 43.863 89.9533 39.8766 99.8088 38.5285ZM67.3247 65.3727C65.6094 67.8305 64.1159 70.4447 62.875 73.1898C64.0962 73.8955 65.2312 74.7526 66.2393 75.7606C67.2463 76.7677 68.1016 77.9019 68.8069 79.1217C71.5523 77.8808 74.166 76.3874 76.624 74.672C74.3722 70.8263 71.1708 67.6239 67.3247 65.3727ZM96.1907 45.806C89.1717 47.4484 82.5833 50.6275 76.916 55.1434C74.9507 56.7095 73.1209 58.4243 71.4316 60.2597C75.6028 62.8699 79.1263 66.3943 81.7371 70.5651C83.5725 68.8758 85.2903 67.0492 86.8564 65.0839C91.3728 59.416 94.5485 52.8258 96.1907 45.806ZM45 96.9999H54.75C56.6784 96.9999 58.5643 96.4272 60.1677 95.3558C61.7702 94.2848 63.0195 92.763 63.7573 90.9823C64.4952 89.201 64.6887 87.2398 64.3127 85.3488C64.2726 85.1467 64.2194 84.9472 64.1667 84.7489C64.128 84.6675 64.0913 84.5841 64.0588 84.4982C63.9798 84.2888 63.9249 84.0761 63.8906 83.8634C63.4046 82.5517 62.6412 81.354 61.6436 80.3563C60.6435 79.3563 59.4423 78.5919 58.127 78.1061C57.9176 78.0717 57.7079 78.0189 57.5017 77.941C57.4145 77.9081 57.3305 77.8694 57.2478 77.83C57.0508 77.7777 56.8519 77.7271 56.6511 77.6871C54.7601 77.3112 52.7988 77.5047 51.0176 78.2426C49.2369 78.9804 47.7151 80.2297 46.644 81.8322C45.5727 83.4355 45 85.3215 45 87.2499V96.9999Z" fill="#FFAE00"/>
<path d="M96.1907 45.806C89.1717 47.4484 82.5833 50.6275 76.916 55.1434C74.9507 56.7095 73.1209 58.4243 71.4316 60.2597C75.6028 62.8699 79.1263 66.3943 81.7371 70.5651C83.5725 68.8758 85.2903 67.0492 86.8564 65.0839C91.3728 59.416 94.5485 52.8258 96.1907 45.806Z" fill="#FFAE00" fill-opacity="0.5"/>
</g>
<defs>
<clipPath id="clip0_444_639">
<rect width="142" height="142" fill="white"/>
</clipPath>
</defs>
</svg>
