<?xml version="1.0" encoding="UTF-8"?>
<svg version="1.1" xmlns="http://www.w3.org/2000/svg" width="512" height="512">
<path d="M0 0 C168.96 0 337.92 0 512 0 C512 168.96 512 337.92 512 512 C343.04 512 174.08 512 0 512 C0 343.04 0 174.08 0 0 Z " fill="#56E096" transform="translate(0,0)"/>
<path d="M0 0 C87.45 0 174.9 0 265 0 C265 10.89 265 21.78 265 33 C275.89 33 286.78 33 298 33 C298 120.45 298 207.9 298 298 C210.55 298 123.1 298 33 298 C33 287.11 33 276.22 33 265 C22.11 265 11.22 265 0 265 C0 177.55 0 90.1 0 0 Z " fill="#150C09" transform="translate(107,107)"/>
<path d="M0 0 C36.3 0 72.6 0 110 0 C110 35.97 110 71.94 110 109 C73.7 109 37.4 109 0 109 C0 73.03 0 37.06 0 0 Z " fill="#56E096" transform="translate(122,247)"/>
<path d="M0 0 C35.64 0 71.28 0 108 0 C108 35.97 108 71.94 108 109 C72.36 109 36.72 109 0 109 C0 73.03 0 37.06 0 0 Z " fill="#FCFCFC" transform="translate(248,247)"/>
<path d="M0 0 C35.97 0 71.94 0 109 0 C109 35.64 109 71.28 109 108 C73.03 108 37.06 108 0 108 C0 72.36 0 36.72 0 0 Z " fill="#FDFDFD" transform="translate(123,123)"/>
<path d="M0 0 C35.64 0 71.28 0 108 0 C108 35.97 108 71.94 108 109 C72.36 109 36.72 109 0 109 C0 73.03 0 37.06 0 0 Z " fill="#FEEC47" transform="translate(248,122)"/>
<path d="M0 0 C0 12.54 0 25.08 0 38 C2.31 38 4.62 38 7 38 C7 42.29 7 46.58 7 51 C4.69 51 2.38 51 0 51 C0 53.97 0 56.94 0 60 C-4.95 60 -9.9 60 -15 60 C-15 57.03 -15 54.06 -15 51 C-24.9 51 -34.8 51 -45 51 C-45 36.37621667 -45 36.37621667 -42.03515625 31.97265625 C-41.40528809 31.00199219 -40.77541992 30.03132813 -40.12646484 29.03125 C-39.44535645 28.0515625 -38.76424805 27.071875 -38.0625 26.0625 C-36.65861128 23.98151019 -35.25625939 21.89948275 -33.85546875 19.81640625 C-33.17919434 18.82398926 -32.50291992 17.83157227 -31.80615234 16.80908203 C-30.23172393 14.3603968 -28.94363038 11.98272232 -27.73828125 9.33984375 C-21.70188033 -3.45912998 -12.81910638 -1.12872635 0 0 Z " fill="#160D0A" transform="translate(196,147)"/>
<path d="M0 0 C4.60101951 3.98513501 6.79126304 7.53690387 7.3125 13.6875 C7.13057473 22.01058109 2.04275052 27.46068077 -3.29296875 33.41015625 C-6.93796792 36.89736324 -11.01814002 39.9029978 -15 43 C-7.41 43.33 0.18 43.66 8 44 C8 48.29 8 52.58 8 57 C-7.51 57 -23.02 57 -39 57 C-39 45 -39 45 -36.2890625 41.484375 C-35.09638937 40.53569534 -33.8729975 39.62462251 -32.625 38.75 C-31.99029785 38.25749756 -31.3555957 37.76499512 -30.70166016 37.25756836 C-28.82311364 35.80613652 -26.91462444 34.40327463 -25 33 C-23.11788249 31.52990044 -21.24178764 30.05201768 -19.375 28.5625 C-18.61960937 27.98628906 -17.86421875 27.41007812 -17.0859375 26.81640625 C-13.45497681 23.65461463 -11.24946321 21.11298972 -10.1875 16.375 C-9.79261232 13.00822242 -9.79261232 13.00822242 -11 10 C-12.5798928 9.83718662 -14.16465741 9.72122021 -15.75 9.625 C-17.07257813 9.52058594 -17.07257813 9.52058594 -18.421875 9.4140625 C-19.27265625 9.60742188 -20.1234375 9.80078125 -21 10 C-21.91265625 11.485 -21.91265625 11.485 -22.84375 13 C-23.5553125 13.99 -24.266875 14.98 -25 16 C-27.89594351 16.46211865 -29.90497024 16.584747 -32.75 16.375 C-33.79607422 16.33439453 -33.79607422 16.33439453 -34.86328125 16.29296875 C-36.57685705 16.22254783 -38.28883302 16.11492913 -40 16 C-40.28775167 9.87001753 -38.83654396 6.67308362 -35 2 C-25.56627787 -6.72458128 -10.8468251 -6.01823845 0 0 Z " fill="#19100D" transform="translate(318,271)"/>
<path d="M0 0 C4.29 0 8.58 0 13 0 C13 4.95 13 9.9 13 15 C18.28 15 23.56 15 29 15 C29 19.62 29 24.24 29 29 C24.05 29 19.1 29 14 29 C14 33.95 14 38.9 14 44 C9.38 44 4.76 44 0 44 C0 39.05 0 34.1 0 29 C-4.95 29 -9.9 29 -15 29 C-15 24.38 -15 19.76 -15 15 C-10.05 15 -5.1 15 0 15 C0 10.05 0 5.1 0 0 Z " fill="#1E150B" transform="translate(295,157)"/>
<path d="M0 0 C11.22 0 22.44 0 34 0 C34 4.95 34 9.9 34 15 C22.78 15 11.56 15 0 15 C0 10.05 0 5.1 0 0 Z " fill="#16100B" transform="translate(160,294)"/>
<path d="M0 0 C0.33 0 0.66 0 1 0 C1 6.93 1 13.86 1 21 C-3.29 21 -7.58 21 -12 21 C-10.64107336 17.60268341 -9.53101275 15.02112741 -7.65234375 12.01171875 C-7.21212891 11.30595703 -6.77191406 10.60019531 -6.31835938 9.87304688 C-5.86267578 9.15181641 -5.40699219 8.43058594 -4.9375 7.6875 C-4.47794922 6.94693359 -4.01839844 6.20636719 -3.54492188 5.44335938 C-2.39382383 3.60937791 -1.20060244 1.8019624 0 0 Z " fill="#F5F5F4" transform="translate(180,164)"/>
</svg>
