<?xml version="1.0" encoding="UTF-8"?>
<svg version="1.1" xmlns="http://www.w3.org/2000/svg" width="210" height="220">
<path d="M0 0 C-0.144375 0.69222656 -0.28875 1.38445313 -0.4375 2.09765625 C-2.87142839 14.92648713 -4.62811003 31.55783496 3 43 C3.46510986 42.63358398 3.93021973 42.26716797 4.40942383 41.88964844 C9.60498978 37.88450671 14.98229769 34.47941062 20.6875 31.25 C21.59814209 30.7341333 22.50878418 30.2182666 23.44702148 29.68676758 C46.60092327 16.74039298 72.99811845 4.13493022 100 3 C101.11955078 2.92265625 101.11955078 2.92265625 102.26171875 2.84375 C118.83598269 2.18625854 134.38587736 7.34643014 147 18 C163.19205863 33.09162746 170.33437749 54.72076786 174 76 C174.17877686 76.98685791 174.35755371 77.97371582 174.54174805 78.99047852 C176.35409536 90.41432122 176.3376714 101.80520697 176.31567383 113.34741211 C176.31254099 116.76774836 176.3359493 120.18719359 176.36132812 123.60742188 C176.42004017 143.85479271 174.62091444 163.89672007 170.5625 183.75 C170.35149658 184.81782715 170.14049316 185.8856543 169.9230957 186.98583984 C168.34430969 194.78543435 166.46338583 202.43093741 164 210 C162.41015625 210.69140625 162.41015625 210.69140625 160 211 C157.70886749 210.06745842 155.61920018 209.07971816 153.4375 207.9375 C123.49233507 193.22306551 88.76460935 190.76324573 56.16162109 186.34375 C-9.22745936 177.45771368 -9.22745936 177.45771368 -26.671875 155.9375 C-35.15049576 143.56868853 -34.61300337 126.98084375 -32.2265625 112.78125 C-28.22262907 92.88545511 -19.51036329 73.82528985 -10 56 C-10.47308594 55.45214844 -10.94617188 54.90429688 -11.43359375 54.33984375 C-21.82416205 41.8833145 -32.63703737 25.61516353 -34 9 C-33.71903108 7.32371084 -33.39600652 5.65289677 -33 4 C-22.22265531 -0.99818884 -11.63013376 -0.42493462 0 0 Z " fill="#03180B" transform="translate(34,9)"/>
<path d="M0 0 C0.13535156 1.16273437 0.27070313 2.32546875 0.41015625 3.5234375 C2.6965854 21.19349777 7.55760105 39.63970836 21.84375 51.42578125 C28.35182616 56.27639845 28.35182616 56.27639845 36 58 C37.23813863 56.58967601 37.23813863 56.58967601 38.234375 54.66796875 C38.64026855 53.95640625 39.04616211 53.24484375 39.46435547 52.51171875 C39.88861816 51.74472656 40.31288086 50.97773437 40.75 50.1875 C41.64207392 48.62824475 42.53530648 47.06965181 43.4296875 45.51171875 C44.08469238 44.36002197 44.08469238 44.36002197 44.75292969 43.18505859 C46.42049421 40.2632296 48.12230944 37.3718328 49.875 34.5 C50.38804688 33.6440625 50.90109375 32.788125 51.4296875 31.90625 C53.34672469 29.57910037 54.03491408 29.34479202 57 29 C60.00512695 29.6809082 60.00512695 29.6809082 63.48828125 30.80078125 C64.10970505 30.99721725 64.73112885 31.19365326 65.37138367 31.39604187 C67.3549624 32.02528328 69.33367813 32.66847335 71.3125 33.3125 C73.28153633 33.94258196 75.25146874 34.56980123 77.22148132 35.19682312 C79.01799088 35.77035975 80.8124037 36.35045193 82.60668945 36.9309082 C89.66895845 39.24003776 89.66895845 39.24003776 97 40 C97.58007812 38.96101563 98.16015625 37.92203125 98.7578125 36.8515625 C103.05976854 29.16429442 107.39542415 21.51177864 112 14 C116.79183125 14.58373217 120.82503205 16.03540222 125.1796875 18.02734375 C125.86164688 18.33193512 126.54360626 18.63652649 127.24623108 18.9503479 C129.4587657 19.93964389 131.66697215 20.93819055 133.875 21.9375 C136.93432298 23.3141032 139.99575637 24.68592239 143.05859375 26.0546875 C144.19908928 26.56495232 144.19908928 26.56495232 145.36262512 27.08552551 C150.03007495 29.16130853 154.72261817 31.12852 159.47265625 33.0078125 C160.57561035 33.44617432 161.67856445 33.88453613 162.81494141 34.33618164 C164.84573746 35.13373352 166.88298702 35.91510814 168.92724609 36.67749023 C175.51298744 39.27886396 175.51298744 39.27886396 178.12890625 43.15234375 C179 46 179 46 179 48 C172.80809359 46.03581463 166.82872972 43.7657173 160.86328125 41.19921875 C160.02137741 40.84036087 159.17947357 40.48150299 158.3120575 40.11177063 C155.64411253 38.97365175 152.9782837 37.83067057 150.3125 36.6875 C148.54505959 35.93262018 146.77748242 35.17806049 145.00976562 34.42382812 C140.00456447 32.28708438 135.00198224 30.14426596 130 28 C128.53696099 27.37317609 127.07390834 26.74638399 125.61083984 26.11962891 C122.40697808 24.74699854 119.20338756 23.37373674 116 22 C114.0255381 24.54440602 112.32260577 27.06931575 110.80078125 29.90625 C110.40028564 30.64423828 109.99979004 31.38222656 109.5871582 32.14257812 C109.166521 32.92052734 108.74588379 33.69847656 108.3125 34.5 C104.22670369 41.95289888 99.88123226 49.03543768 95 56 C93.98486328 57.46179688 93.98486328 57.46179688 92.94921875 58.953125 C91.30790718 61.3081933 89.65866416 63.65713687 88 66 C96.18364084 70.72862691 104.41440049 75.3672193 112.6875 79.9375 C113.56051758 80.4219458 114.43353516 80.9063916 115.33300781 81.40551758 C116.15510742 81.85822021 116.97720703 82.31092285 117.82421875 82.77734375 C118.55729248 83.18202881 119.29036621 83.58671387 120.0456543 84.00366211 C122.12269976 85.12376254 122.12269976 85.12376254 125 86 C125.17015625 85.38253906 125.3403125 84.76507813 125.515625 84.12890625 C126.79650326 79.65264551 128.18235527 75.25251984 129.9375 70.9375 C130.23527344 70.20402344 130.53304687 69.47054687 130.83984375 68.71484375 C132 67 132 67 133.63916016 66.23217773 C137.1098848 65.89084794 139.80761263 67.22973647 142.93359375 68.5703125 C143.60737564 68.84841766 144.28115753 69.12652283 144.97535706 69.41305542 C147.13395947 70.30651385 149.28574536 71.21518961 151.4375 72.125 C153.55102414 73.00694748 155.66585914 73.88569264 157.78083801 74.7641449 C159.17193936 75.34225821 160.56247612 75.921732 161.95243835 76.50257874 C167.37052614 78.76098315 172.82693605 80.89380145 178.31738281 82.97094727 C181.58791402 84.22552399 184.79635407 85.58443552 188 87 C188 88.98 188 90.96 188 93 C170.89608874 90.09616432 151.56171855 80.78085927 136 73 C135.84724609 73.59570801 135.69449219 74.19141602 135.53710938 74.80517578 C133.64865361 81.65548258 130.86928554 87.63690634 127.5 93.875 C127.01402344 94.79796875 126.52804688 95.7209375 126.02734375 96.671875 C123.89852355 100.67428899 121.7990271 104.42153579 119 108 C124.39914867 111.59943245 130.00752134 114.56256284 135.81860352 117.42602539 C153.04968678 125.93995724 170.04084833 134.95830842 187 144 C186.67 145.65 186.34 147.3 186 149 C182.05846399 147.75822517 178.41251852 146.32604623 174.7265625 144.4609375 C173.7459082 143.9673877 172.76525391 143.47383789 171.75488281 142.96533203 C170.20559082 142.17811768 170.20559082 142.17811768 168.625 141.375 C167.54573242 140.83085449 166.46646484 140.28670898 165.35449219 139.72607422 C163.20008341 138.63985826 161.04641884 137.55216481 158.89355469 136.46289062 C155.35139541 134.67208583 151.80173521 132.89670637 148.25 131.125 C147.02471481 130.51176825 145.79945598 129.89848382 144.57421875 129.28515625 C141.30301493 127.64916831 138.02899657 126.01888255 134.75424194 124.39001465 C132.1722178 123.105295 129.5910118 121.81893644 127.0098877 120.53240967 C125.71540688 119.88768471 124.42056809 119.243678 123.12536621 118.60040283 C121.30272052 117.69506511 119.48140968 116.78704151 117.66015625 115.87890625 C116.59418213 115.3485376 115.52820801 114.81816895 114.42993164 114.27172852 C112 113 112 113 111 112 C110.47058633 107.57287409 111.6572304 105.54238749 114.3125 102.0625 C116.96989545 98.46371952 119.17623873 95.07664284 121 91 C120.1426123 90.73807861 119.28522461 90.47615723 118.40185547 90.20629883 C114.91234727 88.96891832 111.8301833 87.45099597 108.5703125 85.69921875 C107.97628632 85.38096634 107.38226013 85.06271393 106.77023315 84.7348175 C105.52025189 84.0638275 104.27149791 83.39054663 103.02392578 82.71508789 C101.14004585 81.69564194 99.25205324 80.68417592 97.36328125 79.67382812 C91.10654001 76.31322174 84.96218271 72.86271737 79 69 C79.62054747 65.72042269 80.78018337 63.58963995 82.72265625 60.890625 C83.26083984 60.13652344 83.79902344 59.38242188 84.35351562 58.60546875 C85.19946289 57.43951172 85.19946289 57.43951172 86.0625 56.25 C86.63033203 55.45722656 87.19816406 54.66445312 87.78320312 53.84765625 C89.18339333 51.89444975 90.58911094 49.94548498 92 48 C88.74079924 45.82719949 86.00212328 44.97708948 82.25 43.87109375 C81.59547852 43.67653091 80.94095703 43.48196808 80.26660156 43.2815094 C78.17911224 42.66206598 76.08964553 42.04962568 74 41.4375 C71.91084503 40.82022781 69.82210774 40.2015572 67.73339844 39.58277893 C65.83854593 39.02228545 63.94273291 38.46504223 62.046875 37.90795898 C60.02131864 37.30434968 58.00511857 36.66837286 56 36 C55.7834375 36.63421875 55.566875 37.2684375 55.34375 37.921875 C53.44575793 42.26960102 50.97020703 46.20637347 48.5 50.25 C47.40291472 52.05945276 46.30657125 53.86935547 45.2109375 55.6796875 C44.6653418 56.58041992 44.11974609 57.48115234 43.55761719 58.40917969 C41.77363265 61.376522 40.03006201 64.365483 38.29370117 67.36083984 C33.92513119 74.88971018 29.35599695 82.27835617 24.6875 89.625 C24.10049316 90.54974121 23.51348633 91.47448242 22.90869141 92.42724609 C20.3973464 96.35601975 17.86861651 100.22133028 15.08203125 103.9609375 C12.71741101 106.7985094 12.71741101 106.7985094 13 110 C14.81568237 111.68573584 14.81568237 111.68573584 17.234375 113.25 C18.11867188 113.8584375 19.00296875 114.466875 19.9140625 115.09375 C21.31785156 116.03734375 21.31785156 116.03734375 22.75 117 C24.57836971 118.24964204 26.40650322 119.49962974 28.234375 120.75 C29.05131836 121.30171875 29.86826172 121.8534375 30.70996094 122.421875 C33 124 33 124 35.11035156 125.765625 C35.73393555 126.17296875 36.35751953 126.5803125 37 127 C40.18222043 125.93925986 40.66803479 125.48646998 42.59375 122.9453125 C43.06683594 122.33042969 43.53992187 121.71554688 44.02734375 121.08203125 C44.51332031 120.43621094 44.99929687 119.79039062 45.5 119.125 C46.46694967 117.85539765 47.43564566 116.58712306 48.40625 115.3203125 C48.83228516 114.75586426 49.25832031 114.19141602 49.69726562 113.60986328 C50.12716797 113.0786084 50.55707031 112.54735352 51 112 C51.69899414 111.12384033 51.69899414 111.12384033 52.41210938 110.22998047 C54 109 54 109 55.99804688 109.16650391 C59.3266861 110.55235443 61.83216599 113.00859136 64.5 115.375 C65.11657471 115.91229736 65.73314941 116.44959473 66.3684082 117.00317383 C70.36521559 120.5031391 74.28892092 124.07884996 78.1875 127.6875 C83.60656851 132.70194473 89.2526885 137.36972083 95 142 C97.40090054 143.94916315 99.71217289 145.9155353 102 148 C102 148.66 102 149.32 102 150 C105.89844621 146.65564766 109.71883404 143.35720244 113.1875 139.5625 C116 137 116 137 118.33203125 136.56640625 C122.0498582 137.17062117 123.70293432 138.87761993 126.5 141.375 C127.5644616 142.3043155 128.6309338 143.23133213 129.69921875 144.15625 C130.24497559 144.63191406 130.79073242 145.10757813 131.35302734 145.59765625 C133.92953648 147.79147014 136.61825968 149.82857332 139.3125 151.875 C144.03954024 155.46979378 148.69137581 159.14515296 153.3125 162.875 C160.54625651 168.70308673 167.95199764 174.28610905 175.41162109 179.82080078 C177.27931504 181.20736115 179.14080257 182.6020718 181 184 C180.67 185.98 180.34 187.96 180 190 C175.83750407 187.28290132 171.8674816 184.4255799 167.9375 181.375 C166.79296893 180.4895831 165.64843768 179.60416644 164.50390625 178.71875 C163.33585339 177.81260841 162.16788413 176.90635905 161 176 C151.9555948 168.98687346 151.9555948 168.98687346 142.75 162.1875 C135.0383107 156.63004189 127.53292331 150.79598538 120 145 C116.60981893 146.59225124 114.64987816 148.27727448 112.125 151.0625 C106.48937061 156.87748778 99.89161246 160.85326875 93 165 C94.62853249 169.41726132 98.01712284 172.01593455 101.4375 175.0625 C102.60328221 176.11542321 103.76865995 177.16879446 104.93359375 178.22265625 C105.44978271 178.68422119 105.96597168 179.14578613 106.49780273 179.62133789 C108.04330791 181.03974642 109.52704055 182.50670112 111 184 C106.77421095 184.49602941 102.9235139 184.33768067 99.33105469 181.83935547 C95.84098193 178.91306369 92.65514306 175.68979523 89.47021484 172.43896484 C87.44367039 170.4554954 85.25194262 168.7191355 83 167 C83.12890625 165.265625 83.12890625 165.265625 84 163 C86.65234375 160.859375 86.65234375 160.859375 89.9375 158.75 C91.01902344 158.04359375 92.10054688 157.3371875 93.21484375 156.609375 C96 155 96 155 98 155 C89.33786514 146.24053779 80.30582872 137.91132567 70.6875 130.2109375 C65.96138586 126.3228843 61.48840735 122.15850507 57 118 C53.13496396 119.28834535 51.7947313 121.64328391 49.5 124.8125 C45.16812495 130.63120724 40.51351344 135.9671844 35.54296875 141.24609375 C32.91785384 144.08896012 30.45353047 147.00907148 28 150 C29.50995483 153.4547134 31.52726794 155.91081727 34.0625 158.6875 C34.8565625 159.55761719 35.650625 160.42773438 36.46875 161.32421875 C39.67034404 164.70861986 42.98255213 167.96620374 46.34765625 171.1875 C48 173 48 173 48 175 C44.34774241 175.5326209 42.16554124 175.74439841 39 173.72265625 C34.85959479 170.1564088 31.25004887 166.16417498 27.74609375 161.98046875 C25.94405206 159.93654227 24.01122368 158.14848835 22 156.3125 C19.05397084 153.35980562 19.05397084 153.35980562 18.625 150.5 C20.32094884 147.41645665 22.45624929 145.3772134 25.01171875 142.98046875 C28.38103794 139.62438853 31.16099008 135.80548139 34 132 C33.26120605 131.72905518 32.52241211 131.45811035 31.76123047 131.17895508 C29.12875275 130.05497321 27.1180229 128.82573365 24.8203125 127.13671875 C24.05589844 126.57919922 23.29148437 126.02167969 22.50390625 125.44726562 C21.32634766 124.57618164 21.32634766 124.57618164 20.125 123.6875 C18.56519268 122.54545202 17.00529804 121.40352329 15.4453125 120.26171875 C14.69926758 119.71306152 13.95322266 119.1644043 13.18457031 118.59912109 C10.14220387 116.37208709 7.07330272 114.1840938 4 112 C4.34840601 105.89321681 7.28492879 102.21884988 10.75 97.4375 C15.85463077 90.20540105 20.6828555 82.85794262 25.3125 75.3125 C25.88129883 74.3855835 26.45009766 73.45866699 27.03613281 72.50366211 C28.36109803 70.33797981 29.68267895 68.17033775 31 66 C27.6799742 63.28904368 24.28121977 60.80142294 20.75 58.375 C3.79876174 46.06136466 -2.46481176 29.27122415 -5.73046875 9.25 C-6.06189412 6.48331863 -6.15039421 3.78229285 -6 1 C-4 0 -4 0 0 0 Z " fill="#8FAA08" transform="translate(18,12)"/>
</svg>
