<?xml version="1.0" encoding="UTF-8"?>
<svg version="1.1" xmlns="http://www.w3.org/2000/svg" width="200" height="160">
<path d="M0 0 C7.83265646 6.66997723 17.45510412 16.32312114 19.89453125 26.5625 C19.2767422 29.2054317 18.59454046 31.3900539 17.58203125 33.875 C17.30641357 34.57141602 17.0307959 35.26783203 16.74682617 35.98535156 C11.22996753 49.44582178 4.16625812 60.30655151 -6.10546875 70.5625 C-6.68683594 71.21476562 -7.26820313 71.86703125 -7.8671875 72.5390625 C-19.75304559 85.65242734 -40.47100768 94.99563226 -57.890625 96.46875 C-58.62152344 96.4996875 -59.35242188 96.530625 -60.10546875 96.5625 C-61.15605469 96.6140625 -62.20664063 96.665625 -63.2890625 96.71875 C-83.48305823 97.23161338 -105.55146052 92.74232838 -122.10546875 80.5625 C-126.6465204 76.02144835 -126.21765523 66.52221921 -126.41796875 60.3125 C-125.90172071 38.17836509 -117.59482099 19.32264511 -102.10546875 3.5625 C-101.491875 2.93601562 -100.87828125 2.30953125 -100.24609375 1.6640625 C-72.62220966 -24.42516137 -28.90990374 -22.69154709 0 0 Z " fill="#04180B" transform="translate(141.10546875,22.4375)"/>
<path d="M0 0 C0.61630569 11.88100405 -0.68841009 20.75113762 -8.234375 30.18359375 C-13.14198708 35.23235397 -19.40484483 38.67229817 -26 41 C-27.32 41 -28.64 41 -30 41 C-30.3403125 42.8871875 -30.3403125 42.8871875 -30.6875 44.8125 C-31.52689242 48.73789395 -32.88673067 51.98096989 -34.6875 55.5625 C-36.62343839 59.65514168 -37.36003702 62.20849474 -36.421875 66.77734375 C-35.13148396 73.57579284 -34.59136922 80.69518574 -38.4375 86.6875 C-39.58540171 88.15681418 -40.776457 89.59305117 -42 91 C-42.69996094 91.845625 -43.39992187 92.69125 -44.12109375 93.5625 C-53.33527214 104.29374416 -63.63864777 111.01475425 -78 113 C-81.10572037 113.11080104 -84.20534908 113.09438079 -87.3125 113.0625 C-88.14845703 113.05798828 -88.98441406 113.05347656 -89.84570312 113.04882812 C-91.89716649 113.03710548 -93.94859273 113.01917203 -96 113 C-94.86227297 106.8373119 -93.24337791 102.38585315 -90 97 C-93.51996201 96.79511543 -97.03837879 96.67186158 -100.5625 96.5625 C-101.55314453 96.50384766 -102.54378906 96.44519531 -103.56445312 96.38476562 C-109.15413474 96.18808092 -109.15413474 96.18808092 -114.0769043 98.48828125 C-115.25218067 99.71426465 -116.39070227 100.97671904 -117.48657227 102.27416992 C-119.56079113 104.63949548 -121.80602453 105.68294881 -124.6875 106.875 C-125.59886719 107.26429688 -126.51023437 107.65359375 -127.44921875 108.0546875 C-136.60994784 111.44962845 -146.42298112 111.05684892 -155.4296875 107.328125 C-162.63594363 103.60452761 -167.68864368 98.81472451 -172 92 C-170.53403275 88.0570536 -168.62691725 86.98165412 -164.875 85.25 C-163.96492188 84.82203125 -163.05484375 84.3940625 -162.1171875 83.953125 C-161.06917969 83.48132813 -161.06917969 83.48132813 -160 83 C-163.80523046 80.40774789 -167.34697114 81.08934507 -171.6875 81.5625 C-181.10946777 82.3644826 -187.45971256 80.82658575 -195 75 C-197.875 72.375 -197.875 72.375 -200 70 C-200 69.34 -200 68.68 -200 68 C-186.10571744 65.08615164 -175.33223348 64.38102458 -161.61328125 68.8828125 C-135.22253827 77.04254492 -109.02621555 77.01323369 -84.125 64.1875 C-67.08059777 54.13835014 -54.73371174 40.84649555 -45 23.8125 C-37.74724756 11.67202308 -27.97367043 4.0907486 -14.25 0.5625 C-9.52999213 -0.26416805 -4.77463186 -0.17942249 0 0 Z " fill="#02160C" transform="translate(200,46)"/>
<path d="M0 0 C1.890625 0.12890625 1.890625 0.12890625 4 1 C5.484375 3.21484375 5.484375 3.21484375 6.75 5.9375 C7.17796875 6.83339844 7.6059375 7.72929687 8.046875 8.65234375 C9 11 9 11 9 13 C10.96074484 12.04661031 12.91852652 11.0871246 14.875 10.125 C16.51082031 9.32449219 16.51082031 9.32449219 18.1796875 8.5078125 C21.03882547 7.15464063 21.03882547 7.15464063 23 5 C25.29296875 4.5 25.29296875 4.5 28 5 C30.0122134 6.97402541 31.62584511 8.78111179 33.3125 11 C33.76689453 11.57234375 34.22128906 12.1446875 34.68945312 12.734375 C35.80662795 14.14554319 36.90517971 15.57141896 38 17 C40.9719385 15.87548273 43.33440687 14.77706209 46 13 C48.35546875 12.99609375 48.35546875 12.99609375 51 14 C52.95756721 15.99186036 54.6212576 17.87014874 56.3125 20.0625 C56.76689453 20.63033203 57.22128906 21.19816406 57.68945312 21.78320312 C58.80436644 23.17977875 59.90375774 24.58872112 61 26 C63.59454779 25.43501391 65.15804341 24.89869012 67.4375 23.4375 C70.42305112 21.76267864 71.63403049 21.44730382 75 22 C77.45703125 24.40625 77.45703125 24.40625 79.8125 27.5 C80.60269531 28.5209375 81.39289063 29.541875 82.20703125 30.59375 C82.79871094 31.3878125 83.39039063 32.181875 84 33 C84.75667969 32.67257813 85.51335937 32.34515625 86.29296875 32.0078125 C89.3561478 30.86740818 91.75774009 30.84919721 95 31 C95.625 32.8125 95.625 32.8125 96 35 C95.34 35.99 94.68 36.98 94 38 C93.67 37.01 93.34 36.02 93 35 C92.5059668 35.32274902 92.01193359 35.64549805 91.50292969 35.97802734 C89.25337868 37.44588313 87.0017167 38.91046882 84.75 40.375 C83.97269531 40.88289063 83.19539063 41.39078125 82.39453125 41.9140625 C81.64042969 42.40390625 80.88632813 42.89375 80.109375 43.3984375 C79.41811523 43.84880371 78.72685547 44.29916992 78.01464844 44.76318359 C76.05590698 45.96567805 74.07075576 47.00522517 72 48 C73.67096554 52.81780928 76.30899512 55.93088022 79.63671875 59.71875 C81 62 81 62 80.70703125 64.78125 C80.35705078 65.87953125 80.35705078 65.87953125 80 67 C79.34 67 78.68 67 78 67 C75.69742986 64.46328436 73.79514697 61.60280754 71.8125 58.8125 C71.24080078 58.04357422 70.66910156 57.27464844 70.08007812 56.48242188 C69.54447266 55.73154297 69.00886719 54.98066406 68.45703125 54.20703125 C67.7141687 53.17799683 67.7141687 53.17799683 66.95629883 52.12817383 C65.69627919 49.32409132 66.00439949 47.87169634 67 45 C69.65234375 42.98046875 69.65234375 42.98046875 72.9375 41.1875 C74.01902344 40.58292969 75.10054688 39.97835937 76.21484375 39.35546875 C79 38 79 38 81 38 C79.92949782 36.51152084 78.84307756 35.0344805 77.75 33.5625 C77.14671875 32.73878906 76.5434375 31.91507813 75.921875 31.06640625 C74.16986156 28.98058464 74.16986156 28.98058464 72.19140625 27.953125 C68.58807161 28.03020168 66.04938981 30.19489009 63.1875 32.1875 C61.99469732 32.99527586 60.80068666 33.80127087 59.60546875 34.60546875 C58.72060791 35.20174072 58.72060791 35.20174072 57.81787109 35.81005859 C49.88920804 41 49.88920804 41 47 41 C51.29064463 49.3333913 56.65396349 56.89505578 62.08691406 64.51147461 C63.25410453 66.15203619 64.40467441 67.80438313 65.5546875 69.45703125 C66.58311768 70.9107312 66.58311768 70.9107312 67.63232422 72.39379883 C69 75 69 75 68.71533203 77.34643555 C68.47927246 77.89211182 68.24321289 78.43778809 68 79 C63.33247733 77.47186493 61.35388554 73.6513904 58.76171875 69.76171875 C58.03418144 68.68504692 58.03418144 68.68504692 57.29194641 67.58662415 C56.27118912 66.06914698 55.25527609 64.54840152 54.24389648 63.0246582 C52.69242555 60.69489643 51.11592779 58.38355346 49.53710938 56.07226562 C48.54790553 54.59480238 47.56022282 53.11631932 46.57421875 51.63671875 C46.10038254 50.94696457 45.62654633 50.25721039 45.13835144 49.54655457 C41.97945474 44.71646265 41.97945474 44.71646265 42.08227539 41.13085938 C43.35693285 38.17123971 44.95370449 37.35542637 47.75 35.8125 C48.61109375 35.32394531 49.4721875 34.83539063 50.359375 34.33203125 C52.86514598 33.06802547 55.37734937 31.99528648 58 31 C57.51789063 30.38511719 57.03578125 29.77023438 56.5390625 29.13671875 C55.90742187 28.32847656 55.27578125 27.52023438 54.625 26.6875 C53.99851562 25.88699219 53.37203125 25.08648437 52.7265625 24.26171875 C51.42243282 22.55336788 50.19218183 20.78827274 49 19 C44.29782174 19.52148218 41.05778527 21.70030314 37.25 24.3125 C31.99992742 27.81277883 26.88897186 30.66471805 21 33 C21.73332554 39.44278869 24.24244871 45.1351448 26.6484375 51.09960938 C29.59289224 58.72019613 29.59289224 58.72019613 28 63 C25 62 25 62 23.72558594 59.48730469 C21.16744428 52.65418831 21.16744428 52.65418831 20.44628906 50.66357422 C19.75534481 48.76468886 19.03937056 46.87667174 18.3203125 44.98828125 C17.87945312 43.79074219 17.43859375 42.59320313 16.984375 41.359375 C16.57928711 40.26077148 16.17419922 39.16216797 15.75683594 38.03027344 C14.95022416 34.80070394 14.81452588 33.10075469 16 30 C17.67407227 28.60620117 17.67407227 28.60620117 19.81640625 27.54296875 C20.58017578 27.15302734 21.34394531 26.76308594 22.13085938 26.36132812 C22.93330078 25.97396484 23.73574219 25.58660156 24.5625 25.1875 C25.36880859 24.78080078 26.17511719 24.37410156 27.00585938 23.95507812 C28.99651866 22.95385896 30.99394217 21.96989583 33 21 C33 18.00513763 31.34378454 16.67973067 29.5 14.375 C28.52546875 13.14910156 28.52546875 13.14910156 27.53125 11.8984375 C27.0259375 11.27195312 26.520625 10.64546875 26 10 C25.175 10.50789063 24.35 11.01578125 23.5 11.5390625 C14.65632985 16.85615549 5.74780208 20.66057154 -4 24 C-5.45599609 24.51240234 -5.45599609 24.51240234 -6.94140625 25.03515625 C-12.63488372 27 -12.63488372 27 -15 27 C-14.79503906 28.05316406 -14.59007813 29.10632813 -14.37890625 30.19140625 C-12.5627496 39.81288594 -11.4131278 49.21314488 -11 59 C-10.08992188 58.66226563 -9.17984375 58.32453125 -8.2421875 57.9765625 C-4.43949175 56.83117221 -1.85538837 57.22892233 2 58 C4.02684303 65.28567901 5.07619086 72.64349483 6.125 80.125 C6.30675781 81.37410156 6.48851562 82.62320313 6.67578125 83.91015625 C6.84722656 85.11800781 7.01867187 86.32585937 7.1953125 87.5703125 C7.35016113 88.66102051 7.50500977 89.75172852 7.66455078 90.87548828 C7.99402663 93.9443616 8.05969328 96.91623338 8 100 C6.68 100 5.36 100 4 100 C2.28516165 92.61217439 0.79229909 85.38990396 0.25 77.8203125 C-0.22067744 72.51048266 -1.13893723 67.25833481 -2 62 C-2.59425781 62.14622803 -3.18851563 62.29245605 -3.80078125 62.44311523 C-6.53273815 63.11256152 -9.26633384 63.77506955 -12 64.4375 C-12.93457031 64.66759766 -13.86914062 64.89769531 -14.83203125 65.13476562 C-20.22088438 66.43487355 -25.48452918 67.43414391 -31 68 C-30.89171875 68.99966797 -30.89171875 68.99966797 -30.78125 70.01953125 C-30.10801736 76.70510535 -29.88306989 83.2830148 -30 90 C-31.32 89.67 -32.64 89.34 -34 89 C-36.89655172 72.5 -36.89655172 72.5 -36 66 C-33.39304774 63.39304774 -31.33043265 63.18427587 -27.75 62.375 C-26.07164063 61.98441406 -26.07164063 61.98441406 -24.359375 61.5859375 C-21.15783481 61.02752933 -18.24105386 60.89196487 -15 61 C-15.20496094 59.72125 -15.40992187 58.4425 -15.62109375 57.125 C-15.89329894 55.41667778 -16.16543043 53.70834382 -16.4375 52 C-16.57220703 51.16082031 -16.70691406 50.32164063 -16.84570312 49.45703125 C-19.15200302 34.94421729 -19.15200302 34.94421729 -19.0625 28.5 C-19.05347656 27.6440625 -19.04445313 26.788125 -19.03515625 25.90625 C-19.02355469 25.2771875 -19.01195313 24.648125 -19 24 C-13.97455957 21.7540299 -8.94754721 19.92610114 -3.6875 18.3125 C-2.97271484 18.08755859 -2.25792969 17.86261719 -1.52148438 17.63085938 C3.73791318 16 3.73791318 16 6 16 C3.69 11.05 1.38 6.1 -1 1 C-0.67 0.67 -0.34 0.34 0 0 Z " fill="#D28E01" transform="translate(61,15)"/>
<path d="M0 0 C2.45703125 2.40625 2.45703125 2.40625 4.8125 5.5 C5.60269531 6.5209375 6.39289063 7.541875 7.20703125 8.59375 C7.79871094 9.3878125 8.39039063 10.181875 9 11 C9.75667969 10.67257813 10.51335937 10.34515625 11.29296875 10.0078125 C14.3561478 8.86740818 16.75774009 8.84919721 20 9 C20.625 10.8125 20.625 10.8125 21 13 C20.34 13.99 19.68 14.98 19 16 C18.505 14.515 18.505 14.515 18 13 C17.5059668 13.32274902 17.01193359 13.64549805 16.50292969 13.97802734 C14.25337868 15.44588313 12.0017167 16.91046882 9.75 18.375 C8.97269531 18.88289063 8.19539063 19.39078125 7.39453125 19.9140625 C6.64042969 20.40390625 5.88632813 20.89375 5.109375 21.3984375 C4.41811523 21.84880371 3.72685547 22.29916992 3.01464844 22.76318359 C1.05590698 23.96567805 -0.92924424 25.00522517 -3 26 C-1.32903446 30.81780928 1.30899512 33.93088022 4.63671875 37.71875 C6 40 6 40 5.70703125 42.78125 C5.47371094 43.5134375 5.24039063 44.245625 5 45 C4.34 45 3.68 45 3 45 C0.69742986 42.46328436 -1.20485303 39.60280754 -3.1875 36.8125 C-3.75919922 36.04357422 -4.33089844 35.27464844 -4.91992188 34.48242188 C-5.72333008 33.35610352 -5.72333008 33.35610352 -6.54296875 32.20703125 C-7.03821045 31.5210083 -7.53345215 30.83498535 -8.04370117 30.12817383 C-9.30372081 27.32409132 -8.99560051 25.87169634 -8 23 C-5.34765625 20.98046875 -5.34765625 20.98046875 -2.0625 19.1875 C-0.44021484 18.28064453 -0.44021484 18.28064453 1.21484375 17.35546875 C4 16 4 16 6 16 C4.92949782 14.51152084 3.84307756 13.0344805 2.75 11.5625 C2.14671875 10.73878906 1.5434375 9.91507813 0.921875 9.06640625 C-0.83013844 6.98058464 -0.83013844 6.98058464 -2.80859375 5.953125 C-6.41192839 6.03020168 -8.95061019 8.19489009 -11.8125 10.1875 C-13.00530268 10.99527586 -14.19931334 11.80127087 -15.39453125 12.60546875 C-15.98443848 13.0029834 -16.5743457 13.40049805 -17.18212891 13.81005859 C-25.11079196 19 -25.11079196 19 -28 19 C-23.70935537 27.3333913 -18.34603651 34.89505578 -12.91308594 42.51147461 C-11.74589547 44.15203619 -10.59532559 45.80438313 -9.4453125 47.45703125 C-8.75969238 48.42616455 -8.07407227 49.39529785 -7.36767578 50.39379883 C-6 53 -6 53 -6.28466797 55.34643555 C-6.52072754 55.89211182 -6.75678711 56.43778809 -7 57 C-11.66752267 55.47186493 -13.64611446 51.6513904 -16.23828125 47.76171875 C-16.72330612 47.04393753 -17.20833099 46.32615631 -17.70805359 45.58662415 C-18.72881088 44.06914698 -19.74472391 42.54840152 -20.75610352 41.0246582 C-22.30757445 38.69489643 -23.88407221 36.38355346 -25.46289062 34.07226562 C-26.45209447 32.59480238 -27.43977718 31.11631932 -28.42578125 29.63671875 C-28.89961746 28.94696457 -29.37345367 28.25721039 -29.86164856 27.54655457 C-33.02054526 22.71646265 -33.02054526 22.71646265 -32.91772461 19.13085938 C-31.64306715 16.17123971 -30.04629551 15.35542637 -27.25 13.8125 C-26.38890625 13.32394531 -25.5278125 12.83539063 -24.640625 12.33203125 C-22.13485402 11.06802547 -19.62265063 9.99528648 -17 9 C-17.66 8.01 -18.32 7.02 -19 6 C-18.625 3.8125 -18.625 3.8125 -18 2 C-17.4225 2.350625 -16.845 2.70125 -16.25 3.0625 C-13.52986474 4.19588969 -12.70825331 4.06688767 -10 3 C-9.195625 2.484375 -8.39125 1.96875 -7.5625 1.4375 C-4.57694888 -0.23732136 -3.36596951 -0.55269618 0 0 Z " fill="#999F05" transform="translate(136,37)"/>
<path d="M0 0 C2.02684303 7.28567901 3.07619086 14.64349483 4.125 22.125 C4.30675781 23.37410156 4.48851562 24.62320313 4.67578125 25.91015625 C4.84722656 27.11800781 5.01867187 28.32585937 5.1953125 29.5703125 C5.35016113 30.66102051 5.50500977 31.75172852 5.66455078 32.87548828 C5.99402663 35.9443616 6.05969328 38.91623338 6 42 C4.68 42 3.36 42 2 42 C0.28516165 34.61217439 -1.20770091 27.38990396 -1.75 19.8203125 C-2.22067744 14.51048266 -3.13893723 9.25833481 -4 4 C-4.59425781 4.14622803 -5.18851563 4.29245605 -5.80078125 4.44311523 C-8.53273815 5.11256152 -11.26633384 5.77506955 -14 6.4375 C-15.40185547 6.78264648 -15.40185547 6.78264648 -16.83203125 7.13476562 C-22.22088438 8.43487355 -27.48452918 9.43414391 -33 10 C-32.9278125 10.66644531 -32.855625 11.33289063 -32.78125 12.01953125 C-32.10801736 18.70510535 -31.88306989 25.2830148 -32 32 C-33.32 31.67 -34.64 31.34 -36 31 C-38.89655172 14.5 -38.89655172 14.5 -38 8 C-35.39304774 5.39304774 -33.33043265 5.18427587 -29.75 4.375 C-28.63109375 4.11460938 -27.5121875 3.85421875 -26.359375 3.5859375 C-23.15783481 3.02752933 -20.24105386 2.89196487 -17 3 C-16.67 2.34 -16.34 1.68 -16 1 C-10.52258088 -1.00995423 -5.64594138 -1.20126412 0 0 Z " fill="#949A05" transform="translate(63,73)"/>
<path d="M0 0 C1.66832577 2.50248865 2.62381674 4.41149187 3.625 7.1875 C3.88539062 7.90292969 4.14578125 8.61835937 4.4140625 9.35546875 C4.60742188 9.89816406 4.80078125 10.44085938 5 11 C5.68707031 10.82082031 6.37414062 10.64164063 7.08203125 10.45703125 C8.43361328 10.13798828 8.43361328 10.13798828 9.8125 9.8125 C11.15248047 9.48185547 11.15248047 9.48185547 12.51953125 9.14453125 C15 9 15 9 16.58984375 9.98046875 C18.68215738 12.97694007 20.22019871 16.19487375 21.75 19.5 C22.24306641 20.51513672 22.24306641 20.51513672 22.74609375 21.55078125 C25.12211361 26.63365917 25.12211361 26.63365917 24 30 C23.01 30.33 22.02 30.66 21 31 C19.82866942 28.54379149 18.66278278 26.08525083 17.5 23.625 C17.16613281 22.92632812 16.83226563 22.22765625 16.48828125 21.5078125 C14 16.2265625 14 16.2265625 14 14 C8.06 16.31 2.12 18.62 -4 21 C-3.23584496 27.50071885 -3.23584496 27.50071885 -1.9375 31.6875 C-1 35 -1 35 -1 39 C-2.32 39 -3.64 39 -5 39 C-5.86881541 36.44165429 -6.7202133 33.87957539 -7.5625 31.3125 C-7.80935547 30.59126953 -8.05621094 29.87003906 -8.31054688 29.12695312 C-10.60353403 22.05421811 -10.60353403 22.05421811 -9 18 C-5.33634907 15.63898051 -3.40218532 15 1 15 C-0.32 11.04 -1.64 7.08 -3 3 C-2.01 2.01 -1.02 1.02 0 0 Z " fill="#2E8408" transform="translate(90,75)"/>
<path d="M0 0 C3.59634744 3.49359465 6.83451967 7.11098131 10 11 C10.70125 10.67 11.4025 10.34 12.125 10 C15.26003116 8.90955438 17.70563182 8.84677357 21 9 C21.625 10.8125 21.625 10.8125 22 13 C21.01 14.485 21.01 14.485 20 16 C19.67 15.01 19.34 14.02 19 13 C18.5059668 13.32274902 18.01193359 13.64549805 17.50292969 13.97802734 C15.25337868 15.44588313 13.0017167 16.91046882 10.75 18.375 C9.97269531 18.88289063 9.19539063 19.39078125 8.39453125 19.9140625 C7.64042969 20.40390625 6.88632813 20.89375 6.109375 21.3984375 C5.07248535 22.07398682 5.07248535 22.07398682 4.01464844 22.76318359 C2.05590698 23.96567805 0.07075576 25.00522517 -2 26 C-0.32903446 30.81780928 2.30899512 33.93088022 5.63671875 37.71875 C7 40 7 40 6.70703125 42.78125 C6.47371094 43.5134375 6.24039063 44.245625 6 45 C5.34 45 4.68 45 4 45 C1.69742986 42.46328436 -0.20485303 39.60280754 -2.1875 36.8125 C-2.75919922 36.04357422 -3.33089844 35.27464844 -3.91992188 34.48242188 C-4.72333008 33.35610352 -4.72333008 33.35610352 -5.54296875 32.20703125 C-6.03821045 31.5210083 -6.53345215 30.83498535 -7.04370117 30.12817383 C-8.30372081 27.32409132 -7.99560051 25.87169634 -7 23 C-4.34765625 20.98046875 -4.34765625 20.98046875 -1.0625 19.1875 C0.01902344 18.58292969 1.10054687 17.97835937 2.21484375 17.35546875 C5 16 5 16 7 16 C5.89847594 14.56047403 4.7936696 13.12345929 3.6875 11.6875 C3.07261719 10.88699219 2.45773438 10.08648437 1.82421875 9.26171875 C0.30083693 7.37298626 -1.24434407 5.66922364 -3 4 C-2.01 2.68 -1.02 1.36 0 0 Z " fill="#278108" transform="translate(135,37)"/>
<path d="M0 0 C2.31509643 3.58196864 4.29435844 7.33713116 6.25 11.125 C6.79140625 12.15882812 7.3328125 13.19265625 7.890625 14.2578125 C9 17 9 17 8 20 C7.01 20.33 6.02 20.66 5 21 C3.82866942 18.54379149 2.66278278 16.08525083 1.5 13.625 C1.16613281 12.92632812 0.83226563 12.22765625 0.48828125 11.5078125 C-2 6.2265625 -2 6.2265625 -2 4 C-7.61 5.98 -13.22 7.96 -19 10 C-17.76058615 6.28175844 -16.0766037 5.32621255 -13 3 C-12.34 2.34 -11.68 1.68 -11 1 C-3.23397914 -1.73248882 -3.23397914 -1.73248882 0 0 Z " fill="#097F09" transform="translate(106,85)"/>
<path d="M0 0 C4.2045668 5.17748603 8.01209532 10.58492142 11.8125 16.0625 C12.51826172 17.05572266 13.22402344 18.04894531 13.95117188 19.07226562 C14.61310547 20.02939453 15.27503906 20.98652344 15.95703125 21.97265625 C16.86932495 23.27601929 16.86932495 23.27601929 17.80004883 24.60571289 C19 27 19 27 18.69018555 29.31420898 C18.46242432 29.87052002 18.23466309 30.42683105 18 31 C12.42221263 28.86539678 9.93463562 23.6459619 6.75244141 18.86987305 C5.62665571 17.18997066 4.47281081 15.53196893 3.31640625 13.87304688 C2.60613281 12.81537109 1.89585938 11.75769531 1.1640625 10.66796875 C0.50873535 9.70141357 -0.1465918 8.7348584 -0.82177734 7.73901367 C-2 5 -2 5 -1.19775391 2.14575195 C-0.80249512 1.43765381 -0.40723633 0.72955566 0 0 Z " fill="#0A8109" transform="translate(111,63)"/>
<path d="M0 0 C0.33 0 0.66 0 1 0 C1.50704109 3.37398089 2.00436536 6.74932621 2.5 10.125 C2.64308594 11.07632813 2.78617187 12.02765625 2.93359375 13.0078125 C3.61961337 17.71194706 4.19271007 22.2304257 4 27 C2.68 27 1.36 27 0 27 C-0.50780894 24.79344925 -1.00591365 22.58466395 -1.5 20.375 C-1.7784375 19.14523438 -2.056875 17.91546875 -2.34375 16.6484375 C-2.94091621 13.32847772 -3.12409534 10.36091549 -3 7 C-2.34 6.67 -1.68 6.34 -1 6 C-0.34227572 2.97065509 -0.34227572 2.97065509 0 0 Z " fill="#0C7C09" transform="translate(65,88)"/>
<path d="M0 0 C1.65 0.33 3.3 0.66 5 1 C5 1.66 5 2.32 5 3 C6.32 2.01 7.64 1.02 9 0 C9.84023188 4.35332736 10.10770995 8.44442519 10.0625 12.875 C10.05347656 14.02742188 10.04445313 15.17984375 10.03515625 16.3671875 C10.02355469 17.23601562 10.01195313 18.10484375 10 19 C9.01 19.33 8.02 19.66 7 20 C6.49645133 17.56318413 5.99703244 15.12564561 5.5 12.6875 C5.35691406 11.99720703 5.21382812 11.30691406 5.06640625 10.59570312 C4.47374956 7.67475227 4 4.98891878 4 2 C2.02 2.33 0.04 2.66 -2 3 C-1.34 2.01 -0.68 1.02 0 0 Z " fill="#6A8307" transform="translate(55,75)"/>
<path d="M0 0 C0.99 0.33 1.98 0.66 3 1 C3.12375 2.010625 3.2475 3.02125 3.375 4.0625 C3.91629481 7.9931888 3.91629481 7.9931888 5.0625 11.6875 C6 15 6 15 6 19 C4.68 19 3.36 19 2 19 C0.35 13.72 -1.3 8.44 -3 3 C-2.01 2.01 -1.02 1.02 0 0 Z " fill="#0C7E09" transform="translate(83,95)"/>
<path d="M0 0 C0 1.32 0 2.64 0 4 C-0.67417969 4.11214844 -1.34835938 4.22429687 -2.04296875 4.33984375 C-5.57874672 5.12920501 -8.91943566 6.31499849 -12.3125 7.5625 C-12.95767578 7.79646484 -13.60285156 8.03042969 -14.26757812 8.27148438 C-15.84621219 8.84447007 -17.42327026 9.42179464 -19 10 C-17.76058615 6.28175844 -16.0766037 5.32621255 -13 3 C-12.34 2.34 -11.68 1.68 -11 1 C-3.81773399 -1.5270936 -3.81773399 -1.5270936 0 0 Z " fill="#228109" transform="translate(106,85)"/>
<path d="M0 0 C0.33 0 0.66 0 1 0 C1.79725902 7.36040917 2.12886183 14.59760355 2 22 C0.68 21.67 -0.64 21.34 -2 21 C-2.36398622 18.91835982 -2.71583287 16.83459438 -3.0625 14.75 C-3.25972656 13.58984375 -3.45695312 12.4296875 -3.66015625 11.234375 C-3.9606216 8.37477376 -3.9439206 6.66674071 -3 4 C-3 4.99 -3 5.98 -3 7 C-2.34 7 -1.68 7 -1 7 C-0.67 4.69 -0.34 2.38 0 0 Z " fill="#3E7908" transform="translate(29,83)"/>
<path d="M0 0 C-0.33 1.65 -0.66 3.3 -1 5 C-1.66 5 -2.32 5 -3 5 C-3 4.34 -3 3.68 -3 3 C-5.41645782 2.83312552 -5.41645782 2.83312552 -8 3 C-8.66 3.66 -9.32 4.32 -10 5 C-12.1640625 4.9765625 -12.1640625 4.9765625 -14.625 4.625 C-15.44226562 4.51414062 -16.25953125 4.40328125 -17.1015625 4.2890625 C-17.72804687 4.19367188 -18.35453125 4.09828125 -19 4 C-18.34 3.67 -17.68 3.34 -17 3 C-16.67 2.34 -16.34 1.68 -16 1 C-10.52258088 -1.00995423 -5.64594138 -1.20126412 0 0 Z " fill="#B0AA04" transform="translate(63,73)"/>
<path d="M0 0 C3.48999296 3.23147496 6.79966194 6.75107134 9 11 C8.8125 13.9375 8.8125 13.9375 8 16 C7.34 16 6.68 16 6 16 C3.984375 13.76953125 3.984375 13.76953125 1.75 10.8125 C0.62851563 9.36810547 0.62851563 9.36810547 -0.515625 7.89453125 C-2 5 -2 5 -1.234375 2.13671875 C-0.82703125 1.43160156 -0.4196875 0.72648437 0 0 Z " fill="#097E09" transform="translate(133,66)"/>
<path d="M0 0 C1.2684375 0.2475 1.2684375 0.2475 2.5625 0.5 C3.1875 2.3125 3.1875 2.3125 3.5625 4.5 C2.5725 5.985 2.5725 5.985 1.5625 7.5 C1.2325 6.51 0.9025 5.52 0.5625 4.5 C-3.0675 6.81 -6.6975 9.12 -10.4375 11.5 C-10.4375 7.13766712 -8.22452814 5.32854764 -5.39453125 2.17578125 C-3.4375 0.5 -3.4375 0.5 0 0 Z " fill="#158209" transform="translate(153.4375,45.5)"/>
<path d="M0 0 C3 1 3 1 3.984375 2.671875 C5.50764155 6.80645562 6.49659646 9.64626484 5 14 C4.01 13.67 3.02 13.34 2 13 C0.83203125 10.27734375 0.83203125 10.27734375 -0.1875 6.9375 C-0.53167969 5.83277344 -0.87585938 4.72804688 -1.23046875 3.58984375 C-1.48441406 2.73519531 -1.73835938 1.88054687 -2 1 C-1.34 0.67 -0.68 0.34 0 0 Z " fill="#A0A205" transform="translate(84,64)"/>
<path d="M0 0 C0.33 0.99 0.66 1.98 1 3 C-0.65 3.33 -2.3 3.66 -4 4 C-4 6.64 -4 9.28 -4 12 C-4.99 11.67 -5.98 11.34 -7 11 C-7.22174933 9.54364629 -7.42698698 8.08477044 -7.625 6.625 C-7.74101562 5.81289062 -7.85703125 5.00078125 -7.9765625 4.1640625 C-7.98429687 3.44992188 -7.99203125 2.73578125 -8 2 C-5.44123378 -0.55876622 -3.37797483 -1.68898741 0 0 Z " fill="#859606" transform="translate(33,79)"/>
<path d="M0 0 C-1.52763464 4.08596252 -4.11084191 5.79826179 -7.625 8.25 C-8.62789063 8.95640625 -9.63078125 9.6628125 -10.6640625 10.390625 C-11.43492188 10.92171875 -12.20578125 11.4528125 -13 12 C-13 11.01 -13 10.02 -13 9 C-11.34614767 7.65080468 -9.678298 6.31866272 -8 5 C-6.82425289 2.90010348 -6.82425289 2.90010348 -6 1 C-4 0 -4 0 0 0 Z " fill="#7E9506" transform="translate(135,37)"/>
<path d="M0 0 C0.33 0 0.66 0 1 0 C1.33 4.62 1.66 9.24 2 14 C0.68 14.33 -0.64 14.66 -2 15 C-3.35439668 12.29120665 -3.06501451 9.99066732 -3 7 C-2.34 6.67 -1.68 6.34 -1 6 C-0.34227572 2.97065509 -0.34227572 2.97065509 0 0 Z " fill="#247309" transform="translate(65,88)"/>
<path d="M0 0 C2.12038635 2.61514317 4.13091744 5.19637616 6 8 C5.625 10.1875 5.625 10.1875 5 12 C1.16265351 10.7208845 0.51834864 9.21124506 -1.34765625 5.7890625 C-2 4 -2 4 -1.25 1.5625 C-0.8375 1.046875 -0.425 0.53125 0 0 Z " fill="#3E8308" transform="translate(111,63)"/>
<path d="M0 0 C2.56616632 3.84924948 2.55097676 6.4349304 3 11 C2.01 11.33 1.02 11.66 0 12 C-0.99 9.03 -1.98 6.06 -3 3 C-2.01 2.01 -1.02 1.02 0 0 Z " fill="#538608" transform="translate(90,75)"/>
<path d="M0 0 C2.5625 2.25 2.5625 2.25 5 5 C4.8125 7.3125 4.8125 7.3125 4 9 C1.11562221 7.70700306 -0.87219421 6.34058637 -3 4 C-2.01 2.68 -1.02 1.36 0 0 Z " fill="#588308" transform="translate(135,37)"/>
<path d="M0 0 C2.0625 2.1875 2.0625 2.1875 4 5 C3.75 7.8125 3.75 7.8125 3 10 C1.35 8.35 -0.3 6.7 -2 5 C-1.34 3.35 -0.68 1.7 0 0 Z " fill="#7A9306" transform="translate(107,57)"/>
<path d="M0 0 C1.65 0.33 3.3 0.66 5 1 C5 1.66 5 2.32 5 3 C5.99 2.67 6.98 2.34 8 2 C8 3.65 8 5.3 8 7 C7.01 7.33 6.02 7.66 5 8 C4.67 6.02 4.34 4.04 4 2 C2.02 2.33 0.04 2.66 -2 3 C-1.34 2.01 -0.68 1.02 0 0 Z " fill="#889206" transform="translate(55,75)"/>
<path d="M0 0 C2.31 0.33 4.62 0.66 7 1 C6.67 2.65 6.34 4.3 6 6 C5.34 6 4.68 6 4 6 C4 5.34 4 4.68 4 4 C3.01 3.67 2.02 3.34 1 3 C1.33 2.34 1.66 1.68 2 1 C1.34 0.67 0.68 0.34 0 0 Z " fill="#A7A305" transform="translate(56,72)"/>
<path d="M0 0 C1.32 1.32 2.64 2.64 4 4 C3.67 4.99 3.34 5.98 3 7 C1.0625 6.6875 1.0625 6.6875 -1 6 C-1.33 5.01 -1.66 4.02 -2 3 C-1.34 2.01 -0.68 1.02 0 0 Z " fill="#3B8208" transform="translate(140,43)"/>
<path d="M0 0 C0 2.31 0 4.62 0 7 C-0.99 7.33 -1.98 7.66 -3 8 C-3.33 5.69 -3.66 3.38 -4 1 C-1 0 -1 0 0 0 Z " fill="#588B07" transform="translate(65,87)"/>
<path d="M0 0 C2 3 2 3 1.625 5.6875 C1.41875 6.450625 1.2125 7.21375 1 8 C0.01 7.67 -0.98 7.34 -2 7 C-2.875 5.125 -2.875 5.125 -3 3 C-1.5625 1.25 -1.5625 1.25 0 0 Z " fill="#7A9306" transform="translate(88,70)"/>
<path d="M0 0 C0.99 0.33 1.98 0.66 3 1 C3.33 3.31 3.66 5.62 4 8 C3.01 7.67 2.02 7.34 1 7 C0.67 4.69 0.34 2.38 0 0 Z " fill="#729307" transform="translate(25,83)"/>
<path d="M0 0 C0.33 0 0.66 0 1 0 C1 3.3 1 6.6 1 10 C0.01 10.33 -0.98 10.66 -2 11 C-2.33 9.68 -2.66 8.36 -3 7 C-2.34 6.67 -1.68 6.34 -1 6 C-0.34227572 2.97065509 -0.34227572 2.97065509 0 0 Z " fill="#3B7D08" transform="translate(65,88)"/>
<path d="M0 0 C1.5625 1.25 1.5625 1.25 3 3 C2.6875 5.1875 2.6875 5.1875 2 7 C0.68 6.34 -0.64 5.68 -2 5 C-1.34 3.35 -0.68 1.7 0 0 Z " fill="#248208" transform="translate(117,72)"/>
<path d="M0 0 C1.5625 1.25 1.5625 1.25 3 3 C2.6875 5.1875 2.6875 5.1875 2 7 C0.68 6.34 -0.64 5.68 -2 5 C-1.34 3.35 -0.68 1.7 0 0 Z " fill="#578508" transform="translate(111,63)"/>
<path d="M0 0 C0.66 1.32 1.32 2.64 2 4 C1.01 5.485 1.01 5.485 0 7 C-0.33 6.01 -0.66 5.02 -1 4 C-1.66 3.67 -2.32 3.34 -3 3 C-2.01 2.01 -1.02 1.02 0 0 Z " fill="#087D09" transform="translate(155,46)"/>
</svg>
