<?xml version="1.0" encoding="UTF-8"?>
<svg version="1.1" xmlns="http://www.w3.org/2000/svg" width="192" height="192">
<path d="M0 0 C63.36 0 126.72 0 192 0 C192 63.36 192 126.72 192 192 C128.64 192 65.28 192 0 192 C0 128.64 0 65.28 0 0 Z " fill="#0E2F63" transform="translate(0,0)"/>
<path d="M0 0 C2 0 2 0 4 1.9375 C4.66128906 2.62392578 4.66128906 2.62392578 5.3359375 3.32421875 C13.53065806 11.57664861 22.6556391 19.08951915 32 26 C35.08864337 24.58408259 37.55549201 22.89287376 40.1875 20.75 C41.04730469 20.05390625 41.90710937 19.3578125 42.79296875 18.640625 C45.32875844 16.56159246 47.84637764 14.4612141 50.36328125 12.359375 C51.508573 11.40659668 51.508573 11.40659668 52.67700195 10.43457031 C54.21708933 9.15200043 55.75344095 7.86493047 57.28588867 6.57324219 C57.99592041 5.98188477 58.70595215 5.39052734 59.4375 4.78125 C60.39462891 3.9778418 60.39462891 3.9778418 61.37109375 3.15820312 C63 2 63 2 65 2 C65 1.34 65 0.68 65 0 C65.66 0 66.32 0 67 0 C67 23.76 67 47.52 67 72 C60.73 72 54.46 72 48 72 C48 61.11 48 50.22 48 39 C47.34 39 46.68 39 46 39 C46 39.66 46 40.32 46 41 C44.390625 42.5859375 44.390625 42.5859375 42.25 44.375 C39.3756268 46.81617866 36.61456008 49.27649992 34 52 C30.34858644 50.4744094 28.09881888 48.27519091 25.375 45.4375 C22.48929319 42.30957946 22.48929319 42.30957946 19 40 C19 50.56 19 61.12 19 72 C12.73 72 6.46 72 0 72 C0 48.24 0 24.48 0 0 Z " fill="#F9FAFB" transform="translate(19,55)"/>
<path d="M0 0 C2.41936317 -0.16249454 4.82781859 -0.28097817 7.25 -0.375 C7.93191406 -0.42527344 8.61382812 -0.47554687 9.31640625 -0.52734375 C11.328125 -0.5859375 11.328125 -0.5859375 15 0 C17.2421875 2.546875 17.2421875 2.546875 19 6 C19.31453125 6.59409668 19.6290625 7.18819336 19.953125 7.80029297 C20.96220379 9.72611983 21.92244262 11.67064767 22.875 13.625 C23.57027163 15.03387434 24.26558458 16.44272828 24.9609375 17.8515625 C25.3022168 18.54668945 25.64349609 19.24181641 25.99511719 19.95800781 C27.48199873 22.97945514 28.99115508 25.98946108 30.5 29 C31.75 31.5 31.75 31.5 33 34 C35.86965994 30.52108918 37.74282873 26.66096458 39.6875 22.625 C43.48048788 14.88157947 47.65534449 7.44798087 52 0 C56.95 0 61.9 0 67 0 C64.74995785 6.75012644 64.74995785 6.75012644 63.21923828 9.95629883 C62.87733963 10.67678909 62.53544098 11.39727936 62.18318176 12.13960266 C61.81593491 12.9043541 61.44868805 13.66910553 61.0703125 14.45703125 C60.48989449 15.67624519 60.48989449 15.67624519 59.89775085 16.92008972 C58.64351774 19.55250638 57.38434489 22.18252552 56.125 24.8125 C55.26363765 26.61770575 54.40255476 28.42304486 53.54174805 30.22851562 C51.03270662 35.48801462 48.51717288 40.74438885 46 46 C45.31037551 47.44058833 44.62075904 48.8811805 43.93115234 50.32177734 C40.62884396 57.21840654 37.31957099 64.11166227 34 71 C31.28013414 68.60634011 29.98335282 66.20393507 28.49609375 62.91796875 C28.01100342 61.85819824 27.52591309 60.79842773 27.02612305 59.70654297 C26.50187744 58.54525879 25.97763184 57.38397461 25.4375 56.1875 C24.29007945 53.67151455 23.13742738 51.15793984 21.984375 48.64453125 C21.67626389 47.97151978 21.36815277 47.2985083 21.05070496 46.60510254 C18.46261498 40.96729695 15.8102677 35.361304 13.140625 29.76171875 C12.72994278 28.89961288 12.31926056 28.03750702 11.89613342 27.14927673 C10.25075037 23.69696304 8.60442349 20.24512404 6.95187378 16.79623413 C5.79141252 14.37354039 4.63557104 11.94868976 3.48046875 9.5234375 C3.12797058 8.79134567 2.77547241 8.05925385 2.41229248 7.30497742 C0 2.22702632 0 2.22702632 0 0 Z " fill="#F8F9FA" transform="translate(104,55)"/>
</svg>
