<?xml version="1.0" encoding="UTF-8"?>
<svg version="1.1" xmlns="http://www.w3.org/2000/svg" width="60" height="60">
<path d="M0 0 C19.8 0 39.6 0 60 0 C60 19.8 60 39.6 60 60 C40.2 60 20.4 60 0 60 C0 40.2 0 20.4 0 0 Z " fill="#C72730" transform="translate(0,0)"/>
<path d="M0 0 C1.16257324 0.01047363 2.32514648 0.02094727 3.52294922 0.03173828 C5.40820312 0.04140625 5.40820312 0.04140625 7.33154297 0.05126953 C9.30960938 0.07640625 9.30960938 0.07640625 11.32763672 0.10205078 C12.66747393 0.11208096 14.00731823 0.12120674 15.34716797 0.12939453 C18.63240048 0.1530293 21.9175407 0.18890128 25.20263672 0.22705078 C25.69763672 8.14705078 25.69763672 8.14705078 26.20263672 16.22705078 C26.53263672 15.89705078 26.86263672 15.56705078 27.20263672 15.22705078 C29.53423727 15.12795776 31.86893613 15.09734574 34.20263672 15.10205078 C35.48138672 15.09947266 36.76013672 15.09689453 38.07763672 15.09423828 C41.20263672 15.22705078 41.20263672 15.22705078 42.20263672 16.22705078 C42.29021675 18.2267006 42.30960248 20.22941188 42.30029297 22.23095703 C42.29707031 23.44589844 42.29384766 24.66083984 42.29052734 25.91259766 C42.27795898 27.83168945 42.27795898 27.83168945 42.26513672 29.78955078 C42.260625 31.0728125 42.25611328 32.35607422 42.25146484 33.67822266 C42.23963217 36.861211 42.2231474 40.0441084 42.20263672 43.22705078 C41.54263672 43.22705078 40.88263672 43.22705078 40.20263672 43.22705078 C40.20263672 43.88705078 40.20263672 44.54705078 40.20263672 45.22705078 C35.7307273 47.46300549 29.61351219 46.45698592 24.70263672 46.47705078 C23.44064453 46.49767578 22.17865234 46.51830078 20.87841797 46.53955078 C19.074375 46.54728516 19.074375 46.54728516 17.23388672 46.55517578 C16.1259375 46.56452148 15.01798828 46.57386719 13.87646484 46.58349609 C12.99410156 46.46586914 12.11173828 46.34824219 11.20263672 46.22705078 C7.80200915 41.12610943 8.33737782 39.18772317 9.20263672 33.22705078 C4.58263672 33.55705078 -0.03736328 33.88705078 -4.79736328 34.22705078 C-4.84323511 29.70612765 -4.88307092 25.18600936 -4.90722656 20.66503906 C-4.91729446 19.1265998 -4.93094974 17.58817971 -4.94824219 16.04980469 C-4.97245645 13.84060945 -4.98383819 11.63166683 -4.99267578 9.42236328 C-5.00299835 8.73272491 -5.01332092 8.04308655 -5.0239563 7.33255005 C-5.02435806 5.62904172 -4.91927354 3.92619135 -4.79736328 2.22705078 C-2.79736328 0.22705078 -2.79736328 0.22705078 0 0 Z " fill="#411E20" transform="translate(11.79736328125,5.77294921875)"/>
<path d="M0 0 C0.87100342 -0.00945648 1.74200684 -0.01891296 2.6394043 -0.02865601 C3.57695557 -0.02258331 4.51450684 -0.01651062 5.48046875 -0.01025391 C6.44573486 -0.01312408 7.41100098 -0.01599426 8.40551758 -0.01895142 C10.44645779 -0.02099302 12.48741752 -0.01545648 14.52832031 -0.00292969 C17.65604315 0.01312239 20.78247371 -0.00277536 23.91015625 -0.02197266 C25.89192994 -0.01999024 27.87370283 -0.0161466 29.85546875 -0.01025391 C30.79302002 -0.0163266 31.73057129 -0.02239929 32.6965332 -0.02865601 C33.56753662 -0.01919952 34.43854004 -0.00974304 35.3359375 0 C36.10188232 0.00238678 36.86782715 0.00477356 37.65698242 0.00723267 C40.25700829 0.49976822 41.13113627 1.25059614 42.66796875 3.38818359 C43.03546143 5.36120605 43.03546143 5.36120605 43.02441406 7.62841797 C43.02741516 8.47940063 43.03041626 9.3303833 43.0335083 10.20715332 C43.0211615 11.12283081 43.0088147 12.0385083 42.99609375 12.98193359 C42.99422058 13.92500366 42.99234741 14.86807373 42.99041748 15.83972168 C42.98369501 17.83361343 42.96977667 19.82749196 42.94921875 21.82128906 C42.91809021 24.87626378 42.90825021 27.93072232 42.90234375 30.98583984 C42.89317255 32.92204406 42.88279641 34.85824302 42.87109375 36.79443359 C42.86471893 38.16794983 42.86471893 38.16794983 42.85821533 39.56921387 C42.84860779 40.42019653 42.83900024 41.2711792 42.82910156 42.14794922 C42.82227356 42.89612915 42.81544556 43.64430908 42.80841064 44.41516113 C42.66796875 46.38818359 42.66796875 46.38818359 41.66796875 49.38818359 C39.4057044 50.51931577 38.15961527 50.52033051 35.64892578 50.53344727 C34.40721115 50.54301704 34.40721115 50.54301704 33.14041138 50.55278015 C32.24458344 50.55389297 31.34875549 50.5550058 30.42578125 50.55615234 C29.0459053 50.56114494 29.0459053 50.56114494 27.63815308 50.5662384 C25.68960063 50.57130679 23.7410395 50.57364676 21.79248047 50.57348633 C18.8120286 50.57566963 15.83194868 50.59381747 12.8515625 50.61279297 C10.95963668 50.61572754 9.06770911 50.61771191 7.17578125 50.61865234 C5.83811203 50.62943062 5.83811203 50.62943062 4.47341919 50.64042664 C3.63930511 50.63735001 2.80519104 50.63427338 1.94580078 50.63110352 C1.21459015 50.63252853 0.48337952 50.63395355 -0.26998901 50.63542175 C-2.68037976 50.34641673 -4.27280159 49.66127363 -6.33203125 48.38818359 C-7.47396527 46.10431556 -7.47006463 44.80011267 -7.49316406 42.26147461 C-7.50277161 41.41041641 -7.51237915 40.55935822 -7.52227783 39.68251038 C-7.52652771 38.7616716 -7.53077759 37.84083282 -7.53515625 36.89208984 C-7.54085632 35.94760483 -7.5465564 35.00311981 -7.5524292 34.03001404 C-7.56188418 32.0301933 -7.56841515 30.03035696 -7.57226562 28.03051758 C-7.58198103 24.96652182 -7.61300369 21.90319397 -7.64453125 18.83935547 C-7.6510602 16.89860425 -7.6563111 14.95784823 -7.66015625 13.01708984 C-7.67250305 12.0982753 -7.68484985 11.17946075 -7.6975708 10.23280334 C-7.6945697 9.37859299 -7.6915686 8.52438263 -7.68847656 7.64428711 C-7.69212219 6.89309097 -7.69576782 6.14189484 -7.69952393 5.36793518 C-6.87888541 0.94700241 -4.14520642 0.01291698 0 0 Z M-5.33203125 4.38818359 C-5.50691379 6.82563257 -5.5638053 9.1475444 -5.52734375 11.58349609 C-5.52451385 12.29093964 -5.52168396 12.99838318 -5.51876831 13.7272644 C-5.50756262 15.98940869 -5.48245804 18.25115874 -5.45703125 20.51318359 C-5.44700192 22.04572996 -5.43787599 23.57828253 -5.4296875 25.11083984 C-5.40932245 28.87022894 -5.37017643 32.62876437 -5.33203125 36.38818359 C-0.71203125 36.05818359 3.90796875 35.72818359 8.66796875 35.38818359 C8.33796875 38.35818359 8.00796875 41.32818359 7.66796875 44.38818359 C8.32796875 44.71818359 8.98796875 45.04818359 9.66796875 45.38818359 C9.99796875 46.37818359 10.32796875 47.36818359 10.66796875 48.38818359 C15.12628857 48.41709906 19.58458444 48.43495341 24.04296875 48.45068359 C25.31398438 48.4590625 26.585 48.46744141 27.89453125 48.47607422 C29.71210937 48.4809082 29.71210937 48.4809082 31.56640625 48.48583984 C32.68708496 48.49107666 33.80776367 48.49631348 34.96240234 48.50170898 C37.63664218 48.57439826 37.63664218 48.57439826 39.66796875 47.38818359 C39.66796875 46.72818359 39.66796875 46.06818359 39.66796875 45.38818359 C40.32796875 45.38818359 40.98796875 45.38818359 41.66796875 45.38818359 C41.69683213 40.90903031 41.71472062 36.42990068 41.73046875 31.95068359 C41.74303711 30.0315918 41.74303711 30.0315918 41.75585938 28.07373047 C41.75908203 26.85878906 41.76230469 25.64384766 41.765625 24.39208984 C41.77086182 23.26617432 41.77609863 22.14025879 41.78149414 20.98022461 C41.96342323 18.45847488 41.96342323 18.45847488 40.66796875 17.38818359 C38.3363682 17.28909057 36.00166933 17.25847855 33.66796875 17.26318359 C32.38921875 17.26060547 31.11046875 17.25802734 29.79296875 17.25537109 C26.80109631 17.02957467 26.80109631 17.02957467 25.66796875 18.38818359 C25.33796875 13.10818359 25.00796875 7.82818359 24.66796875 2.38818359 C20.71677453 2.34229876 16.76625809 2.30246671 12.81494141 2.27832031 C10.80885515 2.26330252 8.80285551 2.23789379 6.796875 2.21240234 C4.91162109 2.20273438 4.91162109 2.20273438 2.98828125 2.19287109 C1.82570801 2.18239746 0.66313477 2.17192383 -0.53466797 2.16113281 C-3.47113404 2.09556363 -3.47113404 2.09556363 -5.33203125 4.38818359 Z " fill="#380909" transform="translate(12.33203125,3.61181640625)"/>
<path d="M0 0 C1.32 0.33 2.64 0.66 4 1 C4 14.2 4 27.4 4 41 C-15.8 41 -35.6 41 -56 41 C-56 39.68 -56 38.36 -56 37 C-49.4 37.33 -42.8 37.66 -36 38 C-36 37.01 -36 36.02 -36 35 C-24.78 34.67 -13.56 34.34 -2 34 C-1.71133391 24.6814131 -1.71133391 24.6814131 -1.43188477 15.36254883 C-1.39377686 14.19747803 -1.35566895 13.03240723 -1.31640625 11.83203125 C-1.27974854 10.64327393 -1.24309082 9.4545166 -1.20532227 8.22973633 C-1.02453589 5.38595153 -0.64190592 2.77093195 0 0 Z " fill="#A11C21" transform="translate(56,19)"/>
<path d="M0 0 C4.62 0 9.24 0 14 0 C14 4.95 14 9.9 14 15 C9.38 15 4.76 15 0 15 C0 10.05 0 5.1 0 0 Z " fill="#F6F3F1" transform="translate(39,21)"/>
<path d="M0 0 C4.62 0 9.24 0 14 0 C14 4.95 14 9.9 14 15 C9.38 15 4.76 15 0 15 C0 10.05 0 5.1 0 0 Z " fill="#F6F2F2" transform="translate(7,21)"/>
<path d="M0 0 C4.62 0 9.24 0 14 0 C14 4.62 14 9.24 14 14 C9.38 14 4.76 14 0 14 C0 9.38 0 4.76 0 0 Z " fill="#FEFDFC" transform="translate(23,6)"/>
<path d="M0 0 C4.58984375 0.09765625 4.58984375 0.09765625 9.1796875 0.1953125 C9.1796875 4.8153125 9.1796875 9.4353125 9.1796875 14.1953125 C4.5596875 14.1953125 -0.0603125 14.1953125 -4.8203125 14.1953125 C-5.015625 5.015625 -5.015625 5.015625 -4.8203125 2.1953125 C-2.8203125 0.1953125 -2.8203125 0.1953125 0 0 Z " fill="#FBF8F8" transform="translate(11.8203125,5.8046875)"/>
<path d="M0 0 C4.62 0 9.24 0 14 0 C14 4.29 14 8.58 14 13 C9.38 13 4.76 13 0 13 C0 8.71 0 4.42 0 0 Z " fill="#FEFDFA" transform="translate(23,38)"/>
<path d="M0 0 C4.62 0 9.24 0 14 0 C14.125 10.75 14.125 10.75 13 13 C8.71 13 4.42 13 0 13 C0 8.71 0 4.42 0 0 Z " fill="#FBF8F6" transform="translate(39,38)"/>
<path d="M0 0 C6.97439807 0.11811332 13.94865353 0.24293106 20.92285156 0.37231445 C23.2932669 0.41550998 25.66371028 0.45719529 28.03417969 0.49731445 C31.44995557 0.55539125 34.86559233 0.61897633 38.28125 0.68359375 C39.85984802 0.70866249 39.85984802 0.70866249 41.47033691 0.73423767 C47.0566693 0.84561004 52.47076738 1.18738788 58 2 C58 1.34 58 0.68 58 0 C58.66 0 59.32 0 60 0 C60 1.32 60 2.64 60 4 C40.2 4 20.4 4 0 4 C0 2.68 0 1.36 0 0 Z " fill="#5F2138" transform="translate(0,56)"/>
<path d="M0 0 C15.18 0 30.36 0 46 0 C46.495 1.485 46.495 1.485 47 3 C31.49 3 15.98 3 0 3 C0 2.01 0 1.02 0 0 Z " fill="#DA232A" transform="translate(8,0)"/>
<path d="M0 0 C0.33 0 0.66 0 1 0 C1.02505615 1.29212402 1.0501123 2.58424805 1.07592773 3.91552734 C1.16991624 8.69769656 1.27015766 13.47971762 1.37231445 18.26171875 C1.41569577 20.33362366 1.45736846 22.40556507 1.49731445 24.47753906 C1.55493965 27.45128391 1.61865625 30.42484448 1.68359375 33.3984375 C1.70030624 34.32868744 1.71701874 35.25893738 1.73423767 36.21737671 C1.75418289 37.07811798 1.77412811 37.93885925 1.79467773 38.82568359 C1.81022202 39.58513275 1.8257663 40.34458191 1.84178162 41.12704468 C1.89127127 43.09115721 1.89127127 43.09115721 3 45 C6.0399648 45.69337792 6.0399648 45.69337792 9.5625 46.125 C10.76003906 46.29257812 11.95757812 46.46015625 13.19140625 46.6328125 C14.58166016 46.81457031 14.58166016 46.81457031 16 47 C16 47.99 16 48.98 16 50 C13.04160645 50.02689449 10.08345573 50.04678741 7.125 50.0625 C6.28324219 50.07087891 5.44148437 50.07925781 4.57421875 50.08789062 C3.76855469 50.09111328 2.96289062 50.09433594 2.1328125 50.09765625 C1.01737061 50.10551147 1.01737061 50.10551147 -0.12060547 50.11352539 C-2 50 -2 50 -4 49 C-4 46.69 -4 44.38 -4 42 C-3.01 42.99 -2.02 43.98 -1 45 C-0.67 30.15 -0.34 15.3 0 0 Z " fill="#BD2C31" transform="translate(4,7)"/>
<path d="M0 0 C6.97439807 0.11811332 13.94865353 0.24293106 20.92285156 0.37231445 C23.2932669 0.41550998 25.66371028 0.45719529 28.03417969 0.49731445 C31.44995557 0.55539125 34.86559233 0.61897633 38.28125 0.68359375 C39.85984802 0.70866249 39.85984802 0.70866249 41.47033691 0.73423767 C47.0566693 0.84561004 52.47076738 1.18738788 58 2 C58 1.34 58 0.68 58 0 C58.66 0 59.32 0 60 0 C60 1.32 60 2.64 60 4 C58.9632312 3.90150757 58.9632312 3.90150757 57.90551758 3.80102539 C47.17707641 2.87297134 36.44923694 2.66619508 25.6875 2.4375 C23.7714771 2.39420096 21.85546137 2.35058352 19.93945312 2.30664062 C15.29304315 2.20075994 10.64655774 2.09917504 6 2 C6 2.66 6 3.32 6 4 C4.02 4 2.04 4 0 4 C0 2.68 0 1.36 0 0 Z " fill="#802632" transform="translate(0,56)"/>
<path d="M0 0 C2.64 0 5.28 0 8 0 C8 0.99 8 1.98 8 3 C22.52 3 37.04 3 52 3 C52 3.33 52 3.66 52 4 C50.02422974 4.029729 50.02422974 4.029729 48.00854492 4.06005859 C43.12748912 4.13605841 38.24673362 4.22478448 33.3659668 4.31738281 C31.25242028 4.35569581 29.13880804 4.39054457 27.02514648 4.421875 C23.9891814 4.46747504 20.95366972 4.52547783 17.91796875 4.5859375 C16.4975251 4.60326431 16.4975251 4.60326431 15.04838562 4.62094116 C13.72735588 4.6507457 13.72735588 4.6507457 12.37963867 4.68115234 C11.21714851 4.70113785 11.21714851 4.70113785 10.03117371 4.7215271 C7.68895197 4.89208435 7.68895197 4.89208435 5 7 C5.33 5.68 5.66 4.36 6 3 C5.01 3 4.02 3 3 3 C2.67 3.99 2.34 4.98 2 6 C1.34 6 0.68 6 0 6 C0 4.02 0 2.04 0 0 Z " fill="#A6252E" transform="translate(0,0)"/>
<path d="M0 0 C0.66 0 1.32 0 2 0 C2.05790353 3.29159316 2.09356261 6.58305603 2.125 9.875 C2.14175781 10.81214844 2.15851562 11.74929687 2.17578125 12.71484375 C2.18222656 13.61074219 2.18867187 14.50664063 2.1953125 15.4296875 C2.20578613 16.25710449 2.21625977 17.08452148 2.22705078 17.93701172 C2 20 2 20 0 22 C-1.9855784 17.85549905 -2.26941925 14.4482341 -2.25 9.875 C-2.25515625 8.65554687 -2.2603125 7.43609375 -2.265625 6.1796875 C-2 3 -2 3 0 0 Z " fill="#DF2731" transform="translate(2,32)"/>
<path d="M0 0 C9.9 0 19.8 0 30 0 C30 0.33 30 0.66 30 1 C28.95199219 1.09087891 28.95199219 1.09087891 27.8828125 1.18359375 C26.97273438 1.26738281 26.06265625 1.35117187 25.125 1.4375 C24.22007813 1.51871094 23.31515625 1.59992187 22.3828125 1.68359375 C19.98889139 1.86989285 19.98889139 1.86989285 18 3 C16.62451844 3.08308638 15.24514204 3.10736016 13.8671875 3.09765625 C13.06152344 3.09443359 12.25585938 3.09121094 11.42578125 3.08789062 C10.58402344 3.07951172 9.74226563 3.07113281 8.875 3.0625 C8.02550781 3.05798828 7.17601562 3.05347656 6.30078125 3.04882812 C4.20049091 3.03702874 2.1002367 3.01909306 0 3 C0 2.01 0 1.02 0 0 Z " fill="#91191C" transform="translate(20,54)"/>
<path d="M0 0 C1.32 0 2.64 0 4 0 C4 0.66 4 1.32 4 2 C1.71368506 3.14315747 0.45652594 3.12112732 -2.08251953 3.11352539 C-3.34360031 3.11341209 -3.34360031 3.11341209 -4.63015747 3.11329651 C-5.99272171 3.10555458 -5.99272171 3.10555458 -7.3828125 3.09765625 C-8.31221649 3.0962413 -9.24162048 3.09482635 -10.19918823 3.09336853 C-13.17449124 3.08776053 -16.14971964 3.07520668 -19.125 3.0625 C-21.13932183 3.05748603 -23.15364484 3.05292295 -25.16796875 3.04882812 C-30.11200802 3.0377885 -35.05599135 3.02051849 -40 3 C-40 2.67 -40 2.34 -40 2 C-26.8 2 -13.6 2 0 2 C0 1.34 0 0.68 0 0 Z " fill="#500907" transform="translate(50,51)"/>
<path d="M0 0 C0 4.29 0 8.58 0 13 C-1.32 12.67 -2.64 12.34 -4 12 C-4 8.37 -4 4.74 -4 1 C-1 0 -1 0 0 0 Z " fill="#C3232A" transform="translate(60,7)"/>
<path d="M0 0 C8.58 0 17.16 0 26 0 C26 0.33 26 0.66 26 1 C20.06 1.495 20.06 1.495 14 2 C14 2.33 14 2.66 14 3 C9.38 3 4.76 3 0 3 C0 2.01 0 1.02 0 0 Z " fill="#CE1F23" transform="translate(8,0)"/>
<path d="M0 0 C6.6 0.33 13.2 0.66 20 1 C20 1.33 20 1.66 20 2 C15.38 2 10.76 2 6 2 C6 2.66 6 3.32 6 4 C4.02 4 2.04 4 0 4 C0 2.68 0 1.36 0 0 Z " fill="#873032" transform="translate(0,56)"/>
<path d="M0 0 C3.96 0.33 7.92 0.66 12 1 C12 1.99 12 2.98 12 4 C10.5629191 4.05422947 9.12524538 4.09289723 7.6875 4.125 C6.88699219 4.14820313 6.08648437 4.17140625 5.26171875 4.1953125 C3 4 3 4 0 2 C0 1.34 0 0.68 0 0 Z " fill="#A81E26" transform="translate(8,53)"/>
<path d="M0 0 C0.99 0.33 1.98 0.66 3 1 C2.67 5.62 2.34 10.24 2 15 C1.34 15 0.68 15 0 15 C0 10.05 0 5.1 0 0 Z " fill="#452526" transform="translate(21,21)"/>
<path d="M0 0 C0.96808594 -0.01675781 1.93617187 -0.03351562 2.93359375 -0.05078125 C5.5625 0.3125 5.5625 0.3125 8.5625 3.3125 C3.2825 2.9825 -1.9975 2.6525 -7.4375 2.3125 C-4.83563892 -0.28936108 -3.61395645 0.01439823 0 0 Z " fill="#A71B21" transform="translate(45.4375,54.6875)"/>
<path d="M0 0 C3.625 -0.1875 3.625 -0.1875 7 0 C7.33 0.99 7.66 1.98 8 3 C4.7 3 1.4 3 -2 3 C-1.34 2.01 -0.68 1.02 0 0 Z " fill="#E62A34" transform="translate(47,0)"/>
<path d="M0 0 C1.32 0 2.64 0 4 0 C4 0.66 4 1.32 4 2 C1.23547967 3.38226016 -1.0461363 3.09525387 -4.125 3.0625 C-5.22070312 3.05347656 -6.31640625 3.04445312 -7.4453125 3.03515625 C-8.70988281 3.01775391 -8.70988281 3.01775391 -10 3 C-10 2.67 -10 2.34 -10 2 C-6.7 2 -3.4 2 0 2 C0 1.34 0 0.68 0 0 Z " fill="#5A0C0E" transform="translate(50,51)"/>
</svg>
