<?xml version="1.0" encoding="UTF-8"?>
<svg version="1.1" xmlns="http://www.w3.org/2000/svg" width="926" height="926">
<path d="M0 0 C85.47 0 170.94 0 259 0 C259 12.21 259 24.42 259 37 C283.42 37 307.84 37 333 37 C333 49.21 333 61.42 333 74 C357.42 74 381.84 74 407 74 C407 86.21 407 98.42 407 111 C419.21 111 431.42 111 444 111 C444 123.21 444 135.42 444 148 C456.21 148 468.42 148 481 148 C481 160.21 481 172.42 481 185 C493.21 185 505.42 185 518 185 C518 209.42 518 233.84 518 259 C530.21 259 542.42 259 555 259 C555 283.42 555 307.84 555 333 C567.21 333 579.42 333 592 333 C592 418.47 592 503.94 592 592 C579.79 592 567.58 592 555 592 C555 616.42 555 640.84 555 666 C542.79 666 530.58 666 518 666 C518 690.42 518 714.84 518 740 C505.79 740 493.58 740 481 740 C481 752.21 481 764.42 481 777 C468.79 777 456.58 777 444 777 C444 789.21 444 801.42 444 814 C431.79 814 419.58 814 407 814 C407 826.21 407 838.42 407 851 C382.58 851 358.16 851 333 851 C333 863.21 333 875.42 333 888 C308.58 888 284.16 888 259 888 C259 900.21 259 912.42 259 925 C173.53 925 88.06 925 0 925 C0 912.79 0 900.58 0 888 C-24.42 888 -48.84 888 -74 888 C-74 875.79 -74 863.58 -74 851 C-98.42 851 -122.84 851 -148 851 C-148 838.79 -148 826.58 -148 814 C-160.21 814 -172.42 814 -185 814 C-185 801.79 -185 789.58 -185 777 C-197.21 777 -209.42 777 -222 777 C-222 764.79 -222 752.58 -222 740 C-234.21 740 -246.42 740 -259 740 C-259 715.58 -259 691.16 -259 666 C-271.21 666 -283.42 666 -296 666 C-296 641.58 -296 617.16 -296 592 C-308.21 592 -320.42 592 -333 592 C-333 506.53 -333 421.06 -333 333 C-320.79 333 -308.58 333 -296 333 C-296 308.58 -296 284.16 -296 259 C-283.79 259 -271.58 259 -259 259 C-259 234.58 -259 210.16 -259 185 C-246.79 185 -234.58 185 -222 185 C-222 172.79 -222 160.58 -222 148 C-209.79 148 -197.58 148 -185 148 C-185 135.79 -185 123.58 -185 111 C-172.79 111 -160.58 111 -148 111 C-148 98.79 -148 86.58 -148 74 C-123.58 74 -99.16 74 -74 74 C-74 61.79 -74 49.58 -74 37 C-49.58 37 -25.16 37 0 37 C0 24.79 0 12.58 0 0 Z " fill="#FFFFFF" transform="translate(334,1)"/>
<path d="M0 0 C24.42 0 48.84 0 74 0 C74 12.21 74 24.42 74 37 C86.21 37 98.42 37 111 37 C111 49.21 111 61.42 111 74 C123.21 74 135.42 74 148 74 C148 86.21 148 98.42 148 111 C160.21 111 172.42 111 185 111 C185 135.42 185 159.84 185 185 C197.21 185 209.42 185 222 185 C222 209.42 222 233.84 222 259 C234.21 259 246.42 259 259 259 C259 344.47 259 429.94 259 518 C246.79 518 234.58 518 222 518 C222 542.42 222 566.84 222 592 C209.79 592 197.58 592 185 592 C185 616.42 185 640.84 185 666 C172.79 666 160.58 666 148 666 C148 678.21 148 690.42 148 703 C135.79 703 123.58 703 111 703 C111 715.21 111 727.42 111 740 C98.79 740 86.58 740 74 740 C74 752.21 74 764.42 74 777 C49.58 777 25.16 777 0 777 C0 752.58 0 728.16 0 703 C12.21 703 24.42 703 37 703 C37 690.79 37 678.58 37 666 C12.58 666 -11.84 666 -37 666 C-37 653.79 -37 641.58 -37 629 C-24.79 629 -12.58 629 0 629 C0 616.79 0 604.58 0 592 C-24.42 592 -48.84 592 -74 592 C-74 579.79 -74 567.58 -74 555 C-61.79 555 -49.58 555 -37 555 C-37 542.79 -37 530.58 -37 518 C-49.21 518 -61.42 518 -74 518 C-74 432.53 -74 347.06 -74 259 C-61.79 259 -49.58 259 -37 259 C-37 210.16 -37 161.32 -37 111 C-12.58 111 11.84 111 37 111 C37 98.79 37 86.58 37 74 C24.79 74 12.58 74 0 74 C0 49.58 0 25.16 0 0 Z " fill="#FFFFFF" transform="translate(667,75)"/>
<path d="M0 0 C24.42 0 48.84 0 74 0 C74 24.42 74 48.84 74 74 C61.79 74 49.58 74 37 74 C37 86.21 37 98.42 37 111 C49.21 111 61.42 111 74 111 C74 135.42 74 159.84 74 185 C86.21 185 98.42 185 111 185 C111 209.42 111 233.84 111 259 C123.21 259 135.42 259 148 259 C148 344.47 148 429.94 148 518 C135.79 518 123.58 518 111 518 C111 530.21 111 542.42 111 555 C123.21 555 135.42 555 148 555 C148 567.21 148 579.42 148 592 C123.58 592 99.16 592 74 592 C74 604.21 74 616.42 74 629 C86.21 629 98.42 629 111 629 C111 641.21 111 653.42 111 666 C86.58 666 62.16 666 37 666 C37 678.21 37 690.42 37 703 C49.21 703 61.42 703 74 703 C74 727.42 74 751.84 74 777 C49.58 777 25.16 777 0 777 C0 764.79 0 752.58 0 740 C-12.21 740 -24.42 740 -37 740 C-37 727.79 -37 715.58 -37 703 C-49.21 703 -61.42 703 -74 703 C-74 690.79 -74 678.58 -74 666 C-86.21 666 -98.42 666 -111 666 C-111 641.58 -111 617.16 -111 592 C-123.21 592 -135.42 592 -148 592 C-148 567.58 -148 543.16 -148 518 C-160.21 518 -172.42 518 -185 518 C-185 432.53 -185 347.06 -185 259 C-172.79 259 -160.58 259 -148 259 C-148 234.58 -148 210.16 -148 185 C-135.79 185 -123.58 185 -111 185 C-111 160.58 -111 136.16 -111 111 C-98.79 111 -86.58 111 -74 111 C-74 98.79 -74 86.58 -74 74 C-61.79 74 -49.58 74 -37 74 C-37 61.79 -37 49.58 -37 37 C-24.79 37 -12.58 37 0 37 C0 24.79 0 12.58 0 0 Z " fill="#FFFFFF" transform="translate(186,75)"/>
<path d="M0 0 C24.42 0 48.84 0 74 0 C74 24.42 74 48.84 74 74 C61.79 74 49.58 74 37 74 C37 86.21 37 98.42 37 111 C49.21 111 61.42 111 74 111 C74 135.42 74 159.84 74 185 C49.58 185 25.16 185 0 185 C0 172.79 0 160.58 0 148 C-12.21 148 -24.42 148 -37 148 C-37 160.21 -37 172.42 -37 185 C-49.21 185 -61.42 185 -74 185 C-74 209.42 -74 233.84 -74 259 C-86.21 259 -98.42 259 -111 259 C-111 368.89 -111 478.78 -111 592 C-123.21 592 -135.42 592 -148 592 C-148 567.58 -148 543.16 -148 518 C-160.21 518 -172.42 518 -185 518 C-185 432.53 -185 347.06 -185 259 C-172.79 259 -160.58 259 -148 259 C-148 234.58 -148 210.16 -148 185 C-135.79 185 -123.58 185 -111 185 C-111 160.58 -111 136.16 -111 111 C-98.79 111 -86.58 111 -74 111 C-74 98.79 -74 86.58 -74 74 C-61.79 74 -49.58 74 -37 74 C-37 61.79 -37 49.58 -37 37 C-24.79 37 -12.58 37 0 37 C0 24.79 0 12.58 0 0 Z " fill="#E0E0E0" transform="translate(186,75)"/>
<path d="M0 0 C12.21 0 24.42 0 37 0 C37 24.42 37 48.84 37 74 C49.21 74 61.42 74 74 74 C74 98.42 74 122.84 74 148 C86.21 148 98.42 148 111 148 C111 233.47 111 318.94 111 407 C98.79 407 86.58 407 74 407 C74 431.42 74 455.84 74 481 C61.79 481 49.58 481 37 481 C37 371.11 37 261.22 37 148 C24.79 148 12.58 148 0 148 C0 99.16 0 50.32 0 0 Z " fill="#E0E0E0" transform="translate(815,186)"/>
<path d="M0 0 C134.31 0 268.62 0 407 0 C407 12.21 407 24.42 407 37 C382.58 37 358.16 37 333 37 C333 49.21 333 61.42 333 74 C247.53 74 162.06 74 74 74 C74 61.79 74 49.58 74 37 C49.58 37 25.16 37 0 37 C0 24.79 0 12.58 0 0 Z " fill="#E0E0E0" transform="translate(260,852)"/>
<path d="M0 0 C24.42 0 48.84 0 74 0 C74 12.21 74 24.42 74 37 C86.21 37 98.42 37 111 37 C111 24.79 111 12.58 111 0 C135.42 0 159.84 0 185 0 C185 12.21 185 24.42 185 37 C197.21 37 209.42 37 222 37 C222 49.21 222 61.42 222 74 C197.58 74 173.16 74 148 74 C148 86.21 148 98.42 148 111 C160.21 111 172.42 111 185 111 C185 135.42 185 159.84 185 185 C160.58 185 136.16 185 111 185 C111 172.79 111 160.58 111 148 C98.79 148 86.58 148 74 148 C74 135.79 74 123.58 74 111 C61.79 111 49.58 111 37 111 C37 98.79 37 86.58 37 74 C24.79 74 12.58 74 0 74 C0 49.58 0 25.16 0 0 Z " fill="#E0E0E0" transform="translate(75,667)"/>
<path d="M0 0 C24.42 0 48.84 0 74 0 C74 12.21 74 24.42 74 37 C86.21 37 98.42 37 111 37 C111 49.21 111 61.42 111 74 C123.21 74 135.42 74 148 74 C148 86.21 148 98.42 148 111 C135.79 111 123.58 111 111 111 C111 123.21 111 135.42 111 148 C98.79 148 86.58 148 74 148 C74 160.21 74 172.42 74 185 C49.58 185 25.16 185 0 185 C0 197.21 0 209.42 0 222 C12.21 222 24.42 222 37 222 C37 234.21 37 246.42 37 259 C12.58 259 -11.84 259 -37 259 C-37 210.16 -37 161.32 -37 111 C-12.58 111 11.84 111 37 111 C37 98.79 37 86.58 37 74 C24.79 74 12.58 74 0 74 C0 49.58 0 25.16 0 0 Z " fill="#F44336" transform="translate(667,75)"/>
<path d="M0 0 C85.47 0 170.94 0 259 0 C259 12.21 259 24.42 259 37 C283.42 37 307.84 37 333 37 C333 49.21 333 61.42 333 74 C198.69 74 64.38 74 -74 74 C-74 61.79 -74 49.58 -74 37 C-49.58 37 -25.16 37 0 37 C0 24.79 0 12.58 0 0 Z " fill="#E0E0E0" transform="translate(334,1)"/>
<path d="M0 0 C24.42 0 48.84 0 74 0 C74 12.21 74 24.42 74 37 C86.21 37 98.42 37 111 37 C111 49.21 111 61.42 111 74 C123.21 74 135.42 74 148 74 C148 86.21 148 98.42 148 111 C135.79 111 123.58 111 111 111 C111 123.21 111 135.42 111 148 C98.79 148 86.58 148 74 148 C74 160.21 74 172.42 74 185 C49.58 185 25.16 185 0 185 C0 160.58 0 136.16 0 111 C12.21 111 24.42 111 37 111 C37 98.79 37 86.58 37 74 C12.58 74 -11.84 74 -37 74 C-37 61.79 -37 49.58 -37 37 C-24.79 37 -12.58 37 0 37 C0 24.79 0 12.58 0 0 Z " fill="#E0E0E0" transform="translate(667,667)"/>
<path d="M0 0 C24.42 0 48.84 0 74 0 C74 24.42 74 48.84 74 74 C61.79 74 49.58 74 37 74 C37 86.21 37 98.42 37 111 C49.21 111 61.42 111 74 111 C74 135.42 74 159.84 74 185 C49.58 185 25.16 185 0 185 C0 172.79 0 160.58 0 148 C-12.21 148 -24.42 148 -37 148 C-37 135.79 -37 123.58 -37 111 C-49.21 111 -61.42 111 -74 111 C-74 98.79 -74 86.58 -74 74 C-61.79 74 -49.58 74 -37 74 C-37 61.79 -37 49.58 -37 37 C-24.79 37 -12.58 37 0 37 C0 24.79 0 12.58 0 0 Z " fill="#EA918B" transform="translate(186,75)"/>
<path d="M0 0 C24.42 0 48.84 0 74 0 C74 24.42 74 48.84 74 74 C61.79 74 49.58 74 37 74 C37 98.42 37 122.84 37 148 C12.58 148 -11.84 148 -37 148 C-37 123.58 -37 99.16 -37 74 C-24.79 74 -12.58 74 0 74 C0 49.58 0 25.16 0 0 Z " fill="#E0E0E0" transform="translate(75,186)"/>
<path d="M0 0 C85.47 0 170.94 0 259 0 C259 12.21 259 24.42 259 37 C173.53 37 88.06 37 0 37 C0 24.79 0 12.58 0 0 Z " fill="#000000" transform="translate(334,889)"/>
<path d="M0 0 C24.42 0 48.84 0 74 0 C74 12.21 74 24.42 74 37 C86.21 37 98.42 37 111 37 C111 49.21 111 61.42 111 74 C86.58 74 62.16 74 37 74 C37 86.21 37 98.42 37 111 C24.79 111 12.58 111 0 111 C0 98.79 0 86.58 0 74 C-12.21 74 -24.42 74 -37 74 C-37 61.79 -37 49.58 -37 37 C-24.79 37 -12.58 37 0 37 C0 24.79 0 12.58 0 0 Z " fill="#E0E0E0" transform="translate(186,667)"/>
<path d="M0 0 C12.21 0 24.42 0 37 0 C37 85.47 37 170.94 37 259 C24.79 259 12.58 259 0 259 C0 173.53 0 88.06 0 0 Z " fill="#000000" transform="translate(889,334)"/>
<path d="M0 0 C12.21 0 24.42 0 37 0 C37 85.47 37 170.94 37 259 C24.79 259 12.58 259 0 259 C0 173.53 0 88.06 0 0 Z " fill="#000000" transform="translate(593,334)"/>
<path d="M0 0 C12.21 0 24.42 0 37 0 C37 85.47 37 170.94 37 259 C24.79 259 12.58 259 0 259 C0 173.53 0 88.06 0 0 Z " fill="#000000" transform="translate(297,334)"/>
<path d="M0 0 C12.21 0 24.42 0 37 0 C37 85.47 37 170.94 37 259 C24.79 259 12.58 259 0 259 C0 173.53 0 88.06 0 0 Z " fill="#000000" transform="translate(1,334)"/>
<path d="M0 0 C85.47 0 170.94 0 259 0 C259 12.21 259 24.42 259 37 C173.53 37 88.06 37 0 37 C0 24.79 0 12.58 0 0 Z " fill="#000000" transform="translate(334,1)"/>
<path d="M0 0 C12.21 0 24.42 0 37 0 C37 24.42 37 48.84 37 74 C49.21 74 61.42 74 74 74 C74 98.42 74 122.84 74 148 C49.58 148 25.16 148 0 148 C0 99.16 0 50.32 0 0 Z " fill="#E0E0E0" transform="translate(815,186)"/>
<path d="M0 0 C24.42 0 48.84 0 74 0 C74 12.21 74 24.42 74 37 C86.21 37 98.42 37 111 37 C111 49.21 111 61.42 111 74 C98.79 74 86.58 74 74 74 C74 86.21 74 98.42 74 111 C61.79 111 49.58 111 37 111 C37 98.79 37 86.58 37 74 C24.79 74 12.58 74 0 74 C0 49.58 0 25.16 0 0 Z " fill="#E0E0E0" transform="translate(667,75)"/>
<path d="M0 0 C24.42 0 48.84 0 74 0 C74 24.42 74 48.84 74 74 C37.37 74 0.74 74 -37 74 C-37 61.79 -37 49.58 -37 37 C-24.79 37 -12.58 37 0 37 C0 24.79 0 12.58 0 0 Z " fill="#E0E0E0" transform="translate(186,75)"/>
<path d="M0 0 C12.21 0 24.42 0 37 0 C37 24.42 37 48.84 37 74 C12.58 74 -11.84 74 -37 74 C-37 61.79 -37 49.58 -37 37 C-24.79 37 -12.58 37 0 37 C0 24.79 0 12.58 0 0 Z " fill="#000000" transform="translate(667,667)"/>
<path d="M0 0 C12.21 0 24.42 0 37 0 C37 12.21 37 24.42 37 37 C49.21 37 61.42 37 74 37 C74 49.21 74 61.42 74 74 C49.58 74 25.16 74 0 74 C0 49.58 0 25.16 0 0 Z " fill="#000000" transform="translate(223,667)"/>
<path d="M0 0 C12.21 0 24.42 0 37 0 C37 24.42 37 48.84 37 74 C12.58 74 -11.84 74 -37 74 C-37 61.79 -37 49.58 -37 37 C-24.79 37 -12.58 37 0 37 C0 24.79 0 12.58 0 0 Z " fill="#000000" transform="translate(630,593)"/>
<path d="M0 0 C12.21 0 24.42 0 37 0 C37 12.21 37 24.42 37 37 C49.21 37 61.42 37 74 37 C74 49.21 74 61.42 74 74 C49.58 74 25.16 74 0 74 C0 49.58 0 25.16 0 0 Z " fill="#000000" transform="translate(260,593)"/>
<path d="M0 0 C12.21 0 24.42 0 37 0 C37 36.63 37 73.26 37 111 C24.79 111 12.58 111 0 111 C0 74.37 0 37.74 0 0 Z " fill="#E0E0E0" transform="translate(556,482)"/>
<path d="M0 0 C12.21 0 24.42 0 37 0 C37 36.63 37 73.26 37 111 C24.79 111 12.58 111 0 111 C0 74.37 0 37.74 0 0 Z " fill="#E0E0E0" transform="translate(334,482)"/>
<path d="M0 0 C12.21 0 24.42 0 37 0 C37 36.63 37 73.26 37 111 C24.79 111 12.58 111 0 111 C0 74.37 0 37.74 0 0 Z " fill="#E0E0E0" transform="translate(630,371)"/>
<path d="M0 0 C12.21 0 24.42 0 37 0 C37 36.63 37 73.26 37 111 C24.79 111 12.58 111 0 111 C0 74.37 0 37.74 0 0 Z " fill="#E0E0E0" transform="translate(260,371)"/>
<path d="M0 0 C12.21 0 24.42 0 37 0 C37 36.63 37 73.26 37 111 C24.79 111 12.58 111 0 111 C0 74.37 0 37.74 0 0 Z " fill="#E0E0E0" transform="translate(556,334)"/>
<path d="M0 0 C12.21 0 24.42 0 37 0 C37 36.63 37 73.26 37 111 C24.79 111 12.58 111 0 111 C0 74.37 0 37.74 0 0 Z " fill="#E0E0E0" transform="translate(334,334)"/>
<path d="M0 0 C12.21 0 24.42 0 37 0 C37 12.21 37 24.42 37 37 C49.21 37 61.42 37 74 37 C74 49.21 74 61.42 74 74 C49.58 74 25.16 74 0 74 C0 49.58 0 25.16 0 0 Z " fill="#000000" transform="translate(630,260)"/>
<path d="M0 0 C12.21 0 24.42 0 37 0 C37 24.42 37 48.84 37 74 C12.58 74 -11.84 74 -37 74 C-37 61.79 -37 49.58 -37 37 C-24.79 37 -12.58 37 0 37 C0 24.79 0 12.58 0 0 Z " fill="#000000" transform="translate(260,260)"/>
<path d="M0 0 C24.42 0 48.84 0 74 0 C74 12.21 74 24.42 74 37 C49.58 37 25.16 37 0 37 C0 24.79 0 12.58 0 0 Z " fill="#000000" transform="translate(593,852)"/>
<path d="M0 0 C24.42 0 48.84 0 74 0 C74 12.21 74 24.42 74 37 C49.58 37 25.16 37 0 37 C0 24.79 0 12.58 0 0 Z " fill="#000000" transform="translate(260,852)"/>
<path d="M0 0 C24.42 0 48.84 0 74 0 C74 12.21 74 24.42 74 37 C49.58 37 25.16 37 0 37 C0 24.79 0 12.58 0 0 Z " fill="#000000" transform="translate(667,815)"/>
<path d="M0 0 C24.42 0 48.84 0 74 0 C74 12.21 74 24.42 74 37 C49.58 37 25.16 37 0 37 C0 24.79 0 12.58 0 0 Z " fill="#E0E0E0" transform="translate(593,815)"/>
<path d="M0 0 C24.42 0 48.84 0 74 0 C74 12.21 74 24.42 74 37 C49.58 37 25.16 37 0 37 C0 24.79 0 12.58 0 0 Z " fill="#E0E0E0" transform="translate(260,815)"/>
<path d="M0 0 C24.42 0 48.84 0 74 0 C74 12.21 74 24.42 74 37 C49.58 37 25.16 37 0 37 C0 24.79 0 12.58 0 0 Z " fill="#000000" transform="translate(186,815)"/>
<path d="M0 0 C24.42 0 48.84 0 74 0 C74 12.21 74 24.42 74 37 C49.58 37 25.16 37 0 37 C0 24.79 0 12.58 0 0 Z " fill="#E0E0E0" transform="translate(667,778)"/>
<path d="M0 0 C12.21 0 24.42 0 37 0 C37 24.42 37 48.84 37 74 C24.79 74 12.58 74 0 74 C0 49.58 0 25.16 0 0 Z " fill="#000000" transform="translate(815,667)"/>
<path d="M0 0 C12.21 0 24.42 0 37 0 C37 24.42 37 48.84 37 74 C24.79 74 12.58 74 0 74 C0 49.58 0 25.16 0 0 Z " fill="#E0E0E0" transform="translate(778,667)"/>
<path d="M0 0 C12.21 0 24.42 0 37 0 C37 24.42 37 48.84 37 74 C24.79 74 12.58 74 0 74 C0 49.58 0 25.16 0 0 Z " fill="#000000" transform="translate(75,667)"/>
<path d="M0 0 C12.21 0 24.42 0 37 0 C37 24.42 37 48.84 37 74 C24.79 74 12.58 74 0 74 C0 49.58 0 25.16 0 0 Z " fill="#E0E0E0" transform="translate(667,593)"/>
<path d="M0 0 C12.21 0 24.42 0 37 0 C37 24.42 37 48.84 37 74 C24.79 74 12.58 74 0 74 C0 49.58 0 25.16 0 0 Z " fill="#E0E0E0" transform="translate(223,593)"/>
<path d="M0 0 C12.21 0 24.42 0 37 0 C37 24.42 37 48.84 37 74 C24.79 74 12.58 74 0 74 C0 49.58 0 25.16 0 0 Z " fill="#000000" transform="translate(852,593)"/>
<path d="M0 0 C12.21 0 24.42 0 37 0 C37 24.42 37 48.84 37 74 C24.79 74 12.58 74 0 74 C0 49.58 0 25.16 0 0 Z " fill="#E0E0E0" transform="translate(815,593)"/>
<path d="M0 0 C12.21 0 24.42 0 37 0 C37 24.42 37 48.84 37 74 C24.79 74 12.58 74 0 74 C0 49.58 0 25.16 0 0 Z " fill="#E0E0E0" transform="translate(75,593)"/>
<path d="M0 0 C12.21 0 24.42 0 37 0 C37 24.42 37 48.84 37 74 C24.79 74 12.58 74 0 74 C0 49.58 0 25.16 0 0 Z " fill="#000000" transform="translate(38,593)"/>
<path d="M0 0 C12.21 0 24.42 0 37 0 C37 24.42 37 48.84 37 74 C24.79 74 12.58 74 0 74 C0 49.58 0 25.16 0 0 Z " fill="#E0E0E0" transform="translate(630,519)"/>
<path d="M0 0 C12.21 0 24.42 0 37 0 C37 24.42 37 48.84 37 74 C24.79 74 12.58 74 0 74 C0 49.58 0 25.16 0 0 Z " fill="#E0E0E0" transform="translate(260,519)"/>
<path d="M0 0 C12.21 0 24.42 0 37 0 C37 24.42 37 48.84 37 74 C24.79 74 12.58 74 0 74 C0 49.58 0 25.16 0 0 Z " fill="#E0E0E0" transform="translate(593,260)"/>
<path d="M0 0 C12.21 0 24.42 0 37 0 C37 24.42 37 48.84 37 74 C24.79 74 12.58 74 0 74 C0 49.58 0 25.16 0 0 Z " fill="#E0E0E0" transform="translate(297,260)"/>
<path d="M0 0 C12.21 0 24.42 0 37 0 C37 24.42 37 48.84 37 74 C24.79 74 12.58 74 0 74 C0 49.58 0 25.16 0 0 Z " fill="#000000" transform="translate(852,260)"/>
<path d="M0 0 C12.21 0 24.42 0 37 0 C37 24.42 37 48.84 37 74 C24.79 74 12.58 74 0 74 C0 49.58 0 25.16 0 0 Z " fill="#000000" transform="translate(38,260)"/>
<path d="M0 0 C12.21 0 24.42 0 37 0 C37 24.42 37 48.84 37 74 C24.79 74 12.58 74 0 74 C0 49.58 0 25.16 0 0 Z " fill="#E0E0E0" transform="translate(630,186)"/>
<path d="M0 0 C12.21 0 24.42 0 37 0 C37 24.42 37 48.84 37 74 C24.79 74 12.58 74 0 74 C0 49.58 0 25.16 0 0 Z " fill="#E0E0E0" transform="translate(260,186)"/>
<path d="M0 0 C12.21 0 24.42 0 37 0 C37 24.42 37 48.84 37 74 C24.79 74 12.58 74 0 74 C0 49.58 0 25.16 0 0 Z " fill="#000000" transform="translate(815,186)"/>
<path d="M0 0 C12.21 0 24.42 0 37 0 C37 24.42 37 48.84 37 74 C24.79 74 12.58 74 0 74 C0 49.58 0 25.16 0 0 Z " fill="#E0E0E0" transform="translate(778,186)"/>
<path d="M0 0 C12.21 0 24.42 0 37 0 C37 24.42 37 48.84 37 74 C24.79 74 12.58 74 0 74 C0 49.58 0 25.16 0 0 Z " fill="#000000" transform="translate(667,186)"/>
<path d="M0 0 C12.21 0 24.42 0 37 0 C37 24.42 37 48.84 37 74 C24.79 74 12.58 74 0 74 C0 49.58 0 25.16 0 0 Z " fill="#000000" transform="translate(223,186)"/>
<path d="M0 0 C12.21 0 24.42 0 37 0 C37 24.42 37 48.84 37 74 C24.79 74 12.58 74 0 74 C0 49.58 0 25.16 0 0 Z " fill="#000000" transform="translate(75,186)"/>
<path d="M0 0 C24.42 0 48.84 0 74 0 C74 12.21 74 24.42 74 37 C49.58 37 25.16 37 0 37 C0 24.79 0 12.58 0 0 Z " fill="#000000" transform="translate(667,75)"/>
<path d="M0 0 C24.42 0 48.84 0 74 0 C74 12.21 74 24.42 74 37 C49.58 37 25.16 37 0 37 C0 24.79 0 12.58 0 0 Z " fill="#E0E0E0" transform="translate(593,75)"/>
<path d="M0 0 C24.42 0 48.84 0 74 0 C74 12.21 74 24.42 74 37 C49.58 37 25.16 37 0 37 C0 24.79 0 12.58 0 0 Z " fill="#E0E0E0" transform="translate(260,75)"/>
<path d="M0 0 C24.42 0 48.84 0 74 0 C74 12.21 74 24.42 74 37 C49.58 37 25.16 37 0 37 C0 24.79 0 12.58 0 0 Z " fill="#000000" transform="translate(186,75)"/>
<path d="M0 0 C24.42 0 48.84 0 74 0 C74 12.21 74 24.42 74 37 C49.58 37 25.16 37 0 37 C0 24.79 0 12.58 0 0 Z " fill="#000000" transform="translate(593,38)"/>
<path d="M0 0 C24.42 0 48.84 0 74 0 C74 12.21 74 24.42 74 37 C49.58 37 25.16 37 0 37 C0 24.79 0 12.58 0 0 Z " fill="#000000" transform="translate(260,38)"/>
<path d="M0 0 C12.21 0 24.42 0 37 0 C37 12.21 37 24.42 37 37 C24.79 37 12.58 37 0 37 C0 24.79 0 12.58 0 0 Z " fill="#000000" transform="translate(741,778)"/>
<path d="M0 0 C12.21 0 24.42 0 37 0 C37 12.21 37 24.42 37 37 C24.79 37 12.58 37 0 37 C0 24.79 0 12.58 0 0 Z " fill="#F44336" transform="translate(667,778)"/>
<path d="M0 0 C12.21 0 24.42 0 37 0 C37 12.21 37 24.42 37 37 C24.79 37 12.58 37 0 37 C0 24.79 0 12.58 0 0 Z " fill="#F44336" transform="translate(223,778)"/>
<path d="M0 0 C12.21 0 24.42 0 37 0 C37 12.21 37 24.42 37 37 C24.79 37 12.58 37 0 37 C0 24.79 0 12.58 0 0 Z " fill="#E0E0E0" transform="translate(186,778)"/>
<path d="M0 0 C12.21 0 24.42 0 37 0 C37 12.21 37 24.42 37 37 C24.79 37 12.58 37 0 37 C0 24.79 0 12.58 0 0 Z " fill="#000000" transform="translate(149,778)"/>
<path d="M0 0 C12.21 0 24.42 0 37 0 C37 12.21 37 24.42 37 37 C24.79 37 12.58 37 0 37 C0 24.79 0 12.58 0 0 Z " fill="#000000" transform="translate(778,741)"/>
<path d="M0 0 C12.21 0 24.42 0 37 0 C37 12.21 37 24.42 37 37 C24.79 37 12.58 37 0 37 C0 24.79 0 12.58 0 0 Z " fill="#E0E0E0" transform="translate(741,741)"/>
<path d="M0 0 C12.21 0 24.42 0 37 0 C37 12.21 37 24.42 37 37 C24.79 37 12.58 37 0 37 C0 24.79 0 12.58 0 0 Z " fill="#000000" transform="translate(704,741)"/>
<path d="M0 0 C12.21 0 24.42 0 37 0 C37 12.21 37 24.42 37 37 C24.79 37 12.58 37 0 37 C0 24.79 0 12.58 0 0 Z " fill="#E0E0E0" transform="translate(667,741)"/>
<path d="M0 0 C12.21 0 24.42 0 37 0 C37 12.21 37 24.42 37 37 C24.79 37 12.58 37 0 37 C0 24.79 0 12.58 0 0 Z " fill="#E0E0E0" transform="translate(223,741)"/>
<path d="M0 0 C12.21 0 24.42 0 37 0 C37 12.21 37 24.42 37 37 C24.79 37 12.58 37 0 37 C0 24.79 0 12.58 0 0 Z " fill="#000000" transform="translate(186,741)"/>
<path d="M0 0 C12.21 0 24.42 0 37 0 C37 12.21 37 24.42 37 37 C24.79 37 12.58 37 0 37 C0 24.79 0 12.58 0 0 Z " fill="#E0E0E0" transform="translate(149,741)"/>
<path d="M0 0 C12.21 0 24.42 0 37 0 C37 12.21 37 24.42 37 37 C24.79 37 12.58 37 0 37 C0 24.79 0 12.58 0 0 Z " fill="#000000" transform="translate(112,741)"/>
<path d="M0 0 C12.21 0 24.42 0 37 0 C37 12.21 37 24.42 37 37 C24.79 37 12.58 37 0 37 C0 24.79 0 12.58 0 0 Z " fill="#F44336" transform="translate(741,704)"/>
<path d="M0 0 C12.21 0 24.42 0 37 0 C37 12.21 37 24.42 37 37 C24.79 37 12.58 37 0 37 C0 24.79 0 12.58 0 0 Z " fill="#F44336" transform="translate(630,704)"/>
<path d="M0 0 C12.21 0 24.42 0 37 0 C37 12.21 37 24.42 37 37 C24.79 37 12.58 37 0 37 C0 24.79 0 12.58 0 0 Z " fill="#F44336" transform="translate(260,704)"/>
<path d="M0 0 C12.21 0 24.42 0 37 0 C37 12.21 37 24.42 37 37 C24.79 37 12.58 37 0 37 C0 24.79 0 12.58 0 0 Z " fill="#F44336" transform="translate(149,704)"/>
<path d="M0 0 C12.21 0 24.42 0 37 0 C37 12.21 37 24.42 37 37 C24.79 37 12.58 37 0 37 C0 24.79 0 12.58 0 0 Z " fill="#F44336" transform="translate(704,667)"/>
<path d="M0 0 C12.21 0 24.42 0 37 0 C37 12.21 37 24.42 37 37 C24.79 37 12.58 37 0 37 C0 24.79 0 12.58 0 0 Z " fill="#E0E0E0" transform="translate(630,667)"/>
<path d="M0 0 C12.21 0 24.42 0 37 0 C37 12.21 37 24.42 37 37 C24.79 37 12.58 37 0 37 C0 24.79 0 12.58 0 0 Z " fill="#E0E0E0" transform="translate(260,667)"/>
<path d="M0 0 C12.21 0 24.42 0 37 0 C37 12.21 37 24.42 37 37 C24.79 37 12.58 37 0 37 C0 24.79 0 12.58 0 0 Z " fill="#F44336" transform="translate(186,667)"/>
<path d="M0 0 C12.21 0 24.42 0 37 0 C37 12.21 37 24.42 37 37 C24.79 37 12.58 37 0 37 C0 24.79 0 12.58 0 0 Z " fill="#F44336" transform="translate(593,630)"/>
<path d="M0 0 C12.21 0 24.42 0 37 0 C37 12.21 37 24.42 37 37 C24.79 37 12.58 37 0 37 C0 24.79 0 12.58 0 0 Z " fill="#F44336" transform="translate(297,630)"/>
<path d="M0 0 C12.21 0 24.42 0 37 0 C37 12.21 37 24.42 37 37 C24.79 37 12.58 37 0 37 C0 24.79 0 12.58 0 0 Z " fill="#F44336" transform="translate(667,593)"/>
<path d="M0 0 C12.21 0 24.42 0 37 0 C37 12.21 37 24.42 37 37 C24.79 37 12.58 37 0 37 C0 24.79 0 12.58 0 0 Z " fill="#E0E0E0" transform="translate(593,593)"/>
<path d="M0 0 C12.21 0 24.42 0 37 0 C37 12.21 37 24.42 37 37 C24.79 37 12.58 37 0 37 C0 24.79 0 12.58 0 0 Z " fill="#E0E0E0" transform="translate(297,593)"/>
<path d="M0 0 C12.21 0 24.42 0 37 0 C37 12.21 37 24.42 37 37 C24.79 37 12.58 37 0 37 C0 24.79 0 12.58 0 0 Z " fill="#F44336" transform="translate(223,593)"/>
<path d="M0 0 C12.21 0 24.42 0 37 0 C37 12.21 37 24.42 37 37 C24.79 37 12.58 37 0 37 C0 24.79 0 12.58 0 0 Z " fill="#F44336" transform="translate(556,556)"/>
<path d="M0 0 C12.21 0 24.42 0 37 0 C37 12.21 37 24.42 37 37 C24.79 37 12.58 37 0 37 C0 24.79 0 12.58 0 0 Z " fill="#F44336" transform="translate(334,556)"/>
<path d="M0 0 C12.21 0 24.42 0 37 0 C37 12.21 37 24.42 37 37 C24.79 37 12.58 37 0 37 C0 24.79 0 12.58 0 0 Z " fill="#F44336" transform="translate(630,519)"/>
<path d="M0 0 C12.21 0 24.42 0 37 0 C37 12.21 37 24.42 37 37 C24.79 37 12.58 37 0 37 C0 24.79 0 12.58 0 0 Z " fill="#F44336" transform="translate(260,519)"/>
<path d="M0 0 C12.21 0 24.42 0 37 0 C37 12.21 37 24.42 37 37 C24.79 37 12.58 37 0 37 C0 24.79 0 12.58 0 0 Z " fill="#E0E0E0" transform="translate(630,482)"/>
<path d="M0 0 C12.21 0 24.42 0 37 0 C37 12.21 37 24.42 37 37 C24.79 37 12.58 37 0 37 C0 24.79 0 12.58 0 0 Z " fill="#F44336" transform="translate(556,482)"/>
<path d="M0 0 C12.21 0 24.42 0 37 0 C37 12.21 37 24.42 37 37 C24.79 37 12.58 37 0 37 C0 24.79 0 12.58 0 0 Z " fill="#F44336" transform="translate(334,482)"/>
<path d="M0 0 C12.21 0 24.42 0 37 0 C37 12.21 37 24.42 37 37 C24.79 37 12.58 37 0 37 C0 24.79 0 12.58 0 0 Z " fill="#E0E0E0" transform="translate(260,482)"/>
<path d="M0 0 C12.21 0 24.42 0 37 0 C37 12.21 37 24.42 37 37 C24.79 37 12.58 37 0 37 C0 24.79 0 12.58 0 0 Z " fill="#F44336" transform="translate(630,445)"/>
<path d="M0 0 C12.21 0 24.42 0 37 0 C37 12.21 37 24.42 37 37 C24.79 37 12.58 37 0 37 C0 24.79 0 12.58 0 0 Z " fill="#E0E0E0" transform="translate(556,445)"/>
<path d="M0 0 C12.21 0 24.42 0 37 0 C37 12.21 37 24.42 37 37 C24.79 37 12.58 37 0 37 C0 24.79 0 12.58 0 0 Z " fill="#E0E0E0" transform="translate(334,445)"/>
<path d="M0 0 C12.21 0 24.42 0 37 0 C37 12.21 37 24.42 37 37 C24.79 37 12.58 37 0 37 C0 24.79 0 12.58 0 0 Z " fill="#F44336" transform="translate(260,445)"/>
<path d="M0 0 C12.21 0 24.42 0 37 0 C37 12.21 37 24.42 37 37 C24.79 37 12.58 37 0 37 C0 24.79 0 12.58 0 0 Z " fill="#F44336" transform="translate(556,408)"/>
<path d="M0 0 C12.21 0 24.42 0 37 0 C37 12.21 37 24.42 37 37 C24.79 37 12.58 37 0 37 C0 24.79 0 12.58 0 0 Z " fill="#F44336" transform="translate(334,408)"/>
<path d="M0 0 C12.21 0 24.42 0 37 0 C37 12.21 37 24.42 37 37 C24.79 37 12.58 37 0 37 C0 24.79 0 12.58 0 0 Z " fill="#F44336" transform="translate(630,371)"/>
<path d="M0 0 C12.21 0 24.42 0 37 0 C37 12.21 37 24.42 37 37 C24.79 37 12.58 37 0 37 C0 24.79 0 12.58 0 0 Z " fill="#F44336" transform="translate(260,371)"/>
<path d="M0 0 C12.21 0 24.42 0 37 0 C37 12.21 37 24.42 37 37 C24.79 37 12.58 37 0 37 C0 24.79 0 12.58 0 0 Z " fill="#E0E0E0" transform="translate(630,334)"/>
<path d="M0 0 C12.21 0 24.42 0 37 0 C37 12.21 37 24.42 37 37 C24.79 37 12.58 37 0 37 C0 24.79 0 12.58 0 0 Z " fill="#F44336" transform="translate(556,334)"/>
<path d="M0 0 C12.21 0 24.42 0 37 0 C37 12.21 37 24.42 37 37 C24.79 37 12.58 37 0 37 C0 24.79 0 12.58 0 0 Z " fill="#F44336" transform="translate(334,334)"/>
<path d="M0 0 C12.21 0 24.42 0 37 0 C37 12.21 37 24.42 37 37 C24.79 37 12.58 37 0 37 C0 24.79 0 12.58 0 0 Z " fill="#E0E0E0" transform="translate(260,334)"/>
<path d="M0 0 C12.21 0 24.42 0 37 0 C37 12.21 37 24.42 37 37 C24.79 37 12.58 37 0 37 C0 24.79 0 12.58 0 0 Z " fill="#F44336" transform="translate(667,297)"/>
<path d="M0 0 C12.21 0 24.42 0 37 0 C37 12.21 37 24.42 37 37 C24.79 37 12.58 37 0 37 C0 24.79 0 12.58 0 0 Z " fill="#F44336" transform="translate(223,297)"/>
<path d="M0 0 C12.21 0 24.42 0 37 0 C37 12.21 37 24.42 37 37 C24.79 37 12.58 37 0 37 C0 24.79 0 12.58 0 0 Z " fill="#E0E0E0" transform="translate(667,260)"/>
<path d="M0 0 C12.21 0 24.42 0 37 0 C37 12.21 37 24.42 37 37 C24.79 37 12.58 37 0 37 C0 24.79 0 12.58 0 0 Z " fill="#F44336" transform="translate(593,260)"/>
<path d="M0 0 C12.21 0 24.42 0 37 0 C37 12.21 37 24.42 37 37 C24.79 37 12.58 37 0 37 C0 24.79 0 12.58 0 0 Z " fill="#F44336" transform="translate(297,260)"/>
<path d="M0 0 C12.21 0 24.42 0 37 0 C37 12.21 37 24.42 37 37 C24.79 37 12.58 37 0 37 C0 24.79 0 12.58 0 0 Z " fill="#E0E0E0" transform="translate(223,260)"/>
<path d="M0 0 C12.21 0 24.42 0 37 0 C37 12.21 37 24.42 37 37 C24.79 37 12.58 37 0 37 C0 24.79 0 12.58 0 0 Z " fill="#F44336" transform="translate(704,223)"/>
<path d="M0 0 C12.21 0 24.42 0 37 0 C37 12.21 37 24.42 37 37 C24.79 37 12.58 37 0 37 C0 24.79 0 12.58 0 0 Z " fill="#E0E0E0" transform="translate(704,186)"/>
<path d="M0 0 C12.21 0 24.42 0 37 0 C37 12.21 37 24.42 37 37 C24.79 37 12.58 37 0 37 C0 24.79 0 12.58 0 0 Z " fill="#F44336" transform="translate(630,186)"/>
<path d="M0 0 C12.21 0 24.42 0 37 0 C37 12.21 37 24.42 37 37 C24.79 37 12.58 37 0 37 C0 24.79 0 12.58 0 0 Z " fill="#F44336" transform="translate(260,186)"/>
<path d="M0 0 C12.21 0 24.42 0 37 0 C37 12.21 37 24.42 37 37 C24.79 37 12.58 37 0 37 C0 24.79 0 12.58 0 0 Z " fill="#E0E0E0" transform="translate(186,186)"/>
<path d="M0 0 C12.21 0 24.42 0 37 0 C37 12.21 37 24.42 37 37 C24.79 37 12.58 37 0 37 C0 24.79 0 12.58 0 0 Z " fill="#F44336" transform="translate(149,186)"/>
<path d="M0 0 C12.21 0 24.42 0 37 0 C37 12.21 37 24.42 37 37 C24.79 37 12.58 37 0 37 C0 24.79 0 12.58 0 0 Z " fill="#000000" transform="translate(778,149)"/>
<path d="M0 0 C12.21 0 24.42 0 37 0 C37 12.21 37 24.42 37 37 C24.79 37 12.58 37 0 37 C0 24.79 0 12.58 0 0 Z " fill="#E0E0E0" transform="translate(741,149)"/>
<path d="M0 0 C12.21 0 24.42 0 37 0 C37 12.21 37 24.42 37 37 C24.79 37 12.58 37 0 37 C0 24.79 0 12.58 0 0 Z " fill="#000000" transform="translate(704,149)"/>
<path d="M0 0 C12.21 0 24.42 0 37 0 C37 12.21 37 24.42 37 37 C24.79 37 12.58 37 0 37 C0 24.79 0 12.58 0 0 Z " fill="#E0E0E0" transform="translate(667,149)"/>
<path d="M0 0 C12.21 0 24.42 0 37 0 C37 12.21 37 24.42 37 37 C24.79 37 12.58 37 0 37 C0 24.79 0 12.58 0 0 Z " fill="#E0E0E0" transform="translate(223,149)"/>
<path d="M0 0 C12.21 0 24.42 0 37 0 C37 12.21 37 24.42 37 37 C24.79 37 12.58 37 0 37 C0 24.79 0 12.58 0 0 Z " fill="#000000" transform="translate(186,149)"/>
<path d="M0 0 C12.21 0 24.42 0 37 0 C37 12.21 37 24.42 37 37 C24.79 37 12.58 37 0 37 C0 24.79 0 12.58 0 0 Z " fill="#000000" transform="translate(112,149)"/>
<path d="M0 0 C12.21 0 24.42 0 37 0 C37 12.21 37 24.42 37 37 C24.79 37 12.58 37 0 37 C0 24.79 0 12.58 0 0 Z " fill="#000000" transform="translate(741,112)"/>
<path d="M0 0 C12.21 0 24.42 0 37 0 C37 12.21 37 24.42 37 37 C24.79 37 12.58 37 0 37 C0 24.79 0 12.58 0 0 Z " fill="#F44336" transform="translate(667,112)"/>
<path d="M0 0 C12.21 0 24.42 0 37 0 C37 12.21 37 24.42 37 37 C24.79 37 12.58 37 0 37 C0 24.79 0 12.58 0 0 Z " fill="#F44336" transform="translate(223,112)"/>
<path d="M0 0 C12.21 0 24.42 0 37 0 C37 12.21 37 24.42 37 37 C24.79 37 12.58 37 0 37 C0 24.79 0 12.58 0 0 Z " fill="#000000" transform="translate(149,112)"/>
</svg>
