<svg width="96" height="96" viewBox="0 0 96 96" fill="none" xmlns="http://www.w3.org/2000/svg">
<rect width="96" height="96" rx="10" fill="#D4E6ED"/>
<path d="M58.0752 14.2285C63.1448 13.4015 67.8458 13.328 71.5957 13.7617C73.47 13.9785 75.1162 14.3228 76.457 14.7686C77.7882 15.2111 78.8597 15.7668 79.5439 16.4307L79.5498 16.4365C80.2353 17.1221 80.8008 18.2004 81.2471 19.5381C81.6966 20.8856 82.0397 22.5398 82.252 24.4189C82.6766 28.1779 82.5847 32.878 81.7578 37.9111L81.7568 37.9131C80.1049 47.6806 75.7925 59.2012 66.9961 67.9971C58.2 76.7929 46.6807 81.1059 36.9131 82.7578H36.9111C31.8782 83.5847 27.178 83.6766 23.4189 83.252C21.5397 83.0396 19.8857 82.6966 18.5381 82.2471C17.2003 81.8008 16.1221 81.2352 15.4365 80.5498L15.4307 80.5439C14.7668 79.8597 14.2111 78.7882 13.7686 77.457C13.3228 76.1162 12.9785 74.47 12.7617 72.5957C12.328 68.8458 12.4016 64.1448 13.2285 59.0752V59.0723C14.881 49.3015 19.2659 37.8546 28.0605 29.0605C36.7848 20.2652 48.3032 15.8807 58.0723 14.2285H58.0752ZM18.6182 59.1973C18.571 59.4346 18.533 59.6737 18.4951 59.9395L18.4941 59.9502C17.7861 64.2693 17.6104 68.1356 17.8037 71.1143C17.9004 72.6044 18.0889 73.8615 18.3438 74.8369C18.601 75.8215 18.9106 76.4562 19.21 76.7744L19.3428 76.8936C19.6897 77.1703 20.2885 77.4473 21.1611 77.6816C22.1408 77.9447 23.4036 78.1377 24.8975 78.2344C27.8836 78.4275 31.7487 78.2343 36.0303 77.4912L36.0371 77.4902L36.0449 77.4893C36.2983 77.4531 36.5498 77.4167 36.791 77.3809C36.0181 75.8581 35.1348 74.4281 34.1367 72.9932L34.1328 72.9873C32.6549 70.8054 30.9645 68.7613 29.1299 66.8555L28.4326 66.1758C26.7837 64.6049 24.9743 63.1494 23.0039 61.8564L22.9961 61.8516C21.6197 60.9131 20.1275 60.03 18.6182 59.1973ZM52.8369 20.877C45.592 22.9514 37.9224 26.6732 31.7607 32.7656L31.7598 32.7646C25.6711 38.9243 21.9521 46.5907 19.8779 53.833C21.7576 54.7918 23.5397 55.8432 25.2227 56.9492L25.9844 57.458L25.9863 57.459C28.5046 59.1856 30.8115 61.0596 32.9043 63.1523C34.9241 65.1722 36.7956 67.4766 38.5205 69.9912L39.0537 70.7607C40.1993 72.4671 41.2052 74.3024 42.1533 76.1787C49.4568 74.1035 57.0568 70.3165 63.2197 64.2246L63.7949 63.6318C69.553 57.5786 73.1668 50.2294 75.1768 43.1572C73.0846 42.1256 71.0573 40.9654 69.2178 39.6719C66.624 37.9427 64.245 35.9964 62.1523 33.9043C60.0596 31.8115 58.1856 29.5046 56.459 26.9863L56.457 26.9844V26.9834C55.1633 25.0769 53.9373 22.9804 52.8369 20.877ZM47.1904 37.0332C48.2405 35.9995 49.8961 36.0028 50.9424 37.043H50.9434L53.0859 39.125L54.6641 37.5479L54.6709 37.54L54.6797 37.5322C55.7266 36.5728 57.375 36.5727 58.4219 37.5322L58.4375 37.5479C59.4886 38.5989 59.4885 40.2702 58.4375 41.3213L56.8643 42.8936L59.0078 45.0371C60.0589 46.0882 60.0589 47.7595 59.0078 48.8105C57.9567 49.8616 56.2854 49.8616 55.2344 48.8105L53.0908 46.667L51.2305 48.5283L53.3584 50.6562L53.4551 50.751C54.4287 51.7491 54.3969 53.4375 53.3584 54.3896C52.375 55.4246 50.6467 55.4196 49.6709 54.374L47.5273 52.2305L45.667 54.0908L47.8105 56.2344C48.8616 57.2855 48.8616 58.9577 47.8105 60.0088C46.7594 61.0599 45.0872 61.0599 44.0361 60.0088L41.8936 57.8662L40.3213 59.4385C39.2702 60.4894 37.5979 60.4895 36.5469 59.4385L36.54 59.4307L36.5322 59.4229C35.5723 58.3758 35.5723 56.7267 36.5322 55.6797L36.54 55.6719L36.5469 55.6641L38.124 54.0859L36.0479 51.9482C34.9972 50.8971 34.9969 49.2257 36.0479 48.1748C37.0407 47.1101 38.714 47.1378 39.751 48.1748L41.8975 50.3223L43.748 48.5225L41.6113 46.3857C40.5602 45.3346 40.5602 43.6624 41.6113 42.6113C42.6624 41.5604 44.3347 41.5603 45.3857 42.6113L47.5225 44.749L49.3223 42.8984L47.1748 40.751C46.1977 39.7739 46.1157 38.232 47 37.2266L47.1904 37.0332ZM70.1143 18.8047C67.1356 18.6114 63.269 18.7871 58.9502 19.4951L58.9395 19.4971V19.4961C58.6739 19.534 58.4347 19.5719 58.1973 19.6191C58.9126 20.9161 59.6644 22.2012 60.458 23.4102L60.8516 23.998L60.8525 23.999C62.3356 26.1886 64.0272 28.3025 65.8555 30.1309C67.7548 32.0302 69.8679 33.7213 72.1982 35.2744L72.2119 35.2842C73.5035 36.2069 74.9083 37.0251 76.3828 37.7861C76.4183 37.5469 76.4545 37.2979 76.4902 37.0469L76.4912 37.0391L76.4922 37.0322C77.2353 32.7501 77.4278 28.8846 77.2344 25.8984C77.1376 24.4046 76.9448 23.1417 76.6816 22.1621C76.4148 21.169 76.0921 20.5311 75.7783 20.2148C75.4614 19.9143 74.8255 19.603 73.8369 19.3447C72.8615 19.0899 71.6042 18.9014 70.1143 18.8047Z" fill="#0A1B72" stroke="white"/>
</svg>
