<svg width="112" height="127" viewBox="0 0 112 127" fill="none" xmlns="http://www.w3.org/2000/svg">
<g id="Moviedle">
<g id="Group 4123">
<path id="Subtract" fill-rule="evenodd" clip-rule="evenodd" d="M55.9806 110.961C86.6217 110.961 111.461 86.1217 111.461 55.4806C111.461 24.8395 86.6217 0 55.9806 0C25.3395 0 0.5 24.8395 0.5 55.4806C0.5 86.1217 25.3395 110.961 55.9806 110.961ZM55.9808 40.3495C64.3375 40.3495 71.1119 33.5751 71.1119 25.2185C71.1119 16.8618 64.3375 10.0874 55.9808 10.0874C47.6242 10.0874 40.8498 16.8618 40.8498 25.2185C40.8498 33.5751 47.6242 40.3495 55.9808 40.3495ZM71.1119 85.7427C71.1119 94.0993 64.3375 100.874 55.9808 100.874C47.6242 100.874 40.8498 94.0993 40.8498 85.7427C40.8498 77.386 47.6242 70.6116 55.9808 70.6116C64.3375 70.6116 71.1119 77.386 71.1119 85.7427ZM40.8497 55.4805C40.8497 47.1239 34.0753 40.3495 25.7186 40.3495C17.362 40.3495 10.5876 47.1239 10.5876 55.4805C10.5876 63.8372 17.362 70.6116 25.7186 70.6116C34.0753 70.6116 40.8497 63.8372 40.8497 55.4805ZM55.9803 45.3932C61.5514 45.3932 66.0677 49.9095 66.0677 55.4806C66.0677 61.0517 61.5514 65.568 55.9803 65.568C50.4092 65.568 45.8929 61.0517 45.8929 55.4806C45.8929 49.9095 50.4092 45.3932 55.9803 45.3932ZM101.373 55.4805C101.373 47.1239 94.5991 40.3495 86.2424 40.3495C77.8857 40.3495 71.1113 47.1239 71.1113 55.4805C71.1113 63.8372 77.8857 70.6116 86.2424 70.6116C94.5991 70.6116 101.373 63.8372 101.373 55.4805Z" fill="url(#paint0_linear_2_10506)"/>
<rect id="Rectangle 2067" x="66.0684" y="116.005" width="40.3495" height="10.0874" rx="5.04369" fill="url(#paint1_linear_2_10506)"/>
</g>
</g>
<defs>
<linearGradient id="paint0_linear_2_10506" x1="12.9653" y1="-9.66704e-08" x2="43.0009" y2="127.155" gradientUnits="userSpaceOnUse">
<stop stop-color="#FF605A"/>
<stop offset="1" stop-color="#FF8A35"/>
</linearGradient>
<linearGradient id="paint1_linear_2_10506" x1="70.6012" y1="116.005" x2="71.3194" y2="128.167" gradientUnits="userSpaceOnUse">
<stop stop-color="#FF605A"/>
<stop offset="1" stop-color="#FF8A35"/>
</linearGradient>
</defs>
</svg>
