<?xml version="1.0" encoding="UTF-8"?>
<svg version="1.1" xmlns="http://www.w3.org/2000/svg" width="150" height="150">
<path d="M0 0 C49.5 0 99 0 150 0 C150 49.5 150 99 150 150 C100.5 150 51 150 0 150 C0 100.5 0 51 0 0 Z " fill="#0A0609" transform="translate(0,0)"/>
<path d="M0 0 C2.60104025 -0.37951803 4.95820387 -0.56376407 7.5703125 -0.609375 C8.32537079 -0.62647522 9.08042908 -0.64357544 9.85836792 -0.66119385 C11.46046331 -0.68956048 13.06273419 -0.70915267 14.66503906 -0.72070312 C17.09759981 -0.74967368 19.52237106 -0.84256413 21.953125 -0.9375 C34.96784844 -1.22191421 34.96784844 -1.22191421 40.08203125 3.421875 C44.93814746 10.37763625 43.88294861 18.90969191 43.5625 27 C43.530895 28.63665302 43.50286951 30.27337928 43.47851562 31.91015625 C43.24635777 43.75364223 43.24635777 43.75364223 42 45 C38.92088341 45.11360293 35.86504534 45.16419105 32.78515625 45.16796875 C31.85908066 45.17129715 30.93300507 45.17462555 29.97886658 45.17805481 C28.01594542 45.18312808 26.0530156 45.18546301 24.09008789 45.18530273 C21.07879489 45.18748817 18.06786866 45.20563674 15.05664062 45.22460938 C13.15364709 45.22754336 11.25065181 45.22952812 9.34765625 45.23046875 C8.44241714 45.23765427 7.53717804 45.24483978 6.60450745 45.25224304 C5.76701462 45.24916641 4.92952179 45.24608978 4.06665039 45.24291992 C2.9586483 45.24505745 2.9586483 45.24505745 1.82826233 45.24723816 C0 45 0 45 -2 43 C-2.20010854 40.02196961 -2.27972613 37.13895086 -2.265625 34.16015625 C-2.26753845 33.28225937 -2.2694519 32.40436249 -2.27142334 31.49986267 C-2.27278565 29.64126296 -2.26908599 27.78265375 -2.26074219 25.92407227 C-2.25005601 23.07741911 -2.26062925 20.2313989 -2.2734375 17.38476562 C-2.27211566 15.58072777 -2.26955277 13.77669031 -2.265625 11.97265625 C-2.26967346 11.11946304 -2.27372192 10.26626984 -2.27789307 9.38722229 C-2.22992618 3.34488928 -2.22992618 3.34488928 0 0 Z " fill="#F9B4E1" transform="translate(54,103)"/>
<path d="M0 0 C1.28753174 0.00607269 1.28753174 0.00607269 2.60107422 0.01226807 C3.92147705 0.00939789 3.92147705 0.00939789 5.26855469 0.00646973 C7.13135056 0.00510755 8.99415591 0.00880625 10.85693359 0.01715088 C13.71457158 0.02785 16.57158088 0.01725675 19.42919922 0.00445557 C21.23649228 0.00577716 23.04378495 0.00833954 24.85107422 0.01226807 C25.70942871 0.0082196 26.5677832 0.00417114 27.45214844 0 C33.49615677 0.04797562 33.49615677 0.04797562 35.72607422 2.27789307 C35.97331238 4.1061554 35.97331238 4.1061554 35.96899414 6.34454346 C35.97360909 7.6007827 35.97360909 7.6007827 35.97831726 8.88240051 C35.97113174 9.78763962 35.96394623 10.69287872 35.95654297 11.62554932 C35.95608475 12.55258163 35.95562653 13.47961395 35.95515442 14.43473816 C35.95213076 16.3958972 35.94424107 18.35705382 35.93188477 20.31817627 C35.91362793 23.33152709 35.91137504 26.34457085 35.91162109 29.35797119 C35.90670607 31.25966657 35.90087781 33.16135986 35.89404297 35.06304932 C35.89293015 35.97031265 35.89181732 36.87757599 35.89067078 37.81233215 C35.84211869 44.16184859 35.84211869 44.16184859 34.72607422 45.27789307 C29.54514641 45.59459381 24.36175433 45.63480268 19.17211914 45.68292236 C17.42517275 45.70446161 15.6783331 45.73851653 13.93188477 45.78546143 C11.41096897 45.8526253 8.89229105 45.87994949 6.37060547 45.89898682 C5.5953804 45.92681747 4.82015533 45.95464813 4.0214386 45.98332214 C-0.05334939 45.96798403 -2.63612141 45.48401883 -5.77319336 42.77716064 C-9.03387293 38.99334453 -9.08458342 35.49633872 -8.93017578 30.66851807 C-8.92642944 29.86049744 -8.92268311 29.05247681 -8.91882324 28.2199707 C-8.90543937 26.52214911 -8.8777228 24.8243862 -8.83642578 23.12701416 C-8.77377878 20.52178006 -8.75444728 17.91896404 -8.74267578 15.31304932 C-8.72434676 13.66067589 -8.7035987 12.00832714 -8.68017578 10.35601807 C-8.67167603 9.57583313 -8.66317627 8.79564819 -8.65441895 7.99182129 C-8.46513084 0.88677128 -7.00399229 0.0555957 0 0 Z " fill="#FBB5E3" transform="translate(61.27392578125,1.72210693359375)"/>
<path d="M0 0 C1.31563683 0.00607269 1.31563683 0.00607269 2.65785217 0.01226807 C3.5579451 0.01035461 4.45803802 0.00844116 5.38540649 0.00646973 C7.29108459 0.00510734 9.19677194 0.0088075 11.10243225 0.01715088 C14.02150838 0.02783724 16.93996731 0.01726385 19.85902405 0.00445557 C21.70863478 0.0057774 23.55824514 0.00834028 25.40785217 0.01226807 C26.72045265 0.00619537 26.72045265 0.00619537 28.05957031 0 C28.87373917 0.00630432 29.68790802 0.01260864 30.52674866 0.019104 C31.24241501 0.02069519 31.95808136 0.02228638 32.69543457 0.02392578 C34.59925842 0.27789307 34.59925842 0.27789307 37.59925842 2.27789307 C37.90315978 5.36488104 38.01908339 8.24745234 37.99769592 11.33648682 C38.0005661 12.23657974 38.00343628 13.13667267 38.00639343 14.06404114 C38.00843701 15.96972278 38.00288665 17.87542525 37.9903717 19.78106689 C37.97434071 22.70040818 37.99020066 25.61836103 38.00941467 28.53765869 C38.00743193 30.38727113 38.0035876 32.2368827 37.99769592 34.08648682 C38.00680496 35.3990873 38.00680496 35.3990873 38.01609802 36.73820496 C38.00664154 37.55237381 37.99718506 38.36654266 37.98744202 39.2053833 C37.98505524 39.92104965 37.98266846 40.636716 37.98020935 41.37406921 C37.48160103 43.86589254 36.60856539 44.75896468 34.59925842 46.27789307 C31.46253967 46.57086182 31.46253967 46.57086182 27.91175842 46.46539307 C26.14252014 46.4247876 26.14252014 46.4247876 24.33753967 46.38336182 C23.43390686 46.34855713 22.53027405 46.31375244 21.59925842 46.27789307 C21.58991272 45.38481445 21.58056702 44.49173584 21.57093811 43.57159424 C21.52690538 40.25554144 21.46528982 36.94078367 21.39173889 33.62530518 C21.3635266 32.19085624 21.34231318 30.75625178 21.32826233 29.32159424 C21.30683394 27.25804005 21.26019375 25.196356 21.20863342 23.13336182 C21.18768616 21.89223633 21.16673889 20.65111084 21.14515686 19.37237549 C20.88027754 16.22512041 20.88027754 16.22512041 18.78773499 14.34161377 C15.4584912 12.72341708 13.10356727 13.36936855 9.59925842 14.27789307 C7.20977645 17.86211602 7.29692674 19.65021903 7.18519592 23.91461182 C7.12718811 25.86270752 7.12718811 25.86270752 7.06800842 27.85015869 C7.03655326 29.22189879 7.00530592 30.59364368 6.97425842 31.96539307 C6.93606646 33.34888091 6.897014 34.73234529 6.85707092 36.11578369 C6.76265325 39.50301757 6.67707724 42.89024375 6.59925842 46.27789307 C4.66244681 46.3589689 2.72466503 46.41711781 0.78675842 46.46539307 C-0.29218689 46.50019775 -1.3711322 46.53500244 -2.48277283 46.57086182 C-5.40074158 46.27789307 -5.40074158 46.27789307 -7.05984497 45.01411438 C-8.69487116 42.89704786 -8.77538701 41.85574414 -8.77305603 39.2053833 C-8.77928482 38.39121445 -8.78551361 37.57704559 -8.79193115 36.73820496 C-8.78272141 35.86313797 -8.77351166 34.98807098 -8.76402283 34.08648682 C-8.76452133 33.18543716 -8.76501984 32.28438751 -8.76553345 31.35603333 C-8.76319356 29.45211582 -8.75347003 27.54819518 -8.73692322 25.64434814 C-8.7133038 22.72308851 -8.71636614 19.80273969 -8.7230072 16.88140869 C-8.7174314 15.03309594 -8.71032214 13.18478704 -8.70152283 11.33648682 C-8.70243423 10.4593956 -8.70334564 9.58230438 -8.70428467 8.67863464 C-8.61574148 1.14507374 -7.53516512 0.05857352 0 0 Z " fill="#F2AFDB" transform="translate(111.40074157714844,1.72210693359375)"/>
<path d="M0 0 C0.70189453 0.01353516 1.40378906 0.02707031 2.12695312 0.04101562 C3.85579829 0.07629818 5.58424765 0.13010417 7.3125 0.1875 C7.33231934 1.14116455 7.35213867 2.0948291 7.37255859 3.07739258 C7.44865014 6.61672299 7.53736161 10.15564417 7.62988281 13.69458008 C7.66815798 15.22607339 7.70301349 16.75765615 7.734375 18.28930664 C7.78005807 20.4913733 7.83804537 22.69282496 7.8984375 24.89453125 C7.90998871 25.57900833 7.92153992 26.26348541 7.93344116 26.96870422 C8.04523744 30.57210837 8.25644553 32.1034183 10.3125 35.1875 C14.09289357 35.67755102 16.349543 35.88232439 19.50097656 33.60839844 C21.95652071 30.32683836 21.85509039 28.08948636 21.921875 24.015625 C21.93841125 23.3332074 21.95494751 22.65078979 21.97198486 21.94769287 C22.02039839 19.77753646 22.04181865 17.60808028 22.0625 15.4375 C22.09066562 13.96220448 22.12059389 12.48694149 22.15234375 11.01171875 C22.22615225 7.40379802 22.27576894 3.79601028 22.3125 0.1875 C23.7495809 0.13327053 25.18725462 0.09460277 26.625 0.0625 C27.42550781 0.03929688 28.22601563 0.01609375 29.05078125 -0.0078125 C31.3125 0.1875 31.3125 0.1875 34.3125 2.1875 C34.60390931 5.28618415 34.70821098 8.18175521 34.67578125 11.28125 C34.67652901 12.6349469 34.67652901 12.6349469 34.67729187 14.01599121 C34.67494919 15.925885 34.66520927 17.83578175 34.64868164 19.74560547 C34.6250947 22.67573536 34.62811839 25.60495562 34.63476562 28.53515625 C34.62918891 30.38802628 34.62207908 32.24089246 34.61328125 34.09375 C34.61464836 35.41409241 34.61464836 35.41409241 34.61604309 36.7611084 C34.54351647 42.95648353 34.54351647 42.95648353 32.3125 45.1875 C29.25071227 45.38764153 26.28130708 45.46721072 23.21875 45.453125 C21.8650531 45.45599518 21.8650531 45.45599518 20.48400879 45.45892334 C18.57413454 45.46028559 16.66425104 45.45658638 14.75439453 45.44824219 C11.8243335 45.43754321 8.89488562 45.44813611 5.96484375 45.4609375 C4.11197781 45.45961591 2.25911225 45.45705353 0.40625 45.453125 C-0.91409241 45.45919769 -0.91409241 45.45919769 -2.2611084 45.46539307 C-8.4575834 45.4174166 -8.4575834 45.4174166 -10.6875 43.1875 C-10.89986892 40.20961584 -10.99145649 37.32713953 -10.98828125 34.34765625 C-10.99256638 33.46975937 -10.9968515 32.59186249 -11.00126648 31.68736267 C-11.007015 29.82877465 -11.00750621 27.97016413 -11.00317383 26.11157227 C-11.00001636 23.26474668 -11.02345737 20.41896243 -11.04882812 17.57226562 C-11.05110128 15.76823048 -11.05180454 13.96419254 -11.05078125 12.16015625 C-11.059991 11.30696304 -11.06920074 10.45376984 -11.07868958 9.57472229 C-11.03219141 3.64637506 -11.03219141 3.64637506 -9.38761902 1.45701599 C-6.5744246 -0.64365771 -3.36028545 -0.12236334 0 0 Z " fill="#F2AFDC" transform="translate(11.6875,102.8125)"/>
<path d="M0 0 C1.31563683 0.00607269 1.31563683 0.00607269 2.65785217 0.01226807 C3.5579451 0.01035461 4.45803802 0.00844116 5.38540649 0.00646973 C7.29108459 0.00510734 9.19677194 0.0088075 11.10243225 0.01715088 C14.02150838 0.02783724 16.93996731 0.01726385 19.85902405 0.00445557 C21.70863478 0.0057774 23.55824514 0.00834028 25.40785217 0.01226807 C26.72045265 0.00619537 26.72045265 0.00619537 28.05957031 0 C28.87373917 0.00630432 29.68790802 0.01260864 30.52674866 0.019104 C31.24241501 0.02069519 31.95808136 0.02228638 32.69543457 0.02392578 C34.59925842 0.27789307 34.59925842 0.27789307 37.59925842 2.27789307 C37.93983459 5.16705322 37.93983459 5.16705322 37.89222717 8.81695557 C37.87772522 10.76988525 37.87772522 10.76988525 37.8629303 12.76226807 C37.8378623 14.1424823 37.81246744 15.52269063 37.78675842 16.90289307 C37.7717136 18.2908997 37.75802483 19.67892174 37.7457428 21.06695557 C37.71028413 24.47098816 37.66086141 27.87424929 37.59925842 31.27789307 C34.45134335 28.79997343 31.67688769 26.4104468 29.09925842 23.34039307 C26.38630669 20.16541025 23.59511257 17.18563386 20.59925842 14.27789307 C20.26925842 13.94789307 19.93925842 13.61789307 19.59925842 13.27789307 C16.72619615 12.77694284 16.72619615 12.77694284 13.59925842 13.27789307 C9.87855157 16.93429037 9.08743442 19.526609 8.98988342 24.67242432 C8.95765686 25.8744751 8.9254303 27.07652588 8.89222717 28.31500244 C8.87095764 30.1838208 8.87095764 30.1838208 8.84925842 32.09039307 C8.80478577 33.98821533 8.80478577 33.98821533 8.75941467 35.92437744 C8.68882066 39.04227982 8.63606932 42.15943881 8.59925842 45.27789307 C6.14063442 45.33173155 3.68318292 45.37148345 1.22425842 45.40289307 C0.52558655 45.41965088 -0.17308533 45.43640869 -0.89292908 45.45367432 C-2.72971644 45.47133573 -4.5667612 45.38092567 -6.40074158 45.27789307 C-9.09034341 42.58829123 -8.6503332 40.50681789 -8.67863464 36.85150146 C-8.67458618 35.97127319 -8.67053772 35.09104492 -8.66636658 34.18414307 C-8.66828003 33.28167847 -8.67019348 32.37921387 -8.67216492 31.44940186 C-8.67352717 29.5395276 -8.66982795 27.62964411 -8.66148376 25.7197876 C-8.65078479 22.78972657 -8.66137768 19.86027869 -8.67417908 16.93023682 C-8.67285749 15.07737087 -8.67029511 13.22450532 -8.66636658 11.37164307 C-8.67041504 10.49141479 -8.6744635 9.61118652 -8.67863464 8.70428467 C-8.62018387 1.15498408 -7.55410828 0.05872077 0 0 Z " fill="#F423AE" transform="translate(9.400741577148438,1.72210693359375)"/>
<path d="M0 0 C1.93719378 -0.05406122 3.87481921 -0.09282025 5.8125 -0.125 C6.89144531 -0.14820312 7.97039062 -0.17140625 9.08203125 -0.1953125 C12 0 12 0 15 2 C15.36076355 3.83499146 15.36076355 3.83499146 15.34057617 6.08251953 C15.34023628 7.34360031 15.34023628 7.34360031 15.33988953 8.63015747 C15.32440567 9.53853363 15.30892181 10.44690979 15.29296875 11.3828125 C15.28872391 12.31221649 15.28447906 13.24162048 15.28010559 14.19918823 C15.26328012 17.17475056 15.22562103 20.14964156 15.1875 23.125 C15.17245816 25.13931315 15.15876888 27.15363689 15.14648438 29.16796875 C15.11336394 34.11223879 15.06155529 39.05600549 15 44 C11.58101325 45.70949338 7.66838387 45.16321249 3.90625 45.16796875 C2.5525531 45.17296135 2.5525531 45.17296135 1.17150879 45.17805481 C-0.73835744 45.18312194 -2.64823253 45.1854632 -4.55810547 45.18530273 C-7.48810301 45.18749111 -10.41772528 45.20565418 -13.34765625 45.22460938 C-15.20051954 45.22754289 -17.05338463 45.22952797 -18.90625 45.23046875 C-20.22659241 45.24124702 -20.22659241 45.24124702 -21.5736084 45.25224304 C-27.77117452 45.22882548 -27.77117452 45.22882548 -30 43 C-30.22705078 40.38623047 -30.22705078 40.38623047 -30.1953125 37.1171875 C-30.18886719 35.95058594 -30.18242188 34.78398437 -30.17578125 33.58203125 C-30.15902344 32.35871094 -30.14226562 31.13539063 -30.125 29.875 C-30.11597656 28.64394531 -30.10695313 27.41289062 -30.09765625 26.14453125 C-30.07402548 23.09616185 -30.04108054 20.04817618 -30 17 C-26.47475363 19.86309862 -23.1092275 22.71727281 -20.19140625 26.2109375 C-19.75376953 26.73300781 -19.31613281 27.25507813 -18.86523438 27.79296875 C-17.98674833 28.85979588 -17.12233967 29.93835196 -16.27148438 31.02734375 C-14.41811694 33.19913114 -12.81157032 34.81791064 -9.97607422 35.45410156 C-7.123816 35.56753995 -4.74703352 35.4714341 -2.29199219 33.92211914 C-0.34523659 31.02589713 -0.51981198 28.08454679 -0.48828125 24.70703125 C-0.47033005 24.00100266 -0.45237885 23.29497406 -0.43388367 22.56755066 C-0.37976822 20.31592759 -0.34588278 18.06451657 -0.3125 15.8125 C-0.27932781 14.28447569 -0.24483823 12.75647937 -0.20898438 11.22851562 C-0.12404175 7.48583011 -0.05723752 3.74320759 0 0 Z " fill="#EF22AB" transform="translate(133,103)"/>
<path d="M0 0 C4.95 0 9.9 0 15 0 C15 14.85 15 29.7 15 45 C10.05 45 5.1 45 0 45 C-2.68960183 42.31039817 -2.24959163 40.22892482 -2.27789307 36.5736084 C-2.2738446 35.69338013 -2.26979614 34.81315186 -2.265625 33.90625 C-2.26753845 33.0037854 -2.2694519 32.1013208 -2.27142334 31.17150879 C-2.27278559 29.26163454 -2.26908638 27.35175104 -2.26074219 25.44189453 C-2.25004321 22.5118335 -2.26063611 19.58238562 -2.2734375 16.65234375 C-2.27211591 14.79947781 -2.26955353 12.94661225 -2.265625 11.09375 C-2.26967346 10.21352173 -2.27372192 9.33329346 -2.27789307 8.4263916 C-2.2299166 2.2299166 -2.2299166 2.2299166 0 0 Z " fill="#F6B2DF" transform="translate(3,53)"/>
<path d="M0 0 C4.29 0 8.58 0 13 0 C15.68960183 2.68960183 15.24959163 4.77107518 15.27789307 8.4263916 C15.2738446 9.30661987 15.26979614 10.18684814 15.265625 11.09375 C15.26753845 11.9962146 15.2694519 12.8986792 15.27142334 13.82849121 C15.27278559 15.73836546 15.26908638 17.64824896 15.26074219 19.55810547 C15.25004321 22.4881665 15.26063611 25.41761438 15.2734375 28.34765625 C15.27211591 30.20052219 15.26955353 32.05338775 15.265625 33.90625 C15.26967346 34.78647827 15.27372192 35.66670654 15.27789307 36.5736084 C15.2299166 42.7700834 15.2299166 42.7700834 13 45 C8.71 45 4.42 45 0 45 C0 30.15 0 15.3 0 0 Z " fill="#F4B0DD" transform="translate(133,53)"/>
<path d="M0 0 C4.29 0 8.58 0 13 0 C13 14.85 13 29.7 13 45 C8.71 45 4.42 45 0 45 C-2.63804353 41.04293471 -2.28741295 37.6190457 -2.265625 33.02734375 C-2.26753845 32.14849014 -2.2694519 31.26963654 -2.27142334 30.364151 C-2.27278385 28.50733148 -2.26909675 26.6505024 -2.26074219 24.79370117 C-2.25002796 21.94493365 -2.26064851 19.09679492 -2.2734375 16.24804688 C-2.27211613 14.4453111 -2.26955421 12.64257572 -2.265625 10.83984375 C-2.26967346 9.98462631 -2.27372192 9.12940887 -2.27789307 8.24827576 C-2.22992618 2.22992618 -2.22992618 2.22992618 0 0 Z " fill="#F5B1DD" transform="translate(105,53)"/>
<path d="M0 0 C4.2358357 -0.02469321 8.47163342 -0.04285671 12.70751953 -0.05493164 C14.1489332 -0.05996474 15.59034176 -0.06679173 17.03173828 -0.07543945 C19.10190085 -0.08754983 21.17199601 -0.09323847 23.2421875 -0.09765625 C24.4885498 -0.10289307 25.73491211 -0.10812988 27.01904297 -0.11352539 C30 0 30 0 32 1 C32 12.55 32 24.1 32 36 C26.36054422 30.36054422 26.36054422 30.36054422 23.6953125 27.51171875 C23.11523438 26.89176025 22.53515625 26.27180176 21.9375 25.63305664 C7.73280613 10.38558824 7.73280613 10.38558824 2.8125 3.77734375 C2.28269531 3.06698975 1.75289063 2.35663574 1.20703125 1.62475586 C0.80871094 1.08858643 0.41039063 0.55241699 0 0 Z " fill="#F9B3E1" transform="translate(65,53)"/>
<path d="M0 0 C4.49763959 3.7179393 8.5915302 7.54119672 12.5 11.875 C12.97211914 12.39674805 13.44423828 12.91849609 13.93066406 13.45605469 C17.10936889 16.97805094 20.25780477 20.52656871 23.36328125 24.11328125 C24.56037068 25.49321967 25.76754154 26.86443041 26.98046875 28.23046875 C27.62628906 28.95878906 28.27210937 29.68710938 28.9375 30.4375 C29.52402344 31.09621094 30.11054687 31.75492188 30.71484375 32.43359375 C32 34 32 34 32 35 C27.76417673 35.04938628 23.52850535 35.08571263 19.29248047 35.10986328 C17.85104453 35.11992963 16.40962905 35.1335838 14.96826172 35.15087891 C12.89806066 35.17510012 10.82812924 35.18647641 8.7578125 35.1953125 C6.88826904 35.21102295 6.88826904 35.21102295 4.98095703 35.22705078 C2 35 2 35 0 33 C-0.17495606 30.49079154 -0.23169569 28.09375059 -0.1953125 25.5859375 C-0.1924826 24.85629791 -0.18965271 24.12665833 -0.18673706 23.37490845 C-0.17553002 21.04143972 -0.1504251 18.70835297 -0.125 16.375 C-0.11497085 14.79427637 -0.10584489 13.21354673 -0.09765625 11.6328125 C-0.07558905 7.75506086 -0.04105615 3.87759522 0 0 Z " fill="#F6B1DE" transform="translate(52,63)"/>
<path d="M0 0 C3.3 0 6.6 0 10 0 C12.68960183 2.68960183 12.24959163 4.77107518 12.27789307 8.4263916 C12.2738446 9.30661987 12.26979614 10.18684814 12.265625 11.09375 C12.26753845 11.9962146 12.2694519 12.8986792 12.27142334 13.82849121 C12.27278559 15.73836546 12.26908638 17.64824896 12.26074219 19.55810547 C12.25004321 22.4881665 12.26063611 25.41761438 12.2734375 28.34765625 C12.27211591 30.20052219 12.26955353 32.05338775 12.265625 33.90625 C12.26967346 34.78647827 12.27372192 35.66670654 12.27789307 36.5736084 C12.2299166 42.7700834 12.2299166 42.7700834 10 45 C6.7 45 3.4 45 0 45 C0 30.15 0 15.3 0 0 Z " fill="#F7B3E0" transform="translate(34,53)"/>
<path d="M0 0 C0 32.01 0 64.02 0 97 C-0.99 96.505 -0.99 96.505 -2 96 C-2.02505615 94.7632251 -2.0501123 93.5264502 -2.07592773 92.25219727 C-2.16982253 87.68063287 -2.27008629 83.10922682 -2.37231445 78.5378418 C-2.41573144 76.55610854 -2.45740137 74.57433622 -2.49731445 72.5925293 C-2.55485383 69.7503683 -2.61859445 66.90840517 -2.68359375 64.06640625 C-2.70030624 63.17474258 -2.71701874 62.28307892 -2.73423767 61.36439514 C-2.436587 57.36051605 -2.436587 57.36051605 -4 54 C-6.18292774 53.76518307 -8.37203174 53.58636677 -10.5625 53.4375 C-11.76003906 53.35371094 -12.95757812 53.26992188 -14.19140625 53.18359375 C-15.58166016 53.09271484 -15.58166016 53.09271484 -17 53 C-17 52.67 -17 52.34 -17 52 C-12.71 52 -8.42 52 -4 52 C-4 51.34 -4 50.68 -4 50 C-7.96 50 -11.92 50 -16 50 C-16 49.67 -16 49.34 -16 49 C-15.15695313 48.96261719 -14.31390625 48.92523438 -13.4453125 48.88671875 C-11.80175781 48.78810547 -11.80175781 48.78810547 -10.125 48.6875 C-9.03445312 48.62949219 -7.94390625 48.57148437 -6.8203125 48.51171875 C-5.42425781 48.25841797 -5.42425781 48.25841797 -4 48 C-1.9774466 44.9661699 -1.74422913 44.31241136 -1.68115234 40.89575195 C-1.66128265 40.07512772 -1.64141296 39.25450348 -1.62094116 38.40901184 C-1.60938995 37.52767075 -1.59783875 36.64632965 -1.5859375 35.73828125 C-1.56657135 34.83248825 -1.5472052 33.92669525 -1.5272522 32.99345398 C-1.46746458 30.09989849 -1.42107432 27.2063032 -1.375 24.3125 C-1.33681946 22.35089409 -1.29776769 20.38930494 -1.2578125 18.42773438 C-1.16176368 13.6186256 -1.07772957 8.80943834 -1 4 C-3.65696758 3.11434414 -5.28190083 2.8549738 -8.01245117 2.79467773 C-8.81305466 2.77473251 -9.61365814 2.75478729 -10.43852234 2.73423767 C-11.29798965 2.71752518 -12.15745697 2.70081268 -13.04296875 2.68359375 C-13.9265657 2.66281265 -14.81016266 2.64203156 -15.72053528 2.62062073 C-18.54277785 2.55524246 -21.36511335 2.49629472 -24.1875 2.4375 C-26.10092106 2.39430363 -28.01433273 2.35068898 -29.92773438 2.30664062 C-34.61839437 2.19957305 -39.30914783 2.09827248 -44 2 C-44 1.67 -44 1.34 -44 1 C-38.37664368 0.85694303 -32.75327121 0.71454432 -27.12988281 0.57275391 C-25.21711782 0.5244321 -23.30435735 0.47593086 -21.39160156 0.42724609 C-18.64128777 0.35727446 -15.89095832 0.28794946 -13.140625 0.21875 C-12.28631897 0.19687622 -11.43201294 0.17500244 -10.55181885 0.15246582 C-9.75129089 0.13244507 -8.95076294 0.11242432 -8.12597656 0.09179688 C-7.42426331 0.07403198 -6.72255005 0.05626709 -5.99957275 0.03796387 C-4.00003548 0.00000067 -1.99989762 0 0 0 Z " fill="#231920" transform="translate(150,0)"/>
<path d="M0 0 C0.33 0 0.66 0 1 0 C1.02505615 1.20648193 1.0501123 2.41296387 1.07592773 3.65600586 C1.16982523 8.11575661 1.27008833 12.57534513 1.37231445 17.03491211 C1.41573041 18.96814185 1.45740042 20.90141159 1.49731445 22.8347168 C1.55485631 25.60738202 1.6185962 28.37984457 1.68359375 31.15234375 C1.70030624 32.02213364 1.71701874 32.89192352 1.73423767 33.78807068 C1.45026213 37.71115966 1.45026213 37.71115966 3 41 C6.00639303 41.10116109 8.98933297 41.13968674 11.99609375 41.1328125 C12.8999733 41.13376923 13.80385284 41.13472595 14.73512268 41.13571167 C16.65097116 41.1363936 18.56682194 41.13453841 20.48266602 41.13037109 C23.42143942 41.12502919 26.36005955 41.13031245 29.29882812 41.13671875 C31.15625034 41.13605785 33.01367246 41.13477644 34.87109375 41.1328125 C36.19614174 41.13584885 36.19614174 41.13584885 37.54795837 41.13894653 C41.9106347 41.25842746 41.9106347 41.25842746 46 40 C46 41.32 46 42.64 46 44 C30.82 44 15.64 44 0 44 C0 29.48 0 14.96 0 0 Z " fill="#251B22" transform="translate(0,106)"/>
<path d="M0 0 C0.66 0 1.32 0 2 0 C2 14.85 2 29.7 2 45 C-19.78 44.505 -19.78 44.505 -42 44 C-42 43.67 -42 43.34 -42 43 C-28.14 42.67 -14.28 42.34 0 42 C0 28.14 0 14.28 0 0 Z " fill="#340725" transform="translate(148,105)"/>
<path d="M0 0 C12.87 0 25.74 0 39 0 C38.67 1.32 38.34 2.64 38 4 C26.45 4 14.9 4 3 4 C3 3.34 3 2.68 3 2 C2.01 2 1.02 2 0 2 C0 1.34 0 0.68 0 0 Z " fill="#3E2C37" transform="translate(58,46)"/>
<path d="M0 0 C1.72447904 0.00031742 3.44897767 0.01165954 5.17333984 0.03173828 C6.53415176 0.03598312 6.53415176 0.03598312 7.92245483 0.04031372 C10.82652857 0.05152926 13.73029646 0.07663615 16.63427734 0.10205078 C18.60041873 0.11207881 20.56656494 0.12120497 22.53271484 0.12939453 C27.35835393 0.15147306 32.18376374 0.18601213 37.00927734 0.22705078 C37.00927734 0.55705078 37.00927734 0.88705078 37.00927734 1.22705078 C35.8383252 1.24687012 34.66737305 1.26668945 33.4609375 1.28710938 C29.1259166 1.36305159 24.79123639 1.45178598 20.45654297 1.54443359 C18.57868159 1.58277056 16.70074558 1.61761505 14.82275391 1.64892578 C12.12684413 1.69447442 9.43145022 1.75248453 6.73583984 1.81298828 C5.47170761 1.83031509 5.47170761 1.83031509 4.18203735 1.84799194 C-0.38093223 1.76898259 -0.38093223 1.76898259 -3.99072266 4.22705078 C-4.23666355 7.16365288 -4.36447518 10.01267191 -4.40478516 12.95361328 C-4.42415131 13.81642914 -4.44351746 14.679245 -4.46347046 15.56820679 C-4.5233447 18.32938694 -4.56968263 21.09060862 -4.61572266 23.85205078 C-4.65389525 25.72186083 -4.69294655 27.59165316 -4.73291016 29.46142578 C-4.82905257 34.04982387 -4.91305432 38.63830429 -4.99072266 43.22705078 C-5.32072266 43.22705078 -5.65072266 43.22705078 -5.99072266 43.22705078 C-6.04006922 37.42465464 -6.07641668 31.62237997 -6.10058594 25.81982422 C-6.11065893 23.84486769 -6.12431787 21.86992612 -6.14160156 19.89501953 C-6.16579305 17.0603466 -6.17719257 14.22587041 -6.18603516 11.39111328 C-6.19635773 10.5046109 -6.2066803 9.61810852 -6.21731567 8.70474243 C-6.21771336 6.54419127 -6.113448 4.3841136 -5.99072266 2.22705078 C-3.99072266 0.22705078 -3.99072266 0.22705078 0 0 Z " fill="#B61B87" transform="translate(6.99072265625,1.77294921875)"/>
<path d="M0 0 C14.52 0 29.04 0 44 0 C44 0.33 44 0.66 44 1 C42.21384277 1.01401855 42.21384277 1.01401855 40.39160156 1.02832031 C35.97064908 1.06821387 31.55039297 1.13397073 27.12988281 1.20751953 C25.21721344 1.23573286 23.3044274 1.25694561 21.39160156 1.27099609 C18.64066827 1.29242081 15.89113825 1.3390674 13.140625 1.390625 C12.28631897 1.39185364 11.43201294 1.39308228 10.55181885 1.39434814 C5.59788718 1.49102784 5.59788718 1.49102784 1.42871094 4.03808594 C0.95723633 4.68551758 0.48576172 5.33294922 0 6 C0 4.02 0 2.04 0 0 Z " fill="#010001" transform="translate(0,0)"/>
<path d="M0 0 C2.64 0 5.28 0 8 0 C8 2.97 8 5.94 8 9 C1.125 3.375 1.125 3.375 0 0 Z " fill="#D31E98" transform="translate(110,103)"/>
<path d="M0 0 C-1.875 3.875 -1.875 3.875 -3 5 C-3.1584265 7.0708472 -3.25124422 9.14678029 -3.31640625 11.22265625 C-3.35830078 12.48271484 -3.40019531 13.74277344 -3.44335938 15.04101562 C-3.48317596 16.38150736 -3.52288814 17.7220022 -3.5625 19.0625 C-3.60568042 20.40691523 -3.64929456 21.7513166 -3.69335938 23.09570312 C-3.79985358 26.3970234 -3.9018646 29.69842236 -4 33 C-4.33 33 -4.66 33 -5 33 C-5.07431978 28.94328317 -5.12868133 24.88683154 -5.16479492 20.82958984 C-5.17985422 19.45028782 -5.20030613 18.07103347 -5.22631836 16.69189453 C-5.26282415 14.70626597 -5.27814853 12.72028382 -5.29296875 10.734375 C-5.3086792 9.54038086 -5.32438965 8.34638672 -5.34057617 7.11621094 C-4.94993595 3.54192291 -4.12268851 0 0 0 Z " fill="#241A20" transform="translate(123,15)"/>
<path d="M0 0 C2.99693138 0.99897713 4.02709413 1.65130253 6 4 C6 4.66 6 5.32 6 6 C4.02 6 2.04 6 0 6 C0 4.02 0 2.04 0 0 Z " fill="#8C1467" transform="translate(33,42)"/>
</svg>
