<?xml version="1.0" encoding="UTF-8"?>
<svg version="1.1" xmlns="http://www.w3.org/2000/svg" width="512" height="512">
<path d="M0 0 C1.64382093 -0.00935994 1.64382093 -0.00935994 3.32085037 -0.01890898 C6.97030804 -0.03478494 10.6190928 -0.02225526 14.26855469 -0.00964355 C16.89416898 -0.01506704 19.51978023 -0.02219096 22.14538574 -0.03088379 C28.52291344 -0.04862026 34.90025227 -0.04485091 41.27778721 -0.03323323 C46.46340541 -0.0241799 51.64897088 -0.02298309 56.83459473 -0.02732849 C57.57414941 -0.02794142 58.31370409 -0.02855436 59.07566953 -0.02918586 C60.57831289 -0.03046483 62.08095624 -0.03176169 63.58359957 -0.03307623 C77.65614604 -0.04446775 91.72858808 -0.0313908 105.80111742 -0.00987476 C117.86193003 0.00799495 129.92258861 0.00489044 141.98339844 -0.0135498 C156.0074301 -0.03498182 170.03137036 -0.04336924 184.05541611 -0.03110075 C185.55236561 -0.02982663 187.04931512 -0.02856914 188.54626465 -0.02732849 C189.65090148 -0.02640284 189.65090148 -0.02640284 190.7778542 -0.02545848 C195.95401669 -0.02201256 201.13012095 -0.02781753 206.30627441 -0.0372467 C213.27985738 -0.04967159 220.25314536 -0.04075765 227.22669983 -0.01766968 C229.783244 -0.01238887 232.33981268 -0.01388554 234.89634705 -0.02272034 C238.39151235 -0.03368356 241.88575267 -0.0199012 245.38085938 0 C246.38768391 -0.00892289 247.39450844 -0.01784577 248.4318428 -0.02703905 C258.48050796 0.08361041 267.4051612 3.45767474 274.69042969 10.50793457 C282.03380525 19.33330656 284.14607986 28.29681494 284.07810974 39.57662964 C284.08618805 41.1997346 284.08618805 41.1997346 284.09442955 42.85562956 C284.10868277 46.46429514 284.10161169 50.07259253 284.09448242 53.68127441 C284.10018736 56.27556146 284.10715209 58.869846 284.11528015 61.46412659 C284.132436 67.76923506 284.13331483 74.07424374 284.12806725 80.37936948 C284.12401813 85.50683586 284.12547789 90.63427284 284.13081551 95.76173782 C284.13156393 96.49281319 284.13231235 97.22388856 284.13308345 97.97711772 C284.134615 99.46252588 284.13615335 100.94793403 284.13769842 102.43334217 C284.15141195 116.34899541 284.14599396 130.26459235 284.13451321 144.18024428 C284.1245831 156.8951877 284.13751966 169.60998555 284.1614474 182.32490651 C284.18586344 195.39837315 284.19544006 208.47177206 284.18879467 221.54526103 C284.18530787 228.87790767 284.18749873 236.21044241 284.2050457 243.54307175 C284.22134486 250.43948034 284.2165471 257.335607 284.19774055 264.23200798 C284.1940576 266.7591096 284.19715449 269.28623183 284.20762634 271.81331444 C284.22085738 275.27095208 284.20926866 278.72767341 284.19163513 282.18527222 C284.20124014 283.17819318 284.21084514 284.17111415 284.22074121 285.19412363 C284.10604143 296.17350421 280.67003387 304.48186796 273.05761719 312.34387207 C264.45263712 320.21047101 256.18314052 321.81028986 244.81755066 321.77536011 C243.18982529 321.78215678 243.18982529 321.78215678 241.52921659 321.78909075 C237.89825913 321.80173651 234.26745163 321.80011424 230.63647461 321.79846191 C228.03100899 321.80444702 225.42554514 321.81125253 222.82008362 321.81881714 C216.48029997 321.8354029 210.14055352 321.84092558 203.80074998 321.84204189 C198.64558142 321.84299348 193.49042508 321.84710931 188.33526039 321.85344315 C173.70748529 321.87104865 159.0797395 321.88028305 144.45195373 321.8787822 C143.66399796 321.87870229 142.8760422 321.87862237 142.06420898 321.87854004 C140.88082611 321.8784174 140.88082611 321.8784174 139.67353652 321.87829228 C126.88989722 321.87747949 114.10637577 321.89661714 101.32277056 321.92481677 C88.1849681 321.95356822 75.04722307 321.96735584 61.90938836 321.96562922 C54.53817122 321.96496612 47.16707764 321.97042342 39.7958889 321.99198532 C32.8625876 322.01213699 25.92955104 322.01150034 18.9962368 321.99695206 C16.45419941 321.99486138 13.91214575 321.99958018 11.37013626 322.01167297 C7.89453821 322.02713382 4.41983867 322.01781052 0.94425964 322.00241089 C-0.05682935 322.01269801 -1.05791834 322.02298514 -2.08934337 322.033584 C-12.00260485 321.93681009 -20.64715884 318.62441848 -28.05175781 311.93371582 C-40.35656273 299.33845414 -39.02382612 283.43347944 -38.94067383 267.06408691 C-38.94581783 264.48891203 -38.95310271 261.91374067 -38.96235657 259.33857727 C-38.98064665 253.09543179 -38.97227969 246.8526012 -38.95426834 240.60946582 C-38.9401921 235.53261689 -38.93636027 230.45585293 -38.93971062 225.37898636 C-38.94018806 224.65400367 -38.9406655 223.92902099 -38.94115741 223.18206913 C-38.94218383 221.7089011 -38.94323919 220.23573308 -38.94432317 218.76256509 C-38.95287244 205.76356308 -38.93627173 192.76471228 -38.90649414 179.76574707 C-38.8776491 167.17356011 -38.87058113 154.58159084 -38.88598633 141.98937988 C-38.90277274 128.24950674 -38.90675879 114.50973673 -38.88927597 100.76986086 C-38.88743173 99.302991 -38.885597 97.83612113 -38.8837719 96.36925125 C-38.88285981 95.64767292 -38.88194772 94.9260946 -38.88100799 94.18265026 C-38.87541866 89.11513055 -38.87869464 84.04766145 -38.88531685 78.9801445 C-38.89388559 72.15260171 -38.88080835 65.32537665 -38.85346794 58.49788475 C-38.84659798 55.99658956 -38.84647115 53.4952651 -38.85368347 50.99397087 C-38.86241272 47.57155263 -38.84636204 44.15009123 -38.82423401 40.72775269 C-38.83247478 39.7453421 -38.84071554 38.76293151 -38.84920603 37.7507509 C-38.71205268 26.20489521 -34.57024158 17.13778547 -26.71972656 8.82434082 C-19.05998298 1.59714746 -10.21955935 -0.09056987 0 0 Z " fill="#820559" transform="translate(54.3095703125,146.4920654296875)"/>
<path d="M0 0 C6.05609251 4.50685954 7.73406918 10.86767356 9 18 C9.08667665 19.53759495 9.12895638 21.07820437 9.13142776 22.61823845 C9.13526891 23.52114266 9.13911005 24.42404688 9.1430676 25.35431182 C9.14220112 26.33727143 9.14133463 27.32023103 9.14044189 28.33297729 C9.14341302 29.38430599 9.14638414 30.43563469 9.1494453 31.51882184 C9.15812823 35.04754941 9.15964023 38.57624305 9.16113281 42.10498047 C9.16576142 44.63307264 9.17078613 47.16116411 9.17617798 49.68925476 C9.18930333 56.56371381 9.19578468 63.43816169 9.20018864 70.31263113 C9.20295466 74.61023805 9.2071928 78.90784274 9.21169281 83.20544815 C9.22388639 95.11752875 9.23418382 107.02960756 9.2375679 118.94169426 C9.23789725 120.08493768 9.23789725 120.08493768 9.23823325 121.25127692 C9.23845153 122.01521606 9.23866981 122.7791552 9.2388947 123.56624401 C9.23933816 125.11414965 9.23978472 126.66205529 9.24023438 128.20996094 C9.24056652 129.36167153 9.24056652 129.36167153 9.24090537 130.536649 C9.24484737 142.95812196 9.26228268 155.37953603 9.2855939 167.80098628 C9.30936539 180.57148947 9.32177247 193.34196321 9.32293582 206.11248887 C9.32384961 213.27540234 9.32952644 220.43823919 9.34775543 227.60113144 C9.3648616 234.34642872 9.36636588 241.09155652 9.35761642 247.83687782 C9.35684878 250.30424832 9.36115254 252.77162677 9.37107468 255.23897743 C9.44512591 274.81139823 9.4902557 296.84116107 -5 312 C-8.53300227 314.63170027 -12.29060358 316.77645221 -16.125 318.9375 C-17.80641075 319.91494104 -19.48779349 320.89243283 -21.1678009 321.87228394 C-22.33680132 322.55289982 -23.50705798 323.23136227 -24.67851257 323.90774536 C-30.45752093 327.24491711 -36.15254093 330.71542431 -41.84423828 334.19918823 C-52.71737127 340.84870848 -63.65864938 347.38065214 -74.625 353.875 C-87.34820273 361.40919252 -87.34820273 361.40919252 -100 369.0625 C-100.68562012 369.48112305 -101.37124023 369.89974609 -102.07763672 370.33105469 C-105.55249015 372.46329328 -108.99746711 374.63524949 -112.421875 376.84765625 C-113.14890625 377.31357178 -113.8759375 377.7794873 -114.625 378.25952148 C-115.99019231 379.1367642 -117.35008918 380.02233405 -118.703125 380.91821289 C-122.46214954 383.33081775 -125.52748334 384.68053452 -130 385 C-133.12993088 384.17148889 -134.06512272 382.91955429 -136.125 380.375 C-140.12911214 373.16759816 -140.29244364 366.13768049 -140.26742554 358.08520508 C-140.27195665 357.00751736 -140.27648776 355.92982964 -140.28115618 354.81948471 C-140.29378493 351.21945625 -140.29218075 347.61957937 -140.29052734 344.01953125 C-140.29651368 341.43350531 -140.30331947 338.84748116 -140.31088257 336.26145935 C-140.32746011 329.97126837 -140.33299071 323.68111489 -140.33410732 317.39090389 C-140.3350597 312.2725194 -140.33917948 307.1541472 -140.34550858 302.0357666 C-140.3631151 287.49963112 -140.37234881 272.96352511 -140.37084763 258.42737889 C-140.37076772 257.64455187 -140.3706878 256.86172484 -140.37060547 256.05517578 C-140.37052371 255.27138385 -140.37044195 254.48759191 -140.37035771 253.6800487 C-140.36954583 240.99429051 -140.38866031 228.30865134 -140.4168822 215.62292755 C-140.44568281 202.57320537 -140.45941844 189.52354109 -140.45769465 176.47378635 C-140.45703304 169.15716588 -140.46242397 161.84067006 -140.48405075 154.52407837 C-140.50428171 147.63588744 -140.5035158 140.74796263 -140.48901749 133.85975838 C-140.4869356 131.34120358 -140.49159297 128.82263213 -140.5037384 126.30410576 C-140.67846458 87.53982815 -140.67846458 87.53982815 -128.71972656 74.61645508 C-123.54361608 69.83298725 -117.36799573 66.5033096 -111.28231812 63.02740479 C-108.00589949 61.15515059 -104.74379597 59.25823188 -101.48046875 57.36328125 C-100.8305043 56.98653259 -100.18053986 56.60978394 -99.51087952 56.22161865 C-94.17408558 53.12073465 -88.91547764 49.90610193 -83.6875 46.625 C-74.81179809 41.06645265 -65.82512287 35.70726539 -56.8125 30.375 C-46.78848492 24.44388755 -36.79286871 18.47621653 -26.87109375 12.375 C-22.76303626 9.84889491 -18.63465668 7.3572804 -14.5 4.875 C-13.55435181 4.30628174 -13.55435181 4.30628174 -12.58959961 3.72607422 C-5.32715045 -0.62672358 -5.32715045 -0.62672358 0 0 Z " fill="#A29F8E" transform="translate(488,60)"/>
<path d="M0 0 C2.55989477 -0.00543373 5.11978641 -0.01256334 7.67967224 -0.02124023 C13.85418325 -0.0374498 20.02843788 -0.03526922 26.20295164 -0.02358967 C31.22241189 -0.01449357 36.24181771 -0.01335772 41.26128387 -0.01768494 C41.98020936 -0.01829787 42.69913485 -0.0189108 43.43984596 -0.01954231 C44.90093918 -0.02082138 46.36203238 -0.02211824 47.82312557 -0.02343267 C61.45647342 -0.03478311 75.08971287 -0.02180724 88.72304294 -0.00023121 C100.4031437 0.01768085 112.0830856 0.01449126 123.76318359 -0.00390625 C137.37197692 -0.02533202 150.98067614 -0.03373312 164.58948398 -0.0214572 C166.04102753 -0.02018313 167.4925711 -0.01892565 168.94411469 -0.01768494 C170.01507213 -0.01675928 170.01507213 -0.01675928 171.10766508 -0.01581493 C176.1231228 -0.01237057 181.1385204 -0.01816959 186.15396881 -0.02760315 C192.90117249 -0.0400172 199.64802983 -0.0311311 206.3952198 -0.00802612 C208.86834019 -0.00274294 211.34148591 -0.00424606 213.81459618 -0.01307678 C217.19348951 -0.02402915 220.57142389 -0.01027161 223.95025635 0.00964355 C224.92525377 0.00072067 225.90025118 -0.00820222 226.90479398 -0.0173955 C233.19176943 0.05434377 238.40165806 1.14583517 243.79980469 4.51757812 C244.12980469 5.17757812 244.45980469 5.83757813 244.79980469 6.51757812 C243.73173584 7.16436523 243.73173584 7.16436523 242.64208984 7.82421875 C229.6701581 15.68247518 216.70842218 23.55559881 203.79980469 31.51757812 C191.3464086 39.19673023 178.84445336 46.79411403 166.33203125 54.37646484 C161.64972458 57.21420197 156.96992943 60.05607187 152.2902832 62.89819336 C149.97621214 64.30355315 147.66156793 65.70796157 145.34643555 67.11157227 C139.89455649 70.41778284 134.44685542 73.73039315 129.01168823 77.06402588 C126.45413031 78.63218754 123.89450504 80.19695697 121.3347168 81.76147461 C120.1191618 82.5057149 118.90461337 83.25160215 117.69116211 83.99926758 C116.00470477 85.03823101 114.31442831 86.07098731 112.62402344 87.10351562 C111.18675903 87.98595947 111.18675903 87.98595947 109.72045898 88.88623047 C93.12421233 98.15615608 73.35833803 96.95572103 54.91845703 96.90576172 C52.3687111 96.90983569 49.81896695 96.91518217 47.26922607 96.92169189 C41.11185701 96.93386318 34.95463242 96.9322056 28.79726176 96.92345397 C23.79158604 96.91663749 18.78594104 96.91577766 13.78026199 96.91902542 C13.06384089 96.91948512 12.34741978 96.91994482 11.60928894 96.92041845 C10.15334966 96.92137774 8.69741039 96.92235038 7.24147113 96.92333622 C-6.35226741 96.93185429 -19.94594486 96.92210939 -33.53967337 96.90593512 C-45.18679832 96.89250632 -56.83383365 96.89488802 -68.48095703 96.90869141 C-82.04650862 96.92476112 -95.61200711 96.93106084 -109.17756689 96.92185462 C-110.62464801 96.92089906 -112.07172914 96.91995595 -113.51881027 96.91902542 C-114.58650651 96.91833118 -114.58650651 96.91833118 -115.67577238 96.91762292 C-120.67666959 96.91503935 -125.67753288 96.91938971 -130.67842484 96.92646408 C-137.40749261 96.93577538 -144.13636506 96.92910868 -150.86542511 96.91178131 C-153.33209578 96.90781897 -155.79878074 96.90894617 -158.26544571 96.91556931 C-161.63553971 96.9237836 -165.00509292 96.91346435 -168.37515259 96.89852905 C-169.3476233 96.90522122 -170.32009401 96.91191338 -171.32203352 96.91880834 C-177.2407481 96.86803052 -182.87634698 96.31107995 -188.20019531 93.51757812 C-188.86019531 92.52757812 -189.52019531 91.53757812 -190.20019531 90.51757812 C-186.67584606 85.08628636 -181.75546176 82.62033332 -176.26269531 79.51757812 C-174.25507909 78.35803226 -172.24859398 77.19652611 -170.24316406 76.03320312 C-169.22786621 75.44603516 -168.21256836 74.85886719 -167.16650391 74.25390625 C-162.7531003 71.67052135 -158.41200647 68.9769726 -154.07519531 66.26757812 C-145.85870367 61.14922358 -137.60326298 56.09795894 -129.32519531 51.08007812 C-128.43155777 50.53829422 -128.43155777 50.53829422 -127.51986694 49.98556519 C-125.13150872 48.53766015 -122.743063 47.08989973 -120.35441589 45.64247131 C-114.69437417 42.21233821 -109.04032826 38.77240229 -103.38769531 35.33007812 C-102.46786865 34.77006104 -101.54804199 34.21004395 -100.6003418 33.63305664 C-95.73733933 30.67213115 -90.87493956 27.71021724 -86.01269531 24.74804688 C-84.98764893 24.12373779 -83.96260254 23.49942871 -82.90649414 22.85620117 C-80.96605209 21.67435976 -79.0257716 20.49225301 -77.08569336 19.30981445 C-75.32151583 18.2354026 -73.55640709 17.16251801 -71.7902832 16.09130859 C-70.02315625 15.01760699 -68.25945341 13.93825455 -66.4987793 12.85400391 C-65.62938721 12.32274902 -64.75999512 11.79149414 -63.86425781 11.24414062 C-63.0942041 10.77057129 -62.32415039 10.29700195 -61.53076172 9.80908203 C-43.3184149 -0.28345041 -20.15636669 -0.07275154 0 0 Z " fill="#489784" transform="translate(236.2001953125,41.482421875)"/>
<path d="M0 0 C3.19446085 2.82765502 6.28239698 5.70532572 9 9 C9 9.66 9 10.32 9 11 C9.66 11 10.32 11 11 11 C24.54928609 29.1947556 27.29920142 53.62812828 27.30639648 75.57080078 C27.31404061 77.0737498 27.32247185 78.57669499 27.33161926 80.07963562 C27.35331902 84.11407837 27.36232679 88.14844554 27.36744571 92.18294001 C27.37111134 94.70742701 27.37736184 97.23189478 27.3844471 99.75637436 C27.40883277 108.57261767 27.42197481 117.38880282 27.42553711 126.20507812 C27.42918876 134.41358983 27.45922758 142.62173147 27.50094169 150.83012974 C27.53559295 157.89709569 27.55108446 164.96393822 27.55178314 172.03098857 C27.55257615 176.24415431 27.56132995 180.45693967 27.58978081 184.67001724 C27.61588111 188.62164746 27.61821258 192.57257896 27.60212517 196.52425575 C27.60030564 197.9739045 27.60704688 199.42359287 27.62294388 200.87315559 C27.64330804 202.85024009 27.6298994 204.82758683 27.61473083 206.80471802 C27.61674216 207.911122 27.61875349 209.01752598 27.62082577 210.15745735 C27 213 27 213 24.69375706 215.34472466 C21.20063024 217.49120133 18.05982087 217.75451178 14.0625 217.875 C13.3204834 217.9061792 12.5784668 217.9373584 11.81396484 217.96948242 C4.89144176 218.16830355 -2.35538181 218.07997255 -9 216 C-12.06731958 212.85261712 -12.37555151 210.51956565 -12.37854004 206.20454407 C-12.38674271 205.0203891 -12.39494537 203.83623413 -12.40339661 202.61619568 C-12.39724838 201.32012894 -12.39110016 200.02406219 -12.38476562 198.6887207 C-12.38887203 197.30685987 -12.39433332 195.92500249 -12.40104675 194.54315186 C-12.41277474 191.56660322 -12.41525466 188.59024004 -12.41069031 185.61367226 C-12.40386721 180.89129361 -12.41977696 176.16915723 -12.43908691 171.44682312 C-12.47695982 161.40206189 -12.48971567 151.35732162 -12.5 141.3125 C-12.5110951 130.51111573 -12.52677238 119.709844 -12.57071257 108.90853566 C-12.58594039 104.99169164 -12.5950317 101.07504067 -12.58930969 97.15816689 C-11.97683513 61.22512688 -11.97683513 61.22512688 -28 30 C-38.99869214 20.77591953 -50.96289789 19.15212135 -65 20 C-77.02351768 22.02104713 -86.93879264 29.25266771 -96 37 C-96.7115625 37.58910156 -97.423125 38.17820313 -98.15625 38.78515625 C-102.92871728 42.81421997 -106.99090125 47.22320149 -111 52 C-111.48405996 52.4031329 -111.96811993 52.80626579 -112.46684837 53.22161484 C-116.55861731 57.0105279 -117.45162546 60.13518084 -117.73257446 65.66802979 C-117.75551594 68.41107028 -117.7464293 71.14203592 -117.70947266 73.88378906 C-117.71109585 75.3971812 -117.71541401 76.91057247 -117.72221375 78.4239502 C-117.73120964 81.67245174 -117.72155837 84.92016477 -117.69731522 88.16858673 C-117.65940574 93.30329709 -117.66508588 98.43740163 -117.67684937 103.57220459 C-117.69367363 113.53841089 -117.66561345 123.50425021 -117.63343048 133.47039795 C-117.59491064 146.17072021 -117.57880299 158.87098421 -117.59863508 171.57135177 C-117.60517544 176.67797095 -117.59083851 181.78398493 -117.56018472 186.89051104 C-117.54485779 190.06135229 -117.5457552 193.2320407 -117.55092812 196.40290833 C-117.5498642 197.87555355 -117.54188003 199.34821206 -117.5265522 200.82077789 C-117.50654934 202.82705455 -117.51323873 204.83354499 -117.52139282 206.83990479 C-117.51523421 208.52559256 -117.51523421 208.52559256 -117.50895119 210.24533463 C-118 213 -118 213 -119.86511803 214.81225204 C-125.75664679 218.09002165 -131.22643923 218.36516272 -137.8125 218.375 C-138.66392578 218.39949219 -139.51535156 218.42398438 -140.39257812 218.44921875 C-141.23884766 218.45308594 -142.08511719 218.45695313 -142.95703125 218.4609375 C-143.70960205 218.46915527 -144.46217285 218.47737305 -145.23754883 218.48583984 C-148.03330279 217.99414295 -150.09816605 217.14143848 -152.6726532 215.96963501 C-153.48303889 215.60276896 -154.29342459 215.2359029 -155.12836742 214.85791969 C-155.74600617 214.57480619 -156.36364492 214.2916927 -157 214 C-157.11667487 185.1066574 -157.20491049 156.21334997 -157.25906086 127.31981945 C-157.26419347 124.65193351 -157.26936687 121.98404773 -157.2746582 119.31616211 C-157.27596976 118.65303256 -157.27728131 117.98990301 -157.2786326 117.30667863 C-157.30040498 106.5612675 -157.33983647 95.81598975 -157.38576398 85.07065781 C-157.43247788 74.04963909 -157.45991022 63.02869415 -157.47044247 52.00758153 C-157.47697479 45.8151495 -157.49238276 39.62302026 -157.52865028 33.43068504 C-157.56248276 27.60715793 -157.5730787 21.78405955 -157.56553841 15.9604435 C-157.56691866 13.81859129 -157.57692653 11.67672536 -157.59602737 9.53495789 C-157.6207659 6.61901884 -157.61497541 3.70471595 -157.60127258 0.78874207 C-157.61583679 -0.06630993 -157.630401 -0.92136193 -157.64540654 -1.80232459 C-157.61523914 -4.16380024 -157.61523914 -4.16380024 -157 -8 C-151.66595365 -12.47103918 -145.19507686 -12.20390042 -138.5625 -12.25 C-137.82451172 -12.270625 -137.08652344 -12.29125 -136.32617188 -12.3125 C-131.46466116 -12.34707074 -128.23546901 -11.63199582 -124 -9 C-122 -7 -122 -7 -121.77294922 -4.01904297 C-121.78342285 -2.77268066 -121.79389648 -1.52631836 -121.8046875 -0.2421875 C-121.8075174 0.42086395 -121.81034729 1.08391541 -121.81326294 1.76705933 C-121.82446565 3.88655583 -121.84956949 6.00563104 -121.875 8.125 C-121.88502972 9.56119182 -121.89415559 10.99739025 -121.90234375 12.43359375 C-121.924405 15.95586628 -121.95893506 19.47789203 -122 23 C-121.34 23 -120.68 23 -120 23 C-119.73703125 22.41347656 -119.4740625 21.82695312 -119.203125 21.22265625 C-111.39206093 6.79247621 -88.0938837 -7.45867162 -73 -12 C-48.10444508 -18.91210719 -20.94822369 -15.74234072 0 0 Z " fill="#FEFDFD" transform="translate(245,210)"/>
<path d="M0 0 C0.84755859 0.00322266 1.69511719 0.00644531 2.56835938 0.00976562 C3.44943359 0.01814453 4.33050781 0.02652344 5.23828125 0.03515625 C6.13095703 0.03966797 7.02363281 0.04417969 7.94335938 0.04882812 C10.14590112 0.06060642 12.34830724 0.07705461 14.55078125 0.09765625 C14.55078125 0.75765625 14.55078125 1.41765625 14.55078125 2.09765625 C12.57885742 3.48632812 12.57885742 3.48632812 9.84375 5.06640625 C8.86470703 5.63746094 7.88566406 6.20851563 6.87695312 6.796875 C5.84119141 7.39113281 4.80542969 7.98539062 3.73828125 8.59765625 C1.71061657 9.77418667 -0.3167407 10.95124707 -2.34375 12.12890625 C-3.24971924 12.65033203 -4.15568848 13.17175781 -5.08911133 13.70898438 C-6.9109531 14.78094424 -8.69042002 15.92512376 -10.44921875 17.09765625 C5.39078125 17.42765625 21.23078125 17.75765625 37.55078125 18.09765625 C37.55078125 18.75765625 37.55078125 19.41765625 37.55078125 20.09765625 C30.77421028 24.21742289 25.70097823 24.55508365 17.87890625 24.28515625 C15.58075336 24.26063776 13.28257309 24.23858446 10.984375 24.21875 C7.40932521 24.16758737 3.83778696 24.09883647 0.26416016 23.98486328 C-16.62660539 23.49326462 -27.54172136 25.55092149 -41.29029846 35.57807922 C-48.45462158 40.62075768 -53.71553505 42.85371866 -62.51171875 42.41015625 C-63.37732422 42.38759766 -64.24292969 42.36503906 -65.13476562 42.34179688 C-67.24035274 42.28363149 -69.34503206 42.19398219 -71.44921875 42.09765625 C-71.44921875 41.43765625 -71.44921875 40.77765625 -71.44921875 40.09765625 C-69.15429688 38.49365234 -69.15429688 38.49365234 -65.98046875 36.62109375 C-64.45776367 35.71496338 -64.45776367 35.71496338 -62.90429688 34.79052734 C-61.59912109 34.02562988 -60.29394531 33.26073242 -58.94921875 32.47265625 C-54.82421875 30.03890625 -50.69921875 27.60515625 -46.44921875 25.09765625 C-62.28921875 24.76765625 -78.12921875 24.43765625 -94.44921875 24.09765625 C-94.44921875 23.43765625 -94.44921875 22.77765625 -94.44921875 22.09765625 C-87.69766646 17.99150772 -82.77475403 17.67780468 -74.98828125 18.05078125 C-72.73043051 18.10682616 -70.47243898 18.15740996 -68.21435547 18.203125 C-67.04580017 18.22938965 -65.87724487 18.2556543 -64.67327881 18.28271484 C-42.56543641 18.68162855 -26.3470715 17.88479173 -9.33544922 2.6640625 C-6.3401977 0.17667786 -3.74625048 -0.02514262 0 0 Z " fill="#FDFCFC" transform="translate(287.44921875,68.90234375)"/>
<path d="M0 0 C1.56424629 3.12849259 1.18446398 6.44430084 1.1875 9.875 C1.19974609 10.59558594 1.21199219 11.31617188 1.22460938 12.05859375 C1.23536819 15.95328605 1.22200105 18.77399812 -1 22 C-3.13489255 23.50199088 -5.19737359 24.80690694 -7.45703125 26.08984375 C-8.10837036 26.47122498 -8.75970947 26.8526062 -9.43078613 27.24554443 C-11.55263964 28.48571194 -13.68240379 29.71155414 -15.8125 30.9375 C-18.731648 32.63638491 -21.64694332 34.34183627 -24.5625 36.046875 C-25.28585037 36.46849411 -26.00920074 36.89011322 -26.75447083 37.32450867 C-33.903112 41.50115698 -40.92222387 45.87215492 -47.8918457 50.34155273 C-48.66616943 50.83083252 -49.44049316 51.3201123 -50.23828125 51.82421875 C-51.2288855 52.45976685 -51.2288855 52.45976685 -52.23950195 53.1081543 C-54 54 -54 54 -57 54 C-58.46343456 51.07313088 -58.1704426 48.44546387 -58.1875 45.1875 C-58.20167969 43.96417969 -58.21585937 42.74085938 -58.23046875 41.48046875 C-58.00115993 38.01751686 -57.76438407 35.97080052 -56 33 C-53.97027994 31.414474 -52.08571929 30.15880977 -49.875 28.875 C-49.21064941 28.47394043 -48.54629883 28.07288086 -47.86181641 27.65966797 C-45.2504154 26.09057858 -42.62501277 24.5462172 -40 23 C-37.34258876 21.42382874 -34.68700038 19.84459272 -32.03125 18.265625 C-27.72341162 15.70477015 -23.41414541 13.14649994 -19.09716797 10.60107422 C-18.06976501 9.99425812 -18.06976501 9.99425812 -17.02160645 9.37518311 C-15.73181139 8.61359021 -14.44125624 7.85328243 -13.14978027 7.09454346 C-10.26569969 5.38999128 -7.44385522 3.63760604 -4.68603516 1.73779297 C-2 0 -2 0 0 0 Z " fill="#FCFBFB" transform="translate(452,248)"/>
<path d="M0 0 C0.08132187 2.56314499 0.14064175 5.12368418 0.1875 7.6875 C0.21263672 8.40873047 0.23777344 9.12996094 0.26367188 9.87304688 C0.32824662 14.58700313 -0.22296118 17.22244895 -3 21 C-5.40649414 22.7824707 -5.40649414 22.7824707 -8.28515625 24.42578125 C-9.90006958 25.36260742 -9.90006958 25.36260742 -11.54760742 26.31835938 C-12.12062592 26.64344482 -12.69364441 26.96853027 -13.2840271 27.3034668 C-16.32537413 29.02900343 -19.34420339 30.79334333 -22.3671875 32.55078125 C-22.99153183 32.91213165 -23.61587616 33.27348206 -24.25914001 33.64578247 C-31.14491505 37.63990978 -37.91923525 41.81082413 -44.6875 46 C-45.83272578 46.7074995 -46.97798845 47.41493927 -48.12329102 48.12231445 C-50.75010308 49.74621764 -53.37573697 51.37198194 -56 53 C-58.50658128 50.79208756 -58.96398369 50.3152395 -59.36328125 46.8203125 C-59.34652344 45.60085937 -59.32976562 44.38140625 -59.3125 43.125 C-59.30863281 41.91070312 -59.30476563 40.69640625 -59.30078125 39.4453125 C-58.99827772 35.9802721 -58.65089022 34.03575194 -57 31 C-54.85102014 29.40193134 -52.8605681 28.10916439 -50.54296875 26.8125 C-49.89167496 26.4324884 -49.24038116 26.05247681 -48.5693512 25.66094971 C-46.44943647 24.42737695 -44.31888638 23.21362498 -42.1875 22 C-39.99740736 20.73460497 -37.8100215 19.4646311 -35.62301636 18.19390869 C-34.16324579 17.34579589 -32.70257092 16.49923764 -31.24099731 15.65423584 C-24.08947581 11.50727878 -17.10345392 7.11318354 -10.19604492 2.5703125 C-9.03939331 1.83167969 -9.03939331 1.83167969 -7.859375 1.078125 C-7.20420898 0.64918945 -6.54904297 0.22025391 -5.87402344 -0.22167969 C-3.52688467 -1.19649449 -2.34994073 -0.84159454 0 0 Z " fill="#FCFBFB" transform="translate(453,192)"/>
<path d="M0 0 C5.61457551 0.3618282 10.11488614 0.94680384 15 4 C15.33 4.66 15.66 5.32 16 6 C14.68 6 13.36 6 12 6 C12 5.34 12 4.68 12 4 C8.37 3.67 4.74 3.34 1 3 C0.67 2.01 0.34 1.02 0 0 Z " fill="#6FA597" transform="translate(465,42)"/>
<path d="M0 0 C0.66 0.33 1.32 0.66 2 1 C1.34 1.66 0.68 2.32 0 3 C-0.16687448 5.58354218 -0.16687448 5.58354218 0 8 C2.31 8.33 4.62 8.66 7 9 C7 9.33 7 9.66 7 10 C-0.50769231 9.50769231 -0.50769231 9.50769231 -3 6.9375 C-3.33 6.298125 -3.66 5.65875 -4 5 C-2.68 3.35 -1.36 1.7 0 0 Z " fill="#72A799" transform="translate(50,127)"/>
</svg>
