<?xml version="1.0" encoding="UTF-8"?>
<svg version="1.1" xmlns="http://www.w3.org/2000/svg" width="256" height="256">
<path d="M0 0 C84.48 0 168.96 0 256 0 C256 84.48 256 168.96 256 256 C171.52 256 87.04 256 0 256 C0 171.52 0 87.04 0 0 Z " fill="#1A1B18" transform="translate(0,0)"/>
<path d="M0 0 C5.95007013 4.8682392 10.01195533 10.75867454 11 18.4375 C11.40609493 27.9348815 8.16518445 33.45692197 1.83984375 40.34765625 C0 42 0 42 -2 42 C-2.33 42.99 -2.66 43.98 -3 45 C-10.88167842 47.06872687 -18.7456001 48.27104047 -26.44921875 44.94140625 C-32.47333674 41.33102654 -37.37111581 36.56816603 -40 30 C-41.39582836 22.92151699 -41.48996101 15.42567213 -38.58984375 8.7578125 C-36.89262154 6.24368553 -35.14875194 4.13523778 -33 2 C-32.175 1.175 -31.35 0.35 -30.5 -0.5 C-21.18196763 -6.09081942 -9.14041011 -5.74809296 0 0 Z " fill="#03B834" transform="translate(213,41)"/>
<path d="M0 0 C0.77923828 0.01804687 1.55847656 0.03609375 2.36132812 0.0546875 C4.26226131 0.10133617 6.16255169 0.17306171 8.0625 0.25 C8.0625 0.91 8.0625 1.57 8.0625 2.25 C9.0834375 2.311875 9.0834375 2.311875 10.125 2.375 C15.05407492 3.84323508 18.63088648 6.97145597 21.36328125 11.3203125 C24.57165021 17.64371605 25.95642978 23.13873836 25.0625 30.25 C22.96012055 36.2867078 19.95821923 41.08863865 15.0625 45.25 C14.258125 45.971875 13.45375 46.69375 12.625 47.4375 C7.13074258 51.32368208 1.60703628 51.92123449 -4.9375 51.25 C-12.47508948 49.89822957 -17.94542669 44.79674812 -22.9375 39.25 C-27.21212462 32.85731814 -26.88098361 24.25641303 -25.50390625 16.94921875 C-23.2221759 9.65051607 -17.47132098 4.67602228 -10.92626953 1.04394531 C-7.33879405 -0.38822634 -3.80515878 -0.16955292 0 0 Z " fill="#03B834" transform="translate(62.9375,102.75)"/>
<path d="M0 0 C6.17994679 3.92188931 8.73359656 9.10351915 11 16 C11.5153074 18.95903319 11.34766379 20.92069216 11 24 C10.90912109 25.07701172 10.90912109 25.07701172 10.81640625 26.17578125 C9.84630864 33.11018265 6.14941719 37.44404401 1 42 C-4.96664634 46.33178524 -11.92939285 47.58437848 -19.203125 46.74609375 C-25.67279704 45.37560979 -30.70755128 41.95282544 -35 37 C-35 36.34 -35 35.68 -35 35 C-35.99 34.67 -36.98 34.34 -38 34 C-40.84665076 27.10810868 -41.21134691 18.94283476 -38.9375 11.8125 C-36.21111758 5.63692679 -31.83260976 0.60292409 -25.8125 -2.5 C-16.9361837 -5.8872144 -8.04192855 -4.83797295 0 0 Z " fill="#03B834" transform="translate(77,41)"/>
<path d="M0 0 C5.61515063 5.88253875 7.94582055 9.74316614 8.25 18.125 C7.96185329 25.95168773 6.23708644 31.71750445 0.98046875 37.5859375 C-5.36436164 43.45812816 -11.82067344 45.36351308 -20.3828125 45.0859375 C-28.47284757 44.1776568 -33.60067033 40.46579926 -38.70703125 34.23828125 C-42.82222807 28.09921714 -44.14115478 21.56209075 -43.07421875 14.265625 C-40.98263892 6.74061154 -36.09945944 -0.19262574 -29.375 -4.25 C-19.56560423 -8.24354848 -8.41906047 -6.41763007 0 0 Z " fill="#02B934" transform="translate(147.375,174.25)"/>
<path d="M0 0 C6.23576178 4.96026505 9.90524436 10.49055035 11.0703125 18.34765625 C11.43913748 25.31844833 9.37834958 31.6194814 5.2421875 37.234375 C0.49322678 42.40301132 -4.97721073 45.65111561 -11.98828125 46.53125 C-20.67302041 46.8195401 -27.26231188 44.82665582 -33.7109375 38.9375 C-38.98305054 32.94281309 -40.62624951 25.89471319 -40.5234375 18.1015625 C-39.85746434 11.00419137 -36.49036733 5.48038187 -31.3046875 0.6953125 C-21.10307747 -6.79104011 -10.63516215 -5.93114812 0 0 Z " fill="#FBDA66" transform="translate(77.25,172.8125)"/>
<path d="M0 0 C1.02867187 -0.01740234 1.02867187 -0.01740234 2.078125 -0.03515625 C9.71160947 0.00854691 14.5557318 3.28579277 20 8.375 C25.58562642 15.77218094 25.5665 22.30010571 25 31.375 C23.85154718 38.27720146 19.49081189 43.21261034 14 47.375 C13.01 47.375 12.02 47.375 11 47.375 C11 48.035 11 48.695 11 49.375 C-7.0724832 52.10292199 -7.0724832 52.10292199 -14.21875 46.93359375 C-17.18282788 44.34002561 -19.64857691 41.52737658 -22 38.375 C-22.598125 37.611875 -23.19625 36.84875 -23.8125 36.0625 C-26.71139529 29.50184224 -26.58386422 22.63058088 -24.27734375 15.90234375 C-19.16572753 5.78853429 -11.38525591 -0.19260771 0 0 Z " fill="#02B834" transform="translate(130,102.625)"/>
<path d="M0 0 C6.39897844 3.68160403 12.24304088 10.07047185 14.43359375 17.1484375 C15.23807292 24.9780778 15.56334905 32.77553815 10.43359375 39.1484375 C5.10301171 44.645948 -0.23956982 49.45209153 -8.18798828 49.71899414 C-16.29262279 49.68738779 -22.36565846 48.94913705 -28.56640625 43.1484375 C-35.68663072 34.41994878 -36.34687228 27.07496195 -35.56640625 16.1484375 C-34.08199923 11.11436154 -30.47695147 7.52572656 -26.56640625 4.1484375 C-25.80650391 3.44654297 -25.80650391 3.44654297 -25.03125 2.73046875 C-18.30004545 -2.5509379 -7.9315589 -2.63178058 0 0 Z " fill="#FBDA66" transform="translate(208.56640625,103.8515625)"/>
<path d="M0 0 C5.28021865 3.79373222 9.28522618 8.3815001 11.26171875 14.625 C12.17022692 22.7804454 11.50818164 29.55746037 7.26171875 36.625 C6.72546875 37.5325 6.18921875 38.44 5.63671875 39.375 C0.33683992 44.39593784 -6.65162291 47.21633417 -13.86328125 47.9375 C-20.77086231 47.38043701 -27.91105741 44.72040294 -32.73828125 39.625 C-38.4038488 32.84534003 -39.58401384 26.87573765 -39.1875 18.1171875 C-38.15623934 10.1002568 -34.08011534 4.54740921 -27.73828125 -0.375 C-19.23059693 -5.55678613 -8.43975321 -4.78388588 0 0 Z " fill="#FBDA66" transform="translate(143.73828125,40.375)"/>
<path d="M0 0 C1.8871875 -0.02126953 1.8871875 -0.02126953 3.8125 -0.04296875 C7 0.1875 7 0.1875 9 2.1875 C4.92475764 3.54591412 1.17534425 3.20956383 -3.08984375 3.125 C-5.60969957 3.17911771 -7.60747431 3.44956437 -10 4.1875 C-9.67 3.1975 -9.34 2.2075 -9 1.1875 C-6.02958551 -0.29770725 -3.30235553 0.0169178 0 0 Z " fill="#242119" transform="translate(130,34.8125)"/>
<path d="M0 0 C0.66 0.33 1.32 0.66 2 1 C0.56877218 2.48523642 -0.87020889 3.96300462 -2.3125 5.4375 C-3.11300781 6.26121094 -3.91351563 7.08492188 -4.73828125 7.93359375 C-7 10 -7 10 -10 11 C-8.55218207 7.55571735 -6.72305391 5.63869038 -3.875 3.25 C-3.15054688 2.63640625 -2.42609375 2.0228125 -1.6796875 1.390625 C-0.84824219 0.70226562 -0.84824219 0.70226562 0 0 Z " fill="#19A93F" transform="translate(50,105)"/>
<path d="M0 0 C0.66 0.33 1.32 0.66 2 1 C-1.63 4.63 -5.26 8.26 -9 12 C-9 8.00102358 -7.64683965 6.93298448 -5 4 C-3.36643049 2.62631655 -1.7074998 1.28062485 0 0 Z " fill="#1E9A3E" transform="translate(118,170)"/>
<path d="M0 0 C0.33 0 0.66 0 1 0 C0.67 5.94 0.34 11.88 0 18 C-0.33 18 -0.66 18 -1 18 C-1.22245975 15.75135275 -1.42746557 13.50097377 -1.625 11.25 C-1.74101562 9.99703125 -1.85703125 8.7440625 -1.9765625 7.453125 C-1.99888599 4.16413097 -1.77961002 2.68979224 0 0 Z " fill="#403B28" transform="translate(173,115)"/>
<path d="M0 0 C0.66 0.33 1.32 0.66 2 1 C0.88200014 2.33920838 -0.24461897 3.67122556 -1.375 5 C-2.00148438 5.7425 -2.62796875 6.485 -3.2734375 7.25 C-4.12808594 8.11625 -4.12808594 8.11625 -5 9 C-5.66 9 -6.32 9 -7 9 C-5.44499019 5.18315774 -2.96404505 2.80804268 0 0 Z " fill="#D8C062" transform="translate(116,40)"/>
<path d="M0 0 C0.66 0.33 1.32 0.66 2 1 C1.04882866 2.1725131 0.08882991 3.33787015 -0.875 4.5 C-1.40867187 5.1496875 -1.94234375 5.799375 -2.4921875 6.46875 C-2.98976562 6.9740625 -3.48734375 7.479375 -4 8 C-4.66 8 -5.32 8 -6 8 C-4.55746343 4.63408134 -2.66735273 2.48952921 0 0 Z " fill="#1BA33E" transform="translate(47,41)"/>
</svg>
