<svg width="128" height="128" viewBox="0 0 128 128" fill="none" xmlns="http://www.w3.org/2000/svg">
<rect width="128" height="128" fill="#538D4E"/>
<path d="M63.723 96.8949C58.8011 96.8949 54.4226 96.0959 50.5874 94.4979C46.7734 92.8786 43.7798 90.6733 41.6065 87.8821C39.4332 85.0909 38.3466 81.9268 38.3466 78.3899C38.3466 75.6626 38.9645 73.1591 40.2003 70.8793C41.4574 68.5781 43.1619 66.6712 45.3139 65.1584C47.4659 63.6243 49.8736 62.6442 52.5369 62.218V61.7706C49.0426 61.0675 46.2088 59.3736 44.0355 56.6889C41.8622 53.983 40.7756 50.8402 40.7756 47.2607C40.7756 43.8729 41.7663 40.858 43.7479 38.2159C45.7294 35.5526 48.446 33.4645 51.8977 31.9517C55.3707 30.4176 59.3125 29.6506 63.723 29.6506C68.1335 29.6506 72.0646 30.4176 75.5163 31.9517C78.9893 33.4858 81.7166 35.5845 83.6982 38.2479C85.6797 40.8899 86.6811 43.8942 86.7024 47.2607C86.6811 50.8615 85.5732 54.0043 83.3786 56.6889C81.1839 59.3736 78.3715 61.0675 74.9411 61.7706V62.218C77.5618 62.6442 79.9375 63.6243 82.0682 65.1584C84.2202 66.6712 85.9247 68.5781 87.1818 70.8793C88.4602 73.1591 89.1101 75.6626 89.1314 78.3899C89.1101 81.9268 88.0128 85.0909 85.8395 87.8821C83.6662 90.6733 80.6619 92.8786 76.8267 94.4979C73.0128 96.0959 68.6449 96.8949 63.723 96.8949ZM63.723 86.7315C65.9176 86.7315 67.8352 86.3374 69.4759 85.549C71.1165 84.7393 72.3949 83.6314 73.3111 82.2251C74.2486 80.7976 74.7173 79.157 74.7173 77.3033C74.7173 75.407 74.2379 73.7344 73.2791 72.2855C72.3203 70.8153 71.0206 69.6648 69.38 68.8338C67.7393 67.9815 65.8537 67.5554 63.723 67.5554C61.6136 67.5554 59.728 67.9815 58.0661 68.8338C56.4041 69.6648 55.0938 70.8153 54.1349 72.2855C53.1974 73.7344 52.7287 75.407 52.7287 77.3033C52.7287 79.157 53.1868 80.7976 54.103 82.2251C55.0192 83.6314 56.3082 84.7393 57.9702 85.549C59.6321 86.3374 61.5497 86.7315 63.723 86.7315ZM63.723 57.4879C65.5554 57.4879 67.1854 57.1151 68.6129 56.3693C70.0405 55.6236 71.1591 54.5902 71.9688 53.2692C72.7784 51.9482 73.1832 50.4247 73.1832 48.6989C73.1832 46.9943 72.7784 45.5028 71.9688 44.2244C71.1591 42.9247 70.0511 41.9126 68.6449 41.1882C67.2386 40.4425 65.598 40.0696 63.723 40.0696C61.8693 40.0696 60.2287 40.4425 58.8011 41.1882C57.3736 41.9126 56.255 42.9247 55.4453 44.2244C54.657 45.5028 54.2628 46.9943 54.2628 48.6989C54.2628 50.4247 54.6676 51.9482 55.4773 53.2692C56.2869 54.5902 57.4055 55.6236 58.8331 56.3693C60.2607 57.1151 61.8906 57.4879 63.723 57.4879Z" fill="white"/>
</svg>
