<?xml version="1.0" encoding="UTF-8"?>
<svg version="1.1" xmlns="http://www.w3.org/2000/svg" width="192" height="192">
<path d="M0 0 C63.36 0 126.72 0 192 0 C192 63.36 192 126.72 192 192 C128.64 192 65.28 192 0 192 C0 128.64 0 65.28 0 0 Z " fill="#A6DBF3" transform="translate(0,0)"/>
<path d="M0 0 C1.40993334 1.04371688 2.80588582 2.10657484 4.1875 3.1875 C4.94675781 3.73535156 5.70601563 4.28320312 6.48828125 4.84765625 C18.43814732 13.66444819 27.11304762 26.49161762 30.1875 41.1875 C30.4340153 45.08807232 30.42189176 48.96817594 30.375 52.875 C30.3740332 54.4228418 30.3740332 54.4228418 30.37304688 56.00195312 C30.32462462 64.29291907 30.32462462 64.29291907 29.1875 68.1875 C28.5275 68.1875 27.8675 68.1875 27.1875 68.1875 C27.07664062 69.05632812 26.96578125 69.92515625 26.8515625 70.8203125 C25.12255553 79.58739489 19.91762144 88.2899709 13.1875 94.1875 C12.5275 94.1875 11.8675 94.1875 11.1875 94.1875 C11.1875 95.1775 11.1875 96.1675 11.1875 97.1875 C12.30125 97.14625 13.415 97.105 14.5625 97.0625 C21.94065968 97.07558184 28.76255757 98.46779649 35.1875 102.1875 C35.1875 103.1775 35.1875 104.1675 35.1875 105.1875 C33.21415823 106.01404655 31.23344074 106.82299017 29.25 107.625 C28.14785156 108.07746094 27.04570312 108.52992188 25.91015625 108.99609375 C17.92418232 111.5519406 9.64457081 111.33629313 1.328125 111.3203125 C0.2207196 111.32126923 -0.88668579 111.32222595 -2.02764893 111.32321167 C-4.35388242 111.32388863 -6.68011785 111.32206832 -9.00634766 111.31787109 C-12.56547262 111.31249551 -16.12447257 111.31784303 -19.68359375 111.32421875 C-21.95052111 111.32355828 -24.21744839 111.32227777 -26.484375 111.3203125 C-27.54589783 111.32233673 -28.60742065 111.32436096 -29.70111084 111.32644653 C-30.69274231 111.32329437 -31.68437378 111.32014221 -32.70605469 111.31689453 C-33.57381531 111.31609894 -34.44157593 111.31530334 -35.33563232 111.31448364 C-37.9119538 111.18240122 -40.29895216 110.75445695 -42.8125 110.1875 C-42.8125 109.5275 -42.8125 108.8675 -42.8125 108.1875 C-43.72 108.14625 -44.6275 108.105 -45.5625 108.0625 C-57.75914096 106.23916378 -68.03308777 97.39706847 -75.25 87.875 C-76.11026109 86.65009092 -76.96462397 85.42101434 -77.8125 84.1875 C-78.29460937 83.60355469 -78.77671875 83.01960938 -79.2734375 82.41796875 C-88.24588183 69.41475628 -88.79609282 52.29561982 -86.109375 37.25 C-81.62309532 21.12980861 -70.05635813 7.72144684 -55.8125 -0.8125 C-54.4925 -0.8125 -53.1725 -0.8125 -51.8125 -0.8125 C-51.8125 -1.4725 -51.8125 -2.1325 -51.8125 -2.8125 C-35.19172418 -8.8859972 -15.44585508 -9.91618579 0 0 Z " fill="#EE955E" transform="translate(122.8125,42.8125)"/>
<path d="M0 0 C2.22507713 1.90275287 4.33091109 3.75277282 6.2578125 5.95703125 C6.2578125 6.61703125 6.2578125 7.27703125 6.2578125 7.95703125 C6.9178125 7.95703125 7.5778125 7.95703125 8.2578125 7.95703125 C9.07218118 9.72700599 9.8842419 11.49804277 10.6953125 13.26953125 C11.14777344 14.25566406 11.60023437 15.24179688 12.06640625 16.2578125 C15.94688249 25.04931769 15.56572177 36.55427891 12.2578125 45.51953125 C11.61949652 47.01115157 10.9644105 48.49651842 10.2578125 49.95703125 C9.5978125 49.95703125 8.9378125 49.95703125 8.2578125 49.95703125 C7.9278125 51.27703125 7.5978125 52.59703125 7.2578125 53.95703125 C6.5978125 53.95703125 5.9378125 53.95703125 5.2578125 53.95703125 C4.99613281 54.55128906 4.73445313 55.14554688 4.46484375 55.7578125 C2.05520594 60.14818818 -1.90092549 63.40857022 -6.6796875 64.83203125 C-7.3603125 64.87328125 -8.0409375 64.91453125 -8.7421875 64.95703125 C-8.7421875 65.61703125 -8.7421875 66.27703125 -8.7421875 66.95703125 C-17.8194377 69.80745748 -25.36298153 70.88097094 -34.7421875 68.95703125 C-34.7421875 68.29703125 -34.7421875 67.63703125 -34.7421875 66.95703125 C-35.7321875 66.91578125 -36.7221875 66.87453125 -37.7421875 66.83203125 C-44.65974865 65.85181003 -50.25982439 59.99968975 -54.7421875 54.95703125 C-54.7421875 54.29703125 -54.7421875 53.63703125 -54.7421875 52.95703125 C-55.4021875 52.95703125 -56.0621875 52.95703125 -56.7421875 52.95703125 C-57.39576028 51.73196227 -58.03966983 50.50173609 -58.6796875 49.26953125 C-59.03933594 48.58503906 -59.39898437 47.90054688 -59.76953125 47.1953125 C-63.91689601 37.65137673 -63.07098545 24.25020061 -59.4921875 14.64453125 C-57.7466474 10.52311712 -55.62087064 7.37438145 -52.7421875 3.95703125 C-52.1440625 3.11140625 -51.5459375 2.26578125 -50.9296875 1.39453125 C-39.02653384 -11.86898283 -13.21199296 -9.84312296 0 0 Z " fill="#FEAB79" transform="translate(112.7421875,53.04296875)"/>
<path d="M0 0 C1.40993334 1.04371688 2.80588582 2.10657484 4.1875 3.1875 C4.94675781 3.73535156 5.70601563 4.28320312 6.48828125 4.84765625 C18.43814732 13.66444819 27.11304762 26.49161762 30.1875 41.1875 C30.4340153 45.08807232 30.42189176 48.96817594 30.375 52.875 C30.3740332 54.4228418 30.3740332 54.4228418 30.37304688 56.00195312 C30.32462462 64.29291907 30.32462462 64.29291907 29.1875 68.1875 C28.5275 68.1875 27.8675 68.1875 27.1875 68.1875 C27.07664062 69.05632812 26.96578125 69.92515625 26.8515625 70.8203125 C25.12255553 79.58739489 19.91762144 88.2899709 13.1875 94.1875 C12.5275 94.1875 11.8675 94.1875 11.1875 94.1875 C11.1875 95.1775 11.1875 96.1675 11.1875 97.1875 C12.30125 97.14625 13.415 97.105 14.5625 97.0625 C21.94065968 97.07558184 28.76255757 98.46779649 35.1875 102.1875 C35.1875 103.1775 35.1875 104.1675 35.1875 105.1875 C33.21415823 106.01404655 31.23344074 106.82299017 29.25 107.625 C28.14785156 108.07746094 27.04570312 108.52992188 25.91015625 108.99609375 C17.92418232 111.5519406 9.64457081 111.33629313 1.328125 111.3203125 C0.2207196 111.32126923 -0.88668579 111.32222595 -2.02764893 111.32321167 C-4.35388242 111.32388863 -6.68011785 111.32206832 -9.00634766 111.31787109 C-12.56547262 111.31249551 -16.12447257 111.31784303 -19.68359375 111.32421875 C-21.95052111 111.32355828 -24.21744839 111.32227777 -26.484375 111.3203125 C-27.54589783 111.32233673 -28.60742065 111.32436096 -29.70111084 111.32644653 C-30.69274231 111.32329437 -31.68437378 111.32014221 -32.70605469 111.31689453 C-33.57381531 111.31609894 -34.44157593 111.31530334 -35.33563232 111.31448364 C-37.9119538 111.18240122 -40.29895216 110.75445695 -42.8125 110.1875 C-42.8125 109.5275 -42.8125 108.8675 -42.8125 108.1875 C-43.72 108.14625 -44.6275 108.105 -45.5625 108.0625 C-57.75914096 106.23916378 -68.03308777 97.39706847 -75.25 87.875 C-76.11026109 86.65009092 -76.96462397 85.42101434 -77.8125 84.1875 C-78.29460937 83.60355469 -78.77671875 83.01960938 -79.2734375 82.41796875 C-88.24588183 69.41475628 -88.79609282 52.29561982 -86.109375 37.25 C-81.62309532 21.12980861 -70.05635813 7.72144684 -55.8125 -0.8125 C-54.4925 -0.8125 -53.1725 -0.8125 -51.8125 -0.8125 C-51.8125 -1.4725 -51.8125 -2.1325 -51.8125 -2.8125 C-35.19172418 -8.8859972 -15.44585508 -9.91618579 0 0 Z M-69.74609375 19.359375 C-78.76378198 30.91753024 -81.43490287 45.51830615 -80.14648438 59.86230469 C-78.65493995 70.24641953 -73.97045178 79.57202965 -66.8125 87.1875 C-66.15636719 87.95578125 -65.50023437 88.7240625 -64.82421875 89.515625 C-55.98913365 99.27136797 -44.41648094 103.45402174 -31.5390625 104.4375 C-16.56450213 104.96640279 -2.76288485 99.81284986 8.375 89.6875 C16.17527735 81.26581691 22.61473344 70.81311323 23.1875 59.1875 C23.26613281 57.94097656 23.34476562 56.69445312 23.42578125 55.41015625 C24.03014014 41.35415663 20.50588922 28.55722499 11.09375 17.79296875 C9.18451931 15.81802179 7.32603882 13.91181734 5.1875 12.1875 C4.5275 12.1875 3.8675 12.1875 3.1875 12.1875 C3.1875 11.5275 3.1875 10.8675 3.1875 10.1875 C0.67037811 8.88814536 -1.85079087 7.59795628 -4.375 6.3125 C-5.07947266 5.94769531 -5.78394531 5.58289063 -6.50976562 5.20703125 C-28.55993079 -5.97047183 -53.77610733 1.42137005 -69.74609375 19.359375 Z " fill="#0E0D0C" transform="translate(122.8125,42.8125)"/>
<path d="M0 0 C3.65805303 0.30020496 4.56236379 0.58676732 7.375 3.125 C9.72727498 7.52273148 10.24073052 10.84502597 9.8125 15.8125 C8.01687595 18.56579021 6.75995078 20.33877461 3.8125 21.8125 C-1.56473857 22.27494252 -6.14649535 21.88060447 -11.1875 19.8125 C-11.9609375 21.05 -11.9609375 21.05 -12.75 22.3125 C-15.1875 24.8125 -15.1875 24.8125 -18.6875 25.4375 C-22.1875 24.8125 -22.1875 24.8125 -24.6875 22.6875 C-26.1875 19.8125 -26.1875 19.8125 -26.1875 16.875 C-25.04109593 13.36413755 -23.37324246 10.7738285 -21.1875 7.8125 C-20.61902344 7.9775 -20.05054687 8.1425 -19.46484375 8.3125 C-16.8578132 8.86959501 -14.84195588 9.1496415 -12.1875 8.8125 C-10.29524304 7.11541372 -10.29524304 7.11541372 -8.75 4.875 C-6.05644833 1.28779334 -4.53729793 0.17247039 0 0 Z " fill="#F4F2F0" transform="translate(92.1875,54.1875)"/>
<path d="M0 0 C0.495 0.99 0.495 0.99 1 2 C2.11375 1.95875 3.2275 1.9175 4.375 1.875 C11.75315968 1.88808184 18.57505757 3.28029649 25 7 C25 7.99 25 8.98 25 10 C23.02665823 10.82654655 21.04594074 11.63549017 19.0625 12.4375 C17.96035156 12.88996094 16.85820312 13.34242188 15.72265625 13.80859375 C7.73668232 16.3644406 -0.54292919 16.14879313 -8.859375 16.1328125 C-9.9667804 16.13376923 -11.07418579 16.13472595 -12.21514893 16.13571167 C-14.54138242 16.13638863 -16.86761785 16.13456832 -19.19384766 16.13037109 C-22.75297262 16.12499551 -26.31197257 16.13034303 -29.87109375 16.13671875 C-32.13802111 16.13605828 -34.40494839 16.13477777 -36.671875 16.1328125 C-37.73339783 16.13483673 -38.79492065 16.13686096 -39.88861084 16.13894653 C-40.88024231 16.13579437 -41.87187378 16.13264221 -42.89355469 16.12939453 C-44.19519562 16.12820114 -44.19519562 16.12820114 -45.52313232 16.12698364 C-48.0994538 15.99490122 -50.48645216 15.56695695 -53 15 C-53 14.67 -53 14.34 -53 14 C-52.10394043 14.04189453 -51.20788086 14.08378906 -50.28466797 14.12695312 C-27.10736777 15.83352264 -27.10736777 15.83352264 -7 6 C-3.24833703 3 -3.24833703 3 -1 3 C-0.67 2.01 -0.34 1.02 0 0 Z " fill="#1F1C1B" transform="translate(133,138)"/>
<path d="M0 0 C0.66 0.33 1.32 0.66 2 1 C1.319375 2.03125 0.63875 3.0625 -0.0625 4.125 C-1.69844968 6.97490527 -2.00424266 7.88756939 -1.875 11.3125 C-1.18714884 14.11515599 -1.18714884 14.11515599 1 16 C4.5 16.33333333 4.5 16.33333333 8 16 C10.5654594 13.4345406 10.54046087 11.52313332 11 8 C11.433125 8.45375 11.86625 8.9075 12.3125 9.375 C14.10798342 11.20024334 14.10798342 11.20024334 17 13 C9.6521426 20.76773497 9.6521426 20.76773497 5.08203125 21.16796875 C0.92848361 20.9575639 -0.7574343 20.20719153 -4 17.4375 C-6.60444974 12.96110202 -6.72939554 11.10576877 -6 6 C-4.20636089 3.1899654 -2.98119065 1.49059532 0 0 Z " fill="#F3EDE9" transform="translate(69,62)"/>
<path d="M0 0 C0.99 0 1.98 0 3 0 C3.33 1.32 3.66 2.64 4 4 C5.65 4.33 7.3 4.66 9 5 C9.33 4.01 9.66 3.02 10 2 C10.33 2 10.66 2 11 2 C11.36010591 9.32215357 11.36010591 9.32215357 9.9375 12 C6.78136563 13.62897258 4.47848951 13.48820905 1 13 C-1.5 10.875 -1.5 10.875 -3 8 C-2.85384044 4.27293127 -2.65788293 2.65788293 0 0 Z " fill="#141414" transform="translate(69,66)"/>
<path d="M0 0 C0.33 1.65 0.66 3.3 1 5 C3.16874252 4.49396008 4.99967627 4.00016187 7 3 C7.35915493 9.34507042 7.35915493 9.34507042 5.9375 11.9375 C2.88023824 13.6140629 0.4093712 13.36528977 -3 13 C-4.9375 11.9375 -4.9375 11.9375 -6 10 C-6.64757709 3.95594714 -6.64757709 3.95594714 -4.6875 1.0625 C-3 0 -3 0 0 0 Z " fill="#070707" transform="translate(91,59)"/>
<path d="M0 0 C7.20800421 -0.48867825 7.20800421 -0.48867825 10.9375 1.8125 C14.50136523 5.59235706 14.09398943 9.01856026 14 14 C13.01 13.67 12.02 13.34 11 13 C9.8125 9.9375 9.8125 9.9375 9 7 C8.34 7.66 7.68 8.32 7 9 C4.875 8.625 4.875 8.625 3 8 C3 6.02 3 4.04 3 2 C2.01 2 1.02 2 0 2 C0 1.34 0 0.68 0 0 Z " fill="#F6F4F2" transform="translate(88,56)"/>
<path d="M0 0 C1.32 0.33 2.64 0.66 4 1 C3.72253508 4.32957907 3.18903896 5.78804723 0.9375 8.3125 C-3.08609656 10.62392781 -5.40200411 10.45226189 -10 10 C-10.66 9.34 -11.32 8.68 -12 8 C-11.67 6.68 -11.34 5.36 -11 4 C-8.03 4 -5.06 4 -2 4 C-1.34 2.68 -0.68 1.36 0 0 Z " fill="#1B120D" transform="translate(92,79)"/>
<path d="M0 0 C0.33 0.66 0.66 1.32 1 2 C-2.3 1.67 -5.6 1.34 -9 1 C-9 1.66 -9 2.32 -9 3 C-8.01 3.33 -7.02 3.66 -6 4 C-6.825 4.350625 -7.65 4.70125 -8.5 5.0625 C-9.325 5.701875 -10.15 6.34125 -11 7 C-11.54886514 11.39092112 -11.47666082 13.28500878 -9 17 C-10.9375 16.4375 -10.9375 16.4375 -13 15 C-13.75 11.375 -13.75 11.375 -14 8 C-14.99 8.495 -14.99 8.495 -16 9 C-13.00275815 0.00827444 -8.78237284 -0.60336913 0 0 Z " fill="#E1D4CC" transform="translate(97,55)"/>
<path d="M0 0 C0.66 0.33 1.32 0.66 2 1 C-2.95 5.95 -7.9 10.9 -13 16 C-13 11.08924079 -9.30469813 8.39044878 -6 5 C-4.05397986 3.23549584 -2.07285289 1.6178364 0 0 Z " fill="#151C1F" transform="translate(60,47)"/>
<path d="M0 0 C1.5625 1.6875 1.5625 1.6875 3 4 C2.75925978 7.37036311 2.41201979 8.58798021 0 11 C-1.75 10.6875 -1.75 10.6875 -4 10 C-5.99788438 9.65421232 -7.99759451 9.31856451 -10 9 C-10 8.67 -10 8.34 -10 8 C-5.545 7.505 -5.545 7.505 -1 7 C-0.67 4.69 -0.34 2.38 0 0 Z " fill="#CDCAC7" transform="translate(98,64)"/>
<path d="M0 0 C0 0.66 0 1.32 0 2 C-1.609375 3.54296875 -1.609375 3.54296875 -3.75 5.1875 C-4.44609375 5.73792969 -5.1421875 6.28835937 -5.859375 6.85546875 C-8 8 -8 8 -10.265625 7.67578125 C-10.83796875 7.45277344 -11.4103125 7.22976562 -12 7 C-10.70982586 6.01886757 -9.41780894 5.04015801 -8.125 4.0625 C-7.04605469 3.24458984 -7.04605469 3.24458984 -5.9453125 2.41015625 C-2.62049861 0 -2.62049861 0 0 0 Z " fill="#CF8355" transform="translate(73,48)"/>
<path d="M0 0 C0.66 0.33 1.32 0.66 2 1 C1.360625 1.763125 0.72125 2.52625 0.0625 3.3125 C-2.14232781 5.88246713 -2.14232781 5.88246713 -3 9 C-5.5625 10.1875 -5.5625 10.1875 -8 11 C-6.63629701 8.00779732 -5.05091917 5.70973471 -2.875 3.25 C-2.33617187 2.63640625 -1.79734375 2.0228125 -1.2421875 1.390625 C-0.62730469 0.70226563 -0.62730469 0.70226563 0 0 Z " fill="#C0774C" transform="translate(59,56)"/>
<path d="M0 0 C0 0.66 0 1.32 0 2 C-4.53701494 3.45184478 -8.18061476 4.23509196 -13 4 C-8.68630028 1.12420019 -5.19265239 0 0 0 Z " fill="#D68757" transform="translate(86,44)"/>
<path d="M0 0 C0 1.32 0 2.64 0 4 C-1.32 4 -2.64 4 -4 4 C-4.33 5.98 -4.66 7.96 -5 10 C-5.33 10 -5.66 10 -6 10 C-6.36567164 3.539801 -6.36567164 3.539801 -4.6875 1.0625 C-3 0 -3 0 0 0 Z " fill="#3A3A3A" transform="translate(91,59)"/>
</svg>
