<?xml version="1.0" encoding="UTF-8"?>
<!DOCTYPE svg PUBLIC "-//W3C//DTD SVG 1.1//EN" "http://www.w3.org/Graphics/SVG/1.1/DTD/svg11.dtd">
<svg xmlns="http://www.w3.org/2000/svg" version="1.1" width="512px" height="512px" style="shape-rendering:geometricPrecision; text-rendering:geometricPrecision; image-rendering:optimizeQuality; fill-rule:evenodd; clip-rule:evenodd" xmlns:xlink="http://www.w3.org/1999/xlink">
<g><path style="opacity:0.004" fill="#000000" d="M 287.5,57.5 C 288.946,56.3871 290.613,56.2204 292.5,57C 290.866,57.4935 289.199,57.6602 287.5,57.5 Z"/></g>
<g><path style="opacity:0.004" fill="#000000" d="M 211.5,58.5 C 212.601,57.4017 213.934,57.235 215.5,58C 214.207,58.49 212.873,58.6567 211.5,58.5 Z"/></g>
<g><path style="opacity:0.005" fill="#1b1b1b" d="M 211.5,58.5 C 211.5,58.8333 211.5,59.1667 211.5,59.5C 209.901,59.2322 208.568,59.5655 207.5,60.5C 206.127,60.6567 204.793,60.49 203.5,60C 206.063,58.9207 208.729,58.4207 211.5,58.5 Z"/></g>
<g><path style="opacity:1" fill="#143329" d="M 287.5,57.5 C 290.974,58.5249 294.64,59.1916 298.5,59.5C 299.568,60.4345 300.901,60.7678 302.5,60.5C 305.449,61.3678 308.449,62.3678 311.5,63.5C 317.57,67.3238 324.236,69.6571 331.5,70.5C 334.574,71.3024 337.574,72.3024 340.5,73.5C 342.849,75.341 345.515,76.6743 348.5,77.5C 350.663,79.0828 352.996,80.4161 355.5,81.5C 355.842,82.3382 356.508,82.6716 357.5,82.5C 357.5,83.1667 357.833,83.5 358.5,83.5C 361.494,85.9998 364.827,87.9998 368.5,89.5C 371.336,92.7429 374.669,94.5762 378.5,95C 377.434,96.159 377.767,96.9924 379.5,97.5C 381.808,99.4707 384.142,101.471 386.5,103.5C 386.5,104.167 386.833,104.5 387.5,104.5C 394.167,110.5 400.5,116.833 406.5,123.5C 406.5,124.167 406.833,124.5 407.5,124.5C 408.833,126.5 410.5,128.167 412.5,129.5C 414.255,132.68 416.255,135.68 418.5,138.5C 418.5,139.167 418.833,139.5 419.5,139.5C 419.5,140.167 419.833,140.5 420.5,140.5C 421.11,142.434 422.11,144.101 423.5,145.5C 426.917,152.005 430.584,158.338 434.5,164.5C 434.5,165.167 434.833,165.5 435.5,165.5C 436.376,169.582 438.043,173.249 440.5,176.5C 440.328,177.492 440.662,178.158 441.5,178.5C 441.402,180.553 442.069,182.22 443.5,183.5C 443.263,184.791 443.596,185.791 444.5,186.5C 445.261,190.784 446.595,194.784 448.5,198.5C 448.565,201.428 449.232,204.095 450.5,206.5C 450.232,208.099 450.566,209.432 451.5,210.5C 451.232,212.099 451.566,213.432 452.5,214.5C 452.577,218.877 453.077,223.21 454,227.5C 454.333,225.5 454.667,223.5 455,221.5C 455.167,222.667 455.333,223.833 455.5,225C 455.789,244.147 455.455,263.314 454.5,282.5C 453.234,287.312 452.234,292.312 451.5,297.5C 451.543,298.416 451.876,299.083 452.5,299.5C 452.453,302.568 451.953,305.568 451,308.5C 450.667,307.167 450.333,305.833 450,304.5C 449.178,307.117 448.678,309.784 448.5,312.5C 447.596,313.209 447.263,314.209 447.5,315.5C 446.596,316.209 446.263,317.209 446.5,318.5C 445.596,319.209 445.263,320.209 445.5,321.5C 444.596,322.209 444.263,323.209 444.5,324.5C 443.069,325.78 442.402,327.447 442.5,329.5C 441.662,329.842 441.328,330.508 441.5,331.5C 440.596,332.209 440.263,333.209 440.5,334.5C 439.662,334.842 439.328,335.508 439.5,336.5C 438.662,336.842 438.328,337.508 438.5,338.5C 437.662,338.842 437.328,339.508 437.5,340.5C 435.992,342.181 434.992,344.181 434.5,346.5C 433.662,346.842 433.328,347.508 433.5,348.5C 432.662,348.842 432.328,349.508 432.5,350.5C 431.662,350.842 431.328,351.508 431.5,352.5C 430.662,352.842 430.328,353.508 430.5,354.5C 429.833,354.5 429.5,354.833 429.5,355.5C 428.662,355.842 428.328,356.508 428.5,357.5C 427.662,357.842 427.328,358.508 427.5,359.5C 426.833,359.5 426.5,359.833 426.5,360.5C 425.662,360.842 425.328,361.508 425.5,362.5C 424.833,362.5 424.5,362.833 424.5,363.5C 423.662,363.842 423.328,364.508 423.5,365.5C 422.662,365.842 422.328,366.508 422.5,367.5C 421.833,367.5 421.5,367.833 421.5,368.5C 420.662,368.842 420.328,369.508 420.5,370.5C 419.833,370.5 419.5,370.833 419.5,371.5C 418.833,371.5 418.5,371.833 418.5,372.5C 417.662,372.842 417.328,373.508 417.5,374.5C 416.833,374.5 416.5,374.833 416.5,375.5C 415.662,375.842 415.328,376.508 415.5,377.5C 414.833,377.5 414.5,377.833 414.5,378.5C 413.833,378.5 413.5,378.833 413.5,379.5C 412.094,379.973 411.427,380.973 411.5,382.5C 410.833,382.5 410.5,382.833 410.5,383.5C 409.833,383.5 409.5,383.833 409.5,384.5C 408.833,384.5 408.5,384.833 408.5,385.5C 407.833,385.5 407.5,385.833 407.5,386.5C 406.833,386.5 406.5,386.833 406.5,387.5C 405.026,388.436 404.026,389.77 403.5,391.5C 402.833,391.5 402.5,391.833 402.5,392.5C 401.833,392.5 401.5,392.833 401.5,393.5C 400.833,393.5 400.5,393.833 400.5,394.5C 399.833,394.5 399.5,394.833 399.5,395.5C 398.833,395.5 398.5,395.833 398.5,396.5C 397.833,396.5 397.5,396.833 397.5,397.5C 396.833,397.5 396.5,397.833 396.5,398.5C 395.833,398.5 395.5,398.833 395.5,399.5C 394.833,399.5 394.5,399.833 394.5,400.5C 393.833,400.5 393.5,400.833 393.5,401.5C 392.833,401.5 392.5,401.833 392.5,402.5C 391.833,402.5 391.5,402.833 391.5,403.5C 389.77,404.026 388.436,405.026 387.5,406.5C 386.833,406.5 386.5,406.833 386.5,407.5C 385.833,407.5 385.5,407.833 385.5,408.5C 384.833,408.5 384.5,408.833 384.5,409.5C 383.833,409.5 383.5,409.833 383.5,410.5C 382.833,410.5 382.5,410.833 382.5,411.5C 380.973,411.427 379.973,412.094 379.5,413.5C 378.833,413.5 378.5,413.833 378.5,414.5C 377.508,414.328 376.842,414.662 376.5,415.5C 375.833,415.5 375.5,415.833 375.5,416.5C 374.833,416.5 374.5,416.833 374.5,417.5C 373.508,417.328 372.842,417.662 372.5,418.5C 371.833,418.5 371.5,418.833 371.5,419.5C 369.973,419.427 368.973,420.094 368.5,421.5C 367.508,421.328 366.842,421.662 366.5,422.5C 365.833,422.5 365.5,422.833 365.5,423.5C 362.669,424.079 360.336,425.412 358.5,427.5C 357.833,427.5 357.5,427.833 357.5,428.5C 356.508,428.328 355.842,428.662 355.5,429.5C 354.508,429.328 353.842,429.662 353.5,430.5C 352.833,430.5 352.5,430.833 352.5,431.5C 351.508,431.328 350.842,431.662 350.5,432.5C 349.508,432.328 348.842,432.662 348.5,433.5C 347.508,433.328 346.842,433.662 346.5,434.5C 345.508,434.328 344.842,434.662 344.5,435.5C 343.508,435.328 342.842,435.662 342.5,436.5C 341.508,436.328 340.842,436.662 340.5,437.5C 339.508,437.328 338.842,437.662 338.5,438.5C 337.508,438.328 336.842,438.662 336.5,439.5C 334.447,439.402 332.78,440.069 331.5,441.5C 330.508,441.328 329.842,441.662 329.5,442.5C 328.209,442.263 327.209,442.596 326.5,443.5C 325.209,443.263 324.209,443.596 323.5,444.5C 322.209,444.263 321.209,444.596 320.5,445.5C 319.508,445.328 318.842,445.662 318.5,446.5C 316.901,446.232 315.568,446.566 314.5,447.5C 313.209,447.263 312.209,447.596 311.5,448.5C 310.209,448.263 309.209,448.596 308.5,449.5C 302.792,449.492 302.459,449.992 307.5,451C 304.607,452.149 301.607,452.649 298.5,452.5C 298.083,451.876 297.416,451.543 296.5,451.5C 293.326,451.991 290.326,452.657 287.5,453.5C 284.941,453.198 282.607,453.532 280.5,454.5C 263.832,455.813 247.165,455.813 230.5,454.5C 226.057,453.199 221.391,452.532 216.5,452.5C 215.432,451.566 214.099,451.232 212.5,451.5C 211.432,450.566 210.099,450.232 208.5,450.5C 203.706,448.797 198.706,447.464 193.5,446.5C 192.833,445.833 192.167,445.167 191.5,444.5C 188.911,441.146 187.244,437.313 186.5,433C 187.159,424.007 191.993,419.507 201,419.5C 207.191,420.756 213.358,422.09 219.5,423.5C 245.817,429.221 272.15,428.721 298.5,422C 303.119,420.962 307.452,419.462 311.5,417.5C 316.669,416.584 321.669,415.084 326.5,413C 375.194,389.642 407.361,352.142 423,300.5C 440.631,218.51 415.131,154.176 346.5,107.5C 323.779,94.6335 299.446,86.4668 273.5,83C 205.659,78.6757 151.825,103.842 112,158.5C 111.667,159.833 111.333,161.167 111,162.5C 97.8645,180.78 89.6978,201.114 86.5,223.5C 85.2521,226.942 84.4188,230.608 84,234.5C 83.1751,244.675 83.3417,254.675 84.5,264.5C 84.7969,283.291 88.6302,301.291 96,318.5C 99.5546,327.066 103.555,335.399 108,343.5C 108.667,349.167 108.667,354.833 108,360.5C 102.823,377.037 97.8234,393.704 93,410.5C 91.6637,414.832 93.1637,417.499 97.5,418.5C 116.125,412.735 134.792,406.902 153.5,401C 157.167,400.333 160.833,400.333 164.5,401C 174.991,407.394 176.324,415.394 168.5,425C 164.226,426.544 160.226,428.378 156.5,430.5C 153.341,431.331 150.341,432.331 147.5,433.5C 146.209,433.263 145.209,433.596 144.5,434.5C 143.209,434.263 142.209,434.596 141.5,435.5C 138.848,435.41 136.515,436.076 134.5,437.5C 133.5,437.5 132.5,437.5 131.5,437.5C 124.096,437.4 117.43,439.4 111.5,443.5C 111.5,443.833 111.5,444.167 111.5,444.5C 110.5,444.5 109.5,444.5 108.5,444.5C 100.833,445.833 93.1667,445.833 85.5,444.5C 84.8333,444.5 84.1667,444.5 83.5,444.5C 81.3374,442.917 79.0041,441.584 76.5,440.5C 73.8046,437.474 71.1379,434.474 68.5,431.5C 68.0075,429.181 67.0075,427.181 65.5,425.5C 65.6716,424.508 65.3382,423.842 64.5,423.5C 63.1667,417.167 63.1667,410.833 64.5,404.5C 65.9238,402.485 66.5905,400.152 66.5,397.5C 66.8333,397.5 67.1667,397.5 67.5,397.5C 70.231,393.678 71.5644,389.344 71.5,384.5C 74.3046,377.724 76.8046,370.724 79,363.5C 79.4955,361.527 79.6621,359.527 79.5,357.5C 79.6641,354.813 79.4974,352.146 79,349.5C 78.6174,348.944 78.1174,348.611 77.5,348.5C 77.3404,346.847 76.6737,345.514 75.5,344.5C 75.3404,342.847 74.6737,341.514 73.5,340.5C 73.6716,339.508 73.3382,338.842 72.5,338.5C 72.6716,337.508 72.3382,336.842 71.5,336.5C 71.5,335.5 71.5,334.5 71.5,333.5C 70.0303,326.733 67.6969,320.399 64.5,314.5C 61.9366,301.624 59.7699,288.624 58,275.5C 55.0108,247.756 58.0108,220.756 67,194.5C 67.4974,191.854 67.6641,189.187 67.5,186.5C 73.5035,174.06 80.0035,161.727 87,149.5C 93.3333,140.833 99.6667,132.167 106,123.5C 112.068,117.935 117.568,111.935 122.5,105.5C 127.564,102.464 132.897,99.6307 138.5,97C 141.799,95.0346 144.465,92.368 146.5,89C 148.112,88.2797 149.612,88.4464 151,89.5C 151.483,88.552 151.649,87.552 151.5,86.5C 152.822,86.33 153.989,86.6634 155,87.5C 157.382,86.4459 159.882,85.7792 162.5,85.5C 162.33,84.1779 162.663,83.0113 163.5,82C 165.715,81.3097 167.882,80.4764 170,79.5C 172.536,80.0386 174.87,81.0386 177,82.5C 178.662,82.6125 179.829,81.9458 180.5,80.5C 178.577,79.6922 176.577,79.1922 174.5,79C 175,78.5 175.5,78 176,77.5C 178.288,77.7375 180.788,77.7375 183.5,77.5C 183.5,76.5 183.5,75.5 183.5,74.5C 181.325,74.6822 179.325,75.3489 177.5,76.5C 176.09,76.1322 175.09,75.2989 174.5,74C 176.5,73.6667 178.5,73.3333 180.5,73C 185.736,69.8831 191.07,67.0498 196.5,64.5C 198.5,63.5 200.5,62.5 202.5,61.5C 204.415,61.7845 206.081,61.4511 207.5,60.5C 209.099,60.7678 210.432,60.4345 211.5,59.5C 236.729,55.0587 262.063,54.3921 287.5,57.5 Z"/></g>
<g><path style="opacity:0.004" fill="#1d2929" d="M 298.5,59.5 C 301.377,58.4824 304.377,58.6491 307.5,60C 305.866,60.4935 304.199,60.6602 302.5,60.5C 301.432,59.5655 300.099,59.2322 298.5,59.5 Z"/></g>
<g><path style="opacity:0.004" fill="#000000" d="M 202.5,61.5 C 201.761,61.631 201.094,61.4643 200.5,61C 201.437,60.3083 202.103,60.475 202.5,61.5 Z"/></g>
<g><path style="opacity:0.004" fill="#000000" d="M 308.5,60.5 C 309.833,61.1667 309.833,61.1667 308.5,60.5 Z"/></g>
<g><path style="opacity:0.004" fill="#000000" d="M 311.5,62.5 C 312.251,61.4265 313.251,61.2599 314.5,62C 313.552,62.4828 312.552,62.6495 311.5,62.5 Z"/></g>
<g><path style="opacity:0.004" fill="#00fffe" d="M 189.5,65.5 C 188.833,64.1667 188.833,64.1667 189.5,65.5 Z"/></g>
<g><path style="opacity:0.004" fill="#a2a2a2" d="M 320.5,65.5 C 320.897,64.475 321.563,64.3083 322.5,65C 321.906,65.4643 321.239,65.631 320.5,65.5 Z"/></g>
<g><path style="opacity:0.004" fill="#3a3a3a" d="M 326.5,67.5 C 328.338,66.3217 330.005,66.655 331.5,68.5C 330.5,68.5 329.5,68.5 328.5,68.5C 328.158,67.6618 327.492,67.3284 326.5,67.5 Z"/></g>
<g><path style="opacity:0.745" fill="#5e6e68" d="M 311.5,63.5 C 314.5,64.1667 317.5,64.8333 320.5,65.5C 322.214,66.7384 324.214,67.405 326.5,67.5C 326.842,68.3382 327.508,68.6716 328.5,68.5C 329.209,69.404 330.209,69.7373 331.5,69.5C 331.5,69.8333 331.5,70.1667 331.5,70.5C 324.236,69.6571 317.57,67.3238 311.5,63.5 Z"/></g>
<g><path style="opacity:0.004" fill="#fefffe" d="M 331.5,68.5 C 332.833,69.1667 332.833,69.1667 331.5,68.5 Z"/></g>
<g><path style="opacity:0.004" fill="#000000" d="M 334.5,70.5 C 334.897,69.475 335.563,69.3083 336.5,70C 335.906,70.4643 335.239,70.631 334.5,70.5 Z"/></g>
<g><path style="opacity:0.004" fill="#000000" d="M 340.5,72.5 C 341.833,73.1667 341.833,73.1667 340.5,72.5 Z"/></g>
<g><path style="opacity:0.004" fill="#000000" d="M 166.5,73.5 C 167.833,74.1667 167.833,74.1667 166.5,73.5 Z"/></g>
<g><path style="opacity:0.008" fill="#00807f" d="M 164.5,74.5 C 165.833,75.1667 165.833,75.1667 164.5,74.5 Z"/></g>
<g><path style="opacity:0.008" fill="#000000" d="M 348.5,76.5 C 349.833,77.1667 349.833,77.1667 348.5,76.5 Z"/></g>
<g><path style="opacity:1" fill="#1e4738" d="M 196.5,64.5 C 191.07,67.0498 185.736,69.8831 180.5,73C 178.5,73.3333 176.5,73.6667 174.5,74C 175.09,75.2989 176.09,76.1322 177.5,76.5C 179.325,75.3489 181.325,74.6822 183.5,74.5C 183.5,75.5 183.5,76.5 183.5,77.5C 180.788,77.7375 178.288,77.7375 176,77.5C 175.5,78 175,78.5 174.5,79C 176.577,79.1922 178.577,79.6922 180.5,80.5C 179.829,81.9458 178.662,82.6125 177,82.5C 174.87,81.0386 172.536,80.0386 170,79.5C 167.882,80.4764 165.715,81.3097 163.5,82C 162.663,83.0113 162.33,84.1779 162.5,85.5C 159.882,85.7792 157.382,86.4459 155,87.5C 153.989,86.6634 152.822,86.33 151.5,86.5C 151.649,87.552 151.483,88.552 151,89.5C 149.612,88.4464 148.112,88.2797 146.5,89C 144.465,92.368 141.799,95.0346 138.5,97C 132.897,99.6307 127.564,102.464 122.5,105.5C 126.356,101.485 130.689,97.9849 135.5,95C 137.394,93.8989 138.061,92.5655 137.5,91C 138.449,90.3828 139.282,90.5494 140,91.5C 143.651,89.2673 147.151,86.934 150.5,84.5C 151.167,84.5 151.5,84.1667 151.5,83.5C 163.963,76.9338 176.63,70.9338 189.5,65.5C 191.806,65.0074 194.139,64.6741 196.5,64.5 Z"/></g>
<g><path style="opacity:0.008" fill="#00807f" d="M 355.5,80.5 C 356.833,81.1667 356.833,81.1667 355.5,80.5 Z"/></g>
<g><path style="opacity:0.004" fill="#0f1d1c" d="M 357.5,82.5 C 358.497,81.2875 359.497,81.4542 360.5,83C 359.906,83.4643 359.239,83.631 358.5,83.5C 357.833,83.5 357.5,83.1667 357.5,82.5 Z"/></g>
<g><path style="opacity:0.006" fill="#2b2b2b" d="M 151.5,83.5 C 150.833,83.5 150.5,83.8333 150.5,84.5C 148.025,84.2533 148.025,83.5866 150.5,82.5C 151.107,82.6236 151.44,82.9569 151.5,83.5 Z"/></g>
<g><path style="opacity:0.004" fill="#000000" d="M 145.5,85.5 C 146.833,86.1667 146.833,86.1667 145.5,85.5 Z"/></g>
<g><path style="opacity:1" fill="#04b45f" d="M 311.5,417.5 C 307.193,418.327 302.86,418.993 298.5,419.5C 298.5,418.167 298.5,416.833 298.5,415.5C 296.11,415.145 293.777,414.478 291.5,413.5C 288.751,413.758 287.251,415.092 287,417.5C 291.154,415.664 294.654,416.497 297.5,420C 289.713,422.308 281.713,423.975 273.5,425C 255.445,425.909 237.445,425.409 219.5,423.5C 213.358,422.09 207.191,420.756 201,419.5C 191.993,419.507 187.159,424.007 186.5,433C 187.244,437.313 188.911,441.146 191.5,444.5C 189.5,444.167 187.5,443.833 185.5,443.5C 185.158,442.662 184.492,442.328 183.5,442.5C 181.11,440.98 178.443,439.98 175.5,439.5C 173.819,437.992 171.819,436.992 169.5,436.5C 167.151,434.659 164.485,433.326 161.5,432.5C 160.365,430.787 158.698,430.12 156.5,430.5C 160.226,428.378 164.226,426.544 168.5,425C 176.324,415.394 174.991,407.394 164.5,401C 160.833,400.333 157.167,400.333 153.5,401C 134.792,406.902 116.125,412.735 97.5,418.5C 93.1637,417.499 91.6637,414.832 93,410.5C 97.8234,393.704 102.823,377.037 108,360.5C 108.667,354.833 108.667,349.167 108,343.5C 103.555,335.399 99.5546,327.066 96,318.5C 88.6302,301.291 84.7969,283.291 84.5,264.5C 84.1451,250.765 84.8117,237.098 86.5,223.5C 89.6978,201.114 97.8645,180.78 111,162.5C 111.333,161.167 111.667,159.833 112,158.5C 151.825,103.842 205.659,78.6757 273.5,83C 299.446,86.4668 323.779,94.6335 346.5,107.5C 415.131,154.176 440.631,218.51 423,300.5C 407.361,352.142 375.194,389.642 326.5,413C 321.669,415.084 316.669,416.584 311.5,417.5 Z"/></g>
<g><path style="opacity:0.004" fill="#000000" d="M 368.5,88.5 C 369.833,89.1667 369.833,89.1667 368.5,88.5 Z"/></g>
<g><path style="opacity:0.004" fill="#000000" d="M 370.5,89.5 C 371.833,90.1667 371.833,90.1667 370.5,89.5 Z"/></g>
<g><path style="opacity:0.004" fill="#000000" d="M 379.5,96.5 C 380.833,97.1667 380.833,97.1667 379.5,96.5 Z"/></g>
<g><path style="opacity:0.004" fill="#000000" d="M 123.5,101.5 C 124.833,102.167 124.833,102.167 123.5,101.5 Z"/></g>
<g><path style="opacity:0.004" fill="#173030" d="M 386.5,103.5 C 387.497,102.287 388.497,102.454 389.5,104C 388.906,104.464 388.239,104.631 387.5,104.5C 386.833,104.5 386.5,104.167 386.5,103.5 Z"/></g>
<g><path style="opacity:0.005" fill="#000000" d="M 115.5,111.5 C 114.833,111.5 114.5,111.833 114.5,112.5C 113.957,112.44 113.624,112.107 113.5,111.5C 114.257,110.227 114.923,110.227 115.5,111.5 Z"/></g>
<g><path style="opacity:0.005" fill="#000000" d="M 112.5,114.5 C 111.833,114.5 111.5,114.833 111.5,115.5C 110.957,115.44 110.624,115.107 110.5,114.5C 111.257,113.227 111.923,113.227 112.5,114.5 Z"/></g>
<g><path style="opacity:0.004" fill="#303030" d="M 407.5,124.5 C 406.833,124.5 406.5,124.167 406.5,123.5C 406.747,121.025 407.413,121.025 408.5,123.5C 408.376,124.107 408.043,124.44 407.5,124.5 Z"/></g>
<g><path style="opacity:0.004" fill="#000000" d="M 101.5,123.5 C 102.833,124.167 102.833,124.167 101.5,123.5 Z"/></g>
<g><path style="opacity:0.004" fill="#000000" d="M 412.5,128.5 C 413.833,129.167 413.833,129.167 412.5,128.5 Z"/></g>
<g><path style="opacity:0.005" fill="#000000" d="M 420.5,139.5 C 420.167,139.5 419.833,139.5 419.5,139.5C 418.833,139.5 418.5,139.167 418.5,138.5C 419.301,136.207 419.968,136.54 420.5,139.5 Z"/></g>
<g><path style="opacity:0.004" fill="#000000" d="M 420.5,139.5 C 421.833,140.167 421.833,140.167 420.5,139.5 Z"/></g>
<g><path style="opacity:0.008" fill="#1f4e4e" d="M 424.5,145.5 C 424.167,145.5 423.833,145.5 423.5,145.5C 423.833,142.833 424.167,142.833 424.5,145.5 Z"/></g>
<g><path style="opacity:0.004" fill="#000000" d="M 424.5,145.5 C 425.833,146.167 425.833,146.167 424.5,145.5 Z"/></g>
<g><path style="opacity:0.004" fill="#1e3a2c" d="M 84.5,150.5 C 83.8333,150.5 83.5,150.833 83.5,151.5C 82.2875,150.503 82.4542,149.503 84,148.5C 84.4643,149.094 84.631,149.761 84.5,150.5 Z"/></g>
<g><path style="opacity:0.639" fill="#407f65" d="M 122.5,105.5 C 117.568,111.935 112.068,117.935 106,123.5C 99.6667,132.167 93.3333,140.833 87,149.5C 80.0035,161.727 73.5035,174.06 67.5,186.5C 67.5,185.5 67.5,184.5 67.5,183.5C 69.3523,180.449 70.6857,177.116 71.5,173.5C 73.0075,171.819 74.0075,169.819 74.5,167.5C 76.4168,164.669 78.0834,161.669 79.5,158.5C 81.0828,156.337 82.4161,154.004 83.5,151.5C 84.1667,151.5 84.5,151.167 84.5,150.5C 92.3209,138.001 101.321,126.335 111.5,115.5C 112.167,115.5 112.5,115.167 112.5,114.5C 113.5,114.167 114.167,113.5 114.5,112.5C 115.167,112.5 115.5,112.167 115.5,111.5C 117.833,109.5 120.167,107.5 122.5,105.5 Z"/></g>
<g><path style="opacity:0.004" fill="#2b2b2b" d="M 79.5,158.5 C 79.1667,158.5 78.8333,158.5 78.5,158.5C 78.8333,155.833 79.1667,155.833 79.5,158.5 Z"/></g>
<g><path style="opacity:0.004" fill="#00ff00" d="M 78.5,158.5 C 77.8333,159.167 77.8333,159.167 78.5,158.5 Z"/></g>
<g><path style="opacity:0.005" fill="#1c1c1c" d="M 436.5,165.5 C 436.167,165.5 435.833,165.5 435.5,165.5C 434.833,165.5 434.5,165.167 434.5,164.5C 435.301,162.207 435.968,162.54 436.5,165.5 Z"/></g>
<g><path style="opacity:0.004" fill="#000000" d="M 436.5,165.5 C 437.525,165.897 437.692,166.563 437,167.5C 436.536,166.906 436.369,166.239 436.5,165.5 Z"/></g>
<g><path style="opacity:0.004" fill="#1e4e16" d="M 74.5,167.5 C 73.475,167.103 73.3083,166.437 74,165.5C 74.4643,166.094 74.631,166.761 74.5,167.5 Z"/></g>
<g><path style="opacity:1" fill="#123227" d="M 344.5,168.5 C 355.425,169.931 359.258,175.931 356,186.5C 354.465,189.294 352.298,191.294 349.5,192.5C 346.116,192.66 342.783,192.327 339.5,191.5C 338.263,191.556 337.263,192.056 336.5,193C 282.5,193.667 228.5,193.667 174.5,193C 172.781,191.943 170.947,191.11 169,190.5C 168.244,188.191 168.744,186.191 170.5,184.5C 170.167,184.167 169.833,183.833 169.5,183.5C 167.867,185.503 165.867,186.836 163.5,187.5C 163.338,185.473 163.505,183.473 164,181.5C 164.718,182.451 165.551,182.617 166.5,182C 164.022,177.044 165.022,172.71 169.5,169C 227.832,168.5 286.166,168.333 344.5,168.5 Z"/></g>
<g><path style="opacity:0.008" fill="#6daa5d" d="M 71.5,173.5 C 71.1667,173.5 70.8333,173.5 70.5,173.5C 70.8333,170.833 71.1667,170.833 71.5,173.5 Z"/></g>
<g><path style="opacity:0.004" fill="#000000" d="M 70.5,173.5 C 70.631,174.239 70.4643,174.906 70,175.5C 69.3083,174.563 69.475,173.897 70.5,173.5 Z"/></g>
<g><path style="opacity:0.004" fill="#000000" d="M 440.5,176.5 C 440.369,175.761 440.536,175.094 441,174.5C 441.692,175.437 441.525,176.103 440.5,176.5 Z"/></g>
<g><path style="opacity:0.004" fill="#fefffe" d="M 441.5,177.5 C 442.833,178.167 442.833,178.167 441.5,177.5 Z"/></g>
<g><path style="opacity:0.008" fill="#527c7b" d="M 67.5,183.5 C 67.1667,183.5 66.8333,183.5 66.5,183.5C 66.8333,179.5 67.1667,179.5 67.5,183.5 Z"/></g>
<g><path style="opacity:0.004" fill="#4e4e4e" d="M 443.5,183.5 C 443.369,182.761 443.536,182.094 444,181.5C 444.692,182.437 444.525,183.103 443.5,183.5 Z"/></g>
<g><path style="opacity:0.004" fill="#000000" d="M 66.5,183.5 C 66.631,184.239 66.4643,184.906 66,185.5C 65.3083,184.563 65.475,183.897 66.5,183.5 Z"/></g>
<g><path style="opacity:0.004" fill="#000000" d="M 444.5,186.5 C 444.369,185.761 444.536,185.094 445,184.5C 445.692,185.437 445.525,186.103 444.5,186.5 Z"/></g>
<g><path style="opacity:0.008" fill="#2b2b2b" d="M 64.5,191.5 C 64.1667,191.5 63.8333,191.5 63.5,191.5C 63.8333,188.833 64.1667,188.833 64.5,191.5 Z"/></g>
<g><path style="opacity:0.004" fill="#b8b8b8" d="M 63.5,191.5 C 63.7373,192.791 63.404,193.791 62.5,194.5C 62.2627,193.209 62.596,192.209 63.5,191.5 Z"/></g>
<g><path style="opacity:1" fill="#083922" d="M 344.5,168.5 C 286.166,168.333 227.832,168.5 169.5,169C 165.022,172.71 164.022,177.044 166.5,182C 165.551,182.617 164.718,182.451 164,181.5C 163.505,183.473 163.338,185.473 163.5,187.5C 165.867,186.836 167.867,185.503 169.5,183.5C 169.833,183.833 170.167,184.167 170.5,184.5C 168.744,186.191 168.244,188.191 169,190.5C 170.947,191.11 172.781,191.943 174.5,193C 228.5,193.667 282.5,193.667 336.5,193C 337.263,192.056 338.263,191.556 339.5,191.5C 342.783,192.327 346.116,192.66 349.5,192.5C 348.391,193.29 347.058,193.79 345.5,194C 286.833,194.667 228.167,194.667 169.5,194C 157.926,185.754 157.592,177.088 168.5,168C 227.335,167.168 286.001,167.335 344.5,168.5 Z"/></g>
<g><path style="opacity:0.004" fill="#000000" d="M 62.5,194.5 C 62.6495,195.552 62.4828,196.552 62,197.5C 61.2599,196.251 61.4265,195.251 62.5,194.5 Z"/></g>
<g><path style="opacity:1" fill="#387a5e" d="M 67.5,186.5 C 67.6641,189.187 67.4974,191.854 67,194.5C 58.0108,220.756 55.0108,247.756 58,275.5C 59.7699,288.624 61.9366,301.624 64.5,314.5C 63.8333,313.5 63.1667,312.5 62.5,311.5C 62.7373,310.209 62.404,309.209 61.5,308.5C 61.7845,306.585 61.4511,304.919 60.5,303.5C 60.7678,301.901 60.4345,300.568 59.5,299.5C 59.2474,295.96 58.5808,292.627 57.5,289.5C 55.2607,268.54 54.9274,247.54 56.5,226.5C 57.4614,224.735 57.7947,222.735 57.5,220.5C 58.3689,218.016 59.0356,215.349 59.5,212.5C 59.4573,211.584 59.1239,210.917 58.5,210.5C 58.3512,207.393 58.8512,204.393 60,201.5C 60.3333,202.833 60.6667,204.167 61,205.5C 62.4822,200.892 63.6489,196.225 64.5,191.5C 65.6873,189.928 66.6873,188.261 67.5,186.5 Z"/></g>
<g><path style="opacity:0.004" fill="#000000" d="M 448.5,198.5 C 448.351,197.448 448.517,196.448 449,195.5C 449.74,196.749 449.573,197.749 448.5,198.5 Z"/></g>
<g><path style="opacity:0.004" fill="#00fffe" d="M 60.5,199.5 C 61.8333,200.167 61.8333,200.167 60.5,199.5 Z"/></g>
<g><path style="opacity:0.004" fill="#000000" d="M 449.5,200.5 C 450.833,201.167 450.833,201.167 449.5,200.5 Z"/></g>
<g><path style="opacity:0.005" fill="#1b1b1b" d="M 452.5,210.5 C 452.167,210.5 451.833,210.5 451.5,210.5C 451.768,208.901 451.434,207.568 450.5,206.5C 450.343,205.127 450.51,203.793 451,202.5C 452.079,205.063 452.579,207.729 452.5,210.5 Z"/></g>
<g><path style="opacity:0.004" fill="#000000" d="M 58.5,210.5 C 58.6495,211.552 58.4828,212.552 58,213.5C 57.2599,212.251 57.4265,211.251 58.5,210.5 Z"/></g>
<g><path style="opacity:0.004" fill="#000000" d="M 452.5,210.5 C 453.833,211.833 453.833,213.167 452.5,214.5C 452.5,213.167 452.5,211.833 452.5,210.5 Z"/></g>
<g><path style="opacity:0.004" fill="#131f11" d="M 57.5,220.5 C 56.5386,222.265 56.2053,224.265 56.5,226.5C 55.3483,222.946 55.515,219.28 57,215.5C 57.4935,217.134 57.6602,218.801 57.5,220.5 Z"/></g>
<g><path style="opacity:1" fill="#0a3a24" d="M 302.5,247.5 C 299.174,245.39 295.508,244.057 291.5,243.5C 289.956,243.79 288.623,244.456 287.5,245.5C 268.816,244.179 249.983,243.513 231,243.5C 212.5,243.667 194,243.833 175.5,244C 173.1,244.186 170.766,244.686 168.5,245.5C 167.985,247.225 167.318,248.892 166.5,250.5C 165.808,249.975 165.308,249.308 165,248.5C 162.924,251.217 162.257,254.217 163,257.5C 164.456,260.032 165.623,262.699 166.5,265.5C 160.412,259.421 159.912,252.754 165,245.5C 166.833,244.333 168.667,243.167 170.5,242C 211.5,241.333 252.5,241.333 293.5,242C 297.2,242.843 300.2,244.676 302.5,247.5 Z"/></g>
<g><path style="opacity:1" fill="#123428" d="M 302.5,247.5 C 303.966,248.347 304.8,249.68 305,251.5C 306.073,260.025 302.573,265.691 294.5,268.5C 253.171,269.667 211.837,269.833 170.5,269C 168.676,268.34 167.343,267.173 166.5,265.5C 165.623,262.699 164.456,260.032 163,257.5C 162.257,254.217 162.924,251.217 165,248.5C 165.308,249.308 165.808,249.975 166.5,250.5C 167.318,248.892 167.985,247.225 168.5,245.5C 170.766,244.686 173.1,244.186 175.5,244C 194,243.833 212.5,243.667 231,243.5C 249.983,243.513 268.816,244.179 287.5,245.5C 288.623,244.456 289.956,243.79 291.5,243.5C 295.508,244.057 299.174,245.39 302.5,247.5 Z"/></g>
<g><path style="opacity:1" fill="#12804d" d="M 86.5,223.5 C 84.8117,237.098 84.1451,250.765 84.5,264.5C 83.3417,254.675 83.1751,244.675 84,234.5C 84.4188,230.608 85.2521,226.942 86.5,223.5 Z"/></g>
<g><path style="opacity:0.008" fill="#141414" d="M 454.5,282.5 C 455.833,284.833 455.833,287.167 454.5,289.5C 454.5,287.167 454.5,284.833 454.5,282.5 Z"/></g>
<g><path style="opacity:0.004" fill="#000000" d="M 57.5,289.5 C 57.6602,291.199 57.4935,292.866 57,294.5C 56.2204,292.613 56.3871,290.946 57.5,289.5 Z"/></g>
<g><path style="opacity:0.004" fill="#000000" d="M 454.5,289.5 C 454.657,290.873 454.49,292.207 454,293.5C 453.235,291.934 453.402,290.601 454.5,289.5 Z"/></g>
<g><path style="opacity:0.004" fill="#000000" d="M 58.5,299.5 C 57.4265,298.749 57.2599,297.749 58,296.5C 58.4828,297.448 58.6495,298.448 58.5,299.5 Z"/></g>
<g><path style="opacity:0.004" fill="#000000" d="M 452.5,299.5 C 452.351,298.448 452.517,297.448 453,296.5C 453.74,297.749 453.573,298.749 452.5,299.5 Z"/></g>
<g><path style="opacity:0.004" fill="#172c1f" d="M 58.5,299.5 C 58.8333,299.5 59.1667,299.5 59.5,299.5C 59.2322,301.099 59.5655,302.432 60.5,303.5C 60.5,305.167 60.5,306.833 60.5,308.5C 59.087,305.781 58.4203,302.781 58.5,299.5 Z"/></g>
<g><path style="opacity:0.004" fill="#24a218" d="M 60.5,308.5 C 60.8333,308.5 61.1667,308.5 61.5,308.5C 61.1667,311.167 60.8333,311.167 60.5,308.5 Z"/></g>
<g><path style="opacity:0.004" fill="#000000" d="M 449.5,309.5 C 450.833,310.167 450.833,310.167 449.5,309.5 Z"/></g>
<g><path style="opacity:0.004" fill="#000000" d="M 62.5,311.5 C 62.6495,312.552 62.4828,313.552 62,314.5C 61.2599,313.251 61.4265,312.251 62.5,311.5 Z"/></g>
<g><path style="opacity:0.004" fill="#000000" d="M 448.5,312.5 C 449.833,313.5 449.833,314.5 448.5,315.5C 448.5,314.5 448.5,313.5 448.5,312.5 Z"/></g>
<g><path style="opacity:0.004" fill="#3b3b3b" d="M 447.5,315.5 C 447.833,315.5 448.167,315.5 448.5,315.5C 448.737,316.791 448.404,317.791 447.5,318.5C 447.5,317.5 447.5,316.5 447.5,315.5 Z"/></g>
<g><path style="opacity:0.004" fill="#37b859" d="M 63.5,318.5 C 62.4265,317.749 62.2599,316.749 63,315.5C 63.4828,316.448 63.6495,317.448 63.5,318.5 Z"/></g>
<g><path style="opacity:0.004" fill="#a2a2a2" d="M 63.5,318.5 C 63.8333,318.5 64.1667,318.5 64.5,318.5C 64.1667,321.167 63.8333,321.167 63.5,318.5 Z"/></g>
<g><path style="opacity:0.008" fill="#7b7b7b" d="M 446.5,318.5 C 446.833,318.5 447.167,318.5 447.5,318.5C 447.737,319.791 447.404,320.791 446.5,321.5C 446.5,320.5 446.5,319.5 446.5,318.5 Z"/></g>
<g><path style="opacity:0.004" fill="#fefffe" d="M 64.5,321.5 C 65.8333,322.167 65.8333,322.167 64.5,321.5 Z"/></g>
<g><path style="opacity:1" fill="#123227" d="M 348.5,341.5 C 347.167,341.5 345.833,341.5 344.5,341.5C 286.832,341.667 229.166,341.5 171.5,341C 168.982,339.498 166.482,337.998 164,336.5C 162.759,331.38 162.593,326.38 163.5,321.5C 164.478,318.029 166.812,316.195 170.5,316C 229.167,315.333 287.833,315.333 346.5,316C 355.101,319.369 358.268,325.535 356,334.5C 353.604,337.067 351.104,339.4 348.5,341.5 Z"/></g>
<g><path style="opacity:0.004" fill="#25a2a2" d="M 445.5,321.5 C 445.833,321.5 446.167,321.5 446.5,321.5C 446.167,324.167 445.833,324.167 445.5,321.5 Z"/></g>
<g><path style="opacity:0.004" fill="#000000" d="M 66.5,326.5 C 65.475,326.103 65.3083,325.437 66,324.5C 66.4643,325.094 66.631,325.761 66.5,326.5 Z"/></g>
<g><path style="opacity:0.004" fill="#000000" d="M 444.5,324.5 C 445.525,324.897 445.692,325.563 445,326.5C 444.536,325.906 444.369,325.239 444.5,324.5 Z"/></g>
<g><path style="opacity:0.008" fill="#187b7b" d="M 66.5,326.5 C 66.8333,326.5 67.1667,326.5 67.5,326.5C 67.5,327.5 67.5,328.5 67.5,329.5C 66.596,328.791 66.2627,327.791 66.5,326.5 Z"/></g>
<g><path style="opacity:0.439" fill="#5f8d7b" d="M 64.5,314.5 C 67.6969,320.399 70.0303,326.733 71.5,333.5C 70.8333,332.833 70.1667,332.167 69.5,331.5C 69.6716,330.508 69.3382,329.842 68.5,329.5C 68.7373,328.209 68.404,327.209 67.5,326.5C 67.2671,323.458 66.2671,320.792 64.5,318.5C 64.5,317.167 64.5,315.833 64.5,314.5 Z"/></g>
<g><path style="opacity:0.004" fill="#a2a2a2" d="M 443.5,329.5 C 443.369,328.761 443.536,328.094 444,327.5C 444.692,328.437 444.525,329.103 443.5,329.5 Z"/></g>
<g><path style="opacity:0.004" fill="#b7d3d2" d="M 67.5,329.5 C 67.8333,329.5 68.1667,329.5 68.5,329.5C 68.5,330.167 68.5,330.833 68.5,331.5C 67.6618,331.158 67.3284,330.492 67.5,329.5 Z"/></g>
<g><path style="opacity:0.004" fill="#a2a2a2" d="M 442.5,329.5 C 442.833,329.5 443.167,329.5 443.5,329.5C 443.672,330.492 443.338,331.158 442.5,331.5C 442.5,330.833 442.5,330.167 442.5,329.5 Z"/></g>
<g><path style="opacity:0.004" fill="#1f4e4e" d="M 68.5,331.5 C 68.8333,331.5 69.1667,331.5 69.5,331.5C 69.1667,334.167 68.8333,334.167 68.5,331.5 Z"/></g>
<g><path style="opacity:0.004" fill="#a2a2a2" d="M 441.5,331.5 C 441.833,331.5 442.167,331.5 442.5,331.5C 442.167,334.167 441.833,334.167 441.5,331.5 Z"/></g>
<g><path style="opacity:0.004" fill="#000000" d="M 70.5,336.5 C 69.475,336.103 69.3083,335.437 70,334.5C 70.4643,335.094 70.631,335.761 70.5,336.5 Z"/></g>
<g><path style="opacity:0.004" fill="#000000" d="M 440.5,334.5 C 441.833,335.167 441.833,335.833 440.5,336.5C 440.5,335.833 440.5,335.167 440.5,334.5 Z"/></g>
<g><path style="opacity:0.004" fill="#25a2a2" d="M 70.5,336.5 C 70.8333,336.5 71.1667,336.5 71.5,336.5C 71.5,337.167 71.5,337.833 71.5,338.5C 70.6618,338.158 70.3284,337.492 70.5,336.5 Z"/></g>
<g><path style="opacity:0.008" fill="#535353" d="M 439.5,336.5 C 439.833,336.5 440.167,336.5 440.5,336.5C 440.672,337.492 440.338,338.158 439.5,338.5C 439.5,337.833 439.5,337.167 439.5,336.5 Z"/></g>
<g><path style="opacity:0.004" fill="#25a2a2" d="M 71.5,338.5 C 71.8333,338.5 72.1667,338.5 72.5,338.5C 72.5,339.167 72.5,339.833 72.5,340.5C 71.6618,340.158 71.3284,339.492 71.5,338.5 Z"/></g>
<g><path style="opacity:0.008" fill="#535353" d="M 438.5,338.5 C 438.833,338.5 439.167,338.5 439.5,338.5C 439.672,339.492 439.338,340.158 438.5,340.5C 438.5,339.833 438.5,339.167 438.5,338.5 Z"/></g>
<g><path style="opacity:0.004" fill="#000000" d="M 72.5,340.5 C 72.8333,340.5 73.1667,340.5 73.5,340.5C 73.3147,341.17 72.9813,341.17 72.5,340.5 Z"/></g>
<g><path style="opacity:0.004" fill="#000000" d="M 437.5,340.5 C 437.833,340.5 438.167,340.5 438.5,340.5C 438.167,343.167 437.833,343.167 437.5,340.5 Z"/></g>
<g><path style="opacity:1" fill="#023e1f" d="M 163.5,321.5 C 162.593,326.38 162.759,331.38 164,336.5C 166.482,337.998 168.982,339.498 171.5,341C 229.166,341.5 286.832,341.667 344.5,341.5C 286.669,342.499 228.669,342.832 170.5,342.5C 162.509,338.749 159.343,332.415 161,323.5C 161.708,322.619 162.542,321.953 163.5,321.5 Z"/></g>
<g><path style="opacity:1" fill="#11804f" d="M 344.5,341.5 C 345.833,341.5 347.167,341.5 348.5,341.5C 347.737,342.268 346.737,342.768 345.5,343C 286.999,343.832 228.665,343.665 170.5,342.5C 228.669,342.832 286.669,342.499 344.5,341.5 Z"/></g>
<g><path style="opacity:0.004" fill="#000000" d="M 436.5,343.5 C 437.833,344.167 437.833,344.167 436.5,343.5 Z"/></g>
<g><path style="opacity:0.004" fill="#25a2a2" d="M 75.5,344.5 C 75.631,345.239 75.4643,345.906 75,346.5C 74.3083,345.563 74.475,344.897 75.5,344.5 Z"/></g>
<g><path style="opacity:0.008" fill="#000000" d="M 435.5,345.5 C 436.833,346.167 436.833,346.167 435.5,345.5 Z"/></g>
<g><path style="opacity:0.008" fill="#535353" d="M 434.5,346.5 C 434.833,346.5 435.167,346.5 435.5,346.5C 435.672,347.492 435.338,348.158 434.5,348.5C 434.5,347.833 434.5,347.167 434.5,346.5 Z"/></g>
<g><path style="opacity:0.004" fill="#000000" d="M 77.5,348.5 C 76.8333,349.167 76.8333,349.167 77.5,348.5 Z"/></g>
<g><path style="opacity:0.008" fill="#000000" d="M 433.5,348.5 C 433.833,348.5 434.167,348.5 434.5,348.5C 434.315,349.17 433.981,349.17 433.5,348.5 Z"/></g>
<g><path style="opacity:0.004" fill="#14240e" d="M 77.5,350.5 C 78.6225,352.288 78.7891,354.288 78,356.5C 77.5045,354.527 77.3379,352.527 77.5,350.5 Z"/></g>
<g><path style="opacity:0.004" fill="#000000" d="M 432.5,350.5 C 433.833,351.167 433.833,351.833 432.5,352.5C 432.5,351.833 432.5,351.167 432.5,350.5 Z"/></g>
<g><path style="opacity:0.006" fill="#000000" d="M 431.5,352.5 C 431.833,352.5 432.167,352.5 432.5,352.5C 432.672,353.492 432.338,354.158 431.5,354.5C 431.5,353.833 431.5,353.167 431.5,352.5 Z"/></g>
<g><path style="opacity:0.008" fill="#7f807f" d="M 430.5,354.5 C 430.833,354.5 431.167,354.5 431.5,354.5C 431.315,355.17 430.981,355.17 430.5,354.5 Z"/></g>
<g><path style="opacity:0.004" fill="#0e1f1f" d="M 429.5,355.5 C 429.833,355.5 430.167,355.5 430.5,355.5C 430.672,356.492 430.338,357.158 429.5,357.5C 429.5,356.833 429.5,356.167 429.5,355.5 Z"/></g>
<g><path style="opacity:0.004" fill="#000000" d="M 428.5,357.5 C 428.833,357.5 429.167,357.5 429.5,357.5C 429.672,358.492 429.338,359.158 428.5,359.5C 428.5,358.833 428.5,358.167 428.5,357.5 Z"/></g>
<g><path style="opacity:0.012" fill="#005500" d="M 427.5,359.5 C 427.833,359.5 428.167,359.5 428.5,359.5C 428.315,360.17 427.981,360.17 427.5,359.5 Z"/></g>
<g><path style="opacity:0.008" fill="#145453" d="M 426.5,360.5 C 426.833,360.5 427.167,360.5 427.5,360.5C 427.672,361.492 427.338,362.158 426.5,362.5C 426.5,361.833 426.5,361.167 426.5,360.5 Z"/></g>
<g><path style="opacity:0.008" fill="#008000" d="M 425.5,362.5 C 425.833,362.5 426.167,362.5 426.5,362.5C 426.315,363.17 425.981,363.17 425.5,362.5 Z"/></g>
<g><path style="opacity:0.004" fill="#000000" d="M 424.5,363.5 C 424.833,363.5 425.167,363.5 425.5,363.5C 425.672,364.492 425.338,365.158 424.5,365.5C 424.5,364.833 424.5,364.167 424.5,363.5 Z"/></g>
<g><path style="opacity:0.008" fill="#3f3f3f" d="M 75.5,366.5 C 74.4265,365.749 74.2599,364.749 75,363.5C 75.4828,364.448 75.6495,365.448 75.5,366.5 Z"/></g>
<g><path style="opacity:0.006" fill="#000000" d="M 423.5,365.5 C 423.833,365.5 424.167,365.5 424.5,365.5C 424.672,366.492 424.338,367.158 423.5,367.5C 423.5,366.833 423.5,366.167 423.5,365.5 Z"/></g>
<g><path style="opacity:0.004" fill="#000000" d="M 73.5,367.5 C 74.525,367.897 74.6917,368.563 74,369.5C 73.5357,368.906 73.369,368.239 73.5,367.5 Z"/></g>
<g><path style="opacity:0.008" fill="#008000" d="M 422.5,367.5 C 422.833,367.5 423.167,367.5 423.5,367.5C 423.315,368.17 422.981,368.17 422.5,367.5 Z"/></g>
<g><path style="opacity:0.008" fill="#000000" d="M 421.5,368.5 C 421.833,368.5 422.167,368.5 422.5,368.5C 422.315,369.17 421.981,369.17 421.5,368.5 Z"/></g>
<g><path style="opacity:0.004" fill="#000000" d="M 420.5,370.5 C 421.833,371.167 421.833,371.167 420.5,370.5 Z"/></g>
<g><path style="opacity:0.005" fill="#000000" d="M 419.5,371.5 C 419.833,371.5 420.167,371.5 420.5,371.5C 420.573,373.027 419.906,374.027 418.5,374.5C 418.5,373.833 418.5,373.167 418.5,372.5C 419.167,372.5 419.5,372.167 419.5,371.5 Z"/></g>
<g><path style="opacity:0.004" fill="#000000" d="M 417.5,374.5 C 417.833,374.5 418.167,374.5 418.5,374.5C 418.315,375.17 417.981,375.17 417.5,374.5 Z"/></g>
<g><path style="opacity:0.004" fill="#000000" d="M 416.5,375.5 C 416.833,375.5 417.167,375.5 417.5,375.5C 417.315,376.17 416.981,376.17 416.5,375.5 Z"/></g>
<g><path style="opacity:0.569" fill="#5c796f" d="M 79.5,357.5 C 79.6621,359.527 79.4955,361.527 79,363.5C 76.8046,370.724 74.3046,377.724 71.5,384.5C 71.5,383.167 71.5,381.833 71.5,380.5C 73.7462,376.195 75.0795,371.529 75.5,366.5C 77.1136,363.608 78.4469,360.608 79.5,357.5 Z"/></g>
<g><path style="opacity:0.004" fill="#000000" d="M 415.5,377.5 C 416.833,378.167 416.833,378.167 415.5,377.5 Z"/></g>
<g><path style="opacity:0.008" fill="#7b7b7b" d="M 71.5,380.5 C 71.1667,380.5 70.8333,380.5 70.5,380.5C 70.8333,376.5 71.1667,376.5 71.5,380.5 Z"/></g>
<g><path style="opacity:0.004" fill="#000000" d="M 414.5,378.5 C 414.833,378.5 415.167,378.5 415.5,378.5C 415.315,379.17 414.981,379.17 414.5,378.5 Z"/></g>
<g><path style="opacity:0.004" fill="#000000" d="M 413.5,379.5 C 413.833,379.5 414.167,379.5 414.5,379.5C 414.315,380.17 413.981,380.17 413.5,379.5 Z"/></g>
<g><path style="opacity:0.004" fill="#000000" d="M 70.5,380.5 C 70.6495,381.552 70.4828,382.552 70,383.5C 69.2599,382.251 69.4265,381.251 70.5,380.5 Z"/></g>
<g><path style="opacity:0.004" fill="#000000" d="M 412.5,381.5 C 413.833,382.167 413.833,382.167 412.5,381.5 Z"/></g>
<g><path style="opacity:0.004" fill="#000000" d="M 411.5,382.5 C 411.833,382.5 412.167,382.5 412.5,382.5C 412.315,383.17 411.981,383.17 411.5,382.5 Z"/></g>
<g><path style="opacity:0.004" fill="#000000" d="M 410.5,383.5 C 410.833,383.5 411.167,383.5 411.5,383.5C 411.315,384.17 410.981,384.17 410.5,383.5 Z"/></g>
<g><path style="opacity:0.004" fill="#000000" d="M 409.5,384.5 C 409.833,384.5 410.167,384.5 410.5,384.5C 410.315,385.17 409.981,385.17 409.5,384.5 Z"/></g>
<g><path style="opacity:0.004" fill="#000000" d="M 408.5,385.5 C 408.833,385.5 409.167,385.5 409.5,385.5C 409.315,386.17 408.981,386.17 408.5,385.5 Z"/></g>
<g><path style="opacity:0.004" fill="#000000" d="M 407.5,386.5 C 407.833,386.5 408.167,386.5 408.5,386.5C 407.968,389.46 407.301,389.793 406.5,387.5C 407.167,387.5 407.5,387.167 407.5,386.5 Z"/></g>
<g><path style="opacity:0.008" fill="#3f3f3f" d="M 68.5,390.5 C 68.1667,390.5 67.8333,390.5 67.5,390.5C 67.8333,386.5 68.1667,386.5 68.5,390.5 Z"/></g>
<g><path style="opacity:0.459" fill="#728883" d="M 71.5,384.5 C 71.5644,389.344 70.231,393.678 67.5,397.5C 67.9926,395.194 68.3259,392.861 68.5,390.5C 69.5,388.5 70.5,386.5 71.5,384.5 Z"/></g>
<g><path style="opacity:0.008" fill="#7b7b7b" d="M 67.5,390.5 C 67.6495,391.552 67.4828,392.552 67,393.5C 66.2599,392.251 66.4265,391.251 67.5,390.5 Z"/></g>
<g><path style="opacity:0.008" fill="#7f807f" d="M 403.5,391.5 C 404.833,392.167 404.833,392.167 403.5,391.5 Z"/></g>
<g><path style="opacity:0.008" fill="#7f807f" d="M 402.5,392.5 C 402.833,392.5 403.167,392.5 403.5,392.5C 403.315,393.17 402.981,393.17 402.5,392.5 Z"/></g>
<g><path style="opacity:0.008" fill="#7f807f" d="M 401.5,393.5 C 401.833,393.5 402.167,393.5 402.5,393.5C 402.315,394.17 401.981,394.17 401.5,393.5 Z"/></g>
<g><path style="opacity:0.004" fill="#000000" d="M 66.5,397.5 C 65.4265,396.749 65.2599,395.749 66,394.5C 66.4828,395.448 66.6495,396.448 66.5,397.5 Z"/></g>
<g><path style="opacity:0.008" fill="#00807f" d="M 400.5,394.5 C 400.833,394.5 401.167,394.5 401.5,394.5C 401.315,395.17 400.981,395.17 400.5,394.5 Z"/></g>
<g><path style="opacity:0.012" fill="#000000" d="M 399.5,395.5 C 399.833,395.5 400.167,395.5 400.5,395.5C 400.315,396.17 399.981,396.17 399.5,395.5 Z"/></g>
<g><path style="opacity:0.008" fill="#000000" d="M 398.5,396.5 C 398.833,396.5 399.167,396.5 399.5,396.5C 399.315,397.17 398.981,397.17 398.5,396.5 Z"/></g>
<g><path style="opacity:0.008" fill="#000000" d="M 397.5,397.5 C 397.833,397.5 398.167,397.5 398.5,397.5C 398.315,398.17 397.981,398.17 397.5,397.5 Z"/></g>
<g><path style="opacity:0.008" fill="#000000" d="M 396.5,398.5 C 396.833,398.5 397.167,398.5 397.5,398.5C 397.315,399.17 396.981,399.17 396.5,398.5 Z"/></g>
<g><path style="opacity:0.008" fill="#00807f" d="M 395.5,399.5 C 395.833,399.5 396.167,399.5 396.5,399.5C 396.315,400.17 395.981,400.17 395.5,399.5 Z"/></g>
<g><path style="opacity:0.008" fill="#7f807f" d="M 394.5,400.5 C 394.833,400.5 395.167,400.5 395.5,400.5C 395.315,401.17 394.981,401.17 394.5,400.5 Z"/></g>
<g><path style="opacity:0.008" fill="#7f807f" d="M 393.5,401.5 C 393.833,401.5 394.167,401.5 394.5,401.5C 394.315,402.17 393.981,402.17 393.5,401.5 Z"/></g>
<g><path style="opacity:0.008" fill="#7b7b7b" d="M 64.5,404.5 C 64.1667,404.5 63.8333,404.5 63.5,404.5C 63.8333,400.5 64.1667,400.5 64.5,404.5 Z"/></g>
<g><path style="opacity:0.008" fill="#7f807f" d="M 392.5,402.5 C 392.833,402.5 393.167,402.5 393.5,402.5C 393.315,403.17 392.981,403.17 392.5,402.5 Z"/></g>
<g><path style="opacity:0.008" fill="#7f807f" d="M 391.5,403.5 C 391.833,403.5 392.167,403.5 392.5,403.5C 392.315,404.17 391.981,404.17 391.5,403.5 Z"/></g>
<g><path style="opacity:0.004" fill="#434343" d="M 63.5,404.5 C 63.6602,406.199 63.4935,407.866 63,409.5C 62.2204,407.613 62.3871,405.946 63.5,404.5 Z"/></g>
<g><path style="opacity:0.004" fill="#000000" d="M 387.5,406.5 C 389.793,407.301 389.46,407.968 386.5,408.5C 386.5,408.167 386.5,407.833 386.5,407.5C 387.167,407.5 387.5,407.167 387.5,406.5 Z"/></g>
<g><path style="opacity:0.004" fill="#000000" d="M 385.5,408.5 C 385.833,408.5 386.167,408.5 386.5,408.5C 386.315,409.17 385.981,409.17 385.5,408.5 Z"/></g>
<g><path style="opacity:0.004" fill="#000000" d="M 384.5,409.5 C 384.833,409.5 385.167,409.5 385.5,409.5C 385.315,410.17 384.981,410.17 384.5,409.5 Z"/></g>
<g><path style="opacity:0.004" fill="#000000" d="M 61.5,410.5 C 62.6291,412.628 62.7958,414.961 62,417.5C 61.5034,415.19 61.3367,412.857 61.5,410.5 Z"/></g>
<g><path style="opacity:0.004" fill="#000000" d="M 383.5,410.5 C 383.833,410.5 384.167,410.5 384.5,410.5C 384.315,411.17 383.981,411.17 383.5,410.5 Z"/></g>
<g><path style="opacity:0.004" fill="#000000" d="M 382.5,411.5 C 382.833,411.5 383.167,411.5 383.5,411.5C 383.315,412.17 382.981,412.17 382.5,411.5 Z"/></g>
<g><path style="opacity:1" fill="#0fa65f" d="M 311.5,417.5 C 307.452,419.462 303.119,420.962 298.5,422C 272.15,428.721 245.817,429.221 219.5,423.5C 237.445,425.409 255.445,425.909 273.5,425C 281.713,423.975 289.713,422.308 297.5,420C 294.654,416.497 291.154,415.664 287,417.5C 287.251,415.092 288.751,413.758 291.5,413.5C 293.777,414.478 296.11,415.145 298.5,415.5C 298.5,416.833 298.5,418.167 298.5,419.5C 302.86,418.993 307.193,418.327 311.5,417.5 Z"/></g>
<g><path style="opacity:0.004" fill="#000000" d="M 379.5,413.5 C 380.833,414.167 380.833,414.167 379.5,413.5 Z"/></g>
<g><path style="opacity:0.004" fill="#000000" d="M 378.5,414.5 C 378.833,414.5 379.167,414.5 379.5,414.5C 379.315,415.17 378.981,415.17 378.5,414.5 Z"/></g>
<g><path style="opacity:0.004" fill="#000000" d="M 376.5,416.5 C 376.5,416.167 376.5,415.833 376.5,415.5C 377.167,415.5 377.833,415.5 378.5,415.5C 378.158,416.338 377.492,416.672 376.5,416.5 Z"/></g>
<g><path style="opacity:0.004" fill="#000000" d="M 375.5,416.5 C 375.833,416.5 376.167,416.5 376.5,416.5C 376.315,417.17 375.981,417.17 375.5,416.5 Z"/></g>
<g><path style="opacity:0.004" fill="#000000" d="M 374.5,417.5 C 374.833,417.5 375.167,417.5 375.5,417.5C 375.315,418.17 374.981,418.17 374.5,417.5 Z"/></g>
<g><path style="opacity:0.004" fill="#292929" d="M 63.5,423.5 C 62.3871,422.054 62.2204,420.387 63,418.5C 63.4935,420.134 63.6602,421.801 63.5,423.5 Z"/></g>
<g><path style="opacity:0.004" fill="#000000" d="M 372.5,419.5 C 372.5,419.167 372.5,418.833 372.5,418.5C 373.167,418.5 373.833,418.5 374.5,418.5C 374.158,419.338 373.492,419.672 372.5,419.5 Z"/></g>
<g><path style="opacity:0.008" fill="#000000" d="M 371.5,419.5 C 371.833,419.5 372.167,419.5 372.5,419.5C 372.315,420.17 371.981,420.17 371.5,419.5 Z"/></g>
<g><path style="opacity:0.004" fill="#000000" d="M 371.5,420.5 C 370.833,421.167 370.833,421.167 371.5,420.5 Z"/></g>
<g><path style="opacity:0.004" fill="#000000" d="M 368.5,421.5 C 369.833,422.167 369.833,422.167 368.5,421.5 Z"/></g>
<g><path style="opacity:0.006" fill="#000000" d="M 366.5,423.5 C 366.5,423.167 366.5,422.833 366.5,422.5C 367.167,422.5 367.833,422.5 368.5,422.5C 368.158,423.338 367.492,423.672 366.5,423.5 Z"/></g>
<g><path style="opacity:0.012" fill="#000000" d="M 365.5,423.5 C 365.833,423.5 366.167,423.5 366.5,423.5C 366.315,424.17 365.981,424.17 365.5,423.5 Z"/></g>
<g><path style="opacity:0.004" fill="#a2a2a2" d="M 63.5,423.5 C 63.8333,423.5 64.1667,423.5 64.5,423.5C 64.5,424.167 64.5,424.833 64.5,425.5C 63.6618,425.158 63.3284,424.492 63.5,423.5 Z"/></g>
<g><path style="opacity:0.004" fill="#a2a2a2" d="M 64.5,425.5 C 64.8333,425.5 65.1667,425.5 65.5,425.5C 65.1667,428.167 64.8333,428.167 64.5,425.5 Z"/></g>
<g><path style="opacity:0.004" fill="#0a1615" d="M 358.5,427.5 C 360.975,427.747 360.975,428.413 358.5,429.5C 357.893,429.376 357.56,429.043 357.5,428.5C 358.167,428.5 358.5,428.167 358.5,427.5 Z"/></g>
<g><path style="opacity:0.004" fill="#000000" d="M 65.5,428.5 C 66.8333,429.167 66.8333,429.167 65.5,428.5 Z"/></g>
<g><path style="opacity:0.012" fill="#545554" d="M 355.5,429.5 C 356.833,430.167 356.833,430.167 355.5,429.5 Z"/></g>
<g><path style="opacity:0.004" fill="#000000" d="M 67.5,431.5 C 66.8333,430.167 66.8333,430.167 67.5,431.5 Z"/></g>
<g><path style="opacity:0.008" fill="#535353" d="M 353.5,431.5 C 353.5,431.167 353.5,430.833 353.5,430.5C 354.167,430.5 354.833,430.5 355.5,430.5C 355.158,431.338 354.492,431.672 353.5,431.5 Z"/></g>
<g><path style="opacity:0.008" fill="#717f6f" d="M 159.5,432.5 C 158.127,432.657 156.793,432.49 155.5,432C 157.066,431.235 158.399,431.402 159.5,432.5 Z"/></g>
<g><path style="opacity:0.008" fill="#000000" d="M 352.5,431.5 C 352.833,431.5 353.167,431.5 353.5,431.5C 353.315,432.17 352.981,432.17 352.5,431.5 Z"/></g>
<g><path style="opacity:0.004" fill="#25a2a2" d="M 67.5,431.5 C 67.8333,431.5 68.1667,431.5 68.5,431.5C 68.1667,434.167 67.8333,434.167 67.5,431.5 Z"/></g>
<g><path style="opacity:0.004" fill="#000000" d="M 152.5,433.5 C 152.897,432.475 153.563,432.308 154.5,433C 153.906,433.464 153.239,433.631 152.5,433.5 Z"/></g>
<g><path style="opacity:0.004" fill="#25a2a2" d="M 159.5,432.5 C 160.167,432.5 160.833,432.5 161.5,432.5C 160.833,433.833 160.167,433.833 159.5,432.5 Z"/></g>
<g><path style="opacity:0.004" fill="#000000" d="M 350.5,432.5 C 351.167,432.5 351.833,432.5 352.5,432.5C 351.833,433.833 351.167,433.833 350.5,432.5 Z"/></g>
<g><path style="opacity:0.008" fill="#3f3f3f" d="M 147.5,434.5 C 147.5,434.167 147.5,433.833 147.5,433.5C 151.5,433.833 151.5,434.167 147.5,434.5 Z"/></g>
<g><path style="opacity:0.008" fill="#000000" d="M 348.5,433.5 C 349.833,434.167 349.833,434.167 348.5,433.5 Z"/></g>
<g><path style="opacity:0.012" fill="#656565" d="M 144.5,435.5 C 144.5,435.167 144.5,434.833 144.5,434.5C 145.5,434.5 146.5,434.5 147.5,434.5C 146.791,435.404 145.791,435.737 144.5,435.5 Z"/></g>
<g><path style="opacity:0.004" fill="#a2a2a2" d="M 346.5,435.5 C 346.5,435.167 346.5,434.833 346.5,434.5C 347.167,434.5 347.833,434.5 348.5,434.5C 348.158,435.338 347.492,435.672 346.5,435.5 Z"/></g>
<g><path style="opacity:0.008" fill="#7b7b7b" d="M 141.5,436.5 C 141.5,436.167 141.5,435.833 141.5,435.5C 142.5,435.5 143.5,435.5 144.5,435.5C 143.791,436.404 142.791,436.737 141.5,436.5 Z"/></g>
<g><path style="opacity:0.008" fill="#145453" d="M 344.5,436.5 C 344.5,436.167 344.5,435.833 344.5,435.5C 345.167,435.5 345.833,435.5 346.5,435.5C 346.158,436.338 345.492,436.672 344.5,436.5 Z"/></g>
<g><path style="opacity:0.004" fill="#000000" d="M 141.5,436.5 C 140.749,437.573 139.749,437.74 138.5,437C 139.448,436.517 140.448,436.351 141.5,436.5 Z"/></g>
<g><path style="opacity:0.004" fill="#1e4e16" d="M 169.5,436.5 C 169.103,437.525 168.437,437.692 167.5,437C 168.094,436.536 168.761,436.369 169.5,436.5 Z"/></g>
<g><path style="opacity:0.004" fill="#000000" d="M 342.5,437.5 C 342.5,437.167 342.5,436.833 342.5,436.5C 343.167,436.5 343.833,436.5 344.5,436.5C 344.158,437.338 343.492,437.672 342.5,437.5 Z"/></g>
<g><path style="opacity:0.004" fill="#a2a2a2" d="M 134.5,438.5 C 134.5,438.167 134.5,437.833 134.5,437.5C 137.167,437.833 137.167,438.167 134.5,438.5 Z"/></g>
<g><path style="opacity:0.004" fill="#000000" d="M 340.5,438.5 C 340.5,438.167 340.5,437.833 340.5,437.5C 341.167,437.5 341.833,437.5 342.5,437.5C 342.158,438.338 341.492,438.672 340.5,438.5 Z"/></g>
<g><path style="opacity:0.929" fill="#687872" d="M 131.5,437.5 C 131.5,437.833 131.5,438.167 131.5,438.5C 130.209,438.263 129.209,438.596 128.5,439.5C 125.848,439.41 123.515,440.076 121.5,441.5C 120.209,441.263 119.209,441.596 118.5,442.5C 117.209,442.263 116.209,442.596 115.5,443.5C 114.167,443.5 112.833,443.5 111.5,443.5C 117.43,439.4 124.096,437.4 131.5,437.5 Z"/></g>
<g><path style="opacity:0.008" fill="#7b7b7b" d="M 131.5,439.5 C 131.5,439.167 131.5,438.833 131.5,438.5C 132.5,438.5 133.5,438.5 134.5,438.5C 133.791,439.404 132.791,439.737 131.5,439.5 Z"/></g>
<g><path style="opacity:0.004" fill="#a2a2a2" d="M 338.5,439.5 C 338.5,439.167 338.5,438.833 338.5,438.5C 339.167,438.5 339.833,438.5 340.5,438.5C 340.158,439.338 339.492,439.672 338.5,439.5 Z"/></g>
<g><path style="opacity:0.008" fill="#7b7b7b" d="M 128.5,440.5 C 128.5,440.167 128.5,439.833 128.5,439.5C 129.5,439.5 130.5,439.5 131.5,439.5C 130.791,440.404 129.791,440.737 128.5,440.5 Z"/></g>
<g><path style="opacity:0.008" fill="#6ea9a8" d="M 175.5,439.5 C 175.5,439.833 175.5,440.167 175.5,440.5C 172.833,440.167 172.833,439.833 175.5,439.5 Z"/></g>
<g><path style="opacity:0.004" fill="#a3a21a" d="M 336.5,440.5 C 336.5,440.167 336.5,439.833 336.5,439.5C 337.167,439.5 337.833,439.5 338.5,439.5C 338.158,440.338 337.492,440.672 336.5,440.5 Z"/></g>
<g><path style="opacity:0.004" fill="#00fffe" d="M 76.5,440.5 C 75.8333,441.167 75.8333,441.167 76.5,440.5 Z"/></g>
<g><path style="opacity:0.004" fill="#000000" d="M 128.5,440.5 C 127.749,441.573 126.749,441.74 125.5,441C 126.448,440.517 127.448,440.351 128.5,440.5 Z"/></g>
<g><path style="opacity:0.004" fill="#000000" d="M 175.5,440.5 C 176.239,440.369 176.906,440.536 177.5,441C 176.563,441.692 175.897,441.525 175.5,440.5 Z"/></g>
<g><path style="opacity:0.004" fill="#000000" d="M 336.5,440.5 C 336.103,441.525 335.437,441.692 334.5,441C 335.094,440.536 335.761,440.369 336.5,440.5 Z"/></g>
<g><path style="opacity:0.004" fill="#a2a2a2" d="M 121.5,442.5 C 121.5,442.167 121.5,441.833 121.5,441.5C 124.167,441.833 124.167,442.167 121.5,442.5 Z"/></g>
<g><path style="opacity:0.004" fill="#1f4e4e" d="M 331.5,442.5 C 331.5,442.167 331.5,441.833 331.5,441.5C 334.167,441.833 334.167,442.167 331.5,442.5 Z"/></g>
<g><path style="opacity:0.008" fill="#4c5f5e" d="M 118.5,443.5 C 118.5,443.167 118.5,442.833 118.5,442.5C 119.5,442.5 120.5,442.5 121.5,442.5C 120.791,443.404 119.791,443.737 118.5,443.5 Z"/></g>
<g><path style="opacity:0.004" fill="#253c3b" d="M 183.5,442.5 C 183.842,443.338 184.508,443.672 185.5,443.5C 185.5,443.833 185.5,444.167 185.5,444.5C 183.692,444.509 182.025,444.009 180.5,443C 181.448,442.517 182.448,442.351 183.5,442.5 Z"/></g>
<g><path style="opacity:0.004" fill="#2b2b2b" d="M 329.5,443.5 C 329.5,443.167 329.5,442.833 329.5,442.5C 330.167,442.5 330.833,442.5 331.5,442.5C 331.158,443.338 330.492,443.672 329.5,443.5 Z"/></g>
<g><path style="opacity:0.008" fill="#5a7c4f" d="M 115.5,443.5 C 116.5,443.5 117.5,443.5 118.5,443.5C 117.5,444.833 116.5,444.833 115.5,443.5 Z"/></g>
<g><path style="opacity:0.005" fill="#000000" d="M 326.5,444.5 C 326.5,444.167 326.5,443.833 326.5,443.5C 327.5,443.5 328.5,443.5 329.5,443.5C 328.791,444.404 327.791,444.737 326.5,444.5 Z"/></g>
<g><path style="opacity:0.004" fill="#000000" d="M 83.5,444.5 C 83.1034,445.525 82.4368,445.692 81.5,445C 82.0944,444.536 82.7611,444.369 83.5,444.5 Z"/></g>
<g><path style="opacity:0.004" fill="#000000" d="M 111.5,444.5 C 112.552,444.351 113.552,444.517 114.5,445C 113.251,445.74 112.251,445.573 111.5,444.5 Z"/></g>
<g><path style="opacity:0.004" fill="#000000" d="M 185.5,444.5 C 186.239,444.369 186.906,444.536 187.5,445C 186.563,445.692 185.897,445.525 185.5,444.5 Z"/></g>
<g><path style="opacity:0.004" fill="#000000" d="M 323.5,444.5 C 324.5,444.5 325.5,444.5 326.5,444.5C 325.5,445.833 324.5,445.833 323.5,444.5 Z"/></g>
<g><path style="opacity:0.004" fill="#00ff00" d="M 85.5,445.5 C 84.8333,446.167 84.8333,446.167 85.5,445.5 Z"/></g>
<g><path style="opacity:0.29" fill="#788381" d="M 85.5,445.5 C 85.5,445.167 85.5,444.833 85.5,444.5C 93.1667,445.833 100.833,445.833 108.5,444.5C 108.5,444.833 108.5,445.167 108.5,445.5C 106.901,445.232 105.568,445.566 104.5,446.5C 98.1222,446.705 91.7889,446.372 85.5,445.5 Z"/></g>
<g><path style="opacity:0.004" fill="#000000" d="M 108.5,445.5 C 109.239,445.369 109.906,445.536 110.5,446C 109.563,446.692 108.897,446.525 108.5,445.5 Z"/></g>
<g><path style="opacity:0.004" fill="#fefffe" d="M 189.5,445.5 C 190.833,446.167 190.833,446.167 189.5,445.5 Z"/></g>
<g><path style="opacity:0.004" fill="#25a2a2" d="M 320.5,446.5 C 320.5,446.167 320.5,445.833 320.5,445.5C 323.167,445.833 323.167,446.167 320.5,446.5 Z"/></g>
<g><path style="opacity:0.006" fill="#3b3b3b" d="M 104.5,447.5 C 104.5,447.167 104.5,446.833 104.5,446.5C 108.5,446.833 108.5,447.167 104.5,447.5 Z"/></g>
<g><path style="opacity:0.008" fill="#4e4e4e" d="M 193.5,446.5 C 193.5,446.833 193.5,447.167 193.5,447.5C 190.833,447.167 190.833,446.833 193.5,446.5 Z"/></g>
<g><path style="opacity:0.004" fill="#a2a2a2" d="M 318.5,447.5 C 318.5,447.167 318.5,446.833 318.5,446.5C 319.167,446.5 319.833,446.5 320.5,446.5C 320.158,447.338 319.492,447.672 318.5,447.5 Z"/></g>
<g><path style="opacity:0.004" fill="#363636" d="M 104.5,447.5 C 99.3497,448.651 94.0164,448.817 88.5,448C 93.8229,447.501 99.1563,447.334 104.5,447.5 Z"/></g>
<g><path style="opacity:0.004" fill="#3b3b3b" d="M 193.5,447.5 C 194.552,447.351 195.552,447.517 196.5,448C 195.251,448.74 194.251,448.573 193.5,447.5 Z"/></g>
<g><path style="opacity:0.004" fill="#173011" d="M 314.5,448.5 C 314.5,448.167 314.5,447.833 314.5,447.5C 315.833,447.5 317.167,447.5 318.5,447.5C 317.432,448.434 316.099,448.768 314.5,448.5 Z"/></g>
<g><path style="opacity:0.004" fill="#000000" d="M 197.5,449.5 C 197.897,448.475 198.563,448.308 199.5,449C 198.906,449.464 198.239,449.631 197.5,449.5 Z"/></g>
<g><path style="opacity:0.004" fill="#000000" d="M 311.5,448.5 C 312.5,448.5 313.5,448.5 314.5,448.5C 313.5,449.833 312.5,449.833 311.5,448.5 Z"/></g>
<g><path style="opacity:0.004" fill="#000000" d="M 308.5,449.5 C 309.239,449.369 309.906,449.536 310.5,450C 309.563,450.692 308.897,450.525 308.5,449.5 Z"/></g>
<g><path style="opacity:0.004" fill="#111d1d" d="M 208.5,450.5 C 209.568,451.434 210.901,451.768 212.5,451.5C 212.5,451.833 212.5,452.167 212.5,452.5C 209.432,452.453 206.432,451.953 203.5,451C 205.134,450.506 206.801,450.34 208.5,450.5 Z"/></g>
<g><path style="opacity:0.004" fill="#000000" d="M 212.5,452.5 C 213.833,452.5 215.167,452.5 216.5,452.5C 215.167,453.833 213.833,453.833 212.5,452.5 Z"/></g>
<g><path style="opacity:0.004" fill="#000000" d="M 298.5,452.5 C 297.749,453.573 296.749,453.74 295.5,453C 296.448,452.517 297.448,452.351 298.5,452.5 Z"/></g>
<g><path style="opacity:0.004" fill="#000000" d="M 287.5,454.5 C 287.5,454.167 287.5,453.833 287.5,453.5C 294.167,453.833 294.167,454.167 287.5,454.5 Z"/></g>
<g><path style="opacity:0.009" fill="#000000" d="M 230.5,454.5 C 228.372,455.629 226.039,455.796 223.5,455C 225.81,454.503 228.143,454.337 230.5,454.5 Z"/></g>
<g><path style="opacity:0.008" fill="#000000" d="M 280.5,454.5 C 282.833,454.5 285.167,454.5 287.5,454.5C 285.167,455.833 282.833,455.833 280.5,454.5 Z"/></g>
</svg>
