<?xml version="1.0" encoding="UTF-8"?>
<svg version="1.1" xmlns="http://www.w3.org/2000/svg" width="101" height="101">
<path d="M0 0 C1.09328865 -0.0098568 1.09328865 -0.0098568 2.20866394 -0.01991272 C4.62128812 -0.03962494 7.03385003 -0.05130531 9.4465332 -0.0612793 C10.27227152 -0.06535482 11.09800983 -0.06943035 11.94877052 -0.07362938 C16.32163873 -0.09448395 20.69447564 -0.1087868 25.06738281 -0.11816406 C29.57204278 -0.12921111 34.07620642 -0.16359274 38.58069134 -0.20333576 C42.05439639 -0.22955391 45.52798427 -0.23786062 49.00177956 -0.24144554 C50.66148025 -0.24630019 52.3211761 -0.25788209 53.98077965 -0.27648354 C70.24941697 -0.44745504 70.24941697 -0.44745504 76.80981445 4.17700195 C81.10590754 9.57465737 81.93552611 13.4939215 81.98681641 20.27539062 C81.9933876 20.99449615 81.9999588 21.71360168 82.00672913 22.45449829 C82.02644006 24.83465688 82.03812147 27.21475234 82.0480957 29.5949707 C82.05217123 30.40967646 82.05624676 31.22438221 82.06044579 32.06377602 C82.08129989 36.37828949 82.09560289 40.69277126 82.10498047 45.00732422 C82.11602694 49.45145311 82.15040802 53.89507883 82.19015217 58.33903027 C82.21637285 61.76641229 82.22467725 65.19367558 82.22826195 68.62114906 C82.23311601 70.25852153 82.24469623 71.8958891 82.26329994 73.53316307 C82.43332527 89.49224864 82.43332527 89.49224864 77.80981445 96.17700195 C72.92844592 100.82025495 68.93455074 101.3306617 62.43603516 101.36987305 C61.68766891 101.37805054 60.93930267 101.38622803 60.16825867 101.39465332 C57.6907124 101.41947094 55.2132234 101.43601612 52.7355957 101.45043945 C51.46389054 101.45842497 51.46389054 101.45842497 50.16649437 101.46657181 C45.67692342 101.49329069 41.18738012 101.51266752 36.69775391 101.52709961 C32.98949442 101.54042552 29.28178695 101.56825452 25.57373047 101.60913086 C21.08981177 101.65855628 16.60639282 101.68323294 12.12221336 101.69032669 C10.41783378 101.69702257 8.71346462 101.71220124 7.0092411 101.7362175 C-8.99482281 101.94883903 -8.99482281 101.94883903 -14.77082825 97.83828735 C-18.83993528 93.0756049 -19.6328917 88.415869 -19.59423828 82.33911133 C-19.60110153 81.57734085 -19.60796478 80.81557037 -19.61503601 80.03071594 C-19.63325083 77.52720191 -19.62947475 75.02431765 -19.6237793 72.52075195 C-19.62834323 70.77249957 -19.63364943 69.02424898 -19.6396637 67.27600098 C-19.648584 63.61776424 -19.64618351 59.95974594 -19.63623047 56.30151367 C-19.62473416 51.62068492 -19.64496761 46.94060983 -19.67414761 42.25988007 C-19.69251858 38.65154253 -19.69221551 35.04338539 -19.68651009 31.43501282 C-19.68635702 29.70948732 -19.69238894 27.98394948 -19.70480156 26.25846863 C-19.71972957 23.84346582 -19.70902304 21.42985277 -19.69189453 19.01489258 C-19.7015625 18.30718216 -19.71123047 17.59947174 -19.72119141 16.87031555 C-19.6469893 11.85796898 -18.29967325 9.05460642 -15.19018555 5.17700195 C-10.14149176 0.62086366 -6.70486433 0.05002809 0 0 Z " fill="#367B8A" transform="translate(19.190185546875,-0.177001953125)"/>
<path d="M0 0 C0 33.33 0 66.66 0 101 C-39 101 -39 101 -47 96 C-50.1097743 91.55500059 -50.43766103 87.44571654 -50.40405273 82.16210938 C-50.41091599 81.4003389 -50.41777924 80.63856842 -50.42485046 79.85371399 C-50.44306529 77.35019996 -50.4392892 74.8473157 -50.43359375 72.34375 C-50.43815768 70.59549761 -50.44346388 68.84724702 -50.44947815 67.09899902 C-50.45839846 63.44076229 -50.45599796 59.78274399 -50.44604492 56.12451172 C-50.43454861 51.44368297 -50.45478207 46.76360788 -50.48396206 42.08287811 C-50.50233303 38.47454058 -50.50202997 34.86638344 -50.49632454 31.25801086 C-50.49617148 29.53248537 -50.50220339 27.80694753 -50.51461601 26.08146667 C-50.52954403 23.66646387 -50.51883749 21.25285082 -50.50170898 18.83789062 C-50.51137695 18.13018021 -50.52104492 17.42246979 -50.53100586 16.6933136 C-50.45680375 11.68096702 -49.1094877 8.87760447 -46 5 C-33.06560461 -6.67250315 -20.38398799 0 0 0 Z " fill="#DD4B24" transform="translate(50,0)"/>
<path d="M0 0 C5.12380077 -0.09222841 10.24468041 -0.17174031 15.36865234 -0.21972656 C17.10866089 -0.23974522 18.84860299 -0.26696886 20.58837891 -0.30175781 C23.10075346 -0.35070952 25.61223275 -0.37306587 28.125 -0.390625 C28.89303955 -0.41127014 29.6610791 -0.43191528 30.45239258 -0.45318604 C36.02481323 -0.45546062 40.38234484 0.803123 45 4 C49.24153477 9.32910779 50.12591536 13.15805921 50.09765625 19.85546875 C50.0962413 20.51710526 50.09482635 21.17874176 50.09336853 21.86042786 C50.08777996 23.96949828 50.07522965 26.07846177 50.0625 28.1875 C50.05748352 29.61913909 50.05292087 31.05077985 50.04882812 32.48242188 C50.0378143 35.98831588 50.02055755 39.4941475 50 43 C42.1719237 42.59869687 34.97717977 41.80394785 27.5 39.4375 C19.75572998 36.66451749 19.75572998 36.66451749 12 38 C12 34.7 12 31.4 12 28 C10.02 30.64 8.04 33.28 6 36 C5.01 35.01 4.02 34.02 3 33 C3.33 32.01 3.66 31.02 4 30 C2.68 29.34 1.36 28.68 0 28 C0 18.76 0 9.52 0 0 Z " fill="#6DA6F4" transform="translate(51,0)"/>
<path d="M0 0 C1.54799142 1.54799142 1.28227181 2.96371984 1.375 5.125 C1.27659335 14.92349113 -2.76834926 25.0718307 -8.27734375 33.0703125 C-9.23289206 35.05015906 -9.23289206 35.05015906 -8.359375 37.359375 C-6.24686694 41.46298261 -3.80026226 45.34106146 -1.36328125 49.2578125 C0 52 0 52 -1 55 C-2.69555664 56.28344727 -2.69555664 56.28344727 -4.91015625 57.56640625 C-5.72822754 58.04754883 -6.54629883 58.52869141 -7.38916016 59.02441406 C-8.2713623 59.53198242 -9.15356445 60.03955078 -10.0625 60.5625 C-11.88496457 61.6300607 -13.70656714 62.69909419 -15.52734375 63.76953125 C-16.44370605 64.30658691 -17.36006836 64.84364258 -18.30419922 65.39697266 C-22.98338367 68.17939659 -27.57173542 71.10604137 -32.14868164 74.05297852 C-36.78632756 77 -36.78632756 77 -39 77 C-40.59138085 72.82262526 -41.21278058 69.46839215 -41 65 C-40.360625 65.33 -39.72125 65.66 -39.0625 66 C-32.27512515 68.21628566 -27.36475269 67.47501329 -20.9375 64.375 C-15.93032711 61.68228219 -11.37361314 58.62752619 -7 55 C-7.37035409 48.21017493 -9.40476401 43.73115109 -13 38 C-18.48983008 38.78734302 -23.29613107 41.15450464 -28.32226562 43.38476562 C-34.04211888 45.8331734 -38.62287541 46.72457508 -45 48 C-45 34.47 -45 20.94 -45 7 C-42.03 7.99 -39.06 8.98 -36 10 C-32.24548865 9.06137216 -29.34193388 7.80416556 -25.875 6.125 C-17.10806258 2.04553024 -9.73804094 -0.61828831 0 0 Z " fill="#FC7A4B" transform="translate(45,9)"/>
<path d="M0 0 C0 31.02 0 62.04 0 94 C-0.33 94 -0.66 94 -1 94 C-1.495 76.675 -1.495 76.675 -2 59 C-2.33 60.65 -2.66 62.3 -3 64 C-3.99 63.67 -4.98 63.34 -6 63 C-6.69835184 61.0108421 -7.35990337 59.00866143 -8 57 C-9.8178772 54.15067509 -11.75878549 51.42530754 -13.734375 48.68359375 C-15 46 -15 46 -14.35546875 43.484375 C-13.90816406 42.66453125 -13.46085937 41.8446875 -13 41 C-12.60941406 40.16082031 -12.21882813 39.32164063 -11.81640625 38.45703125 C-11.19572266 37.14798828 -11.19572266 37.14798828 -10.5625 35.8125 C-6.59950167 27.06576404 -4.44528936 19.6560741 -5 10 C-15.96873901 9.03782991 -27.00613057 13.10049721 -36.0703125 19.1796875 C-39.28751093 20.54732246 -41.86820046 19.42250931 -45.01953125 18.24609375 C-46.6796875 17.49739583 -48.33984375 16.74869792 -50 16 C-49.77291581 10.43643741 -48.40264688 7.66304391 -44.765625 3.48046875 C-33.58512836 -5.89432821 -7.35607915 0 0 0 Z " fill="#DE4B23" transform="translate(50,0)"/>
<path d="M0 0 C0.04950115 4.76886487 0.08576738 9.53757959 0.10986328 14.30664062 C0.11991023 15.92841192 0.13355015 17.55016516 0.15087891 19.171875 C0.17518493 21.50525374 0.18649613 23.8383926 0.1953125 26.171875 C0.20563507 26.89493835 0.21595764 27.61800171 0.22659302 28.36297607 C0.22741782 32.07798039 0.06235471 34.84581045 -2 38 C-10.72057626 39.00622034 -17.62217132 35.28847784 -24.51171875 30.11328125 C-29.63863815 25.7227237 -29.63863815 25.7227237 -31 23 C-31.07194869 20.11629667 -31.09291708 17.25760336 -31.0625 14.375 C-31.05798828 13.57320312 -31.05347656 12.77140625 -31.04882812 11.9453125 C-31.03703168 9.96350994 -31.01909605 7.98174567 -31 6 C-29.39898437 6.47566406 -29.39898437 6.47566406 -27.765625 6.9609375 C-23.24182641 8.20920558 -19.61741263 9.12335157 -15 8 C-11.9559959 6.10833938 -9.23576066 4.04011275 -6.48046875 1.75 C-4 0 -4 0 0 0 Z " fill="#EAF2FA" transform="translate(101,54)"/>
<path d="M0 0 C2.87821274 1.59765199 3.68235293 3.85084761 5.09375 6.7734375 C5.87492187 8.34351563 5.87492187 8.34351563 6.671875 9.9453125 C7.84753437 13.03337778 8.49719721 14.78833819 7.84375 18.0234375 C1.57493212 24.31609119 -8.59766208 31.09589638 -17.71875 31.5859375 C-22.74052193 31.30794655 -26.71763818 29.27797049 -31.15625 27.0234375 C-31.15625 21.7434375 -31.15625 16.4634375 -31.15625 11.0234375 C-28.784375 10.3221875 -26.4125 9.6209375 -23.96875 8.8984375 C-17.22534958 6.86023484 -11.0993277 4.2936019 -4.828125 1.0625 C-2.15625 0.0234375 -2.15625 0.0234375 0 0 Z " fill="#31343C" transform="translate(31.15625,45.9765625)"/>
<path d="M0 0 C5.12380077 -0.09222841 10.24468041 -0.17174031 15.36865234 -0.21972656 C17.10866089 -0.23974522 18.84860299 -0.26696886 20.58837891 -0.30175781 C23.10075346 -0.35070952 25.61223275 -0.37306587 28.125 -0.390625 C28.89303955 -0.41127014 29.6610791 -0.43191528 30.45239258 -0.45318604 C36.02096963 -0.45545905 40.38299115 0.80622381 45 4 C47 6.75 47 6.75 48 9 C46.81664062 9.07476562 45.63328125 9.14953125 44.4140625 9.2265625 C31.15676871 10.2053034 31.15676871 10.2053034 20 17 C17.99180986 19.53539997 16.46933525 22.12867404 15 25 C13.16478064 27.75282904 11.35934563 29.71004689 9 32 C8.2575 32.7425 7.515 33.485 6.75 34.25 C6.1725 34.8275 5.595 35.405 5 36 C4.34 35.01 3.68 34.02 3 33 C3.33 32.01 3.66 31.02 4 30 C2.68 29.34 1.36 28.68 0 28 C0 18.76 0 9.52 0 0 Z " fill="#4BA9BE" transform="translate(51,0)"/>
<path d="M0 0 C6.34935917 0.65350129 12.37490906 1.9542064 18.5625 3.5 C24.3639245 4.94314042 30.06045916 6.28301839 36 7 C36 10.63 36 14.26 36 18 C35.01 18.37125 34.02 18.7425 33 19.125 C29.90401024 20.41188731 27.67406161 22.02233321 25.125 24.1875 C21.54720034 26.92225491 19.01025382 27.90696207 14.5 27.59375 C7.34754545 25.89504204 0.38600146 21.96945818 -5 17 C-5.99525793 10.40641622 -3.60631441 5.40947161 0 0 Z " fill="#2C3541" transform="translate(65,36)"/>
<path d="M0 0 C0.33 0 0.66 0 1 0 C1 31.02 1 62.04 1 94 C0.67 94 0.34 94 0 94 C-0.495 76.675 -0.495 76.675 -1 59 C-1.495 61.475 -1.495 61.475 -2 64 C-2.99 63.67 -3.98 63.34 -5 63 C-5.69835184 61.0108421 -6.35990337 59.00866143 -7 57 C-8.8178772 54.15067509 -10.75878549 51.42530754 -12.734375 48.68359375 C-14 46 -14 46 -13.35546875 43.484375 C-12.90816406 42.66453125 -12.46085937 41.8446875 -12 41 C-11.60941406 40.16082031 -11.21882813 39.32164063 -10.81640625 38.45703125 C-10.40261719 37.58433594 -9.98882812 36.71164063 -9.5625 35.8125 C-6.01469466 28.02616617 -3.78882845 20.51934723 -3 12 C-2.34 12.66 -1.68 13.32 -1 14 C-0.67 9.38 -0.34 4.76 0 0 Z " fill="#D8502A" transform="translate(49,0)"/>
<path d="M0 0 C1.65 0 3.3 0 5 0 C4.67 1.98 4.34 3.96 4 6 C6.30583369 7.15291684 7.69866887 7.15397338 10.26611328 7.20532227 C11.58725632 7.2352401 11.58725632 7.2352401 12.93508911 7.26576233 C14.36327469 7.29083107 14.36327469 7.29083107 15.8203125 7.31640625 C16.79410858 7.33718735 17.76790466 7.35796844 18.77120972 7.37937927 C21.88906647 7.44488598 25.00700903 7.50376497 28.125 7.5625 C30.23568604 7.60568415 32.34636333 7.6492984 34.45703125 7.69335938 C39.6379295 7.80056847 44.81891356 7.90233278 50 8 C50 10.31 50 12.62 50 15 C44.59236899 15.12425623 39.18558171 15.21464659 33.77685547 15.2746582 C31.93979401 15.29969289 30.10283107 15.33373145 28.26611328 15.37719727 C25.61466073 15.43834037 22.96453266 15.46631957 20.3125 15.48828125 C19.50071289 15.51408768 18.68892578 15.5398941 17.85253906 15.56648254 C11.81432329 15.56940532 7.62512247 13.93256674 3 10 C0.53569508 6.22653309 0 4.53886709 0 0 Z " fill="#7B2F1A" transform="translate(0,86)"/>
<path d="M0 0 C1.33447266 1.70239258 1.33447266 1.70239258 2.6640625 3.89453125 C3.14617188 4.68537109 3.62828125 5.47621094 4.125 6.29101562 C4.62 7.12310547 5.115 7.95519531 5.625 8.8125 C6.12773438 9.63298828 6.63046875 10.45347656 7.1484375 11.29882812 C11.19098705 17.99837597 11.19098705 17.99837597 12 22 C2.34566754 28.13617348 -7.32632399 34.24433137 -17.0625 40.25 C-17.82933105 40.72735596 -18.59616211 41.20471191 -19.38623047 41.6965332 C-24.76789154 45 -24.76789154 45 -27 45 C-28.59138085 40.82262526 -29.21278058 37.46839215 -29 33 C-28.360625 33.33 -27.72125 33.66 -27.0625 34 C-20.27512515 36.21628566 -15.36475269 35.47501329 -8.9375 32.375 C-3.93032711 29.68228219 0.62638686 26.62752619 5 23 C4.62964591 16.21017493 2.59523599 11.73115109 -1 6 C-5.96288997 6.78503896 -9.98564142 8.76976907 -14.4765625 10.94140625 C-17 12 -17 12 -20 12 C-17.47466558 6.06482317 -11.89511205 2.70986048 -6.1875 0.0625 C-3 -1 -3 -1 0 0 Z " fill="#ECD3BF" transform="translate(33,41)"/>
<path d="M0 0 C-1.39584792 3.37329915 -2.92365611 5.04232662 -6 7 C-9.9476427 8.3158809 -13.71089356 8.12300273 -17.82421875 8.09765625 C-18.68561966 8.0962413 -19.54702057 8.09482635 -20.43452454 8.09336853 C-23.18555169 8.0877714 -25.93649744 8.07521946 -28.6875 8.0625 C-30.5527332 8.05748463 -32.41796767 8.05292179 -34.28320312 8.04882812 C-38.85550011 8.03780292 -43.42773625 8.02054027 -48 8 C-48 5.69 -48 3.38 -48 1 C-46.84628906 1.01160156 -45.69257812 1.02320312 -44.50390625 1.03515625 C-31.42002192 1.12222796 -18.38715587 0.69722237 -5.31811523 0.09179688 C-3.54653459 0.02164265 -1.77296915 0 0 0 Z " fill="#215972" transform="translate(98,93)"/>
<path d="M0 0 C0.79921875 0.00902344 1.5984375 0.01804687 2.421875 0.02734375 C3.02515625 0.03894531 3.6284375 0.05054687 4.25 0.0625 C4.81404293 7.67707949 2.6279142 13.3066716 -0.75 20.0625 C-4.10044034 18.94568655 -4.89916343 18.0188104 -7.125 15.375 C-7.73214844 14.65957031 -8.33929688 13.94414063 -8.96484375 13.20703125 C-9.55394531 12.49933594 -10.14304687 11.79164062 -10.75 11.0625 C-11.26691406 10.44761719 -11.78382812 9.83273438 -12.31640625 9.19921875 C-13.4671727 7.82551179 -14.60958928 6.44481603 -15.75 5.0625 C-10.26450373 1.7923003 -6.48112506 -0.09531066 0 0 Z " fill="#C75228" transform="translate(33.75,19.9375)"/>
<path d="M0 0 C0.33 0 0.66 0 1 0 C1 9.24 1 18.48 1 28 C2.65 28.33 4.3 28.66 6 29 C5.79375 29.763125 5.5875 30.52625 5.375 31.3125 C4.66608797 34.21885944 4.66608797 34.21885944 7 37 C6.525625 37.78375 6.05125 38.5675 5.5625 39.375 C3.44117133 42.93883217 2.87611797 44.69495068 2.88647461 48.81689453 C2.88655014 49.81778107 2.88662567 50.8186676 2.88670349 51.84988403 C2.89186478 52.93325043 2.89702606 54.01661682 2.90234375 55.1328125 C2.9037587 56.23978485 2.90517365 57.3467572 2.90663147 58.48727417 C2.91224228 62.03320993 2.92479663 65.57908323 2.9375 69.125 C2.94251361 71.52473867 2.94707675 73.92447833 2.95117188 76.32421875 C2.96221522 82.21616725 2.9789639 88.10807916 3 94 C2.01 94 1.02 94 0 94 C0 62.98 0 31.96 0 0 Z " fill="#6A878B" transform="translate(50,0)"/>
<path d="M0 0 C3.67645004 1.59845654 6.03535341 3.48431663 8 7 C8.1875 9.75 8.1875 9.75 8 12 C2.2116477 12.30748219 -2.43780698 11.24369016 -7.9375 9.5 C-8.71673828 9.26152344 -9.49597656 9.02304687 -10.29882812 8.77734375 C-12.20190376 8.19357822 -14.10134922 7.59800024 -16 7 C-12.73468883 -0.08704308 -7.27485928 -0.97879925 0 0 Z " fill="#E6EFFA" transform="translate(87,30)"/>
<path d="M0 0 C5.61 0.66 11.22 1.32 17 2 C17 5.63 17 9.26 17 13 C15.948125 13.433125 14.89625 13.86625 13.8125 14.3125 C10.70539018 15.63870541 7.85481805 17.1832976 5 19 C4.09935779 16.4782018 3.80592281 15.42696982 4.9375 12.9375 C5.288125 12.298125 5.63875 11.65875 6 11 C6 10.01 6 9.02 6 8 C3.36 6.68 0.72 5.36 -2 4 C-1.34 2.68 -0.68 1.36 0 0 Z " fill="#2D323B" transform="translate(84,41)"/>
<path d="M0 0 C0 6.93 0 13.86 0 21 C-7 18.66666667 -7 18.66666667 -10 15 C-11.23643828 11.29068515 -11.53721791 8.89482988 -11 5 C-7.67215305 1.33388289 -4.95000491 0 0 0 Z " fill="#F8B450" transform="translate(101,54)"/>
<path d="M0 0 C-0.25614937 4.35453922 -0.57277847 6.49609768 -3.4375 9.875 C-7.82816468 13.516039 -10.44238813 13.0896389 -16 13 C-16.33 11.35 -16.66 9.7 -17 8 C-15.60823368 7.03576974 -14.2113777 6.07888398 -12.8125 5.125 C-12.03519531 4.59132813 -11.25789062 4.05765625 -10.45703125 3.5078125 C-6.93956626 1.34924098 -4.15636365 0 0 0 Z " fill="#DAD9C9" transform="translate(25,58)"/>
<path d="M0 0 C1.32 0.33 2.64 0.66 4 1 C4.66 4.96 5.32 8.92 6 13 C7.05960937 12.33871094 8.11921875 11.67742187 9.2109375 10.99609375 C10.59869932 10.14280777 11.98673436 9.28996604 13.375 8.4375 C14.07367188 7.99986328 14.77234375 7.56222656 15.4921875 7.11132812 C17.29185903 6.01249022 19.14322343 4.99932133 21 4 C21.66 4.33 22.32 4.66 23 5 C22.07456291 6.34173403 21.13422595 7.67320159 20.1875 9 C19.66542969 9.7425 19.14335937 10.485 18.60546875 11.25 C18.07566406 11.8275 17.54585937 12.405 17 13 C16.01 13 15.02 13 14 13 C11.35440243 14.02410228 9.93305809 15.06897045 7.9375 17.125 C6 19 6 19 3 19 C3.66 17.02 4.32 15.04 5 13 C3.35 13 1.7 13 0 13 C0 8.71 0 4.42 0 0 Z " fill="#AC4425" transform="translate(0,73)"/>
<path d="M0 0 C2.41534564 1.08453755 3.9518276 2.27522324 6 4 C5.625 5.9375 5.625 5.9375 5 8 C1.52740581 9.7362971 -2.20339653 9.4642413 -6 9 C-9.5625 7.25 -9.5625 7.25 -12 5 C-12 3.68 -12 2.36 -12 1 C-8.29929304 -0.85035348 -4.03844746 -0.4754747 0 0 Z " fill="#D6DDE4" transform="translate(85,45)"/>
<path d="M0 0 C0 1.98 0 3.96 0 6 C-0.763125 6.061875 -1.52625 6.12375 -2.3125 6.1875 C-6.74497525 7.16414709 -10.44682264 8.95674743 -14.51171875 10.94140625 C-17 12 -17 12 -20 12 C-17.47466558 6.06482317 -11.89511205 2.70986048 -6.1875 0.0625 C-3 -1 -3 -1 0 0 Z " fill="#EADAC7" transform="translate(33,41)"/>
<path d="M0 0 C2.9719385 1.12451727 5.33440687 2.22293791 8 4 C8.05632424 6.80435411 7.95814702 9.35146678 7.6875 12.125 C7.62626953 12.87910156 7.56503906 13.63320312 7.50195312 14.41015625 C7.3485467 16.27463438 7.17606541 18.13752498 7 20 C3.95088432 17.46635087 3.02484619 14.85029365 1.8125 11.125 C1.46832031 10.09632812 1.12414062 9.06765625 0.76953125 8.0078125 C0.04711169 5.18414215 -0.15491337 2.89527739 0 0 Z " fill="#70A3E7" transform="translate(63,56)"/>
<path d="M0 0 C1.546875 0.7115625 1.546875 0.7115625 3.125 1.4375 C6.38534162 2.84522388 9.46051083 3.56835498 13 4 C11.83630874 7.49107379 11.11026462 7.85222763 8.0625 9.6875 C7.35222656 10.12449219 6.64195313 10.56148437 5.91015625 11.01171875 C4 12 4 12 2 12 C0.40861915 7.82262526 -0.21278058 4.46839215 0 0 Z " fill="#EDDEC6" transform="translate(4,74)"/>
<path d="M0 0 C0.66 0.66 1.32 1.32 2 2 C1.67 2.845625 1.34 3.69125 1 4.5625 C-0.21604913 8.74266888 -1.01124138 12.97751725 1 17 C0.21625 17.0825 -0.5675 17.165 -1.375 17.25 C-4.14749104 17.72806339 -4.14749104 17.72806339 -5.3125 20.0625 C-5.539375 20.701875 -5.76625 21.34125 -6 22 C-7.28642069 19.42715862 -7.24002723 17.43471047 -7.3125 14.5625 C-7.34988281 13.59441406 -7.38726562 12.62632813 -7.42578125 11.62890625 C-7 9 -7 9 -5.0546875 7.31640625 C-4.37664063 6.88199219 -3.69859375 6.44757812 -3 6 C-1.79549696 3.44816596 -1.79549696 3.44816596 -1 1 C-0.67 0.67 -0.34 0.34 0 0 Z " fill="#337787" transform="translate(61,38)"/>
<path d="M0 0 C7.625 1.875 7.625 1.875 11 3 C11 5.64 11 8.28 11 11 C6.60666696 9.80181826 3.81538596 8.6495744 1 5 C0.25 2.25 0.25 2.25 0 0 Z " fill="#F2A731" transform="translate(90,64)"/>
<path d="M0 0 C0.66 0.33 1.32 0.66 2 1 C-1.30632917 6.89579936 -4.64966382 12.5117271 -11.375 14.8125 C-11.91125 14.874375 -12.4475 14.93625 -13 15 C-13 10.67117769 -10.81941588 8.08184361 -8 5 C-5.48878906 3.03136427 -2.94575725 1.24853287 0 0 Z " fill="#BD411F" transform="translate(32,70)"/>
<path d="M0 0 C1.32 0.33 2.64 0.66 4 1 C4.99 5.29 5.98 9.58 7 14 C4.69 13.67 2.38 13.34 0 13 C0 8.71 0 4.42 0 0 Z " fill="#F17C52" transform="translate(0,73)"/>
<path d="M0 0 C0.99 0.33 1.98 0.66 3 1 C-0.08136739 2.96143985 -3.16542888 4.91860293 -6.25 6.875 C-7.12269531 7.43058594 -7.99539062 7.98617187 -8.89453125 8.55859375 C-9.73886719 9.09355469 -10.58320313 9.62851563 -11.453125 10.1796875 C-12.22817383 10.67194824 -13.00322266 11.16420898 -13.80175781 11.67138672 C-15.82682832 12.89533537 -17.8679347 13.97643877 -20 15 C-20 14.34 -20 13.68 -20 13 C-21.98 13 -23.96 13 -26 13 C-26 12.67 -26 12.34 -26 12 C-25.42894531 11.9484375 -24.85789062 11.896875 -24.26953125 11.84375 C-15.91457495 10.67485309 -9.86996644 6.62494234 -3 2 C-2.01 1.34 -1.02 0.68 0 0 Z " fill="#DBBBAB" transform="translate(37,65)"/>
<path d="M0 0 C2.78388975 1.70625501 3.85384206 2.47626739 4.75 5.6875 C4.87375 6.8321875 4.87375 6.8321875 5 8 C2.36 8 -0.28 8 -3 8 C-3.33 6.35 -3.66 4.7 -4 3 C-2.68 2.01 -1.36 1.02 0 0 Z " fill="#BBBFB7" transform="translate(12,63)"/>
<path d="M0 0 C0 2.64 0 5.28 0 8 C-4.75 7.25 -4.75 7.25 -7 5 C-7 3.68 -7 2.36 -7 1 C-4.53721199 -0.231394 -2.7204945 -0.07159196 0 0 Z " fill="#E4EAF4" transform="translate(80,45)"/>
<path d="M0 0 C1.32 0.33 2.64 0.66 4 1 C4 2.32 4 3.64 4 5 C4.66 5 5.32 5 6 5 C6 5.99 6 6.98 6 8 C6.99 8 7.98 8 9 8 C9.33 10.64 9.66 13.28 10 16 C9.01 15.67 8.02 15.34 7 15 C6.30356015 13.01017187 5.645124 11.00705243 5 9 C3.42766315 5.94488978 1.72863425 2.9690283 0 0 Z " fill="#CF5733" transform="translate(37,48)"/>
<path d="M0 0 C0 3 0 3 -2.25 5.3125 C-3.61125 6.6428125 -3.61125 6.6428125 -5 8 C-5.77777011 9.08478463 -6.52926989 10.18900895 -7.25 11.3125 C-8.11625 12.6428125 -8.11625 12.6428125 -9 14 C-9.33 14 -9.66 14 -10 14 C-10 11.36 -10 8.72 -10 6 C-9.278125 5.7525 -8.55625 5.505 -7.8125 5.25 C-4.75286734 3.89016326 -2.5326262 2.17082246 0 0 Z " fill="#408EAA" transform="translate(74,12)"/>
<path d="M0 0 C0 0.33 0 0.66 0 1 C-1.258125 1.103125 -2.51625 1.20625 -3.8125 1.3125 C-6.44935727 1.64327185 -7.74549547 1.81938388 -9.9375 3.375 C-11.18609823 5.13413918 -11.18609823 5.13413918 -12 8 C-13.32 7.67 -14.64 7.34 -16 7 C-15.0195412 4.41515408 -14.06077857 3.05156969 -11.9375 1.25 C-7.9103375 -0.46368617 -4.31479896 -0.2538117 0 0 Z " fill="#D6EAF8" transform="translate(87,30)"/>
<path d="M0 0 C1.05767578 0.21462891 1.05767578 0.21462891 2.13671875 0.43359375 C5.02411601 1.00477056 7.91609386 1.53905311 10.8125 2.0625 C11.78832031 2.23910156 12.76414062 2.41570312 13.76953125 2.59765625 C14.50558594 2.73042969 15.24164063 2.86320312 16 3 C12.55824478 5.14699969 10.2279708 5.09856795 6.25 4.625 C4.77273437 4.45871094 4.77273437 4.45871094 3.265625 4.2890625 C2.14414063 4.14597656 2.14414063 4.14597656 1 4 C0.67 2.68 0.34 1.36 0 0 Z " fill="#3A707B" transform="translate(83,89)"/>
<path d="M0 0 C0.66 0.66 1.32 1.32 2 2 C1.67 2.845625 1.34 3.69125 1 4.5625 C-0.21604913 8.74266888 -1.01124138 12.97751725 1 17 C0.01 16.67 -0.98 16.34 -2 16 C-2.05384521 13.70858714 -2.09272087 11.41681812 -2.125 9.125 C-2.14820313 7.84882812 -2.17140625 6.57265625 -2.1953125 5.2578125 C-2 2 -2 2 0 0 Z " fill="#346570" transform="translate(61,38)"/>
<path d="M0 0 C0.99 0.33 1.98 0.66 3 1 C4.1875 4.5625 4.1875 4.5625 5 8 C4.34 8 3.68 8 3 8 C3 8.66 3 9.32 3 10 C2.01 9.67 1.02 9.34 0 9 C0 6.03 0 3.06 0 0 Z " fill="#EADECB" transform="translate(38,55)"/>
<path d="M0 0 C0.66 0 1.32 0 2 0 C3.2077558 3.62326739 2.54311128 4.64146369 1 8 C-0.32 7.34 -1.64 6.68 -3 6 C-1.125 1.125 -1.125 1.125 0 0 Z " fill="#C94824" transform="translate(38,40)"/>
<path d="M0 0 C0.99 0.99 1.98 1.98 3 3 C1.47793991 5.62901288 0.15634036 7.84365964 -2 10 C-2.1953125 3.9453125 -2.1953125 3.9453125 -2 2 C-1.34 1.34 -0.68 0.68 0 0 Z " fill="#3D8899" transform="translate(54,34)"/>
<path d="M0 0 C0 0.33 0 0.66 0 1 C-1.44632813 1.18175781 -1.44632813 1.18175781 -2.921875 1.3671875 C-4.81679687 1.61855469 -4.81679687 1.61855469 -6.75 1.875 C-8.00296875 2.03742187 -9.2559375 2.19984375 -10.546875 2.3671875 C-13.52595767 2.91312799 -15.3731841 3.63749269 -18 5 C-18.66 4.67 -19.32 4.34 -20 4 C-13.4177956 -0.32544861 -7.65390424 -0.13375755 0 0 Z " fill="#65A9E9" transform="translate(96,9)"/>
<path d="M0 0 C0.66 0.33 1.32 0.66 2 1 C1.01 2.485 1.01 2.485 0 4 C-0.99 4 -1.98 4 -3 4 C-3.66 5.32 -4.32 6.64 -5 8 C-6.32 7.34 -7.64 6.68 -9 6 C-6.03 4.02 -3.06 2.04 0 0 Z " fill="#B0492A" transform="translate(32,70)"/>
<path d="M0 0 C0.66 0 1.32 0 2 0 C2.66 2.64 3.32 5.28 4 8 C5.32 8 6.64 8 8 8 C8 8.66 8 9.32 8 10 C5.69 10 3.38 10 1 10 C1.020625 9.0925 1.04125 8.185 1.0625 7.25 C1.0110245 4.57327412 0.7784983 2.53011948 0 0 Z " fill="#7099D2" transform="translate(93,33)"/>
<path d="M0 0 C2.475 0.495 2.475 0.495 5 1 C3.75023244 4.65316671 3.32901247 5.78065836 0 8 C0 5.36 0 2.72 0 0 Z " fill="#4996A6" transform="translate(51,28)"/>
<path d="M0 0 C3.3 0 6.6 0 10 0 C8.3125 2.0625 8.3125 2.0625 6 4 C3.25 3.75 3.25 3.75 1 3 C0.67 2.01 0.34 1.02 0 0 Z " fill="#C24318" transform="translate(6,16)"/>
<path d="M0 0 C-1.45255699 3.82946843 -3.42895561 5.12050295 -7 7 C-6.67 5.02 -6.34 3.04 -6 1 C-3 0 -3 0 0 0 Z " fill="#1E4C61" transform="translate(98,93)"/>
<path d="M0 0 C1.32 0 2.64 0 4 0 C4 1.65 4 3.3 4 5 C2.35 4.67 0.7 4.34 -1 4 C-1 1 -1 1 0 0 Z " fill="#FDA217" transform="translate(97,68)"/>
<path d="M0 0 C1.65 0 3.3 0 5 0 C4.49396008 2.16874252 4.00016187 3.99967627 3 6 C2.34 6 1.68 6 1 6 C0.67 4.02 0.34 2.04 0 0 Z " fill="#7B412F" transform="translate(0,86)"/>
<path d="M0 0 C0.33 0 0.66 0 1 0 C1.2475 1.27875 1.495 2.5575 1.75 3.875 C2.51990586 7.26747318 2.51990586 7.26747318 5.125 9.5 C5.74375 9.665 6.3625 9.83 7 10 C5.35 10.66 3.7 11.32 2 12 C0.40861915 7.82262526 -0.21278058 4.46839215 0 0 Z " fill="#F7C3A9" transform="translate(4,74)"/>
<path d="M0 0 C0.66 0 1.32 0 2 0 C2 0.66 2 1.32 2 2 C2.99 1.67 3.98 1.34 5 1 C4.67 2.32 4.34 3.64 4 5 C2.35 4.67 0.7 4.34 -1 4 C-0.67 2.68 -0.34 1.36 0 0 Z " fill="#575855" transform="translate(11,65)"/>
<path d="M0 0 C3.0916909 2.52956528 3.90931332 5.22454612 5 9 C3.02 9.99 3.02 9.99 1 11 C1 10.34 1 9.68 1 9 C1.66 9 2.32 9 3 9 C2.505 7.88625 2.01 6.7725 1.5 5.625 C0 2 0 2 0 0 Z " fill="#F8C6A9" transform="translate(40,54)"/>
<path d="M0 0 C0.99 0.33 1.98 0.66 3 1 C2.67 2.65 2.34 4.3 2 6 C0.68 5.67 -0.64 5.34 -2 5 C-1.125 1.125 -1.125 1.125 0 0 Z " fill="#51575B" transform="translate(82,47)"/>
<path d="M0 0 C0 0.66 0 1.32 0 2 C-3.3 2.33 -6.6 2.66 -10 3 C-4.15384615 -1.38461538 -4.15384615 -1.38461538 0 0 Z " fill="#F9D1B1" transform="translate(33,41)"/>
<path d="M0 0 C4.75 0.75 4.75 0.75 7 3 C5.02 3.99 5.02 3.99 3 5 C2.01 3.35 1.02 1.7 0 0 Z " fill="#6B2612" transform="translate(1,92)"/>
<path d="M0 0 C0.33 0 0.66 0 1 0 C1 3.3 1 6.6 1 10 C-1.63636364 4.72727273 -1.63636364 4.72727273 -2 2 C-1.34 1.34 -0.68 0.68 0 0 Z " fill="#326E7D" transform="translate(58,44)"/>
</svg>
