<svg xmlns="http://www.w3.org/2000/svg" viewBox="0 0 222.3 100.62">
  <path fill="#0f0024" d="m87.44,24.33c-2.8-2.97-7.08-4.47-12.73-4.47h-12.6c-2.36,0-4.47.27-6.35.78l-12-12c-2.87-2.92-7.2-4.4-12.88-4.4H5C2.24,4.24,0,6.48,0,9.24v70.38c0,1.64.8,3.08,2.01,3.99l15,15c.91,1.22,2.35,2.01,3.99,2.01h12.83c2.76,0,5-2.24,5-5v-20.88h7.27c.68,2.07,1.73,3.88,3.17,5.41l16,16c2.79,2.96,7.11,4.47,12.84,4.47h12.6c5.65,0,9.93-1.5,12.73-4.47,1.14-1.21,2.04-2.6,2.7-4.16l4.23,4.26c2.89,2.89,7.2,4.36,12.79,4.36h11.6c5.59,0,9.9-1.47,12.79-4.36.23-.23.45-.47.66-.72l3.08,3.07c.91,1.22,2.35,2.01,3.99,2.01h12.6c2.76,0,5-2.24,5-5v-4.5l5.09,5.1c2.86,2.92,7.2,4.4,12.88,4.4h7.81c1.13,0,2.17-.38,3.01-1.01.84.63,1.88,1.01,3.01,1.01h12.6c2.76,0,5-2.24,5-5V21c0-1.64-.8-3.08-2.01-3.99l-15-15c-.91-1.22-2.35-2.01-3.99-2.01h-12.6c-2.76,0-5,2.24-5,5v11.38l-4.4-4.33c-.91-1.22-2.35-2.01-3.99-2.01h-11.4l-8.03-8.03c-.91-1.22-2.35-2.01-3.99-2.01h-12.6c-2.76,0-5,2.24-5,5v21.83l-2.53-2.57c-2.86-2.92-7.16-4.4-12.77-4.4h-11.82c-5.59,0-9.9,1.47-12.79,4.36-1.21,1.21-2.17,2.61-2.87,4.18l-4.06-4.07Z"/>
  <path fill="#daae4f" d="m113.91,92.72c1.93,1.93,5.02,2.9,9.26,2.9h11.6c4.24,0,7.32-.97,9.26-2.9,1.54-1.54,2.45-3.58,2.77-6.1h.5l8,9h12.6v-16.6l13.66,13.7c1.9,1.93,5,2.9,9.31,2.9h7.81v-7h.02l6,7h12.6V21l-16-16h-12.6v24.04h-.38l-13-14h-12.6v.96l-10.82-11h-12.6v33.86l-11.1-11.11c-1.9-1.93-4.96-2.9-9.2-2.9h-11.82c-4.24,0-7.32.97-9.26,2.9-1.93,1.93-2.9,4.65-2.9,8.14v3.11l-11.21-11.25c-1.82-1.93-4.85-2.9-9.09-2.9h-12.6c-3.24,0-5.78.55-7.61,1.64l-14.31-14.35c-1.9-1.93-5-2.9-9.31-2.9H5v70.38l16,16h12.83v-25.88h13.05c1.21,0,2.31-.08,3.33-.24.15,3.05,1.04,5.45,2.7,7.21l16,16c1.82,1.93,4.89,2.9,9.2,2.9h12.6c4.24,0,7.27-.97,9.09-2.9,1.82-1.93,2.73-4.65,2.73-8.14v-3.28l11.38,11.42Zm25.38-20.72h-.36v-.14h.36v.14Z"/>
  <path fill="#ffffff" d="m188.69,81.62c-1.1,0-2-.9-2-2V5c0-1.1.9-2,2-2h12.6c1.1,0,2,.9,2,2v74.62c0,1.1-.9,2-2,2h-12.6Zm-13.83,0c-4.85,0-8.46-1.18-10.74-3.5-2.27-2.31-3.42-5.52-3.42-9.54v-31.91h-3.46c-1.1,0-2-.9-2-2v-9.82c0-1.1.9-2,2-2h3.46v-7.81c0-1.1.9-2,2-2h12.6c1.1,0,2,.9,2,2v7.81h5.47c1.1,0,2,.9,2,2v9.82c0,1.1-.9,2-2,2h-5.47v29.79c0,.47.04.75.08.91.18.05.53.11,1.15.11h4.13c1.1,0,2,.9,2,2v10.15c0,1.1-.9,2-2,2h-7.81Zm-35.58,0c-1.1,0-2-.9-2-2V5c0-1.1.9-2,2-2h12.6c1.1,0,2,.9,2,2v74.62c0,1.1-.9,2-2,2h-12.6Zm-32.12,0c-4.77,0-8.36-1.17-10.67-3.49-2.31-2.31-3.48-5.53-3.48-9.56v-32.68c0-4.03,1.17-7.24,3.48-9.56,2.32-2.31,5.91-3.49,10.67-3.49h11.82c4.78,0,8.35,1.18,10.63,3.5,2.27,2.31,3.42,5.52,3.42,9.54v19.96c0,1.1-.9,2-2,2h-21.76v9.27c0,.49.05.78.08.92.14.03.46.09,1.04.09h5.13c.56,0,.88-.05,1.04-.1.03-.13.08-.42.08-.92v-4.13c0-1.1.9-2,2-2h12.27c1.1,0,2,.9,2,2v5.58c0,4.03-1.17,7.24-3.49,9.56-2.31,2.31-5.9,3.49-10.67,3.49h-11.6Zm9.71-35.9v-8.48c0-.47-.04-.76-.08-.93-.18-.04-.51-.08-1.05-.08h-5.35c-.56,0-.88.06-1.04.1-.04.15-.08.43-.08.91v8.48h7.6Zm-54.77,35.9c-4.87,0-8.45-1.19-10.66-3.53-2.17-2.3-3.28-5.5-3.28-9.51v-32.68c0-4.01,1.1-7.21,3.28-9.51,2.21-2.34,5.79-3.53,10.66-3.53h12.6c4.79,0,8.34,1.19,10.54,3.53,2.17,2.31,3.28,5.51,3.28,9.51v32.68c0,4.01-1.1,7.21-3.28,9.51-2.21,2.34-5.75,3.53-10.54,3.53h-12.6Zm2.54-13.6c.15.05.49.12,1.14.12h5.13c.66,0,1-.08,1.15-.12.02-.1.09-.37.09-.89v-29.78c0-.47-.04-.75-.08-.91-.18-.05-.53-.11-1.15-.11h-5.13c-.62,0-.97.06-1.15.11-.04.15-.08.43-.08.91v29.78c0,.49.06.77.1.89Zm-59.65,13.6c-1.1,0-2-.9-2-2V9.24c0-1.1.9-2,2-2h25.88c4.85,0,8.46,1.18,10.74,3.5,2.27,2.31,3.42,5.52,3.42,9.54v22.42c0,4.02-1.15,7.23-3.42,9.54-2.28,2.32-5.89,3.5-10.74,3.5h-11.05v23.88c0,1.1-.9,2-2,2H5Zm22.08-39.69c.56,0,.88-.05,1.04-.1.03-.13.08-.42.08-.92v-18.85c0-.47-.04-.76-.08-.93-.18-.04-.51-.08-1.05-.08h-7.26v20.87h7.26Z"/>
  <path fill="rgba(0,0,0,0.1)" d="m151.89,5v3h-9.6v71.62h-3V5.38c.12-.14.24-.26.38-.38h12.22Zm-33.24,58.37v3.75c0,1.12-.21,1.9-.61,2.34-.41.45-1.25.67-2.51.67h-5.13s-.08,0-.12,0c0,1.19.22,1.98.67,2.39.45.41,1.26.61,2.45.61h5.13c1.26,0,2.1-.22,2.51-.67.41-.45.61-1.23.61-2.34v-4.13h9.27v-3h-11.89c-.13.12-.26.24-.38.38Zm3.22-23.14c0-1.19-.21-1.99-.61-2.4-.4-.39-1.2-.59-2.39-.61,0,0,0,0,0,0v10.48h-8.6v3h11.6v-10.48Zm-22.32,37.74c-1.03-1.72-1.55-3.85-1.55-6.4v-32.68c0-3.49.97-6.21,2.9-8.14,1.93-1.93,5.02-2.9,9.26-2.9h11.82c3.15,0,5.65.54,7.5,1.6-.37-.62-.8-1.19-1.3-1.7-1.9-1.93-4.96-2.9-9.2-2.9h-11.82c-2.49,0-4.57.34-6.26,1.01-1.06.57-2.01,1.25-2.82,2.06-.88.88-1.61,1.88-2.2,2.97-.57,1.44-.87,3.1-.87,5v32.68c0,3.5.97,6.21,2.9,8.14.48.48,1.03.9,1.65,1.26Zm78.99-8.51c-.08,0-.15,0-.23-.01,0,1.19.22,1.99.67,2.4.45.41,1.3.61,2.57.61h1.13v-3h-4.13Zm10.53-64.47c-.14.12-.26.24-.38.38v74.24h3V8h9.6v-3h-12.22Zm-31.83,29.67h3v-6.82h5.46v-9.81h9.6v-3h-12.22c-.14.12-.26.24-.38.38v9.44h-5.46v9.82Zm21.07-6.82h4.47v-3h-4.47v3Zm-11.06,50.16c-1.02-1.72-1.54-3.87-1.54-6.43v-33.91h-3v30.91c0,3.5.95,6.21,2.84,8.14.49.5,1.05.92,1.7,1.29ZM32.59,46.26c.41-.45.61-1.23.61-2.34v-18.85c0-1.19-.21-1.99-.61-2.4-.4-.39-1.2-.59-2.39-.61,0,0,0,0,0,0v18.85c0,1.12-.21,1.9-.61,2.34-.41.45-1.25.67-2.51.67h-6.26v3h9.26c1.26,0,2.1-.22,2.51-.67Zm36.19,26.88h5.13c1.26,0,2.12-.22,2.57-.67.45-.45.67-1.23.67-2.34v-29.78c0-1.19-.22-1.99-.67-2.4-.42-.38-1.2-.58-2.33-.6,0,0,0,0,0,0v29.78c0,1.12-.22,1.9-.67,2.34-.45.45-1.3.67-2.57.67h-5.13c-.09,0-.15,0-.23-.01,0,1.12.22,1.9.67,2.34.45.45,1.3.67,2.57.67Zm-14.1,4.94c-1.01-1.74-1.52-3.9-1.52-6.5v-32.68c0-3.49.91-6.21,2.73-8.14,1.82-1.93,4.89-2.9,9.2-2.9h12.6c3.07,0,5.5.52,7.3,1.53-.35-.59-.75-1.14-1.21-1.63-1.82-1.93-4.85-2.9-9.09-2.9h-12.6c-2.49,0-4.56.33-6.22.98-1.1.6-2.08,1.31-2.89,2.18-.76.8-1.39,1.7-1.92,2.67-.59,1.49-.9,3.22-.9,5.21v32.68c0,3.5.91,6.21,2.73,8.14.5.53,1.1.98,1.78,1.36ZM8,12.24h25.88c3.21,0,5.75.54,7.62,1.61-.37-.62-.8-1.19-1.3-1.71-1.9-1.93-5-2.9-9.31-2.9H5.38c-.14.12-.26.24-.38.38v70h3V12.24Z"/>
  <path fill="#0f0024" d="m201.3,5v74.62h-12.6V5h12.6m-49.41,0v74.62h-12.6V5h12.6M30.88,9.24c4.31,0,7.42.97,9.31,2.9,1.9,1.93,2.84,4.65,2.84,8.14v22.42c0,3.5-.95,6.21-2.84,8.14-1.9,1.93-5,2.9-9.31,2.9h-13.05v25.88H5V9.24h25.88m-13.05,34.69h9.26c1.26,0,2.1-.22,2.51-.67.41-.45.61-1.23.61-2.34v-18.85c0-1.19-.21-1.99-.61-2.4-.41-.41-1.25-.61-2.51-.61h-9.26v24.87M175.31,15.04v9.81h7.47v9.82h-7.47v31.79c0,1.19.22,1.99.67,2.4.45.41,1.3.61,2.57.61h4.13v10.15h-7.81c-4.31,0-7.42-.97-9.31-2.9-1.9-1.93-2.84-4.65-2.84-8.14v-33.91h-5.46v-9.82h5.46v-9.81h12.6m-56.32,9.81c4.24,0,7.31.97,9.2,2.9,1.9,1.93,2.84,4.65,2.84,8.14v19.96h-23.76v11.27c0,1.19.22,1.99.67,2.4.45.41,1.26.61,2.45.61h5.13c1.26,0,2.1-.22,2.51-.67.41-.45.61-1.23.61-2.34v-4.13h12.27v5.58c0,3.5-.97,6.21-2.9,8.14-1.93,1.93-5.02,2.9-9.26,2.9h-11.6c-4.24,0-7.32-.97-9.26-2.9-1.93-1.93-2.9-4.65-2.9-8.14v-32.68c0-3.49.97-6.21,2.9-8.14,1.93-1.93,5.02-2.9,9.26-2.9h11.82m-11.71,22.86h11.6v-10.48c0-1.19-.21-1.99-.61-2.4-.41-.41-1.25-.61-2.51-.61h-5.35c-1.19,0-2.01.21-2.45.61-.45.41-.67,1.21-.67,2.4v10.48m-32.57-22.86c4.24,0,7.27.97,9.09,2.9,1.82,1.93,2.73,4.65,2.73,8.14v32.68c0,3.5-.91,6.21-2.73,8.14-1.82,1.93-4.85,2.9-9.09,2.9h-12.6c-4.31,0-7.38-.97-9.2-2.9-1.82-1.93-2.73-4.65-2.73-8.14v-32.68c0-3.49.91-6.21,2.73-8.14,1.82-1.93,4.89-2.9,9.2-2.9h12.6m-8.92,45.28h5.13c1.26,0,2.12-.22,2.57-.67.45-.45.67-1.23.67-2.34v-29.78c0-1.19-.22-1.99-.67-2.4-.45-.41-1.3-.61-2.57-.61h-5.13c-1.26,0-2.12.21-2.57.61-.45.41-.67,1.21-.67,2.4v29.78c0,1.12.22,1.9.67,2.34.45.45,1.3.67,2.57.67M201.3,1h-12.6c-2.21,0-4,1.79-4,4v16.34c-.57-.31-1.22-.48-1.91-.48h-3.47v-5.81c0-2.21-1.79-4-4-4h-12.6c-2.21,0-4,1.79-4,4v5.81h-1.46c-.47,0-.93.08-1.35.23V5c0-2.21-1.79-4-4-4h-12.6c-2.21,0-4,1.79-4,4v74.62c0,2.21,1.79,4,4,4h12.6c2.21,0,4-1.79,4-4v-41.18c.42.15.88.23,1.35.23h1.46v29.91c0,4.56,1.34,8.25,3.99,10.94,2.67,2.72,6.76,4.1,12.17,4.1h7.81c1.2,0,2.28-.53,3.01-1.37.73.84,1.81,1.37,3.01,1.37h12.6c2.21,0,4-1.79,4-4V5c0-2.21-1.79-4-4-4h0Zm-21.99,37.67h3.47c.69,0,1.34-.18,1.91-.48v27.83c-.59-.35-1.28-.55-2.02-.55h-3.36v-26.8h0ZM30.88,5.24H5c-2.21,0-4,1.79-4,4v70.38c0,2.21,1.79,4,4,4h12.83c2.21,0,4-1.79,4-4v-21.88h9.05c5.41,0,9.5-1.38,12.17-4.1,1.42-1.45,2.46-3.17,3.13-5.17v20.11c0,4.53,1.29,8.2,3.82,10.89,2.6,2.76,6.67,4.16,12.11,4.16h12.6c5.36,0,9.4-1.4,12-4.16,2.54-2.69,3.82-6.35,3.82-10.89v-32.68c0-4.53-1.29-8.19-3.82-10.88-2.6-2.76-6.64-4.16-12-4.16h-12.6c-5.44,0-9.51,1.4-12.11,4.16-1.33,1.42-2.32,3.1-2.96,5.04v-9.77c0-4.56-1.34-8.24-3.99-10.94-2.67-2.72-6.76-4.1-12.17-4.1h0Zm-9.05,17.81h4.38v16.87h-4.38v-16.87h0Zm44.72,15.28h3.6v27.8h-3.6v-27.8h0Zm52.44-17.48h-11.82c-5.32,0-9.38,1.37-12.09,4.07-2.7,2.7-4.07,6.39-4.07,10.97v32.68c0,4.58,1.37,8.27,4.07,10.97,2.7,2.7,6.76,4.07,12.08,4.07h11.6c5.32,0,9.38-1.37,12.09-4.07,2.7-2.7,4.07-6.39,4.07-10.97v-5.58c0-1.54-.87-2.87-2.14-3.54,1.33-.65,2.25-2.02,2.25-3.6v-19.96c0-4.56-1.34-8.24-3.99-10.94-2.67-2.72-6.73-4.1-12.06-4.1h0Zm-7.68,15.94h0,0Zm-.03,1.43h3.6v5.5h-3.6v-5.5h0Zm0,21.64h4.9c-.93.73-1.52,1.87-1.52,3.14v3.14h-3.38v-6.28h0Z"/>
</svg>