<?xml version="1.0" encoding="UTF-8"?>
<svg version="1.1" xmlns="http://www.w3.org/2000/svg" width="512" height="512">
<path d="M0 0 C5.37634629 3.87173601 9.73410909 8.69680051 13.98828125 13.734375 C16.5433136 16.61188716 19.26116744 19.29857056 22 22 C25.87493705 25.82695205 29.55852029 29.71421847 33.0859375 33.8671875 C36.12927031 37.25832977 39.38976874 40.43198307 42.65039062 43.61328125 C46.00481107 46.91024786 49.03868498 50.34445728 52 54 C55.46266367 51.16691155 58.76693948 48.27362138 61.890625 45.0703125 C62.40270508 44.54598633 62.91478516 44.02166016 63.44238281 43.48144531 C64.45912691 42.43282836 65.46924347 41.3777327 66.47167969 40.31542969 C70.79639496 35.85817817 75.18120932 32.40268438 81.5 31.5 C85.67337594 32.09619656 88.75210813 33.35740119 92 36 C94.01416307 38.74982513 95.4733816 41.67917079 96.9375 44.75 C97.33517578 45.54277344 97.73285156 46.33554688 98.14257812 47.15234375 C99.11280082 49.09278914 100.05890816 51.04526049 101 53 C110.20356916 46.38301136 119.3837427 39.73691036 128.5 33 C136.12223947 27.36905111 143.78364291 21.79565494 151.4765625 16.26171875 C154.66849819 13.96484276 157.84882391 11.65278747 161.0234375 9.33203125 C162.25694946 8.43303101 162.25694946 8.43303101 163.51538086 7.51586914 C165.09652242 6.36312275 166.67556301 5.20748749 168.25219727 4.04858398 C169.31651978 3.27430054 169.31651978 3.27430054 170.40234375 2.484375 C171.02616943 2.02772461 171.64999512 1.57107422 172.29272461 1.10058594 C176.09489674 -1.35046397 179.59910958 -1.37295682 184 -1 C188.43922995 1.30498478 190.96312121 3.44321011 193 8 C193.40481167 11.47265155 193.3226449 14.91110067 193.24609375 18.40234375 C193.23420517 19.44889633 193.22231659 20.49544891 193.21006775 21.57371521 C193.16167614 25.04992228 193.08508748 28.52450368 193 32 C192.97093567 33.20650208 192.94187134 34.41300415 192.91192627 35.65606689 C192.71639952 43.31677221 192.47081509 50.97514305 192.20043945 58.63354492 C192.08391766 61.95245675 191.97270693 65.27145342 191.86443424 68.59063816 C191.75841572 71.81185639 191.64654779 75.03287002 191.53515625 78.25390625 C191.47727684 80.02260826 191.47727684 80.02260826 191.41822815 81.82704163 C191.22034108 87.28956747 190.93007852 92.61080089 190 98 C190.64400253 97.79955078 191.28800507 97.59910156 191.95152283 97.39257812 C198.67959488 95.30116375 205.4129773 93.22757405 212.1496582 91.1640625 C214.66016733 90.39254413 217.16930665 89.61655323 219.67700195 88.8359375 C223.29023499 87.71204355 226.90815485 86.60454209 230.52734375 85.5 C231.64020248 85.15001953 232.75306122 84.80003906 233.89964294 84.43945312 C248.26674571 80.09943418 248.26674571 80.09943418 255.4375 83.75 C258.59227114 86.52004295 259.84275442 88.36954134 260.24790955 92.57054138 C260.17197106 100.02965488 259.52214915 107.27373305 258.50390625 114.66015625 C258.27440529 116.38860023 258.27440529 116.38860023 258.04026794 118.15196228 C257.71859206 120.56330873 257.393196 122.97416163 257.06420898 125.38452148 C256.55973956 129.08273653 256.06701672 132.7823762 255.57617188 136.48242188 C255.26109343 138.83342413 254.94536183 141.18433897 254.62890625 143.53515625 C254.4069735 145.19442894 254.4069735 145.19442894 254.18055725 146.88722229 C253.97045265 148.42043373 253.97045265 148.42043373 253.75610352 149.98461914 C253.63396988 150.88330215 253.51183624 151.78198517 253.38600159 152.707901 C253 155 253 155 252 158 C252.81911865 158.24911133 253.6382373 158.49822266 254.48217773 158.75488281 C258.57772846 160.20448436 262.39135209 162.00555558 266.28515625 163.921875 C267.06386581 164.30434387 267.84257538 164.68681274 268.6448822 165.08087158 C270.28400807 165.88884407 271.92197487 166.69917176 273.55883789 167.51171875 C276.05195113 168.74478266 278.55399856 169.95829398 281.05664062 171.171875 C282.65423777 171.96234644 284.25126289 172.75397527 285.84765625 173.546875 C286.59048355 173.90336121 287.33331085 174.25984741 288.09864807 174.62713623 C292.94625348 177.07143109 295.87174913 179.53413404 299 184 C299.62890625 186.81640625 299.62890625 186.81640625 299.5625 189.5625 C299.56378906 190.47128906 299.56507813 191.38007813 299.56640625 192.31640625 C298.66190277 196.60188136 296.10738411 199.1754011 292.64428711 201.75415039 C291.7806958 202.28000732 290.91710449 202.80586426 290.02734375 203.34765625 C288.56651367 204.24762329 288.56651367 204.24762329 287.07617188 205.16577148 C286.04041016 205.79169189 285.00464844 206.4176123 283.9375 207.0625 C281.77965389 208.38754213 279.62210601 209.71307004 277.46484375 211.0390625 C276.38444824 211.69938477 275.30405273 212.35970703 274.19091797 213.04003906 C269.43304147 215.9624746 264.71527222 218.94698274 260 221.9375 C258.43755374 222.92586621 256.87505941 223.91415644 255.3125 224.90234375 C254.219375 225.59457031 253.12625 226.28679687 252 227 C257.55825993 235.91779249 263.49902614 244.52112787 269.56640625 253.09765625 C270.59701172 254.56525391 270.59701172 254.56525391 271.6484375 256.0625 C272.26895996 256.94035156 272.88948242 257.81820313 273.52880859 258.72265625 C276.23707259 262.91493746 276.65580529 267.12302542 276 272 C274.25560082 275.55589064 272.61837489 277.52075946 269.5 279.9375 C260.55706306 282.65232014 249.7256675 279.4610437 240.63056946 278.04231071 C238.47836042 277.70659365 236.32541571 277.3759888 234.17224121 277.04652405 C230.38566236 276.46630727 226.59976709 275.88176408 222.81408691 275.29571533 C216.72881364 274.35372903 210.64298807 273.41541635 204.55625916 272.48288155 C202.43980821 272.15750292 200.3239621 271.82838269 198.20812988 271.49900818 C196.92579468 271.30202835 195.64345947 271.10504852 194.32226562 270.90209961 C192.63115662 270.64015053 192.63115662 270.64015053 190.90588379 270.37290955 C187.82704151 269.91514312 187.82704151 269.91514312 184 270 C184.25056152 271.01175797 184.50112305 272.02351593 184.75927734 273.06593323 C187.12234369 282.61245258 189.4768445 292.16104903 191.82302856 301.71173191 C193.02942684 306.62147294 194.23880486 311.53043924 195.45507812 316.43774414 C196.62927238 321.17574733 197.79552722 325.9156409 198.95635986 330.65693474 C199.40007767 332.46326845 199.84662629 334.26890927 200.29608154 336.07382393 C200.92630616 338.60675212 201.54631641 341.14198251 202.1640625 343.67797852 C202.44458466 344.79036896 202.44458466 344.79036896 202.73077393 345.92523193 C204.08865038 351.57017057 204.88958318 356.68708372 202.75 362.25 C200.51473204 365.76256394 199.06879163 367.49069824 194.953125 368.50390625 C189.59824254 369.35745295 186.76615769 368.86094393 182 366 C179.76171875 363.90625 179.76171875 363.90625 177.6875 361.5 C176.52734375 360.16195312 176.52734375 360.16195312 175.34375 358.796875 C172.34563056 355.21911914 169.38577945 351.61279555 166.44921875 347.984375 C163.681893 344.61238637 160.8485306 341.30334554 158 338 C153.7001015 333.01074306 149.49514122 327.95778266 145.34375 322.84375 C142.60697862 319.52313406 139.80893615 316.25956291 137 313 C132.6927486 308.00088579 128.47219828 302.94347031 124.3125 297.8203125 C119.94234795 292.49049868 115.46543508 287.2500162 111 282 C108.68862369 287.8472894 106.95142285 293.6590151 105.44140625 299.7578125 C104.96850696 301.61859332 104.49518709 303.4792673 104.02148438 305.33984375 C103.28832156 308.23953836 102.55876596 311.14000899 101.83666992 314.04248047 C101.13185969 316.86696871 100.41266282 319.68748599 99.69140625 322.5078125 C99.48085098 323.37044708 99.27029572 324.23308167 99.05335999 325.12185669 C97.50167176 331.13394711 95.64549759 335.73243064 90.8125 339.875 C86.69217316 341.52313074 83.31176329 341.83632531 79 341 C73.93986907 338.69020966 69.2814342 335.80668668 64.5625 332.875 C63.29211609 332.10495241 62.02063694 331.33670867 60.74804688 330.5703125 C58.29171654 329.08704256 55.84214102 327.59364026 53.39892578 326.08886719 C48.95376838 323.3570207 44.47961117 320.67484286 40 318 C39.88724731 319.3614917 39.88724731 319.3614917 39.7722168 320.75048828 C39.48563413 324.13965867 39.1880265 327.52749285 38.88305664 330.91503906 C38.75366987 332.37722262 38.62860151 333.83979534 38.50805664 335.30273438 C38.33332047 337.41394995 38.1427439 339.52324613 37.94921875 341.6328125 C37.83924561 342.90012207 37.72927246 344.16743164 37.6159668 345.47314453 C36.77757287 350.27355621 35.12316573 353.70665765 31.9375 357.375 C27.73008138 359.70250817 23.70182588 359.96157642 19 359 C13.54632593 356.0521671 11.44990013 353.00926739 8.9140625 347.609375 C8.39409195 346.55245453 8.39409195 346.55245453 7.86361694 345.47418213 C6.76871846 343.23989397 5.69669235 340.99549651 4.625 338.75 C3.88299884 337.225837 3.13952373 335.70239062 2.39453125 334.1796875 C0.57919671 330.46119881 -1.21571789 326.73348186 -3 323 C-5.64418322 326.23571178 -8.09084087 329.51703563 -10.3984375 333 C-11.03604004 333.9600293 -11.67364258 334.92005859 -12.33056641 335.90917969 C-13.00522949 336.92915039 -13.67989258 337.94912109 -14.375 339 C-15.0767334 340.05348633 -15.7784668 341.10697266 -16.50146484 342.19238281 C-20.0189163 347.47686894 -23.50998291 352.77615289 -26.953125 358.109375 C-27.57268066 359.06070312 -28.19223633 360.01203125 -28.83056641 360.9921875 C-29.99897513 362.78788069 -31.15802403 364.58971023 -32.30615234 366.3984375 C-35.39654212 371.12833865 -37.93253623 374.39608163 -43 377 C-48.20499921 377.6506249 -51.634442 376.910372 -56 374 C-60.59234815 368.44257612 -62.23081267 361.81527394 -64.328125 355.015625 C-64.72199402 353.76368347 -65.11586304 352.51174194 -65.52166748 351.22186279 C-66.35101221 348.58442509 -67.1741156 345.94515486 -67.9921875 343.30419922 C-69.04168007 339.91640122 -70.10207756 336.53214723 -71.16652298 333.14902115 C-72.18250841 329.91823507 -73.19292149 326.68572406 -74.203125 323.453125 C-74.58430481 322.23546448 -74.96548462 321.01780396 -75.35821533 319.76324463 C-75.7056781 318.64157898 -76.05314087 317.51991333 -76.41113281 316.36425781 C-76.71883606 315.37419739 -77.02653931 314.38413696 -77.34356689 313.36407471 C-78 311 -78 311 -78 309 C-79.19625 308.87625 -80.3925 308.7525 -81.625 308.625 C-84.38792921 308.33917974 -86.28815729 307.87454376 -88.87109375 306.75 C-92.06508777 305.65836931 -92.06508777 305.65836931 -95.18359375 307.3359375 C-96.25738281 308.00882812 -97.33117187 308.68171875 -98.4375 309.375 C-103.2556788 312.37838943 -106.28550108 313.6015262 -112 313 C-112.96873047 312.40058594 -112.96873047 312.40058594 -113.95703125 311.7890625 C-116.25457393 310.64798748 -116.25457393 310.64798748 -119.63671875 312.2734375 C-120.99595578 312.95637771 -122.34607666 313.65770226 -123.6875 314.375 C-124.37650391 314.69855469 -125.06550781 315.02210938 -125.77539062 315.35546875 C-127.80644654 316.42192289 -129.39259603 317.35813148 -131 319 C-131.20147664 320.99880788 -131.39810355 323.00035124 -131.48120117 325.00756836 C-132.2086313 327.80124237 -133.47636509 328.51649291 -135.8515625 330.10546875 C-137.55080589 331.0997785 -139.26848603 332.06301583 -141 333 C-141.9084668 333.51900879 -142.81693359 334.03801758 -143.75292969 334.57275391 C-146.60868099 336.18865041 -149.48657713 337.75585331 -152.375 339.3125 C-153.35855469 339.84939453 -154.34210938 340.38628906 -155.35546875 340.93945312 C-161.46855717 344.25523911 -165.84345382 346.60648696 -173 346 C-177.33682792 343.7481855 -180.16927416 341.57681459 -182 337 C-183.29763732 327.71164867 -178.91616659 320.69019471 -174.8125 312.6875 C-173.70829402 310.48427457 -172.61066065 308.2778499 -171.51313782 306.07128906 C-170.76835918 304.57514578 -170.02151236 303.08003031 -169.27262878 301.5859375 C-165.68250411 294.41461112 -162.2894008 287.16007049 -158.9375 279.875 C-158.14303467 278.15398071 -158.14303467 278.15398071 -157.33251953 276.39819336 C-156.33730314 274.24146925 -155.34294563 272.08434851 -154.34960938 269.92675781 C-152.4751411 265.86179296 -150.58355177 261.80493246 -148.6875 257.75 C-148.15511719 256.61046875 -147.62273437 255.4709375 -147.07421875 254.296875 C-146.71972656 253.53890625 -146.36523438 252.7809375 -146 252 C-146.66644531 251.46632813 -147.33289063 250.93265625 -148.01953125 250.3828125 C-153.99873043 245.54927806 -159.76198798 240.57418301 -165.4140625 235.359375 C-168.35384557 232.67715601 -171.37568313 230.10702311 -174.44140625 227.5703125 C-177.43156522 224.55767113 -177.97633133 222.29822526 -178.3125 218.0625 C-178.19991617 214.2698322 -177.42607475 212.011679 -175 209 C-171.07950588 205.53527287 -166.92584839 203.22833102 -162.29296875 200.890625 C-161.56757401 200.51895203 -160.84217926 200.14727905 -160.09480286 199.76434326 C-157.79505438 198.58754687 -155.49138421 197.4186753 -153.1875 196.25 C-151.6201763 195.44974029 -150.05311609 194.64896433 -148.48632812 193.84765625 C-144.66057486 191.89245093 -140.83128642 189.94433902 -137 188 C-137.8463311 183.41636853 -140.55854571 181.28476351 -143.9375 178.3125 C-144.52724609 177.78140625 -145.11699219 177.2503125 -145.72460938 176.703125 C-147.47643949 175.12780648 -149.23747119 173.5633266 -151 172 C-152.66752881 170.5009585 -154.33428882 169.00106098 -156 167.5 C-156.7940625 166.7884375 -157.588125 166.076875 -158.40625 165.34375 C-161.45891681 162.58531613 -164.48082656 159.79497956 -167.5 157 C-172.12350101 152.72022376 -176.78092388 148.48241345 -181.47265625 144.27734375 C-184.84344904 141.23998332 -188.18380137 138.16984363 -191.52392578 135.09887695 C-194.80722669 132.08343823 -198.11482831 129.09713723 -201.4375 126.125 C-212.70432644 115.99751556 -212.70432644 115.99751556 -213.3359375 111.73046875 C-213.42430859 105.97751049 -213.01900188 102.46555764 -209 98 C-202.17891698 93.86111585 -193.75453802 96.19636108 -186.40039062 97.77587891 C-185.48694382 97.96440933 -184.57349701 98.15293976 -183.63237 98.34718323 C-181.66409813 98.7543046 -179.69662717 99.16531402 -177.72990417 99.57985306 C-174.61178298 100.23591854 -171.49126437 100.87917151 -168.36975098 101.51889038 C-159.50027495 103.33844735 -150.6348198 105.17696242 -141.77294922 107.03320312 C-136.33869083 108.17055431 -130.90097133 109.28989066 -125.46073914 110.39829636 C-123.39574518 110.82280159 -121.33215509 111.25419873 -119.27009583 111.69273758 C-116.38313048 112.30634982 -113.49229956 112.89697316 -110.59960938 113.48291016 C-109.7577861 113.66776474 -108.91596283 113.85261932 -108.04862976 114.04307556 C-100.19658065 115.58770444 -93.74122894 113.96108265 -86.4375 110.875 C-85.59058594 110.52179688 -84.74367187 110.16859375 -83.87109375 109.8046875 C-82.94490234 109.40636719 -82.94490234 109.40636719 -82 109 C-81.93006836 108.21874756 -81.86013672 107.43749512 -81.78808594 106.63256836 C-81.45909233 103.06573818 -81.10478936 99.50185291 -80.75 95.9375 C-80.64042969 94.70837891 -80.53085938 93.47925781 -80.41796875 92.21289062 C-79.7354575 85.54942549 -79.16817109 80.3623369 -75 75 C-70.48386614 72.21271717 -66.15128676 72.39038534 -61 73 C-56.39113146 74.19771781 -51.96323667 75.78509946 -47.5 77.4375 C-46.32179687 77.85837891 -45.14359375 78.27925781 -43.9296875 78.71289062 C-35.5653699 81.71731505 -35.5653699 81.71731505 -33 83 C-32.90501221 82.44203735 -32.81002441 81.88407471 -32.7121582 81.3092041 C-30.17675027 66.46314926 -27.50205691 51.64759812 -24.64550781 36.85986328 C-24.20986046 34.5923221 -23.7796475 32.32373102 -23.35449219 30.05419922 C-22.72774294 26.71074404 -22.08447444 23.37084282 -21.4375 20.03125 C-21.25195557 19.02396851 -21.06641113 18.01668701 -20.87524414 16.97888184 C-19.6813489 10.93713406 -18.38403991 4.45604546 -13.10546875 0.625 C-8.36957317 -0.91826536 -4.8758807 -1.62529357 0 0 Z " fill="#020100" transform="translate(213,68)"/>
<path d="M0 0 C0.66 0 1.32 0 2 0 C3.375 1.3984375 3.375 1.3984375 5 3.375 C7.86045355 6.74795148 10.84869661 9.89673477 14 13 C16.91053801 15.87557659 19.72424022 18.75874094 22.375 21.875 C25.89731293 25.99827627 29.7356635 29.76346809 33.59057617 33.57104492 C36.40037025 36.35964967 39.11071408 39.17824651 41.6875 42.1875 C44.26392261 45.17237985 46.86732576 48.12126738 49.5625 51 C50.26503906 51.763125 50.96757812 52.52625 51.69140625 53.3125 C54.69401359 55.50729928 56.35567367 55.52130761 60 55 C61.98973765 53.94771268 61.98973765 53.94771268 63.625 52.25 C64.2953125 51.61964844 64.965625 50.98929688 65.65625 50.33984375 C67.43263064 48.56642374 69.20316504 46.78802311 70.96875 45.00390625 C71.49001465 44.47829102 72.0112793 43.95267578 72.54833984 43.41113281 C73.57623851 42.36890914 74.59775384 41.32033919 75.61181641 40.26464844 C78.83020993 36.9654449 82.08293193 34.43509128 86 32 C87.27182393 34.37447413 88.54248424 36.74955897 89.8125 39.125 C90.16892578 39.79015625 90.52535156 40.4553125 90.89257812 41.140625 C92.52539143 44.19653246 94.12157913 47.25012222 95.63671875 50.3671875 C96.86735091 53.06920466 96.86735091 53.06920466 99 55 C103.44588028 55.62153533 105.9404164 54.80786714 109.53808594 52.15698242 C110.3545459 51.52240112 110.3545459 51.52240112 111.1875 50.875 C112.07937012 50.210448 112.07937012 50.210448 112.98925781 49.5324707 C114.29771856 48.55646852 115.60173053 47.57448133 116.90185547 46.58740234 C119.86440865 44.34601059 122.85927264 42.1494908 125.8527832 39.94970703 C128.28497269 38.16179139 130.71281111 36.36806989 133.140625 34.57421875 C138.46668175 30.64757811 143.8320974 26.7767656 149.20532227 22.91503906 C153.19378899 20.04351844 157.16134181 17.14704468 161.10546875 14.21484375 C162.37874023 13.26931641 162.37874023 13.26931641 163.67773438 12.3046875 C165.30263719 11.09581038 166.92519414 9.88377101 168.54492188 8.66796875 C172.88961138 5.43681826 177.23785423 2.57975844 182 0 C182.13263868 15.67585195 181.96296899 31.32972263 181.5625 47 C181.5330278 48.22109467 181.5330278 48.22109467 181.50296021 49.46685791 C181.28521675 58.34564099 180.99114717 67.16602083 180 76 C178.73542969 75.96519531 177.47085938 75.93039063 176.16796875 75.89453125 C174.50782577 75.86639323 172.84766844 75.83909309 171.1875 75.8125 C170.35412109 75.78736328 169.52074219 75.76222656 168.66210938 75.73632812 C167.85966797 75.72666016 167.05722656 75.71699219 166.23046875 75.70703125 C165.49207764 75.6913208 164.75368652 75.67561035 163.99291992 75.65942383 C161.41999268 76.09911922 160.55833131 76.9388447 159 79 C158.59849027 82.14515954 158.63816165 84.21040134 159.96484375 87.10546875 C163.15721934 90.07725793 166.71569554 89.93532217 170.9375 90.375 C185.21828591 92.277311 196.12172219 98.12312827 205.0703125 109.671875 C209.00432609 115.49882401 211.41734358 121.17022884 213 128 C213.27263672 128.96679688 213.27263672 128.96679688 213.55078125 129.953125 C216.13587763 141.73217286 212.85165614 154.87912202 206.6875 165 C198.67911707 176.45266627 188.15356389 183.81738225 174.32763672 186.52294922 C170.70074424 187.04290138 167.21826418 187.1438221 163.5546875 187.17578125 C162.1340994 187.19895728 160.71352639 187.22307367 159.29296875 187.24804688 C157.07655333 187.28325543 154.86070523 187.31258604 152.64404297 187.32592773 C150.4885843 187.34140209 148.33472318 187.38156644 146.1796875 187.42578125 C144.89819824 187.44036377 143.61670898 187.45494629 142.29638672 187.4699707 C138.366868 188.10180192 137.43259768 188.92472164 135 192 C134.39483081 194.60481888 134.39483081 194.60481888 134.4699707 197.48706055 C134.45347977 198.58467209 134.43698883 199.68228363 134.41999817 200.81315613 C134.42190659 201.99243179 134.423815 203.17170746 134.42578125 204.38671875 C134.41161667 205.59946976 134.39745209 206.81222076 134.38285828 208.0617218 C134.34089205 211.93707136 134.3257009 215.81195493 134.3125 219.6875 C134.28349791 223.57354039 134.24902258 227.45946087 134.21000671 231.34541321 C134.18742158 233.7647816 134.17166209 236.18422459 134.16316223 238.60368347 C134.15612778 239.69183853 134.14909332 240.77999359 134.1418457 241.90112305 C134.13836624 242.86390671 134.13488678 243.82669037 134.13130188 244.81864929 C134 247 134 247 133 248 C130.9394469 248.09993532 128.8754741 248.13080906 126.8125 248.1328125 C125.55695313 248.13410156 124.30140625 248.13539063 123.0078125 248.13671875 C122.35071289 248.13462402 121.69361328 248.1325293 121.01660156 248.13037109 C119.00838665 248.12502234 117.00039541 248.13031691 114.9921875 248.13671875 C113.10886719 248.13478516 113.10886719 248.13478516 111.1875 248.1328125 C110.02605469 248.13168457 108.86460937 248.13055664 107.66796875 248.12939453 C105 248 105 248 104 247 C103.60244214 242.530499 103.58117034 238.04716115 103.5 233.5625 C103.44585937 232.31533203 103.39171875 231.06816406 103.3359375 229.78320312 C103.19969114 220.52331686 105.26979533 216.06421641 111 209 C112.44899332 206.50981917 113.64498656 203.94435233 114.8125 201.3125 C115.24079102 200.39500977 115.24079102 200.39500977 115.67773438 199.45898438 C118.54809145 193.16551005 120.80531788 186.97942164 120 180 C118.55851025 177.81452316 118.55851025 177.81452316 116 177 C112.31184707 177.22868094 112.31184707 177.22868094 109 178 C108.76925781 178.58265625 108.53851563 179.1653125 108.30078125 179.765625 C107.60322947 181.51915437 106.89951254 183.27023732 106.19140625 185.01953125 C105.40497573 186.98689678 104.64137612 188.96356237 103.90234375 190.94921875 C96.64282772 209.77474337 83.04277988 221.86105362 65.234375 230.3125 C48.67616535 237.39399847 30.58072106 236.7763992 13.98730469 230.20263672 C3.64077908 225.86416715 -4.30775847 220.17521535 -12 212 C-12.48678223 211.49500977 -12.97356445 210.99001953 -13.47509766 210.46972656 C-16.98891268 206.61867232 -16.98891268 206.61867232 -17.0390625 203.8203125 C-15.7688074 201.59497838 -14.40711549 200.43635514 -12.375 198.875 C0.58095 187.98180412 6.64028232 170.81430907 8.38671875 154.35546875 C8.8736905 139.39368148 3.21137708 125.31706562 -5 113 C11.53017247 99.70839194 29.1175307 95.01935358 50 97 C69.20247437 100.23043258 85.47300478 110.84147719 96.77734375 126.59765625 C101.84333947 134.07316753 105.01118987 142.61569411 108.04296875 151.07421875 C108.96921405 153.33932571 108.96921405 153.33932571 112 155 C115.07665027 154.91778291 115.07665027 154.91778291 118 154 C120.49455652 150.25816522 120.46921568 147.32985103 120 143 C117.26921642 133.80055176 112.9349292 122.64097133 105.8359375 115.96484375 C102.93232841 111.27582397 103.5787649 106.57811268 103.75 101.1875 C103.76804687 100.11306641 103.78609375 99.03863281 103.8046875 97.93164062 C103.85170608 95.28684535 103.9174084 92.64388411 104 90 C104.82725586 89.98541748 105.65451172 89.97083496 106.50683594 89.95581055 C110.25502881 89.8813414 114.00232997 89.7846754 117.75 89.6875 C119.05195313 89.66494141 120.35390625 89.64238281 121.6953125 89.61914062 C122.94570313 89.58369141 124.19609375 89.54824219 125.484375 89.51171875 C126.63647461 89.48553467 127.78857422 89.45935059 128.97558594 89.43237305 C132.24545372 88.96490971 133.6768332 88.31194377 136 86 C136.48168728 83.72110658 136.48168728 83.72110658 136.25 81.3125 C136.21390625 80.50425781 136.1778125 79.69601563 136.140625 78.86328125 C136.09421875 78.24839844 136.0478125 77.63351563 136 77 C130.83771576 75.27923859 125.31768754 75.7745276 119.91357422 75.75976562 C117.77140934 75.75009663 115.63021959 75.71907891 113.48828125 75.6875 C112.11198482 75.68096549 110.73568158 75.67571678 109.359375 75.671875 C108.11639648 75.6625293 106.87341797 75.65318359 105.59277344 75.64355469 C100.29439217 76.16921632 96.37582854 77.55175943 92.625 81.5 C90.21351093 85.20998319 89.79421273 88.35598829 89.4375 92.6875 C89.35371094 93.68136719 89.26992188 94.67523438 89.18359375 95.69921875 C89.12300781 96.45847656 89.06242188 97.21773438 89 98 C88.48695313 97.64808594 87.97390625 97.29617187 87.4453125 96.93359375 C67.63317302 84.15909977 44.41846347 79.96927396 21.26953125 84.19140625 C8.65856837 87.31024653 -4.6590995 92.6590995 -14 102 C-17.48580993 101.5144367 -20.29813178 99.86400957 -23.37939453 98.21899414 C-35.704835 91.66735728 -47.06537147 89.70376912 -61 89 C-60.34 83.06 -59.68 77.12 -59 71 C-53.6859629 72.54121662 -48.44242788 74.16244927 -43.23828125 76.04296875 C-41.77745117 76.56987305 -41.77745117 76.56987305 -40.28710938 77.10742188 C-38.28991244 77.83260238 -36.29513329 78.56447365 -34.30273438 79.30273438 C-26.84629945 82.02223381 -26.84629945 82.02223381 -19 82 C-14.49244239 78.74707957 -13.95294374 74.62152414 -13.10546875 69.43359375 C-12.95233719 68.57857269 -12.79920563 67.72355164 -12.64143372 66.84262085 C-12.14271642 64.04319623 -11.66539381 61.24054704 -11.1875 58.4375 C-10.67345477 55.52795351 -10.15359188 52.61948517 -9.6333313 49.71104431 C-9.28007516 47.73468274 -8.92858676 45.75800442 -8.5788269 43.78102112 C-6.86025257 34.09600071 -4.95371135 24.45241734 -3 14.8125 C-2.69416743 13.2968112 -2.38841939 11.78110534 -2.08276367 10.26538086 C-1.39171285 6.84293298 -0.69711653 3.42121821 0 0 Z " fill="#FABF6C" transform="translate(208,86)"/>
<path d="M0 0 C10.83403499 9.23988413 17.73224554 20.47642445 22.4765625 33.87109375 C24.26622667 39.31872699 24.26622667 39.31872699 28.625 42.8125 C29.553125 43.18375 30.48125 43.555 31.4375 43.9375 C32.88457125 47.88568856 32.54763781 52.03934628 32.5 56.1875 C32.49548828 56.93257813 32.49097656 57.67765625 32.48632812 58.4453125 C32.47459246 60.2760764 32.4566585 62.10679873 32.4375 63.9375 C31.32632813 64.17726563 30.21515625 64.41703125 29.0703125 64.6640625 C25.4298519 65.54545938 25.4298519 65.54545938 24.0546875 67.8984375 C23.80976563 68.69507813 23.56484375 69.49171875 23.3125 70.3125 C23.00570312 71.20839844 22.69890625 72.10429687 22.3828125 73.02734375 C22.07085937 73.98769531 21.75890625 74.94804687 21.4375 75.9375 C14.09804167 96.10761724 0.7400377 109.20070245 -18.328125 118.25 C-34.88633465 125.33149847 -52.98177894 124.7138992 -69.57519531 118.14013672 C-79.92172092 113.80166715 -87.87025847 108.11271535 -95.5625 99.9375 C-96.29267334 99.18001465 -96.29267334 99.18001465 -97.03759766 98.40722656 C-100.55141268 94.55617232 -100.55141268 94.55617232 -100.6015625 91.7578125 C-99.3313074 89.53247838 -97.96961549 88.37385514 -95.9375 86.8125 C-82.98155 75.91930412 -76.92221768 58.75180907 -75.17578125 42.29296875 C-74.6888095 27.33118148 -80.35112292 13.25456562 -88.5625 0.9375 C-61.84145414 -20.54840218 -27.14497711 -20.70892954 0 0 Z " fill="#FABF6C" transform="translate(291.5625,198.0625)"/>
<path d="M0 0 C10.87599845 7.39937094 17.4158087 19.29977354 20.51171875 31.94140625 C21.67612146 45.62313815 18.94944175 58.68257112 10.76171875 69.87890625 C10.01921875 70.93078125 9.27671875 71.98265625 8.51171875 73.06640625 C0.12240758 81.64638359 -9.99740352 85.68925424 -21.12109375 89.6015625 C-21.97517822 89.90578125 -22.8292627 90.21 -23.70922852 90.5234375 C-25.41092339 91.1262046 -27.11710349 91.71648421 -28.82788086 92.29296875 C-32.12225911 93.45398311 -34.70444603 94.41585581 -37.359375 96.71875 C-39.66655135 102.38927675 -35.67012851 109.52397456 -33.640625 114.9140625 C-32.91458104 116.87690412 -32.18867369 118.83979627 -31.46289062 120.80273438 C-30.31774149 123.88033806 -29.16997224 126.95693251 -28.01928711 130.0324707 C-26.90700095 133.01132471 -25.8045891 135.99369326 -24.703125 138.9765625 C-24.35628159 139.89438004 -24.00943817 140.81219757 -23.65208435 141.75782776 C-23.33498001 142.61899704 -23.01787567 143.48016632 -22.69116211 144.36743164 C-22.40994003 145.11988663 -22.12871796 145.87234161 -21.838974 146.64759827 C-21.16846826 149.13823065 -21.13315211 151.31098872 -21.23828125 153.87890625 C-24.11232718 155.00635418 -26.98768551 156.13041768 -29.86328125 157.25390625 C-30.67152344 157.57101562 -31.47976562 157.888125 -32.3125 158.21484375 C-44.26416016 162.87890625 -44.26416016 162.87890625 -49.23828125 162.87890625 C-49.45473801 162.27885269 -49.67119476 161.67879913 -49.89421082 161.06056213 C-59.86233426 133.43248083 -69.86062671 105.81632474 -80.02453613 78.25958252 C-81.35478003 74.65196155 -82.6829442 71.04358041 -84.01074219 67.43505859 C-89.04759617 53.75106831 -89.04759617 53.75106831 -94.18536377 40.10476685 C-95.28085989 37.22843785 -96.36714186 34.3486744 -97.45281982 31.46862793 C-98.14814182 29.63912979 -98.86011456 27.8159864 -99.57275391 25.99316406 C-99.96640137 24.94870117 -100.36004883 23.90423828 -100.765625 22.828125 C-101.10327881 21.95502686 -101.44093262 21.08192871 -101.78881836 20.18237305 C-102.23828125 17.87890625 -102.23828125 17.87890625 -101.83398438 15.77001953 C-99.28684518 12.75133223 -95.81665746 11.89617119 -92.1796875 10.671875 C-91.36193344 10.38339188 -90.54417938 10.09490875 -89.7016449 9.79768372 C-87.07260879 8.87347395 -84.43714283 7.96948133 -81.80078125 7.06640625 C-80.09131757 6.47077487 -78.38232749 5.87378243 -76.67382812 5.27539062 C-74.11298596 4.37869118 -71.55174925 3.48335617 -68.9881897 2.5944519 C-62.05649363 0.18722599 -55.16948606 -2.33149868 -48.29969788 -4.90986633 C-47.56134201 -5.18541855 -46.82298615 -5.46097076 -46.06225586 -5.74487305 C-45.41808212 -5.98715134 -44.77390839 -6.22942963 -44.11021423 -6.47904968 C-29.11551281 -11.6220004 -13.07888805 -8.02149472 0 0 Z " fill="#FABF6C" transform="translate(181.23828125,198.12109375)"/>
<path d="M0 0 C0.66 0 1.32 0 2 0 C3.375 1.3984375 3.375 1.3984375 5 3.375 C7.86045355 6.74795148 10.84869661 9.89673477 14 13 C16.91053801 15.87557659 19.72424022 18.75874094 22.375 21.875 C25.89731293 25.99827627 29.7356635 29.76346809 33.59057617 33.57104492 C36.40037025 36.35964967 39.11071408 39.17824651 41.6875 42.1875 C44.26392261 45.17237985 46.86732576 48.12126738 49.5625 51 C50.26503906 51.763125 50.96757812 52.52625 51.69140625 53.3125 C54.69401359 55.50729928 56.35567367 55.52130761 60 55 C61.98973765 53.94771268 61.98973765 53.94771268 63.625 52.25 C64.2953125 51.61964844 64.965625 50.98929688 65.65625 50.33984375 C67.43263064 48.56642374 69.20316504 46.78802311 70.96875 45.00390625 C71.49001465 44.47829102 72.0112793 43.95267578 72.54833984 43.41113281 C73.57623851 42.36890914 74.59775384 41.32033919 75.61181641 40.26464844 C78.83020993 36.9654449 82.08293193 34.43509128 86 32 C87.27182393 34.37447413 88.54248424 36.74955897 89.8125 39.125 C90.16892578 39.79015625 90.52535156 40.4553125 90.89257812 41.140625 C92.52539143 44.19653246 94.12157913 47.25012222 95.63671875 50.3671875 C96.86735091 53.06920466 96.86735091 53.06920466 99 55 C103.44588028 55.62153533 105.9404164 54.80786714 109.53808594 52.15698242 C110.3545459 51.52240112 110.3545459 51.52240112 111.1875 50.875 C112.07937012 50.210448 112.07937012 50.210448 112.98925781 49.5324707 C114.29771856 48.55646852 115.60173053 47.57448133 116.90185547 46.58740234 C119.86440865 44.34601059 122.85927264 42.1494908 125.8527832 39.94970703 C128.28497269 38.16179139 130.71281111 36.36806989 133.140625 34.57421875 C138.46668175 30.64757811 143.8320974 26.7767656 149.20532227 22.91503906 C153.19378899 20.04351844 157.16134181 17.14704468 161.10546875 14.21484375 C162.37874023 13.26931641 162.37874023 13.26931641 163.67773438 12.3046875 C165.30263719 11.09581038 166.92519414 9.88377101 168.54492188 8.66796875 C172.88961138 5.43681826 177.23785423 2.57975844 182 0 C182.13263868 15.67585195 181.96296899 31.32972263 181.5625 47 C181.5330278 48.22109467 181.5330278 48.22109467 181.50296021 49.46685791 C181.28521675 58.34564099 180.99114717 67.16602083 180 76 C178.73542969 75.96519531 177.47085938 75.93039063 176.16796875 75.89453125 C174.50782577 75.86639323 172.84766844 75.83909309 171.1875 75.8125 C170.35412109 75.78736328 169.52074219 75.76222656 168.66210938 75.73632812 C167.85966797 75.72666016 167.05722656 75.71699219 166.23046875 75.70703125 C165.49207764 75.6913208 164.75368652 75.67561035 163.99291992 75.65942383 C161.41740211 76.09956193 160.586631 76.95979007 159 79 C158.67 79.99 158.34 80.98 158 82 C151.4 82 144.8 82 138 82 C137.67 82.66 137.34 83.32 137 84 C136.67 81.69 136.34 79.38 136 77 C130.83771576 75.27923859 125.31768754 75.7745276 119.91357422 75.75976562 C117.77140934 75.75009663 115.63021959 75.71907891 113.48828125 75.6875 C112.11198482 75.68096549 110.73568158 75.67571678 109.359375 75.671875 C108.11639648 75.6625293 106.87341797 75.65318359 105.59277344 75.64355469 C100.29439217 76.16921632 96.37582854 77.55175943 92.625 81.5 C90.21351093 85.20998319 89.79421273 88.35598829 89.4375 92.6875 C89.35371094 93.68136719 89.26992188 94.67523438 89.18359375 95.69921875 C89.12300781 96.45847656 89.06242188 97.21773438 89 98 C88.48695313 97.64808594 87.97390625 97.29617187 87.4453125 96.93359375 C67.63317302 84.15909977 44.41846347 79.96927396 21.26953125 84.19140625 C8.65856837 87.31024653 -4.6590995 92.6590995 -14 102 C-17.48580993 101.5144367 -20.29813178 99.86400957 -23.37939453 98.21899414 C-35.704835 91.66735728 -47.06537147 89.70376912 -61 89 C-60.34 83.06 -59.68 77.12 -59 71 C-53.6859629 72.54121662 -48.44242788 74.16244927 -43.23828125 76.04296875 C-41.77745117 76.56987305 -41.77745117 76.56987305 -40.28710938 77.10742188 C-38.28991244 77.83260238 -36.29513329 78.56447365 -34.30273438 79.30273438 C-26.84629945 82.02223381 -26.84629945 82.02223381 -19 82 C-14.49244239 78.74707957 -13.95294374 74.62152414 -13.10546875 69.43359375 C-12.95233719 68.57857269 -12.79920563 67.72355164 -12.64143372 66.84262085 C-12.14271642 64.04319623 -11.66539381 61.24054704 -11.1875 58.4375 C-10.67345477 55.52795351 -10.15359188 52.61948517 -9.6333313 49.71104431 C-9.28007516 47.73468274 -8.92858676 45.75800442 -8.5788269 43.78102112 C-6.86025257 34.09600071 -4.95371135 24.45241734 -3 14.8125 C-2.69416743 13.2968112 -2.38841939 11.78110534 -2.08276367 10.26538086 C-1.39171285 6.84293298 -0.69711653 3.42121821 0 0 Z " fill="#F84958" transform="translate(208,86)"/>
<path d="M0 0 C0.07088874 4.56566688 -0.14427651 8.91585312 -0.76953125 13.4375 C-0.93485352 14.65179688 -1.10017578 15.86609375 -1.27050781 17.1171875 C-1.44936523 18.39851563 -1.62822266 19.67984375 -1.8125 21 C-1.9950273 22.33586095 -2.17698756 23.67179949 -2.35839844 25.0078125 C-2.72536907 27.70731047 -3.0943051 30.40652528 -3.46533203 33.10546875 C-4.2382606 38.73549458 -5.00005714 44.36686965 -5.75 50 C-5.87737549 50.92941406 -6.00475098 51.85882813 -6.13598633 52.81640625 C-6.45395821 55.20865999 -6.73613992 57.60127204 -7 60 C-7.12890625 61.093125 -7.2578125 62.18625 -7.390625 63.3125 C-6.95573942 66.30451282 -6.12431709 67.73532121 -3.85498047 69.73144531 C0.43697252 72.6665582 5.22591396 74.71189534 9.9375 76.875 C12.18528914 77.928849 14.43268738 78.9835322 16.6796875 80.0390625 C18.30535645 80.79751465 18.30535645 80.79751465 19.96386719 81.57128906 C23.86062751 83.4049849 27.71873079 85.30813631 31.5625 87.25 C32.63628906 87.79140625 33.71007812 88.3328125 34.81640625 88.890625 C35.53699219 89.25671875 36.25757813 89.6228125 37 90 C34.09951942 93.11666016 31.15980898 95.30727646 27.51953125 97.50390625 C26.44501709 98.15689697 25.37050293 98.8098877 24.26342773 99.48266602 C23.69937225 99.82226349 23.13531677 100.16186096 22.5541687 100.51174927 C20.79708514 101.5717998 19.04628175 102.64153553 17.29711914 103.71459961 C12.06292336 106.92461835 6.81667295 110.11163925 1.5390625 113.25 C0.00464434 114.18657662 -1.52925543 115.12400335 -3.0625 116.0625 C-3.76334717 116.46605713 -4.46419434 116.86961426 -5.1862793 117.28540039 C-8.32172837 119.23299125 -9.87791177 120.72208405 -11.37109375 124.12109375 C-10.79117942 130.18272462 -7.48742683 134.13591504 -4 139 C-3.3184082 139.98613281 -2.63681641 140.97226562 -1.93457031 141.98828125 C0.87099039 146.04470375 3.71797569 150.0712651 6.56640625 154.09765625 C7.59701172 155.56525391 7.59701172 155.56525391 8.6484375 157.0625 C9.26895996 157.94035156 9.88948242 158.81820312 10.52880859 159.72265625 C12 162 12 162 13 165 C5.17980968 164.64564763 -2.24185424 163.86282704 -9.91015625 162.29760742 C-17.88243456 160.73016065 -25.94070198 159.77531519 -33.99603271 158.74459839 C-41.42506384 157.79120035 -48.79000525 156.77013901 -56.125 155.25 C-66.68555282 152.84649014 -66.68555282 152.84649014 -76.82421875 155.0859375 C-79.18311229 158.92599676 -78.16840756 163.14409332 -77.3359375 167.375 C-77.01882813 168.57125 -76.70171875 169.7675 -76.375 171 C-76.1989624 171.67587158 -76.0229248 172.35174316 -75.84155273 173.0480957 C-75.23575859 175.36759175 -74.61789505 177.68369991 -74 180 C-73.01688444 183.72813382 -72.0392151 187.45768481 -71.0625 191.1875 C-70.80662109 192.16211182 -70.55074219 193.13672363 -70.28710938 194.14086914 C-68.34281998 201.58438765 -66.51924995 209.05130534 -64.76513672 216.54174805 C-63.81360954 220.60188263 -62.84374092 224.65367458 -61.80078125 228.69140625 C-61.61273926 229.42174072 -61.42469727 230.1520752 -61.23095703 230.90454102 C-60.72528551 232.85430681 -60.21253644 234.80223326 -59.69921875 236.75 C-59.0787818 239.63381866 -58.8500524 242.0676913 -59 245 C-62.54208647 242.32649474 -65.31740975 239.60528783 -68.0625 236.125 C-71.62826844 231.67520578 -75.27266974 227.31523539 -79 223 C-83.29796192 218.01390587 -87.5010571 212.96415143 -91.6484375 207.8515625 C-94.42593933 204.48349549 -97.27185665 201.1789647 -100.125 197.875 C-104.58517372 192.70710786 -108.89793874 187.45978577 -113 182 C-112.40445312 181.55398438 -111.80890625 181.10796875 -111.1953125 180.6484375 C-104.66077212 175.92542331 -104.66077212 175.92542331 -101 169 C-100.67943565 166.56066072 -100.67943565 166.56066072 -100.68115234 164.02612305 C-100.66128265 163.06550461 -100.64141296 162.10488617 -100.62094116 161.11515808 C-100.60938995 160.0910231 -100.59783875 159.06688812 -100.5859375 158.01171875 C-100.56657135 156.95338333 -100.5472052 155.89504791 -100.5272522 154.80464172 C-100.46758752 151.43234252 -100.42112307 148.06000894 -100.375 144.6875 C-100.33680819 142.39777177 -100.29775576 140.10805772 -100.2578125 137.81835938 C-100.16189674 132.21236569 -100.07681089 126.60628624 -100 121 C-98.89096313 120.99383667 -98.89096313 120.99383667 -97.75952148 120.98754883 C-77.32689802 120.92969882 -77.32689802 120.92969882 -58 115 C-57.01386719 114.55527344 -56.02773438 114.11054688 -55.01171875 113.65234375 C-40.38240912 106.38827437 -29.40425003 93.35298304 -24 78 C-18.68481783 60.21128548 -19.83979693 43.70783552 -28.3125 27.125 C-30.98114384 22.39422228 -33.92701025 18.37601366 -37.71484375 14.48828125 C-39 13 -39 13 -39 11 C-29.91600442 7.90825414 -20.81975474 4.87303174 -11.625 2.125 C-10.56551147 1.80269409 -10.56551147 1.80269409 -9.48461914 1.47387695 C-6.1364295 0.48834904 -3.52868183 0 0 0 Z " fill="#F52E3F" transform="translate(457,167)"/>
<path d="M0 0 C1.66796875 1.6171875 1.66796875 1.6171875 3.1875 3.875 C16.12390881 21.58622065 34.73200728 32.47883207 56.2109375 36.52734375 C78.97252646 39.36667598 99.27412734 33.50346482 119 22 C119.03867187 23.73636719 119.03867187 23.73636719 119.078125 25.5078125 C119.13443349 27.04691128 119.1917802 28.58597233 119.25 30.125 C119.26417969 30.88554687 119.27835938 31.64609375 119.29296875 32.4296875 C119.52043184 37.70683118 120.55273715 40.79231152 124 45 C126.6091387 47.32277416 126.6091387 47.32277416 129 49 C127.47460846 57.13502954 125.56057851 65.15700613 123.5625 73.1875 C123.11293945 75.03504883 123.11293945 75.03504883 122.65429688 76.91992188 C121.1771883 82.86360172 119.67392609 88.48042779 117 94 C108.58457254 90.04960345 100.71569413 85.30300466 92.8125 80.4375 C90.95514632 79.29855899 89.0970829 78.16079175 87.2384491 77.02394104 C85.55978431 75.99648552 83.88297978 74.96599245 82.20629883 73.93530273 C73.7335729 68.59422972 73.7335729 68.59422972 64 68 C61.64890494 71.5266426 61.48120687 73.74209932 61 77.93359375 C60.91878906 78.60793961 60.83757812 79.28228546 60.75390625 79.97706604 C60.49496821 82.12972192 60.24632413 84.28336662 60 86.4375 C59.67523566 89.27062487 59.34048494 92.10232048 59 94.93359375 C58.855625 96.19228271 58.71125 97.45097168 58.5625 98.74780273 C58.06740249 101.61030012 57.48206369 103.53645507 56 106 C55.50072998 104.98574951 55.00145996 103.97149902 54.48706055 102.92651367 C52.63136197 99.16077568 50.76769686 95.3990279 48.90161133 91.63842773 C48.09539778 90.01092365 47.29134255 88.38234854 46.48950195 86.75268555 C45.33591759 84.40908784 44.17460098 82.06946401 43.01171875 79.73046875 C42.65534836 79.00224411 42.29897797 78.27401947 41.93180847 77.52372742 C40.27914023 74.21728993 38.8448444 71.38913885 36 69 C32.67405245 67.99765814 32.67405245 67.99765814 29 69 C27.22101929 70.73935183 27.22101929 70.73935183 25.6328125 72.98828125 C25.024375 73.80796387 24.4159375 74.62764648 23.7890625 75.47216797 C21.12909139 79.23053873 18.59882033 83.0545568 16.125 86.9375 C15.00702053 88.67480754 13.88850089 90.41176755 12.76953125 92.1484375 C12.17221191 93.0775293 11.57489258 94.00662109 10.95947266 94.96386719 C7.64897781 100.09336058 4.30424709 105.20043715 0.96063232 110.30838013 C-0.17307431 112.0404604 -1.30611111 113.77297704 -2.43896484 115.50561523 C-7.70739062 123.56108594 -7.70739062 123.56108594 -10 127 C-10.66 127 -11.32 127 -12 127 C-25.5882618 86.8126824 -25.5882618 86.8126824 -28 73 C-26.75863281 72.56429687 -25.51726562 72.12859375 -24.23828125 71.6796875 C-22.59600347 71.07908306 -20.95409548 70.47746681 -19.3125 69.875 C-18.49587891 69.59140625 -17.67925781 69.3078125 -16.83789062 69.015625 C-11.27951183 66.94529768 -8.32729087 64.94827873 -5 60 C-2.43649289 52.30947866 -4.14715871 45.15381747 -7.0625 37.8515625 C-7.37324463 37.03174896 -7.68398926 36.21193542 -8.00415039 35.36727905 C-8.98732239 32.78028149 -9.99219448 30.20248919 -11 27.625 C-12.00421984 25.02490827 -13.00361126 22.42313887 -13.99584961 19.81845093 C-14.61130395 18.20611454 -15.23421249 16.59659861 -15.86547852 14.99038696 C-17.24237601 11.41313486 -18 8.88103109 -18 5 C-15.94175571 4.15621025 -13.87820214 3.32536378 -11.8125 2.5 C-10.66394531 2.0359375 -9.51539063 1.571875 -8.33203125 1.09375 C-5.21657211 0.07109049 -3.21764503 -0.56391717 0 0 Z " fill="#F94958" transform="translate(178,298)"/>
<path d="M0 0 C3.60306706 9.73148649 7.1929165 19.46775748 10.76890564 29.20922852 C12.62263646 34.25771449 14.4812719 39.3043214 16.34765625 44.34814453 C18.33434697 49.71813254 20.30989323 55.09211185 22.27859497 60.46871948 C23.05102906 62.57244549 23.82729543 64.67476836 24.60739136 66.77566528 C25.70541647 69.73486009 26.78976873 72.6987319 27.87109375 75.6640625 C28.20371216 76.55098282 28.53633057 77.43790314 28.87902832 78.35169983 C29.17474731 79.17101486 29.47046631 79.9903299 29.77514648 80.83447266 C30.0371434 81.54592438 30.29914032 82.2573761 30.56907654 82.99038696 C31.08616484 85.40183005 30.93873338 86.72307699 30 89 C27.69489674 90.51827914 25.50256952 91.80739982 23.0625 93.0625 C17.86276949 95.69613898 17.86276949 95.69613898 14 100 C13.92094936 102.33199388 13.91201231 104.66832622 14 107 C11.42702218 108.5617377 8.84408538 110.09906742 6.25 111.625 C5.52039063 112.07101562 4.79078125 112.51703125 4.0390625 112.9765625 C3.33007812 113.3890625 2.62109375 113.8015625 1.890625 114.2265625 C0.91657715 114.80784912 0.91657715 114.80784912 -0.07714844 115.40087891 C-2 116 -2 116 -4.11816406 115.17333984 C-4.73916992 114.7861377 -5.36017578 114.39893555 -6 114 C-8.95544319 112.52227841 -10.6812636 112.63584001 -14 113 C-17.2293394 114.44319384 -20.22282821 116.23887313 -23.25 118.0625 C-24.85519987 119.01876226 -26.46439145 119.96836639 -28.078125 120.91015625 C-28.78356445 121.33433838 -29.48900391 121.75852051 -30.21582031 122.19555664 C-30.80459961 122.46102295 -31.39337891 122.72648926 -32 123 C-32.66 122.67 -33.32 122.34 -34 122 C-26.13029276 104.83143171 -18.04208688 87.7821981 -9.73852539 70.8190918 C-2.02714939 57.84637947 -2.02714939 57.84637947 0 44 C-3.9959564 38.5975721 -9.88132941 34.59095451 -15.07421875 30.41796875 C-19.1154345 27.07816561 -22.94638888 23.53764706 -26.78515625 19.96875 C-28.83679121 17.97328212 -28.83679121 17.97328212 -31 17 C-29.63975691 12.91927072 -27.88102348 12.5936855 -24.1015625 10.64453125 C-23.51079926 10.33803146 -22.92003601 10.03153168 -22.31137085 9.71574402 C-21.06122693 9.06988959 -19.80859386 8.428834 -18.55371094 7.79223633 C-16.63354265 6.81683945 -14.72270823 5.82481414 -12.8125 4.83007812 C-3.42334104 0 -3.42334104 0 0 0 Z " fill="#F74957" transform="translate(84,271)"/>
<path d="M0 0 C6.01187285 3.31689537 9.40307287 9.24856337 13 14.8828125 C15.45014339 18.70159068 18.08766116 22.36646115 20.75 26.0390625 C22 28 22 28 22 30 C-1.68242796 27.74453067 -1.68242796 27.74453067 -13.3125 25.375 C-24.29538506 22.81864051 -24.29538506 22.81864051 -34.82421875 25.0859375 C-37.18311229 28.92599676 -36.16840756 33.14409332 -35.3359375 37.375 C-35.01882813 38.57125 -34.70171875 39.7675 -34.375 41 C-34.1989624 41.67587158 -34.0229248 42.35174316 -33.84155273 43.0480957 C-33.23575859 45.36759175 -32.61789505 47.68369991 -32 50 C-31.01688444 53.72813382 -30.0392151 57.45768481 -29.0625 61.1875 C-28.80662109 62.16211182 -28.55074219 63.13672363 -28.28710938 64.14086914 C-26.34281998 71.58438765 -24.51924995 79.05130534 -22.76513672 86.54174805 C-21.81360954 90.60188263 -20.84374092 94.65367458 -19.80078125 98.69140625 C-19.51871826 99.78690796 -19.51871826 99.78690796 -19.23095703 100.90454102 C-18.72528551 102.85430681 -18.21253644 104.80223326 -17.69921875 106.75 C-17.0787818 109.63381866 -16.8500524 112.0676913 -17 115 C-20.54208647 112.32649474 -23.31740975 109.60528783 -26.0625 106.125 C-29.62826844 101.67520578 -33.27266974 97.31523539 -37 93 C-41.29796192 88.01390587 -45.5010571 82.96415143 -49.6484375 77.8515625 C-52.42593933 74.48349549 -55.27185665 71.1789647 -58.125 67.875 C-62.58517372 62.70710786 -66.89793874 57.45978577 -71 52 C-70.40445312 51.55398438 -69.80890625 51.10796875 -69.1953125 50.6484375 C-62.64353707 45.93332981 -62.64353707 45.93332981 -59 39 C-58.63754187 35.90885838 -58.63754187 35.90885838 -58.5859375 32.60546875 C-58.54726563 31.40341797 -58.50859375 30.20136719 -58.46875 28.96289062 C-58.4378125 27.71701172 -58.406875 26.47113281 -58.375 25.1875 C-58.33632813 23.92228516 -58.29765625 22.65707031 -58.2578125 21.35351562 C-58.16369343 18.23582149 -58.07805639 15.11813086 -58 12 C-57.35675781 11.99589111 -56.71351563 11.99178223 -56.05078125 11.98754883 C-38.40526923 11.79089325 -24.82284561 10.10283342 -9.32421875 1.18359375 C-5.90336011 -0.55845695 -3.74289757 -0.86374559 0 0 Z " fill="#F52E3F" transform="translate(415,297)"/>
<path d="M0 0 C1.66796875 1.6171875 1.66796875 1.6171875 3.1875 3.875 C16.12390881 21.58622065 34.73200728 32.47883207 56.2109375 36.52734375 C78.97252646 39.36667598 99.27412734 33.50346482 119 22 C121.60574315 37.73532639 121.60574315 37.73532639 118.0390625 42.765625 C115.13094882 44.88213181 112.24572804 46.45403962 109 48 C107.60974609 48.81984375 107.60974609 48.81984375 106.19140625 49.65625 C89.38749564 59.16525906 67.76899651 60.86648643 49.125 56.5625 C30.87229975 50.75574553 17.43325514 40.39011142 5.9375 25.21484375 C4.00287646 23.00328821 2.73972498 21.98237151 0 21 C-4.49847168 20.75008491 -8.5799801 21.22182748 -13 22 C-13.84161854 19.91999989 -14.67300763 17.83585854 -15.5 15.75 C-15.9640625 14.58984375 -16.428125 13.4296875 -16.90625 12.234375 C-18 9 -18 9 -18 5 C-15.94175571 4.15621025 -13.87820214 3.32536378 -11.8125 2.5 C-10.66394531 2.0359375 -9.51539063 1.571875 -8.33203125 1.09375 C-5.21657211 0.07109049 -3.21764503 -0.56391717 0 0 Z " fill="#F62E3F" transform="translate(178,298)"/>
<path d="M0 0 C19.40811159 3.73232915 34.87581361 13.98670822 45.92919922 30.29736328 C49.39119721 35.80214532 51.87389848 41.82066826 54.0390625 47.93359375 C55.82872667 53.38122699 55.82872667 53.38122699 60.1875 56.875 C61.115625 57.24625 62.04375 57.6175 63 58 C64.44707125 61.94818856 64.11013781 66.10184628 64.0625 70.25 C64.05798828 70.99507813 64.05347656 71.74015625 64.04882812 72.5078125 C64.03709246 74.3385764 64.0191585 76.16929873 64 78 C62.88882813 78.23976563 61.77765625 78.47953125 60.6328125 78.7265625 C56.9923519 79.60795938 56.9923519 79.60795938 55.6171875 81.9609375 C55.37226563 82.75757813 55.12734375 83.55421875 54.875 84.375 C54.56820312 85.27089844 54.26140625 86.16679687 53.9453125 87.08984375 C53.63335937 88.05019531 53.32140625 89.01054687 53 90 C45.64115263 110.22340171 32.21651098 123.37630161 13.05859375 132.3828125 C8.81260698 134.19257735 5.66041919 135.19657304 1 135 C3.42641544 132.37338526 6.11035577 130.50490947 9.0625 128.5 C24.45720686 117.35561512 35.55133357 99.92407627 38.71484375 81.03515625 C40.80717693 58.76470586 36.92057136 38.38470421 22.9375 20.4375 C21.64540836 18.94047313 20.33441272 17.45942899 19 16 C18.45988281 15.37996094 17.91976563 14.75992188 17.36328125 14.12109375 C12.98181044 9.37892075 7.80841536 6.05246522 2.37890625 2.6015625 C1.59386719 2.07304687 0.80882812 1.54453125 0 1 C0 0.67 0 0.34 0 0 Z " fill="#F9B24C" transform="translate(260,184)"/>
<path d="M0 0 C4.43608023 3.29357289 7.45776425 7.408449 9.19921875 12.6328125 C10.08166365 20.91518825 9.2677005 27.83161722 4.19921875 34.6328125 C-0.09724237 38.76041707 -4.16548747 40.9471206 -9.73828125 42.9453125 C-10.41568359 43.20892578 -11.09308594 43.47253906 -11.79101562 43.74414062 C-16.20832497 45.37469105 -20.04648153 46.33651751 -24.80078125 45.6328125 C-29.75770811 40.41805194 -31.61859353 33.95580139 -34.05078125 27.3203125 C-34.5096875 26.12212891 -34.96859375 24.92394531 -35.44140625 23.68945312 C-39.88685163 11.68278146 -39.88685163 11.68278146 -38.80078125 5.6328125 C-29.65041022 -4.56087186 -11.5772513 -6.52502086 0 0 Z " fill="#030201" transform="translate(159.80078125,220.3671875)"/>
<path d="M0 0 C1.66095703 -0.03577148 1.66095703 -0.03577148 3.35546875 -0.07226562 C11.3362376 -0.0580312 16.5697536 1.38898507 22.26611328 7.07617188 C27.7149448 13.28662591 28.2018032 17.95730672 28.05859375 26.078125 C27.40716696 33.43347558 24.2456442 37.65387293 18.7265625 42.3359375 C12.57863019 46.15105755 6.13562832 45.96046638 -0.875 46 C-1.91140625 46.03287109 -2.9478125 46.06574219 -4.015625 46.09960938 C-5.01335937 46.10669922 -6.01109375 46.11378906 -7.0390625 46.12109375 C-7.94350098 46.13454834 -8.84793945 46.14800293 -9.77978516 46.16186523 C-12.25 45.5625 -12.25 45.5625 -14.54248047 43.54150391 C-16.70406151 39.77032691 -16.8269853 36.57112729 -16.78125 32.33984375 C-16.7850769 31.55734756 -16.78890381 30.77485138 -16.79284668 29.96864319 C-16.79555977 28.32047228 -16.78824077 26.67225788 -16.77148438 25.02416992 C-16.75003464 22.50406946 -16.77131855 19.98681003 -16.796875 17.46679688 C-16.79423218 15.86197289 -16.78910813 14.25715067 -16.78125 12.65234375 C-16.78934692 11.90121811 -16.79744385 11.15009247 -16.80578613 10.37620544 C-16.74536533 7.0011584 -16.48603651 4.90861846 -14.56542969 2.09228516 C-10.15625642 -0.82081899 -5.12281647 -0.04999304 0 0 Z " fill="#030201" transform="translate(361.25,200.4375)"/>
<path d="M0 0 C4.88545953 2.72622623 7.87377357 6.21856624 10.6875 11 C11.06261719 11.62261719 11.43773437 12.24523437 11.82421875 12.88671875 C14.06488746 18.37179465 13.39303869 25.73553845 11.625 31.3125 C9.11641558 36.96564798 4.76187838 40.68763817 -0.375 43.9375 C-6.58636798 46.17190613 -14.58787108 46.32392023 -20.78515625 44.12109375 C-27.04584679 40.46600852 -32.06485739 34.9150446 -34.3125 28 C-35.38687351 20.11781745 -34.77023083 13.79505173 -30.234375 7.1640625 C-22.30229016 -1.76759401 -11.10135519 -5.01243007 0 0 Z " fill="#040201" transform="translate(258.3125,230)"/>
<path d="M0 0 C0.13263868 15.67585195 -0.03703101 31.32972263 -0.4375 47 C-0.45714813 47.81406311 -0.47679626 48.62812622 -0.49703979 49.46685791 C-0.71478325 58.34564099 -1.00885283 67.16602083 -2 76 C-3.26457031 75.97679687 -4.52914063 75.95359375 -5.83203125 75.9296875 C-7.4921816 75.91092874 -9.15233833 75.89272865 -10.8125 75.875 C-12.06256836 75.84986328 -12.06256836 75.84986328 -13.33789062 75.82421875 C-14.14033203 75.81777344 -14.94277344 75.81132812 -15.76953125 75.8046875 C-16.87711792 75.78897705 -16.87711792 75.78897705 -18.00708008 75.77294922 C-20.31890676 75.88258521 -20.31890676 75.88258521 -23 78 C-23 58.2 -23 38.4 -23 18 C-23.66 17.67 -24.32 17.34 -25 17 C-18.40587381 12.27769349 -11.81072457 7.55643739 -5.1875 2.875 C-4.39730469 2.31554687 -3.60710937 1.75609375 -2.79296875 1.1796875 C-1 0 -1 0 0 0 Z " fill="#F52E3F" transform="translate(390,86)"/>
<path d="M0 0 C15.57589331 7.39593592 24.51119742 16.66990056 30.58203125 32.8671875 C34.51856212 44.67678011 32.10183518 58.05144072 26.90234375 69.1484375 C25.48423402 71.57058358 23.98781875 73.84343184 22.328125 76.10546875 C21.92722656 76.67523438 21.52632812 77.245 21.11328125 77.83203125 C17.92402355 82.0199454 13.77957772 85.33436573 9.328125 88.10546875 C8.668125 88.10546875 8.008125 88.10546875 7.328125 88.10546875 C8.31710522 85.62418801 9.31149265 83.14588016 10.328125 80.67578125 C10.658125 79.86882812 10.988125 79.061875 11.328125 78.23046875 C11.658125 77.42867188 11.988125 76.626875 12.328125 75.80078125 C14.80437656 69.12650948 15.68714049 63.35269127 15.640625 56.29296875 C15.63498535 55.40222656 15.6293457 54.51148438 15.62353516 53.59375 C15.5071012 47.3040107 14.94291009 41.88969031 12.328125 36.10546875 C11.9259375 35.14640625 11.52375 34.18734375 11.109375 33.19921875 C4.35379595 18.33694485 -7.47456688 7.81003016 -22.671875 2.10546875 C-25.33697686 1.29837166 -27.94179339 0.67208946 -30.671875 0.10546875 C-22.67341827 -4.41065904 -8.3941656 -3.12579943 0 0 Z " fill="#F8B14C" transform="translate(169.671875,191.89453125)"/>
<path d="M0 0 C6.01187285 3.31689537 9.40307287 9.24856337 13 14.8828125 C15.45014339 18.70159068 18.08766116 22.36646115 20.75 26.0390625 C22 28 22 28 22 30 C-1.68242796 27.74453067 -1.68242796 27.74453067 -13.3125 25.375 C-19.75579723 24.09092653 -26.45204488 22.8923857 -33 24 C-35.26346314 25.77955033 -36.37649178 27.56473767 -38 30 C-39.02480469 29.71125 -40.04960937 29.4225 -41.10546875 29.125 C-42.46605379 28.74966619 -43.82673608 28.37468476 -45.1875 28 C-46.19780273 27.71382813 -46.19780273 27.71382813 -47.22851562 27.421875 C-51.0530868 26.37711409 -53.96876157 26 -58 26 C-58 21.38 -58 16.76 -58 12 C-56.453125 11.98582031 -54.90625 11.97164063 -53.3125 11.95703125 C-36.61001539 11.64123079 -23.97296859 9.61374126 -9.32421875 1.18359375 C-5.90336011 -0.55845695 -3.74289757 -0.86374559 0 0 Z " fill="#F94958" transform="translate(415,297)"/>
<path d="M0 0 C13.59658512 2.76967475 24.14657368 9.86568296 31.9375 21.4375 C34.91412624 26.42422443 36.69378378 31.36317461 38 37 C38.18175781 37.64453125 38.36351562 38.2890625 38.55078125 38.953125 C41.13587763 50.73217286 37.85165614 63.87912202 31.6875 74 C24.55274632 84.20330241 15.84101655 90.65699995 4.0078125 94.65234375 C1.70839643 95.05049167 0.20119527 94.71563523 -2 94 C-1.50371094 93.6596875 -1.00742187 93.319375 -0.49609375 92.96875 C10.91861233 84.82467128 18.84503087 73.07234937 22.5 59.4375 C25.07639628 43.17205844 21.93465863 28.7192455 13 15 C9.62121622 10.71526913 6.16366442 6.57154283 1.73046875 3.3515625 C1.15941406 2.90554687 0.58835937 2.45953125 0 2 C0 1.34 0 0.68 0 0 Z " fill="#F8B14C" transform="translate(383,177)"/>
<path d="M0 0 C8.03101997 1.29853597 16.02327481 2.73454162 24.00390625 4.3125 C25.08961411 4.52688721 26.17532196 4.74127441 27.29393005 4.9621582 C29.56376338 5.41150989 31.83337946 5.86196028 34.1027832 6.31347656 C37.58361601 7.00419012 41.06618513 7.68566798 44.54882812 8.3671875 C46.76313388 8.80672254 48.9773307 9.24680679 51.19140625 9.6875 C52.23196671 9.88964111 53.27252716 10.09178223 54.34461975 10.30004883 C55.30669846 10.4936499 56.26877716 10.68725098 57.26000977 10.88671875 C58.52809227 11.13748169 58.52809227 11.13748169 59.8217926 11.39331055 C62 12 62 12 65 14 C64.04738281 14.37511719 63.09476563 14.75023437 62.11328125 15.13671875 C60.84608439 15.65298414 59.57917218 16.16994863 58.3125 16.6875 C57.37374023 17.05391602 57.37374023 17.05391602 56.41601562 17.42773438 C51.24162956 19.56792547 47.80395362 22.29947062 44.6953125 26.953125 C43.78573523 29.63075695 43.80784417 31.92945507 43.875 34.75 C43.89304688 35.73484375 43.91109375 36.7196875 43.9296875 37.734375 C43.95289063 38.48203125 43.97609375 39.2296875 44 40 C38.52402381 36.1951664 33.85059378 31.96887058 29.1953125 27.203125 C27.31164689 25.31275595 25.39965554 23.54791903 23.375 21.8125 C19.23031858 18.25512161 15.24103437 14.54004768 11.25 10.8125 C10.59950684 10.20575439 9.94901367 9.59900879 9.27880859 8.97387695 C6.13332853 6.03053079 3.04252425 3.05014944 0 0 Z " fill="#F44856" transform="translate(21,181)"/>
<path d="M0 0 C5.68931171 1.70773701 10.96354327 4.13763891 16.3125 6.6875 C17.69018555 7.30141602 17.69018555 7.30141602 19.09570312 7.92773438 C21.60703672 9.13607005 23.81961308 10.2624416 26 12 C27.10546875 15.83203125 27.10546875 15.83203125 27 19 C20.18717727 23.85262924 13.27377255 28.49391225 6.1875 32.9375 C4.81561523 33.82018555 4.81561523 33.82018555 3.41601562 34.72070312 C2.52978516 35.27564453 1.64355469 35.83058594 0.73046875 36.40234375 C-0.45446167 37.15245728 -0.45446167 37.15245728 -1.66333008 37.91772461 C-4.32279806 39.14951037 -6.10164381 39.28749446 -9 39 C-9.33 38.67 -9.66 38.34 -10 38 C-9.70979053 35.66091171 -9.36833477 33.32806466 -9 31 C-8.82210938 29.37191406 -8.82210938 29.37191406 -8.640625 27.7109375 C-7.47172724 17.72855066 -4.61117453 8.92347663 0 0 Z " fill="#F94958" transform="translate(436,237)"/>
<path d="M0 0 C4.29172245 5.24409906 6 11.13719681 6 17.875 C4.72352007 21.86399978 3.48010104 22.6859354 0 25 C-3.04619652 26.27935996 -6.15786273 27.27397963 -9.3125 28.25 C-10.14845703 28.518125 -10.98441406 28.78625 -11.84570312 29.0625 C-13.89407391 29.71797865 -15.94663946 30.36032382 -18 31 C-18.83887056 28.56427941 -19.67126529 26.12666783 -20.5 23.6875 C-20.85771484 22.65206055 -20.85771484 22.65206055 -21.22265625 21.59570312 C-22.23208263 18.61068511 -23 16.17341086 -23 13 C-21.75863281 12.56429688 -20.51726562 12.12859375 -19.23828125 11.6796875 C-17.59600347 11.07908306 -15.95409548 10.47746681 -14.3125 9.875 C-13.49587891 9.59140625 -12.67925781 9.3078125 -11.83789062 9.015625 C-6.28496695 6.94732954 -3.39357047 4.87955347 0 0 Z " fill="#F42E3F" transform="translate(173,358)"/>
<path d="M0 0 C0.66 0 1.32 0 2 0 C3.16644189 4.9458958 4.32386933 9.89378028 5.47290039 14.84375 C5.86526823 16.52825095 6.260117 18.21217599 6.6574707 19.89550781 C7.22736474 22.31168776 7.78837801 24.72978134 8.34765625 27.1484375 C8.52780777 27.9036972 8.70795929 28.65895691 8.89356995 29.43710327 C10.11387171 34.77225659 10.11387171 34.77225659 9 37 C-7.29500185 19.24114455 -7.29500185 19.24114455 -12 11 C-11.20335937 10.56300781 -11.20335937 10.56300781 -10.390625 10.1171875 C-5.47734901 7.26605289 -2.9213189 4.83141203 0 0 Z " fill="#F64856" transform="translate(356,337)"/>
<path d="M0 0 C3.34265205 1.20706879 3.94704566 1.92056849 6 5 C6.44101505 8.96913548 6.32648586 11.33283323 4.5625 14.9375 C1.3080567 17.55692997 -0.77412274 17.73020174 -4.87109375 17.48046875 C-7 17 -7 17 -9.5625 14.9375 C-11.37781677 11.22793965 -11.65622237 9.08316143 -11 5 C-7.76968443 0.53456377 -5.48257884 -0.81655429 0 0 Z " fill="#F22D3E" transform="translate(250,243)"/>
<path d="M0 0 C8.02217295 -0.4789357 8.02217295 -0.4789357 12.0625 1.5 C14.41881305 4.54040393 14.69081869 6.3224678 14.40234375 10.09375 C14 12 14 12 12.625 14.5 C8.46285285 16.8783698 4.74014469 16.2494813 0 16 C0 10.72 0 5.44 0 0 Z " fill="#EC2C3C" transform="translate(360,215)"/>
<path d="M0 0 C2.5 1.5625 2.5 1.5625 4 4 C4.55546296 7.88824069 4.66227681 10.01983032 2.4375 13.3125 C-0.5791758 15.40096786 -3.44487087 16.17958558 -7 17 C-7.83986084 15.06532058 -8.67168027 13.12714871 -9.5 11.1875 C-9.9640625 10.10855469 -10.428125 9.02960938 -10.90625 7.91796875 C-12 5 -12 5 -12 2 C-8.25632611 -0.49578259 -4.34608627 -0.70356724 0 0 Z " fill="#F02D3E" transform="translate(150,232)"/>
<path d="M0 0 C0 2.64 0 5.28 0 8 C-1.65 6.35 -3.3 4.7 -5 3 C-1.125 0 -1.125 0 0 0 Z " fill="#E12A3A" transform="translate(349,346)"/>
<path d="M0 0 C0.99 0.33 1.98 0.66 3 1 C2.34 4.3 1.68 7.6 1 11 C0.67 11 0.34 11 0 11 C0 7.37 0 3.74 0 0 Z " fill="#EC3242" transform="translate(304,346)"/>
</svg>
