<?xml version="1.0" encoding="UTF-8"?>
<svg version="1.1" xmlns="http://www.w3.org/2000/svg" width="342" height="343">
<path d="M0 0 C112.86 0 225.72 0 342 0 C342 113.19 342 226.38 342 343 C229.14 343 116.28 343 0 343 C0 229.81 0 116.62 0 0 Z " fill="#10120E" transform="translate(0,0)"/>
<path d="M0 0 C21.12 0 42.24 0 64 0 C64 21.12 64 42.24 64 64 C42.88 64 21.76 64 0 64 C0 42.88 0 21.76 0 0 Z " fill="#52894C" transform="translate(140,278)"/>
<path d="M0 0 C21.12 0 42.24 0 64 0 C64 21.12 64 42.24 64 64 C42.88 64 21.76 64 0 64 C0 42.88 0 21.76 0 0 Z " fill="#3A3A3B" transform="translate(210,278)"/>
<path d="M0 0 C21.12 0 42.24 0 64 0 C64 21.12 64 42.24 64 64 C42.88 64 21.76 64 0 64 C0 42.88 0 21.76 0 0 Z " fill="#3A3A3B" transform="translate(70,278)"/>
<path d="M0 0 C21.12 0 42.24 0 64 0 C64 21.12 64 42.24 64 64 C42.88 64 21.76 64 0 64 C0 42.88 0 21.76 0 0 Z " fill="#3A3A3B" transform="translate(1,278)"/>
<path d="M0 0 C21.12 0 42.24 0 64 0 C64 21.12 64 42.24 64 64 C42.88 64 21.76 64 0 64 C0 42.88 0 21.76 0 0 Z " fill="#52894C" transform="translate(210,208)"/>
<path d="M0 0 C21.12 0 42.24 0 64 0 C64 21.12 64 42.24 64 64 C42.88 64 21.76 64 0 64 C0 42.88 0 21.76 0 0 Z " fill="#53884D" transform="translate(70,208)"/>
<path d="M0 0 C21.12 0 42.24 0 64 0 C64 21.12 64 42.24 64 64 C42.88 64 21.76 64 0 64 C0 42.88 0 21.76 0 0 Z " fill="#3A3A3C" transform="translate(140,208)"/>
<path d="M0 0 C21.12 0 42.24 0 64 0 C64 21.12 64 42.24 64 64 C42.88 64 21.76 64 0 64 C0 42.88 0 21.76 0 0 Z " fill="#3A3A3C" transform="translate(1,208)"/>
<path d="M0 0 C21.12 0 42.24 0 64 0 C64 21.12 64 42.24 64 64 C42.88 64 21.76 64 0 64 C0 42.88 0 21.76 0 0 Z " fill="#52894C" transform="translate(1,139)"/>
<path d="M0 0 C21.12 0 42.24 0 64 0 C64 21.12 64 42.24 64 64 C42.88 64 21.76 64 0 64 C0 42.88 0 21.76 0 0 Z " fill="#3A3A3B" transform="translate(210,139)"/>
<path d="M0 0 C21.12 0 42.24 0 64 0 C64 21.12 64 42.24 64 64 C42.88 64 21.76 64 0 64 C0 42.88 0 21.76 0 0 Z " fill="#3A3A3C" transform="translate(140,139)"/>
<path d="M0 0 C21.12 0 42.24 0 64 0 C64 21.12 64 42.24 64 64 C42.88 64 21.76 64 0 64 C0 42.88 0 21.76 0 0 Z " fill="#3A393B" transform="translate(70,139)"/>
<path d="M0 0 C21.12 0 42.24 0 64 0 C64 21.12 64 42.24 64 64 C42.88 64 21.76 64 0 64 C0 42.88 0 21.76 0 0 Z " fill="#538A4D" transform="translate(140,69)"/>
<path d="M0 0 C21.12 0 42.24 0 64 0 C64 21.12 64 42.24 64 64 C42.88 64 21.76 64 0 64 C0 42.88 0 21.76 0 0 Z " fill="#3A3A3B" transform="translate(70,69)"/>
<path d="M0 0 C21.12 0 42.24 0 64 0 C64 21.12 64 42.24 64 64 C42.88 64 21.76 64 0 64 C0 42.88 0 21.76 0 0 Z " fill="#53894C" transform="translate(1,69)"/>
<path d="M0 0 C21.12 0 42.24 0 64 0 C64 21.12 64 42.24 64 64 C42.88 64 21.76 64 0 64 C0 42.88 0 21.76 0 0 Z " fill="#3B3A3B" transform="translate(210,69)"/>
<path d="M0 0 C21.12 0 42.24 0 64 0 C64 21.12 64 42.24 64 64 C42.88 64 21.76 64 0 64 C0 42.88 0 21.76 0 0 Z " fill="#53894D" transform="translate(210,0)"/>
<path d="M0 0 C21.12 0 42.24 0 64 0 C64 21.12 64 42.24 64 64 C42.88 64 21.76 64 0 64 C0 42.88 0 21.76 0 0 Z " fill="#3A3A3C" transform="translate(140,0)"/>
<path d="M0 0 C21.12 0 42.24 0 64 0 C64 21.12 64 42.24 64 64 C42.88 64 21.76 64 0 64 C0 42.88 0 21.76 0 0 Z " fill="#53894D" transform="translate(70,0)"/>
<path d="M0 0 C21.12 0 42.24 0 64 0 C64 21.12 64 42.24 64 64 C42.88 64 21.76 64 0 64 C0 42.88 0 21.76 0 0 Z " fill="#3A3A3C" transform="translate(1,0)"/>
<path d="M0 0 C20.79 0 41.58 0 63 0 C63 21.12 63 42.24 63 64 C42.21 64 21.42 64 0 64 C0 42.88 0 21.76 0 0 Z " fill="#3A3A3B" transform="translate(279,278)"/>
<path d="M0 0 C20.79 0 41.58 0 63 0 C63 21.12 63 42.24 63 64 C42.21 64 21.42 64 0 64 C0 42.88 0 21.76 0 0 Z " fill="#3A3A3C" transform="translate(279,208)"/>
<path d="M0 0 C20.79 0 41.58 0 63 0 C63 21.12 63 42.24 63 64 C42.21 64 21.42 64 0 64 C0 42.88 0 21.76 0 0 Z " fill="#52894D" transform="translate(279,139)"/>
<path d="M0 0 C20.79 0 41.58 0 63 0 C63 21.12 63 42.24 63 64 C42.21 64 21.42 64 0 64 C0 42.88 0 21.76 0 0 Z " fill="#A19138" transform="translate(279,69)"/>
<path d="M0 0 C20.79 0 41.58 0 63 0 C63 21.12 63 42.24 63 64 C42.21 64 21.42 64 0 64 C0 42.88 0 21.76 0 0 Z " fill="#3A3A3B" transform="translate(279,0)"/>
<path d="M0 0 C21.12 0 42.24 0 64 0 C64 0.33 64 0.66 64 1 C43.21 1 22.42 1 1 1 C1 22.12 1 43.24 1 65 C22.12 65 43.24 65 65 65 C65 44.54 65 24.08 65 3 C65.99 3 66.98 3 68 3 C68.54930596 14.8334529 69.09217806 26.65157437 69 38.5 C68.96005974 44.88657682 69.04869732 51.24578268 69.375 57.625 C69.4059375 58.34236328 69.436875 59.05972656 69.46875 59.79882812 C69.62275629 63.84535711 69.62275629 63.84535711 72 67 C71.34 67 70.68 67 70 67 C70 67.66 70 68.32 70 69 C70.66 69.33 71.32 69.66 72 70 C71.34 70 70.68 70 70 70 C69.98969254 70.71552536 69.97938507 71.43105072 69.96876526 72.16825867 C69.87066325 78.9214883 69.76813112 85.67463458 69.66066074 92.42772198 C69.60556853 95.89929328 69.55217109 99.37087319 69.50268555 102.8425293 C69.44567955 106.83651547 69.38123262 110.8303518 69.31640625 114.82421875 C69.29969376 116.06709152 69.28298126 117.30996429 69.26576233 118.59049988 C69.24581711 119.75132584 69.22587189 120.91215179 69.20532227 122.1081543 C69.18977798 123.12741501 69.1742337 124.14667572 69.15821838 125.19682312 C69.00622378 127.88973242 68.60010647 130.37403845 68 133 C67.01 132.67 66.02 132.34 65 132 C65 111.87 65 91.74 65 71 C43.88 71 22.76 71 1 71 C1 92.12 1 113.24 1 135 C1.66 135 2.32 135 3 135 C2.67 135.99 2.34 136.98 2 138 C1.34 138 0.68 138 0 138 C0 92.46 0 46.92 0 0 Z " fill="#0B1608" transform="translate(0,68)"/>
<path d="M0 0 C4.35944153 2.22084757 7.16830464 4.42076159 9 9 C9.99198917 15.50304011 8.79081488 19.69285917 5 25 C0.3317845 28.11214367 -4.53792551 27.72335581 -10 27 C-13.836493 24.3144549 -15.84124413 21.52968202 -17 17 C-17.45737957 12.19751457 -17.5084495 9.99806753 -15.3125 5.6875 C-10.93819555 0.60384889 -6.74111345 -1.18960826 0 0 Z " fill="#F3FAF2" transform="translate(176,296)"/>
<path d="M0 0 C14.31034483 0 14.31034483 0 20 3 C23.47077172 7.62232707 23.55724371 11.49108466 23.42578125 17.109375 C22.77849006 21.50382895 21.33571427 23.12973424 18 26 C14.37918537 27.20693821 11.0749281 27.10782079 7.3125 27.0625 C3.6928125 27.0315625 3.6928125 27.0315625 0 27 C0 18.09 0 9.18 0 0 Z " fill="#EFEFEF" transform="translate(230,157)"/>
<path d="M0 0 C15.25 0 15.25 0 20.875 4.5 C23.81928627 8.42571503 23.43805736 13.34066261 23 18 C21.76477083 21.51065134 20.80857566 23.37127297 17.875 25.65234375 C14.25012379 27.35150447 11.09322059 27.33212472 7.1875 27.1875 C4.815625 27.125625 2.44375 27.06375 0 27 C0 18.09 0 9.18 0 0 Z " fill="#F9F8E7" transform="translate(300,88)"/>
<path d="M0 0 C15.25 0 15.25 0 20.875 4.5 C23.81928627 8.42571503 23.43805736 13.34066261 23 18 C21.76477083 21.51065134 20.80857566 23.37127297 17.875 25.65234375 C14.25012379 27.35150447 11.09322059 27.33212472 7.1875 27.1875 C4.815625 27.125625 2.44375 27.06375 0 27 C0 18.09 0 9.18 0 0 Z " fill="#F7F6F8" transform="translate(300,18)"/>
<path d="M0 0 C13 0 13 0 18 3 C20.60704898 5.60704898 20.23905333 7.47338241 20.265625 11.02734375 C20 13 20 13 18 16 C17.34 16 16.68 16 16 16 C16.3609375 16.71027344 16.721875 17.42054687 17.09375 18.15234375 C17.5578125 19.07144531 18.021875 19.99054687 18.5 20.9375 C18.9640625 21.85402344 19.428125 22.77054688 19.90625 23.71484375 C21 26 21 26 21 27 C18.69 27 16.38 27 14 27 C10 20.25 10 20.25 10 18 C8.68 18 7.36 18 6 18 C6 20.97 6 23.94 6 27 C4.02 27 2.04 27 0 27 C0 18.09 0 9.18 0 0 Z " fill="#F4F9F3" transform="translate(232,18)"/>
<path d="M0 0 C14.84615385 0 14.84615385 0 19 3 C20.5635348 6.12706959 20.39958487 9.57982443 20 13 C19.01 14.485 19.01 14.485 18 16 C17.34 16 16.68 16 16 16 C16.3609375 16.62648438 16.721875 17.25296875 17.09375 17.8984375 C17.78984375 19.12433594 17.78984375 19.12433594 18.5 20.375 C18.9640625 21.18710937 19.428125 21.99921875 19.90625 22.8359375 C21 25 21 25 21 27 C18.69 27 16.38 27 14 27 C13.75765625 26.43410156 13.5153125 25.86820313 13.265625 25.28515625 C12.93046875 24.55167969 12.5953125 23.81820312 12.25 23.0625 C11.92515625 22.33160156 11.6003125 21.60070312 11.265625 20.84765625 C9.97377317 18.52359666 9.97377317 18.52359666 6 18 C6 20.97 6 23.94 6 27 C4.02 27 2.04 27 0 27 C0 18.09 0 9.18 0 0 Z " fill="#F6F6F7" transform="translate(23,18)"/>
<path d="M0 0 C13.77777778 0 13.77777778 0 18.8125 3.125 C20.73039056 6.15324825 20.54083992 9.51614805 20 13 C19.01 14.485 19.01 14.485 18 16 C17.34 16 16.68 16 16 16 C17.65 19.63 19.3 23.26 21 27 C18.69 27 16.38 27 14 27 C10 20.25 10 20.25 10 18 C8.68 18 7.36 18 6 18 C6 20.97 6 23.94 6 27 C4.02 27 2.04 27 0 27 C0 18.09 0 9.18 0 0 Z " fill="#F2F2F2" transform="translate(232,88)"/>
<path d="M0 0 C5 0 5 0 6.4855957 1.28515625 C6.87835693 1.87167969 7.27111816 2.45820312 7.67578125 3.0625 C8.11083984 3.69414063 8.54589844 4.32578125 8.99414062 4.9765625 C9.42919922 5.64429687 9.86425781 6.31203125 10.3125 7 C10.76689453 7.66773437 11.22128906 8.33546875 11.68945312 9.0234375 C12.8081725 10.67207658 13.90613038 12.33476935 15 14 C15.33 9.38 15.66 4.76 16 0 C17.98 0 19.96 0 22 0 C22 8.91 22 17.82 22 27 C20.35 27 18.7 27 17 27 C14.98024875 24.85346145 13.36240218 22.88704577 11.6875 20.5 C11.23310547 19.87996094 10.77871094 19.25992188 10.31054688 18.62109375 C9.19255188 17.09120586 8.09431468 15.54691473 7 14 C6.67 18.29 6.34 22.58 6 27 C4.02 27 2.04 27 0 27 C0 18.09 0 9.18 0 0 Z " fill="#F1F9F0" transform="translate(161,88)"/>
<path d="M0 0 C14.76470588 0 14.76470588 0 19 4 C20.55024464 7.10048928 20.28992015 9.57894218 20 13 C18.20437595 15.75329021 16.94745078 17.52627461 14 19 C11.3276379 19.13415472 8.67749512 19.04318541 6 19 C6 21.64 6 24.28 6 27 C4.02 27 2.04 27 0 27 C0 18.09 0 9.18 0 0 Z " fill="#F6F5F6" transform="translate(93,88)"/>
<path d="M0 0 C2.5 0.125 2.5 0.125 3.5 1.125 C3.64421154 2.52697402 3.72686124 3.93542831 3.78125 5.34375 C3.81863281 6.19324219 3.85601562 7.04273438 3.89453125 7.91796875 C3.96484375 9.72265625 4.03515625 11.52734375 4.10546875 13.33203125 C4.16154297 14.60626953 4.16154297 14.60626953 4.21875 15.90625 C4.24904297 16.69064453 4.27933594 17.47503906 4.31054688 18.28320312 C4.30591468 20.14126196 4.30591468 20.14126196 5.5 21.125 C7.95809998 21.3750773 7.95809998 21.3750773 10.5 21.125 C12.8968665 18.7281335 12.78281133 18.05471686 12.9140625 14.7734375 C12.95273438 13.92265625 12.99140625 13.071875 13.03125 12.1953125 C13.0621875 11.30585938 13.093125 10.41640625 13.125 9.5 C13.16367188 8.6028125 13.20234375 7.705625 13.2421875 6.78125 C13.33659357 4.5627073 13.42216748 2.34417597 13.5 0.125 C15.48 0.125 17.46 0.125 19.5 0.125 C19.61660824 3.52054235 19.68738372 6.91556679 19.75 10.3125 C19.80027344 11.75206055 19.80027344 11.75206055 19.8515625 13.22070312 C19.95068507 20.38230857 19.95068507 20.38230857 17.625 24.21484375 C14.71516197 26.8304886 12.5568387 28.09155547 8.578125 28.15625 C3.7825452 27.79568009 0.98674656 26.61174656 -2.5 23.125 C-3.69219354 20.74061291 -3.62916022 19.24843998 -3.6328125 16.58984375 C-3.63410156 15.69845703 -3.63539062 14.80707031 -3.63671875 13.88867188 C-3.63285156 12.95603516 -3.62898438 12.02339844 -3.625 11.0625 C-3.62886719 10.12599609 -3.63273437 9.18949219 -3.63671875 8.22460938 C-3.63542969 7.33451172 -3.63414063 6.44441406 -3.6328125 5.52734375 C-3.63168457 4.70741943 -3.63055664 3.88749512 -3.62939453 3.04272461 C-3.43002943 0.08798332 -2.97201922 0.14860096 0 0 Z " fill="#F2FBF2" transform="translate(94.5,226.875)"/>
<path d="M0 0 C1.98 0 3.96 0 6 0 C6 3.63 6 7.26 6 11 C9.63 11 13.26 11 17 11 C16.979375 9.370625 16.95875 7.74125 16.9375 6.0625 C16.91613932 4.37500659 16.92794489 2.68608966 17 1 C17.33 0.67 17.66 0.34 18 0 C19.65 0 21.3 0 23 0 C23 8.91 23 17.82 23 27 C21.02 27 19.04 27 17 27 C17 23.37 17 19.74 17 16 C13.37 16 9.74 16 6 16 C6 19.63 6 23.26 6 27 C4.02 27 2.04 27 0 27 C0 18.09 0 9.18 0 0 Z " fill="#FAF9FA" transform="translate(230,296)"/>
<path d="M0 0 C2.31 0 4.62 0 7 0 C9.61650182 5.52372607 11.80419497 11.08785327 13.75 16.875 C13.97260498 17.52927979 14.19520996 18.18355957 14.42456055 18.85766602 C15.36359939 21.70130699 16 23.9836706 16 27 C13.69 27 11.38 27 9 27 C8.67 25.02 8.34 23.04 8 21 C5.03 21 2.06 21 -1 21 C-1.33 22.98 -1.66 24.96 -2 27 C-4.31 27 -6.62 27 -9 27 C-6.43696551 17.84951721 -3.20468777 8.93993804 0 0 Z " fill="#F3F3F3" transform="translate(29,227)"/>
<path d="M0 0 C2.31 0 4.62 0 7 0 C9.61650182 5.52372607 11.80419497 11.08785327 13.75 16.875 C13.97260498 17.52927979 14.19520996 18.18355957 14.42456055 18.85766602 C15.36359939 21.70130699 16 23.9836706 16 27 C14.02 27 12.04 27 10 27 C9.34 25.35 8.68 23.7 8 22 C5.03 21.67 2.06 21.34 -1 21 C-1.33 22.98 -1.66 24.96 -2 27 C-4.31 27 -6.62 27 -9 27 C-6.03 18.09 -3.06 9.18 0 0 Z " fill="#F7F7F7" transform="translate(168,227)"/>
<path d="M0 0 C0.74886475 0.00523682 1.49772949 0.01047363 2.26928711 0.01586914 C3.07817383 0.0190918 3.88706055 0.02231445 4.72045898 0.02563477 C5.5705957 0.03401367 6.42073242 0.04239258 7.29663086 0.05102539 C8.15063477 0.05553711 9.00463867 0.06004883 9.88452148 0.06469727 C12.00108749 0.07652166 14.11761771 0.0944577 16.23413086 0.11352539 C16.27685186 1.77964444 16.27476918 3.44735424 16.23413086 5.11352539 C15.23413086 6.11352539 15.23413086 6.11352539 12.73022461 6.21118164 C11.2162207 6.1937793 11.2162207 6.1937793 9.67163086 6.17602539 C8.6597168 6.16700195 7.64780273 6.15797852 6.60522461 6.14868164 C5.4315332 6.1312793 5.4315332 6.1312793 4.23413086 6.11352539 C4.23413086 7.76352539 4.23413086 9.41352539 4.23413086 11.11352539 C7.86413086 11.11352539 11.49413086 11.11352539 15.23413086 11.11352539 C15.23413086 12.76352539 15.23413086 14.41352539 15.23413086 16.11352539 C11.60413086 16.11352539 7.97413086 16.11352539 4.23413086 16.11352539 C4.23413086 18.09352539 4.23413086 20.07352539 4.23413086 22.11352539 C7.86413086 22.11352539 11.49413086 22.11352539 15.23413086 22.11352539 C15.23413086 23.76352539 15.23413086 25.41352539 15.23413086 27.11352539 C9.29413086 27.11352539 3.35413086 27.11352539 -2.76586914 27.11352539 C-2.79269213 22.80098456 -2.81262158 18.48860832 -2.82836914 14.17602539 C-2.83674805 12.94432617 -2.84512695 11.71262695 -2.85375977 10.44360352 C-2.85698242 9.2737793 -2.86020508 8.10395508 -2.86352539 6.89868164 C-2.86876221 5.81466064 -2.87399902 4.73063965 -2.87939453 3.61376953 C-2.72325811 0.17507466 -2.72325811 0.17507466 0 0 Z " fill="#ECECED" transform="translate(95.765869140625,156.886474609375)"/>
<path d="M0 0 C2.64 0 5.28 0 8 0 C9.34386556 3.5794717 10.67323814 7.16415713 12 10.75 C12.3815625 11.76578125 12.763125 12.7815625 13.15625 13.828125 C13.5171875 14.8078125 13.878125 15.7875 14.25 16.796875 C14.58515625 17.69760742 14.9203125 18.59833984 15.265625 19.52636719 C16 22 16 22 16 26 C14.02 26 12.04 26 10 26 C9.34 24.35 8.68 22.7 8 21 C5.03 20.67 2.06 20.34 -1 20 C-1.33 21.98 -1.66 23.96 -2 26 C-4.31 26 -6.62 26 -9 26 C-7.68993083 22.04085791 -6.37653468 18.08282753 -5.0625 14.125 C-4.50272461 12.43310547 -4.50272461 12.43310547 -3.93164062 10.70703125 C-3.57392578 9.63066406 -3.21621094 8.55429688 -2.84765625 7.4453125 C-2.51773682 6.45031738 -2.18781738 5.45532227 -1.84790039 4.43017578 C-1 2 -1 2 0 0 Z " fill="#F7F7F7" transform="translate(168,158)"/>
<path d="M0 0 C5.94 0 11.88 0 18 0 C18 1.98 18 3.96 18 6 C14.37 6 10.74 6 7 6 C7 7.65 7 9.3 7 11 C10.63 11 14.26 11 18 11 C18 12.65 18 14.3 18 16 C14.37 16 10.74 16 7 16 C7 17.98 7 19.96 7 22 C10.63 22 14.26 22 18 22 C18 23.65 18 25.3 18 27 C12.06 27 6.12 27 0 27 C0 18.09 0 9.18 0 0 Z " fill="#EAF4E9" transform="translate(93,18)"/>
<path d="M0 0 C3.66442598 1.62863377 5.99175177 3.51198992 8 7 C8 8.32 8 9.64 8 11 C6.02 11 4.04 11 2 11 C1.34 9.68 0.68 8.36 0 7 C-3.41642759 6.74984127 -3.41642759 6.74984127 -7 7 C-9.46270288 10.69405432 -9.22985417 12.63277072 -9 17 C-8.57145005 19.31036915 -8.57145005 19.31036915 -8 21 C-4.62563814 21.33380814 -4.62563814 21.33380814 -1 21 C0.0260734 19.68662604 1.02727325 18.35335895 2 17 C5.1875 16.75 5.1875 16.75 8 17 C7.75784048 20.55167293 7.35252176 22.55347244 5.125 25.375 C0.453659 27.80409732 -3.84422957 27.89074804 -9 27 C-12.66735838 25.13427593 -14.67953881 22.96138356 -16 19 C-16.39170991 14.1337576 -16.62448766 9.57765304 -14.8125 5 C-10.47568409 0.21454796 -6.26294547 -0.94007701 0 0 Z " fill="#EEF9ED" transform="translate(37,88)"/>
<path d="M0 0 C3.66442598 1.62863377 5.99175177 3.51198992 8 7 C8 8.32 8 9.64 8 11 C6.02 11 4.04 11 2 11 C1.34 9.68 0.68 8.36 0 7 C-3.41642759 6.74984127 -3.41642759 6.74984127 -7 7 C-9.46751239 10.70126859 -9.30721156 12.62223532 -9 17 C-8.11935073 19.35369807 -8.11935073 19.35369807 -7 21 C-4.12586875 21.33397787 -4.12586875 21.33397787 -1 21 C-0.505 20.34 -0.01 19.68 0.5 19 C0.995 18.34 1.49 17.68 2 17 C5.1875 16.75 5.1875 16.75 8 17 C7.75784048 20.55167293 7.35252176 22.55347244 5.125 25.375 C0.453659 27.80409732 -3.84422957 27.89074804 -9 27 C-12.66735838 25.13427593 -14.67953881 22.96138356 -16 19 C-16.39170991 14.1337576 -16.62448766 9.57765304 -14.8125 5 C-10.47568409 0.21454796 -6.26294547 -0.94007701 0 0 Z " fill="#F3F3F4" transform="translate(37,296)"/>
<path d="M0 0 C21.12 0 42.24 0 64 0 C64 3.63 64 7.26 64 11 C63.67 11 63.34 11 63 11 C63 7.7 63 4.4 63 1 C34.29 1.495 34.29 1.495 5 2 C3.24869578 9.4699212 3.24869578 9.4699212 2.77294922 16.70336914 C2.77319092 17.73772095 2.77343262 18.77207275 2.77368164 19.83776855 C2.78391357 20.89290649 2.79414551 21.94804443 2.8046875 23.03515625 C2.80670166 24.02866089 2.80871582 25.02216553 2.81079102 26.04577637 C2.82116828 29.71806529 2.8490901 33.39028782 2.875 37.0625 C2.91625 45.291875 2.9575 53.52125 3 62 C32.7 62.495 32.7 62.495 63 63 C63 56.07 63 49.14 63 42 C63.33 42 63.66 42 64 42 C64 49.26 64 56.52 64 64 C42.88 64 21.76 64 0 64 C0 42.88 0 21.76 0 0 Z " fill="#5F815B" transform="translate(1,69)"/>
<path d="M0 0 C1.98 0 3.96 0 6 0 C5.01 1.485 5.01 1.485 4 3 C3.34 3 2.68 3 2 3 C2 22.47 2 41.94 2 62 C32.195 62.495 32.195 62.495 63 63 C63 42.87 63 22.74 63 2 C55.08 2.33 47.16 2.66 39 3 C34.62983494 2.92763081 30.34901285 2.83122452 26 2.5625 C24.06257903 2.45815751 22.12507959 2.35526062 20.1875 2.25390625 C19.30835937 2.20637207 18.42921875 2.15883789 17.5234375 2.10986328 C14.0113108 1.95695529 10.51489998 1.96269564 7 2 C7 1.34 7 0.68 7 0 C25.81 0 44.62 0 64 0 C64 21.12 64 42.24 64 64 C42.88 64 21.76 64 0 64 C0 42.88 0 21.76 0 0 Z " fill="#60815D" transform="translate(1,139)"/>
<path d="M0 0 C5.94 0 11.88 0 18 0 C18 1.98 18 3.96 18 6 C14.37 6 10.74 6 7 6 C7 7.98 7 9.96 7 12 C10.3 12 13.6 12 17 12 C17 13.65 17 15.3 17 17 C13.7 17 10.4 17 7 17 C7 20.3 7 23.6 7 27 C4.69 27 2.38 27 0 27 C0 18.09 0 9.18 0 0 Z " fill="#E8F2E5" transform="translate(24,157)"/>
<path d="M0 0 C21.12 0 42.24 0 64 0 C64 0.33 64 0.66 64 1 C43.21 1 22.42 1 1 1 C1 22.12 1 43.24 1 65 C2.32 65 3.64 65 5 65 C4.67 66.32 4.34 67.64 4 69 C33.7 69.495 33.7 69.495 64 70 C64 70.33 64 70.66 64 71 C43.21 71 22.42 71 1 71 C1 92.12 1 113.24 1 135 C1.66 135 2.32 135 3 135 C2.67 135.99 2.34 136.98 2 138 C1.34 138 0.68 138 0 138 C0 92.46 0 46.92 0 0 Z " fill="#061803" transform="translate(0,68)"/>
<path d="M0 0 C2.31 0 4.62 0 7 0 C8.65 3.3 10.3 6.6 12 10 C12.36351562 9.278125 12.72703125 8.55625 13.1015625 7.8125 C14.60015678 5.04586441 16.0652822 2.48375934 18 0 C21.375 -0.625 21.375 -0.625 24 0 C23.43407618 4.31516915 21.86026327 7.0648828 19.5 10.6875 C16.16689619 16.18814371 14.9008335 20.59667714 15 27 C13.02 27 11.04 27 9 27 C9.020625 26.36835938 9.04125 25.73671875 9.0625 25.0859375 C8.87372928 16.89800761 5.93866382 11.62118595 1.71484375 4.87109375 C0 2 0 2 0 0 Z " fill="#F5F5F6" transform="translate(299,227)"/>
<path d="M0 0 C0.87454834 0.00523682 1.74909668 0.01047363 2.65014648 0.01586914 C3.59438477 0.0190918 4.53862305 0.02231445 5.51147461 0.02563477 C6.50469727 0.03401367 7.49791992 0.04239258 8.52124023 0.05102539 C9.51833008 0.05553711 10.51541992 0.06004883 11.54272461 0.06469727 C14.01478872 0.07652532 16.48673541 0.0930069 18.95874023 0.11352539 C19.00146124 1.77964444 18.99937856 3.44735424 18.95874023 5.11352539 C18.62874023 5.44352539 18.29874023 5.77352539 17.95874023 6.11352539 C15.64874023 6.11352539 13.33874023 6.11352539 10.95874023 6.11352539 C10.95874023 13.04352539 10.95874023 19.97352539 10.95874023 27.11352539 C8.97874023 27.11352539 6.99874023 27.11352539 4.95874023 27.11352539 C4.95874023 20.18352539 4.95874023 13.25352539 4.95874023 6.11352539 C2.31874023 6.11352539 -0.32125977 6.11352539 -3.04125977 6.11352539 C-3.08398077 4.44740634 -3.08189809 2.77969654 -3.04125977 1.11352539 C-2.04125977 0.11352539 -2.04125977 0.11352539 0 0 Z " fill="#F9FEF8" transform="translate(303.041259765625,156.886474609375)"/>
<path d="M0 0 C6.93 0 13.86 0 21 0 C21 1.98 21 3.96 21 6 C18.36 6 15.72 6 13 6 C13 12.93 13 19.86 13 27 C11.02 27 9.04 27 7 27 C7 20.07 7 13.14 7 6 C4.69 6 2.38 6 0 6 C0 4.02 0 2.04 0 0 Z " fill="#F0F0F0" transform="translate(92,296)"/>
<path d="M0 0 C20.79 0 41.58 0 63 0 C63 0.33 63 0.66 63 1 C54.75504515 1.70169829 46.66854894 2.04841969 38.39453125 1.96484375 C35.08267425 1.99914376 31.85738436 2.23834575 28.5625 2.5625 C24.13687582 2.98121871 20.40497607 2.68353077 16 2 C11.38 2 6.76 2 2 2 C1.67 22.13 1.34 42.26 1 63 C21.46 63 41.92 63 63 63 C63 63.33 63 63.66 63 64 C42.21 64 21.42 64 0 64 C0 42.88 0 21.76 0 0 Z " fill="#60815D" transform="translate(279,139)"/>
<path d="M0 0 C1.98 0 3.96 0 6 0 C6 7.26 6 14.52 6 22 C9.96 22 13.92 22 18 22 C18 23.65 18 25.3 18 27 C12.06 27 6.12 27 0 27 C0 18.09 0 9.18 0 0 Z " fill="#F8F7F9" transform="translate(303,296)"/>
<path d="M0 0 C21.12 0 42.24 0 64 0 C64 21.12 64 42.24 64 64 C42.88 64 21.76 64 0 64 C0 63.01 0 62.02 0 61 C0.70981522 61.16200394 1.41963043 61.32400787 2.1509552 61.49092102 C5.02734579 62.00488626 7.6650546 62.13366999 10.5847168 62.14526367 C11.67902512 62.15164352 12.77333344 62.15802338 13.90080261 62.16459656 C15.07177994 62.16570938 16.24275726 62.1668222 17.44921875 62.16796875 C18.65818314 62.17129715 19.86714752 62.17462555 21.11274719 62.17805481 C23.66378397 62.18311126 26.21482735 62.18546353 28.76586914 62.18530273 C32.68321459 62.1874976 36.60028217 62.20568999 40.51757812 62.22460938 C42.9947907 62.22754179 45.47200462 62.2295276 47.94921875 62.23046875 C49.71479378 62.24124702 49.71479378 62.24124702 51.51603699 62.25224304 C52.60088882 62.24916641 53.68574066 62.24608978 54.8034668 62.24291992 C56.23978706 62.24505745 56.23978706 62.24505745 57.7051239 62.24723816 C60.19667359 62.22152426 60.19667359 62.22152426 62 60 C62.29305711 57.45096706 62.29305711 57.45096706 62.22705078 54.44873047 C62.22680908 53.27141357 62.22656738 52.09409668 62.22631836 50.88110352 C62.21608643 49.63901123 62.20585449 48.39691895 62.1953125 47.1171875 C62.19229126 45.40994507 62.19229126 45.40994507 62.18920898 43.66821289 C62.17872009 39.40376778 62.15079768 35.13937998 62.125 30.875 C62.063125 16.581875 62.063125 16.581875 62 2 C41.54 2 21.08 2 0 2 C0 1.34 0 0.68 0 0 Z " fill="#5D8059" transform="translate(140,69)"/>
<path d="M0 0 C3.63 0.33 7.26 0.66 11 1 C10.938125 1.928125 10.87625 2.85625 10.8125 3.8125 C10.69105736 6.98395103 10.69105736 6.98395103 12.5 8.875 C12.995 9.24625 13.49 9.6175 14 10 C13.01 10.33 12.02 10.66 11 11 C11.3609375 11.71027344 11.721875 12.42054687 12.09375 13.15234375 C12.5578125 14.07144531 13.021875 14.99054687 13.5 15.9375 C13.9640625 16.85402344 14.428125 17.77054688 14.90625 18.71484375 C16 21 16 21 16 22 C13.69 22 11.38 22 9 22 C5 15.25 5 15.25 5 13 C3.68 13 2.36 13 1 13 C-0.27832408 8.61142284 -0.06690432 4.54949399 0 0 Z " fill="#EDF7EC" transform="translate(237,23)"/>
<path d="M0 0 C2.5 0.125 2.5 0.125 3.5 1.125 C3.58748207 3.05167507 3.60697334 4.98151861 3.59765625 6.91015625 C3.59443359 8.07998047 3.59121094 9.24980469 3.58789062 10.45507812 C3.57951172 11.68677734 3.57113281 12.91847656 3.5625 14.1875 C3.55798828 15.42306641 3.55347656 16.65863281 3.54882812 17.93164062 C3.53699608 20.99614117 3.52051173 24.06054721 3.5 27.125 C1.19 27.125 -1.12 27.125 -3.5 27.125 C-3.52886537 22.81251391 -3.54675255 18.50005238 -3.5625 14.1875 C-3.57087891 12.95580078 -3.57925781 11.72410156 -3.58789062 10.45507812 C-3.59111328 9.28525391 -3.59433594 8.11542969 -3.59765625 6.91015625 C-3.60289307 5.82613525 -3.60812988 4.74211426 -3.61352539 3.62524414 C-3.46053674 0.25587483 -3.36785946 0.16839297 0 0 Z " fill="#FAFCF9" transform="translate(241.5,226.875)"/>
<path d="M0 0 C2.9375 1.125 2.9375 1.125 4.875 3.75 C6.1300736 7.73670437 6.00045176 10.10096835 4.9375 14.125 C3.75 16.0625 3.75 16.0625 1.9375 17.125 C-1.0625 17.5625 -1.0625 17.5625 -4.0625 17.125 C-6.41015848 15.3251285 -6.94849016 13.89210325 -7.37890625 10.99609375 C-7.57533484 7.14989519 -7.49321585 4.82077175 -5.4375 1.5 C-3.0625 0.125 -3.0625 0.125 0 0 Z " fill="#5B8B56" transform="translate(173.0625,300.875)"/>
<path d="M0 0 C3.875 1.875 3.875 1.875 5 3 C5.36090226 10.45864662 5.36090226 10.45864662 3 14 C2.34 14 1.68 14 1 14 C2.65 17.63 4.3 21.26 6 25 C3.69 25 1.38 25 -1 25 C-1.87191947 23.61518672 -2.72190384 22.21654754 -3.5625 20.8125 C-4.03816406 20.03519531 -4.51382813 19.25789063 -5.00390625 18.45703125 C-6.22007332 15.45715247 -6.09239011 14.02312612 -5 11 C-4.01 10.34 -3.02 9.68 -2 9 C-1.95745644 7.00045254 -1.95919217 4.99958364 -2 3 C-1.34 2.01 -0.68 1.02 0 0 Z " fill="#F8F8F8" transform="translate(247,90)"/>
<path d="M0 0 C1.98 0 3.96 0 6 0 C6 8.91 6 17.82 6 27 C4.02 27 2.04 27 0 27 C0 18.09 0 9.18 0 0 Z " fill="#F9F9FA" transform="translate(169,18)"/>
<path d="M0 0 C7 0 7 0 10 2 C11.55234657 8.76379577 11.55234657 8.76379577 9.6875 12.9375 C8 15 8 15 6 16 C4.02 16 2.04 16 0 16 C0 10.72 0 5.44 0 0 Z " fill="#A69240" transform="translate(306,94)"/>
<path d="M0 0 C1.65 0 3.3 0 5 0 C5 6.27 5 12.54 5 19 C7.97 19 10.94 19 14 19 C14.33 20.32 14.66 21.64 15 23 C10.05 23 5.1 23 0 23 C0 15.41 0 7.82 0 0 Z " fill="#FDFCF7" transform="translate(301,91)"/>
<path d="M0 0 C7 0 7 0 8.875 1.0625 C10.6155744 4.06015591 10.88121951 6.55536591 11 10 C9.65437601 12.94755732 8.91445456 14.54277272 6 16 C4.02 16 2.04 16 0 16 C0 10.72 0 5.44 0 0 Z " fill="#3E3E40" transform="translate(306,24)"/>
<path d="M0 0 C1.65 0 3.3 0 5 0 C6.35439668 2.70879335 6.06501451 5.00933268 6 8 C6.66 8 7.32 8 8 8 C7.67 8.66 7.34 9.32 7 10 C6.67 10 6.34 10 6 10 C5.67 15.61 5.34 21.22 5 27 C3.35 27 1.7 27 0 27 C0 18.09 0 9.18 0 0 Z " fill="#F8FBF7" transform="translate(161,88)"/>
<path d="M0 0 C6 0 6 0 8.375 1.5 C10.65416433 5.00640667 10.81753559 7.92900647 10 12 C8.375 14.5 8.375 14.5 6 16 C4.02 16 2.04 16 0 16 C0 10.72 0 5.44 0 0 Z " fill="#3D3E3D" transform="translate(237,163)"/>
<path d="M0 0 C2.31 0 4.62 0 7 0 C7.69937202 1.4317616 8.38412718 2.87067032 9.0625 4.3125 C9.44535156 5.11300781 9.82820312 5.91351563 10.22265625 6.73828125 C11 9 11 9 10 12 C9.01 12 8.02 12 7 12 C7 13.32 7 14.64 7 16 C5.02 16 3.04 16 1 16 C1.33 13.69 1.66 11.38 2 9 C1.01 9 0.02 9 -1 9 C-2.25541557 5.23375329 -1.37061958 3.62811066 0 0 Z " fill="#F0F0EF" transform="translate(168,227)"/>
<path d="M0 0 C2.5 0.125 2.5 0.125 3.5 1.125 C3.58748207 3.05167507 3.60697334 4.98151861 3.59765625 6.91015625 C3.59443359 8.07998047 3.59121094 9.24980469 3.58789062 10.45507812 C3.57951172 11.68677734 3.57113281 12.91847656 3.5625 14.1875 C3.55798828 15.42306641 3.55347656 16.65863281 3.54882812 17.93164062 C3.53699608 20.99614117 3.52051173 24.06054721 3.5 27.125 C3.17 27.125 2.84 27.125 2.5 27.125 C1.74636948 23.77408229 1.38020063 20.69390188 1.40234375 17.26171875 C1.40556641 16.37548828 1.40878906 15.48925781 1.41210938 14.57617188 C1.42048828 13.66416016 1.42886719 12.75214844 1.4375 11.8125 C1.44201172 10.88115234 1.44652344 9.94980469 1.45117188 8.99023438 C1.46290766 6.70175627 1.47932637 4.41341192 1.5 2.125 C-0.65719524 2.91152913 -0.65719524 2.91152913 -1.10522461 4.88964844 C-1.52062374 7.24177855 -1.7093389 9.5045527 -1.81640625 11.890625 C-1.85830078 12.78007812 -1.90019531 13.66953125 -1.94335938 14.5859375 C-1.98267578 15.50632813 -2.02199219 16.42671875 -2.0625 17.375 C-2.10568359 18.31085938 -2.14886719 19.24671875 -2.19335938 20.2109375 C-2.2991805 22.51548641 -2.40126557 24.82013839 -2.5 27.125 C-2.83 27.125 -3.16 27.125 -3.5 27.125 C-3.52886537 22.81251391 -3.54675255 18.50005238 -3.5625 14.1875 C-3.57087891 12.95580078 -3.57925781 11.72410156 -3.58789062 10.45507812 C-3.59111328 9.28525391 -3.59433594 8.11542969 -3.59765625 6.91015625 C-3.60289307 5.82613525 -3.60812988 4.74211426 -3.61352539 3.62524414 C-3.46053674 0.25587483 -3.36785946 0.16839297 0 0 Z " fill="#CCE2C8" transform="translate(241.5,226.875)"/>
<path d="M0 0 C2.31 0 4.62 0 7 0 C7.69937202 1.4317616 8.38412718 2.87067032 9.0625 4.3125 C9.44535156 5.11300781 9.82820313 5.91351563 10.22265625 6.73828125 C11 9 11 9 10 12 C9.01 12.33 8.02 12.66 7 13 C6.01364163 11.58833114 5.03618745 10.17043816 4.0625 8.75 C3.51722656 7.96109375 2.97195313 7.1721875 2.41015625 6.359375 C1.10377559 4.17363007 0.45019489 2.4846199 0 0 Z " fill="#EDEDEE" transform="translate(299,227)"/>
<path d="M0 0 C5.99170124 5.5186722 5.99170124 5.5186722 7 10 C6.125 12.8125 6.125 12.8125 5 15 C3.68 13.68 2.36 12.36 1 11 C0.67 15.29 0.34 19.58 0 24 C-0.33 24 -0.66 24 -1 24 C-1.08071788 21.20775927 -1.14035408 18.41783434 -1.1875 15.625 C-1.21263672 14.8309375 -1.23777344 14.036875 -1.26367188 13.21875 C-1.29004405 11.14413852 -1.15486462 9.06899135 -1 7 C-0.01 6.34 0.98 5.68 2 5 C1.34 5 0.68 5 0 5 C0 3.35 0 1.7 0 0 Z " fill="#DBEBDB" transform="translate(167,91)"/>
<path d="M0 0 C0.87454834 0.00523682 1.74909668 0.01047363 2.65014648 0.01586914 C3.59438477 0.0190918 4.53862305 0.02231445 5.51147461 0.02563477 C6.50469727 0.03401367 7.49791992 0.04239258 8.52124023 0.05102539 C9.51833008 0.05553711 10.51541992 0.06004883 11.54272461 0.06469727 C14.01478872 0.07652532 16.48673541 0.0930069 18.95874023 0.11352539 C18.95874023 1.76352539 18.95874023 3.41352539 18.95874023 5.11352539 C18.29874023 4.78352539 17.63874023 4.45352539 16.95874023 4.11352539 C16.95874023 3.45352539 16.95874023 2.79352539 16.95874023 2.11352539 C11.34874023 2.11352539 5.73874023 2.11352539 -0.04125977 2.11352539 C-0.37125977 2.77352539 -0.70125977 3.43352539 -1.04125977 4.11352539 C-1.37125977 4.44352539 -1.70125977 4.77352539 -2.04125977 5.11352539 C0.26874023 5.11352539 2.57874023 5.11352539 4.95874023 5.11352539 C4.95874023 5.44352539 4.95874023 5.77352539 4.95874023 6.11352539 C2.31874023 6.11352539 -0.32125977 6.11352539 -3.04125977 6.11352539 C-3.08398077 4.44740634 -3.08189809 2.77969654 -3.04125977 1.11352539 C-2.04125977 0.11352539 -2.04125977 0.11352539 0 0 Z " fill="#CDE4CA" transform="translate(303.041259765625,156.886474609375)"/>
<path d="M0 0 C2.875 -0.125 2.875 -0.125 6 0 C6.66 0.66 7.32 1.32 8 2 C7.625 4.625 7.625 4.625 7 7 C4.69 7.33 2.38 7.66 0 8 C0 5.36 0 2.72 0 0 Z " fill="#404042" transform="translate(99,94)"/>
<path d="M0 0 C5.06017356 0.4464859 7.43305514 2.595189 11 6 C11.96070434 8.88211302 12.10581883 10.69850044 12.0625 13.6875 C12.05347656 14.49574219 12.04445312 15.30398438 12.03515625 16.13671875 C12.02355469 16.75160156 12.01195312 17.36648438 12 18 C11.67 18 11.34 18 11 18 C10.34 14.7 9.68 11.4 9 8 C6.66924071 8.95865509 6.66924071 8.95865509 5 12 C4.37542727 8.56484998 4 5.50935186 4 2 C2.68 1.67 1.36 1.34 0 1 C0 0.67 0 0.34 0 0 Z " fill="#E4F6E1" transform="translate(173,296)"/>
<path d="M0 0 C2.31 0 4.62 0 7 0 C7.625 2.375 7.625 2.375 8 5 C6 7 6 7 2.875 7.125 C1.451875 7.063125 1.451875 7.063125 0 7 C0 4.69 0 2.38 0 0 Z " fill="#618858" transform="translate(238,24)"/>
<path d="M0 0 C2.31 0 4.62 0 7 0 C7.625 2.375 7.625 2.375 8 5 C6 7 6 7 2.875 7.125 C1.451875 7.063125 1.451875 7.063125 0 7 C0 4.69 0 2.38 0 0 Z " fill="#3B3B3D" transform="translate(29,24)"/>
<path d="M0 0 C2.5 0.125 2.5 0.125 3.5 1.125 C3.57325168 3.98767567 3.59238205 6.825719 3.5625 9.6875 C3.55798828 10.49380859 3.55347656 11.30011719 3.54882812 12.13085938 C3.53700518 14.12893756 3.51906914 16.12697783 3.5 18.125 C3.17 18.125 2.84 18.125 2.5 18.125 C2.17 12.845 1.84 7.565 1.5 2.125 C0.51 2.455 -0.48 2.785 -1.5 3.125 C-1.83 9.065 -2.16 15.005 -2.5 21.125 C-2.83 21.125 -3.16 21.125 -3.5 21.125 C-3.52888146 17.81251813 -3.54675799 14.50006833 -3.5625 11.1875 C-3.57087891 10.24197266 -3.57925781 9.29644531 -3.58789062 8.32226562 C-3.59111328 7.42314453 -3.59433594 6.52402344 -3.59765625 5.59765625 C-3.60289307 4.76500244 -3.60812988 3.93234863 -3.61352539 3.07446289 C-3.43998941 0.09449563 -2.993647 0.14968235 0 0 Z " fill="#C1DEBE" transform="translate(94.5,226.875)"/>
<path d="M0 0 C0.99 0.33 1.98 0.66 3 1 C2.01 2.485 2.01 2.485 1 4 C0.54605448 6.27912938 0.54605448 6.27912938 0.375 8.6875 C0.30023437 9.49574219 0.22546875 10.30398437 0.1484375 11.13671875 C0.09945313 11.75160156 0.05046875 12.36648437 0 13 C-1.65 13.33 -3.3 13.66 -5 14 C-5 10.37 -5 6.74 -5 3 C-3.35 3 -1.7 3 0 3 C0 2.01 0 1.02 0 0 Z " fill="#F4FEF2" transform="translate(27,94)"/>
<path d="M0 0 C2.31 0 4.62 0 7 0 C7.625 2.375 7.625 2.375 8 5 C6 7 6 7 2.875 7.125 C1.451875 7.063125 1.451875 7.063125 0 7 C0 4.69 0 2.38 0 0 Z " fill="#3E3E3E" transform="translate(238,94)"/>
<path d="M0 0 C1.98 0.495 1.98 0.495 4 1 C4 8.59 4 16.18 4 24 C1.327664 20.43688534 0.22736029 18.15414253 -1 14 C-0.505 13.67 -0.01 13.34 0.5 13 C2.53472907 10.28702791 2.31958316 8.24663673 2.30078125 4.9375 C2.08908293 2.67808891 2.08908293 2.67808891 0 0 Z " fill="#678562" transform="translate(249,20)"/>
<path d="M0 0 C0.66 0 1.32 0 2 0 C2.08086376 2.93804996 2.1404283 5.87388075 2.1875 8.8125 C2.21263672 9.64587891 2.23777344 10.47925781 2.26367188 11.33789062 C2.27817383 12.54155273 2.27817383 12.54155273 2.29296875 13.76953125 C2.31653442 14.87711792 2.31653442 14.87711792 2.34057617 16.00708008 C1.90199296 18.57349926 1.0551054 19.44612499 -1 21 C-3.6875 21.1875 -3.6875 21.1875 -6 21 C-5.19175781 20.34644531 -4.38351563 19.69289062 -3.55078125 19.01953125 C-0.26704797 15.13235541 -0.22708868 12.60969222 -0.1875 7.6875 C-0.16236328 6.94693359 -0.13722656 6.20636719 -0.11132812 5.44335938 C-0.05281557 3.62947031 -0.02345651 1.81468097 0 0 Z " fill="#759A74" transform="translate(106,228)"/>
<path d="M0 0 C0.928125 0.0825 1.85625 0.165 2.8125 0.25 C2.32019231 5.78846154 2.32019231 5.78846154 -0.25 8.125 C-1.2090625 8.681875 -1.2090625 8.681875 -2.1875 9.25 C-2.47625 8.610625 -2.765 7.97125 -3.0625 7.3125 C-4.01573451 5.09793921 -4.01573451 5.09793921 -6.1875 4.25 C-4.36434338 1.00883268 -3.82500054 0.30000004 0 0 Z " fill="#E4F3E0" transform="translate(42.1875,104.75)"/>
<path d="M0 0 C5.61 0 11.22 0 17 0 C17 1.65 17 3.3 17 5 C13.37 5 9.74 5 6 5 C6 4.67 6 4.34 6 4 C8.64 4 11.28 4 14 4 C14 3.01 14 2.02 14 1 C7.565 1.495 7.565 1.495 1 2 C0.67 1.34 0.34 0.68 0 0 Z " fill="#E3F7DD" transform="translate(25,158)"/>
<path d="M0 0 C0.33 0.66 0.66 1.32 1 2 C1.66 2 2.32 2 3 2 C3.33 3.32 3.66 4.64 4 6 C-0.68493876 8.48887372 -3.9444214 7.85687773 -9 7 C-9 6.67 -9 6.34 -9 6 C-6.36 6 -3.72 6 -1 6 C-1.020625 5.195625 -1.04125 4.39125 -1.0625 3.5625 C-1 1 -1 1 0 0 Z " fill="#DDF4DA" transform="translate(106,247)"/>
<path d="M0 0 C0.33 0 0.66 0 1 0 C1 6.93 1 13.86 1 21 C1.66 21 2.32 21 3 21 C2.67 22.65 2.34 24.3 2 26 C1.34 25.67 0.68 25.34 0 25 C0 16.75 0 8.5 0 0 Z " fill="#598352" transform="translate(245,229)"/>
<path d="M0 0 C0.66 0.33 1.32 0.66 2 1 C2 8.59 2 16.18 2 24 C1.67 24 1.34 24 1 24 C0.83216738 20.56255588 0.66593456 17.12503622 0.5 13.6875 C0.42845703 12.22280273 0.42845703 12.22280273 0.35546875 10.72851562 C0.31035156 9.79072266 0.26523437 8.85292969 0.21875 7.88671875 C0.17685547 7.02264404 0.13496094 6.15856934 0.09179688 5.26831055 C0.02077599 3.51337696 0 1.75637008 0 0 Z " fill="#333335" transform="translate(301,297)"/>
<path d="M0 0 C0.99 0.495 0.99 0.495 2 1 C1.67 4.96 1.34 8.92 1 13 C3.475 13.99 3.475 13.99 6 15 C6 15.33 6 15.66 6 16 C4.02 16 2.04 16 0 16 C0 10.72 0 5.44 0 0 Z " fill="#9B9554" transform="translate(306,94)"/>
<path d="M0 0 C0.66 0.33 1.32 0.66 2 1 C2.73075648 3.3140622 3.40138258 5.64828869 4 8 C2.02 8 0.04 8 -2 8 C-1.34 5.36 -0.68 2.72 0 0 Z " fill="#4B4C49" transform="translate(171,235)"/>
<path d="M0 0 C8.66725664 -0.44070796 8.66725664 -0.44070796 13 3 C13.99 4.485 13.99 4.485 15 6 C14.01 6 13.02 6 12 6 C11.67 5.01 11.34 4.02 11 3 C7.37 2.34 3.74 1.68 0 1 C0 0.67 0 0.34 0 0 Z " fill="#E4F2DF" transform="translate(29,88)"/>
<path d="M0 0 C2.5654594 2.5654594 2.54046087 4.47686668 3 8 C1.35 8 -0.3 8 -2 8 C-1.34 5.36 -0.68 2.72 0 0 Z " fill="#464645" transform="translate(32,235)"/>
<path d="M0 0 C0.66 0.33 1.32 0.66 2 1 C2.40729228 3.32156597 2.74438677 5.6568787 3 8 C1.35 8 -0.3 8 -2 8 C-1.34 5.36 -0.68 2.72 0 0 Z " fill="#484849" transform="translate(171,165)"/>
<path d="M0 0 C0.33 0 0.66 0 1 0 C1 3.96 1 7.92 1 12 C-0.65 12 -2.3 12 -4 12 C-4 11.01 -4 10.02 -4 9 C-3.01 8.67 -2.02 8.34 -1 8 C-0.67 5.36 -0.34 2.72 0 0 Z " fill="#EEFEF0" transform="translate(165,103)"/>
<path d="M0 0 C0.66 0.33 1.32 0.66 2 1 C1.34 1.66 0.68 2.32 0 3 C0 4.32 0 5.64 0 7 C0 8.32 0 9.64 0 11 C-0.66 11.66 -1.32 12.32 -2 13 C-3.52846661 9.94306678 -3.23242445 7.37015453 -3 4 C-1.5 1.5625 -1.5 1.5625 0 0 Z " fill="#648B5F" transform="translate(30,94)"/>
<path d="M0 0 C2 3 2 3 2 5 C-0.31 5 -2.62 5 -5 5 C-5 4.34 -5 3.68 -5 3 C-2.5 1.375 -2.5 1.375 0 0 Z " fill="#FAFEFB" transform="translate(38,109)"/>
<path d="M0 0 C1.98 0 3.96 0 6 0 C5.67 1.32 5.34 2.64 5 4 C3.35 4.33 1.7 4.66 0 5 C0 3.35 0 1.7 0 0 Z " fill="#E2E2DF" transform="translate(39,313)"/>
<path d="M0 0 C2.31 0 4.62 0 7 0 C7 0.99 7 1.98 7 3 C4.36 3 1.72 3 -1 3 C-0.67 2.01 -0.34 1.02 0 0 Z " fill="#FCFEFA" transform="translate(32,170)"/>
<path d="M0 0 C0.33 0 0.66 0 1 0 C1 3.96 1 7.92 1 12 C-0.65 10.35 -2.3 8.7 -4 7 C-3.34 6.67 -2.68 6.34 -2 6 C-1.34 6.33 -0.68 6.66 0 7 C0 4.69 0 2.38 0 0 Z " fill="#62855E" transform="translate(176,91)"/>
<path d="M0 0 C2.64 0 5.28 0 8 0 C7.01 0.33 6.02 0.66 5 1 C5 1.66 5 2.32 5 3 C4.01 3.33 3.02 3.66 2 4 C1.34 4.66 0.68 5.32 0 6 C0 4.02 0 2.04 0 0 Z " fill="#5E7F57" transform="translate(100,34)"/>
<path d="M0 0 C0.66 0 1.32 0 2 0 C1.42655063 2.86724686 1.1385485 3.8614515 -1 6 C-4.625 5.625 -4.625 5.625 -8 5 C-8 4.34 -8 3.68 -8 3 C-6.02 3.66 -4.04 4.32 -2 5 C-1.34 3.35 -0.68 1.7 0 0 Z " fill="#63865E" transform="translate(37,104)"/>
<path d="M0 0 C1.65 0 3.3 0 5 0 C5 1.32 5 2.64 5 4 C3.02 4 1.04 4 -1 4 C-0.67 2.68 -0.34 1.36 0 0 Z " fill="#EEFFEE" transform="translate(105,30)"/>
<path d="M0 0 C0.66 0.66 1.32 1.32 2 2 C1.34 3.32 0.68 4.64 0 6 C-2.31 5.67 -4.62 5.34 -7 5 C-6.01 4.34 -5.02 3.68 -4 3 C-2.66209359 2.00612666 -1.32781878 1.0073108 0 0 Z " fill="#658E61" transform="translate(112,250)"/>
<path d="M0 0 C0.66 1.32 1.32 2.64 2 4 C-0.49064888 4.68707555 -2.37886292 5 -5 5 C-5 4.34 -5 3.68 -5 3 C-4.34 3 -3.68 3 -3 3 C-2.67 2.34 -2.34 1.68 -2 1 C-1.34 1.33 -0.68 1.66 0 2 C0 1.34 0 0.68 0 0 Z " fill="#E8F5E5" transform="translate(27,105)"/>
</svg>
