<?xml version="1.0" encoding="UTF-8"?>
<svg version="1.1" xmlns="http://www.w3.org/2000/svg" width="210" height="210">
<path d="M0 0 C69.3 0 138.6 0 210 0 C210 69.3 210 138.6 210 210 C140.7 210 71.4 210 0 210 C0 140.7 0 71.4 0 0 Z " fill="#121213" transform="translate(0,0)"/>
<path d="M0 0 C12.28179741 8.82213617 18.07759346 23.70533982 20.83154297 38.08520508 C24.24275021 61.41820893 22.36507308 87.27818113 9.3125 107.375 C3.67274807 114.69467804 -2.5191654 118.61261869 -11.3125 121.125 C-20.81435759 122.12519554 -28.66832894 119.85812177 -36.4375 114.25 C-49.1945953 103.52037163 -54.73932065 86.48572164 -56.6875 70.375 C-58.36772295 48.19605704 -56.32217514 25.02852146 -42.62890625 6.6328125 C-31.1888869 -6.67167681 -14.98353853 -9.18922295 0 0 Z " fill="#121213" transform="translate(115.6875,31.625)"/>
<path d="M0 0 C15.1718198 11.85518943 22.58295761 27.02244062 25 46 C26.65601152 67.76699763 21.97107942 89.6775723 8.046875 106.8671875 C4.17129421 110.90548351 -0.30456808 113.9883527 -5 117 C-5.65742187 117.4228125 -6.31484375 117.845625 -6.9921875 118.28125 C-12.15077929 121.20371402 -17.71594717 122.14541981 -23.484375 123.29296875 C-33.0586558 125.218463 -41.94203216 128.3852289 -51 132 C-12.33778611 142.28779798 -12.33778611 142.28779798 26 136 C29.02850485 133.58955736 30.80660431 131.25596489 33.125 128.1875 C33.74375 127.465625 34.3625 126.74375 35 126 C35.99 126 36.98 126 38 126 C36.66547645 134.4726728 32.27856851 142.81702647 25.9296875 148.6015625 C16.15452547 155.68558681 4.61213779 156.01279886 -7 155 C-18.42263987 152.82037382 -29.17474642 147.53334218 -39.77734375 142.92260742 C-51.23947845 137.34799206 -51.23947845 137.34799206 -63.546875 136.66796875 C-66.98619381 137.13348165 -70.4111938 137.12622859 -73.875 137.125 C-75.17179687 137.12757813 -76.46859375 137.13015625 -77.8046875 137.1328125 C-81 137 -81 137 -83 136 C-82.625 133.5625 -82.625 133.5625 -82 131 C-79.51939089 129.75969545 -78.06454286 129.97334067 -75.30078125 130.11328125 C-62.72254489 130.56284479 -53.24100874 129.96679137 -42 124 C-43.32451172 123.67128906 -43.32451172 123.67128906 -44.67578125 123.3359375 C-59.54146514 119.40794799 -72.04590501 112.95196663 -80.328125 99.36328125 C-90.91482746 80.46067501 -93.32385895 56.99795696 -87.97314453 36.0637207 C-83.28064741 19.90779078 -74.54060187 6.14741983 -59.80859375 -2.56640625 C-41.50206521 -11.91062875 -17.18723668 -12.45359848 0 0 Z M-56 4 C-71.00349133 21.44872835 -73.2848772 44.87648468 -72.23193359 66.93847656 C-70.9568943 83.76899526 -65.31894394 100.8290737 -53.09375 112.87890625 C-47.15670327 117.73317191 -40.01931504 120.50639991 -32.4375 121.4375 C-25.19376166 120.51556967 -18.76628001 118.613024 -13 114 C-12.45988281 113.5875 -11.91976562 113.175 -11.36328125 112.75 C-0.93580642 103.75190936 4.73105833 87.34738642 6 74 C6.30080583 68.43617945 6.40899279 62.8837235 6.4375 57.3125 C6.44394531 56.6116629 6.45039063 55.91082581 6.45703125 55.18875122 C6.56314827 36.29080144 2.71394353 18.55040204 -10 4 C-16.65989142 -2.22776106 -24.09567984 -5.53691607 -33.1875 -6.25 C-42.43091978 -5.64387411 -49.39597532 -2.5179387 -56 4 Z " fill="#FAFAFA" transform="translate(131,32)"/>
<path d="M0 0 C0.33 0 0.66 0 1 0 C1 4.95 1 9.9 1 15 C-4.28 15 -9.56 15 -15 15 C-13.68 14.34 -12.36 13.68 -11 13 C-10.29875 12.46375 -9.5975 11.9275 -8.875 11.375 C-7 10 -7 10 -5 10 C-5 9.34 -5 8.68 -5 8 C-4.34 8 -3.68 8 -3 8 C-1.92474806 5.34771188 -0.90543849 2.71631546 0 0 Z " fill="#000000" transform="translate(209,195)"/>
<path d="M0 0 C4.95 0 9.9 0 15 0 C15 4.95 15 9.9 15 15 C13.70152744 13.05229116 12.44806155 11.07353188 11.25 9.0625 C8.80857475 5.73944896 6.51849221 4.09612302 3 2 C2.01 1.34 1.02 0.68 0 0 Z " fill="#000000" transform="translate(195,0)"/>
<path d="M0 0 C4.95 0 9.9 0 15 0 C13.45620382 1.02919745 11.9083859 2.05484092 10.31640625 3.0078125 C5.34809679 6.17248178 3.16849931 9.57201726 1 15 C0.67 15 0.34 15 0 15 C0 10.05 0 5.1 0 0 Z " fill="#000000" transform="translate(0,0)"/>
<path d="M0 0 C1.02919745 1.54379618 2.05484092 3.0916141 3.0078125 4.68359375 C6.17248178 9.65190321 9.57201726 11.83150069 15 14 C15 14.33 15 14.66 15 15 C10.05 15 5.1 15 0 15 C0 10.05 0 5.1 0 0 Z " fill="#000000" transform="translate(0,195)"/>
</svg>
