<?xml version="1.0" encoding="UTF-8"?>
<svg version="1.1" xmlns="http://www.w3.org/2000/svg" width="72" height="72">
<path d="M0 0 C23.76 0 47.52 0 72 0 C72 23.76 72 47.52 72 72 C48.24 72 24.48 72 0 72 C0 48.24 0 24.48 0 0 Z " fill="#24C35E" transform="translate(0,0)"/>
<path d="M0 0 C11.88 0 23.76 0 36 0 C36 11.88 36 23.76 36 36 C24.12 36 12.24 36 0 36 C0 24.12 0 12.24 0 0 Z " fill="#24C35E" transform="translate(36,0)"/>
<path d="M0 0 C11.88 0 23.76 0 36 0 C36 11.88 36 23.76 36 36 C24.12 36 12.24 36 0 36 C0 24.12 0 12.24 0 0 Z " fill="#909291" transform="translate(0,0)"/>
<path d="M0 0 C11.88 0 23.76 0 36 0 C36 9.57 36 19.14 36 29 C30.38323902 31.80838049 28.72459214 32.368264 22.8515625 32.29296875 C21.64838379 32.28547607 20.44520508 32.2779834 19.20556641 32.27026367 C17.69397949 32.24295166 16.18239258 32.21563965 14.625 32.1875 C9.79875 32.125625 4.9725 32.06375 0 32 C0 21.44 0 10.88 0 0 Z " fill="#FACB02" transform="translate(36,36)"/>
<path d="M0 0 C0.99 0.33 1.98 0.66 3 1 C5.14952245 1.15251399 7.30315138 1.24925892 9.45703125 1.31640625 C10.10445282 1.3373233 10.75187439 1.35824036 11.41891479 1.37979126 C13.54998394 1.44636249 15.68116297 1.5051816 17.8125 1.5625 C18.90372665 1.59327133 18.90372665 1.59327133 20.01699829 1.62466431 C30.90582798 1.92786435 41.79460734 2.12737799 52.6875 2.1875 C53.93829346 2.20047119 55.18908691 2.21344238 56.4777832 2.22680664 C58.2270813 2.22861938 58.2270813 2.22861938 60.01171875 2.23046875 C61.53478638 2.23663208 61.53478638 2.23663208 63.08862305 2.24291992 C66.31057325 1.97408634 68.98204613 1.13282006 72 0 C72 2.31 72 4.62 72 7 C48.24 7 24.48 7 0 7 C0 4.69 0 2.38 0 0 Z " fill="#107540" transform="translate(0,65)"/>
<path d="M0 0 C0 2.31 0 4.62 0 7 C-11.88 7 -23.76 7 -36 7 C-36 5.68 -36 4.36 -36 3 C-34.6682373 2.970271 -34.6682373 2.970271 -33.30957031 2.93994141 C-30.00688666 2.86171768 -26.70464936 2.77502115 -23.40234375 2.68261719 C-21.97469602 2.64439976 -20.54695437 2.60953428 -19.11914062 2.578125 C-17.06346132 2.53231599 -15.00842446 2.4743502 -12.953125 2.4140625 C-11.71723633 2.3826416 -10.48134766 2.3512207 -9.20800781 2.31884766 C-5.81389332 1.98150264 -3.24390823 0 0 0 Z " fill="#7F7903" transform="translate(72,65)"/>
<path d="M0 0 C0.99 0.33 1.98 0.66 3 1 C5.51054905 1.1529647 7.99888525 1.25695178 10.51171875 1.31640625 C11.23994339 1.33718735 11.96816803 1.35796844 12.71846008 1.37937927 C15.04137875 1.44468746 17.36440906 1.50367237 19.6875 1.5625 C21.26368335 1.60570305 22.83985548 1.64931792 24.41601562 1.69335938 C28.27722975 1.8003496 32.13855603 1.90166961 36 2 C36 3.65 36 5.3 36 7 C35.505 5.515 35.505 5.515 35 4 C23.78 4 12.56 4 1 4 C0.67 2.68 0.34 1.36 0 0 Z " fill="#0D873F" transform="translate(0,65)"/>
<path d="M0 0 C0.33 0.66 0.66 1.32 1 2 C2.65 2 4.3 2 6 2 C6 2.99 6 3.98 6 5 C4.02 5 2.04 5 0 5 C0 3.35 0 1.7 0 0 Z " fill="#237A4B" transform="translate(0,67)"/>
<path d="M0 0 C0.66 0 1.32 0 2 0 C2 2.31 2 4.62 2 7 C0.35 7 -1.3 7 -3 7 C-1.68 5.35 -0.36 3.7 1 2 C0.34 1.67 -0.32 1.34 -1 1 C-0.67 0.67 -0.34 0.34 0 0 Z " fill="#948C2E" transform="translate(70,65)"/>
</svg>
