<?xml version="1.0" encoding="UTF-8"?>
<svg version="1.1" xmlns="http://www.w3.org/2000/svg" width="180" height="180">
<path d="M0 0 C59.4 0 118.8 0 180 0 C180 59.4 180 118.8 180 180 C120.6 180 61.2 180 0 180 C0 120.6 0 61.2 0 0 Z " fill="#303036" transform="translate(0,0)"/>
<path d="M0 0 C26.07 0 52.14 0 79 0 C79 37.62 79 75.24 79 114 C52.93 114 26.86 114 0 114 C0 76.38 0 38.76 0 0 Z " fill="#D5D5D5" transform="translate(89,33)"/>
<path d="M0 0 C48.42857143 0 48.42857143 0 56.5 7.0625 C63.23614609 16.50904807 63.95162539 26.79833725 63 38 C61.36427734 47.14357199 57.50513388 53.40793946 50 59 C47.70176466 60.4196343 45.3789609 61.71536112 43 63 C43.4125 63.40347656 43.825 63.80695313 44.25 64.22265625 C53.5936135 74.04596419 58.56852146 87.02568036 64 99.25 C64.49338867 100.35786865 64.98677734 101.4657373 65.49511719 102.60717773 C65.95047852 103.64946533 66.40583984 104.69175293 66.875 105.765625 C67.28492187 106.70180664 67.69484375 107.63798828 68.1171875 108.60253906 C69 111 69 111 69 114 C64.71 114 60.42 114 56 114 C55.29875 112.3809375 54.5975 110.761875 53.875 109.09375 C47.4740504 94.33553981 47.4740504 94.33553981 40.5625 79.8125 C40.25763672 79.19761719 39.95277344 78.58273438 39.63867188 77.94921875 C35.9228688 70.54379448 35.9228688 70.54379448 30 65 C23.73 64.67 17.46 64.34 11 64 C11 80.5 11 97 11 114 C7.37 114 3.74 114 0 114 C0 76.38 0 38.76 0 0 Z " fill="#C1C0C0" transform="translate(12,33)"/>
<path d="M0 0 C13.2 0 26.4 0 40 0 C40 4.62 40 9.24 40 14 C30.43 14 20.86 14 11 14 C11 19.61 11 25.22 11 31 C19.91 31 28.82 31 38 31 C38 35.29 38 39.58 38 44 C29.09 44 20.18 44 11 44 C11 50.93 11 57.86 11 65 C20.9 65 30.8 65 41 65 C41 69.29 41 73.58 41 78 C27.47 78 13.94 78 0 78 C0 52.26 0 26.52 0 0 Z " fill="#38383E" transform="translate(108,51)"/>
<path d="M0 0 C4.970625 -0.103125 9.94125 -0.20625 15.0625 -0.3125 C16.61718994 -0.35802002 18.17187988 -0.40354004 19.77368164 -0.45043945 C31.18005754 -0.56519173 31.18005754 -0.56519173 35.375 2.36328125 C40.17860575 7.18833167 41.18246183 10.71406713 41.375 17.4375 C41.21063763 23.99705275 40.31736133 28.14192102 36.125 33.3125 C31.70110614 36.82559219 27.71967169 37.24422618 22.16796875 37.1953125 C21.00289795 37.19031738 19.83782715 37.18532227 18.63745117 37.18017578 C16.43472534 37.15286377 16.43472534 37.15286377 14.1875 37.125 C9.505625 37.08375 4.82375 37.0425 0 37 C0 24.79 0 12.58 0 0 Z " fill="#313137" transform="translate(23,46)"/>
</svg>
