<?xml version="1.0" encoding="UTF-8"?>
<svg version="1.1" xmlns="http://www.w3.org/2000/svg" width="150" height="151">
<path d="M0 0 C49.5 0 99 0 150 0 C150 49.83 150 99.66 150 151 C100.5 151 51 151 0 151 C0 101.17 0 51.34 0 0 Z " fill="#3B3664" transform="translate(0,0)"/>
<path d="M0 0 C49.5 0 99 0 150 0 C150 10.56 150 21.12 150 32 C100.5 32 51 32 0 32 C0 21.44 0 10.88 0 0 Z " fill="#F9D006" transform="translate(0,119)"/>
<path d="M0 0 C1.32310684 -0.02882263 1.32310684 -0.02882263 2.67294312 -0.05822754 C3.63116974 -0.06672729 4.58939636 -0.07522705 5.57666016 -0.08398438 C7.06125229 -0.10108459 7.06125229 -0.10108459 8.57583618 -0.11853027 C10.67909459 -0.13745788 12.78241268 -0.15050919 14.88574219 -0.15820312 C18.06896822 -0.17745166 21.24951891 -0.239389 24.43212891 -0.30273438 C36.43470069 -0.4284854 46.6998714 -0.50146325 55.83081055 8.34790039 C60.51430701 13.74229086 60.5624623 19.90464551 60.25244141 26.78710938 C59.38866282 32.75443471 57.43970206 36.29678385 52.62744141 39.90820312 C50.70241607 41.14596364 48.77346007 42.27311083 46.74072266 43.32226562 C47.02359131 43.8861499 47.30645996 44.45003418 47.59790039 45.03100586 C48.35004569 46.5389921 49.0958371 48.05016703 49.8347168 49.56469727 C51.12702629 52.18772267 52.46385968 54.78547775 53.80322266 57.38476562 C54.46354492 58.75084961 54.46354492 58.75084961 55.13720703 60.14453125 C57.63037388 64.90293829 59.28617013 67.65779451 64.54931641 69.31835938 C65.31945068 69.48392334 66.08958496 69.6494873 66.88305664 69.82006836 C67.49608643 69.98579346 68.10911621 70.15151855 68.74072266 70.32226562 C70.15514139 73.1511031 70.05972598 75.19603307 69.74072266 78.32226562 C68.30322266 80.19726562 68.30322266 80.19726562 65.74072266 81.32226562 C60.87991524 81.89359187 55.98092923 81.95806971 51.74072266 79.32226562 C46.13171443 74.59159111 43.95358863 68.36612989 41.24853516 61.71679688 C39.08717825 56.85094414 36.50168776 52.08786133 31.92041016 49.15820312 C29.24490296 48.13211255 26.8454215 47.90117269 23.99072266 47.69726562 C22.25822266 47.57351562 20.52572266 47.44976562 18.74072266 47.32226562 C18.74072266 54.58226562 18.74072266 61.84226563 18.74072266 69.32226562 C22.04072266 69.32226562 25.34072266 69.32226562 28.74072266 69.32226562 C29.73072266 70.31226562 30.72072266 71.30226563 31.74072266 72.32226562 C31.40738932 78.65559896 31.40738932 78.65559896 28.74072266 81.32226562 C24.19811988 81.7225498 19.64105626 81.65127213 15.08276367 81.63793945 C12.81526519 81.63478239 10.54907506 81.65822322 8.28173828 81.68359375 C6.8422868 81.68586704 5.40283181 81.6865701 3.96337891 81.68554688 C2.65119385 81.68852783 1.33900879 81.69150879 -0.01293945 81.69458008 C-3.25927734 81.32226562 -3.25927734 81.32226562 -5.19116211 79.98706055 C-6.85044668 77.4008522 -6.57100979 75.3148971 -6.25927734 72.32226562 C-5.59927734 71.33226563 -4.93927734 70.34226562 -4.25927734 69.32226562 C-0.95927734 69.32226562 2.34072266 69.32226562 5.74072266 69.32226562 C5.74072266 50.51226562 5.74072266 31.70226562 5.74072266 12.32226562 C2.77072266 12.32226562 -0.19927734 12.32226562 -3.25927734 12.32226562 C-6.25927734 9.32226562 -6.25927734 9.32226562 -6.57177734 5.75976562 C-6.11792549 0.7673952 -4.65367037 0.0818371 0 0 Z " fill="#F6F6FA" transform="translate(43.25927734375,25.677734375)"/>
<path d="M0 0 C1.2375 0.804375 2.475 1.60875 3.75 2.4375 C8.27435298 5.37832944 11.7904882 6.12280083 17.16593933 6.14044189 C18.73233154 6.14900711 18.73233154 6.14900711 20.33036804 6.15774536 C21.47068985 6.15886322 22.61101166 6.15998108 23.78588867 6.16113281 C24.99121246 6.16609772 26.19653625 6.17106262 27.43838501 6.17617798 C30.74238228 6.18827597 34.04631633 6.19574232 37.35032821 6.20018864 C39.4174926 6.20312432 41.4846515 6.20723013 43.55181313 6.21169281 C50.02792719 6.22536299 56.50402864 6.23503118 62.98015612 6.2388947 C70.43980273 6.24337011 77.89926561 6.26089583 85.35885638 6.2898953 C91.13482985 6.31156492 96.91075184 6.32160184 102.68676549 6.32293582 C106.131649 6.32398036 109.5763597 6.32981252 113.02120018 6.34775543 C116.86990558 6.36741203 120.71838444 6.36292615 124.56713867 6.35644531 C125.69733932 6.3656601 126.82753998 6.37487488 127.99198914 6.3843689 C136.62548482 6.33893896 143.01776622 5.23667533 150 0 C150 5.61 150 11.22 150 17 C100.5 17 51 17 0 17 C0 11.39 0 5.78 0 0 Z " fill="#838000" transform="translate(0,134)"/>
<path d="M0 0 C3.17625 -0.0825 6.3525 -0.165 9.625 -0.25 C10.6145166 -0.28641602 11.6040332 -0.32283203 12.62353516 -0.36035156 C18.25795762 -0.43096692 21.59081997 0.13327429 26 4 C28.48133339 7.72200009 28.52296148 10.68978518 28 15 C26.59587114 18.71681168 25.48243969 19.74137254 21.96875 21.625 C17.51974758 23.44412973 13.30091828 23.33523511 8.5625 23.1875 C5.736875 23.125625 2.91125 23.06375 0 23 C0 15.41 0 7.82 0 0 Z " fill="#363256" transform="translate(62,38)"/>
<path d="M0 0 C2.24743424 0.08670167 4.4922971 0.24006058 6.734375 0.41772461 C16.90244014 1.14570472 27.05978272 1.22658346 37.25 1.31640625 C39.24495821 1.33703475 41.23991263 1.35803248 43.23486328 1.37937927 C48.42961516 1.43399241 53.62440238 1.48366379 58.81921387 1.53222656 C64.1425279 1.58289172 69.46579201 1.6383403 74.7890625 1.69335938 C85.19266547 1.80019516 95.59631219 1.9017986 106 2 C106 2.66 106 3.32 106 4 C56.5 4 7 4 -44 4 C-44 3.67 -44 3.34 -44 3 C-41.03 3 -38.06 3 -35 3 C-35 2.34 -35 1.68 -35 1 C-33.97527588 1.00523682 -32.95055176 1.01047363 -31.89477539 1.01586914 C-28.10604724 1.03391969 -24.31732291 1.0454322 -20.52856445 1.05493164 C-18.88630536 1.05997174 -17.24405077 1.06680378 -15.60180664 1.07543945 C-13.24624521 1.08751926 -10.89074291 1.09323139 -8.53515625 1.09765625 C-7.79660904 1.10281754 -7.05806183 1.10797882 -6.2971344 1.11329651 C-4.53101912 1.1134925 -2.76502854 1.06194719 -1 1 C-0.67 0.67 -0.34 0.34 0 0 Z " fill="#463A32" transform="translate(44,115)"/>
<path d="M0 0 C2.475 0.495 2.475 0.495 5 1 C4.67 2.65 4.34 4.3 4 6 C3.0925 6.165 2.185 6.33 1.25 6.5 C-2.76790556 8.35441795 -3.52352051 10.05435686 -5.3359375 13.9296875 C-6.2841693 16.88593959 -6.40181224 19.19637552 -5 22 C-5.70125 21.690625 -6.4025 21.38125 -7.125 21.0625 C-10.69606491 19.74275862 -14.18359986 19 -18 19 C-18 19.66 -18 20.32 -18 21 C-25.75 20.125 -25.75 20.125 -28 19 C-27.67 18.34 -27.34 17.68 -27 17 C-26.34 17 -25.68 17 -25 17 C-24.79503906 16.44570312 -24.59007812 15.89140625 -24.37890625 15.3203125 C-24.10949219 14.59585938 -23.84007812 13.87140625 -23.5625 13.125 C-23.16224609 12.04605469 -23.16224609 12.04605469 -22.75390625 10.9453125 C-22 9 -22 9 -21 7 C-20.34 7 -19.68 7 -19 7 C-19 7.99 -19 8.98 -19 10 C-16.9754262 8.06745228 -15.57894208 6.36841312 -14 4 C-10.7 4.66 -7.4 5.32 -4 6 C-4 4.68 -4 3.36 -4 2 C-2.68 2 -1.36 2 0 2 C0 1.34 0 0.68 0 0 Z " fill="#2E2A52" transform="translate(28,69)"/>
<path d="M0 0 C2.64 0 5.28 0 8 0 C8.33 1.32 8.66 2.64 9 4 C9.66 4 10.32 4 11 4 C11.474375 4.804375 11.94875 5.60875 12.4375 6.4375 C13.79983672 9.2918076 13.79983672 9.2918076 17 10 C17.33 12.31 17.66 14.62 18 17 C14.25 18.125 14.25 18.125 12 17 C9 12.5 9 12.5 9 10 C5.95086772 8.98888907 5.95086772 8.98888907 3 10 C2.01 9.34 1.02 8.68 0 8 C-0.40843923 5.28796348 -0.13336867 2.7562858 0 0 Z " fill="#2E2A53" transform="translate(0,0)"/>
<path d="M0 0 C0.33 0 0.66 0 1 0 C1 5.61 1 11.22 1 17 C-4.94 17 -10.88 17 -17 17 C-15 15 -15 15 -12.1875 13.6875 C-6.08091927 10.45460432 -3.13654635 5.92458755 0 0 Z " fill="#1F3E3F" transform="translate(149,134)"/>
<path d="M0 0 C3 3 3 3 4.3125 5.875 C7.16343579 11.15451072 11.33488668 14.16716922 17 16 C17 16.33 17 16.66 17 17 C11.39 17 5.78 17 0 17 C0 11.39 0 5.78 0 0 Z " fill="#35414A" transform="translate(0,134)"/>
<path d="M0 0 C4.62 1.65 9.24 3.3 14 5 C14 8 14 8 13 10 C13.9590625 10.1546875 13.9590625 10.1546875 14.9375 10.3125 C15.618125 10.539375 16.29875 10.76625 17 11 C17.33 11.99 17.66 12.98 18 14 C11.41817758 13.35787098 6.39391091 10.85622086 2.0625 5.9375 C0 3 0 3 0 0 Z " fill="#837F07" transform="translate(3,137)"/>
<path d="M0 0 C2.6425382 0.03842617 5.24024435 0.14525029 7.875 0.3125 C8.60847656 0.34794922 9.34195313 0.38339844 10.09765625 0.41992188 C13.8401109 0.64828659 15.82122987 0.88081991 19 3 C1.18 3 -16.64 3 -35 3 C-35 2.34 -35 1.68 -35 1 C-33.97527588 1.00523682 -32.95055176 1.01047363 -31.89477539 1.01586914 C-28.10604724 1.03391969 -24.31732291 1.0454322 -20.52856445 1.05493164 C-18.88630536 1.05997174 -17.24405077 1.06680378 -15.60180664 1.07543945 C-13.24624521 1.08751926 -10.89074291 1.09323139 -8.53515625 1.09765625 C-7.42733543 1.10539818 -7.42733543 1.10539818 -6.2971344 1.11329651 C-4.53101912 1.1134925 -2.76502854 1.06194719 -1 1 C-0.67 0.67 -0.34 0.34 0 0 Z " fill="#403652" transform="translate(44,115)"/>
<path d="M0 0 C-0.62686567 5.64179104 -0.62686567 5.64179104 -2.5625 7.5 C-4.34787668 9.03855073 -4.34787668 9.03855073 -4.1875 12.1875 C-4.125625 13.115625 -4.06375 14.04375 -4 15 C-4.66 15 -5.32 15 -6 15 C-7.32421875 13.57421875 -7.32421875 13.57421875 -8.6875 11.6875 C-9.14511719 11.07261719 -9.60273437 10.45773438 -10.07421875 9.82421875 C-10.53248047 8.92123047 -10.53248047 8.92123047 -11 8 C-9.83630874 4.50892621 -9.11026462 4.14777237 -6.0625 2.3125 C-5.35222656 1.87550781 -4.64195313 1.43851562 -3.91015625 0.98828125 C-2 0 -2 0 0 0 Z " fill="#393552" transform="translate(100,63)"/>
<path d="M0 0 C2.64 0 5.28 0 8 0 C8.36871508 4.54748603 8.36871508 4.54748603 6.625 6.6875 C6.08875 7.120625 5.5525 7.55375 5 8 C4.34 8.66 3.68 9.32 3 10 C2.01 9.34 1.02 8.68 0 8 C-0.40843923 5.28796348 -0.13336867 2.7562858 0 0 Z " fill="#2F3232" transform="translate(0,0)"/>
<path d="M0 0 C2.3431213 0.25561323 4.67843403 0.59270772 7 1 C7.33 1.66 7.66 2.32 8 3 C6.68 3 5.36 3 4 3 C4 3.66 4 4.32 4 5 C7.465 4.505 7.465 4.505 11 4 C11.33 4.99 11.66 5.98 12 7 C7.25 10 7.25 10 5 10 C5 9.34 5 8.68 5 8 C4.34 8 3.68 8 3 8 C0.95830515 5.09451118 0 3.59857954 0 0 Z " fill="#302B57" transform="translate(0,62)"/>
<path d="M0 0 C2.15349292 1.84585108 3.1151838 3.25230737 4.3125 5.875 C7.16343579 11.15451072 11.33488668 14.16716922 17 16 C17 16.33 17 16.66 17 17 C12.55129785 17.39253254 9.85756507 16.15305957 6 14 C6 13.34 6 12.68 6 12 C5.34 12 4.68 12 4 12 C3.32332002 10.75539217 2.65905281 9.50403104 2 8.25 C1.62875 7.55390625 1.2575 6.8578125 0.875 6.140625 C0 4 0 4 0 0 Z " fill="#1B3935" transform="translate(0,134)"/>
<path d="M0 0 C1.98 0 3.96 0 6 0 C6 2.64 6 5.28 6 8 C4.34385343 8.38218767 2.67542976 8.71395102 1 9 C0 8 0 8 -0.09765625 6.15234375 C-0.06510417 4.1015625 -0.03255208 2.05078125 0 0 Z " fill="#5B5D5F" transform="translate(144,0)"/>
<path d="M0 0 C0 4.36545242 -2.27971953 6.72171328 -5 10 C-8.38709677 13 -8.38709677 13 -11 13 C-10.34 10.69 -9.68 8.38 -9 6 C-7.35 6 -5.7 6 -4 6 C-4 5.01 -4 4.02 -4 3 C-2 1.3125 -2 1.3125 0 0 Z " fill="#787D13" transform="translate(148,135)"/>
<path d="M0 0 C2.60508636 0.11391632 5.20845546 0.24065548 7.8125 0.375 C8.55048828 0.4059375 9.28847656 0.436875 10.04882812 0.46875 C13.81893115 0.67346148 15.79650741 0.86433827 19 3 C12.73 3 6.46 3 0 3 C0 2.01 0 1.02 0 0 Z " fill="#2E2842" transform="translate(44,115)"/>
<path d="M0 0 C2.9375 0.375 2.9375 0.375 6 1 C6.33 1.66 6.66 2.32 7 3 C8.155 3.309375 9.31 3.61875 10.5 3.9375 C11.655 4.288125 12.81 4.63875 14 5 C14.33 5.99 14.66 6.98 15 8 C9.69531313 7.48246957 6.39327604 5.87252664 2 3 C1.34 2.01 0.68 1.02 0 0 Z " fill="#6D751A" transform="translate(6,143)"/>
<path d="M0 0 C0 2.31 0 4.62 0 7 C-1.98 7 -3.96 7 -6 7 C-6 4 -6 4 -4.125 1.8125 C-2 0 -2 0 0 0 Z " fill="#26292A" transform="translate(150,144)"/>
<path d="M0 0 C2.64 0 5.28 0 8 0 C8 1.98 8 3.96 8 6 C5.525 5.01 5.525 5.01 3 4 C3 3.34 3 2.68 3 2 C2.01 2 1.02 2 0 2 C0 1.34 0 0.68 0 0 Z " fill="#3D3E44" transform="translate(136,0)"/>
<path d="M0 0 C4.81938524 -0.23509196 8.46298506 0.54815522 13 2 C13 2.33 13 2.66 13 3 C7.06 3.495 7.06 3.495 1 4 C0.67 2.68 0.34 1.36 0 0 Z " fill="#4F4B6F" transform="translate(36,92)"/>
<path d="M0 0 C0.99 0 1.98 0 3 0 C3.33 1.98 3.66 3.96 4 6 C2.68 6 1.36 6 0 6 C-0.38218767 4.34385343 -0.71395102 2.67542976 -1 1 C-0.67 0.67 -0.34 0.34 0 0 Z " fill="#332E5C" transform="translate(12,40)"/>
<path d="M0 0 C0.33 1.32 0.66 2.64 1 4 C-1.64 4 -4.28 4 -7 4 C-4.61426621 2.10786631 -2.92824652 0.97608217 0 0 Z " fill="#384E54" transform="translate(143,147)"/>
<path d="M0 0 C0.33 0 0.66 0 1 0 C0.25 6.75 0.25 6.75 -2 9 C-2.125 5.625 -2.125 5.625 -2 2 C-1.34 1.34 -0.68 0.68 0 0 Z " fill="#EBEBF6" transform="translate(102,51)"/>
<path d="M0 0 C2.97 0 5.94 0 9 0 C6.01193893 1.49403054 3.10343799 2.79310745 0 4 C0 2.68 0 1.36 0 0 Z " fill="#2B2940" transform="translate(63,38)"/>
</svg>
