<svg width="142" height="142" viewBox="0 0 142 142" fill="none" xmlns="http://www.w3.org/2000/svg">
<g clip-path="url(#clip0_267_12104)">
<rect width="142" height="142" rx="71" fill="white"/>
<circle cx="71" cy="71" r="60" fill="#FDF5D7"/>
<path d="M79.7159 51.0568C81.5114 52.4432 82.5227 54.3864 82.75 56.8864H98.9091C98.8636 52.5455 97.7386 48.7273 95.5341 45.4318C93.3295 42.1364 90.2273 39.5795 86.2273 37.7614C82.25 35.9205 77.5568 35 72.1477 35C66.8523 35 62.1364 35.9091 58 37.7273L66.6591 49.7955C68.1136 49.2273 69.9318 48.9432 72.1136 48.9432C75.4091 48.9432 77.9432 49.6477 79.7159 51.0568Z" fill="#D6062F"/>
<path d="M63.3864 52.1477C64.1136 51.1477 65.2045 50.3636 66.6591 49.7955L58 37.7273C53.8636 39.5455 50.625 42.0795 48.2841 45.3295C45.9432 48.5795 44.7841 52.3636 44.8068 56.6818C44.7841 61.9773 46.5114 66.1818 49.9886 69.2955C53.4659 72.3864 58.2273 74.625 64.2727 76.0114L78.4886 64.5227L72.4886 63.1591C70.8977 62.8182 69.4659 62.4205 68.1932 61.9659C66.9205 61.5114 65.8295 60.9886 64.9205 60.3977C64.0341 59.7841 63.3523 59.0795 62.875 58.2841C62.4205 57.4886 62.2159 56.5682 62.2614 55.5227C62.2841 54.25 62.6591 53.125 63.3864 52.1477Z" fill="#FFC34F"/>
<path d="M87.625 67.5227C84.9886 66.2727 81.9432 65.2727 78.4886 64.5227L64.2727 76.0114L71.5682 77.7159C74.1136 78.3068 76.2045 78.9545 77.8409 79.6591C79.5 80.3409 80.7273 81.1591 81.5227 82.1136C82.3182 83.0455 82.7273 84.1705 82.75 85.4886C82.7273 86.8977 82.2841 88.1477 81.4205 89.2386C80.5568 90.3295 79.3182 91.1818 77.7045 91.7955C76.1136 92.4091 74.1818 92.7159 71.9091 92.7159L87.0114 104.136C91.1477 102.455 94.3182 100.034 96.5227 96.875C98.7273 93.7159 99.8409 89.9318 99.8636 85.5227C99.8409 82.7273 99.3636 80.2045 98.4318 77.9545C97.5 75.7045 96.125 73.7159 94.3068 71.9886C92.5114 70.2614 90.2841 68.7727 87.625 67.5227Z" fill="#2C6CEE"/>
<path d="M72.1136 106.659C77.9318 106.659 82.8977 105.818 87.0114 104.136L71.9091 92.7159C69.4318 92.7159 67.25 92.3295 65.3636 91.5568C63.5 90.7841 62.0341 89.6477 60.9659 88.1477C59.8977 86.6477 59.2955 84.7727 59.1591 82.5227H43C43.0682 87.9773 44.3068 92.4886 46.7159 96.0568C49.125 99.625 52.5 102.284 56.8409 104.034C61.1818 105.784 66.2727 106.659 72.1136 106.659Z" fill="#0CBD1B"/>
<path fill-rule="evenodd" clip-rule="evenodd" d="M64.2727 76.0114C58.2273 74.625 53.4659 72.3864 49.9887 69.2955C46.5114 66.1818 44.7841 61.9773 44.8068 56.6818C44.7841 52.3636 45.9432 48.5795 48.2841 45.3295C50.625 42.0795 53.8637 39.5455 58 37.7273C58.6251 37.4525 59.2633 37.1985 59.9149 36.9653C63.5749 35.6551 67.6525 35 72.1477 35C77.5568 35 82.25 35.9205 86.2273 37.7614C90.2273 39.5795 93.3296 42.1364 95.5341 45.4318C97.0344 47.6746 98.0347 50.1594 98.5351 52.8864C98.7699 54.1664 98.8946 55.4997 98.9091 56.8864H82.75C82.5227 54.3864 81.5114 52.4432 79.7159 51.0568C77.9432 49.6477 75.4091 48.9432 72.1137 48.9432C69.9318 48.9432 68.1137 49.2273 66.6591 49.7955C65.983 50.0596 65.3854 50.3703 64.8665 50.7277C64.269 51.1392 63.7756 51.6126 63.3864 52.1477C62.6591 53.125 62.2841 54.25 62.2614 55.5227C62.2159 56.5682 62.4205 57.4886 62.875 58.2841C63.3523 59.0795 64.0341 59.7841 64.9205 60.3977C65.8296 60.9886 66.9205 61.5114 68.1932 61.9659C69.4659 62.4205 70.8977 62.8182 72.4887 63.1591L78.4887 64.5227C81.9432 65.2727 84.9887 66.2727 87.625 67.5227C90.2841 68.7727 92.5114 70.2614 94.3068 71.9886C96.125 73.7159 97.5 75.7045 98.4318 77.9545C99.3637 80.2045 99.8409 82.7273 99.8637 85.5227C99.8409 89.9318 98.7273 93.7159 96.5227 96.875C94.3182 100.034 91.1477 102.455 87.0114 104.136C86.2888 104.432 85.5398 104.701 84.7646 104.945C81.1268 106.088 76.9098 106.659 72.1137 106.659C66.2727 106.659 61.1818 105.784 56.8409 104.034C52.5 102.284 49.125 99.625 46.7159 96.0568C44.923 93.4012 43.7783 90.2232 43.282 86.5227C43.1115 85.2511 43.0175 83.9178 43 82.5227H59.1591C59.2955 84.7727 59.8977 86.6477 60.9659 88.1477C62.0341 89.6477 63.5 90.7841 65.3637 91.5568C67.25 92.3295 69.4318 92.7159 71.9091 92.7159C72.9995 92.7159 74.0114 92.6453 74.9448 92.5041C75.957 92.3509 76.8769 92.1147 77.7046 91.7955C79.3182 91.1818 80.5568 90.3296 81.4205 89.2386C82.2841 88.1477 82.7273 86.8977 82.75 85.4886C82.7273 84.1705 82.3182 83.0455 81.5227 82.1136C80.7273 81.1591 79.5 80.3409 77.8409 79.6591C76.2046 78.9545 74.1137 78.3068 71.5682 77.7159L64.2727 76.0114ZM78.7487 85.4918C78.7312 85.0715 78.6187 84.8725 78.4805 84.7107L78.4651 84.6926L78.4499 84.6744C78.2153 84.3928 77.6263 83.8955 76.3205 83.3588L76.2897 83.3462L76.2591 83.333C74.9168 82.7551 73.0738 82.1718 70.6637 81.6123L70.6581 81.611L63.3787 79.9102C63.376 79.9095 63.3733 79.9089 63.3706 79.9083C63.2476 79.8801 63.125 79.8515 63.0028 79.8226L63.1518 82.2807C63.253 83.9508 63.6789 85.0616 64.2242 85.8274C64.8148 86.6569 65.6528 87.3451 66.8879 87.8586C68.2002 88.3947 69.847 88.7159 71.9091 88.7159C73.8439 88.7159 75.2582 88.4518 76.2651 88.0634L76.2739 88.06L76.2828 88.0567C77.3834 87.6381 77.9646 87.1597 78.2843 86.7558C78.5816 86.3803 78.7291 85.9998 78.7487 85.4918ZM58.4673 78.5227C54.1113 77.0334 50.3637 74.9806 47.3312 72.2851L47.3258 72.2803L47.3203 72.2754C42.8763 68.2961 40.7842 62.9437 40.8068 56.6838C40.7835 51.5968 42.1671 46.9781 45.0384 42.9917C47.8481 39.0908 51.6858 36.1334 56.3904 34.0654C61.1138 31.9892 66.3924 31 72.1477 31C77.9992 31 83.2856 31.9947 87.8949 34.1255C92.4911 36.2171 96.199 39.2317 98.8588 43.2077C101.537 47.2105 102.856 51.8028 102.909 56.8445L102.951 60.8864H80.5331C83.7527 61.656 86.694 62.6551 89.3326 63.9055C92.3109 65.3062 94.9133 67.0239 97.0707 69.0971C99.2781 71.1963 100.976 73.6449 102.127 76.424C103.283 79.2141 103.837 82.2558 103.864 85.4902L103.864 85.5168L103.864 85.5433C103.837 90.6428 102.537 95.2464 99.803 99.1641C97.0906 103.051 93.2563 105.914 88.5232 107.84C83.806 109.768 78.2975 110.659 72.1137 110.659C65.8829 110.659 60.2634 109.727 55.3453 107.744C50.3322 105.723 46.2951 102.582 43.4008 98.2951C40.4516 93.927 39.0757 88.6003 39.0003 82.5727L38.9497 78.5227H58.4673ZM79.0668 60.5521L78.7664 57.2485C78.628 55.7253 78.0871 54.8527 77.2713 54.2228L77.249 54.2056L77.227 54.1881C76.421 53.5475 74.9037 52.9432 72.1137 52.9432C70.2465 52.9432 68.9606 53.1908 68.1145 53.5213C67.186 53.884 66.7942 54.2627 66.6213 54.5004L66.6084 54.5182L66.5953 54.5358C66.3905 54.811 66.2693 55.1173 66.2607 55.5941L66.2598 55.6453L66.2576 55.6965C66.2427 56.04 66.2985 56.2005 66.3329 56.2712C66.4743 56.492 66.7172 56.769 67.1513 57.0767C67.7389 57.4519 68.5202 57.8353 69.5386 58.1989C70.6162 58.5838 71.8745 58.9367 73.3268 59.2479L73.351 59.2531L79.0668 60.5521Z" fill="white"/>
</g>
<defs>
<clipPath id="clip0_267_12104">
<rect width="142" height="142" fill="white"/>
</clipPath>
</defs>
</svg>
