<?xml version="1.0" encoding="UTF-8"?>
<svg version="1.1" xmlns="http://www.w3.org/2000/svg" width="100" height="100">
<path d="M0 0 C1.8429792 -0.02398109 1.8429792 -0.02398109 3.72319031 -0.04844666 C5.05739931 -0.05482602 6.39161334 -0.06021792 7.72583008 -0.06469727 C9.10720409 -0.0736756 10.48857718 -0.08279764 11.86994934 -0.09205627 C14.76407219 -0.10852 17.65807978 -0.116241 20.55224609 -0.11914062 C24.23632553 -0.12450776 27.91929978 -0.16212742 31.60306835 -0.20788479 C34.45752268 -0.23783739 37.31171737 -0.24486815 40.16631508 -0.24586678 C42.17691907 -0.25204692 44.1874094 -0.28142801 46.19779968 -0.31138611 C54.95421294 -0.2686197 62.09695805 0.96698878 68.71379089 7.06202698 C76.10837301 14.88051219 76.27499792 22.87820026 76.27661133 33.20092773 C76.28372608 34.55702524 76.29142696 35.91311978 76.29968262 37.26921082 C76.31308383 40.10436375 76.31471669 42.93923845 76.30883789 45.77441406 C76.3029538 49.38227319 76.33349732 52.98878099 76.37395477 56.59637928 C76.39998995 59.3959606 76.40269493 62.19522363 76.39906311 64.99490929 C76.40154815 66.96338185 76.42613336 68.93178738 76.45129395 70.90010071 C76.38509981 79.56390309 75.07735778 86.66828077 69.05236816 93.2134552 C61.23051651 100.60514039 53.23787377 100.77353279 42.91333008 100.77514648 C41.55723258 100.78226123 40.20113803 100.78996212 38.845047 100.79821777 C36.00989406 100.81161898 33.17501936 100.81325184 30.33984375 100.80737305 C26.73198463 100.80148896 23.12547682 100.83203248 19.51787853 100.87248993 C16.71829722 100.89852511 13.91903418 100.90123009 11.11934853 100.89759827 C9.15087596 100.90008331 7.18247043 100.92466852 5.2141571 100.9498291 C-3.44964528 100.88363496 -10.55402296 99.57589294 -17.09919739 93.55090332 C-24.5750596 85.63997587 -24.64900154 77.5605003 -24.62573242 67.12280273 C-24.63030111 65.73949428 -24.63560871 64.35618809 -24.64161682 62.97288513 C-24.65052021 60.08225244 -24.64815685 57.19189643 -24.63818359 54.30126953 C-24.62669805 50.61491901 -24.64691174 46.92952705 -24.67610073 43.24330235 C-24.69453389 40.38891127 -24.69415626 37.53474692 -24.68846321 34.6803112 C-24.68823731 32.6663643 -24.70506772 30.65243847 -24.72227478 28.63856506 C-24.65748247 20.08719723 -23.83680101 14.41397658 -18.00854492 7.84545898 C-16.89286133 6.89799805 -16.89286133 6.89799805 -15.75463867 5.93139648 C-15.01342773 5.28428711 -14.2722168 4.63717773 -13.50854492 3.97045898 C-9.1194667 0.81742809 -5.35791575 0.05288611 0 0 Z " fill="#21BF5B" transform="translate(24.192138671875,-0.306396484375)"/>
<path d="M0 0 C4.86640233 2.3430826 7.39897101 5.2981399 10 10 C10 10.99 10 11.98 10 13 C6.52674819 14.1577506 3.63932552 14.06866652 0 14 C-0.66 12.68 -1.32 11.36 -2 10 C-4.31 10 -6.62 10 -9 10 C-10.88391785 13.26545761 -11.49287967 16.28111761 -12 20 C-11.505 19.67 -11.01 19.34 -10.5 19 C-6.97908582 17.59163433 -3.70550699 17.42056744 0 18 C5.29112204 20.74731337 9.09375244 24.28125733 11 30 C11.53422104 35.96889281 11.53306722 40.93593698 8 46 C3.7874815 50.13388483 0.6657309 52.15894961 -5.25 52.3125 C-10.33937369 52.25927779 -13.12381874 51.49801724 -17 48 C-23.05006625 41.61381896 -23.34199967 35.00290636 -23.3125 26.625 C-23.32861328 25.7175 -23.34472656 24.81 -23.36132812 23.875 C-23.36627624 17.00701124 -22.69912735 11.11602227 -18.02734375 5.72265625 C-17.33769531 5.17480469 -16.64804687 4.62695312 -15.9375 4.0625 C-15.24527344 3.49660156 -14.55304687 2.93070313 -13.83984375 2.34765625 C-9.53491916 -0.80563246 -5.17714481 -0.56550351 0 0 Z " fill="#F6F6F6" transform="translate(75,24)"/>
<path d="M0 0 C2.97 0 5.94 0 9 0 C9 16.83 9 33.66 9 51 C5.7 51 2.4 51 -1 51 C-1.495 33.675 -1.495 33.675 -2 16 C-5.465 18.475 -5.465 18.475 -9 21 C-11.9375 21.8125 -11.9375 21.8125 -14 22 C-14.72295718 18.77955438 -14.94149889 16.18894785 -14 13 C-11.32716508 10.69046303 -8.60830546 9.08724548 -5.50390625 7.41015625 C-2.88946984 6.24550632 -2.88946984 6.24550632 -2 4 C-1.34 4 -0.68 4 0 4 C0 2.68 0 1.36 0 0 Z " fill="#F8F8F8" transform="translate(29,24)"/>
<path d="M0 0 C1.8429792 -0.02398109 1.8429792 -0.02398109 3.72319031 -0.04844666 C5.05739931 -0.05482602 6.39161334 -0.06021792 7.72583008 -0.06469727 C9.10720409 -0.0736756 10.48857718 -0.08279764 11.86994934 -0.09205627 C14.76407219 -0.10852 17.65807978 -0.116241 20.55224609 -0.11914062 C24.23632553 -0.12450776 27.91929978 -0.16212742 31.60306835 -0.20788479 C34.45752268 -0.23783739 37.31171737 -0.24486815 40.16631508 -0.24586678 C42.17691907 -0.25204692 44.1874094 -0.28142801 46.19779968 -0.31138611 C54.95421294 -0.2686197 62.09695805 0.96698878 68.71379089 7.06202698 C76.10837301 14.88051219 76.27499792 22.87820026 76.27661133 33.20092773 C76.28372608 34.55702524 76.29142696 35.91311978 76.29968262 37.26921082 C76.31308383 40.10436375 76.31471669 42.93923845 76.30883789 45.77441406 C76.3029538 49.38227319 76.33349732 52.98878099 76.37395477 56.59637928 C76.39998995 59.3959606 76.40269493 62.19522363 76.39906311 64.99490929 C76.40154815 66.96338185 76.42613336 68.93178738 76.45129395 70.90010071 C76.38509981 79.56390309 75.07735778 86.66828077 69.05236816 93.2134552 C61.23051651 100.60514039 53.23787377 100.77353279 42.91333008 100.77514648 C41.55723258 100.78226123 40.20113803 100.78996212 38.845047 100.79821777 C36.00989406 100.81161898 33.17501936 100.81325184 30.33984375 100.80737305 C26.73198463 100.80148896 23.12547682 100.83203248 19.51787853 100.87248993 C16.71829722 100.89852511 13.91903418 100.90123009 11.11934853 100.89759827 C9.15087596 100.90008331 7.18247043 100.92466852 5.2141571 100.9498291 C-3.44964528 100.88363496 -10.55402296 99.57589294 -17.09919739 93.55090332 C-24.5750596 85.63997587 -24.64900154 77.5605003 -24.62573242 67.12280273 C-24.63030111 65.73949428 -24.63560871 64.35618809 -24.64161682 62.97288513 C-24.65052021 60.08225244 -24.64815685 57.19189643 -24.63818359 54.30126953 C-24.62669805 50.61491901 -24.64691174 46.92952705 -24.67610073 43.24330235 C-24.69453389 40.38891127 -24.69415626 37.53474692 -24.68846321 34.6803112 C-24.68823731 32.6663643 -24.70506772 30.65243847 -24.72227478 28.63856506 C-24.65748247 20.08719723 -23.83680101 14.41397658 -18.00854492 7.84545898 C-16.89286133 6.89799805 -16.89286133 6.89799805 -15.75463867 5.93139648 C-15.01342773 5.28428711 -14.2722168 4.63717773 -13.50854492 3.97045898 C-9.1194667 0.81742809 -5.35791575 0.05288611 0 0 Z M-17.73669434 10.28700256 C-23.25256223 17.94013626 -23.78813038 26.06063353 -23.72338867 35.21655273 C-23.72721558 36.42403671 -23.73104248 37.63152069 -23.73498535 38.87559509 C-23.73769352 41.41446777 -23.73040969 43.95336887 -23.71362305 46.4921875 C-23.69218115 50.36123225 -23.71347418 54.2284241 -23.73901367 58.09741211 C-23.73637057 60.57462972 -23.73124596 63.05184618 -23.72338867 65.52905273 C-23.7314856 66.67616226 -23.73958252 67.82327179 -23.7479248 69.00514221 C-23.63691883 78.58565869 -21.20468521 85.30916351 -15.14526367 92.70092773 C-7.70373112 98.81786749 -0.71387803 98.90934475 8.58129883 98.87280273 C10.55968246 98.8821006 10.55968246 98.8821006 12.57803345 98.8915863 C15.36022512 98.90194812 18.14190403 98.89749235 20.92407227 98.8828125 C24.46358715 98.86565158 28.00147435 98.88910538 31.54080772 98.9243021 C34.28980971 98.94642346 37.03843123 98.94479924 39.78749466 98.93653679 C41.71826683 98.93533421 43.64901614 98.95512501 45.5796814 98.97547913 C53.94581958 98.88771257 61.00974543 97.6083925 67.4168396 91.86378479 C71.87896656 86.84287977 74.1779702 81.74510632 74.21191406 75.06079102 C74.22459824 73.84577911 74.23728241 72.63076721 74.25035095 71.37893677 C74.24741531 70.0788266 74.24447968 68.77871643 74.24145508 67.43920898 C74.24602252 66.07689149 74.25132976 64.7145763 74.25733948 63.3522644 C74.26625119 60.50273252 74.26387075 57.65348116 74.25390625 54.80395508 C74.24243163 51.17025711 74.26261324 47.53753317 74.29182339 43.90396309 C74.31026154 41.09160307 74.30987773 38.27947308 74.30418587 35.46706772 C74.30395994 33.48192959 74.32079134 31.49681284 74.33799744 29.51174927 C74.27400735 21.18080975 73.41005861 15.66451525 67.98364258 9.09936523 C67.36875977 8.56956055 66.75387695 8.03975586 66.12036133 7.49389648 C65.51836914 6.95120117 64.91637695 6.40850586 64.29614258 5.84936523 C56.73296047 1.15947994 48.9484279 0.85010741 40.24926758 0.87280273 C39.06493637 0.86756088 37.88060516 0.86231903 36.66038513 0.85691833 C34.1668272 0.8505222 31.67323899 0.85180372 29.1796875 0.86035156 C25.3852721 0.86886304 21.59236284 0.84006069 17.7980957 0.80834961 C15.36515344 0.8067373 12.93220854 0.8073157 10.49926758 0.81030273 C8.8144503 0.79345177 8.8144503 0.79345177 7.09559631 0.77626038 C-2.59633705 0.86112589 -11.05901711 2.86518446 -17.73669434 10.28700256 Z " fill="#021F0D" transform="translate(24.192138671875,-0.306396484375)"/>
<path d="M0 0 C1.8429792 -0.02398109 1.8429792 -0.02398109 3.72319031 -0.04844666 C5.05739931 -0.05482602 6.39161334 -0.06021792 7.72583008 -0.06469727 C9.10720409 -0.0736756 10.48857718 -0.08279764 11.86994934 -0.09205627 C14.76407219 -0.10852 17.65807978 -0.116241 20.55224609 -0.11914062 C24.23632553 -0.12450776 27.91929978 -0.16212742 31.60306835 -0.20788479 C34.45752268 -0.23783739 37.31171737 -0.24486815 40.16631508 -0.24586678 C42.17691907 -0.25204692 44.1874094 -0.28142801 46.19779968 -0.31138611 C54.95338738 -0.26862373 62.20998744 0.92640382 68.74308777 7.1499176 C72.05827204 10.79180669 74.80786133 14.24460915 74.80786133 19.30639648 C74.14786133 19.30639648 73.48786133 19.30639648 72.80786133 19.30639648 C72.29223633 18.11014648 71.77661133 16.91389648 71.24536133 15.68139648 C68.25864299 9.7810613 64.11686336 5.91399584 57.85449219 3.66552734 C52.02705848 1.828478 46.31460597 1.85697881 40.24926758 1.87280273 C39.06493637 1.86756088 37.88060516 1.86231903 36.66038513 1.85691833 C34.1668272 1.8505222 31.67323899 1.85180372 29.1796875 1.86035156 C25.3852721 1.86886304 21.59236284 1.84006069 17.7980957 1.80834961 C15.36515344 1.8067373 12.93220854 1.8073157 10.49926758 1.81030273 C8.8144503 1.79345177 8.8144503 1.79345177 7.09559631 1.77626038 C-0.9655008 1.84684579 -8.09008915 3.13147685 -14.59448242 8.16577148 C-15.10108398 8.78967773 -15.60768555 9.41358398 -16.12963867 10.05639648 C-16.65428711 10.66999023 -17.17893555 11.28358398 -17.71948242 11.91577148 C-22.4227904 19.55084968 -22.65652987 26.57089801 -22.70385742 35.33764648 C-22.72180862 36.56930542 -22.73975983 37.80096436 -22.758255 39.06994629 C-22.81219328 42.98206212 -22.84620193 46.89405707 -22.87963867 50.80639648 C-22.91120761 53.46790041 -22.94731698 56.12931879 -22.9831543 58.79077148 C-23.06791054 65.29587139 -23.13633012 71.80098726 -23.19213867 78.30639648 C-23.52213867 78.30639648 -23.85213867 78.30639648 -24.19213867 78.30639648 C-24.28514512 70.6216594 -24.35605819 62.93698127 -24.39938736 55.25180817 C-24.42019182 51.6825613 -24.44837636 48.11370175 -24.49389648 44.54467773 C-24.53761267 41.09519182 -24.56132939 37.64607657 -24.57164764 34.19633484 C-24.58254872 32.25100467 -24.61373333 30.30582196 -24.64532471 28.36071777 C-24.6474536 19.90048428 -23.77556707 14.34496516 -18.00854492 7.84545898 C-16.89286133 6.89799805 -16.89286133 6.89799805 -15.75463867 5.93139648 C-15.01342773 5.28428711 -14.2722168 4.63717773 -13.50854492 3.97045898 C-9.1194667 0.81742809 -5.35791575 0.05288611 0 0 Z " fill="#000502" transform="translate(24.192138671875,-0.306396484375)"/>
<path d="M0 0 C4.41403757 2.29589202 7.07347947 5.44147255 9 10 C9.125 12.75 9.125 12.75 9 15 C6.03 15.99 3.06 16.98 0 18 C0.55429688 18.44730469 1.10859375 18.89460938 1.6796875 19.35546875 C2.40414062 19.96003906 3.12859375 20.56460938 3.875 21.1875 C4.59429687 21.77917969 5.31359375 22.37085937 6.0546875 22.98046875 C10.16532174 27.24793442 10.25407415 31.44396622 10.1875 37.1875 C10.18105469 38.41855469 10.17460938 39.64960937 10.16796875 40.91796875 C10 44 10 44 9 46 C8.34 46 7.68 46 7 46 C7.165 45.38125 7.33 44.7625 7.5 44.125 C8.59350854 37.29057162 9.0827225 30.91290844 5 25 C0.50129719 20.94019503 -1.93260805 19.83199209 -8.0234375 19.8984375 C-10.12192113 20.00626472 -12.00469612 20.33489871 -14 21 C-14.23312509 17.65854032 -14.10501612 15.28416126 -12.9375 12.125 C-11 10 -11 10 -7.3125 9.6875 C-6.219375 9.790625 -5.12625 9.89375 -4 10 C-3.34 11.65 -2.68 13.3 -2 15 C1.3 14.67 4.6 14.34 8 14 C5.5502405 8.34670884 3.87675982 4.61189325 -2 2 C-7.86181687 1.18141562 -12.09743067 1.47627829 -17 5 C-17.66 4.67 -18.32 4.34 -19 4 C-13.46230834 -1.06303238 -7.23631163 -1.20605194 0 0 Z " fill="#14522B" transform="translate(77,23)"/>
<path d="M0 0 C3 0.375 3 0.375 6 2.375 C7.53879032 6.01214075 7.56225282 10.50258268 7 14.375 C5.375 16.9375 5.375 16.9375 3 18.375 C-0.0625 18.4375 -0.0625 18.4375 -3 17.375 C-5.5894905 14.52656045 -6.20731973 12.05735938 -6.375 8.3125 C-6 4.375 -6 4.375 -4.875 1.875 C-3 0.375 -3 0.375 0 0 Z " fill="#1F9B4C" transform="translate(69,49.625)"/>
<path d="M0 0 C3.3 0 6.6 0 10 0 C10 17.82 10 35.64 10 54 C6.04 54 2.08 54 -2 54 C-3 53 -3 53 -3.11352539 49.85717773 C-3.11336633 48.46597303 -3.10767506 47.07476239 -3.09765625 45.68359375 C-3.0962413 44.95253922 -3.09482635 44.22148468 -3.09336853 43.46827698 C-3.08775408 41.12464368 -3.07519922 38.78110461 -3.0625 36.4375 C-3.05748686 34.85221492 -3.05292363 33.26692834 -3.04882812 31.68164062 C-3.03777997 27.7877239 -3.02050572 23.89387795 -3 20 C-4.66015625 21.04166667 -6.3203125 22.08333333 -7.98046875 23.125 C-10 24 -10 24 -15 24 C-15 20.37 -15 16.74 -15 13 C-13.68 12.67 -12.36 12.34 -11 12 C-11.66 12.66 -12.32 13.32 -13 14 C-13.46006346 16.20250992 -13.46006346 16.20250992 -13.625 18.625 C-13.69976562 19.44226563 -13.77453125 20.25953125 -13.8515625 21.1015625 C-13.92503906 22.04128906 -13.92503906 22.04128906 -14 23 C-12.39459341 22.21085079 -10.79071984 21.41858235 -9.1875 20.625 C-8.29417969 20.18414062 -7.40085937 19.74328125 -6.48046875 19.2890625 C-3.85443619 17.98133095 -3.85443619 17.98133095 -1 16 C-1 27.88 -1 39.76 -1 52 C2.3 52 5.6 52 9 52 C9 35.17 9 18.34 9 1 C6.03 1 3.06 1 0 1 C0 0.67 0 0.34 0 0 Z " fill="#102A19" transform="translate(29,23)"/>
<path d="M0 0 C0.66 0 1.32 0 2 0 C1.66168282 5.41307486 -1.41854071 9.1720747 -5 13 C-7.49860885 15.03821259 -9.9641444 16.87538143 -13 18 C-15.2421875 17.62109375 -15.2421875 17.62109375 -17 17 C-14 15 -14 15 -12.1328125 13.9921875 C-5.89721519 10.52257499 -3.13068671 6.26137342 0 0 Z " fill="#010D05" transform="translate(97,81)"/>
<path d="M0 0 C0.99 0.33 1.98 0.66 3 1 C4.62813663 4.70031052 4.25419617 9.05995943 4 13 C3.01 13.66 2.02 14.32 1 15 C1.01160156 14.16855469 1.02320312 13.33710937 1.03515625 12.48046875 C1.04417969 11.39378906 1.05320312 10.30710937 1.0625 9.1875 C1.07410156 8.10855469 1.08570312 7.02960937 1.09765625 5.91796875 C1.13624766 2.93487831 1.13624766 2.93487831 0 0 Z " fill="#193F27" transform="translate(72,51)"/>
</svg>
