<svg width="128" height="128" viewBox="0 0 128 128" fill="none" xmlns="http://www.w3.org/2000/svg">
<rect width="128" height="128" fill="#538D4E"/>
<path d="M45.782 30.5455V96H31.9432V43.6811H31.5597L16.5703 53.0774V40.8047L32.7741 30.5455H45.782ZM86.4593 96.8949C83.0929 96.8736 79.8436 96.3089 76.7115 95.201C73.6007 94.093 70.8095 92.2926 68.3379 89.7997C65.8663 87.3068 63.9061 84.0043 62.4572 79.892C61.0297 75.7798 60.3159 70.7301 60.3159 64.7429C60.3372 59.2457 60.9657 54.3345 62.2015 50.0092C63.4586 45.6626 65.2484 41.9766 67.5708 38.951C69.9146 35.9254 72.7164 33.6243 75.9764 32.0476C79.2363 30.4496 82.8904 29.6506 86.9387 29.6506C91.3066 29.6506 95.1632 30.5028 98.5083 32.2074C101.854 33.8906 104.538 36.1811 106.562 39.0788C108.608 41.9766 109.844 45.2259 110.27 48.8267H96.6227C96.09 46.5469 94.9714 44.7571 93.2669 43.4574C91.5623 42.1577 89.4529 41.5078 86.9387 41.5078C82.6774 41.5078 79.4387 43.3615 77.2228 47.0689C75.0282 50.7763 73.9096 55.8153 73.867 62.1861H74.3145C75.2946 60.2472 76.6156 58.5959 78.2775 57.2322C79.9608 55.8473 81.8677 54.7926 83.9984 54.0682C86.1504 53.3224 88.4196 52.9496 90.8059 52.9496C94.6838 52.9496 98.1355 53.8658 101.161 55.6982C104.187 57.5092 106.573 60.0021 108.32 63.1768C110.067 66.3516 110.941 69.9844 110.941 74.0753C110.941 78.5071 109.907 82.4489 107.841 85.9006C105.795 89.3523 102.93 92.0582 99.2434 94.0185C95.5787 95.9574 91.3173 96.9162 86.4593 96.8949ZM86.3954 86.0284C88.5261 86.0284 90.4331 85.517 92.1163 84.4943C93.7995 83.4716 95.1206 82.0866 96.0794 80.3395C97.0382 78.5923 97.5176 76.6321 97.5176 74.4588C97.5176 72.2855 97.0382 70.3359 96.0794 68.6101C95.1419 66.8842 93.8422 65.5099 92.1802 64.4872C90.5183 63.4645 88.622 62.9531 86.4913 62.9531C84.8933 62.9531 83.4125 63.2514 82.0488 63.848C80.7065 64.4446 79.524 65.2756 78.5012 66.3409C77.4998 67.4062 76.7115 68.642 76.1362 70.0483C75.5609 71.4332 75.2733 72.9141 75.2733 74.4908C75.2733 76.6001 75.7527 78.5284 76.7115 80.2756C77.6916 82.0227 79.0126 83.4183 80.6745 84.4624C82.3578 85.5064 84.2647 86.0284 86.3954 86.0284Z" fill="white"/>
</svg>
