<?xml version="1.0" encoding="UTF-8"?>
<svg version="1.1" xmlns="http://www.w3.org/2000/svg" width="189" height="188">
<path d="M0 0 C62.37 0 124.74 0 189 0 C189 62.04 189 124.08 189 188 C126.63 188 64.26 188 0 188 C0 125.96 0 63.92 0 0 Z " fill="#00A6ED" transform="translate(0,0)"/>
<path d="M0 0 C62.37 0 124.74 0 189 0 C189 62.04 189 124.08 189 188 C126.63 188 64.26 188 0 188 C0 125.96 0 63.92 0 0 Z M11.1875 12.3125 C10.64480469 12.84488281 10.10210937 13.37726562 9.54296875 13.92578125 C4.20541714 21.10107214 4.56596355 28.13974859 4.59594727 36.79467773 C4.59023842 38.19158472 4.58327217 39.58848704 4.57514954 40.98538208 C4.55725971 44.76437752 4.55837856 48.54314024 4.56409192 52.32216525 C4.56718983 55.48311683 4.56108465 58.64402411 4.55505317 61.80496937 C4.54102329 69.26495548 4.54255641 76.72482704 4.55395508 84.18481445 C4.56543519 91.8676366 4.55135911 99.55010963 4.5245586 107.23288578 C4.50237094 113.84203937 4.4957711 120.45108362 4.50163502 127.0602718 C4.50499845 131.00196609 4.50263062 134.94343662 4.48538399 138.88509941 C4.46986776 142.59284005 4.47392151 146.30006518 4.49268913 150.0077858 C4.49810614 152.0076758 4.48389661 154.00758921 4.46899414 156.00743103 C4.52728197 163.14427255 5.08630464 167.96152164 9 174 C11.32321702 176.24191401 11.32321702 176.24191401 14 178 C15.0476073 178.88887892 16.08913512 179.78496426 17.125 180.6875 C21.09209385 183.87842332 23.76133691 184.12940956 28.70211792 184.18081665 C30.48495934 184.20238831 30.48495934 184.20238831 32.30381775 184.22439575 C34.26273705 184.24021194 34.26273705 184.24021194 36.26123047 184.25634766 C37.64943246 184.27079936 39.0376313 184.28555706 40.42582703 184.30059814 C53.11924206 184.43105141 65.81353665 184.49679857 78.50749016 184.54844093 C87.8806555 184.58727486 97.25261195 184.65549014 106.62524688 184.76298869 C113.22586049 184.8361173 119.82614593 184.87431953 126.42714798 184.88746679 C130.36347529 184.89629046 134.29830826 184.92019448 138.23418808 184.98213577 C141.94643748 185.03989029 145.65644176 185.05391657 149.36907387 185.03626251 C151.35993093 185.03754305 153.35060964 185.08323207 155.34089661 185.13088989 C165.53040194 185.01518104 171.48830095 181.64716728 179 175 C183.02704513 170.40649286 184.24792698 166.07123689 184.26742554 160.02372742 C184.27595551 158.82519135 184.28448547 157.62665527 184.29327393 156.39179993 C184.29236755 155.08518906 184.29146118 153.77857819 184.29052734 152.43237305 C184.29651491 151.03576295 184.30332098 149.63915617 184.31088257 148.24255371 C184.32852779 144.45522559 184.33323735 140.66798788 184.33451414 136.88062263 C184.33593727 134.51210389 184.34020995 132.14360803 184.34550858 129.77509499 C184.36400478 121.50540334 184.3721798 113.2357761 184.37060547 104.96606445 C184.36940455 97.26852958 184.39049811 89.57127531 184.4220928 81.87381142 C184.44828303 75.25621721 184.4589716 68.63871449 184.45769465 62.02106887 C184.45718577 58.07262255 184.46282749 54.12442562 184.48405075 50.17603111 C184.50347941 46.46013157 184.50352651 42.74471811 184.48901749 39.02880096 C184.48594453 37.02410516 184.50257387 35.01940907 184.51989746 33.01478577 C184.45942142 24.31356782 183.41987439 18.84735868 177.5 12.1875 C171.89450966 7.28269595 167.6483465 4.75715798 160.02372742 4.73257446 C158.82519135 4.72404449 157.62665527 4.71551453 156.39179993 4.70672607 C154.43188362 4.70808563 154.43188362 4.70808563 152.43237305 4.70947266 C151.03576295 4.70348509 149.63915617 4.69667902 148.24255371 4.68911743 C144.45522559 4.67147221 140.66798788 4.66676265 136.88062263 4.66548586 C134.51210389 4.66406273 132.14360803 4.65979005 129.77509499 4.65449142 C121.50540334 4.63599522 113.2357761 4.6278202 104.96606445 4.62939453 C97.26852958 4.63059545 89.57127531 4.60950189 81.87381142 4.5779072 C75.25621721 4.55171697 68.63871449 4.5410284 62.02106887 4.54230535 C58.07262255 4.54281423 54.12442562 4.53717251 50.17603111 4.51594925 C46.46013157 4.49652059 42.74471811 4.49647349 39.02880096 4.51098251 C37.02410516 4.51405547 35.01940907 4.49742613 33.01478577 4.48010254 C24.19111872 4.54142964 17.6111183 5.76384777 11.1875 12.3125 Z " fill="#FEFEFE" transform="translate(0,0)"/>
<path d="M0 0 C3.16106079 3.16106079 3.12446088 6.36076509 3.17700195 10.68920898 C3.19625481 12.07601112 3.19625481 12.07601112 3.21589661 13.49082947 C3.22328354 14.48256668 3.23067047 15.47430389 3.23828125 16.49609375 C3.246353 17.5217897 3.25442474 18.54748566 3.26274109 19.60426331 C3.27655874 21.77204712 3.28729124 23.93985247 3.29516602 26.10766602 C3.31241829 29.42180362 3.35633034 32.73495354 3.40039062 36.04882812 C3.41051467 38.15624268 3.41903168 40.26366569 3.42578125 42.37109375 C3.44328934 43.36080673 3.46079742 44.35051971 3.47883606 45.370224 C3.4649873 49.76161566 3.41649005 52.30146447 1.12963867 56.13696289 C-1 58 -1 58 -3.5 58.4375 C-6.01849143 57.996764 -7.7489377 57.16434257 -10 56 C-10.99 56.495 -10.99 56.495 -12 57 C-18.81001733 57.73338648 -24.64284194 57.76693817 -30.3125 53.6328125 C-35.03224935 49.06601799 -38.09030889 43.41976208 -38.3125 36.8125 C-38.23149148 30.59509633 -36.05729247 26.05729247 -31.6875 21.6875 C-25.15265066 17.58422251 -19.75081297 15.95662133 -12 17 C-11.01 17.66 -10.02 18.32 -9 19 C-9.05220703 17.31970703 -9.05220703 17.31970703 -9.10546875 15.60546875 C-9.13360839 14.13282749 -9.16090837 12.66017002 -9.1875 11.1875 C-9.21263672 10.44951172 -9.23777344 9.71152344 -9.26367188 8.95117188 C-9.33754329 3.50931088 -9.33754329 3.50931088 -7.6796875 1.0078125 C-5.07882891 -0.55270266 -2.95578428 -0.31444514 0 0 Z " fill="#F5FBFE" transform="translate(141,91)"/>
<path d="M0 0 C2.3125 1 2.3125 1 4.3125 4 C4.61241069 6.58885171 4.82115225 9.09149082 4.9375 11.6875 C4.97617188 12.38939453 5.01484375 13.09128906 5.0546875 13.81445312 C5.1487334 15.54254655 5.2316968 17.27123675 5.3125 19 C6.3025 18.67 7.2925 18.34 8.3125 18 C13.61052777 17.61387255 18.51430597 17.44096318 23.3125 20 C23.3125 20.66 23.3125 21.32 23.3125 22 C23.91707031 22.08507812 24.52164063 22.17015625 25.14453125 22.2578125 C27.94883329 23.21784383 28.52993201 24.34295861 30 26.875 C30.41636719 27.57367188 30.83273438 28.27234375 31.26171875 28.9921875 C33.68129626 33.61546944 33.69646503 37.90130158 33.3125 43 C32.3125 46.0625 32.3125 46.0625 31.3125 48 C30.6525 48 29.9925 48 29.3125 48 C29.21710938 48.60457031 29.12171875 49.20914063 29.0234375 49.83203125 C28.15415971 52.4828509 27.22864697 53.15523505 24.9375 54.6875 C24.33164063 55.10386719 23.72578125 55.52023438 23.1015625 55.94921875 C19.66051682 57.9702696 16.77541873 58.13558458 12.875 58.125 C11.45380859 58.12886719 11.45380859 58.12886719 10.00390625 58.1328125 C7.60928964 58.01464564 5.62046884 57.57830654 3.3125 57 C2.8175 57.495 2.8175 57.495 2.3125 58 C-1.0625 58.375 -1.0625 58.375 -4.6875 58 C-8.80183123 53.52110778 -8.15510729 47.90880541 -8.15625 42.1875 C-8.16386353 41.14102295 -8.17147705 40.0945459 -8.17932129 39.01635742 C-8.19010956 36.80747866 -8.19298058 34.59854895 -8.18847656 32.38964844 C-8.18750331 29.01150586 -8.22916086 25.63562785 -8.2734375 22.2578125 C-8.27864398 20.10937973 -8.2813327 17.96093908 -8.28125 15.8125 C-8.29764526 14.80405029 -8.31404053 13.79560059 -8.33093262 12.7565918 C-8.2840453 7.9976304 -8.23341968 5.7317934 -5.31835938 1.82421875 C-2.6875 0 -2.6875 0 0 0 Z " fill="#F5FBFE" transform="translate(112.6875,27)"/>
<path d="M0 0 C2.9375 0.9375 2.9375 0.9375 4.10229492 3.06640625 C5.60485723 8.23160145 5.27026779 13.51397457 5.25317383 18.85742188 C5.25000912 20.93152204 5.27351838 23.00420033 5.29882812 25.078125 C5.29947266 26.39296875 5.30011719 27.7078125 5.30078125 29.0625 C5.30376221 30.26132813 5.30674316 31.46015625 5.30981445 32.6953125 C4.90134532 36.25234205 4.18539227 38.16250013 1.9375 40.9375 C-1.84863423 41.34315724 -4.45326038 41.14057987 -8.0625 39.9375 C-9.0525 40.4325 -9.0525 40.4325 -10.0625 40.9375 C-16.87251733 41.67088648 -22.70534194 41.70443817 -28.375 37.5703125 C-33.05919307 33.03792198 -35.87857403 27.69638956 -36.3125 21.1875 C-36.22067966 15.62726851 -34.38142409 11.55789245 -30.875 7.25 C-24.91075182 2.34606261 -20.12488732 0.46427491 -12.359375 0.69921875 C-10.0625 0.9375 -10.0625 0.9375 -7.953125 1.58203125 C-4.8094339 2.17309714 -3.45947742 -0.07060158 0 0 Z " fill="#F5FBFE" transform="translate(78.0625,44.0625)"/>
<path d="M0 0 C3.22 1.7825 3.22 1.7825 4.5 3.0625 C4.6875 6.5 4.6875 6.5 4.5 10.0625 C2.5 12.0625 2.5 12.0625 -0.5 12.25 C-3.5 12.0625 -3.5 12.0625 -5.5 11.0625 C-10.25935134 10.52619144 -10.25935134 10.52619144 -14.3125 12.5625 C-14.704375 13.0575 -15.09625 13.5525 -15.5 14.0625 C-16.16 14.0625 -16.82 14.0625 -17.5 14.0625 C-17.17581556 17.21833631 -16.68896626 20.1109434 -15.5 23.0625 C-12.3084541 25.45443512 -12.3084541 25.45443512 -8.5 26.0625 C-5.90952023 25.30964403 -5.90952023 25.30964403 -3.5 24.0625 C-0.375 23.625 -0.375 23.625 2.5 24.0625 C4.5 26.25 4.5 26.25 5.5 29.0625 C5.1875 31.625 5.1875 31.625 3.5 34.0625 C-1.41572799 37.90525183 -6.69516801 38.76689722 -12.8203125 38.50390625 C-18.12179448 37.63063006 -21.77597907 35.27234229 -25.06640625 31.0546875 C-28.65153312 25.51867963 -30.17630798 20.73950424 -29.5 14.0625 C-27.3267525 7.31399459 -23.86830612 3.22879831 -17.75 -0.25 C-11.58723679 -3.08811464 -6.07930379 -2.9636606 0 0 Z " fill="#F5FBFE" transform="translate(74.5,109.9375)"/>
<path d="M0 0 C3.38677089 2.45000447 4.78698584 3.86392446 5.5625 8 C4.8491179 11.80470451 3.88381579 13.41196019 1 16 C-2.4375 17.125 -2.4375 17.125 -6 17 C-9.04432626 14.74984581 -10.60677349 13.04860403 -11.9375 9.5 C-12.01335404 6.46583856 -11.43996959 4.66394374 -10 2 C-6.24952518 -0.50031654 -4.44143734 -0.53603554 0 0 Z " fill="#05A7ED" transform="translate(129,57)"/>
<path d="M0 0 C3.72536415 2.61568121 4.83515672 4.0603933 5.625 8.5625 C5 12 5 12 2.75 14.375 C-1.56756757 16.92628993 -1.56756757 16.92628993 -4 17 C-7.89935989 15.44025604 -9.64485515 14.53271727 -12 11 C-12.07905064 8.66800612 -12.08798769 6.33167378 -12 4 C-11.34 4 -10.68 4 -10 4 C-9.67 3.01 -9.34 2.02 -9 1 C-5.86128812 -0.56935594 -3.46144178 -0.35201103 0 0 Z " fill="#05A7ED" transform="translate(66,57)"/>
<path d="M0 0 C2.68601216 1.90848233 3.7337462 3.32549038 4.9375 6.375 C5.02530989 10.06301527 4.08376995 11.97517266 2 15 C-0.8125 16.5625 -0.8125 16.5625 -4 17 C-7.32885891 15.71966965 -9.48220086 14.51779914 -12 12 C-12.33956435 8.99243001 -12.55053953 6.9018021 -12 4 C-8.51708493 -0.22171524 -5.31642554 -0.77329826 0 0 Z " fill="#03A7ED" transform="translate(127,120)"/>
</svg>
