<?xml version="1.0" encoding="UTF-8"?>
<svg version="1.1" xmlns="http://www.w3.org/2000/svg" width="189" height="186">
<path d="M0 0 C62.37 0 124.74 0 189 0 C189 61.38 189 122.76 189 186 C126.63 186 64.26 186 0 186 C0 124.62 0 63.24 0 0 Z " fill="#00A6ED" transform="translate(0,0)"/>
<path d="M0 0 C62.37 0 124.74 0 189 0 C189 61.38 189 122.76 189 186 C126.63 186 64.26 186 0 186 C0 124.62 0 63.24 0 0 Z M15 8 C14.113125 8.53625 13.22625 9.0725 12.3125 9.625 C4.8752157 17.26329198 4.27559388 25.8348988 4.36889648 36.04345703 C4.36374758 37.43095816 4.35645902 38.81845273 4.34721375 40.20593262 C4.32881793 43.9456779 4.34156091 47.68470335 4.36130404 51.42441797 C4.37778398 55.35244122 4.36886504 59.28042221 4.36378479 63.20846558 C4.35927526 69.80038857 4.3750651 76.39202674 4.40307617 82.98388672 C4.43514969 90.59011346 4.4350984 98.19582751 4.4178614 105.80209076 C4.40196605 113.14163293 4.40874742 120.48098826 4.42579842 127.82052231 C4.43264624 130.93439625 4.43166003 134.04811941 4.42425346 137.16199112 C4.4165591 140.83124263 4.42881811 144.49991452 4.45610237 148.16906738 C4.46620594 150.14742741 4.45683751 152.12585728 4.44677734 154.10421753 C4.53848873 162.69090022 5.63826193 168.10746118 11.375 174.75 C17.03467352 179.60114873 21.2672631 182.11652261 28.73576355 182.14717102 C30.52944366 182.15790398 30.52944366 182.15790398 32.35935974 182.16885376 C34.33006187 182.17288712 34.33006187 182.17288712 36.34057617 182.17700195 C37.73688933 182.18326789 39.13320083 182.18991481 40.5295105 182.19691467 C45.11731813 182.21794515 49.70512605 182.22831732 54.29296875 182.23828125 C55.87369619 182.24232943 57.45442345 182.24644637 59.03515053 182.25063133 C66.46327079 182.26968218 73.89138113 182.28391243 81.31952113 182.2922433 C89.88629451 182.30201037 98.45280914 182.32831631 107.01949137 182.36874419 C113.6455266 182.39893753 120.27148779 182.41371529 126.89759046 182.41702431 C130.8527899 182.41937149 134.80771289 182.42828806 138.76283836 182.45348549 C142.48689732 182.47682728 146.21049902 182.48097525 149.93461227 182.47072411 C151.94411392 182.46999548 153.95359266 182.4890445 155.96299744 182.50878906 C164.678224 182.45877034 170.14201452 181.42932043 176.8125 175.5 C181.70307114 169.91077584 184.24273375 165.66556272 184.26742554 158.06169128 C184.27595551 156.87156937 184.28448547 155.68144745 184.29327393 154.45526123 C184.29236755 153.1580011 184.29146118 151.86074097 184.29052734 150.52416992 C184.29651498 149.1374119 184.30332107 147.7506572 184.31088257 146.36390686 C184.32852711 142.60343726 184.33323732 138.84305872 184.33451414 135.08255172 C184.33593731 132.73078389 184.34021007 130.37903909 184.34550858 128.02727699 C184.36400456 119.81593993 184.37217983 111.60466775 184.37060547 103.39331055 C184.36940456 95.75030641 184.39049795 88.10758489 184.4220928 80.46465224 C184.44828377 73.89376668 184.45897157 67.32297325 184.45769465 60.75203592 C184.45718579 56.83153455 184.46282633 52.91128436 184.48405075 48.99083519 C184.50348067 45.30119937 184.50352567 41.61205307 184.48901749 37.92239952 C184.48594482 35.93201692 184.50257301 33.94163403 184.51989746 31.95132446 C184.45919554 23.2784923 183.40070408 17.82579209 177.5 11.1875 C171.89450966 6.28269595 167.6483465 3.75715798 160.02372742 3.73257446 C158.82519135 3.72404449 157.62665527 3.71551453 156.39179993 3.70672607 C154.43188362 3.70808563 154.43188362 3.70808563 152.43237305 3.70947266 C151.03576295 3.70348509 149.63915617 3.69667902 148.24255371 3.68911743 C144.45522559 3.67147221 140.66798788 3.66676265 136.88062263 3.66548586 C134.51210389 3.66406273 132.14360803 3.65979005 129.77509499 3.65449142 C121.50540334 3.63599522 113.2357761 3.6278202 104.96606445 3.62939453 C97.26852958 3.63059545 89.57127531 3.60950189 81.87381142 3.5779072 C75.25621721 3.55171697 68.63871449 3.5410284 62.02106887 3.54230535 C58.07262255 3.54281423 54.12442562 3.53717251 50.17603111 3.51594925 C46.46013157 3.49652059 42.74471811 3.49647349 39.02880096 3.51098251 C37.02410516 3.51405547 35.01940907 3.49742613 33.01478577 3.48010254 C25.83280014 3.53001947 21.1137068 4.15784909 15 8 Z " fill="#FDFEFE" transform="translate(0,0)"/>
<path d="M0 0 C3.95892881 4.19180698 5.33694172 7.85796077 5.6875 13.5625 C5.37303899 23.24527863 -1.35537218 29.07306705 -8.01953125 35.40234375 C-9.94390625 37.12262208 -9.94390625 37.12262208 -10.875 39.25 C-9.89917969 39.21519531 -8.92335938 39.18039063 -7.91796875 39.14453125 C-6.64566406 39.11746094 -5.37335938 39.09039062 -4.0625 39.0625 C-2.79792969 39.02769531 -1.53335938 38.99289063 -0.23046875 38.95703125 C3.125 39.25 3.125 39.25 5.015625 40.609375 C6.56792083 42.90502377 7.05719791 44.47011425 7.125 47.25 C4.96358857 50.12747806 3.74515018 51.14159644 0.1640625 51.76757812 C-0.96257812 51.77208984 -2.08921875 51.77660156 -3.25 51.78125 C-4.48234375 51.78640625 -5.7146875 51.7915625 -6.984375 51.796875 C-8.26828125 51.78140625 -9.5521875 51.7659375 -10.875 51.75 C-12.80085938 51.77320312 -12.80085938 51.77320312 -14.765625 51.796875 C-15.99796875 51.79171875 -17.2303125 51.7865625 -18.5 51.78125 C-20.18996094 51.77448242 -20.18996094 51.77448242 -21.9140625 51.76757812 C-25.52645602 51.13612411 -26.69755139 50.15756467 -28.875 47.25 C-29.55345533 43.85772336 -29.83338668 42.43300544 -28.875 39.25 C-26.53926463 36.21413237 -23.71248201 33.80773026 -20.875 31.25 C-19.06997323 29.29200486 -17.34253986 27.2854512 -15.62109375 25.25390625 C-14.41068515 23.8647796 -13.14798411 22.52018251 -11.84765625 21.21484375 C-8.22480702 17.74584575 -8.22480702 17.74584575 -6.66015625 13.19140625 C-6.91409093 11.04339386 -6.91409093 11.04339386 -7.875 8.25 C-8.968125 8.70375 -10.06125 9.1575 -11.1875 9.625 C-11.80238281 9.88023438 -12.41726562 10.13546875 -13.05078125 10.3984375 C-15.14033932 11.31806692 -15.14033932 11.31806692 -17.875 13.25 C-21 13 -21 13 -23.875 12.25 C-25.53694073 8.92611853 -25.48715938 6.92295631 -24.875 3.25 C-17.24090283 -3.93691156 -9.08387166 -5.52931319 0 0 Z " fill="#F6FCFE" transform="translate(134.875,35.75)"/>
<path d="M0 0 C4.39220948 2.49753088 6.34566949 5.04866465 8.5 9.5625 C9.60842228 14.80231441 9.08335542 19.69073717 7 24.625 C6.731875 25.346875 6.46375 26.06875 6.1875 26.8125 C6.49300781 27.39644531 6.79851562 27.98039062 7.11328125 28.58203125 C9.23953285 32.99690275 8.69329061 38.03630005 8.1875 42.8125 C6.22577158 47.20677166 3.64351913 49.89567338 -0.6875 52.1171875 C-6.35185538 53.9705979 -11.90289764 53.71522112 -17.25 51.1875 C-21.03243175 47.68183155 -23.49958062 44.80736106 -24.3125 39.625 C-23.8125 36.8125 -23.8125 36.8125 -22.125 34.875 C-19.8125 33.8125 -19.8125 33.8125 -17.375 33.75 C-13.66821127 35.28696118 -12.19627657 37.6114286 -9.8125 40.8125 C-7.3375 40.3175 -7.3375 40.3175 -4.8125 39.8125 C-4.4825 37.8325 -4.1525 35.8525 -3.8125 33.8125 C-5.2665625 32.8534375 -5.2665625 32.8534375 -6.75 31.875 C-9.8125 29.8125 -9.8125 29.8125 -10.8125 28.8125 C-11.3125 26.0625 -11.3125 26.0625 -10.8125 22.8125 C-9.09894072 21.35169071 -7.28563275 20.23317405 -5.37890625 19.0390625 C-3.52012479 17.85491613 -3.52012479 17.85491613 -3.25 15.125 C-3.64343987 12.63492883 -3.64343987 12.63492883 -5.8125 10.8125 C-9.12893737 10.98704934 -10.45257503 11.42935406 -12.75 13.875 C-14.8125 15.8125 -14.8125 15.8125 -17.875 16.375 C-20.8125 15.8125 -20.8125 15.8125 -22.8125 13.6875 C-23.8125 10.8125 -23.8125 10.8125 -23.3125 7.75 C-18.55451564 -1.56771938 -9.15161247 -2.85050224 0 0 Z " fill="#F8FCFE" transform="translate(74.8125,99.1875)"/>
<path d="M0 0 C3.35604144 6.71208287 0.09121256 15.34048382 -2 22 C-0.35 22.33 1.3 22.66 3 23 C3.12375 21.88625 3.2475 20.7725 3.375 19.625 C4 16 4 16 6 14 C9.07108055 13.6732893 11.15050101 13.51861724 13.875 15.0625 C15.58196395 18.00227124 15.18799766 20.67870803 15 24 C16.32 24.66 17.64 25.32 19 26 C19 28.31 19 30.62 19 33 C17.02 33.495 17.02 33.495 15 34 C15.05220703 35.68029297 15.05220703 35.68029297 15.10546875 37.39453125 C15.13360839 38.86717251 15.16090837 40.33982998 15.1875 41.8125 C15.21263672 42.55048828 15.23777344 43.28847656 15.26367188 44.04882812 C15.33758977 49.49411326 15.33758977 49.49411326 13.67578125 51.984375 C11.0044351 53.60337267 9.03946708 53.44325562 6 53 C3.38679058 50.54516691 3.01332994 49.15711559 2.70703125 45.546875 C2.74183594 44.29390625 2.77664062 43.0409375 2.8125 41.75 C2.83957031 40.48671875 2.86664063 39.2234375 2.89453125 37.921875 C2.92933594 36.95765625 2.96414062 35.9934375 3 35 C1.31970703 35.05220703 1.31970703 35.05220703 -0.39453125 35.10546875 C-1.86717251 35.13360839 -3.33982998 35.16090837 -4.8125 35.1875 C-5.55048828 35.21263672 -6.28847656 35.23777344 -7.04882812 35.26367188 C-12.45976482 35.3371235 -12.45976482 35.3371235 -15.015625 33.7421875 C-18.18658351 28.13009427 -14.36003132 18.61549978 -13.0625 12.625 C-12.89290771 11.83988037 -12.72331543 11.05476074 -12.54858398 10.24584961 C-10.88151513 2.87761137 -10.88151513 2.87761137 -9 0 C-5.88173308 -1.55913346 -3.32926126 -0.66585225 0 0 Z " fill="#F6FBFE" transform="translate(121,99)"/>
<path d="M0 0 C1.60788718 1.60788718 1.14345237 3.33912393 1.16113281 5.56396484 C1.17074036 6.53522308 1.1803479 7.50648132 1.19024658 8.50717163 C1.19449646 9.56441437 1.19874634 10.6216571 1.203125 11.7109375 C1.20882507 12.79001373 1.21452515 13.86908997 1.22039795 14.98086548 C1.22986463 17.26913467 1.23638852 19.55741759 1.24023438 21.84570312 C1.24993942 25.35310577 1.28094743 28.85992257 1.3125 32.3671875 C1.31902967 34.585934 1.32428028 36.80468472 1.328125 39.0234375 C1.3404718 40.07663177 1.3528186 41.12982605 1.36553955 42.2149353 C1.36253845 43.19249786 1.35953735 44.17006042 1.35644531 45.17724609 C1.36009094 46.03804779 1.36373657 46.89884949 1.36749268 47.78573608 C1 50 1 50 -0.29571533 51.81314087 C-2 53 -2 53 -5.625 52.8125 C-6.73875 52.544375 -7.8525 52.27625 -9 52 C-10.48679725 49.02640551 -10.11112605 46.33700821 -10.09765625 43.0234375 C-10.0962413 42.33819 -10.09482635 41.6529425 -10.09336853 40.94692993 C-10.08776675 38.75624239 -10.07521406 36.5656567 -10.0625 34.375 C-10.05748522 32.89062648 -10.05292228 31.40625135 -10.04882812 29.921875 C-10.03779677 26.28121685 -10.02053099 22.64061836 -10 19 C-10.99 19.66 -11.98 20.32 -13 21 C-15.5 21.4375 -15.5 21.4375 -18 21 C-20.11377651 18.5339274 -21.02715696 16.99292627 -20.9375 13.71484375 C-19.58482915 9.79773442 -17.08001979 7.57353179 -14.125 4.75 C-13.58230469 4.20859375 -13.03960937 3.6671875 -12.48046875 3.109375 C-7.94052564 -1.33066717 -5.86678773 -2.77900472 0 0 Z " fill="#FAFDFE" transform="translate(73,34)"/>
</svg>
