<?xml version="1.0" encoding="UTF-8"?>
<svg version="1.1" xmlns="http://www.w3.org/2000/svg" width="256" height="276">
<path d="M0 0 C8.53495944 6.01644682 16.15379766 12.67606031 20.3125 22.375 C21.82388601 25.07717499 22.93374823 26.64024508 25.92041016 27.64794922 C29.99049122 28.50179389 34.09636966 28.92551009 38.2265625 29.37890625 C44.39026027 30.07762012 49.53811059 32.10234065 55 35 C56.36125 35.72123047 56.36125 35.72123047 57.75 36.45703125 C72.86126945 45.27909339 84.38589779 59.46532476 89.61083984 76.20727539 C93.64441812 91.68508635 92.83556439 109.95605805 85.328125 124.1640625 C83.69899335 126.90357552 83.69899335 126.90357552 84.5625 129.6875 C85.036875 130.780625 85.51125 131.87375 86 133 C86.69733522 134.87136443 87.38402297 136.74671616 88.0625 138.625 C88.40410156 139.54539063 88.74570313 140.46578125 89.09765625 141.4140625 C94.71212293 157.50400598 91.82319564 176.76455714 84.6484375 191.83984375 C81.05896642 198.34701339 76.17887367 203.71685371 71 209 C70.33484375 209.70125 69.6696875 210.4025 68.984375 211.125 C58.39648074 221.4704234 42.9056878 228.02492527 28.125 228 C25.95476569 228.08687585 25.95476569 228.08687585 24 229 C21.9176502 231.50518503 20.39442717 234.12381918 18.7890625 236.95703125 C10.16526831 251.62501308 -4.75826957 260.27081839 -20.62890625 265.10546875 C-37.57657798 269.16866454 -56.49380402 266.43838474 -71.4140625 257.6875 C-80.77478816 251.5789902 -90.9732684 243.84037744 -94.875 233.0625 C-95.88361594 230.70602766 -95.88361594 230.70602766 -98 229 C-102.58621939 227.53677192 -107.42933896 227.20452929 -112.19140625 226.65625 C-126.09875887 224.9859577 -140.24023114 215.99965592 -149.21484375 205.37890625 C-159.92664977 191.67278507 -165.60242173 178.07318227 -165.4375 160.625 C-165.43210205 159.52953857 -165.4267041 158.43407715 -165.42114258 157.30541992 C-165.24396909 147.8802104 -163.76885021 140.24011372 -159.328125 131.8359375 C-157.69899335 129.09642448 -157.69899335 129.09642448 -158.5625 126.3125 C-159.036875 125.219375 -159.51125 124.12625 -160 123 C-160.69733522 121.12863557 -161.38402297 119.25328384 -162.0625 117.375 C-162.40410156 116.45460938 -162.74570313 115.53421875 -163.09765625 114.5859375 C-167.76477782 101.21089647 -166.82170981 82.85854286 -161 70 C-160.36384766 68.48986328 -160.36384766 68.48986328 -159.71484375 66.94921875 C-151.70225563 49.38401861 -137.6183856 38.045621 -120 31 C-114.00313673 29.11378487 -108.33855186 28.00026052 -102.0625 27.9375 C-99.90132469 27.8327869 -99.90132469 27.8327869 -98 27 C-96.21833778 24.78571484 -95.01177063 22.4709411 -93.6953125 19.953125 C-85.19600978 5.14788801 -69.94807345 -4.08615068 -54 -9 C-35.59284155 -13.22882661 -15.77421146 -10.30201141 0 0 Z " fill="#F37B10" transform="translate(165,10)"/>
<path d="M0 0 C16.70251105 -1.1930365 32.89312507 5.78219706 45.38671875 16.50390625 C51.80221488 22.63171197 56.74495678 28.76067185 60 37 C59.02160156 37.21914062 58.04320313 37.43828125 57.03515625 37.6640625 C48.98840136 39.57046754 42.53418346 41.70916319 36 47 C35.17242187 47.598125 34.34484375 48.19625 33.4921875 48.8125 C30.65699352 51.30107152 29.10172112 53.72261748 27.25 57 C26.65703125 58.03125 26.0640625 59.0625 25.453125 60.125 C21.41341878 68.11753703 21.59885322 79.53211012 23.80078125 88.125 C29.26696367 100.1468445 41.25611265 106.24967158 53.04882812 110.78857422 C55.13344958 111.55595238 57.22175301 112.31198173 59.3125 113.0625 C66.52560998 115.65691498 72.82090298 118.53189415 78.0625 124.25 C79.77530259 129.27422093 80.11589121 134.31359524 78.05078125 139.28515625 C75.4365069 143.69725965 72.26811253 147.92965747 67.2109375 149.5859375 C60.42542983 150.85672162 52.27716124 150.90609317 46 148 C40.41682882 143.70592295 35.47645196 139.1628012 32 133 C29.64002661 134.97467162 27.31119834 136.96935175 25 139 C24.32066406 139.5878125 23.64132813 140.175625 22.94140625 140.78125 C22.30074219 141.3690625 21.66007812 141.956875 21 142.5625 C20.401875 143.10003906 19.80375 143.63757813 19.1875 144.19140625 C17.76951411 145.97544649 17.76951411 145.97544649 18.06640625 148.41015625 C21.37238689 157.5811402 31.68139242 164.90912878 40.1640625 169.05859375 C53.93368643 174.61429143 69.2889699 172.59753251 82.75 167.25 C92.80224782 162.43291922 99.62571566 153.68253506 103.38208008 143.31225586 C104.55061429 138.93960177 104.57879819 134.50336069 104.6875 130 C104.72166016 129.03449219 104.75582031 128.06898438 104.79101562 127.07421875 C104.87272699 124.71626218 104.94212119 122.35864137 105 120 C117.70689219 130.32663861 125.71938615 144.69856885 128 161 C128.77128466 172.40489775 127.30922987 182.12681614 124 193 C123.72285156 193.99902344 123.44570312 194.99804688 123.16015625 196.02734375 C118.4523456 211.14874479 106.00393425 222.82691747 92.43237305 230.31542969 C76.91140182 238.4039689 58.14025164 239.82346184 41.1875 235.375 C26.71106729 230.35650333 14.24356088 221.2491359 5 209 C4.35095581 207.36349947 3.72426771 205.71787626 3.125 204.0625 C2.11638406 201.70602766 2.11638406 201.70602766 0 200 C-4.58621939 198.53677192 -9.42933896 198.20452929 -14.19140625 197.65625 C-28.09875887 195.9859577 -42.24023114 186.99965592 -51.21484375 176.37890625 C-61.9260695 162.67352755 -67.60373237 149.07269618 -67.4375 131.625 C-67.43137695 130.52808838 -67.42525391 129.43117676 -67.41894531 128.30102539 C-67.26274652 120.20692422 -66.3467779 113.44629132 -63 106 C-62.54947266 104.89591797 -62.54947266 104.89591797 -62.08984375 103.76953125 C-54.85282979 87.57240477 -39.38151859 74.62190451 -23.25 68.125 C-14.0810714 64.8465437 -5.65911595 64.87942851 4 65 C3.68546875 64.41734375 3.3709375 63.8346875 3.046875 63.234375 C-6.4204715 45.09813292 -8.84522087 26.67375096 -3.0703125 7.0390625 C-2.19597459 4.5564534 -1.2598828 2.30410999 0 0 Z " fill="#3641A4" transform="translate(67,39)"/>
<path d="M0 0 C10.14881771 7.15408461 18.42165204 15.82217397 24 27 C24 27.66 24 28.32 24 29 C22.94683594 29.07476562 21.89367187 29.14953125 20.80859375 29.2265625 C2.87497498 30.75313981 -12.9415339 37.04220301 -25.4375 50.4375 C-29.19060198 54.94759707 -32.17277978 59.87030877 -35 65 C-33.22496094 65.36351563 -33.22496094 65.36351563 -31.4140625 65.734375 C-18.1931732 68.50645181 -7.91574836 71.73190125 3 80 C1.4805627 84.8603687 -1.32918654 88.06079356 -4.625 91.8125 C-5.140625 92.40998047 -5.65625 93.00746094 -6.1875 93.62304688 C-7.45246272 95.08712409 -8.72543834 96.54427155 -10 98 C-12.42478454 96.85623371 -14.15837186 95.85972779 -16.1875 94.0625 C-22.29532869 89.58342562 -29.50334853 87.96549044 -37 89 C-41.66402594 90.70416332 -45.07804864 92.96083194 -48 97 C-48.7079563 100.46556029 -48.91058361 103.57192054 -48 107 C-44.2212629 111.89231384 -39.77069993 113.66261168 -34.1875 115.8125 C-32.48537997 116.50126944 -30.78488083 117.19405662 -29.0859375 117.890625 C-28.23483398 118.23931641 -27.38373047 118.58800781 -26.50683594 118.94726562 C-13.34351224 124.47514367 0.11518243 130.72867182 6.10546875 144.55078125 C8.88796762 155.27980529 8.74549117 169.51965189 3.68359375 179.45703125 C0.58656377 184.13491181 -2.92896089 188.14882537 -7 192 C-7.55429688 192.52464844 -8.10859375 193.04929688 -8.6796875 193.58984375 C-18.40409845 201.54837908 -33.0009392 202.53266859 -45 202 C-59.94377167 200.49703446 -69.46995849 191.89557751 -79.4140625 181.46875 C-81 179 -81 179 -81.16015625 176.61328125 C-79.40784621 172.66615864 -76.54553057 170.12522752 -73.4375 167.1875 C-72.82197266 166.59001953 -72.20644531 165.99253906 -71.57226562 165.37695312 C-70.05706751 163.9087379 -68.52969562 162.45310447 -67 161 C-64.38354532 163.55932684 -61.96495833 166.18765572 -59.625 169 C-54.48680877 174.89574507 -49.93513415 177.65037197 -42.1328125 178.203125 C-35.95379421 178.29942139 -31.34701665 178.23048922 -26 175 C-22.00234432 170.78625482 -19.71608214 166.97247331 -19.625 161.125 C-19.78355086 156.20992338 -20.41009478 153.58990522 -24 150 C-30.57759627 145.86391828 -37.82576772 143.27957019 -45.0625 140.5625 C-56.59737269 136.206481 -68.17448962 130.34348724 -74.4375 119.1875 C-77.78031087 110.76535314 -77.50143228 98.89978914 -74.4375 90.4375 C-69.36779805 80.15678037 -61.51283208 72.43831216 -50.8125 68.125 C-47.12778551 67.0377072 -43.80554449 66.39641088 -40 66 C-40 59.30932783 -46.68698321 52.70840098 -51.02734375 47.91015625 C-63.70532996 35.63384881 -80.71480313 30.23465692 -98 29 C-98.45947234 30.66635302 -98.91750895 32.33310193 -99.375 34 C-99.63023438 34.928125 -99.88546875 35.85625 -100.1484375 36.8125 C-100.42945312 37.864375 -100.71046875 38.91625 -101 40 C-101.35707031 41.26328125 -101.71414062 42.5265625 -102.08203125 43.828125 C-103.150606 48.15585273 -103.34520609 52.30581998 -103.3125 56.75 C-103.30831055 57.53568359 -103.30412109 58.32136719 -103.29980469 59.13085938 C-103.087143 70.18021786 -100.18483498 81.72274752 -94 91 C-94 91.99 -94 92.98 -94 94 C-94.56807373 94.03440186 -95.13614746 94.06880371 -95.72143555 94.10424805 C-118.82471929 95.61052703 -134.66597777 102.28537346 -150.62841797 119.39892578 C-152.67707926 121.79036771 -154.33390442 124.33023239 -156 127 C-156.99 126.67 -157.98 126.34 -159 126 C-160.02259035 123.71542676 -160.85410221 121.55491758 -161.625 119.1875 C-162.26308594 117.32158203 -162.26308594 117.32158203 -162.9140625 115.41796875 C-167.3559134 101.43732294 -167.08283049 83.43528603 -161 70 C-160.36384766 68.48986328 -160.36384766 68.48986328 -159.71484375 66.94921875 C-151.70225563 49.38401861 -137.6183856 38.045621 -120 31 C-114.00313673 29.11378487 -108.33855186 28.00026052 -102.0625 27.9375 C-99.90132469 27.8327869 -99.90132469 27.8327869 -98 27 C-96.21833778 24.78571484 -95.01177063 22.4709411 -93.6953125 19.953125 C-85.19600978 5.14788801 -69.94807345 -4.08615068 -54 -9 C-35.59284155 -13.22882661 -15.77421146 -10.30201141 0 0 Z " fill="#DB6F74" transform="translate(165,10)"/>
<path d="M0 0 C2.578125 0.63671875 2.578125 0.63671875 6 2 C6.72509766 2.2779541 7.45019531 2.5559082 8.19726562 2.84228516 C36.94703436 13.89406873 36.94703436 13.89406873 41 22 C41.83267114 28.39967249 41.20731745 33.02631459 37.4296875 38.30859375 C34.37858137 41.91823571 31.64096221 44.13084453 27 45 C17.32972385 45.58649066 10.34389024 45.27281978 2.8125 38.75 C-0.73629038 35.4064669 -3.60777682 32.24075927 -6 28 C-8.35997339 29.97467162 -10.68880166 31.96935175 -13 34 C-14.01900391 34.88171875 -14.01900391 34.88171875 -15.05859375 35.78125 C-16.01958984 36.66296875 -16.01958984 36.66296875 -17 37.5625 C-17.598125 38.10003906 -18.19625 38.63757813 -18.8125 39.19140625 C-20.23048589 40.97544649 -20.23048589 40.97544649 -19.93359375 43.41015625 C-16.62761311 52.5811402 -6.31860758 59.90912878 2.1640625 64.05859375 C15.93368643 69.61429143 31.2889699 67.59753251 44.75 62.25 C54.80224782 57.43291922 61.62571566 48.68253506 65.38208008 38.31225586 C66.55061429 33.93960177 66.57879819 29.50336069 66.6875 25 C66.72166016 24.03449219 66.75582031 23.06898438 66.79101562 22.07421875 C66.87272699 19.71626218 66.94212119 17.35864137 67 15 C79.70689219 25.32663861 87.71938615 39.69856885 90 56 C90.77128466 67.40489775 89.30922987 77.12681614 86 88 C85.72285156 88.99902344 85.44570312 89.99804688 85.16015625 91.02734375 C80.4523456 106.14874479 68.00393425 117.82691747 54.43237305 125.31542969 C38.91140182 133.4039689 20.14025164 134.82346184 3.1875 130.375 C-12.50256751 124.9357766 -27.88140658 114.10666049 -35.8125 99.1875 C-38.06691391 94.27443245 -39.61984917 89.17065462 -41.10546875 83.98046875 C-41.89563036 81.06603866 -41.89563036 81.06603866 -43.08984375 78.734375 C-47.66682335 64.98379252 -43.54605717 47.92610828 -37.375 35.4375 C-36.97023438 34.69371094 -36.56546875 33.94992188 -36.1484375 33.18359375 C-34.92962691 30.9687101 -34.92962691 30.9687101 -33.98828125 28.375 C-31.86368307 23.26924627 -26.83021923 19.95180756 -22.671875 16.46875 C-20.82698081 14.90571584 -20.82698081 14.90571584 -18.75 12.5 C-14.8545669 8.95869718 -8.47267902 4 -3 4 C-3 3.34 -3 2.68 -3 2 C-2.01 1.34 -1.02 0.68 0 0 Z " fill="#57AD4E" transform="translate(105,144)"/>
<path d="M0 0 C14.61297099 -1.04378364 29.22938488 4.20087761 40.7109375 13.1015625 C43.24916521 15.31177309 45.63430377 17.6066579 48 20 C48.78246094 20.76054688 49.56492188 21.52109375 50.37109375 22.3046875 C62.45451913 34.73451799 67.59924633 50.26276447 67.4375 67.375 C67.43210205 68.47046143 67.4267041 69.56592285 67.42114258 70.69458008 C67.24396909 80.1197896 65.76885021 87.75988628 61.328125 96.1640625 C59.69899335 98.90357552 59.69899335 98.90357552 60.5625 101.6875 C61.036875 102.780625 61.51125 103.87375 62 105 C62.69733522 106.87136443 63.38402297 108.74671616 64.0625 110.625 C64.40410156 111.54539062 64.74570313 112.46578125 65.09765625 113.4140625 C70.71212293 129.50400598 67.82319564 148.76455714 60.6484375 163.83984375 C57.05896642 170.34701339 52.17887367 175.71685371 47 181 C46.33484375 181.70125 45.6696875 182.4025 44.984375 183.125 C34.27579918 193.58834126 18.62571509 200.07115876 3.6875 200.1875 C2.470625 200.125625 1.25375 200.06375 0 200 C0.57040599 196.09722219 1.42518591 192.38663122 2.51147461 188.59667969 C7.09840575 172.18371741 5.89627496 156.29119912 -2 141 C-2.99477045 139.33020674 -3.99260254 137.66220581 -5 136 C-5 135.34 -5 134.68 -5 134 C-4.030625 133.98582031 -3.06125 133.97164062 -2.0625 133.95703125 C18.21179492 133.36193038 35.53232216 126.39051108 49.6953125 111.7109375 C54.61884942 106.10433553 54.61884942 106.10433553 56.0625 99.0625 C54.77176823 92.2437857 50.35841298 88.05501523 45 84 C44.34 83.01 43.68 82.02 43 81 C41.0533929 79.78581167 41.0533929 79.78581167 38.875 78.8125 C38.15054688 78.46832031 37.42609375 78.12414062 36.6796875 77.76953125 C36.12539062 77.51558594 35.57109375 77.26164062 35 77 C35 76.34 35 75.68 35 75 C34.13375 74.731875 33.2675 74.46375 32.375 74.1875 C29 73 29 73 26.0625 71.5 C19.25114643 68.16382682 12.53320568 67.49798434 5.0625 66.875 C4.09248047 66.78863281 3.12246094 66.70226562 2.12304688 66.61328125 C-0.25084011 66.40278881 -2.62508706 66.19852115 -5 66 C-4.61328125 65.25878906 -4.2265625 64.51757812 -3.828125 63.75390625 C5.73447986 44.4156682 7.13604606 26.47858927 1.09375 5.82421875 C0 2 0 2 0 0 Z " fill="#F49346" transform="translate(189,38)"/>
<path d="M0 0 C1.01795654 0.00757324 2.03591309 0.01514648 3.0847168 0.02294922 C17.10583773 0.32909211 27.70134175 4.94666025 38.8125 13.4375 C37.2930627 18.2978687 34.48331346 21.49829356 31.1875 25.25 C30.671875 25.84748047 30.15625 26.44496094 29.625 27.06054688 C28.36003728 28.52462409 27.08706166 29.98177155 25.8125 31.4375 C23.38771546 30.29373371 21.65412814 29.29722779 19.625 27.5 C13.51717131 23.02092562 6.30915147 21.40299044 -1.1875 22.4375 C-5.85152594 24.14166332 -9.26554864 26.39833194 -12.1875 30.4375 C-12.8954563 33.90306029 -13.09808361 37.00942054 -12.1875 40.4375 C-8.4087629 45.32981384 -3.95819993 47.10011168 1.625 49.25 C3.32712003 49.93876944 5.02761917 50.63155662 6.7265625 51.328125 C7.57766602 51.67681641 8.42876953 52.02550781 9.30566406 52.38476562 C22.46898776 57.91264367 35.92768243 64.16617182 41.91796875 77.98828125 C44.70046762 88.71730529 44.55799117 102.95715189 39.49609375 112.89453125 C36.39906377 117.57241181 32.88353911 121.58632537 28.8125 125.4375 C28.25820312 125.96214844 27.70390625 126.48679687 27.1328125 127.02734375 C17.40840155 134.98587908 2.8115608 135.97016859 -9.1875 135.4375 C-24.13127167 133.93453446 -33.65745849 125.33307751 -43.6015625 114.90625 C-45.1875 112.4375 -45.1875 112.4375 -45.34765625 110.05078125 C-43.59534621 106.10365864 -40.73303057 103.56272752 -37.625 100.625 C-37.00947266 100.02751953 -36.39394531 99.43003906 -35.75976562 98.81445312 C-34.24456751 97.3462379 -32.71719562 95.89060447 -31.1875 94.4375 C-28.57104532 96.99682684 -26.15245833 99.62515572 -23.8125 102.4375 C-18.67430877 108.33324507 -14.12263415 111.08787197 -6.3203125 111.640625 C-0.14129421 111.73692139 4.46548335 111.66798922 9.8125 108.4375 C13.81015568 104.22375482 16.09641786 100.40997331 16.1875 94.5625 C16.02894914 89.64742338 15.40240522 87.02740522 11.8125 83.4375 C5.23490373 79.30141828 -2.01326772 76.71707019 -9.25 74 C-20.78487269 69.643981 -32.36198962 63.78098724 -38.625 52.625 C-41.96781087 44.20285314 -41.68893228 32.33728914 -38.625 23.875 C-33.3048128 13.0863277 -24.90609253 5.1006899 -13.48754883 1.02636719 C-9.03648621 -0.11321068 -4.5700962 -0.0474053 0 0 Z " fill="#FBFBF9" transform="translate(129.1875,76.5625)"/>
<path d="M0 0 C2.578125 0.63671875 2.578125 0.63671875 6 2 C6.72509766 2.2779541 7.45019531 2.5559082 8.19726562 2.84228516 C36.94703436 13.89406873 36.94703436 13.89406873 41 22 C41.83267114 28.39967249 41.20731745 33.02631459 37.4296875 38.30859375 C34.37858137 41.91823571 31.64096221 44.13084453 27 45 C17.32972385 45.58649066 10.34389024 45.27281978 2.8125 38.75 C-0.73629038 35.4064669 -3.60777682 32.24075927 -6 28 C-8.35997339 29.97467162 -10.68880166 31.96935175 -13 34 C-14.01900391 34.88171875 -14.01900391 34.88171875 -15.05859375 35.78125 C-16.01958984 36.66296875 -16.01958984 36.66296875 -17 37.5625 C-17.598125 38.10003906 -18.19625 38.63757813 -18.8125 39.19140625 C-20.23048589 40.97544649 -20.23048589 40.97544649 -19.93359375 43.41015625 C-16.9013897 51.82166791 -7.69350686 58.91485622 0 63 C4.2750089 64.59720399 8.5765586 65.88373971 13 67 C13 70.49550039 12.06548283 71.69046865 9.8046875 74.2578125 C-2.83974289 86.46434054 -18.62740165 93.21700177 -36.05859375 93.03515625 C-36.69925781 93.02355469 -37.33992188 93.01195312 -38 93 C-42.09660195 84.02649098 -44.55332649 75.67308683 -44.4375 65.75 C-44.43065186 64.83758545 -44.42380371 63.9251709 -44.41674805 62.98510742 C-44.16113715 52.12212297 -41.35539031 42.7517841 -36.1484375 33.18359375 C-34.92962691 30.9687101 -34.92962691 30.9687101 -33.98828125 28.375 C-31.86368307 23.26924627 -26.83021923 19.95180756 -22.671875 16.46875 C-20.82698081 14.90571584 -20.82698081 14.90571584 -18.75 12.5 C-14.8545669 8.95869718 -8.47267902 4 -3 4 C-3 3.34 -3 2.68 -3 2 C-2.01 1.34 -1.02 0.68 0 0 Z " fill="#215A40" transform="translate(105,144)"/>
<path d="M0 0 C0.66 0 1.32 0 2 0 C2.80063104 1.66237896 3.59000368 3.33018125 4.375 5 C4.81585938 5.928125 5.25671875 6.85625 5.7109375 7.8125 C11.68828224 22.59284336 11.27224809 41.88877837 5.4765625 56.69140625 C1.39007368 65.84816823 -3.98989837 72.84875538 -11 80 C-11.66515625 80.70125 -12.3303125 81.4025 -13.015625 82.125 C-23.72420082 92.58834126 -39.37428491 99.07115876 -54.3125 99.1875 C-55.529375 99.125625 -56.74625 99.06375 -58 99 C-57.42959401 95.09722219 -56.57481409 91.38663122 -55.48852539 87.59667969 C-50.90159425 71.18371741 -52.10372504 55.29119912 -60 40 C-60.99477045 38.33020674 -61.99260254 36.66220581 -63 35 C-63 34.34 -63 33.68 -63 33 C-61.5459375 32.97873047 -61.5459375 32.97873047 -60.0625 32.95703125 C-39.87699287 32.36453652 -22.34651751 25.48152144 -8.34765625 10.69921875 C-5.74482546 7.70661296 -3.34061408 4.64975201 -1.12109375 1.36328125 C-0.75113281 0.91339844 -0.38117188 0.46351563 0 0 Z " fill="#FDD637" transform="translate(247,139)"/>
<path d="M0 0 C3.44011492 1.42529707 5.03779409 3.05291172 7.1875 6.0625 C18.35517123 20.7642444 31.77903967 29.24239683 50 32 C54.99018086 32.58093301 59.97823738 32.85569648 65 33 C63.8566645 35.95951889 62.65040686 38.64092076 61.125 41.4375 C54.18204281 55.53222512 52.00041232 72.50332584 56.74829102 87.66430664 C57.73918405 90.48324462 58.84286117 93.2456302 60 96 C60.33 96.99 60.66 97.98 61 99 C44.42762652 100.4341477 29.17091523 93.70479571 16.25 83.8125 C3.80934613 73.12838678 -5.65099826 57.49547454 -7.30175781 40.98120117 C-7.43609523 37.85586614 -7.46706623 34.75301129 -7.4375 31.625 C-7.43210205 30.52953857 -7.4267041 29.43407715 -7.42114258 28.30541992 C-7.22012241 17.61162363 -4.86979504 9.53028656 0 0 Z " fill="#5E83CF" transform="translate(7,139)"/>
<path d="M0 0 C-0.49737383 2.79052894 -1.13207216 5.42591945 -1.97265625 8.13671875 C-7.44615625 25.96973488 -5.94346273 43.05180218 2 60 C2.66 60.99 3.32 61.98 4 63 C4 63.99 4 64.98 4 66 C3.43192627 66.03440186 2.86385254 66.06880371 2.27856445 66.10424805 C-20.82471929 67.61052703 -36.66597777 74.28537346 -52.62841797 91.39892578 C-54.67707926 93.79036771 -56.33390442 96.33023239 -58 99 C-58.99 98.67 -59.98 98.34 -61 98 C-62.02259035 95.71542676 -62.85410221 93.55491758 -63.625 91.1875 C-64.26308594 89.32158203 -64.26308594 89.32158203 -64.9140625 87.41796875 C-69.3559134 73.43732294 -69.08283049 55.43528603 -63 42 C-62.36384766 40.48986328 -62.36384766 40.48986328 -61.71484375 38.94921875 C-53.6909519 21.35923857 -39.61654787 10.08387992 -22 3 C-14.63030523 0.61004476 -7.72438928 -0.39276556 0 0 Z " fill="#947FCD" transform="translate(67,38)"/>
<path d="M0 0 C7.76906502 15.90808552 7.77802258 33.31045072 2.68896484 50.00146484 C-0.27241011 58.59176086 -6.64630182 71.84026141 -15.17578125 76.08203125 C-17.36316651 76.9140165 -17.36316651 76.9140165 -18 80 C-26.53621156 86.95173082 -36.69586349 92.98195188 -48 92 C-51.31681516 90.98440691 -54.45314651 89.64759794 -57.625 88.25 C-58.45773438 87.90195313 -59.29046875 87.55390625 -60.1484375 87.1953125 C-70.6625412 82.6749176 -70.6625412 82.6749176 -73 78 C-73.62470249 72.95775848 -73.91588837 69.22990724 -70.8125 65.0625 C-64.26809819 60.263272 -60.07922574 58.3193788 -52 59 C-45.300137 60.31544731 -40.80277306 63.22811294 -36 68 C-31.64297245 66.45264442 -29.41297932 63.06870193 -26.75 59.5 C-26.29109375 58.90574219 -25.8321875 58.31148437 -25.359375 57.69921875 C-22.82856057 54.68562634 -22.82856057 54.68562634 -22 51 C-33.39850811 42.04875379 -46.08563252 39.30451256 -60 37 C-52.46231031 20.41708268 -39.18045555 9.14392887 -22.25 2.625 C-14.8540792 0.14556523 -7.75384278 -0.16153839 0 0 Z " fill="#D04120" transform="translate(189,39)"/>
<path d="M0 0 C16.70251105 -1.1930365 32.89312507 5.78219706 45.38671875 16.50390625 C51.80221488 22.63171197 56.74495678 28.76067185 60 37 C59.02160156 37.21914062 58.04320313 37.43828125 57.03515625 37.6640625 C48.98840136 39.57046754 42.53418346 41.70916319 36 47 C35.17242187 47.598125 34.34484375 48.19625 33.4921875 48.8125 C30.65699352 51.30107152 29.10172112 53.72261748 27.25 57 C26.65703125 58.03125 26.0640625 59.0625 25.453125 60.125 C23.54352872 63.90312597 22.89375278 67.12494442 22.68359375 71.328125 C22.64169922 72.12734375 22.59980469 72.9265625 22.55664062 73.75 C22.51732422 74.575 22.47800781 75.4 22.4375 76.25 C22.39431641 77.09046875 22.35113281 77.9309375 22.30664062 78.796875 C22.20091457 80.86440671 22.09998705 82.93218281 22 85 C21.75507812 84.41476563 21.51015625 83.82953125 21.2578125 83.2265625 C19.79660401 80.6399512 18.17210816 79.2439733 15.875 77.375 C14.54718539 76.29290197 13.24546176 75.17594761 12 74 C12 73.34 12 72.68 12 72 C10.515 71.505 10.515 71.505 9 71 C8.33333333 69.33333333 7.66666667 67.66666667 7 66 C6.01 65.67 5.02 65.34 4 65 C-5.14071136 51.33191436 -8.26672833 32.88257308 -5.63525391 16.76611328 C-4.38959093 10.97199336 -2.85678043 5.2245624 0 0 Z " fill="#7E365C" transform="translate(67,39)"/>
<path d="M0 0 C12.70689219 10.32663861 20.71938615 24.69856885 23 41 C23.88006569 54.01343044 22.11808754 65.9425235 17 78 C7.38737456 78.32585171 -2.49252106 78.56743441 -10 72 C-11.65583225 71.30686092 -13.32110979 70.63525576 -15 70 C-15.66 69.34 -16.32 68.68 -17 68 C-18.093125 67.731875 -19.18625 67.46375 -20.3125 67.1875 C-24.61294725 65.80261021 -26.05642283 64.38511375 -29 61 C-29.61488281 60.30519531 -30.22976562 59.61039063 -30.86328125 58.89453125 C-32.58882436 56.94075999 -34.29918723 54.97529552 -36 53 C-33.43780797 50.43780797 -31.36737116 50.17373622 -27.875 49.25 C-21.83059384 47.43934088 -17.56473895 45.33297516 -13 41 C-12.38511719 40.42507812 -11.77023438 39.85015625 -11.13671875 39.2578125 C-0.27541142 28.04764091 -0.10564595 14.74071684 0 0 Z " fill="#589111" transform="translate(172,159)"/>
<path d="M0 0 C6.37913939 2.33492142 10.74639019 7.21761038 15.4375 11.9375 C16.159375 11.48375 16.88125 11.03 17.625 10.5625 C22.95841204 7.48097304 27.71173657 6.4708272 33.75 5.8125 C34.86084961 5.68294922 34.86084961 5.68294922 35.99414062 5.55078125 C37.80788435 5.34015295 39.62260543 5.13797014 41.4375 4.9375 C38.8286764 9.65003455 36.57433054 13.34498927 32.4375 16.9375 C31.7775 16.9375 31.1175 16.9375 30.4375 16.9375 C29.9425 18.4225 29.9425 18.4225 29.4375 19.9375 C20.90128844 26.88923082 10.74163651 32.91945188 -0.5625 31.9375 C-3.87931516 30.92190691 -7.01564651 29.58509794 -10.1875 28.1875 C-11.02023438 27.83945313 -11.85296875 27.49140625 -12.7109375 27.1328125 C-23.2250412 22.6124176 -23.2250412 22.6124176 -25.5625 17.9375 C-26.18720249 12.89525848 -26.47838837 9.16740724 -23.375 5 C-15.5311409 -0.75216334 -9.58057456 -2.71116954 0 0 Z " fill="#D03B12" transform="translate(141.5625,99.0625)"/>
<path d="M0 0 C8.23368769 1.95958329 15.25211117 4.911394 21.0625 11.25 C22.77530259 16.27422093 23.11589121 21.31359524 21.05078125 26.28515625 C18.35637305 30.83250131 15.1907037 34.67970881 10.1875 36.75 C6.78331508 37.13904971 3.42521054 37.05708684 0 37 C0 35.35 0 33.7 0 32 C-0.66 32 -1.32 32 -2 32 C-2.05843491 27.97922848 -2.0937424 23.95856741 -2.125 19.9375 C-2.14175781 18.80376953 -2.15851563 17.67003906 -2.17578125 16.50195312 C-2.21019727 10.59960616 -2.04944811 5.55932973 0 0 Z " fill="#1F4B0D" transform="translate(124,152)"/>
<path d="M0 0 C4.30289834 1.05181959 8.08855769 2.95114927 12 5 C10.87994369 8.36016893 9.62788203 9.69064913 7 12 C6.34 12 5.68 12 5 12 C5 12.66 5 13.32 5 14 C4.0409375 14.433125 4.0409375 14.433125 3.0625 14.875 C0.84793921 15.82823451 0.84793921 15.82823451 0 18 C-2.06640625 18.8515625 -2.06640625 18.8515625 -4.5625 19.625 C-5.80193359 20.01558594 -5.80193359 20.01558594 -7.06640625 20.4140625 C-7.70449219 20.60742188 -8.34257813 20.80078125 -9 21 C-9 21.66 -9 22.32 -9 23 C-13.26616316 24.13764351 -16.56486311 25 -21 25 C-21 25.66 -21 26.32 -21 27 C-24.63 27.33 -28.26 27.66 -32 28 C-29.51095782 23.02191563 -27.05516487 19.85863646 -22.70703125 16.3984375 C-20.81240125 14.91813009 -20.81240125 14.91813009 -18.75 12.5 C-14.8545669 8.95869718 -8.47267902 4 -3 4 C-3 3.34 -3 2.68 -3 2 C-2.01 1.34 -1.02 0.68 0 0 Z " fill="#112C30" transform="translate(105,144)"/>
<path d="M0 0 C0.05827558 3.5624308 0.09368885 7.12473819 0.125 10.6875 C0.14175781 11.69490234 0.15851563 12.70230469 0.17578125 13.74023438 C0.18222656 14.71669922 0.18867188 15.69316406 0.1953125 16.69921875 C0.20578613 17.59471436 0.21625977 18.49020996 0.22705078 19.4128418 C-0.02296544 22.26168257 -0.81983488 24.40894543 -2 27 C-7.05008278 26.52655474 -11.03898636 24.02540998 -15 21 C-17.82446971 16.76329544 -17.78005466 12.97483837 -17 8 C-14.8125 5.0625 -14.8125 5.0625 -12 3 C-10.824375 2.1028125 -10.824375 2.1028125 -9.625 1.1875 C-6.29944444 -0.31691799 -3.6137339 -0.08039923 0 0 Z " fill="#7A1F18" transform="translate(133,99)"/>
<path d="M0 0 C1.28596189 0.60478126 2.56771807 1.21851009 3.84765625 1.8359375 C4.56187744 2.1767334 5.27609863 2.5175293 6.01196289 2.86865234 C9.40153634 4.79758313 11.28709225 7.57418451 13 11 C13.83222764 17.39626388 13.21130858 22.02751006 9.4296875 27.3046875 C7.47431443 29.62335393 5.58752545 31.40767665 3 33 C1.68 33 0.36 33 -1 33 C-0.9278125 32.37738281 -0.855625 31.75476563 -0.78125 31.11328125 C0.25913048 20.75282563 0.09500704 10.40107887 0 0 Z " fill="#578D19" transform="translate(133,155)"/>
<path d="M0 0 C2.08368538 0.31014392 4.16693668 0.6232052 6.25 0.9375 C7.41015625 1.11152344 8.5703125 1.28554687 9.765625 1.46484375 C13 2 13 2 17 3 C17 8.61 17 14.22 17 20 C16.34 18.68 15.68 17.36 15 16 C13.06265207 14.10803965 13.06265207 14.10803965 10.875 12.375 C9.54718539 11.29290197 8.24546176 10.17594761 7 9 C7 8.34 7 7.68 7 7 C6.01 6.67 5.02 6.34 4 6 C3.29788106 4.34795544 2.63028587 2.68076231 2 1 C1.34 0.67 0.68 0.34 0 0 Z " fill="#341F4C" transform="translate(72,104)"/>
<path d="M0 0 C1.32 0.33 2.64 0.66 4 1 C4.33 6.94 4.66 12.88 5 19 C4.34 19.33 3.68 19.66 3 20 C-1.875 16.25 -1.875 16.25 -3 14 C-3.203125 11.7578125 -3.203125 11.7578125 -3.25 9.125 C-3.27578125 8.26132813 -3.3015625 7.39765625 -3.328125 6.5078125 C-2.94108924 3.54975351 -1.95124005 2.20798216 0 0 Z " fill="#782E4D" transform="translate(119,103)"/>
<path d="M0 0 C9.41002278 -0.18451025 9.41002278 -0.18451025 14 1 C12 4 12 4 9 6 C7.51941892 8.96116216 7.66753348 12.05800694 7.5 15.3125 C7.26268418 19.63927588 6.98084907 23.77417526 6 28 C5.01 28 4.02 28 3 28 C3.23771118 26.92649292 3.23771118 26.92649292 3.48022461 25.83129883 C3.98456957 23.08405198 4.20226167 20.4876077 4.31640625 17.69921875 C4.35830078 16.72275391 4.40019531 15.74628906 4.44335938 14.74023438 C4.48267578 13.73283203 4.52199219 12.72542969 4.5625 11.6875 C4.60568359 10.66076172 4.64886719 9.63402344 4.69335938 8.57617188 C4.79906825 6.05090431 4.90116468 3.52554438 5 1 C3.35 1 1.7 1 0 1 C0 0.67 0 0.34 0 0 Z " fill="#BB412B" transform="translate(128,98)"/>
<path d="M0 0 C4.12108629 3.40782136 7.92626756 6.57382529 11 11 C11 11.66 11 12.32 11 13 C8.03 12.67 5.06 12.34 2 12 C1.67 12.99 1.34 13.98 1 15 C0.67 10.05 0.34 5.1 0 0 Z " fill="#554204" transform="translate(172,159)"/>
<path d="M0 0 C2.86724686 0.57344937 3.8614515 0.8614515 6 3 C7.7325 3.7425 7.7325 3.7425 9.5 4.5 C13 6 13 6 15 8 C17.31861822 8.55555514 17.31861822 8.55555514 20.0078125 8.8515625 C20.99394531 8.98046875 21.98007813 9.109375 22.99609375 9.2421875 C24.02863281 9.36851562 25.06117188 9.49484375 26.125 9.625 C27.16527344 9.7590625 28.20554688 9.893125 29.27734375 10.03125 C31.85069334 10.36177197 34.42479146 10.6843456 37 11 C36.67 11.66 36.34 12.32 36 13 C24.12 11.515 24.12 11.515 12 10 C11.67 9.01 11.34 8.02 11 7 C10.34 7 9.68 7 9 7 C9 6.34 9 5.68 9 5 C8.2575 4.9175 7.515 4.835 6.75 4.75 C3.48778646 3.8603054 2.19045122 2.51496251 0 0 Z " fill="#58A435" transform="translate(152,226)"/>
<path d="M0 0 C5.28 0.33 10.56 0.66 16 1 C16 1.66 16 2.32 16 3 C12.31771221 4.84114389 8.01433963 4.92717315 3.96875 5.5 C1.08128569 5.83750116 1.08128569 5.83750116 -1 7 C-1.33 6.01 -1.66 5.02 -2 4 C-1.34 2.68 -0.68 1.36 0 0 Z " fill="#53B045" transform="translate(118,211)"/>
<path d="M0 0 C0.33 0.99 0.66 1.98 1 3 C1.66 3 2.32 3 3 3 C3.66 6.3 4.32 9.6 5 13 C4.01 13.33 3.02 13.66 2 14 C-0.125 12.0625 -0.125 12.0625 -2 9 C-1.75870921 5.86321978 -0.96321989 2.9872833 0 0 Z " fill="#7D385F" transform="translate(118,108)"/>
<path d="M0 0 C1.65 0.33 3.3 0.66 5 1 C5.33 1.99 5.66 2.98 6 4 C5.195625 4.474375 4.39125 4.94875 3.5625 5.4375 C1.15246512 6.76900154 1.15246512 6.76900154 0 8 C-0.15764405 9.77869726 -0.25100677 11.56318476 -0.31640625 13.34765625 C-0.35830078 14.42724609 -0.40019531 15.50683594 -0.44335938 16.61914062 C-0.48267578 17.75544922 -0.52199219 18.89175781 -0.5625 20.0625 C-0.60568359 21.20267578 -0.64886719 22.34285156 -0.69335938 23.51757812 C-0.79982839 26.34492195 -0.90184207 29.17235738 -1 32 C-1.33 32 -1.66 32 -2 32 C-2.05843491 27.97922848 -2.0937424 23.95856741 -2.125 19.9375 C-2.14175781 18.80376953 -2.15851563 17.67003906 -2.17578125 16.50195312 C-2.21019727 10.59960616 -2.04944811 5.55932973 0 0 Z " fill="#204B1F" transform="translate(124,152)"/>
<path d="M0 0 C0.99 0.66 1.98 1.32 3 2 C-1.16048113 6.84979161 -5.31778162 11.64444802 -10 16 C-10.66 16 -11.32 16 -12 16 C-12 15.01 -12 14.02 -12 13 C-11.01 13 -10.02 13 -9 13 C-8.9071875 12.40316406 -8.814375 11.80632812 -8.71875 11.19140625 C-7.83292178 8.49059304 -6.73238208 7.65295754 -4.5 5.9375 C-1.83347234 3.8774981 -1.10366566 3.31099698 0 0 Z " fill="#E78408" transform="translate(240,143)"/>
<path d="M0 0 C0.33 4.29 0.66 8.58 1 13 C0.34 11.68 -0.32 10.36 -1 9 C-1.86625 8.34 -2.7325 7.68 -3.625 7 C-4.40875 6.34 -5.1925 5.68 -6 5 C-6 3.68 -6 2.36 -6 1 C-3.92446352 0.4465236 -2.15634036 0 0 0 Z " fill="#25174D" transform="translate(88,111)"/>
<path d="M0 0 C1.32 0.66 2.64 1.32 4 2 C2 3.5 2 3.5 0 5 C-0.556875 5.53625 -1.11375 6.0725 -1.6875 6.625 C-5.22486586 8.72829862 -8.9498738 8.74903064 -13 9 C-9.8745041 6.35534962 -6.91211733 5.15585285 -3 4 C-3 3.34 -3 2.68 -3 2 C-2.01 1.34 -1.02 0.68 0 0 Z " fill="#182B4B" transform="translate(105,144)"/>
<path d="M0 0 C1.32 0.33 2.64 0.66 4 1 C4.33 2.32 4.66 3.64 5 5 C5.66 5 6.32 5 7 5 C7 5.66 7 6.32 7 7 C7.556875 7.061875 8.11375 7.12375 8.6875 7.1875 C11.99068042 8.3480769 13.71894733 10.40213446 16 13 C16 13.66 16 14.32 16 15 C8.41792685 12.61706273 4.45468593 6.16920423 0 0 Z " fill="#519623" transform="translate(136,211)"/>
<path d="M0 0 C-0.33 0.66 -0.66 1.32 -1 2 C-2.65 2.33 -4.3 2.66 -6 3 C-6.33 7.62 -6.66 12.24 -7 17 C-7.33 17 -7.66 17 -8 17 C-8.16808419 14.89594609 -8.33441948 12.79175242 -8.5 10.6875 C-8.5928125 9.51574219 -8.685625 8.34398438 -8.78125 7.13671875 C-8.92364989 5.094806 -9 3.0468721 -9 1 C-5.64919071 -1.10976881 -3.77897651 -1.0497157 0 0 Z " fill="#712226" transform="translate(131,100)"/>
<path d="M0 0 C2 2 2 2 2.125 4.625 C2.08375 5.40875 2.0425 6.1925 2 7 C2.66 7 3.32 7 4 7 C4.33 6.34 4.66 5.68 5 5 C6.32 5.66 7.64 6.32 9 7 C9 7.66 9 8.32 9 9 C6.03 8.67 3.06 8.34 0 8 C-0.33 8.99 -0.66 9.98 -1 11 C-0.67 7.37 -0.34 3.74 0 0 Z " fill="#545B10" transform="translate(174,163)"/>
<path d="M0 0 C3.63 0 7.26 0 11 0 C10.67 0.66 10.34 1.32 10 2 C3.91259093 3.99224297 -1.62971909 4.23496938 -8 4 C-8 3.67 -8 3.34 -8 3 C-5.36 2.34 -2.72 1.68 0 1 C0 0.67 0 0.34 0 0 Z " fill="#EF8108" transform="translate(198,168)"/>
<path d="M0 0 C1.32 0.33 2.64 0.66 4 1 C1.69 3.97 -0.62 6.94 -3 10 C-3.33 9.01 -3.66 8.02 -4 7 C-3.34 7 -2.68 7 -2 7 C-2.226875 6.401875 -2.45375 5.80375 -2.6875 5.1875 C-3 3 -3 3 -1.8125 1.1875 C-0.9153125 0.5996875 -0.9153125 0.5996875 0 0 Z " fill="#CC3A04" transform="translate(179,104)"/>
<path d="M0 0 C0.78890625 0.13921875 1.5778125 0.2784375 2.390625 0.421875 C3.18984375 0.55078125 3.9890625 0.6796875 4.8125 0.8125 C5.41578125 0.93109375 6.0190625 1.0496875 6.640625 1.171875 C6.640625 1.831875 6.640625 2.491875 6.640625 3.171875 C0.205625 3.666875 0.205625 3.666875 -6.359375 4.171875 C-2.359375 0.171875 -2.359375 0.171875 0 0 Z " fill="#DC6B5E" transform="translate(182.359375,35.828125)"/>
<path d="M0 0 C0.99 0.33 1.98 0.66 3 1 C1.5140084 5.59306496 -0.85014682 8.43569245 -4 12 C-5.125 8.25 -5.125 8.25 -4 6 C-3.01 6 -2.02 6 -1 6 C-0.67 4.02 -0.34 2.04 0 0 Z " fill="#FBDBCD" transform="translate(165,89)"/>
<path d="M0 0 C2.97 0 5.94 0 9 0 C12.07692308 6.4 12.07692308 6.4 11.6875 9.4375 C11.460625 9.953125 11.23375 10.46875 11 11 C10.34 10.34 9.68 9.68 9 9 C8.67 9 8.34 9 8 9 C8 6.36 8 3.72 8 1 C5.36 1 2.72 1 0 1 C0 0.67 0 0.34 0 0 Z " fill="#C7481C" transform="translate(180,39)"/>
<path d="M0 0 C1.08644535 4.3457814 0.90680911 4.94960548 -0.9375 8.75 C-1.31777344 9.54921875 -1.69804687 10.3484375 -2.08984375 11.171875 C-2.39019531 11.77515625 -2.69054687 12.3784375 -3 13 C-3.99 12.67 -4.98 12.34 -6 12 C-4.02 8.04 -2.04 4.08 0 0 Z " fill="#F8844B" transform="translate(190,91)"/>
<path d="M0 0 C2.9375 0.8125 2.9375 0.8125 6 2 C6.33 2.99 6.66 3.98 7 5 C7.66 5.33 8.32 5.66 9 6 C9.625 8.0625 9.625 8.0625 10 10 C6.54804233 8.5741914 4.8985744 6.90253666 2.75 3.875 C1.96882812 2.78832031 1.96882812 2.78832031 1.171875 1.6796875 C0.78515625 1.12539062 0.3984375 0.57109375 0 0 Z " fill="#DD7D18" transform="translate(176,162)"/>
<path d="M0 0 C6.93 0.495 6.93 0.495 14 1 C14 1.33 14 1.66 14 2 C10.04 2 6.08 2 2 2 C1.67 3.32 1.34 4.64 1 6 C0.01 6.495 0.01 6.495 -1 7 C-1.33 6.01 -1.66 5.02 -2 4 C-1.34 2.68 -0.68 1.36 0 0 Z " fill="#4D9741" transform="translate(118,211)"/>
<path d="M0 0 C0.33 0 0.66 0 1 0 C1.33 6.6 1.66 13.2 2 20 C1.01 20.33 0.02 20.66 -1 21 C-0.67 14.07 -0.34 7.14 0 0 Z " fill="#7F9F5A" transform="translate(172,161)"/>
<path d="M0 0 C0.33 0 0.66 0 1 0 C2.33333333 5.33333333 3.66666667 10.66666667 5 16 C4.34 16 3.68 16 3 16 C-0.39366878 10.62669111 -0.32712342 6.13053511 0 0 Z " fill="#9D74B4" transform="translate(61,76)"/>
<path d="M0 0 C0.99 0.33 1.98 0.66 3 1 C1.68 3.31 0.36 5.62 -1 8 C-0.01 8.66 0.98 9.32 2 10 C-0.64 10 -3.28 10 -6 10 C-5.34 9.67 -4.68 9.34 -4 9 C-4 8.34 -4 7.68 -4 7 C-3.34 7 -2.68 7 -2 7 C-1.855625 6.401875 -1.71125 5.80375 -1.5625 5.1875 C-1.1127561 3.43849596 -0.57107659 1.71322977 0 0 Z " fill="#DF7C78" transform="translate(131,67)"/>
<path d="M0 0 C1.32 1.32 2.64 2.64 4 4 C2 6 2 6 -1.625 6.125 C-2.73875 6.08375 -3.8525 6.0425 -5 6 C-4.34 5.67 -3.68 5.34 -3 5 C-3 4.34 -3 3.68 -3 3 C-1.5 1.375 -1.5 1.375 0 0 Z " fill="#7B314D" transform="translate(123,71)"/>
<path d="M0 0 C-0.33 0.66 -0.66 1.32 -1 2 C-3.72265625 2.6328125 -3.72265625 2.6328125 -7.0625 3.125 C-8.16722656 3.29257813 -9.27195312 3.46015625 -10.41015625 3.6328125 C-11.69212891 3.81457031 -11.69212891 3.81457031 -13 4 C-13.33 3.34 -13.66 2.68 -14 2 C-4.58997722 -0.29612756 -4.58997722 -0.29612756 0 0 Z " fill="#43429C" transform="translate(62,104)"/>
<path d="M0 0 C0.66 0.33 1.32 0.66 2 1 C0.66536458 2.46484375 -0.66927083 3.9296875 -2.00390625 5.39453125 C-2.33261719 5.92433594 -2.66132812 6.45414063 -3 7 C-2.67 7.99 -2.34 8.98 -2 10 C-3.65 10 -5.3 10 -7 10 C-6.40606618 8.70359622 -5.79942011 7.41301161 -5.1875 6.125 C-4.85105469 5.40570313 -4.51460938 4.68640625 -4.16796875 3.9453125 C-3 2 -3 2 0 0 Z " fill="#E2727D" transform="translate(74,28)"/>
<path d="M0 0 C0.33 0.66 0.66 1.32 1 2 C-0.32 3.65 -1.64 5.3 -3 7 C-4.65 6.67 -6.3 6.34 -8 6 C-5.38485683 3.87961365 -2.80362384 1.86908256 0 0 Z " fill="#F97011" transform="translate(168,120)"/>
<path d="M0 0 C3.15140423 0.34069235 4.60781561 0.58076841 6.8125 2.9375 C8 5 8 5 8 7 C6.125 6.8125 6.125 6.8125 4 6 C2.875 3.5 2.875 3.5 2 1 C1.34 0.67 0.68 0.34 0 0 Z " fill="#2F1D5D" transform="translate(72,104)"/>
<path d="M0 0 C7.48291572 6.15034169 7.48291572 6.15034169 10 10 C9.01 10 8.02 10 7 10 C5.62926214 8.36395804 4.29944744 6.69321939 3 5 C0.87396815 3.23676495 0.87396815 3.23676495 -1 2 C-0.67 1.34 -0.34 0.68 0 0 Z " fill="#1D4D38" transform="translate(86,192)"/>
<path d="M0 0 C0.33 1.32 0.66 2.64 1 4 C-1.75 5.625 -1.75 5.625 -5 7 C-7.375 6.1875 -7.375 6.1875 -9 5 C-7.88625 4.54625 -6.7725 4.0925 -5.625 3.625 C-2.03800992 2.27534014 -2.03800992 2.27534014 0 0 Z " fill="#DBF1D5" transform="translate(141,183)"/>
<path d="M0 0 C1.32 0.33 2.64 0.66 4 1 C3.88655624 3.1464753 3.75893655 5.29220592 3.625 7.4375 C3.52058594 9.22994141 3.52058594 9.22994141 3.4140625 11.05859375 C3.27742187 12.02925781 3.14078125 12.99992188 3 14 C2.01 14.495 2.01 14.495 1 15 C1.01160156 14.16855469 1.02320313 13.33710938 1.03515625 12.48046875 C1.04417969 11.39378906 1.05320313 10.30710938 1.0625 9.1875 C1.07410156 8.10855469 1.08570313 7.02960938 1.09765625 5.91796875 C1.13624766 2.93487831 1.13624766 2.93487831 0 0 Z " fill="#E1F2D3" transform="translate(144,163)"/>
<path d="M0 0 C0.33 1.32 0.66 2.64 1 4 C-0.21484375 5.703125 -0.21484375 5.703125 -1.9375 7.25 C-2.50339844 7.77078125 -3.06929687 8.2915625 -3.65234375 8.828125 C-4.09707031 9.21484375 -4.54179687 9.6015625 -5 10 C-5.66 9.67 -6.32 9.34 -7 9 C-4.69 6.03 -2.38 3.06 0 0 Z " fill="#FDC239" transform="translate(245,141)"/>
<path d="M0 0 C1.65 0 3.3 0 5 0 C4.01 2.97 3.02 5.94 2 9 C1.67 9 1.34 9 1 9 C0.67 6.03 0.34 3.06 0 0 Z " fill="#712851" transform="translate(88,96)"/>
<path d="M0 0 C-3.21182149 1.90608098 -5.53882603 2.22266247 -9.25 2.125 C-10.14203125 2.10695312 -11.0340625 2.08890625 -11.953125 2.0703125 C-12.96632812 2.03550781 -12.96632812 2.03550781 -14 2 C-14.33 2.99 -14.66 3.98 -15 5 C-15.33 4.34 -15.66 3.68 -16 3 C-15.67 2.34 -15.34 1.68 -15 1 C-12.890625 0.5859375 -12.890625 0.5859375 -10.25 0.375 C-9.38890625 0.30023438 -8.5278125 0.22546875 -7.640625 0.1484375 C-5.08696789 0.00488873 -2.55704224 -0.02759398 0 0 Z " fill="#D3D459" transform="translate(204,238)"/>
<path d="M0 0 C1.32 0.33 2.64 0.66 4 1 C2.55802132 3.88395737 0.29355765 5.76525152 -2 8 C-2 4.23312136 -1.76462683 3.08809695 0 0 Z " fill="#638E2A" transform="translate(168,188)"/>
<path d="M0 0 C0 0.99 0 1.98 0 3 C-5.75 1.25 -5.75 1.25 -8 -1 C-4.59745511 -2.2151946 -3.06748874 -1.86240388 0 0 Z " fill="#E07730" transform="translate(152,132)"/>
<path d="M0 0 C1 3 1 3 0.22265625 4.82421875 C-0.8515625 6.54947917 -1.92578125 8.27473958 -3 10 C-4 8 -4 8 -3.1875 4.4375 C-2 1 -2 1 0 0 Z " fill="#F88244" transform="translate(195,79)"/>
<path d="M0 0 C0.99 0.495 0.99 0.495 2 1 C2 1.66 2 2.32 2 3 C2.67546875 2.97679687 3.3509375 2.95359375 4.046875 2.9296875 C5.38492188 2.90261719 5.38492188 2.90261719 6.75 2.875 C7.63171875 2.85179687 8.5134375 2.82859375 9.421875 2.8046875 C12 3 12 3 16 5 C11.05 4.67 6.1 4.34 1 4 C0.67 2.68 0.34 1.36 0 0 Z " fill="#D57E54" transform="translate(188,33)"/>
<path d="M0 0 C0 0.66 0 1.32 0 2 C-2.81769349 4.17364926 -4.2190681 5.08677021 -7.8125 4.6875 C-8.534375 4.460625 -9.25625 4.23375 -10 4 C-6.86268382 1.90845588 -3.85464592 0 0 0 Z " fill="#509E54" transform="translate(96,231)"/>
<path d="M0 0 C0.33 0 0.66 0 1 0 C1.33 3.63 1.66 7.26 2 11 C-1 8 -1 8 -1.25 4.9375 C-1 2 -1 2 0 0 Z " fill="#8A3665" transform="translate(118,108)"/>
<path d="M0 0 C2 2 2 2 2 5 C-1.63 5 -5.26 5 -9 5 C-9 4.67 -9 4.34 -9 4 C-6.36 4 -3.72 4 -1 4 C-0.67 2.68 -0.34 1.36 0 0 Z " fill="#8774C1" transform="translate(69,99)"/>
<path d="M0 0 C-4.455 2.97 -4.455 2.97 -9 6 C-8 2 -8 2 -6.1875 0.1875 C-4 -1 -4 -1 0 0 Z " fill="#E56C64" transform="translate(151,51)"/>
<path d="M0 0 C1.32 0.33 2.64 0.66 4 1 C4.625 2.875 4.625 2.875 5 5 C4.34 5.66 3.68 6.32 3 7 C0 2.25 0 2.25 0 0 Z " fill="#E7D83D" transform="translate(185,173)"/>
<path d="M0 0 C0.99 0.33 1.98 0.66 3 1 C3.625 3.3125 3.625 3.3125 4 6 C3.01 7.485 3.01 7.485 2 9 C2 7.35 2 5.7 2 4 C1.34 4 0.68 4 0 4 C0 2.68 0 1.36 0 0 Z " fill="#FAE23B" transform="translate(250,146)"/>
<path d="M0 0 C-4.29 -0.33 -8.58 -0.66 -13 -1 C-13 -1.33 -13 -1.66 -13 -2 C-11.39884424 -2.2493357 -9.79379841 -2.47378648 -8.1875 -2.6875 C-7.29417969 -2.81511719 -6.40085937 -2.94273438 -5.48046875 -3.07421875 C-3 -3 -3 -3 0 0 Z " fill="#C4626F" transform="translate(80,40)"/>
<path d="M0 0 C4.95 0.33 9.9 0.66 15 1 C14.67 1.66 14.34 2.32 14 3 C9.38 2.34 4.76 1.68 0 1 C0 0.67 0 0.34 0 0 Z " fill="#6192BA" transform="translate(52,238)"/>
<path d="M0 0 C2.97 0.495 2.97 0.495 6 1 C4.71034824 2.37562854 3.37310707 3.70766393 2 5 C1.34 5 0.68 5 0 5 C0 3.35 0 1.7 0 0 Z " fill="#EBF4DD" transform="translate(152,200)"/>
<path d="M0 0 C1.98 0 3.96 0 6 0 C6 0.66 6 1.32 6 2 C5.01 2 4.02 2 3 2 C2.67 2.99 2.34 3.98 2 5 C0 2 0 2 0 0 Z " fill="#F99253" transform="translate(189,38)"/>
<path d="M0 0 C0.33 0.66 0.66 1.32 1 2 C-3.95 2.33 -8.9 2.66 -14 3 C-10.3750203 1.18751015 -8.62740416 0.68111085 -4.75 0.375 C-3.85796875 0.30023438 -2.9659375 0.22546875 -2.046875 0.1484375 C-1.37140625 0.09945312 -0.6959375 0.05046875 0 0 Z " fill="#8E74AC" transform="translate(66,35)"/>
<path d="M0 0 C-4.95 1.485 -4.95 1.485 -10 3 C-6.13735166 -0.86264834 -5.31601412 -1.32900353 0 0 Z " fill="#8D67C1" transform="translate(48,40)"/>
<path d="M0 0 C6.625 0.625 6.625 0.625 10 4 C6.7 3.01 3.4 2.02 0 1 C0 0.67 0 0.34 0 0 Z " fill="#E89E41" transform="translate(208,39)"/>
<path d="M0 0 C0.66 0.33 1.32 0.66 2 1 C-2.43076923 4.07692308 -2.43076923 4.07692308 -5.3125 3.6875 C-6.1478125 3.3471875 -6.1478125 3.3471875 -7 3 C-4.69631264 1.93347808 -2.35981813 0.93578995 0 0 Z " fill="#F5DC38" transform="translate(218,232)"/>
<path d="M0 0 C2.97 0.99 5.94 1.98 9 3 C5 4 5 4 2.25 2.625 C1.5075 2.08875 0.765 1.5525 0 1 C0 0.67 0 0.34 0 0 Z " fill="#6B8BCC" transform="translate(36,232)"/>
<path d="M0 0 C1.98 0.66 3.96 1.32 6 2 C5.01 2.33 4.02 2.66 3 3 C2.01 2.01 1.02 1.02 0 0 Z " fill="#449B3B" transform="translate(94,269)"/>
<path d="M0 0 C2.4375 0.375 2.4375 0.375 5 1 C5.33 1.66 5.66 2.32 6 3 C4.02 2.34 2.04 1.68 0 1 C0 0.67 0 0.34 0 0 Z " fill="#CE7470" transform="translate(156,4)"/>
<path d="M0 0 C0.625 1.875 0.625 1.875 1 4 C0.34 4.66 -0.32 5.32 -1 6 C-0.67 4.02 -0.34 2.04 0 0 Z " fill="#EDC924" transform="translate(254,191)"/>
<path d="M0 0 C0.99 1.485 0.99 1.485 2 3 C1.67 3.99 1.34 4.98 1 6 C0.67 4.02 0.34 2.04 0 0 Z " fill="#6885CE" transform="translate(0,188)"/>
<path d="M0 0 C0.33 0.99 0.66 1.98 1 3 C0.34 3.99 -0.32 4.98 -1 6 C-0.67 4.02 -0.34 2.04 0 0 Z " fill="#6089D4" transform="translate(1,147)"/>
<path d="M0 0 C0.66 0.66 1.32 1.32 2 2 C1.625 4.125 1.625 4.125 1 6 C0.67 4.02 0.34 2.04 0 0 Z " fill="#F5DA41" transform="translate(253,144)"/>
<path d="M0 0 C0.625 1.875 0.625 1.875 1 4 C0.34 4.66 -0.32 5.32 -1 6 C-0.67 4.02 -0.34 2.04 0 0 Z " fill="#D77D4D" transform="translate(254,126)"/>
<path d="M0 0 C0.99 1.485 0.99 1.485 2 3 C1.67 3.99 1.34 4.98 1 6 C0.67 4.02 0.34 2.04 0 0 Z " fill="#A18DCF" transform="translate(0,123)"/>
<path d="M0 0 C0.33 0.99 0.66 1.98 1 3 C0.34 3.99 -0.32 4.98 -1 6 C-0.67 4.02 -0.34 2.04 0 0 Z " fill="#937CCE" transform="translate(1,82)"/>
<path d="M0 0 C0.66 0.66 1.32 1.32 2 2 C1.625 4.125 1.625 4.125 1 6 C0.67 4.02 0.34 2.04 0 0 Z " fill="#E15930" transform="translate(253,79)"/>
<path d="M0 0 C0.99 0.33 1.98 0.66 3 1 C1.35 1.33 -0.3 1.66 -2 2 C-1.34 1.34 -0.68 0.68 0 0 Z " fill="#5CA853" transform="translate(151,273)"/>
<path d="M0 0 C2.475 0.495 2.475 0.495 5 1 C4.01 1.33 3.02 1.66 2 2 C1.34 1.34 0.68 0.68 0 0 Z " fill="#5AA952" transform="translate(102,273)"/>
<path d="M0 0 C1.485 0.99 1.485 0.99 3 2 C2.67 2.66 2.34 3.32 2 4 C1.34 2.68 0.68 1.36 0 0 Z " fill="#4D73B2" transform="translate(12,212)"/>
<path d="M0 0 C0 0.99 0 1.98 0 3 C-0.99 3.495 -0.99 3.495 -2 4 C-1.34 2.68 -0.68 1.36 0 0 Z " fill="#8071AC" transform="translate(14,60)"/>
<path d="M0 0 C0.99 0.33 1.98 0.66 3 1 C1.35 1.33 -0.3 1.66 -2 2 C-1.34 1.34 -0.68 0.68 0 0 Z " fill="#D97376" transform="translate(104,1)"/>
<path d="M0 0 C2.475 0.495 2.475 0.495 5 1 C4.01 1.33 3.02 1.66 2 2 C1.34 1.34 0.68 0.68 0 0 Z " fill="#D96976" transform="translate(149,1)"/>
<path d="M0 0 C0.66 0.33 1.32 0.66 2 1 C0.68 1.33 -0.64 1.66 -2 2 C-1.34 1.34 -0.68 0.68 0 0 Z " fill="#41B93E" transform="translate(160,269)"/>
<path d="M0 0 C0 0.99 0 1.98 0 3 C-0.66 2.67 -1.32 2.34 -2 2 C-1.34 1.34 -0.68 0.68 0 0 Z " fill="#399C37" transform="translate(177,256)"/>
<path d="M0 0 C0.33 0.99 0.66 1.98 1 3 C0.01 3.495 0.01 3.495 -1 4 C-0.67 2.68 -0.34 1.36 0 0 Z " fill="#EE932C" transform="translate(248,204)"/>
<path d="M0 0 C0.99 0.495 0.99 0.495 2 1 C1.67 1.99 1.34 2.98 1 4 C0.67 2.68 0.34 1.36 0 0 Z " fill="#F57A34" transform="translate(247,68)"/>
<path d="M0 0 C0.66 0.33 1.32 0.66 2 1 C1.01 1 0.02 1 -1 1 C-0.67 0.67 -0.34 0.34 0 0 Z " fill="#66A846" transform="translate(169,263)"/>
<path d="M0 0 C0.99 0.33 1.98 0.66 3 1 C2.01 1 1.02 1 0 1 C0 0.67 0 0.34 0 0 Z " fill="#61A641" transform="translate(85,263)"/>
<path d="M0 0 C0 3 0 3 0 3 Z " fill="#417839" transform="translate(183,249)"/>
<path d="M0 0 C0.99 0.495 0.99 0.495 2 1 C1.67 1.66 1.34 2.32 1 3 C0.67 2.01 0.34 1.02 0 0 Z " fill="#56AD4D" transform="translate(72,249)"/>
<path d="M0 0 C4 1 4 1 4 1 Z " fill="#D4CA4B" transform="translate(204,237)"/>
<path d="M0 0 C4 1 4 1 4 1 Z " fill="#626BBB" transform="translate(48,237)"/>
<path d="M0 0 C0.66 0.33 1.32 0.66 2 1 C1.01 1 0.02 1 -1 1 C-0.67 0.67 -0.34 0.34 0 0 Z " fill="#F4D64B" transform="translate(228,226)"/>
<path d="M0 0 C0.99 0.33 1.98 0.66 3 1 C2.01 1 1.02 1 0 1 C0 0.67 0 0.34 0 0 Z " fill="#617EAE" transform="translate(26,226)"/>
<path d="M0 0 C0.66 0.33 1.32 0.66 2 1 C1.01 1 0.02 1 -1 1 C-0.67 0.67 -0.34 0.34 0 0 Z " fill="#EAA62A" transform="translate(233,222)"/>
<path d="M0 0 C0 3 0 3 0 3 Z " fill="#F5DE2E" transform="translate(242,213)"/>
<path d="M0 0 C1 4 1 4 1 4 Z " fill="#FAD838" transform="translate(255,187)"/>
<path d="M0 0 C1 4 1 4 1 4 Z " fill="#7892F4" transform="translate(5,136)"/>
<path d="M0 0 C1 4 1 4 1 4 Z " fill="#DC7E48" transform="translate(255,85)"/>
<path d="M0 0 C0.99 0.495 0.99 0.495 2 1 C1.67 1.66 1.34 2.32 1 3 C0.67 2.01 0.34 1.02 0 0 Z " fill="#DC7746" transform="translate(244,64)"/>
<path d="M0 0 C0.99 0.495 0.99 0.495 2 1 C1.67 1.66 1.34 2.32 1 3 C0.67 2.01 0.34 1.02 0 0 Z " fill="#EF763B" transform="translate(241,60)"/>
<path d="M0 0 C0.99 0.33 1.98 0.66 3 1 C2.01 1 1.02 1 0 1 C0 0.67 0 0.34 0 0 Z " fill="#FA8B56" transform="translate(232,52)"/>
<path d="M0 0 C0.66 0.33 1.32 0.66 2 1 C1.01 1 0.02 1 -1 1 C-0.67 0.67 -0.34 0.34 0 0 Z " fill="#715CCB" transform="translate(23,51)"/>
<path d="M0 0 C0.66 0.33 1.32 0.66 2 1 C1.01 1 0.02 1 -1 1 C-0.67 0.67 -0.34 0.34 0 0 Z " fill="#BAACE3" transform="translate(27,48)"/>
<path d="M0 0 C0.99 0.33 1.98 0.66 3 1 C2.01 1 1.02 1 0 1 C0 0.67 0 0.34 0 0 Z " fill="#F0B347" transform="translate(227,48)"/>
<path d="M0 0 C0.99 0.495 0.99 0.495 2 1 C1.67 1.66 1.34 2.32 1 3 C0.67 2.01 0.34 1.02 0 0 Z " fill="#B95A61" transform="translate(182,24)"/>
<path d="M0 0 C0 3 0 3 0 3 Z " fill="#E7969A" transform="translate(73,24)"/>
<path d="M0 0 C0.66 0.33 1.32 0.66 2 1 C1.01 1 0.02 1 -1 1 C-0.67 0.67 -0.34 0.34 0 0 Z " fill="#D57783" transform="translate(86,11)"/>
<path d="M0 0 C0.99 0.33 1.98 0.66 3 1 C2.01 1 1.02 1 0 1 C0 0.67 0 0.34 0 0 Z " fill="#CA7B7D" transform="translate(168,11)"/>
<path d="M0 0 C0.66 0.33 1.32 0.66 2 1 C1.01 1 0.02 1 -1 1 C-0.67 0.67 -0.34 0.34 0 0 Z " fill="#D895A1" transform="translate(95,5)"/>
<path d="M0 0 C3 1 3 1 3 1 Z " fill="#58AE4F" transform="translate(146,275)"/>
<path d="M0 0 C3 1 3 1 3 1 Z " fill="#58AE51" transform="translate(107,275)"/>
<path d="M0 0 C0.66 0.66 1.32 1.32 2 2 C1.34 2 0.68 2 0 2 C0 1.34 0 0.68 0 0 Z " fill="#3B7541" transform="translate(78,256)"/>
<path d="M0 0 C3 1 3 1 3 1 Z " fill="#F6F434" transform="translate(208,236)"/>
<path d="M0 0 C3 1 3 1 3 1 Z " fill="#535CDB" transform="translate(45,236)"/>
<path d="" fill="#FAE950" transform="translate(0,0)"/>
<path d="" fill="#F28F59" transform="translate(0,0)"/>
<path d="M0 0 C3 1 3 1 3 1 Z " fill="#F2A767" transform="translate(204,38)"/>
<path d="M0 0 C3 1 3 1 3 1 Z " fill="#A091D3" transform="translate(49,38)"/>
<path d="M0 0 C0.99 0.495 0.99 0.495 2 1 C1.01 1.495 1.01 1.495 0 2 C0 1.34 0 0.68 0 0 Z " fill="#9A5759" transform="translate(78,18)"/>
<path d="M0 0 C0.66 0 1.32 0 2 0 C1.67 0.66 1.34 1.32 1 2 C0.67 1.34 0.34 0.68 0 0 Z " fill="#DF4957" transform="translate(175,17)"/>
<path d="M0 0 C3 1 3 1 3 1 Z " fill="#BC5D5C" transform="translate(97,4)"/>
<path d="M0 0 C3 1 3 1 3 1 Z " fill="#E26670" transform="translate(146,0)"/>
<path d="M0 0 C3 1 3 1 3 1 Z " fill="#DB7073" transform="translate(107,0)"/>
<path d="M0 0 C2 1 2 1 2 1 Z " fill="#5DA45B" transform="translate(154,272)"/>
<path d="M0 0 C2 1 2 1 2 1 Z " fill="#60A457" transform="translate(100,272)"/>
<path d="M0 0 C2 1 2 1 2 1 Z " fill="#7FC67A" transform="translate(156,271)"/>
<path d="M0 0 C2 1 2 1 2 1 Z " fill="#62A761" transform="translate(162,268)"/>
<path d="M0 0 C2 1 2 1 2 1 Z " fill="#63AA56" transform="translate(92,268)"/>
<path d="M0 0 C2 1 2 1 2 1 Z " fill="#38C535" transform="translate(165,266)"/>
<path d="M0 0 C2 1 2 1 2 1 Z " fill="#2DCA34" transform="translate(89,266)"/>
<path d="" fill="#5EAA54" transform="translate(0,0)"/>
<path d="" fill="#5BA059" transform="translate(0,0)"/>
<path d="" fill="#61AA51" transform="translate(0,0)"/>
<path d="" fill="#56A859" transform="translate(0,0)"/>
<path d="M0 0 C2 1 2 1 2 1 Z " fill="#F6DA5F" transform="translate(220,231)"/>
<path d="M0 0 C2 1 2 1 2 1 Z " fill="#6689C4" transform="translate(34,231)"/>
<path d="M0 0 C2 1 2 1 2 1 Z " fill="#F8D849" transform="translate(222,230)"/>
<path d="M0 0 C2 1 2 1 2 1 Z " fill="#7294D8" transform="translate(32,230)"/>
<path d="M0 0 C2 1 2 1 2 1 Z " fill="#DDAB46" transform="translate(224,229)"/>
<path d="M0 0 C2 1 2 1 2 1 Z " fill="#6988A8" transform="translate(30,229)"/>
<path d="M0 0 C2 1 2 1 2 1 Z " fill="#719ADC" transform="translate(22,223)"/>
<path d="" fill="#F3D950" transform="translate(0,0)"/>
<path d="" fill="#7AA8E1" transform="translate(0,0)"/>
<path d="" fill="#4F6DA8" transform="translate(0,0)"/>
<path d="" fill="#5C7BBE" transform="translate(0,0)"/>
<path d="" fill="#F9DF26" transform="translate(0,0)"/>
<path d="" fill="#4587B3" transform="translate(0,0)"/>
<path d="" fill="#FAE164" transform="translate(0,0)"/>
<path d="" fill="#5DA7C0" transform="translate(0,0)"/>
<path d="" fill="#FFCD46" transform="translate(0,0)"/>
<path d="" fill="#6580CC" transform="translate(0,0)"/>
<path d="" fill="#5878A9" transform="translate(0,0)"/>
<path d="" fill="#5D88C1" transform="translate(0,0)"/>
<path d="" fill="#5D88CA" transform="translate(0,0)"/>
<path d="" fill="#FEE851" transform="translate(0,0)"/>
<path d="" fill="#E4CE58" transform="translate(0,0)"/>
<path d="" fill="#1D4B9F" transform="translate(0,0)"/>
<path d="" fill="#AC690E" transform="translate(0,0)"/>
<path d="" fill="#D0844A" transform="translate(0,0)"/>
<path d="" fill="#7F65B9" transform="translate(0,0)"/>
<path d="" fill="#DE974C" transform="translate(0,0)"/>
<path d="" fill="#8B82C9" transform="translate(0,0)"/>
<path d="" fill="#8885CC" transform="translate(0,0)"/>
<path d="" fill="#8B7FAA" transform="translate(0,0)"/>
<path d="" fill="#5C66AE" transform="translate(0,0)"/>
<path d="" fill="#F19550" transform="translate(0,0)"/>
<path d="" fill="#FA9F60" transform="translate(0,0)"/>
<path d="" fill="#C1BDCD" transform="translate(0,0)"/>
<path d="" fill="#ECA72C" transform="translate(0,0)"/>
<path d="" fill="#A179AD" transform="translate(0,0)"/>
<path d="" fill="#9F89B7" transform="translate(0,0)"/>
<path d="" fill="#8678A7" transform="translate(0,0)"/>
<path d="" fill="#C3B4DC" transform="translate(0,0)"/>
<path d="M0 0 C2 1 2 1 2 1 Z " fill="#E6846B" transform="translate(224,46)"/>
<path d="M0 0 C2 1 2 1 2 1 Z " fill="#8D80BE" transform="translate(30,46)"/>
<path d="M0 0 C2 1 2 1 2 1 Z " fill="#E48A37" transform="translate(222,45)"/>
<path d="M0 0 C2 1 2 1 2 1 Z " fill="#8585B5" transform="translate(32,45)"/>
<path d="M0 0 C2 1 2 1 2 1 Z " fill="#CF834A" transform="translate(220,44)"/>
<path d="M0 0 C2 1 2 1 2 1 Z " fill="#8C6FAB" transform="translate(34,44)"/>
<path d="M0 0 C2 1 2 1 2 1 Z " fill="#EA8B4B" transform="translate(218,43)"/>
<path d="M0 0 C2 1 2 1 2 1 Z " fill="#988FDF" transform="translate(36,43)"/>
<path d="" fill="#F37B7F" transform="translate(0,0)"/>
<path d="" fill="#D6736F" transform="translate(0,0)"/>
<path d="" fill="#E5AAA7" transform="translate(0,0)"/>
<path d="" fill="#D46574" transform="translate(0,0)"/>
<path d="M0 0 C2 1 2 1 2 1 Z " fill="#E4455B" transform="translate(165,9)"/>
<path d="M0 0 C2 1 2 1 2 1 Z " fill="#DA414E" transform="translate(89,9)"/>
<path d="M0 0 C2 1 2 1 2 1 Z " fill="#C57686" transform="translate(162,7)"/>
<path d="M0 0 C2 1 2 1 2 1 Z " fill="#B26173" transform="translate(92,7)"/>
<path d="M0 0 C2 1 2 1 2 1 Z " fill="#DC6573" transform="translate(154,3)"/>
<path d="M0 0 C2 1 2 1 2 1 Z " fill="#DF6574" transform="translate(100,3)"/>
<path d="" fill="#61A95A" transform="translate(0,0)"/>
<path d="" fill="#5FAB5D" transform="translate(0,0)"/>
<path d="" fill="#4BB741" transform="translate(0,0)"/>
<path d="" fill="#3EBA37" transform="translate(0,0)"/>
<path d="" fill="#60A663" transform="translate(0,0)"/>
<path d="" fill="#5DA662" transform="translate(0,0)"/>
<path d="" fill="#64A168" transform="translate(0,0)"/>
<path d="" fill="#59AA6A" transform="translate(0,0)"/>
<path d="" fill="#5FA468" transform="translate(0,0)"/>
<path d="" fill="#5AAB6B" transform="translate(0,0)"/>
<path d="" fill="#62A362" transform="translate(0,0)"/>
<path d="" fill="#61A967" transform="translate(0,0)"/>
<path d="" fill="#5EB067" transform="translate(0,0)"/>
<path d="" fill="#5FA65E" transform="translate(0,0)"/>
<path d="" fill="#5FA45D" transform="translate(0,0)"/>
<path d="" fill="#57A85D" transform="translate(0,0)"/>
<path d="" fill="#69AB65" transform="translate(0,0)"/>
<path d="" fill="#5CA463" transform="translate(0,0)"/>
<path d="" fill="#5BA849" transform="translate(0,0)"/>
<path d="" fill="#5AA260" transform="translate(0,0)"/>
<path d="" fill="#65A84D" transform="translate(0,0)"/>
<path d="" fill="#4B7B46" transform="translate(0,0)"/>
<path d="" fill="#699B6F" transform="translate(0,0)"/>
<path d="" fill="#69A654" transform="translate(0,0)"/>
<path d="" fill="#5D9552" transform="translate(0,0)"/>
<path d="" fill="#689D60" transform="translate(0,0)"/>
<path d="" fill="#F7C933" transform="translate(0,0)"/>
<path d="" fill="#6888B4" transform="translate(0,0)"/>
<path d="" fill="#FFF670" transform="translate(0,0)"/>
<path d="" fill="#6289C2" transform="translate(0,0)"/>
<path d="" fill="#EBCA44" transform="translate(0,0)"/>
<path d="" fill="#5E81BE" transform="translate(0,0)"/>
<path d="" fill="#4184C3" transform="translate(0,0)"/>
<path d="" fill="#FFCE42" transform="translate(0,0)"/>
<path d="" fill="#6198D1" transform="translate(0,0)"/>
<path d="" fill="#FFCF39" transform="translate(0,0)"/>
<path d="" fill="#6888DB" transform="translate(0,0)"/>
<path d="" fill="#F4C93D" transform="translate(0,0)"/>
<path d="" fill="#6F89D7" transform="translate(0,0)"/>
<path d="" fill="#FFF245" transform="translate(0,0)"/>
<path d="" fill="#6571CF" transform="translate(0,0)"/>
<path d="" fill="#EED53B" transform="translate(0,0)"/>
<path d="" fill="#6A80CB" transform="translate(0,0)"/>
<path d="" fill="#E9D342" transform="translate(0,0)"/>
<path d="" fill="#457EBF" transform="translate(0,0)"/>
<path d="" fill="#FFEB66" transform="translate(0,0)"/>
<path d="" fill="#FDD163" transform="translate(0,0)"/>
<path d="" fill="#6A99D4" transform="translate(0,0)"/>
<path d="" fill="#F9DB36" transform="translate(0,0)"/>
<path d="" fill="#6892D3" transform="translate(0,0)"/>
<path d="" fill="#7892D2" transform="translate(0,0)"/>
<path d="" fill="#F1D023" transform="translate(0,0)"/>
<path d="" fill="#DDAF28" transform="translate(0,0)"/>
<path d="" fill="#F6953D" transform="translate(0,0)"/>
<path d="" fill="#FB9D2D" transform="translate(0,0)"/>
<path d="" fill="#8E83A9" transform="translate(0,0)"/>
<path d="" fill="#D29145" transform="translate(0,0)"/>
<path d="" fill="#A296C3" transform="translate(0,0)"/>
<path d="" fill="#AB9BE0" transform="translate(0,0)"/>
<path d="" fill="#E49E66" transform="translate(0,0)"/>
<path d="" fill="#F48F36" transform="translate(0,0)"/>
<path d="" fill="#8878BF" transform="translate(0,0)"/>
<path d="" fill="#FC9F55" transform="translate(0,0)"/>
<path d="" fill="#9284CB" transform="translate(0,0)"/>
<path d="" fill="#E08234" transform="translate(0,0)"/>
<path d="" fill="#7E70BB" transform="translate(0,0)"/>
<path d="" fill="#D87E34" transform="translate(0,0)"/>
<path d="" fill="#A193DA" transform="translate(0,0)"/>
<path d="" fill="#F88F3C" transform="translate(0,0)"/>
<path d="" fill="#7F73BB" transform="translate(0,0)"/>
<path d="" fill="#F89140" transform="translate(0,0)"/>
<path d="" fill="#8D83BF" transform="translate(0,0)"/>
<path d="" fill="#8F84C8" transform="translate(0,0)"/>
<path d="" fill="#EF9848" transform="translate(0,0)"/>
<path d="" fill="#EB9E46" transform="translate(0,0)"/>
<path d="" fill="#9F98B3" transform="translate(0,0)"/>
<path d="" fill="#EC855D" transform="translate(0,0)"/>
<path d="" fill="#907ECF" transform="translate(0,0)"/>
<path d="" fill="#D97478" transform="translate(0,0)"/>
<path d="" fill="#DF827D" transform="translate(0,0)"/>
<path d="" fill="#FFAEBA" transform="translate(0,0)"/>
<path d="" fill="#D6878F" transform="translate(0,0)"/>
<path d="" fill="#E47780" transform="translate(0,0)"/>
<path d="" fill="#C8777E" transform="translate(0,0)"/>
<path d="" fill="#D37A7F" transform="translate(0,0)"/>
<path d="" fill="#CD767A" transform="translate(0,0)"/>
<path d="" fill="#CA7277" transform="translate(0,0)"/>
<path d="" fill="#D77178" transform="translate(0,0)"/>
<path d="" fill="#D07779" transform="translate(0,0)"/>
<path d="" fill="#D3737A" transform="translate(0,0)"/>
<path d="" fill="#D4767A" transform="translate(0,0)"/>
<path d="" fill="#E48B8B" transform="translate(0,0)"/>
<path d="" fill="#D0747C" transform="translate(0,0)"/>
<path d="" fill="#CD7879" transform="translate(0,0)"/>
<path d="" fill="#D37681" transform="translate(0,0)"/>
<path d="" fill="#C57B7F" transform="translate(0,0)"/>
<path d="" fill="#CC7983" transform="translate(0,0)"/>
<path d="" fill="#C37C7F" transform="translate(0,0)"/>
<path d="" fill="#CF7984" transform="translate(0,0)"/>
<path d="" fill="#C47D7F" transform="translate(0,0)"/>
<path d="" fill="#CF7984" transform="translate(0,0)"/>
<path d="" fill="#FF9DA4" transform="translate(0,0)"/>
<path d="" fill="#DE7579" transform="translate(0,0)"/>
<path d="" fill="#D08583" transform="translate(0,0)"/>
<path d="" fill="#CB7E7B" transform="translate(0,0)"/>
</svg>
