<?xml version="1.0" encoding="UTF-8"?>
<svg version="1.1" xmlns="http://www.w3.org/2000/svg" width="323" height="201">
<path d="M0 0 C1.03735291 0.17889267 2.07470581 0.35778534 3.14349365 0.542099 C6.5299716 1.12919719 9.91355767 1.73129846 13.29711914 2.33496094 C15.66687515 2.75182633 18.03671403 3.16822086 20.40663147 3.58416748 C25.35259562 4.45488299 30.29708349 5.33346869 35.24072266 6.21728516 C41.575034 7.34874027 47.91316767 8.45693838 54.25266171 9.55893326 C59.13840758 10.41144168 64.02160695 11.27787137 68.90417671 12.14836884 C71.24092472 12.56291399 73.57851766 12.9727255 75.9169445 13.37769318 C79.17915892 13.94443994 82.43738674 14.53026103 85.6953125 15.12109375 C86.6590126 15.28437668 87.62271271 15.44765961 88.61561584 15.6158905 C93.65559441 16.55251233 97.3043945 17.39010777 100.89477539 21.31933594 C103.24226095 25.68308689 102.87047544 28.88475881 102.17442322 33.71827698 C102.07560221 34.42222707 101.9767812 35.12617717 101.87496561 35.85145909 C100.86424888 42.9027133 99.66830742 49.92360137 98.42041016 56.9362793 C98.17835962 58.3131252 97.93664042 59.69002939 97.69522095 61.06698608 C97.04816245 64.75109302 96.39606007 68.43428866 95.7425549 72.11725688 C95.19442348 75.2086879 94.64864936 78.30053343 94.10278553 81.39236552 C92.81482563 88.68681176 91.52251286 95.98047759 90.22753906 103.27368164 C88.89625521 110.77190181 87.57303426 118.27151428 86.25360447 125.77182859 C85.11448459 132.2452973 83.97007303 138.71781578 82.82152408 145.18961817 C82.13816332 149.04060272 81.45682489 152.89191651 80.78073311 156.74418449 C80.14574704 160.36103956 79.50413106 163.97665813 78.85754776 167.59145737 C78.51127613 169.5365839 78.17168554 171.48289616 77.83235168 173.429245 C74.84955902 190.00255534 74.84955902 190.00255534 71.20727539 194.31933594 C64.23878834 197.33273574 57.38305611 196.04651368 50.18359375 194.73632812 C49.14028397 194.55597519 48.09697418 194.37562225 47.02204895 194.18980408 C43.59077504 193.59346322 40.16275589 192.98030917 36.73461914 192.36621094 C34.34157159 191.94521104 31.94838588 191.52499575 29.55506897 191.10552979 C24.54643928 190.22504722 19.53933356 189.33647497 14.53320312 188.44189453 C8.12438917 187.29712552 1.71256681 186.1703864 -4.70044804 185.0494194 C-9.64043934 184.18425958 -14.57890512 183.3106417 -19.51693535 182.43436432 C-21.88036115 182.01579502 -24.24420691 181.59958975 -26.60847664 181.1858139 C-29.9150263 180.60559335 -33.21940267 180.01427341 -36.5234375 179.41992188 C-37.98165421 179.167248 -37.98165421 179.167248 -39.46932983 178.9094696 C-52.00542864 176.62233797 -52.00542864 176.62233797 -56.04272461 172.19433594 C-59.15447838 163.77429632 -56.19759036 153.88172424 -54.67431641 145.34790039 C-54.41254702 143.84904796 -54.1514258 142.35008221 -53.89089966 140.85101318 C-53.18515494 136.80245502 -52.4697131 132.75566847 -51.75193381 128.70922875 C-51.15253011 125.32488766 -50.55794388 121.93970751 -49.96334583 118.55451936 C-48.56062497 110.56888489 -47.15005688 102.58466453 -45.734375 94.60131836 C-44.27553747 86.37390143 -42.82918621 78.14435962 -41.38906926 69.913647 C-40.15003555 62.83450626 -38.90368424 55.75668124 -37.65137988 48.67987603 C-36.9044164 44.45848699 -36.1601223 40.23667314 -35.4227047 36.01360512 C-34.72937967 32.0451273 -34.02689413 28.07837798 -33.31738663 24.11276245 C-33.05896838 22.65971564 -32.80373708 21.20609779 -32.55197716 19.75188255 C-32.2070574 17.76264485 -31.84932572 15.77564146 -31.49101257 13.78877258 C-31.29467067 12.6777181 -31.09832876 11.56666361 -30.8960371 10.4219408 C-29.80049809 6.12379846 -28.41743589 2.64328516 -25.26496983 -0.53738022 C-18.22430616 -4.26442957 -7.50924567 -1.35533659 0 0 Z " fill="#EF1E23" transform="translate(213.105224609375,1.6806640625)"/>
<path d="M0 0 C3.15659634 -0.11322256 6.31197849 -0.18850086 9.46990204 -0.25336456 C10.43685186 -0.29141016 11.40380169 -0.32945576 12.40005302 -0.36865425 C17.08848463 -0.42431832 19.13386532 -0.43665495 22.94069672 2.52162933 C25.53996427 6.05545754 26.02311566 7.99177169 26.32492828 12.31772614 C26.40249516 13.40875295 26.48006205 14.49977976 26.55997944 15.62386799 C26.63990478 16.81946181 26.71983011 18.01505564 26.80217743 19.24687958 C26.88831897 20.4971503 26.97446051 21.74742102 27.06321239 23.03557873 C28.058415 37.73076742 28.88647793 52.43571534 29.68621063 67.14263153 C29.7255427 67.86539457 29.76487476 68.58815761 29.8053987 69.33282256 C30.17746843 76.17688782 30.54727929 83.02107236 30.91193867 89.86553669 C31.37323642 98.52057015 31.84596424 107.1748221 32.33330899 115.82842904 C32.67877941 121.97961071 33.0114104 128.13140678 33.33455485 134.28380126 C33.52670375 137.93551853 33.72440748 141.5867284 33.93612862 145.23736763 C34.17052846 149.28413361 34.37836466 153.3318465 34.58391571 157.38018036 C34.65701462 158.57337387 34.73011353 159.76656738 34.80542755 160.99591827 C35.14011889 168.12435009 34.95897518 173.24210553 30.35417938 178.99810028 C26.58464854 181.82524841 21.89492728 181.45787393 17.38909149 181.69561005 C16.52333496 181.74452393 15.65757843 181.79343781 14.76558685 181.84383392 C11.88779034 182.00511942 9.00969686 182.16010833 6.13152313 182.31450653 C4.11300534 182.42501643 2.09449656 182.53569111 0.0759964 182.64652252 C-4.17511818 182.87884594 -8.42639757 183.10783501 -12.67780304 183.3347702 C-16.99060025 183.56533563 -21.30306711 183.80096814 -25.61530304 184.04180145 C-66.42936891 186.31949656 -66.42936891 186.31949656 -82.82941437 186.58794403 C-83.84375046 186.62061874 -84.85808655 186.65329346 -85.9031601 186.68695831 C-90.54685616 186.70402779 -92.46377498 186.65506886 -96.22809601 183.71904755 C-98.87742554 180.13275589 -99.32188457 178.14826561 -99.62796783 173.74472809 C-99.70723574 172.62623631 -99.78650364 171.50774454 -99.8681736 170.35535908 C-99.94932348 169.14006866 -100.03047337 167.92477823 -100.11408234 166.67266083 C-100.20079634 165.41355487 -100.28751034 164.15444891 -100.37685204 162.85718822 C-101.24694199 150.02085167 -101.97084597 137.17758697 -102.65363312 124.33013153 C-102.78526803 121.87413129 -102.91693171 119.41813258 -103.04862213 116.96213531 C-103.32104638 111.86753359 -103.59125841 106.77281987 -103.86017609 101.67803192 C-104.2012845 95.22397131 -104.55090292 88.77040147 -104.90253639 82.31690693 C-105.17645486 77.26267708 -105.44430978 72.20813817 -105.71060562 67.15350151 C-105.83679991 64.77650328 -105.9651016 62.39961575 -106.0957756 60.02285957 C-106.76644692 47.7834543 -107.29577377 35.54334842 -107.47345734 23.28594208 C-107.50230074 22.23708989 -107.53114414 21.18823771 -107.56086159 20.10760212 C-107.58937572 15.73096575 -107.59147177 12.9248336 -105.43784332 9.05042267 C-100.44115418 4.84879289 -95.49434889 4.73451406 -89.22248077 4.43706512 C-87.88691887 4.36347527 -87.88691887 4.36347527 -86.52437592 4.28839874 C-83.57826478 4.12837883 -80.63167576 3.98093079 -77.68488312 3.83403778 C-75.61717459 3.72537787 -73.54949713 3.61612527 -71.48184967 3.50630951 C-67.13605377 3.27739768 -62.79000405 3.05448461 -58.44367218 2.83599091 C-52.9402837 2.55903581 -47.43766137 2.26936689 -41.93516731 1.97523308 C-37.65388029 1.74754017 -33.37229316 1.52595163 -29.09059525 1.30613327 C-27.06644512 1.20169645 -25.04237486 1.09569723 -23.01839828 0.98794937 C-15.34750425 0.58257786 -7.67536452 0.30034755 0 0 Z " fill="#EF1E23" transform="translate(107.14582061767578,14.876899719238281)"/>
<path d="M0 0 C4.53648325 3.21398305 7.5547929 7.3831287 9.3046875 12.6328125 C10.34718722 23.05780967 7.51049206 30.09610687 1.2890625 38.27124023 C-2.91727175 43.2771299 -7.70272624 47.7622586 -12.3828125 52.3203125 C-14.45512414 54.33913691 -16.52048785 56.36471851 -18.58203125 58.39453125 C-19.49170654 59.28100342 -20.40138184 60.16747559 -21.33862305 61.08081055 C-23.55294307 63.47864409 -25.14215691 65.77417101 -26.6953125 68.6328125 C-29.33793159 67.59464072 -30.61139188 66.7454428 -32.328125 64.44140625 C-35.41185634 60.7826557 -38.98200292 58.20799614 -42.8203125 55.3828125 C-61.75466855 41.12928813 -61.75466855 41.12928813 -67.6953125 30.6328125 C-68.06785156 30.01535156 -68.44039062 29.39789063 -68.82421875 28.76171875 C-70.98221808 23.48768452 -70.7501005 16.47576041 -68.78515625 11.1796875 C-65.37267079 5.43003354 -60.30942548 0.32479489 -53.6953125 -1.3671875 C-46.78112069 -2.11179277 -40.5939635 -1.1602509 -34.86328125 2.9453125 C-33.43192229 4.12526181 -32.05707564 5.3731816 -30.6953125 6.6328125 C-30.05916016 5.92705078 -30.05916016 5.92705078 -29.41015625 5.20703125 C-20.64529161 -4.09720968 -11.30008528 -6.16048263 0 0 Z " fill="#FEFCFC" transform="translate(113.6953125,30.3671875)"/>
<path d="M0 0 C0.66 0 1.32 0 2 0 C3.05577355 1.15047009 4.05417393 2.35388347 5.0234375 3.578125 C9.00456519 8.25816635 13.49771275 11.42527467 18.625 14.75 C32.71220974 24.0615148 32.71220974 24.0615148 36.1875 29.4375 C36.92033203 30.54931641 36.92033203 30.54931641 37.66796875 31.68359375 C40.99890651 37.47610428 41.79662428 42.39507719 41 49 C38.88142906 56.19299234 33.95881833 60.76682043 27.5625 64.375 C20.68506997 66.05242196 16.17297404 64.96302754 10 62 C9.34 62 8.68 62 8 62 C10.15282792 68.75915806 12.25871039 73.73190043 17 79 C17 79.99 17 80.98 17 82 C11.98391475 83.0176403 7.21391694 83.11856434 2.125 83.0625 C1.34125 83.05798828 0.5575 83.05347656 -0.25 83.04882812 C-2.16670014 83.03714093 -4.08336048 83.01920908 -6 83 C-5.44768894 79.66887395 -4.67443922 77.11161262 -3 74.1875 C-0.84516975 70.08863811 -0.32843935 66.59815091 0 62 C-1.051875 62.66 -2.10375 63.32 -3.1875 64 C-8.91825099 66.86026787 -14.7386036 66.80106638 -21 66 C-26.8866994 63.26688957 -31.51001683 58.02838031 -34 52 C-35.4326193 42.85327679 -33.31312057 35.48802413 -28 28 C-22.53671277 22.13114123 -16.34565353 17.27109684 -10.0625 12.3125 C-5.45505987 8.63451465 -2.87612328 5.10279937 0 0 Z " fill="#020000" transform="translate(52,103)"/>
<path d="M0 0 C5.01791684 2.41935276 8.49958655 5.9991731 11 11 C11.48638291 16.3262915 11.72834004 21.278469 9.625 26.25 C6.40552107 29.62278745 2.88493127 32.39141998 -0.85546875 35.16796875 C-3.25207494 36.89637155 -3.25207494 36.89637155 -4 40 C-3.37351563 39.57847656 -2.74703125 39.15695313 -2.1015625 38.72265625 C-1.28429687 38.17480469 -0.46703125 37.62695312 0.375 37.0625 C1.18710938 36.51722656 1.99921875 35.97195312 2.8359375 35.41015625 C7.21100113 32.55925739 10.8474682 32.26861989 16 33 C21.11115099 35.15724587 24.94223447 38.3521964 28 43 C29.58655906 47.75967719 29.98149437 52.4270171 28.1640625 57.19140625 C25.25991229 62.3272692 21.52007763 65.83565302 16 68 C11.13202301 69.03827481 7.22661391 68.47352933 2.875 66.0625 C-2.1487463 62.55896551 -6.26328363 57.47343274 -9 52 C-9.69194842 64.88180497 -9.69194842 64.88180497 -5.875 77.01953125 C-5 79 -5 79 -5 83 C-12.59 81.68 -20.18 80.36 -28 79 C-27.67 77.35 -27.34 75.7 -27 74 C-25.515 73.505 -25.515 73.505 -24 73 C-22.92614618 71.2459957 -22.92614618 71.2459957 -22 69 C-21.25363281 67.59427734 -21.25363281 67.59427734 -20.4921875 66.16015625 C-19.95851562 65.13792969 -19.42484375 64.11570312 -18.875 63.0625 C-18.33617187 62.04285156 -17.79734375 61.02320313 -17.2421875 59.97265625 C-16.00659306 57.01577774 -15.73246857 55.15803407 -16 52 C-16.75925781 52.49371094 -17.51851562 52.98742187 -18.30078125 53.49609375 C-19.79158203 54.45708984 -19.79158203 54.45708984 -21.3125 55.4375 C-22.29863281 56.07558594 -23.28476563 56.71367187 -24.30078125 57.37109375 C-28.79334099 60.08223328 -32.84632341 60.52027592 -38 60 C-43.88229323 58.0000203 -48.23292345 53.53415311 -51 48 C-51.55674965 42.04706147 -51.54141118 37.02651909 -48 32 C-43.69634087 27.6759926 -40.57340323 25.21808502 -34.3125 24.6875 C-29.4958162 24.79336118 -25.84550098 26.08720503 -22 29 C-19.4217067 31.84248274 -17.1647847 34.83400237 -15 38 C-16.57513887 34.02070179 -18.14623848 30.75619813 -20.6875 27.3125 C-23.98643877 22.18414973 -23.89749001 16.90016581 -23 11 C-18.07976823 0.79507486 -10.47952887 -0.98759958 0 0 Z " fill="#040000" transform="translate(223,91)"/>
<path d="M0 0 C3.71897781 2.47931854 4.76025102 5.32914984 6.5625 9.25 C13.21323783 23.04360542 22.40845522 34.04448461 33 45 C29.58637129 47.78052464 25.83890643 49.69942511 21.9375 51.6875 C9.06132759 58.43016378 -2.7916382 67.63213255 -13 78 C-13.53367188 76.93523437 -14.06734375 75.87046875 -14.6171875 74.7734375 C-22.21558282 59.86849432 -31.06099898 46.45752692 -43.2578125 34.8515625 C-45 33 -45 33 -45 31 C-44.43192627 30.71914551 -43.86385254 30.43829102 -43.27856445 30.14892578 C-26.7621454 21.9182631 -13.41936863 12.63948548 0 0 Z " fill="#FEFCFC" transform="translate(268,23)"/>
</svg>
