<?xml version="1.0" encoding="UTF-8"?>
<svg version="1.1" xmlns="http://www.w3.org/2000/svg" width="512" height="512">
<path d="M0 0 C4.96620988 4.6199042 7.94162481 11.31244347 8.37361908 18.02318382 C8.39816612 19.85272422 8.39604516 21.6827587 8.37145996 23.51229858 C8.37784878 24.52918058 8.3842376 25.54606258 8.39082003 26.59375918 C8.4059907 29.97616429 8.38566025 33.35738313 8.36523438 36.73974609 C8.36873797 39.1749256 8.37439923 41.61010282 8.38204956 44.04527283 C8.39479881 49.95830544 8.38439045 55.87102448 8.36293632 61.78400658 C8.33883754 68.68104865 8.34064621 75.57801313 8.34324223 82.47508796 C8.34692735 94.78912732 8.32615252 107.10300498 8.29199219 119.41699219 C8.2589186 131.34379159 8.2447321 143.27042128 8.25097656 155.19726562 C8.25775448 168.2068494 8.25523957 181.21636223 8.23561716 194.22593558 C8.23405793 195.25981382 8.23405793 195.25981382 8.2324672 196.31457848 C8.23037643 197.69859556 8.22826546 199.0826126 8.22613403 200.46662962 C8.21926347 205.26462815 8.21856497 210.06260473 8.22001648 214.86060715 C8.22161418 221.33020216 8.20660141 227.79963782 8.18078995 234.26918221 C8.17365367 236.63782461 8.17153222 239.00648849 8.17490768 241.37513924 C8.19961171 262.80457854 5.55164654 280.32998809 -9.25 296.9375 C-10.12205078 297.94876953 -10.12205078 297.94876953 -11.01171875 298.98046875 C-21.97564178 310.86379832 -38.28553618 318.44220197 -54.4296875 319.17578125 C-75.82039675 319.68421529 -93.37659857 313.9911483 -109.25 298.9375 C-122.35084728 285.30522506 -128.25451721 267.81142786 -128.3203125 249.13378906 C-127.70041755 229.77068142 -118.8424608 212.58718483 -104.9921875 199.375 C-91.51902701 187.39885734 -75.02840143 182.86062946 -57.29296875 182.57421875 C-51.19959916 183.12173892 -45.23211584 184.65561803 -39.25 185.9375 C-39.58 147.9875 -39.91 110.0375 -40.25 70.9375 C-57.95591797 73.53625 -57.95591797 73.53625 -76.01953125 76.1875 C-83.47978317 77.28148632 -90.9400507 78.37536429 -98.40039062 79.46875 C-110.2522196 81.20577206 -122.10398095 82.94324715 -133.95532227 84.68359375 C-142.58542305 85.95090532 -151.21574243 87.21671577 -159.84632987 88.48070908 C-164.41794268 89.15029891 -168.98944098 89.82065012 -173.56067848 90.49279785 C-177.8604623 91.12500725 -182.16053481 91.75521398 -186.46084023 92.38386536 C-188.04160956 92.61531855 -189.62227067 92.84751223 -191.20281601 93.08049011 C-193.35598044 93.39776246 -195.50951364 93.7124008 -197.66316223 94.02636719 C-199.47310276 94.29184357 -199.47310276 94.29184357 -201.31960773 94.56268311 C-204.25 94.9375 -204.25 94.9375 -207.25 94.9375 C-207.24723462 95.97080256 -207.24446924 97.00410511 -207.24162006 98.06871986 C-207.17491984 123.25108366 -207.12567457 148.43343595 -207.09456348 173.61586952 C-207.07911719 185.79407523 -207.0580705 197.97222246 -207.02368164 210.15039062 C-206.99371073 220.76911789 -206.97440875 231.38780279 -206.96773452 242.00657117 C-206.96383528 247.62526978 -206.95471832 253.24384722 -206.93280983 258.86250687 C-206.91232306 264.15988249 -206.90619069 269.45708796 -206.91067696 274.75449944 C-206.90985718 276.69014729 -206.90396466 278.62580133 -206.89238358 280.56141472 C-206.75838054 304.13054257 -211.78214039 323.0862179 -228.1015625 340.84375 C-241.40309888 353.80670182 -259.50255412 359.50800244 -277.78540039 359.35717773 C-296.19767525 358.71109656 -313.50163068 350.98443514 -326.359375 337.76953125 C-339.88583891 322.11972707 -344.49296884 303.75177343 -343.45703125 283.45849609 C-341.98692444 265.55717193 -332.05718019 249.21328423 -318.5625 237.6875 C-304.65357712 227.16941702 -287.69505969 221.65295352 -270.25 222.9375 C-267.62226654 223.40667201 -265.02036777 223.90373897 -262.41015625 224.453125 C-261.71925903 224.59508301 -261.02836182 224.73704102 -260.31652832 224.88330078 C-258.62692197 225.23101052 -256.93835052 225.58374274 -255.25 225.9375 C-255.25184359 225.03873925 -255.25368717 224.1399785 -255.25558662 223.21398258 C-255.29978472 201.32971697 -255.33286587 179.44545906 -255.35362434 157.56115818 C-255.3639302 146.97801166 -255.37797735 136.39489496 -255.40087891 125.81176758 C-255.4208339 116.58587703 -255.43372146 107.36000809 -255.43817699 98.13409656 C-255.44078079 93.25055481 -255.44688652 88.36707485 -255.46146011 83.48355293 C-255.47507733 78.88305343 -255.47921428 74.28264093 -255.47621536 69.68212318 C-255.47676367 67.99755123 -255.48071638 66.31297625 -255.48841095 64.62842178 C-255.58739155 41.832582 -255.58739155 41.832582 -247.78515625 33.34375 C-240.30998557 26.16758615 -229.85625343 25.36028845 -219.99829102 23.94458008 C-218.81481079 23.76857773 -217.63133057 23.59257538 -216.4119873 23.41123962 C-213.19579641 22.93470416 -209.97872269 22.4648595 -206.76102948 21.99859452 C-204.06201856 21.6065247 -201.3637319 21.20959249 -198.66543525 20.81264132 C-192.29411311 19.87535215 -185.92173507 18.94551767 -179.54858398 18.02075195 C-173.00114273 17.07059413 -166.45540298 16.10933141 -159.91043144 15.1423195 C-154.26424099 14.30841898 -148.61716417 13.48073253 -142.96932358 12.65808219 C-139.60788037 12.16844887 -136.24677899 11.67673821 -132.88647652 11.17933083 C-129.13575188 10.62598643 -125.38368349 10.08283551 -121.63110352 9.54223633 C-120.53622116 9.37863617 -119.44133881 9.21503601 -118.3132782 9.04647827 C-100.32353503 6.49084766 -100.32353503 6.49084766 -95.5625 9.8125 C-94.25 11.9375 -94.25 11.9375 -94.25 13.9375 C-92.331875 13.4734375 -92.331875 13.4734375 -90.375 13 C-85.36241278 11.87635167 -80.36489044 11.34327419 -75.25 10.9375 C-75.146875 10.174375 -75.04375 9.41125 -74.9375 8.625 C-74.15545951 5.56793264 -73.74094806 4.80771084 -71.25 2.9375 C-68.07006836 2.08276367 -68.07006836 2.08276367 -64.15234375 1.41796875 C-63.44730209 1.29584518 -62.74226044 1.17372162 -62.01585388 1.04789734 C-59.76273904 0.6630186 -57.50715761 0.29785801 -55.25 -0.0625 C-54.52758118 -0.17978455 -53.80516235 -0.29706909 -53.06085205 -0.41790771 C-48.71556519 -1.11973392 -44.36572271 -1.78460351 -40.01098633 -2.42504883 C-37.7881207 -2.75360343 -35.56697623 -3.09250568 -33.34570312 -3.43164062 C-21.33896117 -5.23054327 -10.72045759 -6.80336732 0 0 Z " fill="#DB97E8" transform="translate(504.25,39.0625)"/>
<path d="M0 0 C4.37983582 3.97240924 6.81561142 8.74209081 7.18920898 14.69116211 C7.20855469 16.19893305 7.2058312 17.70711269 7.18359375 19.21484375 C7.18504898 20.02562881 7.18650421 20.83641388 7.18800354 21.67176819 C7.18635418 23.37520973 7.17490173 25.07866768 7.15405273 26.78198242 C7.12511119 29.36507637 7.13346156 31.94611033 7.14648438 34.52929688 C7.14024473 36.19532231 7.13185202 37.86134136 7.12109375 39.52734375 C7.12402939 40.28699936 7.12696503 41.04665497 7.12998962 41.82933044 C6.99939218 49.38962128 5.21973483 56.53035067 0.0625 62.25 C-0.85402344 63.31154297 -0.85402344 63.31154297 -1.7890625 64.39453125 C-9.15487306 70.35787324 -17.92994175 71.50211185 -27.0703125 72.796875 C-29.02395218 73.08803192 -29.02395218 73.08803192 -31.01705933 73.3850708 C-33.75750687 73.79284648 -36.49900466 74.19209999 -39.24169922 74.58447266 C-42.7413146 75.08530641 -46.23834904 75.60199137 -49.73480415 76.12438583 C-53.09575004 76.62551241 -56.45800868 77.11743723 -59.8203125 77.609375 C-61.06837677 77.7936908 -62.31644104 77.97800659 -63.60232544 78.16790771 C-64.77399261 78.33518372 -65.94565979 78.50245972 -67.15283203 78.67480469 C-68.17603546 78.8226239 -69.19923889 78.97044312 -70.25344849 79.1227417 C-73.62458104 79.46961129 -76.92561839 79.45763657 -80.3125 79.4375 C-80.31065641 80.45018763 -80.30881283 81.46287525 -80.30691338 82.50625038 C-80.26244361 107.18791271 -80.22961498 131.86956983 -80.20887566 156.55126381 C-80.19857879 168.48731539 -80.18454891 180.42334045 -80.16162109 192.359375 C-80.14163849 202.76715119 -80.12877202 213.17490816 -80.12432301 223.58270299 C-80.12172387 229.08958973 -80.11564803 234.5964215 -80.10103989 240.10329056 C-80.08737893 245.29558241 -80.08329445 250.4877971 -80.08628464 255.68010521 C-80.08573826 257.57704654 -80.08181188 259.47399068 -80.07408905 261.37091637 C-79.97625318 286.6606118 -84.00100394 306.74649107 -102.3125 325.4375 C-102.90417969 326.06527344 -103.49585937 326.69304687 -104.10546875 327.33984375 C-116.72837778 339.62837108 -134.31732779 343.96490572 -151.38354492 343.85766602 C-170.62982394 343.31888725 -187.23091203 334.96860564 -200.52734375 321.1328125 C-214.25209469 305.06352637 -217.61425695 286.93013119 -216.57128906 266.31347656 C-215.5804755 255.30235977 -211.22597699 243.35097699 -203.3125 235.4375 C-198.98732178 234.18547472 -198.98732178 234.18547472 -196.3984375 235.15234375 C-195.71007812 235.24644531 -195.02171875 235.34054687 -194.3125 235.4375 C-192.20346419 233.89923216 -192.20346419 233.89923216 -190.3125 231.6875 C-187.79900493 228.95800144 -185.42372951 226.48572609 -182.3125 224.4375 C-181.6525 224.4375 -180.9925 224.4375 -180.3125 224.4375 C-180.415625 223.2 -180.51875 221.9625 -180.625 220.6875 C-180.80078125 218.578125 -180.80078125 218.578125 -180.3125 216.4375 C-172.70999391 208.80699205 -159.91649264 207.47604054 -149.625 207.25 C-142.40509563 207.30455847 -135.18114316 208.14795228 -128.3125 210.4375 C-128.31526538 209.52843179 -128.31803076 208.61936357 -128.32087994 207.68274784 C-128.38717529 185.54813743 -128.4367979 163.41354417 -128.46793652 141.27885532 C-128.48339573 130.5746205 -128.50446721 119.87045201 -128.53881836 109.16625977 C-128.56874962 99.83489354 -128.58808188 90.50357537 -128.59476548 81.17216247 C-128.59867141 76.23269606 -128.60783128 71.29336708 -128.62969017 66.35394478 C-128.65011416 61.70088755 -128.65632186 57.04802387 -128.65182304 52.39492607 C-128.6526456 50.69099754 -128.65857594 48.98706226 -128.67011642 47.28317261 C-128.74123156 36.2378356 -128.72130983 26.79258041 -121.203125 18.04296875 C-115.16614692 12.91652662 -109.4440856 11.59928957 -101.78125 10.55078125 C-100.71136841 10.39217117 -99.64148682 10.2335611 -98.53918457 10.07014465 C-96.13240992 9.71390053 -93.72475371 9.36357872 -91.31640625 9.01812744 C-87.00365681 8.39747934 -82.69715597 7.73791528 -78.390625 7.07568359 C-71.06037093 5.95027516 -63.72729572 4.8452583 -56.39173889 3.7549572 C-52.14734796 3.123854 -47.90374343 2.48823399 -43.66162109 1.84204102 C-39.47807691 1.20486432 -35.29299119 0.5789382 -31.10658264 -0.03912926 C-29.53367183 -0.27323931 -27.9613305 -0.51121311 -26.38963318 -0.75333595 C-7.69009634 -3.62740393 -7.69009634 -3.62740393 0 0 Z " fill="#FEE16F" transform="translate(216.3125,152.5625)"/>
<path d="M0 0 C4.96620988 4.6199042 7.94162481 11.31244347 8.37361908 18.02318382 C8.39816612 19.85272422 8.39604516 21.6827587 8.37145996 23.51229858 C8.37784878 24.52918058 8.3842376 25.54606258 8.39082003 26.59375918 C8.4059907 29.97616429 8.38566025 33.35738313 8.36523438 36.73974609 C8.36873797 39.1749256 8.37439923 41.61010282 8.38204956 44.04527283 C8.39479881 49.95830544 8.38439045 55.87102448 8.36293632 61.78400658 C8.33883754 68.68104865 8.34064621 75.57801313 8.34324223 82.47508796 C8.34692735 94.78912732 8.32615252 107.10300498 8.29199219 119.41699219 C8.2589186 131.34379159 8.2447321 143.27042128 8.25097656 155.19726562 C8.25775448 168.2068494 8.25523957 181.21636223 8.23561716 194.22593558 C8.23405793 195.25981382 8.23405793 195.25981382 8.2324672 196.31457848 C8.23037643 197.69859556 8.22826546 199.0826126 8.22613403 200.46662962 C8.21926347 205.26462815 8.21856497 210.06260473 8.22001648 214.86060715 C8.22161418 221.33020216 8.20660141 227.79963782 8.18078995 234.26918221 C8.17365367 236.63782461 8.17153222 239.00648849 8.17490768 241.37513924 C8.19961171 262.80457854 5.55164654 280.32998809 -9.25 296.9375 C-10.12205078 297.94876953 -10.12205078 297.94876953 -11.01171875 298.98046875 C-21.97564178 310.86379832 -38.28553618 318.44220197 -54.4296875 319.17578125 C-75.82039675 319.68421529 -93.37659857 313.9911483 -109.25 298.9375 C-122.35084728 285.30522506 -128.25451721 267.81142786 -128.3203125 249.13378906 C-127.70041755 229.77068142 -118.8424608 212.58718483 -104.9921875 199.375 C-91.51902701 187.39885734 -75.02840143 182.86062946 -57.29296875 182.57421875 C-51.19959916 183.12173892 -45.23211584 184.65561803 -39.25 185.9375 C-39.58 147.9875 -39.91 110.0375 -40.25 70.9375 C-57.95591797 73.53625 -57.95591797 73.53625 -76.01953125 76.1875 C-83.47978317 77.28148632 -90.9400507 78.37536429 -98.40039062 79.46875 C-110.2522196 81.20577206 -122.10398095 82.94324715 -133.95532227 84.68359375 C-142.58542305 85.95090532 -151.21574243 87.21671577 -159.84632987 88.48070908 C-164.41794268 89.15029891 -168.98944098 89.82065012 -173.56067848 90.49279785 C-177.8604623 91.12500725 -182.16053481 91.75521398 -186.46084023 92.38386536 C-188.04160956 92.61531855 -189.62227067 92.84751223 -191.20281601 93.08049011 C-193.35598044 93.39776246 -195.50951364 93.7124008 -197.66316223 94.02636719 C-199.47310276 94.29184357 -199.47310276 94.29184357 -201.31960773 94.56268311 C-204.25 94.9375 -204.25 94.9375 -207.25 94.9375 C-207.24723462 95.97080256 -207.24446924 97.00410511 -207.24162006 98.06871986 C-207.17491984 123.25108366 -207.12567457 148.43343595 -207.09456348 173.61586952 C-207.07911719 185.79407523 -207.0580705 197.97222246 -207.02368164 210.15039062 C-206.99371073 220.76911789 -206.97440875 231.38780279 -206.96773452 242.00657117 C-206.96383528 247.62526978 -206.95471832 253.24384722 -206.93280983 258.86250687 C-206.91232306 264.15988249 -206.90619069 269.45708796 -206.91067696 274.75449944 C-206.90985718 276.69014729 -206.90396466 278.62580133 -206.89238358 280.56141472 C-206.75838054 304.13054257 -211.78214039 323.0862179 -228.1015625 340.84375 C-241.40309888 353.80670182 -259.50255412 359.50800244 -277.78540039 359.35717773 C-296.19767525 358.71109656 -313.50163068 350.98443514 -326.359375 337.76953125 C-339.88583891 322.11972707 -344.49296884 303.75177343 -343.45703125 283.45849609 C-341.98692444 265.55717193 -332.05718019 249.21328423 -318.5625 237.6875 C-304.65357712 227.16941702 -287.69505969 221.65295352 -270.25 222.9375 C-267.62226654 223.40667201 -265.02036777 223.90373897 -262.41015625 224.453125 C-261.71925903 224.59508301 -261.02836182 224.73704102 -260.31652832 224.88330078 C-258.62692197 225.23101052 -256.93835052 225.58374274 -255.25 225.9375 C-255.25184359 225.03873925 -255.25368717 224.1399785 -255.25558662 223.21398258 C-255.29978472 201.32971697 -255.33286587 179.44545906 -255.35362434 157.56115818 C-255.3639302 146.97801166 -255.37797735 136.39489496 -255.40087891 125.81176758 C-255.4208339 116.58587703 -255.43372146 107.36000809 -255.43817699 98.13409656 C-255.44078079 93.25055481 -255.44688652 88.36707485 -255.46146011 83.48355293 C-255.47507733 78.88305343 -255.47921428 74.28264093 -255.47621536 69.68212318 C-255.47676367 67.99755123 -255.48071638 66.31297625 -255.48841095 64.62842178 C-255.58739155 41.832582 -255.58739155 41.832582 -247.78515625 33.34375 C-240.30998557 26.16758615 -229.85625343 25.36028845 -219.99829102 23.94458008 C-218.81481079 23.76857773 -217.63133057 23.59257538 -216.4119873 23.41123962 C-213.19579641 22.93470416 -209.97872269 22.4648595 -206.76102948 21.99859452 C-204.06201856 21.6065247 -201.3637319 21.20959249 -198.66543525 20.81264132 C-192.29411311 19.87535215 -185.92173507 18.94551767 -179.54858398 18.02075195 C-173.00114273 17.07059413 -166.45540298 16.10933141 -159.91043144 15.1423195 C-154.26424099 14.30841898 -148.61716417 13.48073253 -142.96932358 12.65808219 C-139.60788037 12.16844887 -136.24677899 11.67673821 -132.88647652 11.17933083 C-129.13575188 10.62598643 -125.38368349 10.08283551 -121.63110352 9.54223633 C-120.53622116 9.37863617 -119.44133881 9.21503601 -118.3132782 9.04647827 C-100.58185026 6.52754403 -100.58185026 6.52754403 -95.5625 9.5625 C-93.85940917 12.6442834 -93.74320584 14.46234004 -94.25 17.9375 C-95.89344701 21.02813457 -96.87925655 21.81891872 -100.25512695 22.89868164 C-101.46644287 23.10871826 -102.67775879 23.31875488 -103.92578125 23.53515625 C-104.58798172 23.6535939 -105.25018219 23.77203156 -105.93244934 23.89405823 C-108.03540572 24.26270994 -110.14122164 24.60388075 -112.25 24.9375 C-113.23948639 25.09711212 -113.23948639 25.09711212 -114.2489624 25.25994873 C-118.97153516 26.01467367 -123.70295724 26.70019067 -128.4375 27.375 C-129.92404021 27.58999124 -131.41053027 27.8053295 -132.89697266 28.02099609 C-137.34719968 28.66533537 -141.79848702 29.30211517 -146.25 29.9375 C-147.57341033 30.12675275 -148.89681547 30.31604174 -150.22021484 30.50537109 C-155.01576759 31.19098382 -159.81147882 31.87547241 -164.60742188 32.55834961 C-179.87964299 34.73488431 -195.1265716 37.03884939 -210.35131836 39.52734375 C-214.81897866 40.25328183 -219.27754289 40.96831482 -223.7734375 41.49609375 C-225.00320313 41.64175781 -226.23296875 41.78742188 -227.5 41.9375 C-229.02367187 42.0921875 -229.02367187 42.0921875 -230.578125 42.25 C-234.08961407 43.15354105 -235.71890394 44.32692564 -238.25 46.9375 C-238.74349638 49.74380712 -238.90897289 51.94586574 -238.85559082 54.74986267 C-238.86041867 55.5419617 -238.86524652 56.33406073 -238.87022066 57.15016276 C-238.88046933 59.80760536 -238.85511596 62.46352262 -238.83007812 65.12084961 C-238.83034472 67.02463436 -238.83287705 68.92841996 -238.83750916 70.8321991 C-238.8429178 74.93349537 -238.83284725 79.0343621 -238.8110199 83.13560295 C-238.77720524 89.61895111 -238.78123428 96.10193392 -238.7911377 102.58534241 C-238.8081422 117.51938086 -238.77533181 132.45323369 -238.74221039 147.38722992 C-238.71237074 161.07065946 -238.69298081 174.75388721 -238.71387625 188.43734556 C-238.72228155 194.88399262 -238.70640997 201.32998955 -238.67208099 207.77654445 C-238.65565379 211.78551442 -238.65978388 215.79427146 -238.66952705 219.80325508 C-238.66978739 221.66368157 -238.66143775 223.52413198 -238.64388847 225.38447571 C-238.62110493 227.92298551 -238.62896728 230.45963066 -238.64440918 232.99815369 C-238.63032532 233.73570497 -238.61624146 234.47325625 -238.60173082 235.23315758 C-238.66087204 239.13549375 -239.14708862 240.80771619 -241.60279083 243.90465641 C-244.25 245.9375 -244.25 245.9375 -247.2109375 246.40234375 C-250.49650236 245.89979591 -252.90389144 244.97718496 -255.875 243.5 C-266.52329713 238.26533292 -280.56433848 238.00392373 -291.875 241.5625 C-306.42590811 247.37875282 -317.69235711 257.12195974 -323.9375 271.62890625 C-329.63798404 287.15948635 -327.97721608 301.23401631 -321.1875 316.0625 C-314.59779311 328.60509336 -304.34631033 336.6173861 -291.125 341.3125 C-276.56143393 345.35888354 -261.80439853 343.39135164 -248.671875 336.0234375 C-237.06595291 328.60104546 -229.25043461 318.13536238 -225.25 304.9375 C-224.33623274 299.68049523 -224.10466466 294.6287512 -224.11196899 289.3155365 C-224.10773707 288.05109745 -224.10773707 288.05109745 -224.10341966 286.76111418 C-224.09511844 283.95002695 -224.0937393 281.13897932 -224.09228516 278.32788086 C-224.08761382 276.30705149 -224.08246973 274.28622318 -224.07688904 272.26539612 C-224.06563161 267.92040544 -224.05718628 263.57542154 -224.05076981 259.23042107 C-224.04007188 252.36017694 -224.01982403 245.48998172 -223.99765015 238.61976624 C-223.93578028 219.08597036 -223.88167001 199.55217807 -223.84863281 180.01831055 C-223.83029824 169.22486837 -223.80138187 158.43150883 -223.7606281 147.63812739 C-223.73954839 141.9281584 -223.72409935 136.21829356 -223.72182083 130.50828362 C-223.71967633 125.14102453 -223.70382709 119.77398271 -223.67743111 114.40678978 C-223.67023068 112.43715869 -223.66814073 110.46750129 -223.67153358 108.49785995 C-223.67542545 105.8091422 -223.66098322 103.12111935 -223.64199829 100.43247986 C-223.64752799 99.6531964 -223.65305768 98.87391293 -223.65875494 98.07101482 C-223.59024641 92.45066535 -222.28135152 88.52084921 -218.8125 84.109375 C-213.72752302 79.48204595 -208.94962343 78.68370503 -202.25 77.9375 C-200.25237867 77.69028938 -198.25477239 77.44294242 -196.25756836 77.19238281 C-194.28642325 76.94968019 -192.31315888 76.72437695 -190.33984375 76.5 C-187.35581321 76.12777471 -184.44277717 75.58636627 -181.5 74.96875 C-175.80626537 73.79444781 -170.0841632 73.10699822 -164.3125 72.4375 C-158.56096497 71.76777551 -152.84182242 71.08745361 -147.15234375 70 C-138.25774433 68.32084009 -129.25577543 67.28887944 -120.28369141 66.11474609 C-112.18410822 65.05168588 -104.1159916 63.98357164 -96.08935547 62.45117188 C-90.34083963 61.41119962 -84.55283307 60.60344247 -78.77270508 59.76025391 C-76.58309253 59.4405071 -74.39406709 59.11695387 -72.20507812 58.79296875 C-37.09224749 53.62569347 -37.09224749 53.62569347 -31 56.4375 C-25.70152298 61.25429729 -23.00968895 65.63887455 -22.61508179 72.90835571 C-22.58553359 75.25854572 -22.58329406 77.60917975 -22.60302734 79.95947266 C-22.58988495 81.89260567 -22.58988495 81.89260567 -22.57647705 83.86479187 C-22.55380081 87.37931401 -22.56246946 90.89309735 -22.57837248 94.4076314 C-22.59108727 98.09504628 -22.57927646 101.78240058 -22.57144165 105.46981812 C-22.56236349 111.65837901 -22.57428686 117.84664083 -22.59814453 124.03515625 C-22.62537672 131.1813555 -22.61651971 138.3268419 -22.5890125 145.47302401 C-22.56629852 151.62106081 -22.56313169 157.76888346 -22.57620585 163.91694868 C-22.58398484 167.58361264 -22.58508473 171.2499418 -22.56852341 174.91658401 C-22.55135287 179.00292229 -22.57517104 183.08803712 -22.60302734 187.17431641 C-22.59290619 188.38382462 -22.58278503 189.59333282 -22.57235718 190.8394928 C-22.68781885 199.97684081 -22.68781885 199.97684081 -25.57852173 203.73300171 C-28.25 205.9375 -28.25 205.9375 -31.640625 205.97265625 C-35.19603597 204.9529767 -38.56316846 203.73962429 -42 202.375 C-54.92421027 197.73431753 -69.72947598 198.26152911 -82.25 203.9375 C-95.38887998 210.86714427 -104.6366994 220.89688424 -109.6875 235 C-112.76363999 246.11122978 -112.93111239 259.26978571 -108.25 269.9375 C-107.68732422 271.22914063 -107.68732422 271.22914063 -107.11328125 272.546875 C-104.71051582 277.67075333 -101.96207608 281.69512734 -98.25 285.9375 C-98.25 286.5975 -98.25 287.2575 -98.25 287.9375 C-97.37601562 288.34355469 -97.37601562 288.34355469 -96.484375 288.7578125 C-94.26083007 289.93178203 -92.46258413 291.24729861 -90.5 292.8125 C-79.70642207 300.98222473 -67.74737159 304.10274071 -54.25 302.9375 C-39.74331131 300.72273837 -27.50648045 293.86637242 -18.25 282.4765625 C-7.78700797 267.45856102 -7.53179599 251.53451601 -7.66650391 233.95385742 C-7.66627679 231.57215766 -7.66385533 229.19045725 -7.65942383 226.8087616 C-7.65375363 220.38804238 -7.67888518 213.96778326 -7.71009874 207.54715133 C-7.73730799 201.50025578 -7.73713767 195.45333227 -7.73977904 189.40638629 C-7.74582152 177.43807684 -7.77482867 165.46993806 -7.81787109 153.50170898 C-7.85958062 141.89395812 -7.88783826 130.28628741 -7.89990234 118.6784668 C-7.90065056 117.96151365 -7.90139877 117.24456051 -7.90216966 116.50588151 C-7.90514413 113.62382651 -7.90808144 110.74177147 -7.91095594 107.85971637 C-7.9236785 95.44246775 -7.94741961 83.02523686 -7.9725942 70.60800818 C-7.9765749 68.59921148 -7.98029361 66.59041444 -7.98394823 64.58161712 C-7.99822489 56.96547554 -8.01761981 49.34938299 -8.04542542 41.73327827 C-8.05316087 39.42373531 -8.05921664 37.11418604 -8.06350327 34.80463409 C-8.06969933 31.66233656 -8.08204134 28.52012415 -8.09609985 25.37785339 C-8.09659761 24.45589635 -8.09709537 23.5339393 -8.09760821 22.58404416 C-8.10522002 21.32541262 -8.10522002 21.32541262 -8.11298561 20.04135418 C-8.11648158 18.95336483 -8.11648158 18.95336483 -8.12004817 17.84339589 C-8.18517018 15.71372289 -8.18517018 15.71372289 -9.25 12.9375 C-17.66127172 10.13374276 -27.5109836 12.61808315 -36.0625 13.8125 C-37.35220703 13.98652344 -38.64191406 14.16054688 -39.97070312 14.33984375 C-46.92532947 15.28964097 -53.8532041 16.33316742 -60.76831055 17.53808594 C-68.91697707 18.84956832 -68.91697707 18.84956832 -72.625 16.3125 C-74.64994536 13.35296447 -75.25 11.5323199 -75.25 7.9375 C-73.15867304 4.4504203 -71.88240549 3.14010529 -67.97241211 1.88745117 C-66.69116455 1.69127197 -65.40991699 1.49509277 -64.08984375 1.29296875 C-63.38931381 1.17986862 -62.68878387 1.06676849 -61.96702576 0.95024109 C-59.7305275 0.5936022 -57.49080763 0.26583211 -55.25 -0.0625 C-53.80057674 -0.29245599 -52.35151343 -0.5246931 -50.90283203 -0.75927734 C-47.27593856 -1.34113929 -43.64514426 -1.89057803 -40.01098633 -2.42504883 C-37.7881207 -2.75360343 -35.56697623 -3.09250568 -33.34570312 -3.43164062 C-21.33896117 -5.23054327 -10.72045759 -6.80336732 0 0 Z " fill="#020102" transform="translate(504.25,39.0625)"/>
<path d="M0 0 C4.37983582 3.97240924 6.81561142 8.74209081 7.18920898 14.69116211 C7.20855469 16.19893305 7.2058312 17.70711269 7.18359375 19.21484375 C7.18504898 20.02562881 7.18650421 20.83641388 7.18800354 21.67176819 C7.18635418 23.37520973 7.17490173 25.07866768 7.15405273 26.78198242 C7.12511119 29.36507637 7.13346156 31.94611033 7.14648438 34.52929688 C7.14024473 36.19532231 7.13185202 37.86134136 7.12109375 39.52734375 C7.12402939 40.28699936 7.12696503 41.04665497 7.12998962 41.82933044 C6.99939218 49.38962128 5.21973483 56.53035067 0.0625 62.25 C-0.85402344 63.31154297 -0.85402344 63.31154297 -1.7890625 64.39453125 C-9.15487306 70.35787324 -17.92994175 71.50211185 -27.0703125 72.796875 C-29.02395218 73.08803192 -29.02395218 73.08803192 -31.01705933 73.3850708 C-33.75750687 73.79284648 -36.49900466 74.19209999 -39.24169922 74.58447266 C-42.7413146 75.08530641 -46.23834904 75.60199137 -49.73480415 76.12438583 C-53.09575004 76.62551241 -56.45800868 77.11743723 -59.8203125 77.609375 C-61.06837677 77.7936908 -62.31644104 77.97800659 -63.60232544 78.16790771 C-64.77399261 78.33518372 -65.94565979 78.50245972 -67.15283203 78.67480469 C-68.17603546 78.8226239 -69.19923889 78.97044312 -70.25344849 79.1227417 C-73.62458104 79.46961129 -76.92561839 79.45763657 -80.3125 79.4375 C-80.31065641 80.45018763 -80.30881283 81.46287525 -80.30691338 82.50625038 C-80.26244361 107.18791271 -80.22961498 131.86956983 -80.20887566 156.55126381 C-80.19857879 168.48731539 -80.18454891 180.42334045 -80.16162109 192.359375 C-80.14163849 202.76715119 -80.12877202 213.17490816 -80.12432301 223.58270299 C-80.12172387 229.08958973 -80.11564803 234.5964215 -80.10103989 240.10329056 C-80.08737893 245.29558241 -80.08329445 250.4877971 -80.08628464 255.68010521 C-80.08573826 257.57704654 -80.08181188 259.47399068 -80.07408905 261.37091637 C-79.97625318 286.6606118 -84.00100394 306.74649107 -102.3125 325.4375 C-102.90417969 326.06527344 -103.49585937 326.69304687 -104.10546875 327.33984375 C-116.72837778 339.62837108 -134.31732779 343.96490572 -151.38354492 343.85766602 C-170.62982394 343.31888725 -187.23091203 334.96860564 -200.52734375 321.1328125 C-214.25209469 305.06352637 -217.61425695 286.93013119 -216.57128906 266.31347656 C-215.5804755 255.30235977 -211.22597699 243.35097699 -203.3125 235.4375 C-200.06585679 234.29678752 -198.78515377 234.21766104 -195.625 235.6875 C-193.3125 237.4375 -193.3125 237.4375 -191.3125 240.4375 C-191.3125 246.53940093 -193.97686288 251.08516803 -196.83984375 256.375 C-202.12993558 267.37614588 -202.05164184 280.92998814 -198.25 292.4375 C-196.14212231 298.06656019 -193.4644006 302.75637489 -189.765625 307.484375 C-188.3125 309.4375 -188.3125 309.4375 -187.3125 312.4375 C-186.00069655 313.14559175 -184.66323458 313.80683502 -183.3125 314.4375 C-181.98308053 315.5212362 -180.67179911 316.62743493 -179.375 317.75 C-168.73746671 326.20004717 -155.56118288 328.57422131 -142.3125 327.4375 C-127.57232268 324.66708261 -115.27179668 317.62773213 -106.3125 305.4375 C-97.36860616 291.15075491 -96.87145716 276.63214808 -96.92773438 260.33032227 C-96.92362211 258.32831006 -96.91815738 256.32630025 -96.91145325 254.32429504 C-96.89978999 250.0383024 -96.89722153 245.7524383 -96.90180969 241.46643257 C-96.9086511 234.68808102 -96.89269956 227.90989716 -96.87341309 221.13157654 C-96.83245473 205.53071639 -96.82100413 189.92986144 -96.80988312 174.3289566 C-96.79937303 160.0046071 -96.7826237 145.6803388 -96.74178743 131.35603946 C-96.72343402 124.61798953 -96.71953718 117.88013318 -96.72672272 111.14206421 C-96.72824341 106.95607716 -96.71746911 102.77018731 -96.70334435 98.58422661 C-96.69933917 96.643608 -96.70047099 94.70297098 -96.70711708 92.76235962 C-96.7154929 90.11339424 -96.7055153 87.46510216 -96.69104004 84.81617737 C-96.70138094 83.6650641 -96.70138094 83.6650641 -96.71193075 82.49069601 C-96.64364687 76.07617546 -95.05033734 72.17289656 -90.53125 67.66015625 C-87.08239082 65.27860179 -84.92111689 64.53663538 -80.8125 63.875 C-80.15813965 63.76551025 -79.5037793 63.65602051 -78.82958984 63.54321289 C-69.93756945 62.11354243 -60.98347472 61.01398361 -52.04882812 59.88256836 C-45.81069393 59.08578849 -39.66756478 58.17265491 -33.515625 56.8684082 C-28.9667436 55.97869459 -24.33997829 55.64432172 -19.73046875 55.1953125 C-15.90951402 54.34815225 -14.09505337 53.1429031 -11.3125 50.4375 C-9.75754302 47.32758604 -10.07173044 44.00405951 -9.99609375 40.5859375 C-9.9649221 39.42488998 -9.9649221 39.42488998 -9.93312073 38.24038696 C-9.86766552 35.76451608 -9.80875913 33.28853798 -9.75 30.8125 C-9.70681093 29.13540552 -9.66319652 27.45832193 -9.61914062 25.78125 C-9.51198829 21.66677692 -9.41070955 17.55219586 -9.3125 13.4375 C-9.84576904 13.53248779 -10.37903809 13.62747559 -10.9284668 13.7253418 C-26.21164857 16.4199281 -41.53452126 18.60232392 -56.9152832 20.64453125 C-58.49301088 20.85409457 -60.07072914 21.06372878 -61.6484375 21.2734375 C-62.40974472 21.37460876 -63.17105194 21.47578003 -63.95542908 21.58001709 C-70.64696777 22.47352196 -77.32489441 23.44520332 -83.99536133 24.48461914 C-87.5456078 25.03559458 -91.09099692 25.54369258 -94.66015625 25.95703125 C-95.35254395 26.03928955 -96.04493164 26.12154785 -96.75830078 26.20629883 C-98.58641597 26.41851078 -100.41619934 26.61622082 -102.24609375 26.8125 C-105.52566375 27.48094739 -107.61460182 28.47895323 -110.3125 30.4375 C-111.83281496 33.47812993 -111.44801091 36.6361205 -111.43707275 39.97138977 C-111.4384829 40.7576964 -111.43989305 41.54400302 -111.44134593 42.35413712 C-111.44501191 45.00344311 -111.44165683 47.652696 -111.43847656 50.30200195 C-111.43987071 52.19563845 -111.44176962 54.08927463 -111.44413757 55.98291016 C-111.44864121 60.06825829 -111.4504908 64.15359636 -111.45059967 68.23894691 C-111.45173776 74.69685551 -111.46455944 81.15470664 -111.48016357 87.6125946 C-111.48273643 88.70142466 -111.48530928 89.79025472 -111.4879601 90.91207963 C-111.49322685 93.13893195 -111.49851234 95.36578423 -111.50381613 97.59263647 C-111.53895921 112.6323231 -111.56547665 127.67193885 -111.56298828 142.71166992 C-111.56140108 152.84954518 -111.57740342 162.98722521 -111.61369491 173.12503785 C-111.63218085 178.49251461 -111.64147487 183.85966532 -111.62921906 189.22716713 C-111.61780297 194.27602199 -111.62943777 199.32429273 -111.65885353 204.37306976 C-111.66550762 206.22701396 -111.66360426 208.0810114 -111.65255547 209.93493462 C-111.63872786 212.4648784 -111.65552524 214.99283817 -111.67999268 217.5226593 C-111.6686373 218.25768388 -111.65728192 218.99270845 -111.64558244 219.7500065 C-111.7188742 223.64278367 -112.21529738 225.31504106 -114.66648483 228.40312481 C-117.3125 230.4375 -117.3125 230.4375 -120.28125 230.90234375 C-123.54083428 230.40248482 -125.87756481 229.4885519 -128.8125 228 C-138.47337757 223.1279195 -152.2977135 222.54247255 -162.75390625 225.3671875 C-164.53887018 226.08713123 -166.31506146 226.82953778 -168.078125 227.6015625 C-171.60873139 228.9224537 -173.74413815 228.55261308 -177.3125 227.4375 C-179.25 226.375 -179.25 226.375 -180.3125 224.4375 C-181.02029977 218.86357683 -181.02029977 218.86357683 -180.3125 216.4375 C-172.64823764 208.82938608 -159.95763086 207.47694409 -149.625 207.25 C-142.40509563 207.30455847 -135.18114316 208.14795228 -128.3125 210.4375 C-128.31526538 209.52843179 -128.31803076 208.61936357 -128.32087994 207.68274784 C-128.38717529 185.54813743 -128.4367979 163.41354417 -128.46793652 141.27885532 C-128.48339573 130.5746205 -128.50446721 119.87045201 -128.53881836 109.16625977 C-128.56874962 99.83489354 -128.58808188 90.50357537 -128.59476548 81.17216247 C-128.59867141 76.23269606 -128.60783128 71.29336708 -128.62969017 66.35394478 C-128.65011416 61.70088755 -128.65632186 57.04802387 -128.65182304 52.39492607 C-128.6526456 50.69099754 -128.65857594 48.98706226 -128.67011642 47.28317261 C-128.74123156 36.2378356 -128.72130983 26.79258041 -121.203125 18.04296875 C-115.16614692 12.91652662 -109.4440856 11.59928957 -101.78125 10.55078125 C-100.71136841 10.39217117 -99.64148682 10.2335611 -98.53918457 10.07014465 C-96.13240992 9.71390053 -93.72475371 9.36357872 -91.31640625 9.01812744 C-87.00365681 8.39747934 -82.69715597 7.73791528 -78.390625 7.07568359 C-71.06037093 5.95027516 -63.72729572 4.8452583 -56.39173889 3.7549572 C-52.14734796 3.123854 -47.90374343 2.48823399 -43.66162109 1.84204102 C-39.47807691 1.20486432 -35.29299119 0.5789382 -31.10658264 -0.03912926 C-29.53367183 -0.27323931 -27.9613305 -0.51121311 -26.38963318 -0.75333595 C-7.69009634 -3.62740393 -7.69009634 -3.62740393 0 0 Z " fill="#020201" transform="translate(216.3125,152.5625)"/>
<path d="M0 0 C2.83005889 1.10877505 4.53143687 2.16376107 6.03637695 4.84960938 C7.05590159 7.21001073 7.97638139 9.59101623 8.875 12 C11.88128973 19.57636378 15.14738678 26.39764643 20 33 C20.433125 33.62648437 20.86625 34.25296875 21.3125 34.8984375 C26.85669593 42.19169524 35.74705475 47.25114308 43.6875 51.5625 C46.54529586 53.31834915 47.66948065 54.72589132 48.6875 57.9375 C49.13071859 60.84851595 48.92983202 62.25561192 48.125 65.1875 C45.76851532 68.30637678 43.65055845 69.73860027 40.30859375 71.6640625 C25.04967354 80.49409755 15.60706514 91.83825216 9.12109375 108.19140625 C5.09917877 118.26721415 5.09917877 118.26721415 1 121 C-1.0859375 121.37109375 -1.0859375 121.37109375 -3.375 121.4375 C-4.12523437 121.47746094 -4.87546875 121.51742187 -5.6484375 121.55859375 C-9.26899796 120.69856029 -10.68269217 118.85965647 -13 116 C-14.08443249 113.45478954 -14.98375922 111.05746093 -15.8125 108.4375 C-18.47332586 100.7079695 -22.04616876 94.548283 -27 88 C-27.62390625 87.15695313 -28.2478125 86.31390625 -28.890625 85.4453125 C-34.81388503 78.57871847 -43.16530689 73.64638357 -51.0390625 69.2890625 C-53 68 -53 68 -55 65 C-55.77952309 60.61825969 -55.74469228 57.11703842 -53.25 53.375 C-50.52150053 51.10253868 -47.39715965 49.48884289 -44.3125 47.75 C-29.38579023 39.20738546 -20.12830665 26.71936738 -15.20214844 10.41772461 C-12.77605853 2.89971137 -8.17095435 -1.18850245 0 0 Z " fill="#000100" transform="translate(153,0)"/>
<path d="M0 0 C5.38942609 3.17424466 6.73501189 7.48131815 8.8125 13.0625 C11.97148598 21.02516474 15.35951473 27.47315276 21 34 C21.79277344 34.95712891 21.79277344 34.95712891 22.6015625 35.93359375 C26.95785932 40.75127176 32.33123046 43.81193953 37.9140625 47.0078125 C45.36475738 51.81775476 45.36475738 51.81775476 46.6640625 56.28125 C46.59466414 60.22307688 46.42845163 62.38588599 44.125 65.6875 C41.55877197 67.58650874 39.06643999 69.15835279 36.3125 70.75 C21.21767411 79.56466058 11.97562582 93.10137876 6.5 109.4375 C4.83704796 113.3870111 3.74899414 114.95509411 0 117 C-3.62128802 117.452661 -6.07241757 117.35991369 -9.4765625 116.0390625 C-13.20748457 113.02429266 -14.23542735 109.35381601 -15.875 104.9375 C-18.78886445 97.56240859 -21.9151264 91.15898174 -27 85 C-27.76054687 84.01902344 -28.52109375 83.03804688 -29.3046875 82.02734375 C-31.95909521 78.85714829 -34.9928124 76.6714584 -38.4375 74.375 C-39.52933594 73.64023437 -40.62117188 72.90546875 -41.74609375 72.1484375 C-43.92623092 70.70897118 -46.10854879 69.27280251 -48.29296875 67.83984375 C-50.98613168 66.00942566 -52.51657479 64.88443791 -54 62 C-54.62340863 57.79199175 -54.40295078 55.69077277 -52.25 52 C-48.82677617 48.32320403 -44.33527238 46.20671538 -40 43.7734375 C-26.49098827 35.7876415 -19.16396199 21.79981756 -13.9375 7.4375 C-12.75035152 4.40637908 -12.12968925 3.11917391 -9.6875 0.875 C-6.1936725 -0.26252523 -3.65508673 -0.45688584 0 0 Z " fill="#000100" transform="translate(370,359)"/>
<path d="M0 0 C5.30209464 2.24126398 6.67073738 5.71002288 8.875 10.6875 C13.51383318 20.46506886 18.15551656 26.48740472 27.86328125 31.67578125 C30 33 30 33 32 36 C32.5457383 39.06762372 32.50668532 41.92719868 32 45 C29.91176565 47.92352809 27.61607677 49.58689028 24.65234375 51.57421875 C15.45487248 57.74748378 11.03933303 64.19171313 6.53442383 74.25219727 C5.31795207 76.86871152 4.401115 78.72055393 2.00390625 80.390625 C-1.16262833 81.3535478 -3.71376168 81.34591982 -7 81 C-11.90188709 77.96329637 -13.57085413 74.31578046 -15.8125 69.25 C-20.36122462 59.62948525 -25.92976745 53.86390082 -35.1171875 48.421875 C-37.3064912 46.76854192 -38.08570339 45.57357563 -39 43 C-39.21392724 40.19151935 -38.83792254 37.68693827 -38 35 C-35.80931865 32.66798437 -33.39141015 31.24438299 -30.69140625 29.55859375 C-22.38785166 24.11136083 -17.34264684 17.96838176 -13.875 8.625 C-11.2331328 1.53543232 -7.71835986 -0.96479498 0 0 Z " fill="#000100" transform="translate(273,431)"/>
<path d="M0 0 C3.81411151 -0.44350134 5.50129587 -0.35794259 8.66734886 1.91447735 C11.91102545 6.20506218 11.69878133 9.43529483 11.63491821 14.68086243 C11.64271817 15.66206517 11.65051812 16.64326791 11.65855443 17.65420407 C11.67851626 20.94603817 11.66269223 24.23672153 11.64697266 27.52856445 C11.65374736 29.88755468 11.66264965 32.24653963 11.67352295 34.60551453 C11.69635372 41.01944274 11.68746038 47.43296959 11.67162752 53.84690499 C11.66273721 57.85775738 11.66441579 61.86855843 11.66907883 65.87941551 C11.66984499 66.54575592 11.67061116 67.21209632 11.67140054 67.89862886 C11.67299925 69.25252351 11.67462032 70.60641814 11.6762635 71.96031275 C11.69052598 84.6615041 11.67412685 97.36251515 11.64726166 110.06367692 C11.62497885 120.9338995 11.62875556 131.80385466 11.65185547 142.67407227 C11.67870256 155.31341311 11.68909325 167.95259521 11.67379415 180.59196061 C11.67220155 181.9441774 11.6706297 183.29639422 11.66907883 184.64861107 C11.66830745 185.31379942 11.66753607 185.97898777 11.66674132 186.66433335 C11.66244668 191.32417006 11.66991095 195.98390258 11.68147659 200.64373207 C11.69601086 206.94020407 11.68573625 213.2361762 11.65700531 219.53259468 C11.65043908 221.83343937 11.65221482 224.1343267 11.66331863 226.43515396 C11.7503463 246.31461424 9.34776481 263.15302296 -4.8125 278.3125 C-9.05186186 282.35197053 -13.86993547 285.22471919 -19 288 C-19 287.01 -19 286.02 -19 285 C-17.55570672 283.78222178 -16.10599774 282.56990341 -14.62158203 281.40136719 C-12.04741518 279.17677855 -10.24122869 276.47510182 -8.4375 273.625 C-8.05400391 273.02357178 -7.67050781 272.42214355 -7.27539062 271.80249023 C-0.19114791 260.18870739 2.15684874 247.63245959 2.13371277 234.16319275 C2.13597833 233.18955971 2.13824388 232.21592667 2.14057809 231.2127896 C2.14689409 227.95947453 2.14609028 224.70620137 2.14526367 221.45288086 C2.14825657 219.11678514 2.15165941 216.78068991 2.15544128 214.44459534 C2.16427004 208.10596352 2.16661887 201.76734521 2.16725707 195.42870784 C2.16820704 190.13765685 2.17188617 184.846609 2.17542917 179.55555922 C2.18324575 167.78851518 2.18609816 156.02147699 2.18542381 144.25443058 C2.18536388 143.19637441 2.18536388 143.19637441 2.18530273 142.11694336 C2.18526185 141.41070942 2.18522097 140.70447547 2.18517885 139.9768405 C2.1847721 128.52263993 2.19435075 117.06847218 2.2084411 105.61428111 C2.22280333 93.84607905 2.22971144 82.077893 2.22884732 70.30968195 C2.22859214 63.70545739 2.23145516 57.10127002 2.24202538 50.49705315 C2.25169013 44.28939063 2.25179667 38.08180102 2.24450874 31.87413597 C2.24346103 29.59488061 2.24583681 27.31562075 2.2518692 25.03637314 C2.25956532 21.927437 2.25496006 18.81875414 2.24723816 15.70982361 C2.25238172 14.8060298 2.25752529 13.90223599 2.26282471 12.97105449 C2.23684514 8.24448446 1.82812542 4.44361728 0 0 Z " fill="#D080E4" transform="translate(486,50)"/>
<path d="M0 0 C-0.03723809 26.58281565 -0.09720378 53.16549707 -0.18390274 79.74819946 C-0.22363809 92.09222621 -0.25605853 104.43618971 -0.27099609 116.78027344 C-0.28404115 127.54485342 -0.31107855 138.30929391 -0.35461307 149.07379532 C-0.37716367 154.76855755 -0.39291453 160.46314815 -0.39188385 166.15795898 C-0.39113345 171.52932474 -0.40923593 176.90031201 -0.44116783 182.27157974 C-0.44961515 184.23216142 -0.45145236 186.1927858 -0.44580269 188.15337753 C-0.39530141 208.39031245 -3.40829272 224.4145112 -17.609375 239.7265625 C-21.0820647 243.02902231 -24.86671087 245.5962432 -29 248 C-29 244.17961981 -28.07192617 243.7744229 -25.4375 241.125 C-11.36607114 225.68378603 -9.39022042 207.6586059 -9.53344727 187.74169922 C-9.53289735 185.74762343 -9.53051534 183.75354745 -9.52645874 181.75947571 C-9.52131684 177.49692204 -9.52825263 173.23462748 -9.54471016 168.97210312 C-9.56997255 162.23166208 -9.56350761 155.49147257 -9.55223083 148.75100708 C-9.52911054 132.02466966 -9.54752138 115.29840782 -9.57373047 98.57208252 C-9.59366803 85.53934682 -9.60229196 72.50681324 -9.57679409 59.47407734 C-9.56497519 52.77239067 -9.57663618 46.07128114 -9.6060468 39.36965442 C-9.61928337 35.20990232 -9.61189799 31.05037522 -9.59876633 26.89063072 C-9.59690726 24.96086299 -9.60364783 23.03106517 -9.61956978 21.10136223 C-9.64010513 18.46929272 -9.63002398 15.83905015 -9.61231995 13.20700073 C-9.62572168 12.44193423 -9.63912342 11.67686773 -9.65293127 10.8886174 C-9.59210535 6.96451223 -9.11197718 5.14743901 -6.71173 1.98706245 C-4 0 -4 0 0 0 Z " fill="#FED14F" transform="translate(121,227)"/>
<path d="M0 0 C2.48416047 2.26625166 3.99745023 4.56850685 5.625 7.5 C12.30464431 18.7361743 20.48929744 26.51092136 31 34 C28.17737121 36.8664282 25.34311727 39.6165115 22.25 42.1875 C13.2746122 50.03252881 6.89925056 58.74462709 1 69 C-1.48416047 66.73374834 -2.99745023 64.43149315 -4.625 61.5 C-10.00479313 52.41000472 -16.37686686 44.99383943 -24.8359375 38.65625 C-26.72680081 37.20909108 -28.36764985 35.72713177 -30 34 C-29.28714844 33.50371094 -28.57429688 33.00742187 -27.83984375 32.49609375 C-15.74276201 23.91579486 -6.24987002 13.63921909 0 0 Z " fill="#00D59F" transform="translate(149,26)"/>
<path d="M0 0 C0.66 0 1.32 0 2 0 C3.25301169 1.91707783 4.42597264 3.88665112 5.5625 5.875 C10.80842224 14.73354304 17.38192083 21.91860448 25.2734375 28.52734375 C26.93687488 29.94615799 28.47587289 31.43379577 30 33 C29.3709375 33.4846875 28.741875 33.969375 28.09375 34.46875 C17.29822441 42.92307727 10.10267678 51.40289082 3 63 C2.34 63.99 1.68 64.98 1 66 C0.45472656 65.03320312 -0.09054687 64.06640625 -0.65234375 63.0703125 C-7.69532286 50.8133511 -15.59794665 41.52178518 -27 33 C-24.6632606 30.58536928 -22.33586519 28.28144801 -19.7578125 26.12109375 C-11.0668765 18.77034881 -4.91957286 10.28637962 0 0 Z " fill="#6AE498" transform="translate(365,385)"/>
<path d="M0 0 C0.12405942 4.87458106 0.21455231 9.74823358 0.2746582 14.62402344 C0.299726 16.28076189 0.3337899 17.93739059 0.37719727 19.59375 C0.43819643 21.98204684 0.46628526 24.36887593 0.48828125 26.7578125 C0.51408768 27.49242706 0.5398941 28.22704163 0.56648254 28.98391724 C0.5685845 32.88150483 0.06313063 35.41733322 -2.33105469 38.43359375 C-7.65732985 43.55523705 -14.89767902 43.47187592 -21.9375 44.125 C-22.81212891 44.21136719 -23.68675781 44.29773438 -24.58789062 44.38671875 C-26.72470254 44.59689697 -28.86228122 44.79925518 -31 45 C-30.84152588 44.34298096 -30.68305176 43.68596191 -30.51977539 43.0090332 C-29.87754256 39.29108126 -29.76858603 35.61763843 -29.68359375 31.85546875 C-29.66281265 31.08568192 -29.64203156 30.31589508 -29.62062073 29.52278137 C-29.55553951 27.07777333 -29.49643409 24.63266317 -29.4375 22.1875 C-29.39427532 20.52407823 -29.35065979 18.86066656 -29.30664062 17.19726562 C-29.19990093 13.13161352 -29.09851829 9.06585929 -29 5 C-30.32 4.67 -31.64 4.34 -33 4 C-28.62607891 3.32612402 -24.25070694 2.66217242 -19.875 2 C-18.6375 1.80921875 -17.4 1.6184375 -16.125 1.421875 C-14.92617187 1.24140625 -13.72734375 1.0609375 -12.4921875 0.875 C-11.39245605 0.70742187 -10.29272461 0.53984375 -9.15966797 0.3671875 C-6.07368058 0.00856248 -3.10345276 -0.06542193 0 0 Z " fill="#FCD04F" transform="translate(207,166)"/>
<path d="M0 0 C2.44888386 2.91982306 4.56094102 5.89349753 6.5625 9.125 C11.84174887 17.14462233 18.90059012 23.89022524 27 29 C26.64808594 29.52207031 26.29617187 30.04414062 25.93359375 30.58203125 C21.85693537 36.65976476 17.90870984 42.81313679 14 49 C11.51583953 46.73374834 10.00254977 44.43149315 8.375 41.5 C2.99520687 32.41000472 -3.37686686 24.99383943 -11.8359375 18.65625 C-13.72680081 17.20909108 -15.36764985 15.72713177 -17 14 C-16.27554688 13.49210937 -15.55109375 12.98421875 -14.8046875 12.4609375 C-9.41946612 8.62665988 -4.49152425 4.85570189 0 0 Z " fill="#69E397" transform="translate(136,46)"/>
<path d="M0 0 C0.66 0 1.32 0 2 0 C3.25301169 1.91707783 4.42597264 3.88665112 5.5625 5.875 C10.80842224 14.73354304 17.38192083 21.91860448 25.2734375 28.52734375 C26.93687488 29.94615799 28.47587289 31.43379577 30 33 C29.32453125 33.53109375 28.6490625 34.0621875 27.953125 34.609375 C27.06109375 35.31578125 26.1690625 36.0221875 25.25 36.75 C24.36828125 37.44609375 23.4865625 38.1421875 22.578125 38.859375 C20.24152752 40.79945897 18.1061438 42.81512186 16 45 C4.37666385 39.67692349 -4.01580737 27.85768283 -10 17 C-9.52949219 16.27554687 -9.05898438 15.55109375 -8.57421875 14.8046875 C-3.93179183 7.59989702 -3.93179183 7.59989702 0 0 Z " fill="#00D49F" transform="translate(365,385)"/>
<path d="M0 0 C3.91942393 3.79694193 7.53473819 7.81197779 11.1328125 11.9140625 C12.70591369 13.67146006 14.3120285 15.35396568 16 17 C15.12988281 17.72703125 15.12988281 17.72703125 14.2421875 18.46875 C9.07936632 22.89889359 4.81956124 27.3680195 1 33 C0.46375 32.319375 -0.0725 31.63875 -0.625 30.9375 C-4.85392352 25.70698933 -9.17145933 20.68652477 -14 16 C-12.4840625 14.824375 -12.4840625 14.824375 -10.9375 13.625 C-6.3681994 9.74575704 -3.24650647 4.99310722 0 0 Z " fill="#00D39E" transform="translate(269,455)"/>
<path d="M0 0 C1.296875 1.57421875 1.296875 1.57421875 2.75 3.6875 C5.48396839 7.47869263 8.29179505 10.17470099 12 13 C10.6062718 17.43458973 8.39417765 19.87378374 5 23 C4.62488281 22.48050781 4.24976563 21.96101563 3.86328125 21.42578125 C0.82076041 17.27967603 -2.30538224 13.59476323 -6 10 C-7.02813611 8.68824014 -8.04084432 7.3630107 -9 6 C-7.8803014 4.99406757 -6.7540588 3.9954151 -5.625 3 C-4.68527344 2.1646875 -4.68527344 2.1646875 -3.7265625 1.3125 C-2 0 -2 0 0 0 Z " fill="#68E196" transform="translate(264,465)"/>
</svg>
