<svg width="26" height="26" viewBox="0 0 26 26" fill="none" xmlns="http://www.w3.org/2000/svg" class="mr-2 -rotate-[8deg]">
        <g filter="url(#filter0_d_11955_6964)">
          <g clippath="url(#clip0_11955_6964)">
            <path d="M24 0L-1.90735e-06 -1.04907e-06L-2.95642e-06 24L24 24L24 0Z" fill="#B2D565"></path>
            <g clippath="url(#clip1_11955_6964)">
              <path d="M1.79961 19.3602C1.79961 19.9788 4.66499 20.644 8.19961 20.644C11.7342 20.644 14.5996 19.9788 14.5996 19.3602C14.5996 18.7417 11.7342 18.2402 8.19961 18.2402C4.66499 18.2402 1.79961 18.7417 1.79961 19.3602Z" fill="#150C09"></path>
              <mask id="path-5-inside-1_11955_6964" fill="white">
                <path fillrule="evenodd" cliprule="evenodd" d="M14.3973 19.8028C17.9709 18.5279 20.3684 15.5603 20.7242 12.4235C20.9357 11.4484 21.1792 10.8184 21.3621 10.3453C21.603 9.72178 21.7387 9.37086 21.557 8.86168C21.3881 8.38827 21.0807 8.22171 20.5673 7.94357C20.1113 7.69648 19.4927 7.36133 18.6643 6.64478C16.4037 4.43946 12.6678 3.65831 9.0927 4.93373C5.56907 6.1908 3.18892 9.09354 2.78198 12.1815C2.59503 13.3396 2.31623 14.0243 2.11271 14.524C1.89196 15.0661 1.75977 15.3907 1.9294 15.8662C2.11186 16.3776 2.43939 16.5646 3.02136 16.8969C3.47501 17.1559 4.08325 17.5032 4.89788 18.1612C7.16528 20.3134 10.8601 21.0647 14.3973 19.8028Z"></path>
              </mask>
              <path fillrule="evenodd" cliprule="evenodd" d="M14.3973 19.8028C17.9709 18.5279 20.3684 15.5603 20.7242 12.4235C20.9357 11.4484 21.1792 10.8184 21.3621 10.3453C21.603 9.72178 21.7387 9.37086 21.557 8.86168C21.3881 8.38827 21.0807 8.22171 20.5673 7.94357C20.1113 7.69648 19.4927 7.36133 18.6643 6.64478C16.4037 4.43946 12.6678 3.65831 9.0927 4.93373C5.56907 6.1908 3.18892 9.09354 2.78198 12.1815C2.59503 13.3396 2.31623 14.0243 2.11271 14.524C1.89196 15.0661 1.75977 15.3907 1.9294 15.8662C2.11186 16.3776 2.43939 16.5646 3.02136 16.8969C3.47501 17.1559 4.08325 17.5032 4.89788 18.1612C7.16528 20.3134 10.8601 21.0647 14.3973 19.8028Z" fill="#F0CD29"></path>
              <path d="M20.7242 12.4235L19.7469 12.2115L19.7362 12.2608L19.7305 12.3108L20.7242 12.4235ZM21.3621 10.3453L22.2948 10.7058L22.2948 10.7058L21.3621 10.3453ZM20.5673 7.94357L21.0437 7.06433L21.0437 7.06433L20.5673 7.94357ZM18.6643 6.64478L17.966 7.36059L17.9875 7.3815L18.0101 7.40109L18.6643 6.64478ZM2.78198 12.1815L3.7692 12.3409L3.77151 12.3266L3.77341 12.3122L2.78198 12.1815ZM2.11271 14.524L1.18656 14.1469L1.18656 14.1469L2.11271 14.524ZM3.02136 16.8969L2.52552 17.7653L2.52552 17.7653L3.02136 16.8969ZM4.89788 18.1612L5.58631 17.4359L5.55733 17.4084L5.52624 17.3833L4.89788 18.1612ZM19.7305 12.3108C19.4229 15.0227 17.3209 17.6981 14.0613 18.8609L14.7333 20.7446C18.6209 19.3577 21.3138 16.098 21.7178 12.5362L19.7305 12.3108ZM20.4293 9.98482C20.2408 10.4726 19.9751 11.1598 19.7469 12.2115L21.7014 12.6356C21.8964 11.737 22.1177 11.1642 22.2948 10.7058L20.4293 9.98482ZM20.6151 9.19769C20.6459 9.2839 20.645 9.32171 20.6339 9.38328C20.6131 9.49866 20.5608 9.64462 20.4293 9.98482L22.2948 10.7058C22.5191 10.1255 22.8221 9.43184 22.4989 8.52566L20.6151 9.19769ZM20.091 8.82281C20.2242 8.89498 20.3193 8.94673 20.4007 8.99552C20.4796 9.04282 20.5234 9.07444 20.5498 9.09652C20.5729 9.11577 20.5806 9.12612 20.5842 9.13119C20.5879 9.13659 20.5996 9.1542 20.6151 9.19769L22.4989 8.52566C22.1851 7.64612 21.5216 7.32327 21.0437 7.06433L20.091 8.82281ZM18.0101 7.40109C18.9193 8.18753 19.6114 8.563 20.091 8.82281L21.0437 7.06433C20.6111 6.82996 20.0661 6.53512 19.3186 5.88847L18.0101 7.40109ZM9.42872 5.87559C12.6896 4.71224 16.0117 5.45408 17.966 7.36059L19.3626 5.92897C16.7957 3.42483 12.6459 2.60439 8.75669 3.99187L9.42872 5.87559ZM3.77341 12.3122C4.12565 9.63926 6.21549 7.02192 9.42872 5.87559L8.75669 3.99187C4.92265 5.35969 2.25219 8.54783 1.79055 12.0509L3.77341 12.3122ZM1.79476 12.0222C1.62545 13.071 1.37882 13.6748 1.18656 14.1469L3.03886 14.9012C3.25365 14.3738 3.56461 13.6083 3.7692 12.3409L1.79476 12.0222ZM1.18656 14.1469C0.980685 14.6524 0.67358 15.3221 0.987547 16.2022L2.87126 15.5302C2.85544 15.4858 2.85314 15.4639 2.85258 15.4566C2.85206 15.4496 2.85154 15.436 2.85722 15.406C2.86371 15.3718 2.87765 15.3191 2.90873 15.2322C2.94079 15.1425 2.98158 15.0418 3.03886 14.9012L1.18656 14.1469ZM0.987547 16.2022C1.31108 17.1091 1.9831 17.4556 2.52552 17.7653L3.51721 16.0285C3.19983 15.8473 3.06638 15.7667 2.97667 15.6897C2.92829 15.6482 2.9027 15.6183 2.87126 15.5302L0.987547 16.2022ZM2.52552 17.7653C2.96427 18.0158 3.51762 18.3318 4.26952 18.9392L5.52624 17.3833C4.64888 16.6746 3.98574 16.296 3.51721 16.0285L2.52552 17.7653ZM14.0613 18.8609C10.8355 20.0118 7.54829 19.2982 5.58631 17.4359L4.20945 18.8865C6.78227 21.3286 10.8847 22.1177 14.7333 20.7446L14.0613 18.8609Z" fill="black" mask="url(#path-5-inside-1_11955_6964)"></path>
              <ellipse cx="5.61284" cy="5.54832" rx="5.61284" ry="5.54832" transform="matrix(-0.941858 -0.336012 -0.336012 0.941858 20.9668 8.06836)" fill="#FFDE43"></ellipse>
              <circle cx="2" cy="2" r="2" transform="matrix(-1 0 0 1 19 7.99951)" fill="white"></circle>
              <circle cx="2" cy="2" r="2" transform="matrix(-1 0 0 1 11 7.99951)" fill="white"></circle>
              <circle cx="1" cy="1" r="1" transform="matrix(-1 0 0 1 10 8.99951)" fill="black"></circle>
              <circle cx="0.5" cy="0.5" r="0.5" transform="matrix(-1 0 0 1 10 8.99951)" fill="white"></circle>
              <circle cx="1" cy="1" r="1" transform="matrix(-1 0 0 1 18 8.99951)" fill="black"></circle>
              <path d="M15 10.9995C15 10.9995 14.4706 11.9995 13.5 11.9995C12.5294 11.9995 12 10.9995 12 10.9995" stroke="black" strokelinecap="round"></path>
              <circle cx="0.5" cy="0.5" r="0.5" transform="matrix(-1 0 0 1 18 8.99951)" fill="white"></circle>
            </g>
          </g>
          <rect x="0.5" y="0.5" width="23" height="23" stroke="black" shaperendering="crispEdges"></rect>
        </g>
        <defs>
          <filter id="filter0_d_11955_6964" x="0" y="0" width="26" height="26" filterUnits="userSpaceOnUse" colorinterpolationfilters="sRGB">
            <feFlood floodopacity="0" result="BackgroundImageFix"></feFlood>
            <feColorMatrix in="SourceAlpha" type="matrix" values="0 0 0 0 0 0 0 0 0 0 0 0 0 0 0 0 0 0 127 0" result="hardAlpha"></feColorMatrix>
            <feOffset dx="2" dy="2"></feOffset>
            <feComposite in2="hardAlpha" operator="out"></feComposite>
            <feColorMatrix type="matrix" values="0 0 0 0 0 0 0 0 0 0 0 0 0 0 0 0 0 0 1 0"></feColorMatrix>
            <feBlend mode="normal" in2="BackgroundImageFix" result="effect1_dropShadow_11955_6964"></feBlend>
            <feBlend mode="normal" in="SourceGraphic" in2="effect1_dropShadow_11955_6964" result="shape"></feBlend>
          </filter>
          <clipPath id="clip0_11955_6964">
            <rect width="24" height="24" fill="white"></rect>
          </clipPath>
          <clipPath id="clip1_11955_6964">
            <rect width="24" height="24" fill="white"></rect>
          </clipPath>
        </defs>
      </svg>