<?xml version="1.0" encoding="UTF-8"?>
<svg version="1.1" xmlns="http://www.w3.org/2000/svg" width="65" height="65">
<path d="M0 0 C7.70049358 5.35278212 14.99958983 11.77982923 16.921875 21.3359375 C17.89559748 33.29043401 17.40780227 42.16800487 9.484375 51.6484375 C2.68100227 58.91305583 -3.19783197 62.36396883 -13.25512695 62.74291992 C-24.25753724 62.89145662 -31.20749801 60.688985 -39.359375 53.0546875 C-46.39838468 46.01567782 -48.38317984 39.70891512 -48.515625 29.8984375 C-48.42627773 18.82056698 -44.8986248 12.1564373 -37.078125 4.3359375 C-27.9822881 -4.29344623 -11.11485854 -6.07439943 0 0 Z " fill="#FC6724" transform="translate(48.078125,2.6640625)"/>
<path d="M0 0 C3.375 1.6875 3.375 1.6875 6 4 C6.6640625 6.64453125 6.6640625 6.64453125 7 9 C8.73151972 8.40261053 10.46012147 7.79676033 12.1875 7.1875 C13.15042969 6.85105469 14.11335938 6.51460937 15.10546875 6.16796875 C18.04777044 5.0721043 18.04777044 5.0721043 20.71875 3.34375 C23 2 23 2 25.3125 2.3125 C25.869375 2.539375 26.42625 2.76625 27 3 C24.93703728 11.25185087 19.79094672 16.80175224 13.125 21.7734375 C5.47413837 26.18955984 -4.23087994 26.39629427 -12.6953125 24.34765625 C-20.65366657 21.11717454 -26.79779488 15.57371794 -30.40625 7.796875 C-31 6 -31 6 -31 3 C-29.24609375 2.35546875 -29.24609375 2.35546875 -27 2 C-25.03515625 2.92578125 -25.03515625 2.92578125 -23.0625 4.3125 C-20.11834841 6.29361135 -17.37859023 7.83860961 -14 9 C-13.773125 8.2575 -13.54625 7.515 -13.3125 6.75 C-10.43147061 0.71355746 -6.49914545 -0.91216076 0 0 Z " fill="#7F7875" transform="translate(35,37)"/>
<path d="M0 0 C7.70049358 5.35278212 14.99958983 11.77982923 16.921875 21.3359375 C17.89559748 33.29043401 17.40780227 42.16800487 9.484375 51.6484375 C2.68100227 58.91305583 -3.19783197 62.36396883 -13.25512695 62.74291992 C-24.25753724 62.89145662 -31.20749801 60.688985 -39.359375 53.0546875 C-46.39838468 46.01567782 -48.38317984 39.70891512 -48.515625 29.8984375 C-48.42627773 18.82056698 -44.8986248 12.1564373 -37.078125 4.3359375 C-27.9822881 -4.29344623 -11.11485854 -6.07439943 0 0 Z M-40.078125 11.3359375 C-44.24720433 16.75692167 -45.67021087 22.86866737 -46.453125 29.5234375 C-45.97510303 33.10860227 -44.52133619 34.74002561 -42.078125 37.3359375 C-42.738125 37.3359375 -43.398125 37.3359375 -44.078125 37.3359375 C-43.72704907 44.35745607 -39.6092894 48.87318295 -34.765625 53.5859375 C-26.03939051 59.2681367 -18.54209273 60.44040417 -8.078125 59.3359375 C-0.40806202 57.44912434 5.98283548 52.40591384 10.56640625 46.05859375 C13.36403999 41.63533263 13.36403999 41.63533263 13.54296875 36.5625 C13.33800781 35.82773437 13.13304687 35.09296875 12.921875 34.3359375 C13.581875 34.3359375 14.241875 34.3359375 14.921875 34.3359375 C15.6813848 24.42011509 13.56038141 17.11446161 7.109375 9.4609375 C0.86669676 2.89396429 -6.19478077 -0.65423058 -15.328125 -1.0390625 C-25.7258935 -0.78545839 -33.13340453 3.79473797 -40.078125 11.3359375 Z " fill="#787574" transform="translate(48.078125,2.6640625)"/>
<path d="M0 0 C1.46373047 0.74056641 1.46373047 0.74056641 2.95703125 1.49609375 C4.24213405 2.14333531 5.52729325 2.79046488 6.8125 3.4375 C7.77639648 3.92573242 7.77639648 3.92573242 8.75976562 4.42382812 C11.48265466 5.79232676 14.10449794 7.03483265 17 8 C20 13.22222222 20 13.22222222 20 16 C24.0574259 17.3524753 27.76222922 17.67655639 32 17 C35.28175318 14.47031526 36.69243777 12.92268669 38 9 C40.61839512 7.65858505 43.16250461 6.48830246 45.875 5.375 C46.60847656 5.06304687 47.34195313 4.75109375 48.09765625 4.4296875 C51.0461462 3.18369539 53.96147854 2.01284049 57 1 C54.74958072 8.87646749 50.64686154 14.34445029 44 19 C36.23811279 23.15815386 26.82156113 23.421544 18.3125 21.34375 C10.34753848 18.1356405 4.1994335 12.5677446 0.59375 4.796875 C0 3 0 3 0 0 Z " fill="#F9F9F9" transform="translate(4,40)"/>
<path d="M0 0 C0.47050781 0.40992188 0.94101562 0.81984375 1.42578125 1.2421875 C2.04839844 1.78101563 2.67101562 2.31984375 3.3125 2.875 C3.92738281 3.40867187 4.54226562 3.94234375 5.17578125 4.4921875 C7.13498212 6.1640447 7.13498212 6.1640447 10 8 C12.64 5.36 15.28 2.72 18 0 C19.65 1.32 21.3 2.64 23 4 C21.44499019 7.81684226 18.96404505 10.19195732 16 13 C17.55500981 16.81684226 20.03595495 19.19195732 23 22 C21.63016497 25.16115776 21.0109362 25.9927092 18 28 C15.36 25.36 12.72 22.72 10 20 C8.906875 20.94875 7.81375 21.8975 6.6875 22.875 C4.50465642 24.76954348 2.4165513 26.3889658 0 28 C-1.32 26.68 -2.64 25.36 -4 24 C-2.44499019 20.18315774 0.03595495 17.80804268 3 15 C1.44499019 11.18315774 -1.03595495 8.80804268 -4 6 C-2.84826645 3.53199953 -1.95216435 1.95216435 0 0 Z " fill="#FFFDFC" transform="translate(23,8)"/>
<path d="M0 0 C2.4375 1.625 2.4375 1.625 4 4 C4.45019252 7.60154012 4.41219248 10.02104287 3 13.375 C-0.07257926 15.87147065 -3.09270645 16.28886606 -7 16 C-10 14.625 -10 14.625 -12 12 C-12.70370851 8.85061601 -12.7093235 6.14870431 -12 3 C-8.42324245 -1.55223688 -5.38017918 -1.56514303 0 0 Z " fill="#FAFAFA" transform="translate(36,40)"/>
<path d="M0 0 C0.33 0 0.66 0 1 0 C1.0825 1.093125 1.165 2.18625 1.25 3.3125 C1.69819628 6.9202896 1.69819628 6.9202896 3.5625 9 C7.39209222 10.57111476 9.96973204 9.91006051 14 9 C14.66 8.01 15.32 7.02 16 6 C16.99 6.33 17.98 6.66 19 7 C14.54841981 12.78705425 14.54841981 12.78705425 11.01171875 13.2734375 C6.73115649 13.46048728 4.5731243 13.36679956 0.875 11 C-1.74522346 6.80764247 -1.04558592 4.74535149 0 0 Z " fill="#7D7D7D" transform="translate(23,45)"/>
<path d="M0 0 C3.59075147 1.33370769 6.84621398 2.80987082 10 5 C10.33 5.99 10.66 6.98 11 8 C6.38486888 6.68139111 2.90102388 4.78644563 -1 2 C-0.67 1.34 -0.34 0.68 0 0 Z " fill="#857F7C" transform="translate(6,39)"/>
<path d="M0 0 C0.33 0 0.66 0 1 0 C1.0825 1.093125 1.165 2.18625 1.25 3.3125 C1.61163131 7.03600693 1.61163131 7.03600693 4.0625 8.75 C4.701875 9.1625 5.34125 9.575 6 10 C6 10.99 6 11.98 6 13 C2.34683329 11.75023244 1.21934164 11.32901247 -1 8 C-0.96856707 5.26009592 -0.44521663 2.71582146 0 0 Z " fill="#8A8A8A" transform="translate(23,45)"/>
</svg>
