<svg width="142" height="142" viewBox="0 0 142 142" fill="none" xmlns="http://www.w3.org/2000/svg">
<g clip-path="url(#clip0_14_163)">
<rect width="142" height="142" rx="71" fill="white"/>
<rect x="11" y="11" width="120" height="120" rx="60" fill="#0F2C8A"/>
<g clip-path="url(#clip1_14_163)">
<mask id="mask0_14_163" style="mask-type:luminance" maskUnits="userSpaceOnUse" x="11" y="11" width="120" height="120">
<path d="M71 131C104.137 131 131 104.137 131 71C131 37.8629 104.137 11 71 11C37.8629 11 11 37.8629 11 71C11 104.137 37.8629 131 71 131Z" fill="white"/>
</mask>
<g mask="url(#mask0_14_163)">
<path d="M71 11H131V26L123.5 33.5L131 41V56L123.5 63.5L131 71V86L123.5 93.5L131 101V116L71 123.5L11 116V101L18.5 93.5L11 86V71L71 11Z" fill="#F2F2F2"/>
<path d="M63.5 26H131V41H63.5V26ZM63.5 56H131V71H71L63.5 56ZM11 86H131V101H11V86ZM11 116H131V131H11V116Z" fill="#B4123F"/>
<path d="M11 11H71V71H11V11Z" fill="#032D60"/>
<path d="M54.8281 67.9531L68.1875 58.3438H51.7812L65.1406 67.9531L59.9844 52.25L54.8281 67.9531ZM35.8438 67.9531L49.2031 58.3438H32.7969L46.1562 67.9531L41 52.25L35.8438 67.9531ZM16.8594 67.9531L30.2188 58.3438H13.8125L27.1719 67.9531L22.0156 52.25L16.8594 67.9531ZM54.8281 48.9688L68.1875 39.3594H51.7812L65.1406 48.9688L59.9844 33.2656L54.8281 48.9688ZM35.8438 48.9688L49.2031 39.3594H32.7969L46.1562 48.9688L41 33.2656L35.8438 48.9688ZM16.8594 48.9688L30.2188 39.3594H13.8125L27.1719 48.9688L22.0156 33.2656L16.8594 48.9688ZM54.8281 29.75L68.1875 20.1406H51.7812L65.1406 29.75L59.9844 14.0469L54.8281 29.75ZM35.8438 29.75L49.2031 20.1406H32.7969L46.1562 29.75L41 14.0469L35.8438 29.75ZM16.8594 29.75L30.2188 20.1406H13.8125L27.1719 29.75L22.0156 14.0469L16.8594 29.75Z" fill="#F2F2F2"/>
</g>
</g>
</g>
<defs>
<clipPath id="clip0_14_163">
<rect width="142" height="142" fill="white"/>
</clipPath>
<clipPath id="clip1_14_163">
<rect width="120" height="120" fill="white" transform="translate(11 11)"/>
</clipPath>
</defs>
</svg>
