<svg width="512" height="512" viewBox="0 0 512 512" fill="none" xmlns="http://www.w3.org/2000/svg">
<path d="M166 246C166 201.817 201.817 166 246 166H356C400.183 166 436 201.817 436 246V356C436 400.183 400.183 436 356 436H246C201.817 436 166 400.183 166 356V246Z" fill="#B58DCD"/>
<path d="M356 426V436H246V426H356ZM426 356V246C426 207.34 394.66 176 356 176H246C207.34 176 176 207.34 176 246V356C176 394.66 207.34 426 246 426V436C202.162 436 166.561 400.74 166.007 357.034L166 356V246C166 201.817 201.817 166 246 166H356L357.034 166.007C400.74 166.561 436 202.162 436 246V356L435.993 357.034C435.444 400.396 400.396 435.444 357.034 435.993L356 436V426C394.66 426 426 394.66 426 356Z" fill="black"/>
<path d="M76 156C76 111.817 111.817 76 156 76H266C310.183 76 346 111.817 346 156V266C346 310.183 310.183 346 266 346H156C111.817 346 76 310.183 76 266V156Z" fill="#B58DCD"/>
<path d="M266 336V346H156V336H266ZM336 266V156C336 117.34 304.66 86 266 86H156C117.34 86 86 117.34 86 156V266C86 304.66 117.34 336 156 336V346C112.162 346 76.5605 310.74 76.0068 267.034L76 266V156C76 111.817 111.817 76 156 76H266L267.034 76.0068C310.74 76.5605 346 112.162 346 156V266L345.993 267.034C345.444 310.396 310.396 345.444 267.034 345.993L266 346V336C304.66 336 336 304.66 336 266Z" fill="black"/>
<path d="M356 426V436H246V426H356ZM426 356V246C426 207.34 394.66 176 356 176H246C207.34 176 176 207.34 176 246V356C176 394.66 207.34 426 246 426V436C202.162 436 166.561 400.74 166.007 357.034L166 356V246C166 201.817 201.817 166 246 166H356L357.034 166.007C400.74 166.561 436 202.162 436 246V356L435.993 357.034C435.444 400.396 400.396 435.444 357.034 435.993L356 436V426C394.66 426 426 394.66 426 356Z" fill="black"/>
<path d="M166 246C166 201.817 201.817 166 246 166H346V266C346 310.183 310.183 346 266 346H166V246Z" fill="#6A1B9A"/>
<path d="M166 246C166 201.817 201.817 166 246 166H346V266C346 309.838 310.74 345.439 267.034 345.993L266 346V336C304.66 336 336 304.66 336 266V176H246C207.34 176 176 207.34 176 246V336H266V346H166V246Z" fill="black"/>
</svg>
