<?xml version="1.0" encoding="UTF-8"?>
<svg version="1.1" xmlns="http://www.w3.org/2000/svg" width="128" height="128">
<path d="M0 0 C1.32737434 -0.0098568 1.32737434 -0.0098568 2.68156433 -0.01991272 C5.61363815 -0.03964173 8.54566072 -0.05130847 11.4777832 -0.0612793 C12.48004251 -0.06535482 13.48230183 -0.06943035 14.51493263 -0.07362938 C19.82147643 -0.09449007 25.12799438 -0.10879088 30.43457031 -0.11816406 C35.9077369 -0.12921851 41.38049582 -0.16360746 46.85351849 -0.20333576 C51.06839233 -0.22952109 55.28316942 -0.2378577 59.49811745 -0.24144554 C61.51507121 -0.24630782 63.53202076 -0.25791153 65.54889488 -0.27648354 C68.37797398 -0.30091181 71.20600329 -0.29990299 74.03515625 -0.29296875 C74.86194885 -0.30577881 75.68874146 -0.31858887 76.54058838 -0.33178711 C83.64116639 -0.26863728 88.72879547 1.92095147 94.09106445 6.55200195 C99.88944267 13.31677653 101.48992071 18.0756697 101.51806641 26.8359375 C101.5246376 27.72085373 101.5312088 28.60576996 101.53797913 29.51750183 C101.55770814 32.44957565 101.56937488 35.38159822 101.5793457 38.3137207 C101.58342123 39.31598001 101.58749676 40.31823933 101.59169579 41.35087013 C101.61255648 46.65741393 101.62685728 51.96393188 101.63623047 57.27050781 C101.64728491 62.7436744 101.68167387 68.21643332 101.72140217 73.68945599 C101.7475875 77.90432983 101.7559241 82.11910692 101.75951195 86.33405495 C101.76437422 88.35100871 101.77597793 90.36795826 101.79454994 92.38483238 C101.81897821 95.21391148 101.81796939 98.04194079 101.81103516 100.87109375 C101.83025024 102.11128265 101.83025024 102.11128265 101.84985352 103.37652588 C101.78670368 110.47710389 99.59711494 115.56473297 94.96606445 120.92700195 C88.20128987 126.72538017 83.44239671 128.32585821 74.68212891 128.35400391 C73.79721268 128.3605751 72.91229645 128.3671463 72.00056458 128.37391663 C69.06849075 128.39364564 66.13646818 128.40531238 63.2043457 128.4152832 C62.20208639 128.41935873 61.19982708 128.42343426 60.16719627 128.42763329 C54.86065248 128.44849398 49.55413453 128.46279478 44.24755859 128.47216797 C38.774392 128.48322241 33.30163308 128.51761137 27.82861042 128.55733967 C23.61373657 128.583525 19.39895949 128.5918616 15.18401146 128.59544945 C13.16705769 128.60031172 11.15010814 128.61191543 9.13323402 128.63048744 C6.30415492 128.65491571 3.47612561 128.65390689 0.64697266 128.64697266 C-0.59321625 128.66618774 -0.59321625 128.66618774 -1.85845947 128.68579102 C-8.95903748 128.62264118 -14.04666656 126.43305244 -19.40893555 121.80200195 C-25.20731376 115.03722737 -26.80779181 110.27833421 -26.8359375 101.51806641 C-26.8425087 100.63315018 -26.8490799 99.74823395 -26.85585022 98.83650208 C-26.87557923 95.90442825 -26.88724597 92.97240568 -26.8972168 90.0402832 C-26.90129232 89.03802389 -26.90536785 88.03576458 -26.90956688 87.00313377 C-26.93042757 81.69658998 -26.94472838 76.39007203 -26.95410156 71.08349609 C-26.96515601 65.6103295 -26.99954496 60.13757058 -27.03927326 54.66454792 C-27.06545859 50.44967407 -27.0737952 46.23489699 -27.07738304 42.01994896 C-27.08224532 40.00299519 -27.09384903 37.98604564 -27.11242104 35.96917152 C-27.13684931 33.14009242 -27.13584049 30.31206311 -27.12890625 27.48291016 C-27.14171631 26.65611755 -27.15452637 25.82932495 -27.16772461 24.97747803 C-27.10457478 17.87690002 -24.91498603 12.78927094 -20.28393555 7.42700195 C-13.51916097 1.62862374 -8.7602678 0.02814569 0 0 Z " fill="#FCFCFC" transform="translate(26.658935546875,-0.177001953125)"/>
<path d="M0 0 C13.86 0 27.72 0 42 0 C42 13.86 42 27.72 42 42 C38.184375 42.061875 34.36875 42.12375 30.4375 42.1875 C28.65363892 42.22846802 28.65363892 42.22846802 26.83374023 42.27026367 C18.19727573 42.33787805 12.12440469 40.90628277 5.69238281 34.84936523 C-0.48315156 28.10099926 -0.52019613 20.12621852 -0.25 11.4375 C-0.1675 7.663125 -0.085 3.88875 0 0 Z " fill="#FDFDFD" transform="translate(2,84)"/>
<path d="M0 0 C13.86 0 27.72 0 42 0 C42.0825 3.774375 42.165 7.54875 42.25 11.4375 C42.28641602 12.60853271 42.32283203 13.77956543 42.36035156 14.98608398 C42.44413713 22.97071363 41.22461305 29.08999348 36.0703125 35.33984375 C35.42835937 35.86707031 34.78640625 36.39429688 34.125 36.9375 C33.16980469 37.75541016 33.16980469 37.75541016 32.1953125 38.58984375 C25.70918013 42.7562028 19.06355974 42.2380237 11.625 42.125 C7.78875 42.08375 3.9525 42.0425 0 42 C0 28.14 0 14.28 0 0 Z " fill="#FBFCFD" transform="translate(84,84)"/>
<path d="M0 0 C3.774375 0.0825 7.54875 0.165 11.4375 0.25 C11.4375 14.11 11.4375 27.97 11.4375 42.25 C-2.4225 42.25 -16.2825 42.25 -30.5625 42.25 C-30.624375 38.434375 -30.68625 34.61875 -30.75 30.6875 C-30.77731201 29.49825928 -30.80462402 28.30901855 -30.83276367 27.08374023 C-30.90037805 18.44727573 -29.46878277 12.37440469 -23.41186523 5.94238281 C-16.66349926 -0.23315156 -8.68871852 -0.27019613 0 0 Z " fill="#FCFCFC" transform="translate(32.5625,1.75)"/>
<path d="M0 0 C13.86 0 27.72 0 42 0 C42 11.88 42 23.76 42 36 C28.14 36 14.28 36 0 36 C0 24.12 0 12.24 0 0 Z " fill="#FCFDFE" transform="translate(2,46)"/>
<path d="M0 0 C11.88 0 23.76 0 36 0 C36 13.86 36 27.72 36 42 C24.12 42 12.24 42 0 42 C0 28.14 0 14.28 0 0 Z " fill="#FCFCFD" transform="translate(46,2)"/>
<path d="M0 0 C12.54 0 25.08 0 38 0 C38 12.54 38 25.08 38 38 C25.46 38 12.92 38 0 38 C0 25.46 0 12.92 0 0 Z " fill="#F8F9F9" transform="translate(45,45)"/>
<path d="M0 0 C0.33 0 0.66 0 1 0 C1 13.86 1 27.72 1 42 C13.54 42 26.08 42 39 42 C39 28.14 39 14.28 39 0 C39.33 0 39.66 0 40 0 C40 13.86 40 27.72 40 42 C53.86 42 67.72 42 82 42 C82 42.33 82 42.66 82 43 C68.14 43 54.28 43 40 43 C40 55.54 40 68.08 40 81 C53.86 81 67.72 81 82 81 C82 81.33 82 81.66 82 82 C68.14 82 54.28 82 40 82 C40 95.86 40 109.72 40 124 C48.58 123.67 57.16 123.34 66 123 C65.505 124.485 65.505 124.485 65 126 C53.2733075 126.09281176 41.54670285 126.16382189 29.81971741 126.20724869 C24.37398271 126.22809479 18.9284999 126.2563583 13.48291016 126.30175781 C8.22444188 126.34532136 2.96621542 126.36915949 -2.29241943 126.37950897 C-4.29542851 126.38688146 -6.29842484 126.40127822 -8.30133057 126.42292023 C-11.11393501 126.45209378 -13.92554907 126.45595017 -16.73828125 126.45410156 C-17.56043625 126.46848267 -18.38259125 126.48286377 -19.22966003 126.49768066 C-26.31840923 126.44749483 -31.39826154 124.24695594 -36.75 119.625 C-42.5428001 112.86673322 -44.15140703 108.15122984 -44.11352539 99.39770508 C-44.11367142 98.51944565 -44.11381744 97.64118622 -44.1139679 96.73631287 C-44.11327072 93.83069395 -44.10548739 90.92513898 -44.09765625 88.01953125 C-44.09579138 86.00599706 -44.0943678 83.99246242 -44.09336853 81.97892761 C-44.08954879 76.67708078 -44.07972312 71.37526131 -44.06866455 66.07342529 C-44.05843877 60.66418833 -44.0538684 55.25494696 -44.04882812 49.84570312 C-44.03810039 39.23045673 -44.02103046 28.61523064 -44 18 C-43.34 17.67 -42.68 17.34 -42 17 C-42 25.25 -42 33.5 -42 42 C-28.14 42 -14.28 42 0 42 C0 28.14 0 14.28 0 0 Z M1 43 C1 55.54 1 68.08 1 81 C13.54 81 26.08 81 39 81 C39 68.46 39 55.92 39 43 C26.46 43 13.92 43 1 43 Z M-42 44 C-42 55.88 -42 67.76 -42 80 C-28.14 80 -14.28 80 0 80 C0 68.12 0 56.24 0 44 C-13.86 44 -27.72 44 -42 44 Z M-42 82 C-42.0825 85.774375 -42.165 89.54875 -42.25 93.4375 C-42.28641602 94.60853271 -42.32283203 95.77956543 -42.36035156 96.98608398 C-42.44413713 104.97071363 -41.22461305 111.08999348 -36.0703125 117.33984375 C-35.42835937 117.86707031 -34.78640625 118.39429688 -34.125 118.9375 C-33.16980469 119.75541016 -33.16980469 119.75541016 -32.1953125 120.58984375 C-25.70918013 124.7562028 -19.06355974 124.2380237 -11.625 124.125 C-7.78875 124.08375 -3.9525 124.0425 0 124 C0 110.14 0 96.28 0 82 C-13.86 82 -27.72 82 -42 82 Z M2 82 C2 95.86 2 109.72 2 124 C13.88 124 25.76 124 38 124 C38 110.14 38 96.28 38 82 C26.12 82 14.24 82 2 82 Z " fill="#BFC6D2" transform="translate(44,2)"/>
<path d="M0 0 C1.32737434 -0.0098568 1.32737434 -0.0098568 2.68156433 -0.01991272 C5.61363815 -0.03964173 8.54566072 -0.05130847 11.4777832 -0.0612793 C12.48004251 -0.06535482 13.48230183 -0.06943035 14.51493263 -0.07362938 C19.82147643 -0.09449007 25.12799438 -0.10879088 30.43457031 -0.11816406 C35.9077369 -0.12921851 41.38049582 -0.16360746 46.85351849 -0.20333576 C51.06839233 -0.22952109 55.28316942 -0.2378577 59.49811745 -0.24144554 C61.51507121 -0.24630782 63.53202076 -0.25791153 65.54889488 -0.27648354 C68.37797398 -0.30091181 71.20600329 -0.29990299 74.03515625 -0.29296875 C74.86194885 -0.30577881 75.68874146 -0.31858887 76.54058838 -0.33178711 C83.64116639 -0.26863728 88.72879547 1.92095147 94.09106445 6.55200195 C99.88944267 13.31677653 101.48992071 18.0756697 101.51806641 26.8359375 C101.5246376 27.72085373 101.5312088 28.60576996 101.53797913 29.51750183 C101.55770814 32.44957565 101.56937488 35.38159822 101.5793457 38.3137207 C101.58342123 39.31598001 101.58749676 40.31823933 101.59169579 41.35087013 C101.61255648 46.65741393 101.62685728 51.96393188 101.63623047 57.27050781 C101.64728491 62.7436744 101.68167387 68.21643332 101.72140217 73.68945599 C101.7475875 77.90432983 101.7559241 82.11910692 101.75951195 86.33405495 C101.76437422 88.35100871 101.77597793 90.36795826 101.79454994 92.38483238 C101.81897821 95.21391148 101.81796939 98.04194079 101.81103516 100.87109375 C101.83025024 102.11128265 101.83025024 102.11128265 101.84985352 103.37652588 C101.78670368 110.47710389 99.59711494 115.56473297 94.96606445 120.92700195 C87.41918945 127.39575195 87.41918945 127.39575195 82.34106445 128.17700195 C83.62005413 124.19792297 85.97897546 123.19511608 89.52856445 121.30200195 C94.50284897 118.21451501 96.7960437 113.70802352 98.34106445 108.17700195 C98.69917666 105.18911378 98.69917666 105.18911378 98.75512695 102.12231445 C98.7907373 101.12216309 98.82634766 100.12201172 98.86303711 99.09155273 C98.91403564 97.2157251 98.91403564 97.2157251 98.96606445 95.30200195 C99.08981445 91.30075195 99.21356445 87.29950195 99.34106445 83.17700195 C85.48106445 83.17700195 71.62106445 83.17700195 57.34106445 83.17700195 C57.34106445 82.84700195 57.34106445 82.51700195 57.34106445 82.17700195 C71.20106445 82.17700195 85.06106445 82.17700195 99.34106445 82.17700195 C99.34106445 70.29700195 99.34106445 58.41700195 99.34106445 46.17700195 C85.48106445 46.17700195 71.62106445 46.17700195 57.34106445 46.17700195 C57.34106445 45.84700195 57.34106445 45.51700195 57.34106445 45.17700195 C71.20106445 45.17700195 85.06106445 45.17700195 99.34106445 45.17700195 C99.23793945 41.19637695 99.13481445 37.21575195 99.02856445 33.11450195 C99.00366943 31.8730542 98.97877441 30.63160645 98.953125 29.35253906 C98.67974903 21.11600725 97.61911464 14.86820775 91.88720703 8.51708984 C85.12145589 2.65301152 76.80197802 2.53703219 68.27856445 2.42700195 C64.33918945 2.34450195 60.39981445 2.26200195 56.34106445 2.17700195 C56.34106445 16.03700195 56.34106445 29.89700195 56.34106445 44.17700195 C56.01106445 44.17700195 55.68106445 44.17700195 55.34106445 44.17700195 C55.34106445 30.31700195 55.34106445 16.45700195 55.34106445 2.17700195 C43.46106445 2.17700195 31.58106445 2.17700195 19.34106445 2.17700195 C19.34106445 16.03700195 19.34106445 29.89700195 19.34106445 44.17700195 C19.01106445 44.17700195 18.68106445 44.17700195 18.34106445 44.17700195 C18.34106445 30.31700195 18.34106445 16.45700195 18.34106445 2.17700195 C14.42231445 2.23887695 10.50356445 2.30075195 6.46606445 2.36450195 C5.25192871 2.37118896 4.03779297 2.37787598 2.78686523 2.38476562 C-4.61642967 2.59499751 -10.5334187 3.84647127 -16.65893555 8.17700195 C-20.07067009 11.82777249 -22.49869282 15.6864974 -24.65893555 20.17700195 C-25.31893555 20.17700195 -25.97893555 20.17700195 -26.65893555 20.17700195 C-24.18762361 11.58357634 -21.29321072 6.88224371 -13.5612793 2.19262695 C-9.13072706 -0.17276028 -4.88536361 0.01569609 0 0 Z " fill="#BFC7D3" transform="translate(26.658935546875,-0.177001953125)"/>
<path d="M0 0 C0.33 0 0.66 0 1 0 C1 13.86 1 27.72 1 42 C13.54 42 26.08 42 39 42 C39 28.14 39 14.28 39 0 C39.33 0 39.66 0 40 0 C40 13.86 40 27.72 40 42 C53.86 42 67.72 42 82 42 C82 42.33 82 42.66 82 43 C68.14 43 54.28 43 40 43 C40 55.54 40 68.08 40 81 C53.86 81 67.72 81 82 81 C82 81.33 82 81.66 82 82 C68.14 82 54.28 82 40 82 C40 95.86 40 109.72 40 124 C39.67 124 39.34 124 39 124 C39 110.14 39 96.28 39 82 C26.46 82 13.92 82 1 82 C1 95.86 1 109.72 1 124 C0.67 124 0.34 124 0 124 C0 110.14 0 96.28 0 82 C-13.86 82 -27.72 82 -42 82 C-42 81.67 -42 81.34 -42 81 C-28.14 81 -14.28 81 0 81 C0 68.46 0 55.92 0 43 C-13.86 43 -27.72 43 -42 43 C-42 42.67 -42 42.34 -42 42 C-28.14 42 -14.28 42 0 42 C0 28.14 0 14.28 0 0 Z M1 43 C1 55.54 1 68.08 1 81 C13.54 81 26.08 81 39 81 C39 68.46 39 55.92 39 43 C26.46 43 13.92 43 1 43 Z " fill="#7C8084" transform="translate(44,2)"/>
<path d="M0 0 C2.9375 2 2.9375 2 5 4 C4.5020163 7.73487777 4.12508244 9.81237635 2 13 C2.99 13.33 3.98 13.66 5 14 C5.8125 16.6875 5.8125 16.6875 6 20 C4.03943204 22.90922988 2.54565275 24.6143643 -0.94140625 25.484375 C-4.95680124 25.75867143 -6.68511916 25.21848875 -10.0625 22.875 C-12 20 -12 20 -11.8125 16.6875 C-11.544375 15.800625 -11.27625 14.91375 -11 14 C-10.01 13.67 -9.02 13.34 -8 13 C-8.7734375 11.9171875 -8.7734375 11.9171875 -9.5625 10.8125 C-11 8 -11 8 -10.875 5.375 C-8.77995817 -0.31154211 -5.89048877 -0.71092106 0 0 Z " fill="#1F1F1F" transform="translate(67,92)"/>
<path d="M0 0 C2.4375 1.875 2.4375 1.875 4 4 C4 4.66 4 5.32 4 6 C0.125 4.125 0.125 4.125 -1 3 C-3.41537838 2.58282721 -3.41537838 2.58282721 -6 3 C-7.92154693 4.67316312 -7.92154693 4.67316312 -9 7 C-9 8.32 -9 9.64 -9 11 C-8.34 10.34 -7.68 9.68 -7 9 C-2.6194943 8.42144264 -0.68558638 8.5040439 2.9375 11.125 C5 14 5 14 5.625 17 C4.76936783 21.10703441 3.38121991 22.55401113 0 25 C-3.5 25.625 -3.5 25.625 -7 25 C-9.63016161 22.8272578 -11.47336894 21.05326212 -13 18 C-13.52071898 12.34218796 -13.74744693 7.58021291 -10 3 C-9.5875 2.401875 -9.175 1.80375 -8.75 1.1875 C-5.82312276 -0.79859527 -3.4179229 -0.41974492 0 0 Z " fill="#3F64B4" transform="translate(28,52)"/>
<path d="M0 0 C3.65907504 0.68607657 5.35167676 1.98984314 8 4.5625 C9.33827901 7.23905801 9.20578556 9.38684052 9.25 12.375 C9.27578125 13.41269531 9.3015625 14.45039062 9.328125 15.51953125 C8.85448969 19.91193492 7.07878057 22.48371943 4 25.5625 C-3.08571429 26.24821429 -3.08571429 26.24821429 -6.5 23.6875 C-8 21.5625 -8 21.5625 -8 19.5625 C-7.01 19.5625 -6.02 19.5625 -5 19.5625 C-4.34 20.5525 -3.68 21.5425 -3 22.5625 C-0.04279372 23.22930368 -0.04279372 23.22930368 3 22.5625 C5.31141604 19.71175356 6 18.2485549 6 14.5625 C5.34 15.2225 4.68 15.8825 4 16.5625 C-2.9273743 17.23289106 -2.9273743 17.23289106 -6.5 15 C-8.61006839 11.57113886 -8.62491523 9.52029649 -8 5.5625 C-5.54999553 2.17572911 -4.13607554 0.77551416 0 0 Z " fill="#456AB6" transform="translate(104,91.4375)"/>
<path d="M0 0 C0.99 0 1.98 0 3 0 C3 5.61 3 11.22 3 17 C4.32 17 5.64 17 7 17 C7 17.66 7 18.32 7 19 C5.68 19 4.36 19 3 19 C3 20.98 3 22.96 3 25 C2.34 25 1.68 25 1 25 C1 23.02 1 21.04 1 19 C-2.96 19 -6.92 19 -11 19 C-9.91735405 13.58677027 -8.27065624 11.01389123 -5.125 6.6875 C-4.67769531 6.04232422 -4.23039062 5.39714844 -3.76953125 4.73242188 C-2.59388263 3.09379659 -1.30353784 1.538841 0 0 Z " fill="#131313" transform="translate(107,52)"/>
<path d="M0 0 C2 1.125 2 1.125 3 3 C2.6875 6.5 2.6875 6.5 2 10 C2 10.99 2 11.98 2 13 C2.66 13.66 3.32 14.32 4 15 C3.9375 18.4375 3.9375 18.4375 3 22 C0.34366734 24.35275179 -1.51665917 24.9194432 -5 25.5 C-9.02810383 24.82864936 -10.4738989 23.12047783 -13 20 C-13 19.34 -13 18.68 -13 18 C-12.01 18 -11.02 18 -10 18 C-10 18.99 -10 19.98 -10 21 C-6.37 21 -2.74 21 1 21 C1 18.69 1 16.38 1 14 C-1.97 13.67 -4.94 13.34 -8 13 C-8 12.01 -8 11.02 -8 10 C-4.535 9.505 -4.535 9.505 -1 9 C-1 7.02 -1 5.04 -1 3 C-4.41642759 2.74984127 -4.41642759 2.74984127 -8 3 C-8.99 4.485 -8.99 4.485 -10 6 C-10.66 6 -11.32 6 -12 6 C-11.64267506 3.40939422 -11.1383604 2.15432506 -9.375 0.1875 C-5.92246609 -1.53876696 -3.67500368 -0.93545548 0 0 Z " fill="#363636" transform="translate(109,12)"/>
<path d="M0 0 C0.99 0.66 1.98 1.32 3 2 C3.37331109 5.42201828 3.63763183 7.90185629 1.875 10.9375 C-0.92162472 12.52225401 -2.8493196 12.45947423 -6 12 C-8.35210784 9.88310295 -8.91810953 8.55958485 -9.375 5.4375 C-9 3 -9 3 -7.875 1.1875 C-5.15523346 -0.53501881 -3.15413751 -0.32855599 0 0 Z " fill="#F3F5FA" transform="translate(27,63)"/>
<path d="M0 0 C3.06623653 0.08362463 3.99261095 0.28563739 6.625 2.0625 C8.46195992 4.89447988 8.58157179 6.04785452 8.125 9.375 C6.2265625 11.9453125 6.2265625 11.9453125 3.75 14.5 C1.27651289 17.08341987 -0.88767646 19.3940147 -2.875 22.375 C1.085 22.375 5.045 22.375 9.125 22.375 C9.125 23.035 9.125 23.695 9.125 24.375 C3.845 24.375 -1.435 24.375 -6.875 24.375 C-4.63943822 18.78609556 -2.17008507 16.63044567 2.2265625 12.75390625 C4.40924723 10.45743629 4.40924723 10.45743629 4.4609375 7.15234375 C4.42639537 4.47070204 4.42639537 4.47070204 3.125 3.375 C1.12541636 3.33419217 -0.87545254 3.33245644 -2.875 3.375 C-3.535 4.695 -4.195 6.015 -4.875 7.375 C-5.535 7.375 -6.195 7.375 -6.875 7.375 C-6.05760147 2.19814266 -5.60795739 0.54270555 0 0 Z " fill="#476BB7" transform="translate(63.875,11.625)"/>
<path d="M0 0 C1.8125 1.0625 1.8125 1.0625 3 3 C3.375 6.5625 3.375 6.5625 3 10 C-0.46923881 12.31282587 -1.92205575 12.42478586 -6 12 C-7.9375 10.9375 -7.9375 10.9375 -9 9 C-8.875 5.4375 -8.875 5.4375 -8 2 C-4.76746204 -0.15502531 -3.74849077 -0.46856135 0 0 Z " fill="#F5F7FB" transform="translate(107,94)"/>
<path d="M0 0 C5.28 0 10.56 0 16 0 C15.19752461 4.01237693 14.50349617 6.35389992 12.71484375 9.86328125 C12.26689453 10.74951172 11.81894531 11.63574219 11.35742188 12.54882812 C10.88884766 13.46083984 10.42027344 14.37285156 9.9375 15.3125 C9.46505859 16.24384766 8.99261719 17.17519531 8.50585938 18.13476562 C7.34262356 20.42598769 6.17386868 22.7142124 5 25 C4.01 24.67 3.02 24.34 2 24 C5.3 17.4 8.6 10.8 12 4 C8.04 3.67 4.08 3.34 0 3 C0 2.01 0 1.02 0 0 Z " fill="#607FC1" transform="translate(16,92)"/>
<path d="M0 0 C1.875 1.1875 1.875 1.1875 3 3 C3.375 5.5625 3.375 5.5625 3 8 C-0.67346771 10.44897847 -2.66356399 10.31537716 -7 10 C-9 8 -9 8 -9.3125 5.5625 C-9 3 -9 3 -7.875 1.1875 C-5.12844028 -0.55198782 -3.18153026 -0.39769128 0 0 Z " fill="#F3F3F3" transform="translate(67,105)"/>
<path d="M0 0 C3 0.25 3 0.25 5 2.25 C5.25 4.75 5.25 4.75 5 7.25 C3 9.25 3 9.25 0 9.5 C-3 9.25 -3 9.25 -5 7.25 C-5.25 4.75 -5.25 4.75 -5 2.25 C-3 0.25 -3 0.25 0 0 Z " fill="#F0F0F0" transform="translate(64,93.75)"/>
<path d="M0 0 C0.33 0 0.66 0 1 0 C1 4.62 1 9.24 1 14 C-1.97 14 -4.94 14 -8 14 C-6.67726488 10.40241608 -5.0805802 7.36262865 -2.9375 4.1875 C-2.14666016 3.00220703 -2.14666016 3.00220703 -1.33984375 1.79296875 C-0.89769531 1.20128906 -0.45554687 0.60960937 0 0 Z " fill="#F3F3F3" transform="translate(107,55)"/>
<path d="M0 0 C0 7.92 0 15.84 0 24 C-0.66 24 -1.32 24 -2 24 C-2 17.07 -2 10.14 -2 3 C-4.475 4.485 -4.475 4.485 -7 6 C-7.66 6 -8.32 6 -9 6 C-8 3 -8 3 -5.625 1.3125 C-3 0 -3 0 0 0 Z " fill="#0D0D0D" transform="translate(27,12)"/>
<path d="M0 0 C0.33 0 0.66 0 1 0 C1.1953125 1.98567708 1.390625 3.97135417 1.5859375 5.95703125 C1.92665391 8.29988142 1.92665391 8.29988142 4 11 C4.99 12.485 4.99 12.485 6 14 C7.97747122 14.36297936 7.97747122 14.36297936 10.125 14.1875 C11.40375 14.125625 12.6825 14.06375 14 14 C14.33 11.69 14.66 9.38 15 7 C15.33 7 15.66 7 16 7 C16.33 9.31 16.66 11.62 17 14 C14.49899342 16.40096632 13.04688447 16.99318044 9.5625 17.5 C5.10993081 16.87507801 3.78289736 15.43769674 1 12 C-0.26237731 9.47524538 -0.09856404 7.68799534 -0.0625 4.875 C-0.05347656 3.96492188 -0.04445313 3.05484375 -0.03515625 2.1171875 C-0.02355469 1.41851562 -0.01195312 0.71984375 0 0 Z " fill="#5777BD" transform="translate(15,60)"/>
<path d="M0 0 C1.9375 1.25 1.9375 1.25 3 3 C3.1875 5.6875 3.1875 5.6875 3 8 C2.34 8 1.68 8 1 8 C0.34 6.35 -0.32 4.7 -1 3 C-4.41642759 2.74984127 -4.41642759 2.74984127 -8 3 C-8.99 4.485 -8.99 4.485 -10 6 C-10.66 6 -11.32 6 -12 6 C-11.64267506 3.40939422 -11.1383604 2.15432506 -9.375 0.1875 C-5.92246609 -1.53876696 -3.67500368 -0.93545548 0 0 Z " fill="#323232" transform="translate(109,12)"/>
<path d="M0 0 C0.66 0.99 1.32 1.98 2 3 C-0.64 8.28 -3.28 13.56 -6 19 C-6.99 18.67 -7.98 18.34 -9 18 C-6.03 12.06 -3.06 6.12 0 0 Z " fill="#4D6FB9" transform="translate(27,98)"/>
<path d="M0 0 C2.11970075 3.49127182 2.11970075 3.49127182 1.5 6.125 C1.335 6.74375 1.17 7.3625 1 8 C1.66 8.66 2.32 9.32 3 10 C3.125 12.625 3.125 12.625 3 15 C1 12 1 12 1 10 C-1.97 9.67 -4.94 9.34 -8 9 C-8 8.01 -8 7.02 -8 6 C-4.535 5.505 -4.535 5.505 -1 5 C-0.67 3.35 -0.34 1.7 0 0 Z " fill="#3B3B3B" transform="translate(109,16)"/>
<path d="M0 0 C2.4375 1.875 2.4375 1.875 4 4 C4 4.66 4 5.32 4 6 C0.125 4.125 0.125 4.125 -1 3 C-3.37305578 2.58219121 -3.37305578 2.58219121 -6 3 C-8.18777466 4.9375006 -8.18777466 4.9375006 -10 7 C-10.66 7 -11.32 7 -12 7 C-9.23139237 0.82387528 -7.03754297 -0.86425966 0 0 Z " fill="#4A6EB8" transform="translate(28,52)"/>
<path d="M0 0 C1.97265625 0.265625 1.97265625 0.265625 4.97265625 2.265625 C4.64265625 4.245625 4.31265625 6.225625 3.97265625 8.265625 C3.66328125 7.62625 3.35390625 6.986875 3.03515625 6.328125 C2.13813995 4.32951679 2.13813995 4.32951679 0.97265625 3.265625 C-1.02692739 3.22481717 -3.02779629 3.22308144 -5.02734375 3.265625 C-5.68734375 4.585625 -6.34734375 5.905625 -7.02734375 7.265625 C-7.68734375 7.265625 -8.34734375 7.265625 -9.02734375 7.265625 C-8.02215459 0.89942699 -6.48504426 0.04848631 0 0 Z " fill="#4F71BA" transform="translate(66.02734375,11.734375)"/>
<path d="M0 0 C2.875 2 2.875 2 5 4 C4.67 5.98 4.34 7.96 4 10 C3.67 10 3.34 10 3 10 C2.5359375 8.5459375 2.5359375 8.5459375 2.0625 7.0625 C1.30476658 4.15934208 1.30476658 4.15934208 0 3 C-5.02499694 3.28469203 -5.02499694 3.28469203 -9 6 C-9 4.68 -9 3.36 -9 2 C-5.48746854 -0.34168764 -4.13530644 -0.49623677 0 0 Z " fill="#476BB7" transform="translate(107,92)"/>
<path d="M0 0 C0.66 0 1.32 0 2 0 C2.66 2.31 3.32 4.62 4 7 C6.31 7.33 8.62 7.66 11 8 C11 8.66 11 9.32 11 10 C6.60490434 10.43089173 4.63156793 10.46051828 1 7.8125 C-1 5 -1 5 -0.8125 2.1875 C-0.544375 1.465625 -0.27625 0.74375 0 0 Z " fill="#1C1C1C" transform="translate(56,107)"/>
<path d="M0 0 C0.99 0.33 1.98 0.66 3 1 C2.52949219 1.59167969 2.05898437 2.18335938 1.57421875 2.79296875 C-3.0558124 8.66012063 -3.0558124 8.66012063 -7 15 C-7.99 14.67 -8.98 14.34 -10 14 C-6.7 9.38 -3.4 4.76 0 0 Z " fill="#1F1F1F" transform="translate(107,52)"/>
<path d="M0 0 C0.33 0.66 0.66 1.32 1 2 C1.99 2.33 2.98 2.66 4 3 C4.8125 5.6875 4.8125 5.6875 5 9 C2.5625 11.875 2.5625 11.875 0 14 C-0.33 13.01 -0.66 12.02 -1 11 C-0.34 10.67 0.32 10.34 1 10 C0.67 6.7 0.34 3.4 0 0 Z " fill="#2C2C2C" transform="translate(68,103)"/>
<path d="M0 0 C0.66 0 1.32 0 2 0 C1.67 1.98 1.34 3.96 1 6 C0.01 6.33 -0.98 6.66 -2 7 C-2.33 7.99 -2.66 8.98 -3 10 C-5.31 9.67 -7.62 9.34 -10 9 C-9.67 8.34 -9.34 7.68 -9 7 C-7.865625 6.731875 -6.73125 6.46375 -5.5625 6.1875 C-1.82740532 5.39121002 -1.82740532 5.39121002 -0.5625 2.375 C-0.376875 1.59125 -0.19125 0.8075 0 0 Z " fill="#181818" transform="translate(70,96)"/>
<path d="M0 0 C0.99 0.33 1.98 0.66 3 1 C5.367713 6.97565663 5.367713 6.97565663 4.125 10.4375 C3.75375 10.953125 3.3825 11.46875 3 12 C2.01 11.34 1.02 10.68 0 10 C0.99 9.67 1.98 9.34 3 9 C2.505 8.2575 2.01 7.515 1.5 6.75 C0 4 0 4 0 0 Z " fill="#373737" transform="translate(56,96)"/>
<path d="M0 0 C0.66 0 1.32 0 2 0 C2 3.96 2 7.92 2 12 C1.01 12.495 1.01 12.495 0 13 C0.33 10.69 0.66 8.38 1 6 C0.34 6 -0.32 6 -1 6 C-0.67 4.02 -0.34 2.04 0 0 Z " fill="#375EB1" transform="translate(111,98)"/>
<path d="M0 0 C0.99 0 1.98 0 3 0 C3 0.99 3 1.98 3 3 C3.99 3.33 4.98 3.66 6 4 C5.34 4.66 4.68 5.32 4 6 C2.62437146 4.71034824 1.29233607 3.37310707 0 2 C0 1.34 0 0.68 0 0 Z " fill="#2B2B2B" transform="translate(96,30)"/>
<path d="M0 0 C3.875 0.875 3.875 0.875 5 2 C5.04063832 3.66617115 5.042721 5.33388095 5 7 C4.34 7 3.68 7 3 7 C2.690625 6.21625 2.38125 5.4325 2.0625 4.625 C1.07124962 2.07669872 1.07124962 2.07669872 0 0 Z " fill="#151515" transform="translate(107,13)"/>
</svg>
