<?xml version="1.0" encoding="UTF-8"?>
<svg version="1.1" xmlns="http://www.w3.org/2000/svg" width="180" height="180">
<path d="M0 0 C59.4 0 118.8 0 180 0 C180 59.4 180 118.8 180 180 C120.6 180 61.2 180 0 180 C0 120.6 0 61.2 0 0 Z " fill="#FE4F4F" transform="translate(0,0)"/>
<path d="M0 0 C31.02 0 62.04 0 94 0 C94 3.96 94 7.92 94 12 C97.96 12 101.92 12 106 12 C106 43.02 106 74.04 106 106 C74.98 106 43.96 106 12 106 C12 102.04 12 98.08 12 94 C8.04 94 4.08 94 0 94 C0 62.98 0 31.96 0 0 Z " fill="#1F110E" transform="translate(37,37)"/>
<path d="M0 0 C12.87 0 25.74 0 39 0 C39.020625 6.249375 39.04125 12.49875 39.0625 18.9375 C39.071604 20.91226318 39.08070801 22.88702637 39.09008789 24.92163086 C39.09300705 26.47770113 39.09555561 28.03377216 39.09765625 29.58984375 C39.10277222 30.40521606 39.10788818 31.22058838 39.11315918 32.06066895 C39.1134694 34.04080523 39.06238096 36.02084654 39 38 C38 39 38 39 34.39819336 39.11352539 C32.79540145 39.11327429 31.19260413 39.1077126 29.58984375 39.09765625 C28.84383911 39.09664917 28.09783447 39.09564209 27.32922363 39.09460449 C24.53196687 39.08935689 21.73473196 39.07539573 18.9375 39.0625 C12.688125 39.041875 6.43875 39.02125 0 39 C0 26.13 0 13.26 0 0 Z " fill="#91D47E" transform="translate(43,43)"/>
<path d="M0 0 C12.54 0 25.08 0 38 0 C38 12.54 38 25.08 38 38 C25.46 38 12.92 38 0 38 C0 25.46 0 12.92 0 0 Z " fill="#FDFBFA" transform="translate(87,87)"/>
<path d="M0 0 C12.54 0 25.08 0 38 0 C38 12.54 38 25.08 38 38 C25.46 38 12.92 38 0 38 C0 25.46 0 12.92 0 0 Z " fill="#FBFBFB" transform="translate(43,87)"/>
<path d="M0 0 C12.54 0 25.08 0 38 0 C38 12.54 38 25.08 38 38 C25.46 38 12.92 38 0 38 C0 25.46 0 12.92 0 0 Z " fill="#FBFBFB" transform="translate(87,43)"/>
<path d="M0 0 C12.87 0 25.74 0 39 0 C39.020625 6.249375 39.04125 12.49875 39.0625 18.9375 C39.071604 20.91226318 39.08070801 22.88702637 39.09008789 24.92163086 C39.09300705 26.47770113 39.09555561 28.03377216 39.09765625 29.58984375 C39.10277222 30.40521606 39.10788818 31.22058838 39.11315918 32.06066895 C39.1134694 34.04080523 39.06238096 36.02084654 39 38 C38 39 38 39 34.39819336 39.11352539 C32.79540145 39.11327429 31.19260413 39.1077126 29.58984375 39.09765625 C28.84383911 39.09664917 28.09783447 39.09564209 27.32922363 39.09460449 C24.53196687 39.08935689 21.73473196 39.07539573 18.9375 39.0625 C12.688125 39.041875 6.43875 39.02125 0 39 C0 26.13 0 13.26 0 0 Z M4 11.3125 C2.0948466 16.43259976 2.32494713 21.15248689 4.1875 26.25 C6.86297259 30.30933772 9.31536845 33.43845615 14 35 C19.95284558 35.59989917 24.74235093 35.09273475 30 32 C34.61012946 26.17667858 35.6908463 21.24109269 35 14 C33.12082857 9.40646984 29.88986112 6.91739584 26 4 C16.43763122 0.81254374 10.36019508 3.95852444 4 11.3125 Z " fill="#E8E9E7" transform="translate(43,43)"/>
<path d="M0 0 C3.36720387 1.39332574 4.9859524 2.9789286 7 6 C6.48308594 6.45890625 5.96617188 6.9178125 5.43359375 7.390625 C4.44552734 8.31101562 4.44552734 8.31101562 3.4375 9.25 C2.77621094 9.85328125 2.11492187 10.4565625 1.43359375 11.078125 C-0.22105777 12.87246498 -0.22105777 12.87246498 0.09375 15.03125 C1.12482812 17.27117832 2.26666651 18.56879418 4.0625 20.25 C4.61035156 20.77078125 5.15820312 21.2915625 5.72265625 21.828125 C6.35494141 22.40820312 6.35494141 22.40820312 7 23 C5.60667426 26.36720387 4.0210714 27.9859524 1 30 C-0.43229167 28.69791667 -1.86458333 27.39583333 -3.296875 26.09375 C-5.22360515 24.63975508 -5.22360515 24.63975508 -9 25 C-9 24.01 -9 23.02 -9 22 C-11.64 22 -14.28 22 -17 22 C-15.68021929 16.58889909 -13.06714573 12.73558494 -9 9 C-8.34 9 -7.68 9 -7 9 C-6.67 8.01 -6.34 7.02 -6 6 C-4.35360035 4.64172029 -2.68704193 3.30745749 -1 2 C-0.67 1.34 -0.34 0.68 0 0 Z " fill="#FC7756" transform="translate(113,92)"/>
<path d="M0 0 C1.32 0 2.64 0 4 0 C4 5.28 4 10.56 4 16 C3.01 16 2.02 16 1 16 C1 16.99 1 17.98 1 19 C-0.32 19 -1.64 19 -3 19 C-3 18.01 -3 17.02 -3 16 C-5.64 16 -8.28 16 -11 16 C-9.68021929 10.58889909 -7.06714573 6.73558494 -3 3 C-2.34 3 -1.68 3 -1 3 C-0.67 2.01 -0.34 1.02 0 0 Z " fill="#301912" transform="translate(107,98)"/>
<path d="M0 0 C3.625 0.1875 3.625 0.1875 6.625 2.1875 C6.8125 5.0625 6.8125 5.0625 6.625 8.1875 C6.625 9.5075 6.625 10.8275 6.625 12.1875 C6.3125 14.8125 6.3125 14.8125 5.625 17.1875 C2.42119983 19.32336678 1.60560033 19.41882175 -2.0625 19.3125 C-2.87074219 19.29445313 -3.67898437 19.27640625 -4.51171875 19.2578125 C-5.12660156 19.23460938 -5.74148437 19.21140625 -6.375 19.1875 C-6.705 17.8675 -7.035 16.5475 -7.375 15.1875 C-4.30609813 13.65304906 -1.67405734 14.63765711 1.625 15.1875 C1.625 14.1975 1.625 13.2075 1.625 12.1875 C-0.025 12.1875 -1.675 12.1875 -3.375 12.1875 C-3.375 10.8675 -3.375 9.5475 -3.375 8.1875 C-1.725 7.8575 -0.075 7.5275 1.625 7.1875 C1.625 6.5275 1.625 5.8675 1.625 5.1875 C-0.685 5.1875 -2.995 5.1875 -5.375 5.1875 C-4.25703267 0.23650181 -4.25703267 0.23650181 0 0 Z " fill="#271F1C" transform="translate(60.375,97.8125)"/>
<path d="M0 0 C0.66 0.66 1.32 1.32 2 2 C1.9375 5.375 1.9375 5.375 1 9 C-1.5625 11.4375 -1.5625 11.4375 -4 13 C-2.35 13.33 -0.7 13.66 1 14 C1 15.32 1 16.64 1 18 C-3.29 18 -7.58 18 -12 18 C-12 14 -12 14 -10.28515625 12.21875 C-9.55167969 11.6515625 -8.81820312 11.084375 -8.0625 10.5 C-5.0501947 8.16240859 -3.53204012 6.85095708 -3 3 C-5.31 3.33 -7.62 3.66 -10 4 C-10 2.68 -10 1.36 -10 0 C-6.25976024 -1.24674659 -3.83399823 -0.76679965 0 0 Z " fill="#251C19" transform="translate(109,55)"/>
<path d="M0 0 C-0.52537724 5.0302076 -1.10594786 10.01885239 -2 15 C-1.01 15 -0.02 15 1 15 C1 16.32 1 17.64 1 19 C-3.29 19 -7.58 19 -12 19 C-12 17.68 -12 16.36 -12 15 C-10.35 15 -8.7 15 -7 15 C-7 12.36 -7 9.72 -7 7 C-7.99 6.67 -8.98 6.34 -10 6 C-10 5.01 -10 4.02 -10 3 C-6.62637846 0.39749195 -4.23092172 -0.36265043 0 0 Z " fill="#1F1D13" transform="translate(66,53)"/>
<path d="M0 0 C1.1055189 0.93590504 2.20935453 1.87379858 3.3125 2.8125 C3.92738281 3.33457031 4.54226562 3.85664062 5.17578125 4.39453125 C6.85424679 5.87172469 8.43882034 7.40039131 10 9 C9.34 9 8.68 9 8 9 C7.731875 9.61875 7.46375 10.2375 7.1875 10.875 C6 13 6 13 3 15 C0.36 12.36 -2.28 9.72 -5 7 C-3.38262276 3.76524552 -2.52370777 2.29427979 0 0 Z " fill="#FB7554" transform="translate(96,92)"/>
<path d="M0 0 C0.33 0.66 0.66 1.32 1 2 C0.67 2.66 0.34 3.32 0 4 C2.64 4 5.28 4 8 4 C6.88333826 7.34998521 6.25305075 7.79340222 3.4375 9.6875 C2.47650391 10.34298828 2.47650391 10.34298828 1.49609375 11.01171875 C1.00238281 11.33785156 0.50867188 11.66398437 0 12 C-1.65 10.35 -3.3 8.7 -5 7 C-3.70700306 4.11562221 -2.34058637 2.12780579 0 0 Z " fill="#F7795A" transform="translate(96,110)"/>
<path d="M0 0 C-0.33 0.99 -0.66 1.98 -1 3 C-2.65 3 -4.3 3 -6 3 C-6 2.34 -6 1.68 -6 1 C-6.66 0.67 -7.32 0.34 -8 0 C-4.71023192 -1.09658936 -3.28696233 -0.79953138 0 0 Z " fill="#D1CFCE" transform="translate(63,103)"/>
</svg>
