<?xml version="1.0" encoding="UTF-8"?>
<svg version="1.1" xmlns="http://www.w3.org/2000/svg" width="200" height="200">
<path d="M0 0 C0.70255958 -0.00256327 1.40511916 -0.00512655 2.12896842 -0.0077675 C4.47681398 -0.01269841 6.82401265 0.00377545 9.17179871 0.02018738 C10.8572437 0.0210338 12.5426898 0.02055821 14.22813416 0.01885986 C18.8001033 0.01799909 23.37183635 0.03563823 27.94375062 0.05658174 C32.7230168 0.07533474 37.50228839 0.07709789 42.28158569 0.08065796 C51.33025103 0.08998246 60.37880763 0.11460176 69.42742509 0.14470643 C79.72962716 0.1782378 90.03183442 0.19473327 100.33407748 0.20979273 C121.52508105 0.24115093 142.71598674 0.29391935 163.90690613 0.36076355 C163.90690613 1.02076355 163.90690613 1.68076355 163.90690613 2.36076355 C164.62878113 2.44326355 165.35065613 2.52576355 166.09440613 2.61076355 C171.57435877 4.07208425 174.98404578 7.92778162 177.84351158 12.64680481 C180.22129383 18.71529834 179.54997893 25.53581863 179.47453308 31.9662323 C179.47312129 33.65211952 179.47391714 35.33800982 179.47674561 37.02389526 C179.47817607 41.58346527 179.44884644 46.14237326 179.41387582 50.70178986 C179.38255052 55.47300837 179.37967672 60.24424323 179.37374878 65.01554871 C179.35822845 74.0429582 179.31722453 83.07006377 179.26700133 92.09733963 C179.21105145 102.37781859 179.18360718 112.65831232 179.15852416 122.93890572 C179.10630706 144.07969441 179.01840003 165.22020981 178.90690613 186.36076355 C178.24690613 186.36076355 177.58690613 186.36076355 176.90690613 186.36076355 C176.84503113 186.89701355 176.78315613 187.43326355 176.71940613 187.98576355 C175.15068331 192.57126101 171.86621267 195.72122586 167.90690613 198.36076355 C166.91690613 198.36076355 165.92690613 198.36076355 164.90690613 198.36076355 C164.90690613 199.02076355 164.90690613 199.68076355 164.90690613 200.36076355 C142.7668049 200.50103004 120.62677712 200.60678189 98.48632145 200.67163658 C88.2057108 200.70255246 77.92537649 200.74468965 67.64494324 200.81340027 C58.68273955 200.87327169 49.72073604 200.91192919 40.75833791 200.92529452 C36.01429962 200.93310519 31.27083392 200.9514145 26.52697945 200.99514389 C22.05761471 201.03600744 17.58905591 201.04840503 13.11952209 201.03940964 C11.48328706 201.04105416 9.84702381 201.05290764 8.21095085 201.0759964 C-7.16407263 201.2822475 -7.16407263 201.2822475 -13.28155994 196.20559788 C-13.87936614 195.59680255 -14.47717234 194.98800722 -15.09309387 194.36076355 C-15.70062091 193.76136176 -16.30814795 193.16195997 -16.93408489 192.54439449 C-22.6830827 185.59733282 -21.9391833 177.2841177 -21.86946106 168.76872253 C-21.87760194 167.09565362 -21.888291 165.42259547 -21.90132141 163.7495575 C-21.92856764 159.22669968 -21.91811481 154.70466723 -21.8990469 150.18179584 C-21.88380351 145.43829375 -21.89795855 140.69485999 -21.90736389 135.95135498 C-21.91826348 127.98816807 -21.90393599 120.02531563 -21.87532043 112.06217957 C-21.84265849 102.86705982 -21.85325602 93.67273818 -21.88627887 84.47763771 C-21.91354003 76.56904712 -21.91733313 68.66069624 -21.90164685 60.75207382 C-21.89231226 56.03458934 -21.89099147 51.31747958 -21.91086578 46.60001945 C-21.92824762 42.16484484 -21.91608751 37.73069568 -21.88150024 33.29563141 C-21.87359317 31.67193107 -21.87580012 30.04814384 -21.88907623 28.42447853 C-21.99868691 13.65300484 -21.99868691 13.65300484 -16.67126846 7.62965488 C-15.09309387 6.36076355 -15.09309387 6.36076355 -12.09309387 5.36076355 C-12.09309387 4.70076355 -12.09309387 4.04076355 -12.09309387 3.36076355 C-8.1020159 0.25113692 -4.97201355 -0.01094354 0 0 Z M147.84049988 9.57951355 C146.47756554 9.61280762 146.47756554 9.61280762 145.08709717 9.64677429 C142.17286402 9.71799014 139.25863505 9.78937512 136.34440613 9.86076355 C134.37370327 9.90895174 132.40300015 9.95712897 130.43229675 10.0052948 C125.59049675 10.12365702 120.74870049 10.24217097 115.90690613 10.36076355 C117.29720517 13.17259193 118.76229933 15.8757775 120.40690613 18.54826355 C120.82971863 19.24306824 121.25253113 19.93787292 121.68815613 20.6537323 C122.81078539 22.50773612 122.81078539 22.50773612 124.90690613 23.36076355 C125.75846863 25.4271698 125.75846863 25.4271698 126.53190613 27.92326355 C126.92249207 29.16269714 126.92249207 29.16269714 127.32096863 30.4271698 C127.514328 31.06525574 127.70768738 31.70334167 127.90690613 32.36076355 C128.56690613 32.36076355 129.22690613 32.36076355 129.90690613 32.36076355 C130.07899597 33.37396667 130.07899597 33.37396667 130.25456238 34.40763855 C130.87793782 37.22962556 131.73442857 39.89584425 132.67155457 42.62687683 C135.37222285 50.5897326 136.77803389 58.25825657 137.54753113 66.61857605 C137.86328256 69.90650945 138.31990304 73.1120051 138.90690613 76.36076355 C139.97231628 76.54638855 139.97231628 76.54638855 141.05924988 76.73576355 C143.99479703 77.38005373 146.66003928 78.29797109 149.46940613 79.36076355 C153.26996737 80.80122374 153.26996737 80.80122374 157.18424988 81.86076355 C157.75272644 82.02576355 158.321203 82.19076355 158.90690613 82.36076355 C159.23690613 83.02076355 159.56690613 83.68076355 159.90690613 84.36076355 C161.48685764 85.69937284 161.48685764 85.69937284 163.34440613 86.98576355 C164.27059753 87.65478699 164.27059753 87.65478699 165.21549988 88.33732605 C166.86260637 89.53332639 166.86260637 89.53332639 168.90690613 89.36076355 C168.93004606 80.13805877 168.94782966 70.91536394 168.9587183 61.69263649 C168.9639435 57.41045229 168.9710346 53.12828791 168.98234558 48.84611511 C168.9931873 44.71588826 168.9991857 40.5856805 169.00178337 36.45544052 C169.00363529 34.87733535 169.00725148 33.29923126 169.01263618 31.72113419 C169.01986365 29.51586371 169.02089634 27.31067281 169.02043152 25.10539246 C169.02265213 23.84852631 169.02487274 22.59166016 169.02716064 21.29670715 C169.11067005 18.42642938 169.11067005 18.42642938 167.90690613 16.36076355 C167.24690613 16.36076355 166.58690613 16.36076355 165.90690613 16.36076355 C165.41190613 14.87576355 165.41190613 14.87576355 164.90690613 13.36076355 C159.0797984 9.09040764 154.7936526 9.40894281 147.84049988 9.57951355 Z M-11.09309387 149.36076355 C-11.19225001 153.9688545 -11.26469569 158.57631947 -11.31282043 163.18522644 C-11.33288945 164.75174278 -11.36015138 166.31818464 -11.39485168 167.88444519 C-11.44358141 170.14106149 -11.46610857 172.39668438 -11.48371887 174.6537323 C-11.50436401 175.34976059 -11.52500916 176.04578888 -11.54627991 176.76290894 C-11.54793144 180.37242289 -11.15230844 182.26780886 -9.19367981 185.342453 C-7.33824482 187.59171156 -7.33824482 187.59171156 -5.09309387 187.36076355 C-5.09309387 188.02076355 -5.09309387 188.68076355 -5.09309387 189.36076355 C-1.16033235 190.65208288 2.79950422 190.49382766 6.88835144 190.47428894 C7.68872833 190.47443497 8.48910522 190.47458099 9.31373596 190.47473145 C11.95419544 190.47403585 14.59458401 190.46625995 17.23503113 190.4584198 C19.06777406 190.45655437 20.9005175 190.45513105 22.73326111 190.45413208 C27.55340454 190.45031677 32.37351778 190.44049488 37.19364929 190.4294281 C42.11368908 190.4191928 47.03373376 190.41462992 51.95378113 190.40959167 C61.60483605 190.39887174 71.25586858 190.38180714 80.90690613 190.36076355 C79.55157353 187.82403067 79.55157353 187.82403067 77.90690613 185.36076355 C77.24690613 185.36076355 76.58690613 185.36076355 75.90690613 185.36076355 C75.41190613 183.38076355 75.41190613 183.38076355 74.90690613 181.36076355 C74.24690613 181.36076355 73.58690613 181.36076355 72.90690613 181.36076355 C72.68003113 180.70076355 72.45315613 180.04076355 72.21940613 179.36076355 C70.79908696 176.11431975 69.05158143 173.29082766 67.12565613 170.3256073 C65.92262392 168.38610345 64.89579506 166.41637064 63.90690613 164.36076355 C62.53167478 164.50439882 61.15673211 164.65079872 59.78190613 164.79826355 C59.016203 164.87947449 58.25049988 164.96068542 57.46159363 165.0443573 C55.65555452 165.26804104 53.85675358 165.55432674 52.06706238 165.88420105 C48.50003295 166.42212143 45.07633906 166.52980432 41.46940613 166.54826355 C40.21257019 166.56244324 38.95573425 166.57662292 37.66081238 166.5912323 C33.79833642 166.35409798 30.59096616 165.50348397 26.90690613 164.36076355 C25.66940613 164.23701355 24.43190613 164.11326355 23.15690613 163.98576355 C11.09533454 162.59937601 -0.88309981 155.54630926 -11.09309387 149.36076355 Z " fill="#388773" transform="translate(21.093093872070313,-0.3607635498046875)"/>
<path d="M0 0 C0.93070312 0.49242188 1.86140625 0.98484375 2.8203125 1.4921875 C7.98790777 4.39990146 13.26525979 7.53051958 16 13 C16.12974812 15.76419809 16.1994122 18.50434721 16.22460938 21.27001953 C16.24169449 22.55328377 16.24169449 22.55328377 16.25912476 23.86247253 C16.36983668 32.81996882 16.41721993 41.7782917 16.45996094 50.73632812 C16.48222332 54.98511213 16.52397119 59.23301601 16.58300781 63.48144531 C16.65417222 68.61263678 16.69080464 73.74300087 16.70307922 78.87466049 C16.71346823 80.82749366 16.73586499 82.78030241 16.77067566 84.73285294 C17.06155182 101.94098594 17.06155182 101.94098594 12.64257812 107.13623047 C8.12099174 111.12873167 4.73286707 112.29834442 -1.22192383 112.29052734 C-2.32003136 112.30060318 -2.32003136 112.30060318 -3.44032288 112.31088257 C-5.86262791 112.32989346 -8.28465623 112.33378855 -10.70703125 112.3359375 C-12.39230971 112.34236427 -14.07758705 112.34909254 -15.76286316 112.35610962 C-19.29774562 112.3680908 -22.8325303 112.37178968 -26.36743164 112.37060547 C-30.89026054 112.37040246 -35.41245983 112.39768217 -39.93513966 112.43214989 C-43.41736206 112.4544247 -46.89943324 112.45844281 -50.38171959 112.45738602 C-52.04864353 112.45974196 -53.71557164 112.4685652 -55.38242531 112.48405075 C-57.71869114 112.50371932 -60.05360343 112.49786999 -62.38989258 112.48583984 C-63.07426392 112.49707886 -63.75863525 112.50831787 -64.46374512 112.51989746 C-69.41084792 112.45539343 -72.17171477 111.0561153 -76 108 C-80 103.57894737 -80 103.57894737 -80 101 C-80.66 101 -81.32 101 -82 101 C-86.55726564 95.63029703 -89.25714504 89.75356297 -91 83 C-91.41765625 81.50919922 -91.41765625 81.50919922 -91.84375 79.98828125 C-96.5419072 61.26090461 -95.02317961 42.53820557 -85.11572266 25.71386719 C-75.60123938 11.09862155 -60.8168571 0.87940396 -44.1875 -3.875 C-29.69969902 -6.80432395 -13.17162921 -7.29211936 0 0 Z " fill="#810458" transform="translate(176,80)"/>
<path d="M0 0 C1.70043945 1.12231445 1.70043945 1.12231445 3 3 C3.34057617 5.91088867 3.34057617 5.91088867 3.29296875 9.41796875 C3.2784668 11.29838867 3.2784668 11.29838867 3.26367188 13.21679688 C3.23853516 14.52712891 3.21339844 15.83746094 3.1875 17.1875 C3.17244967 18.52277163 3.15876187 19.85805937 3.14648438 21.19335938 C3.11107694 24.46264576 3.0616889 27.73112093 3 31 C3.80219971 30.98428955 4.60439941 30.9685791 5.4309082 30.95239258 C9.05803404 30.89011417 12.68504749 30.85103136 16.3125 30.8125 C17.57513672 30.78736328 18.83777344 30.76222656 20.13867188 30.73632812 C21.34716797 30.72666016 22.55566406 30.71699219 23.80078125 30.70703125 C24.91622314 30.6913208 26.03166504 30.67561035 27.1809082 30.65942383 C30 31 30 31 31.86401367 32.33081055 C33.63641707 34.93513508 33.38233004 36.94135966 33 40 C31.86401367 41.66918945 31.86401367 41.66918945 30 43 C27.1809082 43.34057617 27.1809082 43.34057617 23.80078125 43.29296875 C22.59228516 43.28330078 21.38378906 43.27363281 20.13867188 43.26367188 C18.87603516 43.23853516 17.61339844 43.21339844 16.3125 43.1875 C14.40114258 43.16719727 14.40114258 43.16719727 12.45117188 43.14648438 C9.30035943 43.11108199 6.15038955 43.0616979 3 43 C3.01571045 43.79696289 3.0314209 44.59392578 3.04760742 45.41503906 C3.10997589 49.0266205 3.14899739 52.63808861 3.1875 56.25 C3.21263672 57.50425781 3.23777344 58.75851563 3.26367188 60.05078125 C3.27333984 61.25605469 3.28300781 62.46132812 3.29296875 63.703125 C3.3086792 64.81333008 3.32438965 65.92353516 3.34057617 67.06738281 C2.95934497 70.35007039 2.37105344 71.72188233 0 74 C-5.88862295 74.73607787 -5.88862295 74.73607787 -8.70043945 72.8737793 C-10.61802297 70.10889982 -10.33824769 67.91757962 -10.29296875 64.58203125 C-10.28330078 63.32841797 -10.27363281 62.07480469 -10.26367188 60.78320312 C-10.23853516 59.47287109 -10.21339844 58.16253906 -10.1875 56.8125 C-10.17244967 55.47722837 -10.15876187 54.14194063 -10.14648438 52.80664062 C-10.11107694 49.53735424 -10.0616889 46.26887907 -10 43 C-10.80219971 43.02094727 -11.60439941 43.04189453 -12.4309082 43.06347656 C-16.05797848 43.14651316 -19.68484906 43.19862204 -23.3125 43.25 C-24.57513672 43.28351563 -25.83777344 43.31703125 -27.13867188 43.3515625 C-28.34716797 43.36445313 -29.55566406 43.37734375 -30.80078125 43.390625 C-31.91622314 43.41157227 -33.03166504 43.43251953 -34.1809082 43.45410156 C-37 43 -37 43 -38.86010742 41.13574219 C-40.28266881 38.47038193 -40.53429848 36.97680584 -40 34 C-37.72347551 31.74203047 -36.36618791 31.04390101 -33.15917969 30.65942383 C-32.09086914 30.67513428 -31.02255859 30.69084473 -29.921875 30.70703125 C-28.76171875 30.71669922 -27.6015625 30.72636719 -26.40625 30.73632812 C-25.1996875 30.76146484 -23.993125 30.78660156 -22.75 30.8125 C-20.91695312 30.83280273 -20.91695312 30.83280273 -19.046875 30.85351562 C-16.03080502 30.8888602 -13.01562513 30.9382044 -10 31 C-10.01571045 30.16750732 -10.0314209 29.33501465 -10.04760742 28.47729492 C-10.09876642 25.38552144 -10.1363648 22.29396382 -10.16479492 19.2019043 C-10.18728333 17.20672299 -10.22540198 15.21173787 -10.26367188 13.21679688 C-10.27333984 11.96318359 -10.28300781 10.70957031 -10.29296875 9.41796875 C-10.3086792 8.26063232 -10.32438965 7.1032959 -10.34057617 5.91088867 C-10 3 -10 3 -8.70043945 1.12231445 C-5.8364332 -0.7679708 -3.31273222 -0.35493559 0 0 Z " fill="#F9F4F7" transform="translate(151,106)"/>
<path d="M0 0 C0.81612762 0.00202423 1.63225525 0.00404846 2.47311401 0.00613403 C3.75598549 0.00350555 3.75598549 0.00350555 5.06477356 0.00082397 C7.90671792 -0.00359609 10.7486006 -0.00065575 13.59054565 0.00271606 C15.55730705 0.00204301 17.52406836 0.00107297 19.49082947 -0.00018311 C23.61937245 -0.00166034 27.74789385 0.00049506 31.87643433 0.00515747 C37.17744894 0.01085104 42.47841288 0.00757827 47.77942562 0.00158501 C51.84307743 -0.0020231 55.90671717 -0.0008808 59.97036934 0.0017128 C61.92526823 0.00238157 63.88016821 0.00155538 65.83506584 -0.00076675 C68.5647053 -0.00329695 71.29426199 0.00055272 74.02389526 0.00613403 C74.83799866 0.0041098 75.65210205 0.00208557 76.49087524 0 C82.08467538 0.0212653 82.08467538 0.0212653 84.3132019 1.13552856 C84.3132019 2.78552856 84.3132019 4.43552856 84.3132019 6.13552856 C80.3655592 7.45140947 76.60230834 7.25853129 72.48898315 7.23318481 C71.62758224 7.23176987 70.76618134 7.23035492 69.87867737 7.22889709 C67.12765021 7.22329997 64.37670446 7.21074802 61.6257019 7.19802856 C59.7604687 7.19301319 57.89523423 7.18845035 56.02999878 7.18435669 C51.45770179 7.17333148 46.88546565 7.15606883 42.3132019 7.13552856 C42.31504549 7.72121046 42.31688908 8.30689236 42.31878853 8.91032219 C42.36291824 23.14792261 42.3960344 37.3855128 42.41682625 51.62316704 C42.42714776 58.50833463 42.44122471 65.39345664 42.46408081 72.27859497 C42.48611093 78.91807074 42.49775736 85.55751145 42.50295639 92.1970253 C42.50666336 94.73526889 42.5139017 97.27350976 42.52466202 99.81173325 C42.53909419 103.35575812 42.54118332 106.8995847 42.54025269 110.44363403 C42.54744324 111.50242767 42.55463379 112.56122131 42.56204224 113.65209961 C42.55929291 114.6140625 42.55654358 115.57602539 42.55371094 116.56713867 C42.55555452 117.40597029 42.55739811 118.2448019 42.55929756 119.10905266 C42.3132019 121.13552856 42.3132019 121.13552856 40.3132019 123.13552856 C38.6632019 122.80552856 37.0132019 122.47552856 35.3132019 122.13552856 C35.3132019 84.18552856 35.3132019 46.23552856 35.3132019 7.13552856 C21.7832019 7.13552856 8.2532019 7.13552856 -5.6867981 7.13552856 C-6.3467981 6.47552856 -7.0067981 5.81552856 -7.6867981 5.13552856 C-6.86853614 -0.26500031 -5.19589244 0.019828 0 0 Z " fill="#F1F6F5" transform="translate(27.686798095703125,12.864471435546875)"/>
<path d="M0 0 C1.16015625 0.00966797 2.3203125 0.01933594 3.515625 0.02929688 C4.7221875 0.05443359 5.92875 0.07957031 7.171875 0.10546875 C9.00492188 0.12577148 9.00492188 0.12577148 10.875 0.14648438 C13.89106998 0.18182895 16.90624987 0.23117315 19.921875 0.29296875 C19.921875 0.62296875 19.921875 0.95296875 19.921875 1.29296875 C19.18026123 1.30755127 18.43864746 1.32213379 17.67456055 1.3371582 C14.31896869 1.41156332 10.96438006 1.50824881 7.609375 1.60546875 C6.44212891 1.62802734 5.27488281 1.65058594 4.07226562 1.67382812 C2.95400391 1.70927734 1.83574219 1.74472656 0.68359375 1.78125 C-0.8638855 1.82052612 -0.8638855 1.82052612 -2.44262695 1.8605957 C-5.44821829 2.35368531 -6.26008492 2.91348027 -8.078125 5.29296875 C-8.738125 6.28296875 -9.398125 7.27296875 -10.078125 8.29296875 C-10.328125 5.98046875 -10.328125 5.98046875 -10.078125 3.29296875 C-6.9041217 0.09196274 -4.39559015 -0.06464103 0 0 Z " fill="#D1A4C2" transform="translate(121.078125,136.70703125)"/>
<path d="M0 0 C0.66 0 1.32 0 2 0 C0.55922954 3.36179774 -1.24750021 5.59156268 -4 8 C-4.66 8 -5.32 8 -6 8 C-4.95125002 5.37812506 -4.35068687 4.20628639 -1.875 2.75 C-1.25625 2.5025 -0.6375 2.255 0 2 C0 1.34 0 0.68 0 0 Z " fill="#2B8E68" transform="translate(9,3)"/>
</svg>
