<?xml version="1.0" encoding="UTF-8"?>
<svg version="1.1" xmlns="http://www.w3.org/2000/svg" width="256" height="256">
<path d="M0 0 C84.48 0 168.96 0 256 0 C256 84.48 256 168.96 256 256 C171.52 256 87.04 256 0 256 C0 171.52 0 87.04 0 0 Z " fill="#00C887" transform="translate(0,0)"/>
<path d="M0 0 C84.48 0 168.96 0 256 0 C256 84.48 256 168.96 256 256 C171.52 256 87.04 256 0 256 C0 171.52 0 87.04 0 0 Z M8 8 C8 87.2 8 166.4 8 248 C87.2 248 166.4 248 248 248 C248 168.8 248 89.6 248 8 C168.8 8 89.6 8 8 8 Z " fill="#000100" transform="translate(0,0)"/>
<path d="M0 0 C25.74 0 51.48 0 78 0 C78 25.74 78 51.48 78 78 C52.26 78 26.52 78 0 78 C0 52.26 0 26.52 0 0 Z " fill="#96F7D3" transform="translate(147,147)"/>
<path d="M0 0 C25.74 0 51.48 0 78 0 C78 25.74 78 51.48 78 78 C52.26 78 26.52 78 0 78 C0 52.26 0 26.52 0 0 Z " fill="#96F8D4" transform="translate(35,147)"/>
<path d="M0 0 C25.74 0 51.48 0 78 0 C78.020625 12.684375 78.04125 25.36875 78.0625 38.4375 C78.071604 42.4483374 78.08070801 46.4591748 78.09008789 50.59155273 C78.09460449 55.47473145 78.09460449 55.47473145 78.09544373 57.75794983 C78.0969832 59.35874204 78.10050821 60.95953306 78.10557556 62.56031799 C78.11285361 64.97960436 78.1139074 67.39881963 78.11352539 69.81811523 C78.1171235 70.53588103 78.12072161 71.25364683 78.12442875 71.99316311 C78.11402634 76.88597366 78.11402634 76.88597366 77 78 C74.5964754 78.09496873 72.22192907 78.12557554 69.81811523 78.11352539 C68.67307699 78.11370619 68.67307699 78.11370619 67.50490665 78.11389065 C65.02277317 78.11314155 62.54071388 78.1055135 60.05859375 78.09765625 C58.53064002 78.09618682 57.00268578 78.09516612 55.47473145 78.09460449 C49.79564664 78.08935173 44.1165726 78.07539065 38.4375 78.0625 C25.753125 78.041875 13.06875 78.02125 0 78 C0 52.26 0 26.52 0 0 Z " fill="#95F6D2" transform="translate(30,25)"/>
<path d="M0 0 C25.41 0 50.82 0 77 0 C77 25.41 77 50.82 77 77 C51.59 77 26.18 77 0 77 C0 51.59 0 26.18 0 0 Z " fill="#98FCD7" transform="translate(144,25)"/>
<path d="M0 0 C28.71 0 57.42 0 87 0 C87 29.04 87 58.08 87 88 C58.29 88 29.58 88 0 88 C0 58.96 0 29.92 0 0 Z M5 5 C5 30.41 5 55.82 5 82 C30.41 82 55.82 82 82 82 C82 56.59 82 31.18 82 5 C56.59 5 31.18 5 5 5 Z " fill="#06100C" transform="translate(139,20)"/>
<path d="M0 0 C29.04 0 58.08 0 88 0 C88 29.04 88 58.08 88 88 C58.96 88 29.92 88 0 88 C0 58.96 0 29.92 0 0 Z M5 5 C5 30.74 5 56.48 5 83 C17.684375 83.020625 30.36875 83.04125 43.4375 83.0625 C49.4537561 83.07615601 49.4537561 83.07615601 55.59155273 83.09008789 C59.17475085 83.09343152 59.17475085 83.09343152 62.75794983 83.09544373 C64.35874204 83.0969832 65.95953306 83.10050821 67.56031799 83.10557556 C69.97960436 83.11285361 72.39881963 83.1139074 74.81811523 83.11352539 C75.53588103 83.1171235 76.25364683 83.12072161 76.99316311 83.12442875 C80.27809846 83.40201677 80.27809846 83.40201677 83 82 C83.09496873 79.5964754 83.12557554 77.22192907 83.11352539 74.81811523 C83.11364593 74.0547564 83.11376646 73.29139757 83.11389065 72.50490665 C83.11314155 70.02277317 83.1055135 67.54071388 83.09765625 65.05859375 C83.09618682 63.53064002 83.09516612 62.00268578 83.09460449 60.47473145 C83.08935173 54.79564664 83.07539065 49.1165726 83.0625 43.4375 C83.041875 30.753125 83.02125 18.06875 83 5 C57.26 5 31.52 5 5 5 Z " fill="#000D08" transform="translate(25,20)"/>
<path d="M0 0 C29.04 0 58.08 0 88 0 C88 29.04 88 58.08 88 88 C58.96 88 29.92 88 0 88 C0 58.96 0 29.92 0 0 Z M5 5 C5 30.74 5 56.48 5 83 C30.74 83 56.48 83 83 83 C83 57.26 83 31.52 83 5 C57.26 5 31.52 5 5 5 Z " fill="#010D08" transform="translate(142,142)"/>
<path d="M0 0 C29.04 0 58.08 0 88 0 C88 29.04 88 58.08 88 88 C58.96 88 29.92 88 0 88 C0 58.96 0 29.92 0 0 Z M5 5 C5 30.74 5 56.48 5 83 C30.74 83 56.48 83 83 83 C83 57.26 83 31.52 83 5 C57.26 5 31.52 5 5 5 Z " fill="#010D08" transform="translate(30,142)"/>
<path d="M0 0 C1.98 0 3.96 0 6 0 C6.33 11.55 6.66 23.1 7 35 C11.58659253 24.52771744 11.58659253 24.52771744 16.14453125 14.04296875 C16.42876953 13.38619141 16.71300781 12.72941406 17.00585938 12.05273438 C17.56519858 10.7593471 18.12233937 9.46500773 18.67773438 8.16992188 C19.94620229 5.24744242 21.22639285 2.66041072 23 0 C24.98 0 26.96 0 29 0 C30.32 11.22 31.64 22.44 33 34 C34.98 28.555 34.98 28.555 37 23 C37.77684412 20.96115452 38.56122092 18.92512913 39.359375 16.89453125 C39.75253906 15.89228516 40.14570312 14.89003906 40.55078125 13.85742188 C40.94652344 12.85259766 41.34226563 11.84777344 41.75 10.8125 C42.36681641 9.24145508 42.36681641 9.24145508 42.99609375 7.63867188 C43.99617099 5.09196356 44.9974883 2.54575074 46 0 C47.98 0 49.96 0 52 0 C48.74151493 11.8906122 44.3370479 23.43327746 39.09765625 34.5859375 C38.04335458 36.90465079 37.12462708 39.2335076 36.25 41.625 C35 45 35 45 34 46 C32.00041636 46.04080783 29.99954746 46.04254356 28 46 C26.58028766 37.1784864 25.68295701 28.50932671 25.24609375 19.59375 C25.02279788 16.33292138 24.59945747 13.21031771 24 10 C23.731875 10.65742188 23.46375 11.31484375 23.1875 11.9921875 C20.50869578 18.49533721 17.72700533 24.94614851 14.875 31.375 C14.53855469 32.13538574 14.20210937 32.89577148 13.85546875 33.67919922 C12.00238492 37.84039784 10.07384527 41.94247664 8 46 C5.69 46 3.38 46 1 46 C-0.36924631 30.69378229 -0.09744154 15.35079067 0 0 Z " fill="#09130F" transform="translate(53,165)"/>
<path d="M0 0 C7.74951072 2.08452029 13.46410143 6.67714699 17.5078125 13.5703125 C20.78400906 19.99165775 22.20083584 25.0792228 22.25 32.3125 C22.270625 33.05951172 22.29125 33.80652344 22.3125 34.57617188 C22.35499293 40.62610244 20.96995585 44.66067743 17 49.375 C12.52800753 51.79732925 7.98460237 51.82457655 3 51 C0.66015625 49.59765625 0.66015625 49.59765625 -1 48 C-1 47.34 -1 46.68 -1 46 C-1.763125 46.639375 -2.52625 47.27875 -3.3125 47.9375 C-8.4073348 51.8474895 -13.81631763 51.50700763 -20 51 C-23.05445426 49.75328398 -24.39835964 48.99055788 -26.09375 46.19921875 C-27.73810257 42.20882867 -27.64170598 38.22570213 -27 34 C-25.0625 30.875 -25.0625 30.875 -22 29 C-18.90990953 28.44800486 -16.07118438 28.30984621 -13 29 C-11.23828125 30.30078125 -11.23828125 30.30078125 -10 32 C-9.8125 35.6875 -9.8125 35.6875 -10 39 C-11.65 39 -13.3 39 -15 39 C-15 37.35 -15 35.7 -15 34 C-17.97 34.495 -17.97 34.495 -21 35 C-21.061875 36.27875 -21.12375 37.5575 -21.1875 38.875 C-21.22230469 39.59429687 -21.25710937 40.31359375 -21.29296875 41.0546875 C-21.19628906 41.69664062 -21.09960938 42.33859375 -21 43 C-17.32807887 45.44794742 -14.26893972 45.71435887 -10 45 C-7.03141843 42.79259319 -6.17134209 41.51402627 -5 38 C-3.02 38 -1.04 38 1 38 C1.28875 38.78375 1.5775 39.5675 1.875 40.375 C2.84912254 43.09671632 2.84912254 43.09671632 5 45 C8.45786015 45.50007794 8.45786015 45.50007794 12 45 C15.17720376 42.03460982 15.82808537 38.76423865 16.23828125 34.5546875 C16.50852808 24.79735451 13.94456342 17.51927319 7.3671875 10.27734375 C6.00660008 8.88503587 6.00660008 8.88503587 4 8 C3.7525 8.763125 3.505 9.52625 3.25 10.3125 C1.80941891 13.40974934 1.04977392 14.47511304 -2 16 C-6.59806306 16.5108959 -8.86036211 16.60619037 -12.9375 14.4375 C-15.68320922 11.19257093 -16.14869483 9.23780261 -16 5 C-12.22227644 -1.34117882 -6.63445898 -0.96600639 0 0 Z " fill="#060D0A" transform="translate(188,154)"/>
<path d="M0 0 C4.69127188 2.42434855 7.76395875 5.36308949 10.01953125 10.22265625 C10.99403654 13.81679941 11.14773919 17.32715304 11.18359375 21.02734375 C11.19366455 21.70829102 11.20373535 22.38923828 11.21411133 23.09082031 C11.09269285 30.1692591 8.22740545 34.6483921 3.74609375 39.90234375 C6.38609375 40.23234375 9.02609375 40.56234375 11.74609375 40.90234375 C11.74609375 42.88234375 11.74609375 44.86234375 11.74609375 46.90234375 C5.80609375 46.90234375 -0.13390625 46.90234375 -6.25390625 46.90234375 C-6.25390625 41.90234375 -6.25390625 41.90234375 -4.828125 40.12890625 C-4.20550781 39.60039063 -3.58289063 39.071875 -2.94140625 38.52734375 C2.90932515 32.97270199 3.9143817 28.70681784 4.12109375 20.77734375 C4.15346935 15.84546137 3.78827123 12.84787525 0.74609375 8.90234375 C-2.97081066 5.1981467 -5.47232544 4.33369642 -10.69140625 4.33984375 C-14.71385944 4.46725177 -17.71667369 4.56752819 -20.94140625 7.08984375 C-25.30927475 12.40211625 -25.69831178 17.12567549 -25.56640625 23.828125 C-25.04131032 28.99375621 -23.58785171 33.78471519 -19.65234375 37.35546875 C-19.10835937 37.7628125 -18.564375 38.17015625 -18.00390625 38.58984375 C-17.09640625 39.35296875 -16.18890625 40.11609375 -15.25390625 40.90234375 C-15.25390625 42.88234375 -15.25390625 44.86234375 -15.25390625 46.90234375 C-21.19390625 46.90234375 -27.13390625 46.90234375 -33.25390625 46.90234375 C-33.25390625 44.92234375 -33.25390625 42.94234375 -33.25390625 40.90234375 C-30.28390625 40.90234375 -27.31390625 40.90234375 -24.25390625 40.90234375 C-24.74761719 40.20367187 -25.24132812 39.505 -25.75 38.78515625 C-26.39066406 37.87507813 -27.03132812 36.965 -27.69140625 36.02734375 C-28.64853516 34.66996094 -28.64853516 34.66996094 -29.625 33.28515625 C-33.61738134 27.4449821 -32.83880268 20.71706727 -32.25390625 13.90234375 C-30.65668852 8.09563629 -28.19990299 4.14254089 -23.12890625 0.83984375 C-15.7334995 -3.20317044 -7.71965364 -3.370553 0 0 Z " fill="#08110D" transform="translate(193.25390625,42.09765625)"/>
<path d="M0 0 C1.65 0 3.3 0 5 0 C5.33 12.54 5.66 25.08 6 38 C9.3 32.72 12.6 27.44 16 22 C18.53352322 17.97399232 21.0805095 13.97629056 23.6875 10 C24.29916016 9.02289063 24.91082031 8.04578125 25.54101562 7.0390625 C26.45463867 5.65847656 26.45463867 5.65847656 27.38671875 4.25 C27.91483154 3.43015625 28.44294434 2.6103125 28.98706055 1.765625 C31 0 31 0 38 0 C38 15.51 38 31.02 38 47 C36.35 47 34.7 47 33 47 C32.67 34.79 32.34 22.58 32 10 C25.49999106 19.74609543 25.49999106 19.74609543 19.01171875 29.5 C18.61533203 30.09683594 18.21894531 30.69367188 17.81054688 31.30859375 C17.04147226 32.466887 16.27328636 33.6257707 15.50585938 34.78515625 C14.73263222 35.94819214 13.95149146 37.10601498 13.16162109 38.2578125 C12.3487203 39.47699285 11.57853913 40.72524689 10.84228516 41.9921875 C10.44702637 42.63414063 10.05176758 43.27609375 9.64453125 43.9375 C9.30397705 44.52402344 8.96342285 45.11054687 8.61254883 45.71484375 C7 47 7 47 0 47 C0 31.49 0 15.98 0 0 Z " fill="#030705" transform="translate(50,41)"/>
<path d="M0 0 C2.72869407 0.03287583 5.2966618 0.56397771 8 1 C7.42655063 3.86724686 7.1385485 4.8614515 5 7 C1.875 7.125 1.875 7.125 -1 7 C-1.625 4.625 -1.625 4.625 -2 2 C-1.34 1.34 -0.68 0.68 0 0 Z " fill="#8FEAC9" transform="translate(180,158)"/>
<path d="M0 0 C0.33 0 0.66 0 1 0 C1 1.65 1 3.3 1 5 C1.66 5 2.32 5 3 5 C3 3.68 3 2.36 3 1 C3.66 1 4.32 1 5 1 C4.54917531 2.46067199 4.08906463 3.91848032 3.625 5.375 C3.36976562 6.18710938 3.11453125 6.99921875 2.8515625 7.8359375 C2 10 2 10 0 12 C0 8.04 0 4.08 0 0 Z " fill="#8BE2C4" transform="translate(85,189)"/>
<path d="M0 0 C0.33 0 0.66 0 1 0 C1 2.31 1 4.62 1 7 C-0.32 7.33 -1.64 7.66 -3 8 C-2.01 5.36 -1.02 2.72 0 0 Z " fill="#83D7B8" transform="translate(77,174)"/>
</svg>
