<?xml version="1.0" encoding="UTF-8"?>
<svg version="1.1" xmlns="http://www.w3.org/2000/svg" width="60" height="61">
<path d="M0 0 C19.8 0 39.6 0 60 0 C60 20.13 60 40.26 60 61 C40.2 61 20.4 61 0 61 C0 40.87 0 20.74 0 0 Z " fill="#D3F1F0" transform="translate(0,0)"/>
<path d="M0 0 C2.475 0.495 2.475 0.495 5 1 C4.67 2.98 4.34 4.96 4 7 C5.98 7 7.96 7 10 7 C6.375 10 6.375 10 3 10 C2.67 11.65 2.34 13.3 2 15 C3.06541016 15.18175781 3.06541016 15.18175781 4.15234375 15.3671875 C5.53099609 15.61855469 5.53099609 15.61855469 6.9375 15.875 C7.85402344 16.03742187 8.77054688 16.19984375 9.71484375 16.3671875 C10.84599609 16.68042969 10.84599609 16.68042969 12 17 C12.33 17.66 12.66 18.32 13 19 C8.48281619 20.36884358 5.41225737 19.47075246 1 18 C1.91980387 21.04242817 2.7584144 23.64159707 4.54296875 26.2890625 C6.77886192 30.44914256 6.46757367 34.49448131 6.59375 39.13671875 C6.7278125 40.08160156 6.861875 41.02648438 7 42 C10.18762365 44.12508244 12.26512223 44.5020163 16 45 C16 44.34 16 43.68 16 43 C15.4225 43.2475 14.845 43.495 14.25 43.75 C12 44 12 44 9.6875 42.3125 C8 40 8 40 8.0625 37.875 C9 36 9 36 12 34 C14.57910088 33.88328572 17.05291791 33.85772678 19.625 33.9375 C22.08822574 33.99930957 24.53491217 34.02059143 27 34 C27.33 33.67 27.66 33.34 28 33 C30.33333333 32.66666667 32.66666667 32.33333333 35 32 C35.495 31.505 35.495 31.505 36 31 C38.64 31 41.28 31 44 31 C44 39.25 44 47.5 44 56 C24.2 56 4.4 56 -16 56 C-16 52.37 -16 48.74 -16 45 C-14.02 45 -12.04 45 -10 45 C-10 44.01 -10 43.02 -10 42 C-9.34 42 -8.68 42 -8 42 C-7.731875 41.2575 -7.46375 40.515 -7.1875 39.75 C-6 37 -6 37 -4.25 35.125 C-3.8375 34.42375 -3.425 33.7225 -3 33 C-3.50541916 31.35528183 -4.01187486 29.71087268 -4.52441406 28.06835938 C-5.39513871 24.28151171 -5.01969402 20.53534381 -4.75 16.6875 C-4.71003906 15.87732422 -4.67007812 15.06714844 -4.62890625 14.23242188 C-4.26097355 8.26097355 -4.26097355 8.26097355 -2 6 C-1.28591666 4.01643517 -0.61382258 2.01684563 0 0 Z " fill="#A6E3DC" transform="translate(16,5)"/>
<path d="M0 0 C1.65 0.33 3.3 0.66 5 1 C4.67 2.98 4.34 4.96 4 7 C5.98 7 7.96 7 10 7 C6.375 10 6.375 10 3 10 C2.67 11.65 2.34 13.3 2 15 C3.06541016 15.18175781 3.06541016 15.18175781 4.15234375 15.3671875 C5.53099609 15.61855469 5.53099609 15.61855469 6.9375 15.875 C7.85402344 16.03742187 8.77054688 16.19984375 9.71484375 16.3671875 C10.84599609 16.68042969 10.84599609 16.68042969 12 17 C12.33 17.66 12.66 18.32 13 19 C8.48281619 20.36884358 5.41225737 19.47075246 1 18 C1.91522205 21.02727293 2.73111039 23.61000743 4.53515625 26.2265625 C6.42342284 29.80168058 6.47525594 32.66411366 6.625 36.6875 C6.63437276 41.49052624 6.63437276 41.49052624 8 46 C6.68 45.67 5.36 45.34 4 45 C3.34 41.04 2.68 37.08 2 33 C0.515 35.475 0.515 35.475 -1 38 C-1.70125 38.495 -2.4025 38.99 -3.125 39.5 C-5.25555656 40.90503631 -5.25555656 40.90503631 -5.75 43.6875 C-5.8325 44.450625 -5.915 45.21375 -6 46 C-6.99 46 -7.98 46 -9 46 C-8.6342539 41.00146995 -7.16958293 38.55974013 -3.86328125 35.00390625 C-2.69599871 32.29433185 -3.58486416 30.71511411 -4.48706055 28.01782227 C-5.44078127 24.26603657 -5.0183185 20.51571854 -4.75 16.6875 C-4.71003906 15.87732422 -4.67007812 15.06714844 -4.62890625 14.23242188 C-4.26097355 8.26097355 -4.26097355 8.26097355 -2 6 C-1.28591666 4.01643517 -0.61382258 2.01684563 0 0 Z " fill="#694390" transform="translate(16,5)"/>
<path d="M0 0 C0.99 0.33 1.98 0.66 3 1 C4.64030513 1.09230564 6.28410237 1.12791132 7.92700195 1.12939453 C8.92846756 1.13254669 9.92993317 1.13569885 10.96174622 1.13894653 C12.04300278 1.1369223 13.12425934 1.13489807 14.23828125 1.1328125 C15.35180466 1.13376923 16.46532806 1.13472595 17.6125946 1.13571167 C19.97049008 1.13639265 22.32838742 1.13454407 24.6862793 1.13037109 C28.28764084 1.12503682 31.8888768 1.13031108 35.49023438 1.13671875 C37.78125027 1.13605766 40.0722661 1.13477585 42.36328125 1.1328125 C43.43846512 1.13483673 44.51364899 1.13686096 45.62141418 1.13894653 C50.52404597 1.12365962 55.18284848 1.04218962 60 0 C60 1.98 60 3.96 60 6 C40.2 6 20.4 6 0 6 C0 4.02 0 2.04 0 0 Z " fill="#608D9E" transform="translate(0,55)"/>
<path d="M0 0 C5.37515933 -0.02467759 10.75028585 -0.04284928 16.12548828 -0.05493164 C17.95492121 -0.05996737 19.78435009 -0.06679627 21.61376953 -0.07543945 C24.23991898 -0.08753824 26.86601532 -0.09323583 29.4921875 -0.09765625 C30.31306854 -0.10281754 31.13394958 -0.10797882 31.97970581 -0.11329651 C37.77225659 -0.11387171 37.77225659 -0.11387171 40 1 C40 2.32 40 3.64 40 5 C34.78557724 5.0494186 29.57129066 5.08572831 24.35668945 5.10986328 C22.58257676 5.11992411 20.80848065 5.13357422 19.03442383 5.15087891 C16.48514716 5.17512378 13.93608963 5.18648218 11.38671875 5.1953125 C10.19594978 5.21079636 10.19594978 5.21079636 8.98112488 5.22659302 C5.11776957 5.2273811 3.29160554 5.19440369 0 3 C0 2.01 0 1.02 0 0 Z " fill="#B3EBE9" transform="translate(0,52)"/>
<path d="M0 0 C0.66 0.33 1.32 0.66 2 1 C2.6328125 3.72265625 2.6328125 3.72265625 3.125 7.0625 C3.29257812 8.16722656 3.46015625 9.27195312 3.6328125 10.41015625 C3.75398438 11.26480469 3.87515625 12.11945312 4 13 C5.15811388 11.94729537 5.15811388 11.94729537 6 10 C6.99 10.66 7.98 11.32 9 12 C11.73872955 12.45772063 11.73872955 12.45772063 14.6875 12.625 C15.68136719 12.69976562 16.67523438 12.77453125 17.69921875 12.8515625 C18.45847656 12.90054688 19.21773437 12.94953125 20 13 C20 13.66 20 14.32 20 15 C7.79 15 -4.42 15 -17 15 C-17 14.34 -17 13.68 -17 13 C-15.02 13 -13.04 13 -11 13 C-10.67 12.01 -10.34 11.02 -10 10 C-10 11.32 -10 12.64 -10 14 C-9.01 14 -8.02 14 -7 14 C-7.12375 13.278125 -7.2475 12.55625 -7.375 11.8125 C-6.81952548 7.6464411 -4.19068211 6.5395225 -1 4 C-0.05563651 1.83468832 -0.05563651 1.83468832 0 0 Z " fill="#7F8490" transform="translate(17,37)"/>
<path d="M0 0 C6.6 0 13.2 0 20 0 C19.67 1.98 19.34 3.96 19 6 C15.99686252 7.50156874 13.20932478 7.09281204 9.875 7.0625 C8.59367187 7.05347656 7.31234375 7.04445313 5.9921875 7.03515625 C4.51105469 7.01775391 4.51105469 7.01775391 3 7 C3 5.68 3 4.36 3 3 C2.01 2.67 1.02 2.34 0 2 C0 1.34 0 0.68 0 0 Z " fill="#EED917" transform="translate(37,50)"/>
<path d="M0 0 C8.58 0 17.16 0 26 0 C25.67 1.32 25.34 2.64 25 4 C21.95809137 4.05421223 18.91716001 4.09377548 15.875 4.125 C15.0190625 4.14175781 14.163125 4.15851562 13.28125 4.17578125 C8.43412707 4.21306681 4.55292095 3.89580643 0 2 C0 1.34 0 0.68 0 0 Z " fill="#C8F0EE" transform="translate(0,52)"/>
<path d="M0 0 C0 1.98 0 3.96 0 6 C-6.6 6 -13.2 6 -20 6 C-20 4.68 -20 3.36 -20 2 C-19.03578125 1.93941406 -18.0715625 1.87882812 -17.078125 1.81640625 C-15.81484375 1.73261719 -14.5515625 1.64882813 -13.25 1.5625 C-11.99703125 1.48128906 -10.7440625 1.40007813 -9.453125 1.31640625 C-6.25794727 1.02363544 -3.17641562 0 0 0 Z " fill="#7C810C" transform="translate(60,55)"/>
<path d="M0 0 C0.66 0.33 1.32 0.66 2 1 C2.44921875 3.21484375 2.44921875 3.21484375 2.6875 5.9375 C2.77386719 6.83339844 2.86023437 7.72929688 2.94921875 8.65234375 C3 11 3 11 2 13 C-0.31 13 -2.62 13 -5 13 C-5.66 11.68 -6.32 10.36 -7 9 C-6.030625 8.2575 -5.06125 7.515 -4.0625 6.75 C-1.97612639 5.02690085 -1.09887521 4.26131306 -0.125 1.6875 C-0.08375 1.130625 -0.0425 0.57375 0 0 Z " fill="#CAE1EC" transform="translate(17,37)"/>
<path d="M0 0 C1.65 0.33 3.3 0.66 5 1 C4.67 2.98 4.34 4.96 4 7 C5.98 7 7.96 7 10 7 C7 9 7 9 3.8125 8.625 C2.4203125 8.315625 2.4203125 8.315625 1 8 C1 8.66 1 9.32 1 10 C-0.32 10 -1.64 10 -3 10 C-3 11.65 -3 13.3 -3 15 C-3.33 15 -3.66 15 -4 15 C-4.125 11.625 -4.125 11.625 -4 8 C-3.34 7.34 -2.68 6.68 -2 6 C-1.28591666 4.01643517 -0.61382258 2.01684563 0 0 Z " fill="#775E9B" transform="translate(16,5)"/>
<path d="M0 0 C3.1218711 2.43019906 3.93987709 3.62290255 4.57421875 7.6015625 C4.63095155 8.9420398 4.66822502 10.28346116 4.6875 11.625 C4.65077127 16.46018552 4.65077127 16.46018552 6 21 C4.68 20.67 3.36 20.34 2 20 C1.46706163 17.60629375 0.9484183 15.21091562 0.4375 12.8125 C0.28603516 12.13896484 0.13457031 11.46542969 -0.02148438 10.77148438 C-0.8403763 6.86746475 -1.1282845 3.84812264 0 0 Z " fill="#4C3567" transform="translate(18,30)"/>
<path d="M0 0 C0.99 0.66 1.98 1.32 3 2 C1.94441037 4.55100828 1.23544471 5.83590217 -1.0625 7.4375 C-3.54507941 9.43958017 -3.66511136 10.90228009 -4 14 C-4.99 14 -5.98 14 -7 14 C-6.69723124 7.94462479 -3.72245962 4.48516542 0 0 Z " fill="#57407A" transform="translate(14,37)"/>
<path d="M0 0 C1.66611905 -0.042721 3.33382885 -0.04063832 5 0 C5.33 0.33 5.66 0.66 6 1 C8.44608998 1.15980437 10.86731058 1.25929447 13.31640625 1.31640625 C14.04746078 1.33718735 14.77851532 1.35796844 15.53172302 1.37937927 C17.87521656 1.44495024 20.21882539 1.50379432 22.5625 1.5625 C24.14779855 1.60567808 25.73308529 1.64929213 27.31835938 1.69335938 C31.21212037 1.8006392 35.10599772 1.9018849 39 2 C39 2.33 39 2.66 39 3 C33.92801112 3.07413521 28.85633732 3.12859451 23.78393555 3.16479492 C22.05829373 3.17988516 20.33269028 3.20035975 18.60717773 3.22631836 C16.12734512 3.26269209 13.64801936 3.27972359 11.16796875 3.29296875 C10.01001045 3.31619453 10.01001045 3.31619453 8.82865906 3.33988953 C3.45230967 3.34158031 3.45230967 3.34158031 0.98950195 1.48168945 C0.66296631 0.99273193 0.33643066 0.50377441 0 0 Z " fill="#B0DDE8" transform="translate(0,54)"/>
<path d="M0 0 C3.15140423 0.34069235 4.60781561 0.58076841 6.8125 2.9375 C8 5 8 5 8 7 C9.32 7.66 10.64 8.32 12 9 C9.29120665 10.35439668 6.99066732 10.06501451 4 10 C4 8.02 4 6.04 4 4 C2.68 3.34 1.36 2.68 0 2 C0 1.34 0 0.68 0 0 Z " fill="#E1EAFA" transform="translate(16,2)"/>
<path d="M0 0 C0.33 1.32 0.66 2.64 1 4 C1.99 4 2.98 4 4 4 C4.33 3.01 4.66 2.02 5 1 C5.33 1.33 5.66 1.66 6 2 C8.32817964 2.36760731 10.6618385 2.70241581 13 3 C13.33 2.34 13.66 1.68 14 1 C14.33 1.99 14.66 2.98 15 4 C7.98194143 5.10087193 1.09434233 5.09733092 -6 5 C-6 4.34 -6 3.68 -6 3 C-4.02 3 -2.04 3 0 3 C0 2.01 0 1.02 0 0 Z " fill="#78788D" transform="translate(6,47)"/>
<path d="M0 0 C3.29164829 -0.02895225 6.58326399 -0.0467823 9.875 -0.0625 C10.81214844 -0.07087891 11.74929687 -0.07925781 12.71484375 -0.08789062 C14.05869141 -0.09272461 14.05869141 -0.09272461 15.4296875 -0.09765625 C16.67081299 -0.10551147 16.67081299 -0.10551147 17.93701172 -0.11352539 C20 0 20 0 22 1 C22 2.65 22 4.3 22 6 C20.68 6.33 19.36 6.66 18 7 C18.33 5.02 18.66 3.04 19 1 C12.73 1 6.46 1 0 1 C0 0.67 0 0.34 0 0 Z " fill="#ABC991" transform="translate(38,49)"/>
<path d="M0 0 C0 1.98 0 3.96 0 6 C-2.64 6 -5.28 6 -8 6 C-8 5.01 -8 4.02 -8 3 C-7.34 3 -6.68 3 -6 3 C-6 2.34 -6 1.68 -6 1 C-3.92446352 0.4465236 -2.15634036 0 0 0 Z " fill="#578585" transform="translate(60,55)"/>
<path d="M0 0 C0.99 0.33 1.98 0.66 3 1 C2.34 1.66 1.68 2.32 1 3 C0.83312552 5.58354218 0.83312552 5.58354218 1 8 C3.31 8.33 5.62 8.66 8 9 C8 9.66 8 10.32 8 11 C4.81863606 11.21691118 2.56030453 11.25066255 -0.375 9.9375 C-2.78794727 7.06052441 -2.2734643 4.62340201 -2 1 C-1.34 0.67 -0.68 0.34 0 0 Z " fill="#BFDEEA" transform="translate(24,39)"/>
<path d="M0 0 C2.475 0.495 2.475 0.495 5 1 C4.38461538 6.53846154 4.38461538 6.53846154 2.4375 8.875 C1.963125 9.24625 1.48875 9.6175 1 10 C-0.1577506 6.52674819 -0.06866652 3.63932552 0 0 Z " fill="#5A327F" transform="translate(11,24)"/>
<path d="M0 0 C0.66 2.31 1.32 4.62 2 7 C0.35 7 -1.3 7 -3 7 C-3.66 5.68 -4.32 4.36 -5 3 C-2.25 0 -2.25 0 0 0 Z " fill="#CFE5F7" transform="translate(15,43)"/>
<path d="M0 0 C1.98 0.495 1.98 0.495 4 1 C3.34 1.66 2.68 2.32 2 3 C4.64 3.99 7.28 4.98 10 6 C10 6.33 10 6.66 10 7 C8.54119891 6.85892253 7.08296449 6.71197585 5.625 6.5625 C4.40683594 6.44068359 4.40683594 6.44068359 3.1640625 6.31640625 C1 6 1 6 -1 5 C-0.67 3.35 -0.34 1.7 0 0 Z " fill="#E2E3FA" transform="translate(19,15)"/>
<path d="M0 0 C3.3 0.33 6.6 0.66 10 1 C9.67 2.32 9.34 3.64 9 5 C8.34 5 7.68 5 7 5 C6.67 4.34 6.34 3.68 6 3 C4.35 3 2.7 3 1 3 C0.67 2.01 0.34 1.02 0 0 Z " fill="#B2E4E0" transform="translate(42,5)"/>
<path d="M0 0 C2 1.8125 2 1.8125 4 4 C4 4.99 4 5.98 4 7 C2.68 7.33 1.36 7.66 0 8 C-0.38063221 5.6739143 -0.71269945 3.33944736 -1 1 C-0.67 0.67 -0.34 0.34 0 0 Z " fill="#573773" transform="translate(18,30)"/>
<path d="M0 0 C1.98 0 3.96 0 6 0 C6.33 0.66 6.66 1.32 7 2 C6.360625 2.268125 5.72125 2.53625 5.0625 2.8125 C2.66868314 3.88667752 2.66868314 3.88667752 2 7 C0 5 0 5 -0.125 2.375 C-0.08375 1.59125 -0.0425 0.8075 0 0 Z " fill="#E4E4F8" transform="translate(17,23)"/>
<path d="M0 0 C1.64767247 0.28109113 3.29313145 0.57518526 4.9375 0.875 C5.85402344 1.03742187 6.77054688 1.19984375 7.71484375 1.3671875 C8.46894531 1.57601563 9.22304688 1.78484375 10 2 C10.33 2.66 10.66 3.32 11 4 C8.875 4.75 8.875 4.75 6 5 C2.6875 3.125 2.6875 3.125 0 1 C0 0.67 0 0.34 0 0 Z " fill="#8D7CAD" transform="translate(18,20)"/>
<path d="M0 0 C1.32 0 2.64 0 4 0 C4 0.66 4 1.32 4 2 C3.34 2 2.68 2 2 2 C2.33 2.99 2.66 3.98 3 5 C2.67 5.99 2.34 6.98 2 8 C0.68 7.67 -0.64 7.34 -2 7 C-1.34 7 -0.68 7 0 7 C0 4.69 0 2.38 0 0 Z " fill="#3F1961" transform="translate(14,17)"/>
<path d="M0 0 C2 3.75 2 3.75 2 6 C0.68 6 -0.64 6 -2 6 C-2 7.65 -2 9.3 -2 11 C-2.33 11 -2.66 11 -3 11 C-3.36923077 4.6 -3.36923077 4.6 -1.5 1.5625 C-1.005 1.046875 -0.51 0.53125 0 0 Z " fill="#8062A6" transform="translate(15,9)"/>
<path d="M0 0 C0.66 0 1.32 0 2 0 C1.67 2.31 1.34 4.62 1 7 C0.01 7 -0.98 7 -2 7 C-1.125 1.125 -1.125 1.125 0 0 Z " fill="#483266" transform="translate(9,44)"/>
<path d="M0 0 C2.97 0.495 2.97 0.495 6 1 C5.67 2.32 5.34 3.64 5 5 C4.01 4.67 3.02 4.34 2 4 C2 3.01 2 2.02 2 1 C1.34 0.67 0.68 0.34 0 0 Z " fill="#BAE5B1" transform="translate(34,52)"/>
<path d="M0 0 C1.32 0 2.64 0 4 0 C3.625 2.4375 3.625 2.4375 3 5 C2.01 5.495 2.01 5.495 1 6 C0.67 4.02 0.34 2.04 0 0 Z " fill="#5E3087" transform="translate(15,7)"/>
</svg>
