<svg width="142" height="142" viewBox="0 0 142 142" fill="none" xmlns="http://www.w3.org/2000/svg">
<g clip-path="url(#clip0_255_11924)">
<rect width="142" height="142" rx="71" fill="white"/>
<path d="M131 71C131 104.137 104.137 131 71 131C37.8629 131 11 104.137 11 71C11 37.8629 37.8629 11 71 11C104.137 11 131 37.8629 131 71Z" fill="#32302F"/>
<path fill-rule="evenodd" clip-rule="evenodd" d="M71 123C99.7188 123 123 99.7188 123 71C123 42.2812 99.7188 19 71 19C42.2812 19 19 42.2812 19 71C19 99.7188 42.2812 123 71 123ZM71 131C104.137 131 131 104.137 131 71C131 37.8629 104.137 11 71 11C37.8629 11 11 37.8629 11 71C11 104.137 37.8629 131 71 131Z" fill="#DDC7A1"/>
<path fill-rule="evenodd" clip-rule="evenodd" d="M79.8349 93.0875C59.9071 101.052 49.9416 105.042 44.2542 101.175C42.9058 100.258 41.7424 99.0941 40.8247 97.7457C36.9582 92.0552 40.9419 82.0897 48.9124 62.165C50.6129 57.9153 51.4647 55.7905 52.9246 54.1217C53.2982 53.6973 53.6973 53.2983 54.1216 52.9247C55.7904 51.4648 57.9153 50.613 62.1649 48.9125C82.0896 40.942 92.0551 36.9583 97.7456 40.8248C99.0946 41.7432 100.257 42.9053 101.175 44.2543C105.042 49.9448 101.055 59.9072 93.0874 79.835C91.3869 84.0847 90.5351 86.2095 89.0753 87.8783C88.7016 88.3027 88.3026 88.7017 87.8783 89.0753C86.2094 90.5352 84.0846 91.387 79.8349 93.0875Z" fill="#DDC7A1"/>
<path d="M71 59.125C67.8506 59.125 64.8301 60.3761 62.6031 62.6031C60.3761 64.8301 59.125 67.8506 59.125 71C59.125 74.1494 60.3761 77.1699 62.6031 79.3969C64.8301 81.6239 67.8506 82.875 71 82.875C74.1494 82.875 77.1699 81.6239 79.3969 79.3969C81.6239 77.1699 82.875 74.1494 82.875 71C82.875 67.8506 81.6239 64.8301 79.3969 62.6031C77.1699 60.3761 74.1494 59.125 71 59.125Z" fill="#32302F"/>
</g>
<defs>
<clipPath id="clip0_255_11924">
<rect width="142" height="142" fill="white"/>
</clipPath>
</defs>
</svg>
