<svg width="128" height="128" viewBox="0 0 128 128" fill="none" xmlns="http://www.w3.org/2000/svg">
<rect width="128" height="128" fill="#538D4E"/>
<path d="M63.4993 96.8949C58.7266 96.8949 54.4759 96.0746 50.7472 94.4339C47.0398 92.772 44.1101 90.4922 41.9581 87.5945C39.8274 84.6754 38.7301 81.3089 38.6662 77.495H52.6009C52.6861 79.093 53.2081 80.4993 54.1669 81.7138C55.147 82.907 56.4467 83.8338 58.0661 84.4943C59.6854 85.1548 61.5071 85.4851 63.5312 85.4851C65.6406 85.4851 67.505 85.1122 69.1243 84.3665C70.7436 83.6207 72.0114 82.5874 72.9276 81.2663C73.8438 79.9453 74.3018 78.4219 74.3018 76.696C74.3018 74.9489 73.8118 73.4041 72.8317 72.0618C71.8729 70.6982 70.4879 69.6328 68.6768 68.8658C66.8871 68.0987 64.7564 67.7152 62.2848 67.7152H56.1804V57.5518H62.2848C64.3729 57.5518 66.2159 57.1896 67.8139 56.4652C69.4332 55.7408 70.6903 54.7393 71.5852 53.4609C72.4801 52.1612 72.9276 50.6484 72.9276 48.9226C72.9276 47.282 72.5334 45.8438 71.745 44.608C70.978 43.3509 69.8913 42.3707 68.4851 41.6676C67.1001 40.9645 65.4808 40.6129 63.6271 40.6129C61.7521 40.6129 60.0369 40.9538 58.4815 41.6357C56.9261 42.2962 55.6797 43.2443 54.7422 44.4801C53.8047 45.7159 53.304 47.1648 53.2401 48.8267H39.9766C40.0405 45.0554 41.1165 41.7315 43.2045 38.8551C45.2926 35.9787 48.1051 33.7308 51.642 32.1115C55.2003 30.4709 59.2166 29.6506 63.6911 29.6506C68.2081 29.6506 72.1605 30.4709 75.5483 32.1115C78.9361 33.7521 81.5675 35.968 83.4425 38.7592C85.3388 41.5291 86.2763 44.6399 86.255 48.0916C86.2763 51.7564 85.1364 54.8139 82.8352 57.2642C80.5554 59.7145 77.5831 61.2699 73.9183 61.9304V62.4418C78.7337 63.0597 82.3984 64.7322 84.9126 67.4595C87.4482 70.1655 88.7053 73.5533 88.6839 77.6229C88.7053 81.3516 87.6293 84.6648 85.456 87.5625C83.304 90.4602 80.3317 92.7401 76.5391 94.402C72.7464 96.0639 68.3999 96.8949 63.4993 96.8949Z" fill="white"/>
</svg>
