<?xml version="1.0" encoding="UTF-8"?>
<svg version="1.1" xmlns="http://www.w3.org/2000/svg" width="1024" height="1024">
<path d="M0 0 C337.92 0 675.84 0 1024 0 C1024 337.92 1024 675.84 1024 1024 C686.08 1024 348.16 1024 0 1024 C0 686.08 0 348.16 0 0 Z " fill="#358732" transform="translate(0,0)"/>
<path d="M0 0 C3.46208166 -0.00965781 6.92355608 -0.04074642 10.38549805 -0.07226562 C25.0097513 -0.14081915 39.12847378 0.89212739 53.56323242 3.24023438 C54.27765503 3.35572128 54.99207764 3.47120819 55.72814941 3.5901947 C92.9443659 9.72153706 127.38823997 25.01276607 154.56323242 51.24023438 C155.41530273 52.02914062 156.26737305 52.81804687 157.14526367 53.63085938 C180.13143722 75.49487327 191.92446597 104.60592014 197.56323242 135.24023438 C197.83369385 136.62045776 197.83369385 136.62045776 198.10961914 138.02856445 C198.6559135 141.89643439 198.74436239 145.71328215 198.76635742 149.61132812 C198.7720575 150.41071304 198.77775757 151.21009796 198.78363037 152.03370667 C198.79304491 153.72387384 198.79960019 155.41405908 198.8034668 157.10424805 C198.81308488 159.63885435 198.84410476 162.17261782 198.87573242 164.70703125 C198.94275406 174.96448236 198.05762009 184.27419626 195.56323242 194.24023438 C195.36971191 195.05371338 195.17619141 195.86719238 194.97680664 196.70532227 C188.75814999 221.69402584 175.98188699 241.52913327 158.56323242 260.24023438 C157.85038086 261.03042969 157.1375293 261.820625 156.40307617 262.63476562 C144.17800857 275.61472591 128.28644509 285.82856944 112.18041992 293.35351562 C110.37392149 294.14447355 110.37392149 294.14447355 109.56323242 296.24023438 C110.42875732 296.51407959 111.29428223 296.7879248 112.18603516 297.07006836 C127.22082303 302.27947617 143.17721033 310.23681342 155.56323242 320.24023438 C156.08449707 320.65450684 156.60576172 321.0687793 157.14282227 321.49560547 C186.12793633 344.65111954 207.8467966 376.23587132 214.56323242 413.24023438 C214.73983398 414.20767578 214.91643555 415.17511719 215.09838867 416.171875 C216.59396549 425.33095718 216.87210205 434.28028702 216.82397461 443.54296875 C216.81330559 445.97356457 216.82390843 448.40341154 216.83666992 450.83398438 C216.85249343 466.11389623 215.55077106 481.01407938 211.81323242 495.86523438 C211.55010254 496.92863037 211.28697266 497.99202637 211.01586914 499.08764648 C204.73992405 523.72979537 193.25771432 546.01540418 176.56323242 565.24023438 C175.84393555 566.08199219 175.12463867 566.92375 174.38354492 567.79101562 C152.29755604 593.06021642 122.91564503 609.225614 91.56323242 620.24023438 C90.76675293 620.52447266 89.97027344 620.80871094 89.1496582 621.1015625 C79.30890967 624.5676441 69.28865984 627.14961642 59.12573242 629.49023438 C58.07933594 629.73668701 57.03293945 629.98313965 55.95483398 630.23706055 C37.97646622 634.20497464 19.88546922 634.56585555 1.54467773 634.50097656 C-2.06389072 634.49022805 -5.67196382 634.50095192 -9.28051758 634.51367188 C-67.74416941 634.55225794 -124.28906677 617.95436582 -166.56176758 576.42773438 C-185.21339377 557.5960614 -197.55119669 534.76936373 -204.43676758 509.24023438 C-204.67306885 508.36874756 -204.90937012 507.49726074 -205.15283203 506.59936523 C-206.99310183 499.57417661 -208.26387248 492.63530644 -209.12426758 485.42773438 C-209.25381836 484.48220703 -209.38336914 483.53667969 -209.5168457 482.5625 C-210.886078 471.32610159 -210.43676758 460.80429446 -210.43676758 449.24023438 C-172.15676758 449.24023438 -133.87676758 449.24023438 -94.43676758 449.24023438 C-93.77676758 455.84023438 -93.11676758 462.44023438 -92.43676758 469.24023438 C-91.82023216 472.7673905 -91.21690448 476.06132689 -90.31176758 479.49023438 C-90.10076416 480.30540527 -89.88976074 481.12057617 -89.67236328 481.96044922 C-86.2030286 494.51462257 -80.27072047 505.63882162 -71.43676758 515.24023438 C-70.68782227 516.08070313 -69.93887695 516.92117188 -69.16723633 517.78710938 C-53.96878325 533.99224512 -32.88287621 541.66390111 -11.05395508 542.55664062 C13.77364248 543.17228787 36.61767046 538.98893736 55.62573242 521.80273438 C56.33858398 521.12339844 57.05143555 520.4440625 57.78588867 519.74414062 C59.56323242 518.24023438 59.56323242 518.24023438 61.56323242 518.24023438 C61.8390918 517.64082031 62.11495117 517.04140625 62.39916992 516.42382812 C63.56323242 514.24023437 63.56323242 514.24023437 66.18823242 511.30273438 C85.1600686 489.64051556 88.91784768 461.97343276 87.56323242 434.24023438 C85.80637551 413.80252534 78.1002555 396.36628759 65.56323242 380.24023438 C65.00893555 379.51835938 64.45463867 378.79648437 63.88354492 378.05273438 C49.91105066 360.93810025 26.83242103 353.0099219 5.56323242 350.24023438 C1.16182129 349.94575614 -3.22958667 349.87081596 -7.63989258 349.82617188 C-9.44559723 349.79712265 -9.44559723 349.79712265 -11.28778076 349.76748657 C-15.08737368 349.70828104 -18.88699787 349.66154362 -22.68676758 349.61523438 C-25.281832 349.57700019 -27.87688446 349.5379454 -30.47192383 349.49804688 C-36.79343136 349.40262887 -43.11501244 349.31741334 -49.43676758 349.24023438 C-50.1878566 343.3946638 -50.57950638 337.67437106 -50.55029297 331.78295898 C-50.550439 330.99160553 -50.55058502 330.20025208 -50.55073547 329.38491821 C-50.55004627 326.80410897 -50.54230101 324.22337455 -50.53442383 321.64257812 C-50.53255611 319.83940165 -50.53113388 318.03622466 -50.53013611 316.23304749 C-50.52633875 311.51326061 -50.51653254 306.79350506 -50.50543213 302.07373047 C-50.49515789 297.24707462 -50.49062566 292.42041366 -50.4855957 287.59375 C-50.47490749 278.14256445 -50.4578649 268.69140203 -50.43676758 259.24023438 C-49.59137169 259.23143501 -49.59137169 259.23143501 -48.72889709 259.22245789 C-42.77322528 259.15768531 -36.81805288 259.07307084 -30.86279297 258.9777832 C-28.65094661 258.94487121 -26.43902304 258.91673878 -24.22705078 258.89379883 C-7.28225866 258.71341259 9.13427782 258.26904172 24.93823242 251.49023438 C25.779104 251.13952881 26.61997559 250.78882324 27.48632812 250.42749023 C44.04470427 243.33653008 57.41693786 231.86790642 64.5065918 214.99511719 C66.46136679 209.82337804 68.1175571 204.57526224 69.56323242 199.24023438 C69.75755859 198.57967041 69.95188477 197.91910645 70.15209961 197.23852539 C72.09378691 189.87932285 71.95987392 182.35998923 71.93823242 174.80273438 C71.9376886 174.09191711 71.93714478 173.38109985 71.93658447 172.64874268 C71.85228129 148.69517246 65.98836676 128.54601586 49.43823242 110.55273438 C34.76882967 96.53530508 15.13121122 92.07604256 -4.56176758 91.99023438 C-5.72192383 91.96960938 -6.88208008 91.94898438 -8.07739258 91.92773438 C-19.08745756 91.87847234 -28.8563907 93.85723703 -38.62426758 98.99023438 C-39.30497314 99.34239014 -39.98567871 99.6945459 -40.68701172 100.05737305 C-59.00231656 109.76887609 -70.39166789 126.88895845 -76.41723633 146.39648438 C-78.15929054 152.964229 -79.30098015 159.52876323 -80.43676758 166.24023438 C-81.42676758 171.85023438 -82.41676758 177.46023438 -83.43676758 183.24023438 C-122.04676758 183.24023438 -160.65676758 183.24023438 -200.43676758 183.24023438 C-200.43676758 161.12359476 -200.43676758 161.12359476 -199.24926758 153.80273438 C-199.11617188 152.93986816 -198.98307617 152.07700195 -198.84594727 151.18798828 C-195.22747717 128.92265942 -188.12408949 108.08260615 -177.43676758 88.24023438 C-176.90696289 87.22960937 -176.3771582 86.21898437 -175.83129883 85.17773438 C-161.66221115 59.42847873 -140.42709419 40.9397011 -115.43676758 26.24023438 C-114.8313916 25.881875 -114.22601563 25.52351563 -113.60229492 25.15429688 C-78.88969252 4.87748713 -39.48618826 0.06630298 0 0 Z " fill="#FBF7ED" transform="translate(507.436767578125,175.759765625)"/>
<path d="M0 0 C0.99 0.33 1.98 0.66 3 1 C2.88058377 5.65915291 2.7562764 10.31814204 2.62768555 14.97705078 C2.58471615 16.55774507 2.54301955 18.13847455 2.50268555 19.71923828 C2.28566132 28.19122111 2.00441277 36.57643747 1 45 C0.67 45 0.34 45 0 45 C0 30.15 0 15.3 0 0 Z " fill="#2A7727" transform="translate(724,602)"/>
<path d="M0 0 C0.99 0.99 1.98 1.98 3 3 C3.66 2.01 4.32 1.02 5 0 C5.66 0 6.32 0 7 0 C7 1.65 7 3.3 7 5 C6.01 5.495 6.01 5.495 5 6 C5 7.65 5 9.3 5 11 C5.66 11 6.32 11 7 11 C7 13.31 7 15.62 7 18 C4.43320517 15.43320517 3.66651446 12.94989318 2.375 9.5625 C1.92898438 8.40878906 1.48296875 7.25507812 1.0234375 6.06640625 C0 3 0 3 0 0 Z " fill="#317F2E" transform="translate(712,557)"/>
<path d="M0 0 C0.33 0 0.66 0 1 0 C1.33 4.62 1.66 9.24 2 14 C1.01 13.67 0.02 13.34 -1 13 C-1 14.98 -1 16.96 -1 19 C-1.33 19 -1.66 19 -2 19 C-1.85913398 16.39547729 -1.71251536 13.79149803 -1.5625 11.1875 C-1.50352539 10.08051758 -1.50352539 10.08051758 -1.44335938 8.95117188 C-1.25618965 5.76928658 -1.01279207 3.03837622 0 0 Z " fill="#E9EEE0" transform="translate(309,329)"/>
<path d="M0 0 C1.0354051 3.1848935 0.94040666 5.13031874 0.00390625 8.328125 C-0.33930664 9.52695312 -0.33930664 9.52695312 -0.68945312 10.75 C-0.93630859 11.575 -1.18316406 12.4 -1.4375 13.25 C-1.68048828 14.09046875 -1.92347656 14.9309375 -2.17382812 15.796875 C-2.77373949 17.86715734 -3.38570819 19.93393897 -4 22 C-4.33 22 -4.66 22 -5 22 C-5.625 18.625 -5.625 18.625 -6 15 C-5.34 14.34 -4.68 13.68 -4 13 C-3.59952556 10.67724823 -3.2602896 8.34260643 -3 6 C-2.34 6 -1.68 6 -1 6 C-0.67 4.02 -0.34 2.04 0 0 Z " fill="#297425" transform="translate(315,295)"/>
<path d="M0 0 C0.66 0.33 1.32 0.66 2 1 C0.68 2.32 -0.64 3.64 -2 5 C0.31 5 2.62 5 5 5 C5.33 5.99 5.66 6.98 6 8 C6.66 8.66 7.32 9.32 8 10 C3.14036821 9.39254603 -0.7405518 7.27241033 -5 5 C-4 2 -4 2 -2.0625 0.75 C-1.381875 0.5025 -0.70125 0.255 0 0 Z " fill="#31782C" transform="translate(622,467)"/>
<path d="M0 0 C4.35970831 1.34849837 8.31341438 3.04907846 12.375 5.125 C13.43460938 5.66382813 14.49421875 6.20265625 15.5859375 6.7578125 C16.38257813 7.16773438 17.17921875 7.57765625 18 8 C17.34 8.66 16.68 9.32 16 10 C10.66666667 7.33333333 5.33333333 4.66666667 0 2 C0 1.34 0 0.68 0 0 Z " fill="#EDF2E8" transform="translate(632,479)"/>
<path d="M0 0 C3.01693943 2.85674795 5.40554531 5.82348931 7.75 9.25 C8.67039062 10.58804688 8.67039062 10.58804688 9.609375 11.953125 C10.06828125 12.62859375 10.5271875 13.3040625 11 14 C10.67 14.66 10.34 15.32 10 16 C9.01 15.67 8.02 15.34 7 15 C7 14.34 7 13.68 7 13 C6.34 12.67 5.68 12.34 5 12 C4.30959426 10.34302621 3.6469365 8.6744239 3 7 C2.46375 6.113125 1.9275 5.22625 1.375 4.3125 C0 2 0 2 0 0 Z " fill="#287325" transform="translate(318,723)"/>
<path d="M0 0 C1.38121943 5.52487772 0.20601815 7.92284015 -2.5625 12.75 C-3.01753906 13.54921875 -3.47257813 14.3484375 -3.94140625 15.171875 C-4.29074219 15.77515625 -4.64007812 16.3784375 -5 17 C-5.66 16.67 -6.32 16.34 -7 16 C-4.69 10.72 -2.38 5.44 0 0 Z " fill="#33762E" transform="translate(696,389)"/>
<path d="M0 0 C1 3 1 3 -0.21484375 5.91796875 C-0.78332031 6.99691406 -1.35179687 8.07585938 -1.9375 9.1875 C-2.50339844 10.27417969 -3.06929687 11.36085938 -3.65234375 12.48046875 C-4.09707031 13.31191406 -4.54179688 14.14335938 -5 15 C-6.24546405 12.50907189 -5.7767578 11.58919267 -5 9 C-4.34 9 -3.68 9 -3 9 C-3.33 8.01 -3.66 7.02 -4 6 C-3.01 5.67 -2.02 5.34 -1 5 C-0.67 3.35 -0.34 1.7 0 0 Z " fill="#297224" transform="translate(589,658)"/>
<path d="M0 0 C5.45479185 0.56820748 9.91059256 1.94637945 15 4 C12.07175348 4.97608217 10.04386724 5.08226668 7 5 C6.67 4.34 6.34 3.68 6 3 C4.02111039 2.27306096 2.02045442 1.60183749 0 1 C0 0.67 0 0.34 0 0 Z " fill="#247421" transform="translate(524,528)"/>
<path d="M0 0 C0.33 0.66 0.66 1.32 1 2 C-0.19931656 5.37989213 -1.90104287 7.21575195 -5 9 C-5.99 8.67 -6.98 8.34 -8 8 C-5.36 5.36 -2.72 2.72 0 0 Z " fill="#237521" transform="translate(677,748)"/>
<path d="M0 0 C0.99 0 1.98 0 3 0 C2.67 0.99 2.34 1.98 2 3 C-2.81087497 4.54926482 -6.91996441 5.25400178 -12 5 C-8.17482487 2.60926555 -4.40334476 2.44033448 0 2 C0 1.34 0 0.68 0 0 Z " fill="#287424" transform="translate(523,428)"/>
<path d="M0 0 C0 3.39593478 -0.52165948 4.06619881 -2.5 6.6875 C-2.9640625 7.31011719 -3.428125 7.93273437 -3.90625 8.57421875 C-4.2671875 9.04472656 -4.628125 9.51523437 -5 10 C-5.99 9.67 -6.98 9.34 -8 9 C-5.36 6.03 -2.72 3.06 0 0 Z " fill="#297427" transform="translate(686,738)"/>
<path d="M0 0 C0.66 0.33 1.32 0.66 2 1 C1.67 3.97 1.34 6.94 1 10 C0.34 9.67 -0.32 9.34 -1 9 C-1.125 2.25 -1.125 2.25 0 0 Z " fill="#317B2E" transform="translate(722,657)"/>
<path d="M0 0 C0.99 0 1.98 0 3 0 C2.50168276 3.68754757 1.89932357 5.60490662 -1 8 C-0.67 5.36 -0.34 2.72 0 0 Z " fill="#EEF1E7" transform="translate(314,302)"/>
<path d="M0 0 C1.98 0.99 1.98 0.99 4 2 C3.67 4.31 3.34 6.62 3 9 C0.23776722 6.23776722 0.42143709 3.79293383 0 0 Z " fill="#287626" transform="translate(699,285)"/>
<path d="M0 0 C0.33 0.99 0.66 1.98 1 3 C0.34 3 -0.32 3 -1 3 C-1.66 4.65 -2.32 6.3 -3 8 C-3.99 7.34 -4.98 6.68 -6 6 C-4.02 4.02 -2.04 2.04 0 0 Z " fill="#EDF2E6" transform="translate(354,231)"/>
<path d="M0 0 C0.33 0.99 0.66 1.98 1 3 C0.00390625 4.82421875 0.00390625 4.82421875 -1.4375 6.6875 C-1.91058594 7.31011719 -2.38367188 7.93273437 -2.87109375 8.57421875 C-3.24363281 9.04472656 -3.61617187 9.51523437 -4 10 C-4.33 9.01 -4.66 8.02 -5 7 C-4.00390625 5.17578125 -4.00390625 5.17578125 -2.5625 3.3125 C-2.08941406 2.68988281 -1.61632812 2.06726563 -1.12890625 1.42578125 C-0.75636719 0.95527344 -0.38382813 0.48476563 0 0 Z " fill="#EAF0E6" transform="translate(697,720)"/>
<path d="M0 0 C0.99 0.33 1.98 0.66 3 1 C2.67 1.66 2.34 2.32 2 3 C2.99 3 3.98 3 5 3 C5.33 4.98 5.66 6.96 6 9 C0.42857143 3.85714286 0.42857143 3.85714286 0 0 Z " fill="#267223" transform="translate(426,677)"/>
<path d="M0 0 C0.66 1.32 1.32 2.64 2 4 C2.66 4 3.32 4 4 4 C4 6.31 4 8.62 4 11 C1.6870518 8.6870518 1.50419025 7.52095125 0.875 4.375 C0.70742188 3.55773437 0.53984375 2.74046875 0.3671875 1.8984375 C0.24601563 1.27195312 0.12484375 0.64546875 0 0 Z " fill="#266F22" transform="translate(715,564)"/>
<path d="M0 0 C1.98 1.65 3.96 3.3 6 5 C5.67 6.65 5.34 8.3 5 10 C2.35534962 6.8745041 1.15585285 3.91211733 0 0 Z " fill="#257223" transform="translate(689,262)"/>
<path d="M0 0 C0.33 0.66 0.66 1.32 1 2 C0.06421005 4.35981813 -0.93347808 6.69631264 -2 9 C-2.99 8.67 -3.98 8.34 -5 8 C-3.35 5.36 -1.7 2.72 0 0 Z " fill="#297626" transform="translate(697,723)"/>
<path d="M0 0 C3.36720387 1.39332574 4.9859524 2.9789286 7 6 C6.01 6.495 6.01 6.495 5 7 C4.34 6.01 3.68 5.02 3 4 C2.01 4 1.02 4 0 4 C0 2.68 0 1.36 0 0 Z " fill="#3B7D36" transform="translate(564,547)"/>
<path d="M0 0 C0.66 0.33 1.32 0.66 2 1 C0.68 2.32 -0.64 3.64 -2 5 C-1.34 5.33 -0.68 5.66 0 6 C-1.65 5.67 -3.3 5.34 -5 5 C-4 2 -4 2 -2.0625 0.75 C-1.381875 0.5025 -0.70125 0.255 0 0 Z " fill="#266B22" transform="translate(622,467)"/>
</svg>
