<?xml version="1.0" encoding="UTF-8"?>
<svg version="1.1" xmlns="http://www.w3.org/2000/svg" width="255" height="256">
<path d="M0 0 C0.79577473 -0.00382555 1.59154947 -0.00765109 2.41143858 -0.01159257 C5.06900745 -0.02188364 7.7263587 -0.01793784 10.38394165 -0.01396179 C12.29300638 -0.01831044 14.20206937 -0.02349409 16.11112976 -0.02944946 C21.29091817 -0.0428347 26.47063359 -0.04341862 31.65043592 -0.04088616 C35.97694537 -0.03981607 40.30344007 -0.04470083 44.62994635 -0.04949158 C54.83848336 -0.06058526 65.04698357 -0.06102504 75.25552368 -0.05497742 C85.78127176 -0.04893767 96.30688617 -0.06124901 106.83261144 -0.08254749 C115.87482949 -0.10017029 124.91700502 -0.10616374 133.9592396 -0.10290974 C139.35742936 -0.10109774 144.75552378 -0.10372484 150.15369797 -0.11762428 C155.23119214 -0.13020889 160.30847815 -0.12825244 165.38596916 -0.11521339 C167.24673089 -0.11284941 169.10750729 -0.11557592 170.96825218 -0.12383652 C173.51398721 -0.13432086 176.0590259 -0.12619 178.60473633 -0.11352539 C179.3360758 -0.12089968 180.06741526 -0.12827396 180.82091653 -0.13587171 C186.86119522 -0.0729214 192.41428585 1.16626866 197.17153931 5.12788391 C197.71036743 5.79046204 198.24919556 6.45304016 198.80435181 7.13569641 C199.35864868 7.79311829 199.91294556 8.45054016 200.48403931 9.12788391 C203.37516534 13.39424828 204.18010498 17.06424866 204.19677734 22.18122864 C204.2095723 23.9602935 204.2095723 23.9602935 204.22262573 25.77529907 C204.22126617 27.71423286 204.22126617 27.71423286 204.21987915 29.69233704 C204.22586665 31.07411054 204.23267271 32.4558807 204.24023438 33.83764648 C204.25787537 37.58345239 204.26258884 41.32916687 204.26386595 45.0750103 C204.26528875 47.41603417 204.26956071 49.75703487 204.27486038 52.09805298 C204.2933517 60.26702854 204.30153179 68.43593889 204.29995728 76.60493469 C204.29875489 84.21732472 204.31987838 91.82943168 204.3514446 99.44175005 C204.37759472 105.98116657 204.38832517 112.52049052 204.38704646 119.05995893 C204.38653661 122.96415639 204.39223256 126.86810199 204.41340256 130.77224731 C204.43276485 134.44299713 204.4329237 138.1132542 204.41836929 141.78402138 C204.41528123 143.77140309 204.43197014 145.75878475 204.44924927 147.74609375 C204.44086029 148.93213699 204.43247131 150.11818024 204.42382812 151.34016418 C204.42491766 152.36884361 204.42600719 153.39752304 204.42712975 154.45737457 C203.79333333 158.02670778 202.4886661 159.73298318 199.92935181 162.26069641 C198.93935181 162.26069641 197.94935181 162.26069641 196.92935181 162.26069641 C196.92935181 165.89069641 196.92935181 169.52069641 196.92935181 173.26069641 C198.57935181 173.92069641 200.22935181 174.58069641 201.92935181 175.26069641 C204.3990954 178.96531181 204.25250167 181.85617818 204.26528931 186.14741516 C204.27527451 187.31117424 204.27527451 187.31117424 204.28546143 188.4984436 C204.29558547 190.14174533 204.30027852 191.78508814 204.29995728 193.42842102 C204.3043062 195.92204824 204.3405575 198.41386959 204.37857056 200.90718079 C204.38444397 202.50808624 204.38840985 204.10900004 204.39028931 205.70991516 C204.40466034 206.44666977 204.41903137 207.18342438 204.43383789 207.94250488 C204.37868197 214.31084723 202.33998945 219.40975965 198.21841431 224.28413391 C197.39470337 224.95315735 197.39470337 224.95315735 196.55435181 225.63569641 C196.01036743 226.09718079 195.46638306 226.55866516 194.90591431 227.03413391 C189.82640607 230.18623981 184.69329856 230.55136129 178.85870361 230.52139282 C178.06292888 230.52521837 177.26715415 230.52904392 176.44726503 230.53298539 C173.78969616 230.54327647 171.13234491 230.53933066 168.47476196 230.53535461 C166.56569723 230.53970326 164.65663425 230.54488692 162.74757385 230.55084229 C157.56778544 230.56422752 152.38807002 230.56481145 147.20826769 230.56227899 C142.88175825 230.56120889 138.55526355 230.56609366 134.22875726 230.57088441 C124.02022026 230.58197808 113.81172005 230.58241786 103.60317993 230.57637024 C93.07743185 230.5703305 82.55181745 230.58264184 72.02609217 230.60394031 C62.98387412 230.62156311 53.9416986 230.62755657 44.89946401 230.62430257 C39.50127425 230.62249056 34.10317984 230.62511767 28.70500565 230.63901711 C23.62751147 230.65160171 18.55022547 230.64964526 13.47273445 230.63660622 C11.61197273 230.63424223 9.75119632 230.63696874 7.89045143 230.64522934 C5.34471641 230.65571368 2.79967772 230.64758282 0.25396729 230.63491821 C-0.47737218 230.6422925 -1.20871165 230.64966678 -1.96221292 230.65726453 C-8.0024916 230.59431422 -13.55558223 229.35512416 -18.31283569 225.39350891 C-18.85166382 224.73093079 -19.39049194 224.06835266 -19.94564819 223.38569641 C-20.49994507 222.72827454 -21.05424194 222.07085266 -21.62533569 221.39350891 C-24.95486961 216.4801967 -25.36207975 212.01255911 -25.33807373 206.19641113 C-25.34260484 205.38924017 -25.34713596 204.5820692 -25.35180438 203.75043851 C-25.36445495 201.04831443 -25.36282758 198.34639173 -25.36117554 195.64424133 C-25.36716039 193.70576722 -25.37396584 191.76729549 -25.38153076 189.8288269 C-25.39920276 184.56427818 -25.40388666 179.29979447 -25.40516233 174.03521895 C-25.40658386 170.74539943 -25.41085351 167.45559644 -25.41615677 164.16578102 C-25.43466133 152.68658524 -25.44282688 141.20743591 -25.44125366 129.72822571 C-25.44005229 119.03148716 -25.46115273 108.33495041 -25.49274099 97.63826293 C-25.51890204 88.45169158 -25.52962102 79.26518613 -25.52834284 70.07857782 C-25.52783314 64.59314749 -25.53352095 59.10789647 -25.55469894 53.62250328 C-25.57407821 48.46208179 -25.57420779 43.30201069 -25.55966568 38.14157677 C-25.55757608 36.25017281 -25.5622875 34.35874694 -25.5743866 32.46738052 C-25.58986396 29.87982132 -25.58051498 27.29346659 -25.56512451 24.70593262 C-25.57541164 23.96223818 -25.58569876 23.21854375 -25.59629762 22.45231313 C-25.51380848 16.15138753 -23.4361706 11.05827771 -19.35971069 6.23725891 C-18.81057007 5.79124329 -18.26142944 5.34522766 -17.69564819 4.88569641 C-17.15166382 4.42421204 -16.60767944 3.96272766 -16.04721069 3.48725891 C-10.96770246 0.33515301 -5.83459495 -0.02996846 0 0 Z " fill="#FE7F86" transform="translate(38.070648193359375,12.739303588867188)"/>
<path d="M0 0 C0.79577473 -0.00382555 1.59154947 -0.00765109 2.41143858 -0.01159257 C5.06900745 -0.02188364 7.7263587 -0.01793784 10.38394165 -0.01396179 C12.29300638 -0.01831044 14.20206937 -0.02349409 16.11112976 -0.02944946 C21.29091817 -0.0428347 26.47063359 -0.04341862 31.65043592 -0.04088616 C35.97694537 -0.03981607 40.30344007 -0.04470083 44.62994635 -0.04949158 C54.83848336 -0.06058526 65.04698357 -0.06102504 75.25552368 -0.05497742 C85.78127176 -0.04893767 96.30688617 -0.06124901 106.83261144 -0.08254749 C115.87482949 -0.10017029 124.91700502 -0.10616374 133.9592396 -0.10290974 C139.35742936 -0.10109774 144.75552378 -0.10372484 150.15369797 -0.11762428 C155.23119214 -0.13020889 160.30847815 -0.12825244 165.38596916 -0.11521339 C167.24673089 -0.11284941 169.10750729 -0.11557592 170.96825218 -0.12383652 C173.51398721 -0.13432086 176.0590259 -0.12619 178.60473633 -0.11352539 C179.3360758 -0.12089968 180.06741526 -0.12827396 180.82091653 -0.13587171 C186.86119522 -0.0729214 192.41428585 1.16626866 197.17153931 5.12788391 C197.71036743 5.79046204 198.24919556 6.45304016 198.80435181 7.13569641 C199.35864868 7.79311829 199.91294556 8.45054016 200.48403931 9.12788391 C203.37516534 13.39424828 204.18010498 17.06424866 204.19677734 22.18122864 C204.2095723 23.9602935 204.2095723 23.9602935 204.22262573 25.77529907 C204.22126617 27.71423286 204.22126617 27.71423286 204.21987915 29.69233704 C204.22586665 31.07411054 204.23267271 32.4558807 204.24023438 33.83764648 C204.25787537 37.58345239 204.26258884 41.32916687 204.26386595 45.0750103 C204.26528875 47.41603417 204.26956071 49.75703487 204.27486038 52.09805298 C204.2933517 60.26702854 204.30153179 68.43593889 204.29995728 76.60493469 C204.29875489 84.21732472 204.31987838 91.82943168 204.3514446 99.44175005 C204.37759472 105.98116657 204.38832517 112.52049052 204.38704646 119.05995893 C204.38653661 122.96415639 204.39223256 126.86810199 204.41340256 130.77224731 C204.43276485 134.44299713 204.4329237 138.1132542 204.41836929 141.78402138 C204.41528123 143.77140309 204.43197014 145.75878475 204.44924927 147.74609375 C204.44086029 148.93213699 204.43247131 150.11818024 204.42382812 151.34016418 C204.42491766 152.36884361 204.42600719 153.39752304 204.42712975 154.45737457 C203.79372177 158.02452025 202.46022219 159.71061514 199.92935181 162.26069641 C196.11486828 163.07228865 194.54912282 162.65969909 191.27618408 160.5526123 C187.14516073 156.14964353 188.25881537 149.59385222 188.3175354 143.96504211 C188.31399267 142.59810154 188.30821331 141.23116521 188.30036926 139.86424255 C188.28820573 136.92627676 188.29163806 133.98889196 188.30720139 131.05094337 C188.33152353 126.40814465 188.32002266 121.76585461 188.30352783 117.12304688 C188.27904855 108.94823618 188.28483192 100.77365731 188.29733276 92.59883118 C188.31593356 80.27956317 188.31112967 67.96033797 188.27729857 55.64110249 C188.26576143 51.02270199 188.27025358 46.40467084 188.28731894 41.78629076 C188.29519462 38.91923864 188.29097987 36.05229501 188.28360939 33.18524551 C188.28240783 31.21518226 188.29628554 29.24512808 188.31053162 27.27511597 C188.30521927 26.11002502 188.29990692 24.94493408 188.29443359 23.74453735 C188.29631872 22.72784123 188.29820385 21.71114511 188.3001461 20.66364002 C188.17778399 19.87066863 188.05542187 19.07769724 187.92935181 18.26069641 C184.26189798 15.81572719 181.53250922 15.98106366 177.29298401 16.00672913 C176.50778981 16.00360914 175.72259562 16.00048916 174.91360766 15.99727464 C172.27416743 15.98927698 169.63495598 15.9956251 166.99551392 16.00190735 C165.10671351 15.99919829 163.21791416 15.99563784 161.32911682 15.99128723 C156.19293411 15.98215143 151.05683154 15.98571223 145.92064738 15.9920454 C140.55371934 15.99709849 135.1867983 15.99241595 129.81987 15.98927307 C120.80711633 15.98563172 111.79439542 15.99043729 102.78164673 15.99995422 C92.34959348 16.01084239 81.91761839 16.00731124 71.48556703 15.99630141 C62.54031959 15.98723728 53.59509573 15.98593887 44.64984518 15.99117875 C39.30212819 15.99430285 33.95444798 15.99469571 28.60673332 15.98810577 C23.58103956 15.98234551 18.55544697 15.9863049 13.52976418 15.99789429 C11.6810002 16.00054782 9.83222776 15.99976404 7.9834671 15.99536896 C5.46844019 15.98993937 2.9537417 15.99671582 0.43873596 16.00672913 C-0.30045407 16.00226768 -1.0396441 15.99780624 -1.80123383 15.9932096 C-5.88730695 15.90234118 -5.88730695 15.90234118 -9.07064819 18.26069641 C-9.26812783 20.81223776 -9.33994194 23.25532678 -9.32461548 25.80804443 C-9.32773546 26.59576219 -9.33085544 27.38347995 -9.33406997 28.19506794 C-9.34208225 30.84909907 -9.33571381 33.50290359 -9.32943726 36.15693665 C-9.33214571 38.05381912 -9.33570582 39.95070054 -9.34005737 41.84757996 C-9.34920161 47.0107475 -9.3456286 52.17383542 -9.3392992 57.33700442 C-9.33424897 62.73149762 -9.33892799 68.12598384 -9.34207153 73.52047729 C-9.34571435 82.58208952 -9.34090414 91.6436692 -9.33139038 100.70527649 C-9.32050851 111.19125238 -9.32402821 121.6771505 -9.33504319 132.1631245 C-9.344111 141.15422687 -9.34540373 150.14530579 -9.34016585 159.13641125 C-9.33704294 164.51156169 -9.33664554 169.88667554 -9.34323883 175.26182365 C-9.34900419 180.31541342 -9.34503025 185.36890266 -9.33345032 190.42248154 C-9.33079925 192.28049998 -9.3315764 194.13852685 -9.33597565 195.99654198 C-9.34141504 198.52659824 -9.3346166 201.05632937 -9.32461548 203.58636475 C-9.32907692 204.327215 -9.33353837 205.06806526 -9.338135 205.83136553 C-9.30963254 209.53133417 -9.18042099 211.09603721 -7.07064819 214.26069641 C-4.48916275 214.56183846 -2.14584992 214.66504657 0.43873596 214.64164734 C1.61418727 214.6486673 1.61418727 214.6486673 2.81338507 214.65582907 C5.45369115 214.66784771 8.09348473 214.65829527 10.73379517 214.64888 C12.62082728 214.6529427 14.50785701 214.65828287 16.3948822 214.66481018 C21.53122398 214.67852651 26.66738566 214.67316713 31.80373073 214.66367292 C37.17019954 214.65609751 42.53665255 214.66311613 47.90312195 214.66783142 C56.9176715 214.67329564 65.93214741 214.6660804 74.94668579 214.65180969 C85.37816362 214.63548687 95.80946553 214.64076637 106.24093908 214.65728891 C115.18534127 214.67089071 124.12969041 214.67282968 133.0740996 214.6649729 C138.42132073 214.66028856 143.76845911 214.65969229 149.11567497 214.66958237 C154.14304677 214.6782306 159.17019121 214.67226941 164.19753838 214.6548996 C166.04587933 214.65092306 167.89423933 214.65208865 169.74257278 214.65868759 C172.25963735 214.66684738 174.77596669 214.65664945 177.29298401 214.64164734 C178.02994332 214.6483395 178.76690263 214.65503167 179.52619404 214.66192663 C182.42220925 214.62828967 184.44315219 214.58839928 186.88356876 212.94353676 C188.62731503 210.13755651 188.32886058 207.09088133 188.30044556 203.88960266 C188.31782725 202.41368888 188.33541164 200.93777747 188.35317993 199.46186829 C188.36325416 197.14012787 188.36684839 194.81854177 188.36514282 192.4967804 C188.36871577 190.25225471 188.39606614 188.00891677 188.42544556 185.76460266 C188.41726303 185.07282425 188.40908051 184.38104584 188.40065002 183.66830444 C188.45240423 180.31259116 188.70616372 178.55087926 190.7772522 175.85810852 C193.62774262 173.74231058 195.37032252 173.18806316 198.92935181 173.26069641 C202.5463446 175.98667634 203.79975351 177.49157941 204.56045532 182.00605774 C204.58653614 183.45137927 204.58427436 184.89740497 204.55825806 186.34272766 C204.56067001 187.11573715 204.56308197 187.88874664 204.56556702 188.68518066 C204.56459028 190.31660603 204.55123776 191.94806525 204.52627563 193.57929993 C204.49209404 196.05564717 204.50559031 198.52839535 204.52505493 201.00483704 C204.51815165 202.5966489 204.50847491 204.18845163 204.49575806 205.78022766 C204.50071793 206.51070816 204.5056778 207.24118866 204.51078796 207.99380493 C204.36865614 214.31227621 202.31031371 219.44485563 198.21841431 224.28413391 C197.39470337 224.95315735 197.39470337 224.95315735 196.55435181 225.63569641 C196.01036743 226.09718079 195.46638306 226.55866516 194.90591431 227.03413391 C189.82640607 230.18623981 184.69329856 230.55136129 178.85870361 230.52139282 C178.06292888 230.52521837 177.26715415 230.52904392 176.44726503 230.53298539 C173.78969616 230.54327647 171.13234491 230.53933066 168.47476196 230.53535461 C166.56569723 230.53970326 164.65663425 230.54488692 162.74757385 230.55084229 C157.56778544 230.56422752 152.38807002 230.56481145 147.20826769 230.56227899 C142.88175825 230.56120889 138.55526355 230.56609366 134.22875726 230.57088441 C124.02022026 230.58197808 113.81172005 230.58241786 103.60317993 230.57637024 C93.07743185 230.5703305 82.55181745 230.58264184 72.02609217 230.60394031 C62.98387412 230.62156311 53.9416986 230.62755657 44.89946401 230.62430257 C39.50127425 230.62249056 34.10317984 230.62511767 28.70500565 230.63901711 C23.62751147 230.65160171 18.55022547 230.64964526 13.47273445 230.63660622 C11.61197273 230.63424223 9.75119632 230.63696874 7.89045143 230.64522934 C5.34471641 230.65571368 2.79967772 230.64758282 0.25396729 230.63491821 C-0.47737218 230.6422925 -1.20871165 230.64966678 -1.96221292 230.65726453 C-8.0024916 230.59431422 -13.55558223 229.35512416 -18.31283569 225.39350891 C-18.85166382 224.73093079 -19.39049194 224.06835266 -19.94564819 223.38569641 C-20.49994507 222.72827454 -21.05424194 222.07085266 -21.62533569 221.39350891 C-24.95486961 216.4801967 -25.36207975 212.01255911 -25.33807373 206.19641113 C-25.34260484 205.38924017 -25.34713596 204.5820692 -25.35180438 203.75043851 C-25.36445495 201.04831443 -25.36282758 198.34639173 -25.36117554 195.64424133 C-25.36716039 193.70576722 -25.37396584 191.76729549 -25.38153076 189.8288269 C-25.39920276 184.56427818 -25.40388666 179.29979447 -25.40516233 174.03521895 C-25.40658386 170.74539943 -25.41085351 167.45559644 -25.41615677 164.16578102 C-25.43466133 152.68658524 -25.44282688 141.20743591 -25.44125366 129.72822571 C-25.44005229 119.03148716 -25.46115273 108.33495041 -25.49274099 97.63826293 C-25.51890204 88.45169158 -25.52962102 79.26518613 -25.52834284 70.07857782 C-25.52783314 64.59314749 -25.53352095 59.10789647 -25.55469894 53.62250328 C-25.57407821 48.46208179 -25.57420779 43.30201069 -25.55966568 38.14157677 C-25.55757608 36.25017281 -25.5622875 34.35874694 -25.5743866 32.46738052 C-25.58986396 29.87982132 -25.58051498 27.29346659 -25.56512451 24.70593262 C-25.57541164 23.96223818 -25.58569876 23.21854375 -25.59629762 22.45231313 C-25.51380848 16.15138753 -23.4361706 11.05827771 -19.35971069 6.23725891 C-18.81057007 5.79124329 -18.26142944 5.34522766 -17.69564819 4.88569641 C-17.15166382 4.42421204 -16.60767944 3.96272766 -16.04721069 3.48725891 C-10.96770246 0.33515301 -5.83459495 -0.02996846 0 0 Z " fill="#000000" transform="translate(38.070648193359375,12.739303588867188)"/>
<path d="M0 0 C0.78660533 -0.00256327 1.57321066 -0.00512655 2.38365251 -0.0077675 C5.02789146 -0.01272156 7.67156349 0.00381399 10.31575012 0.02018738 C12.20779405 0.0210333 14.09983897 0.02055919 15.99188232 0.01885986 C21.1362545 0.01799713 26.28041795 0.03566792 31.42474151 0.05658174 C36.797931 0.07530219 42.17112497 0.07709532 47.54434204 0.08065796 C57.72283742 0.08999206 67.90123643 0.11462431 78.07968932 0.14470643 C89.66598197 0.17820799 101.25227915 0.19472576 112.83860815 0.20979273 C136.67585023 0.24117267 160.5130067 0.29395968 184.35017395 0.36076355 C184.35017395 0.69076355 184.35017395 1.02076355 184.35017395 1.36076355 C183.50349529 1.36038652 182.65681664 1.3600095 181.78448105 1.35962105 C161.19534565 1.35250802 140.60648275 1.37836347 120.01743698 1.44104195 C110.06074792 1.47055534 100.10427266 1.48885582 90.14753723 1.48088074 C81.4705426 1.473959 72.79387875 1.48795212 64.11696553 1.52719963 C59.52128724 1.54725274 54.92612865 1.55673766 50.33042145 1.54118729 C46.00618769 1.52688568 41.6829483 1.54051194 37.35884285 1.57571602 C35.77055955 1.58369562 34.18218692 1.5814034 32.59393883 1.56815529 C30.42651741 1.5516026 28.26244312 1.57179807 26.0952301 1.60127258 C24.27561075 1.60403796 24.27561075 1.60403796 22.41923141 1.60685921 C19.1411467 2.11468654 19.1411467 2.11468654 16.95993328 4.92907524 C15.15572496 8.77529032 14.7914202 11.86698762 14.84896851 16.02726746 C14.84343411 16.77953424 14.83789971 17.53180103 14.83219761 18.30686378 C14.81862844 20.81735807 14.8335393 23.32685171 14.84846497 25.83732605 C14.84468042 27.64126507 14.83917926 29.44520118 14.83209229 31.24913025 C14.81813811 36.14170751 14.82930724 41.03393308 14.8458035 45.92649078 C14.85966117 51.04862744 14.8531931 56.17074382 14.84967041 61.29289246 C14.84696886 69.8943498 14.8604392 78.49566755 14.88362122 87.09709167 C14.91023057 97.03895511 14.91197782 106.98058516 14.90023285 116.922472 C14.88945045 126.489559 14.89564578 136.05656166 14.90978813 145.62364197 C14.91554391 149.69368994 14.91546845 153.7636761 14.91072273 157.83372498 C14.90594743 162.62725531 14.91607764 167.42053036 14.93767738 172.21401215 C14.94323787 173.97240081 14.94371733 175.73081404 14.93872452 177.48920441 C14.93276006 179.89117195 14.94529852 182.29236207 14.9624939 184.69425964 C14.95648385 185.38862436 14.95047381 186.08298908 14.94428164 186.79839516 C15.0095177 191.81628052 15.91517504 193.49076573 18.35017395 198.36076355 C100.52017395 198.85576355 100.52017395 198.85576355 184.35017395 199.36076355 C184.35017395 199.69076355 184.35017395 200.02076355 184.35017395 200.36076355 C159.36833241 200.45411266 134.38651693 200.5246965 109.40453625 200.56801224 C97.80554571 200.58865706 86.20666339 200.61681433 74.60774231 200.66252136 C64.50074977 200.70233035 54.39383559 200.72818238 44.28676683 200.73711753 C38.93273968 200.74234235 33.57893675 200.75466237 28.22498131 200.78368378 C23.18942842 200.81075907 18.1541929 200.81922455 13.11857414 200.81319427 C11.2669884 200.81429805 9.41539244 200.82229873 7.56386948 200.83758545 C5.04218517 200.85739038 2.52171035 200.85273812 0 200.84178162 C-1.10748532 200.85925866 -1.10748532 200.85925866 -2.23734409 200.87708879 C-5.27121871 200.84128129 -7.18447487 200.72825332 -9.60413074 198.81744099 C-11.05627544 195.40588211 -11.06385316 192.21680799 -11.03077698 188.57290649 C-11.03545695 187.78347989 -11.04013692 186.99405328 -11.04495871 186.18070465 C-11.05693451 183.53279024 -11.04744154 180.88539089 -11.03800964 178.23747253 C-11.04207417 176.34029335 -11.04741537 174.44311653 -11.05393982 172.54594421 C-11.06763247 167.39112648 -11.06230695 162.23648859 -11.05280256 157.08166766 C-11.04521719 151.69252198 -11.05224835 146.30339188 -11.05696106 140.91424561 C-11.06242141 131.86457041 -11.05521915 122.81496862 -11.04093933 113.76530457 C-11.02460738 103.29402266 -11.02990419 92.82291593 -11.04641855 82.35163826 C-11.06001956 73.36897957 -11.06196001 64.3863737 -11.05410254 55.40370804 C-11.04941903 50.03527806 -11.04881986 44.66693051 -11.05871201 39.29850578 C-11.06735942 34.25305071 -11.06140057 29.20782219 -11.04402924 24.16239166 C-11.04005268 22.30759877 -11.04121831 20.4527869 -11.04781723 18.59800148 C-11.0559767 16.07228668 -11.04577959 13.54730466 -11.03077698 11.02163696 C-11.03746914 10.28215095 -11.04416131 9.54266493 -11.05105627 8.78077024 C-11.01926116 6.03418647 -10.91266341 3.85247217 -9.60413074 1.40450668 C-6.51999567 -0.24264937 -3.40924908 -0.04035061 0 0 Z " fill="#B95D62" transform="translate(38.64982604980469,27.639236450195313)"/>
</svg>
