<?xml version="1.0" encoding="UTF-8"?>
<svg version="1.1" xmlns="http://www.w3.org/2000/svg" width="72" height="72">
<path d="M0 0 C23.76 0 47.52 0 72 0 C72 23.76 72 47.52 72 72 C48.24 72 24.48 72 0 72 C0 48.24 0 24.48 0 0 Z " fill="#EF1774" transform="translate(0,0)"/>
<path d="M0 0 C1.98 0 3.96 0 6 0 C5.34878174 0.72743408 4.69756348 1.45486816 4.02661133 2.2043457 C0.73358829 7.18494889 1.48921951 12.97963589 1.57421875 18.73046875 C1.57750687 19.95784256 1.58079498 21.18521637 1.58418274 22.44978333 C1.5945869 25.03778404 1.61450826 27.6257617 1.64331055 30.21362305 C1.6874562 34.18356079 1.70475941 38.15289384 1.71679688 42.12304688 C1.73021826 44.6380296 1.74514048 47.15300486 1.76171875 49.66796875 C1.76910568 50.85859421 1.77649261 52.04921967 1.78410339 53.27592468 C1.79693863 54.37749405 1.80977386 55.47906342 1.82299805 56.61401367 C1.83776436 58.06912605 1.83776436 58.06912605 1.85282898 59.55363464 C1.90248151 62.1385915 1.90248151 62.1385915 3 65 C11.55350523 65.04631606 20.10695816 65.08186543 28.66055775 65.10362434 C32.63223 65.11406689 36.60381654 65.12823463 40.57543945 65.15087891 C44.40742016 65.17259058 48.23931835 65.18456508 52.07135582 65.18975449 C53.53421007 65.19345326 54.99705975 65.20067596 56.45987892 65.21146011 C58.50696236 65.22595298 60.55370369 65.2279789 62.60083008 65.22705078 C63.76665115 65.231492 64.93247223 65.23593323 66.13362122 65.24050903 C69.19992893 65.21568279 69.19992893 65.21568279 72 63 C72 65.97 72 68.94 72 72 C48.24 72 24.48 72 0 72 C0 48.24 0 24.48 0 0 Z " fill="#970041" transform="translate(0,0)"/>
<path d="M0 0 C9.9 0 19.8 0 30 0 C30 1.98 30 3.96 30 6 C26.37 6 22.74 6 19 6 C19 15.9 19 25.8 19 36 C16.36 36 13.72 36 11 36 C11 26.1 11 16.2 11 6 C7.37 6 3.74 6 0 6 C0 4.02 0 2.04 0 0 Z " fill="#FDEAF1" transform="translate(22,15)"/>
<path d="M0 0 C1.98 0 3.96 0 6 0 C5.02752319 1.06734375 5.02752319 1.06734375 4.03540039 2.15625 C0.62796132 7.3137597 1.41021744 13.54907959 1.43359375 19.5 C1.42739517 20.80904297 1.42119659 22.11808594 1.41481018 23.46679688 C1.40443189 26.23064844 1.40893007 28.99398431 1.42358398 31.7578125 C1.44077908 35.28881055 1.41725787 38.81818233 1.38209438 42.34899902 C1.35477802 45.73276065 1.36485886 49.11613332 1.37109375 52.5 C1.35783554 53.76263672 1.34457733 55.02527344 1.33091736 56.32617188 C1.25700048 63.60780005 1.25700048 63.60780005 4.53930664 69.84375 C5.35133545 70.5553125 6.16336426 71.266875 7 72 C4.69 72 2.38 72 0 72 C0 48.24 0 24.48 0 0 Z " fill="#000000" transform="translate(0,0)"/>
<path d="M0 0 C0.66 0 1.32 0 2 0 C3.7143618 1.95927063 5.38405168 3.95880212 7 6 C4.69 6 2.38 6 0 6 C0 4.02 0 2.04 0 0 Z " fill="#2C000D" transform="translate(0,66)"/>
<path d="M0 0 C1.98 0 3.96 0 6 0 C4.7260411 2.03833424 3.38938077 4.03852126 2 6 C1.34 6 0.68 6 0 6 C0 4.02 0 2.04 0 0 Z " fill="#450E2E" transform="translate(0,0)"/>
<path d="M0 0 C2.64 0 5.28 0 8 0 C7.67 0.99 7.34 1.98 7 3 C4.69 2.67 2.38 2.34 0 2 C0 1.34 0 0.68 0 0 Z " fill="#ED0C68" transform="translate(33,51)"/>
</svg>
