<?xml version="1.0" encoding="UTF-8"?>
<svg version="1.1" xmlns="http://www.w3.org/2000/svg" width="60" height="60">
<path d="M0 0 C19.8 0 39.6 0 60 0 C60 19.8 60 39.6 60 60 C40.2 60 20.4 60 0 60 C0 40.2 0 20.4 0 0 Z " fill="#377EEA" transform="translate(0,0)"/>
<path d="M0 0 C5.94 0.33 11.88 0.66 18 1 C18 10.9 18 20.8 18 31 C-1.8 31 -21.6 31 -42 31 C-42 21.1 -42 11.2 -42 1 C-36.06 1 -30.12 1 -24 1 C-21 7 -18 13 -15 19 C-12.69 19 -10.38 19 -8 19 C-5.36 12.73 -2.72 6.46 0 0 Z " fill="#EB3D66" transform="translate(42,29)"/>
<path d="M0 0 C2.31 0 4.62 0 7 0 C11.16017504 7.68032314 14.01858089 15.81103551 17 24 C17.47050781 22.85402344 17.94101562 21.70804688 18.42578125 20.52734375 C19.05466017 18.9973846 19.68356795 17.46743731 20.3125 15.9375 C20.7755957 14.80924805 20.7755957 14.80924805 21.24804688 13.65820312 C23.12737959 9.08845725 25.04197282 4.53659835 27 0 C29.31 0 31.62 0 34 0 C35.51584107 4.66803865 34.23748011 7.74797585 32.2890625 12.015625 C31.85767471 13.0002774 31.85767471 13.0002774 31.41757202 14.00482178 C30.49908555 16.0922769 29.56210919 18.17084913 28.625 20.25 C28.00143359 21.6635467 27.37902454 23.07760455 26.7578125 24.4921875 C22.20585082 34.79414918 22.20585082 34.79414918 21 36 C17.75 36.5625 17.75 36.5625 14 36 C8.97613783 30.56793696 6.41215491 22.4685963 3.625 15.75 C3.16222656 14.67492187 2.69945312 13.59984375 2.22265625 12.4921875 C1.79082031 11.45835938 1.35898438 10.42453125 0.9140625 9.359375 C0.5217041 8.42577148 0.1293457 7.49216797 -0.27490234 6.53027344 C-1.0445291 3.84461294 -0.96096626 2.58226551 0 0 Z " fill="#F9F5F9" transform="translate(13,13)"/>
<path d="M0 0 C1.134375 0.020625 2.26875 0.04125 3.4375 0.0625 C4.50760304 2.82693285 4.60033213 4.60101367 3.61328125 7.3984375 C2.60238321 9.64724227 1.55346524 11.86409637 0.4375 14.0625 C0.1075 14.0625 -0.2225 14.0625 -0.5625 14.0625 C-0.8925 12.4125 -1.2225 10.7625 -1.5625 9.0625 C-3.48559422 9.10205898 -3.48559422 9.10205898 -5.5625 10.0625 C-7.34629415 13.04602894 -7.34629415 13.04602894 -8.5625 16.0625 C-9.5625 14.0625 -9.5625 14.0625 -8.6015625 11.05859375 C-8.13492188 9.88425781 -7.66828125 8.70992187 -7.1875 7.5 C-6.72601563 6.32308594 -6.26453125 5.14617188 -5.7890625 3.93359375 C-4.13961455 0.07262482 -4.13961455 0.07262482 0 0 Z " fill="#E8F8FD" transform="translate(43.5625,12.9375)"/>
<path d="M0 0 C0.99 0.495 0.99 0.495 2 1 C2 1.99 2 2.98 2 4 C2.61875 3.814375 3.2375 3.62875 3.875 3.4375 C6 3 6 3 8 4 C8.33 2.68 8.66 1.36 9 0 C10.25955231 3.77865693 9.48087189 5.03411786 8.0625 8.6875 C7.68222656 9.68136719 7.30195312 10.67523438 6.91015625 11.69921875 C6.60980469 12.45847656 6.30945313 13.21773437 6 14 C3.07413567 12.53706784 2.94053412 10.59729902 1.875 7.5625 C1.34519531 6.07943359 1.34519531 6.07943359 0.8046875 4.56640625 C0 2 0 2 0 0 Z " fill="#4C7ED2" transform="translate(25,24)"/>
<path d="M0 0 C1.98 0 3.96 0 6 0 C5.34 2.64 4.68 5.28 4 8 C3.34 7.67 2.68 7.34 2 7 C1.26924352 4.6859378 0.59861742 2.35171131 0 0 Z " fill="#CA567D" transform="translate(27,30)"/>
</svg>
