<svg width="512" height="512" viewBox="0 0 512 512" fill="none" xmlns="http://www.w3.org/2000/svg">
<mask id="mask0_32_734" style="mask-type:alpha" maskUnits="userSpaceOnUse" x="76" y="76" width="360" height="360">
<path d="M76 156C76 111.817 111.817 76 156 76H356C400.183 76 436 111.817 436 156V356C436 400.183 400.183 436 356 436H156C111.817 436 76 400.183 76 356V156Z" fill="#2E7D32"/>
</mask>
<g mask="url(#mask0_32_734)">
<path d="M196 76H316V196H196V76Z" fill="#D9D9D9"/>
<path d="M316 76V196H196V76H316ZM201 191H311V81H201V191Z" fill="black"/>
<path d="M196 196H316V316H196V196Z" fill="#2E7D32"/>
<path d="M316 196V316H196V196H316ZM201 311H311V201H201V311Z" fill="black"/>
<path d="M196 316H316V436H196V316Z" fill="#D9D9D9"/>
<path d="M316 316V436H196V316H316ZM201 431H311V321H201V431Z" fill="black"/>
<path d="M76 76H196V196H76V76Z" fill="#2E7D32"/>
<path d="M196 76V196H76V76H196ZM81 191H191V81H81V191Z" fill="black"/>
<path d="M76 196H196V316H76V196Z" fill="#D9D9D9"/>
<path d="M196 196V316H76V196H196ZM81 311H191V201H81V311Z" fill="black"/>
<path d="M76 316H196V436H76V316Z" fill="#D9D9D9"/>
<path d="M196 316V436H76V316H196ZM81 431H191V321H81V431Z" fill="black"/>
<path d="M316 76H436V196H316V76Z" fill="#D9D9D9"/>
<path d="M436 76V196H316V76H436ZM321 191H431V81H321V191Z" fill="black"/>
<path d="M316 196H436V316H316V196Z" fill="#D9D9D9"/>
<path d="M436 196V316H316V196H436ZM321 311H431V201H321V311Z" fill="black"/>
<path d="M316 316H436V436H316V316Z" fill="#2E7D32"/>
<path d="M436 316V436H316V316H436ZM321 431H431V321H321V431Z" fill="black"/>
<path d="M356 426V436H156V426H356ZM426 356V156C426 117.34 394.66 86 356 86H156C117.34 86 86 117.34 86 156V356C86 394.66 117.34 426 156 426V436L154.966 435.993C111.604 435.444 76.5562 400.396 76.0068 357.034L76 356V156C76 111.817 111.817 76 156 76H356C400.183 76 436 111.817 436 156V356C436 399.838 400.74 435.439 357.034 435.993L356 436V426C394.66 426 426 394.66 426 356Z" fill="black"/>
</g>
</svg>
