<svg width="512" height="512" viewBox="0 0 512 512" fill="none" xmlns="http://www.w3.org/2000/svg">
<mask id="mask0_32_751" style="mask-type:alpha" maskUnits="userSpaceOnUse" x="76" y="76" width="360" height="360">
<path d="M76 156C76 111.817 111.817 76 156 76H356C400.183 76 436 111.817 436 156V356C436 400.183 400.183 436 356 436H156C111.817 436 76 400.183 76 356V156Z" fill="white"/>
</mask>
<g mask="url(#mask0_32_751)">
<path d="M196 76H316V196H196V76Z" fill="#D9D9D9"/>
<path d="M316 76V196H196V76H316ZM201 191H311V86H201V191Z" fill="black"/>
<path d="M196 196H316V316H196V196Z" fill="#1565C0"/>
<path d="M316 196V316H196V196H316ZM201 311H311V201H201V311Z" fill="black"/>
<path d="M196 316H316V436H196V316Z" fill="#D9D9D9"/>
<path d="M316 316V436H196V316H316ZM201 426H311V321H201V426Z" fill="black"/>
<path d="M76 156C76 111.817 111.817 76 156 76H196V196H76V156Z" fill="#1565C0"/>
<path d="M196 196L191 191V86H156C117.34 86 86 117.34 86 156V191L76 196V156C76 111.817 111.817 76 156 76H196V196ZM196 196H76L86 191H191L196 196Z" fill="black"/>
<path d="M76 196H196V316H76V196Z" fill="#D9D9D9"/>
<path d="M196 196V316H76V196H196ZM86 311H191V201H86V311Z" fill="black"/>
<path d="M196 316V436H191V321H76V316H196Z" fill="black"/>
<path d="M321 76V191H436V196H316V76H321Z" fill="black"/>
<path d="M316 196H436V316H316V196Z" fill="#D9D9D9"/>
<path d="M436 196V316H316V196H436ZM321 311H426V201H321V311Z" fill="black"/>
<path d="M316 316H436V356C436 400.183 400.183 436 356 436H316V316Z" fill="#1565C0"/>
<path d="M436 356C436 400.183 400.183 436 356 436H316L321 426H356C394.66 426 426 394.66 426 356V321H321V426L316 436V316H436V356Z" fill="black"/>
</g>
</svg>
