<svg width="96" height="96" viewBox="0 0 96 96" fill="none" xmlns="http://www.w3.org/2000/svg">
    <rect width="96" height="96" rx="10" fill="#013369" />
    <path
        d="M69.974 25.0302L69.976 25.0322C70.2052 25.2675 70.4542 25.7531 70.6636 26.5329C70.8711 27.3054 71.0238 28.3047 71.1005 29.491C71.2539 31.8621 71.1011 34.9347 70.5099 38.3413L70.5087 38.3487L70.5076 38.3562C70.486 38.5075 70.4645 38.6577 70.4431 38.8042C69.3167 38.2177 68.2445 37.5886 67.2568 36.883L67.2502 36.8782L67.2434 36.8737C65.3906 35.6389 63.7116 34.295 62.203 32.7863C60.751 31.3342 59.4062 29.6544 58.227 27.9134L58.2261 27.9122C57.5056 26.8553 56.8238 25.7125 56.1809 24.5529C56.3246 24.5271 56.4722 24.5046 56.6327 24.4817L56.6327 24.4818L56.643 24.4801C60.0793 23.9168 63.1534 23.7778 65.5189 23.9313C66.7025 24.0081 67.6978 24.1575 68.4673 24.3585C69.2544 24.5641 69.7417 24.808 69.974 25.0302ZM50.6174 47.5227L51.9569 46.1831L53.5933 47.8195C54.4707 48.6969 55.8675 48.6969 56.745 47.8195C57.6224 46.942 57.6224 45.5452 56.745 44.6677L55.1086 43.0314L56.2902 41.8499C57.1676 40.9724 57.1676 39.5756 56.2902 38.6982L56.2825 38.6905L56.2745 38.6832C55.4012 37.8825 54.0275 37.8825 53.1541 38.6832L53.1461 38.6905L53.1384 38.6982L51.9518 39.8848L50.3206 38.3002C50.3197 38.2993 50.3188 38.2984 50.3179 38.2975C49.4428 37.4253 48.0535 37.4236 47.1765 38.2926C46.2774 39.1253 46.3029 40.5292 47.1689 41.3952L48.8101 43.0364L47.5174 44.366L45.8861 42.7347C45.0086 41.8572 43.6118 41.8572 42.7344 42.7347C41.8569 43.6121 41.8569 45.009 42.7344 45.8864L44.3657 47.5177L43.0361 48.8105L41.3948 47.1692C40.5289 46.3032 39.125 46.2777 38.2922 47.1769C37.4233 48.0538 37.4249 49.4431 38.2972 50.3182C38.2981 50.3191 38.299 50.32 38.2999 50.3209L39.8844 51.9522L38.6978 53.1388L38.6902 53.1465L38.6828 53.1544C37.8821 54.0278 37.8821 55.4015 38.6828 56.2748L38.6902 56.2828L38.6978 56.2905C39.5753 57.168 40.9721 57.168 41.8496 56.2905L43.0311 55.109L44.6674 56.7453C45.5449 57.6228 46.9417 57.6228 47.8191 56.7453C48.6966 55.8679 48.6966 54.4711 47.8191 53.5936L46.1828 51.9573L47.5223 50.6177L49.1516 52.247C49.9718 53.1314 51.4301 53.1339 52.2539 52.2543C53.1335 51.4306 53.131 49.9722 52.2466 49.152L50.6174 47.5227ZM24.5518 56.1811C25.7115 56.8242 26.8543 57.5057 27.9111 58.2263L27.9111 58.2263L27.9185 58.2312C29.706 59.4042 31.3272 60.7454 32.782 62.1999C34.2417 63.716 35.5864 65.3414 36.7613 67.0761L36.7613 67.0761L36.7648 67.0812C37.531 68.1827 38.2122 69.2791 38.8105 70.4414C38.6616 70.4632 38.5087 70.485 38.3548 70.507L38.3473 70.508L38.3399 70.5093C34.9336 71.1005 31.861 71.2533 29.4899 71.0999C28.3035 71.0231 27.3041 70.8704 26.5316 70.663C25.7458 70.452 25.2587 70.2008 25.0254 69.9701C24.8042 69.7363 24.5619 69.2501 24.3575 68.4675C24.1564 67.698 24.0071 66.7028 23.9303 65.5192C23.7768 63.1537 23.9158 60.0796 24.4791 56.6432L24.4792 56.6432L24.4807 56.6329C24.5036 56.4723 24.526 56.3246 24.5518 56.1811ZM30.409 54.5576L30.4069 54.5562C28.9074 53.539 27.306 52.57 25.603 51.6971C27.2576 45.9597 30.2113 39.8999 35.0277 35.028C39.901 30.2102 45.963 27.2562 51.7015 25.6018C52.5704 27.2572 53.537 28.9055 54.5561 30.4071L54.5575 30.4091C55.9368 32.4208 57.4344 34.2644 59.1075 35.9375L59.1076 35.9376C60.7792 37.6088 62.679 39.1634 64.75 40.5445C66.2003 41.5646 67.7952 42.4817 69.4412 43.2972C67.7853 49.0805 64.7787 55.0868 59.9604 59.9606C55.0853 64.7801 49.0769 67.787 43.2926 69.4427C42.4322 67.7446 41.5079 66.0879 40.428 64.5755C39.0497 62.5658 37.5531 60.7234 35.9374 59.1077C34.2643 57.4346 32.4207 55.9369 30.409 54.5576ZM55.9132 20.0818L55.9104 20.0823C48.1091 21.4016 38.9059 24.9036 31.9327 31.9339C24.9039 38.9625 21.4019 48.1079 20.0822 55.9104L20.0822 55.9104L20.0818 55.9133C19.4212 59.9626 19.3621 63.7188 19.709 66.718C19.8824 68.2173 20.1584 69.5369 20.5165 70.614C20.8714 71.6816 21.3203 72.552 21.865 73.1133L21.8649 73.1133L21.8703 73.1186C22.4328 73.6811 23.3095 74.1383 24.3823 74.4962C25.4649 74.8573 26.7906 75.1315 28.2935 75.3013C31.3001 75.641 35.056 75.5675 39.0761 74.907L39.0784 74.9066C46.8781 73.5875 56.0818 70.1431 63.1124 63.1125C70.1433 56.0821 73.5874 46.8779 74.9065 39.0785L74.9069 39.0761C75.5674 35.0559 75.641 31.2999 75.3014 28.2934C75.1316 26.7905 74.8574 25.4649 74.4963 24.3823C74.1384 23.3095 73.6811 22.4328 73.1185 21.8703L73.1186 21.8702L73.1132 21.865C72.552 21.3203 71.6815 20.8714 70.614 20.5165C69.5369 20.1584 68.2173 19.8824 66.718 19.709C63.7187 19.3621 59.9626 19.4212 55.9132 20.0818Z"
        fill="#D50A0A" stroke="white" />
</svg>
    