<svg width="142" height="142" viewBox="0 0 142 142" fill="none" xmlns="http://www.w3.org/2000/svg">
<g clip-path="url(#clip0_255_10835)">
<path d="M0 32C0 14.3269 14.3269 0 32 0H110C127.673 0 142 14.3269 142 32V110C142 127.673 127.673 142 110 142H32C14.3269 142 0 127.673 0 110V32Z" fill="white"/>
<path d="M11 39C11 23.536 23.536 11 39 11H103C118.464 11 131 23.536 131 39V103C131 118.464 118.464 131 103 131H39C23.536 131 11 118.464 11 103V39Z" fill="#9260FF"/>
<path d="M45.8 21C47.89 21 49.58 22.55 49.58 24.46V31.45C52.93 31.39 56.69 31.39 60.92 31.39H81.08C85.31 31.39 89.065 31.39 92.42 31.45V24.46C92.42 22.55 94.11 21 96.2 21C98.29 21 99.98 22.55 99.98 24.46V31.75C107.23 32.28 111.995 33.59 115.495 36.79C118.995 39.995 120.42 44.355 121 51V56H21V51C21.58 44.355 23.005 40 26.505 36.79C30.005 33.59 34.765 32.28 42.02 31.75V24.46C42.02 22.55 43.715 21 45.8 21Z" fill="#230351"/>
<path d="M120.999 81V71C120.999 66.805 120.934 59.325 120.869 56H21.0289C20.9639 59.325 21.0289 66.805 21.0289 71V81C21.0289 99.855 21.0289 109.285 26.8789 115.14C32.7439 121 42.1689 121 61.0189 121H81.0189C99.8689 121 109.289 121 115.149 115.14C121.009 109.28 120.999 99.855 120.999 81Z" fill="#F0E6FF"/>
<path fill-rule="evenodd" clip-rule="evenodd" d="M95.9723 80.3823C93.9258 80.3823 91.8994 80.7854 90.0088 81.5687C88.1181 82.3519 86.4002 83.5 84.9532 84.9472C83.5061 86.3944 82.3582 88.1126 81.5751 90.0035C80.792 91.8944 80.3889 93.9211 80.3889 95.9678C80.3889 98.0145 80.792 100.041 81.5751 101.932C82.3582 103.823 83.5061 105.541 84.9532 106.988C86.4002 108.436 88.1181 109.584 90.0088 110.367C91.8994 111.15 93.9258 111.553 95.9723 111.553C100.105 111.553 104.069 109.911 106.991 106.988C109.914 104.066 111.556 100.101 111.556 95.9678C111.556 91.8343 109.914 87.87 106.991 84.9472C104.069 82.0244 100.105 80.3823 95.9723 80.3823ZM70 95.9678C70.0012 91.9178 70.9494 87.9242 72.7686 84.3059C74.5879 80.6876 77.2279 77.5449 80.4778 75.1288C83.7277 72.7126 87.4975 71.09 91.4861 70.3904C95.4747 69.6909 99.5716 69.9338 103.45 71.0998C107.328 72.2658 110.879 74.3225 113.821 77.1058C116.763 79.889 119.013 83.3217 120.392 87.1296C121.771 90.9375 122.241 95.0152 121.764 99.037C121.286 103.059 119.875 106.913 117.643 110.293L127.347 120.004C127.857 120.48 128.266 121.053 128.55 121.69C128.834 122.328 128.987 123.016 128.999 123.713C129.011 124.411 128.883 125.104 128.622 125.751C128.361 126.397 127.972 126.985 127.479 127.478C126.985 127.972 126.398 128.361 125.751 128.622C125.104 128.883 124.411 129.012 123.714 128.999C123.016 128.987 122.329 128.834 121.691 128.55C121.054 128.266 120.481 127.857 120.005 127.347L110.295 117.642C106.38 120.23 101.837 121.709 97.1495 121.922C92.4614 122.135 87.8034 121.073 83.6703 118.85C79.5373 116.627 76.0837 113.325 73.6766 109.296C71.2696 105.267 69.999 100.661 70 95.9678Z" fill="#230351"/>
<path d="M96 114C105.941 114 114 105.941 114 96C114 86.0589 105.941 78 96 78C86.0589 78 78 86.0589 78 96C78 105.941 86.0589 114 96 114Z" fill="#C7EFFF"/>
<path d="M89.8339 91.4049C89.497 87.6532 86.6042 84.1586 85.2002 82.878L84.4236 82.2146C87.6632 79.486 91.7644 77.9928 96 78C99.9857 78 103.663 79.2935 106.646 81.4869C107.068 82.7649 106.265 85.4366 105.424 86.7146C105.116 87.1775 104.427 87.7535 103.668 88.2986C101.956 89.5278 99.7982 90.1372 98.7002 92.4C98.4274 92.9704 98.3743 93.6213 98.551 94.2283C98.659 94.6243 98.7285 95.0538 98.731 95.4755C98.731 96.8332 97.3579 97.8155 96.0002 97.8C92.4645 97.7615 90.1502 94.9123 89.8339 91.4049ZM98.587 107.299C100.364 103.946 106.294 103.946 106.294 103.946C112.47 103.881 113.306 100.13 113.864 98.2372C113.371 102.163 111.599 105.816 108.822 108.634C106.045 111.452 102.417 113.277 98.4996 113.828C97.9185 112.606 97.2319 109.852 98.587 107.296" fill="#19D929"/>
</g>
<defs>
<clipPath id="clip0_255_10835">
<rect width="142" height="142" fill="white"/>
</clipPath>
</defs>
</svg>
