<?xml version="1.0" encoding="UTF-8"?>
<svg version="1.1" xmlns="http://www.w3.org/2000/svg" width="192" height="192">
<path d="M0 0 C63.36 0 126.72 0 192 0 C192 63.36 192 126.72 192 192 C128.64 192 65.28 192 0 192 C0 128.64 0 65.28 0 0 Z " fill="#000000" transform="translate(0,0)"/>
<path d="M0 0 C6.80824217 5.60678767 6.80824217 5.60678767 7.328125 10.765625 C7.35132812 11.87164062 7.35132812 11.87164062 7.375 13 C7.40078125 13.72703125 7.4265625 14.4540625 7.453125 15.203125 C6.99612766 18.75029481 5.62750942 21.50774284 4.125 24.75 C4.74431396 25.02674561 5.36362793 25.30349121 6.00170898 25.58862305 C8.85717725 26.86744913 11.70983497 28.15243364 14.5625 29.4375 C15.53638672 29.87255859 16.51027344 30.30761719 17.51367188 30.75585938 C23.55583699 33.48392724 29.39111218 36.42113717 35.125 39.75 C36.36511545 55.57578098 35.96430634 66.36075971 26.70898438 79.36962891 C23.49812695 84.19482309 20.89698414 89.38251007 18.1875 94.5 C17.09685386 96.53742386 16.0045102 98.5739403 14.91015625 100.609375 C14.44488525 101.48045898 13.97961426 102.35154297 13.50024414 103.24902344 C12.103252 105.78955025 10.63215094 108.2735104 9.125 110.75 C4.65269017 109.87661963 2.00639034 107.33765636 -1.3125 104.375 C-2.55967967 103.28621067 -3.80708088 102.19767507 -5.0546875 101.109375 C-6.328175 99.98964019 -7.60161286 98.86984893 -8.875 97.75 C-11.21993066 95.69740817 -13.57525395 93.65762234 -15.9375 91.625 C-16.46077881 91.16432129 -16.98405762 90.70364258 -17.52319336 90.22900391 C-20.48474185 87.68397548 -23.15633929 85.96453506 -26.875 84.75 C-27.31666504 85.11649658 -27.75833008 85.48299316 -28.21337891 85.8605957 C-36.02213228 92.33356156 -43.84257444 98.78828069 -51.8125 105.0625 C-52.68865967 105.75436401 -52.68865967 105.75436401 -53.58251953 106.46020508 C-57.62364355 109.62432177 -57.62364355 109.62432177 -59.875 110.75 C-61.94116026 104.86528371 -64.00400725 98.97941972 -66.06396484 93.0925293 C-66.76327949 91.0954759 -67.46345445 89.09872353 -68.16455078 87.10229492 C-69.84057765 82.32884606 -71.50431702 77.5520517 -73.13867188 72.76416016 C-74.11849093 69.89655373 -75.138253 67.08337246 -76.25195312 64.26318359 C-80.14948751 53.80961144 -79.24113774 42.73835677 -78.875 31.75 C-71.86987769 29.53011049 -64.86379054 27.31329515 -57.85644722 25.10042572 C-54.6028714 24.07286271 -51.34964046 23.04423409 -48.09716797 22.01318359 C-44.3600449 20.82854741 -40.62147427 19.64852159 -36.8828125 18.46875 C-35.71195099 18.09689575 -34.54108948 17.7250415 -33.33474731 17.34191895 C-32.25377777 17.00156616 -31.17280823 16.66121338 -30.05908203 16.31054688 C-29.10421906 16.0085437 -28.14935608 15.70654053 -27.16555786 15.39538574 C-24.875 14.75 -24.875 14.75 -22.875 14.75 C-22.99875 13.925 -23.1225 13.1 -23.25 12.25 C-22.72338555 7.3349318 -20.29952558 4.23736091 -16.875 0.75 C-11.85950283 -2.46612293 -5.35398299 -2.32781869 0 0 Z " fill="#5EAEC4" transform="translate(117.875,34.25)"/>
<path d="M0 0 C1.95362143 2.93043215 2.82352765 5.22994095 3.875 8.5625 C5.02774049 12.20961591 6.29288107 15.76356774 7.7421875 19.30078125 C10.84851371 26.97553183 13.51312721 34.81303433 16.25 42.625 C16.8096995 44.21751693 17.36959382 45.80996541 17.9296875 47.40234375 C19.28870477 51.26744392 20.64508576 55.1334597 22 59 C23.01835938 58.18104248 24.03671875 57.36208496 25.0859375 56.51831055 C29.04806357 53.33389121 33.02200739 50.16456818 37 47 C37.63421875 46.49388184 38.2684375 45.98776367 38.921875 45.46630859 C40.67137598 44.07427777 42.42804305 42.69191425 44.1875 41.3125 C45.72470703 40.10013672 45.72470703 40.10013672 47.29296875 38.86328125 C51.48203715 35.9798965 51.48203715 35.9798965 54 36 C56.4453125 37.58984375 56.4453125 37.58984375 59.125 39.9375 C60.5790625 41.18466797 60.5790625 41.18466797 62.0625 42.45703125 C63.031875 43.29621094 64.00125 44.13539062 65 45 C66.70073954 46.38438174 68.40867659 47.75998654 70.125 49.125 C70.929375 49.76695313 71.73375 50.40890625 72.5625 51.0703125 C76.35499017 54.07270055 80.17292402 57.04187364 84 60 C84.2165625 59.23042969 84.433125 58.46085937 84.65625 57.66796875 C86.49859687 52.63900448 88.99053495 48.03693607 91.5 43.3125 C92.03173828 42.30316406 92.56347656 41.29382813 93.11132812 40.25390625 C94.20522248 38.17824497 95.30093121 36.10353889 96.3984375 34.02978516 C97.89747325 31.19395685 99.3882003 28.35397726 100.875 25.51171875 C101.74991224 23.84109987 102.62490766 22.17052455 103.5 20.5 C103.89638672 19.74243408 104.29277344 18.98486816 104.70117188 18.2043457 C107.04452379 13.74747063 109.47703404 9.35785029 112 5 C112.33 5 112.66 5 113 5 C114.31306726 20.23764052 113.34398655 30.05143844 104.58398438 42.58740234 C101.39814598 47.43981527 98.77934028 52.62551281 96.0625 57.75 C94.97172214 59.78735334 93.87937049 61.82386519 92.78515625 63.859375 C92.31988525 64.73045898 91.85461426 65.60154297 91.37524414 66.49902344 C89.978252 69.03955025 88.50715094 71.5235104 87 74 C82.52769017 73.12661963 79.88139034 70.58765636 76.5625 67.625 C75.31532033 66.53621067 74.06791912 65.44767507 72.8203125 64.359375 C71.546825 63.23964019 70.27338714 62.11984893 69 61 C66.65506934 58.94740817 64.29974605 56.90762234 61.9375 54.875 C61.41422119 54.41432129 60.89094238 53.95364258 60.35180664 53.47900391 C57.39025815 50.93397548 54.71866071 49.21453506 51 48 C50.55833496 48.36649658 50.11666992 48.73299316 49.66162109 49.1105957 C41.85286772 55.58356156 34.03242556 62.03828069 26.0625 68.3125 C25.18634033 69.00436401 25.18634033 69.00436401 24.29248047 69.71020508 C20.25135645 72.87432177 20.25135645 72.87432177 18 74 C15.9132889 68.07944926 13.83268057 62.15677869 11.75610352 56.23266602 C11.05044315 54.22176775 10.34343801 52.21134084 9.63500977 50.20141602 C8.61111623 47.29569418 7.59223176 44.38825526 6.57421875 41.48046875 C6.26159592 40.59667038 5.94897308 39.71287201 5.62687683 38.80229187 C2.16576217 28.88252063 -0.49585639 19.88358943 -0.1875 9.3125 C-0.16719727 7.95608398 -0.16719727 7.95608398 -0.14648438 6.57226562 C-0.11170623 4.38124234 -0.05792792 2.19053348 0 0 Z " fill="#F4F6F6" transform="translate(40,71)"/>
<path d="M0 0 C8.18515093 1.9422392 15.54716993 6.14044809 22.98486328 9.96826172 C26.31054503 11.67099144 29.65599713 13.33359055 33 15 C31.02033538 20.10553983 28.58445016 24.89533692 26.0625 29.75 C25.39831055 31.06291016 25.39831055 31.06291016 24.72070312 32.40234375 C24.28822266 33.23378906 23.85574219 34.06523438 23.41015625 34.921875 C23.01965088 35.68081055 22.62914551 36.43974609 22.22680664 37.22167969 C21 39 21 39 18 40 C15.43459957 39.19740032 13.0390932 38.33115626 10.5625 37.3125 C9.89412109 37.05533203 9.22574219 36.79816406 8.53710938 36.53320312 C3.78289159 34.61549585 0.43574058 32.63576255 -2.046875 28.078125 C-2.69791667 26.38541667 -3.34895833 24.69270833 -4 23 C-4.92683594 22.95101562 -5.85367188 22.90203125 -6.80859375 22.8515625 C-8.60490234 22.73941406 -8.60490234 22.73941406 -10.4375 22.625 C-11.63246094 22.55539063 -12.82742187 22.48578125 -14.05859375 22.4140625 C-15.02925781 22.27742188 -15.99992187 22.14078125 -17 22 C-18.445594 19.10881199 -17.96445159 16.76855133 -17.75 13.5625 C-17.68296875 12.40878906 -17.6159375 11.25507812 -17.546875 10.06640625 C-17 7 -17 7 -15.796875 5.15625 C-13.39748413 3.61229414 -11.31785144 3.32760578 -8.5 2.9375 C-4.8214531 2.41835024 -3.15458608 2.10305739 0 0 Z " fill="#48761D" transform="translate(120,59)"/>
<path d="M0 0 C6.81415457 5.6116567 6.81415457 5.6116567 7.328125 10.80078125 C7.45938567 17.13410881 6.44622912 21.13861724 2.125 26 C-1.01485266 27.83158072 -2.34787326 27.91783987 -5.86328125 28.19140625 C-13.64145624 29.52638017 -17.96972724 34.89282706 -23.0625 40.4375 C-24.46648326 41.9219741 -25.87706964 43.39995862 -27.28811646 44.87771606 C-28.64177973 46.29676474 -29.98965216 47.72133022 -31.33740234 49.14599609 C-39.57659078 57.60079539 -39.57659078 57.60079539 -43.875 59.75 C-38.87981312 47.0511249 -31.4081276 36.0496914 -23.875 24.75 C-23.7681143 22.90211072 -23.66980409 21.05252309 -23.64916992 19.20166016 C-23.57198036 12.36999407 -23.20652614 7.47971892 -18.54296875 2.1328125 C-13.21686714 -2.28273778 -6.28506857 -2.73263851 0 0 Z " fill="#F0EBE7" transform="translate(117.875,34.25)"/>
<path d="M0 0 C2.0832274 1.8476072 3.93439754 3.65309252 5.8125 5.6875 C6.32748047 6.20505859 6.84246094 6.72261719 7.37304688 7.25585938 C9.80883401 9.87424903 10.99433294 11.3766233 11.02734375 15.0078125 C9.89088036 18.31781614 8.51333092 21.16300415 6.75 24.1875 C6.16734375 25.21230469 5.5846875 26.23710938 4.984375 27.29296875 C2.85542269 30.1972285 1.30227174 31.58986843 -2 33 C-7.6917556 32.63278996 -13.58849006 28.33327776 -18 25 C-20.35139893 21.63222536 -22 18.15912835 -22 14 C-22.66 14 -23.32 14 -24 14 C-24.33 18.95 -24.66 23.9 -25 29 C-25.33 29 -25.66 29 -26 29 C-26 21.41 -26 13.82 -26 6 C-22.4525 4.824375 -18.905 3.64875 -15.25 2.4375 C-14.13786133 2.06294678 -13.02572266 1.68839355 -11.87988281 1.30249023 C-10.99655273 1.01575439 -10.11322266 0.72901855 -9.203125 0.43359375 C-8.30239258 0.13509521 -7.40166016 -0.16340332 -6.47363281 -0.47094727 C-3.8123304 -1.04013818 -2.5054137 -1.01009296 0 0 Z " fill="#8AD642" transform="translate(65,60)"/>
<path d="M0 0 C0.33 0.66 0.66 1.32 1 2 C5.29 2 9.58 2 14 2 C18 9.75 18 9.75 18 12 C18.83789062 12.26554687 19.67578125 12.53109375 20.5390625 12.8046875 C24.2299478 14.07941764 27.79895162 15.56467826 31.375 17.125 C32.01566406 17.40214844 32.65632813 17.67929688 33.31640625 17.96484375 C34.87856925 18.64100385 36.43942315 19.32018707 38 20 C36.50198917 23.95076246 34.6948548 27.64896034 32.7421875 31.39453125 C32.2803154 32.28285896 32.2803154 32.28285896 31.80911255 33.18913269 C30.83327791 35.06474541 29.85419492 36.93863977 28.875 38.8125 C28.20941942 40.09038232 27.54405263 41.368376 26.87890625 42.64648438 C25.25507513 45.76561506 23.62832798 48.88321405 22 52 C18.09714651 50.16639525 15.01077655 47.6599216 11.75 44.875 C11.19570312 44.40707031 10.64140625 43.93914062 10.0703125 43.45703125 C8.71052674 42.30824672 7.35484835 41.15460347 6 40 C7.42107224 36.51056083 8.92764325 35.29809892 12.0625 33.3125 C15.24249176 30.71330239 16.25514945 28.74494855 16.74609375 24.765625 C17.05629739 20.50713157 17.07680736 16.26760919 17 12 C16.24332031 11.71382812 15.48664063 11.42765625 14.70703125 11.1328125 C12 10 12 10 8.6875 7.875 C4.84678882 5.66845751 1.34825516 5.20866651 -3 6 C-9.83341774 8.19970971 -16.05994805 12.18020445 -22.27734375 15.70703125 C-23.17582031 16.13371094 -24.07429688 16.56039062 -25 17 C-25.66 16.67 -26.32 16.34 -27 16 C-23.30651666 11.93716833 -20.13660682 9.28469275 -15.15234375 7.0078125 C-12.02106864 5.5416256 -9.06615325 3.78663219 -6.078125 2.05078125 C-4.04963221 1.02509598 -2.21937926 0.45487278 0 0 Z " fill="#38A2B4" transform="translate(102,79)"/>
<path d="M0 0 C4.14452147 0.46377416 7.21196714 2.02364404 10.8125 4.0625 C11.78832031 4.61035156 12.76414062 5.15820312 13.76953125 5.72265625 C14.50558594 6.14417969 15.24164063 6.56570312 16 7 C17.64061341 21.28493693 17.64061341 21.28493693 14.92041016 25.78662109 C12.04483043 29.08046696 8.64411314 31.59228239 5 34 C0.64721606 31.89535722 -3.07062456 29.94828863 -6 26 C-7.95891375 20.09586136 -9 14.21748767 -9 8 C-7.28515625 6.11328125 -7.28515625 6.11328125 -5.0625 4.3125 C-4.33160156 3.71050781 -3.60070312 3.10851562 -2.84765625 2.48828125 C-2.23792969 1.99714844 -1.62820312 1.50601563 -1 1 C-0.67 0.67 -0.34 0.34 0 0 Z " fill="#6EB32D" transform="translate(103,84)"/>
<path d="M0 0 C-1.11878383 1.17262904 -2.24523051 2.33795138 -3.375 3.5 C-4.00148438 4.1496875 -4.62796875 4.799375 -5.2734375 5.46875 C-7 7 -7 7 -9 7 C-8.7834375 7.89203125 -8.566875 8.7840625 -8.34375 9.703125 C-8.0653125 10.87359375 -7.786875 12.0440625 -7.5 13.25 C-7.2215625 14.41015625 -6.943125 15.5703125 -6.65625 16.765625 C-6 20 -6 20 -6 24 C-6.87140625 23.7421875 -7.7428125 23.484375 -8.640625 23.21875 C-12.0942959 22.65909416 -12.0942959 22.65909416 -14.859375 24.84375 C-16.29023437 26.15859375 -16.29023437 26.15859375 -17.75 27.5 C-18.78879429 28.42770556 -19.83050867 29.35215088 -20.875 30.2734375 C-21.39320312 30.73459961 -21.91140625 31.19576172 -22.4453125 31.67089844 C-26.05872073 34.75999932 -30.05209149 37.36223812 -34 40 C-35.17185508 36.48443477 -34.84029603 36.02309666 -33.34765625 32.796875 C-32.98349609 31.98089844 -32.61933594 31.16492188 -32.24414062 30.32421875 C-31.46298314 28.62245748 -30.67917292 26.92191111 -29.89257812 25.22265625 C-27.52021032 19.95184496 -27.52021032 19.95184496 -27.25390625 14.22265625 C-27 11 -27 11 -25.51879883 9.55517578 C-23.363571 8.11316453 -21.1733998 6.88773345 -18.875 5.6875 C-17.73417969 5.04458008 -17.73417969 5.04458008 -16.5703125 4.38867188 C-5.08733052 -1.95666558 -5.08733052 -1.95666558 0 0 Z " fill="#5DAFC6" transform="translate(103,85)"/>
<path d="M0 0 C4.3789712 0.43789712 6.36682195 1.62125042 9.75 4.375 C12.57368571 8.61052856 12.41653757 12.39977314 11.75 17.375 C9.95353146 20.30923195 8.8058929 21.84705355 5.75 23.375 C2.3641466 23.79448626 -0.87068431 23.86914522 -4.25 23.375 C-7.3125 20.9375 -7.3125 20.9375 -9.25 18.375 C-9.58 18.045 -9.91 17.715 -10.25 17.375 C-10.68835932 13.99337099 -10.7324298 10.75200857 -10.25 7.375 C-7.875 4.375 -7.875 4.375 -5.25 2.375 C-3.25 0.375 -3.25 0.375 0 0 Z " fill="#E94724" transform="translate(109.25,35.625)"/>
<path d="M0 0 C3 1 3 1 5 4 C4.75035477 10.86524379 2.89070396 17.77003458 0 24 C-4.08957231 25.36319077 -6.63831403 23.87515655 -10.4375 22.3125 C-11.10587891 22.05533203 -11.77425781 21.79816406 -12.46289062 21.53320312 C-17.41050136 19.537487 -20.8428597 17.60788337 -23.046875 12.640625 C-23.27890625 11.85171875 -23.5109375 11.0628125 -23.75 10.25 C-23.99234375 9.45078125 -24.2346875 8.6515625 -24.484375 7.828125 C-24.65453125 7.22484375 -24.8246875 6.6215625 -25 6 C-21.01482622 4.89300728 -19.59686533 5.20156733 -16 7 C-9.94028918 7.686005 -6.87062241 6.34258401 -2 3 C-1.34 2.01 -0.68 1.02 0 0 Z " fill="#6DB22D" transform="translate(141,74)"/>
<path d="M0 0 C0.08226668 3.04386724 -0.02391783 5.07175348 -1 8 C0.32 7.67 1.64 7.34 3 7 C4.92062106 13.95863206 2.51295585 18.58033224 -0.4375 24.9375 C-1.0881543 26.3925293 -1.0881543 26.3925293 -1.75195312 27.87695312 C-2.81959278 30.25861082 -3.90241572 32.63203113 -5 35 C-8.21329255 31.9802379 -10.17056589 28.4719531 -12.25 24.625 C-12.62640625 23.965 -13.0028125 23.305 -13.390625 22.625 C-14.97560158 19.69978587 -16.0387063 17.60725884 -15.82421875 14.2421875 C-13.52284644 7.98158227 -11.81924947 5.09161795 -5.8125 2.0625 C-1.2829582 0 -1.2829582 0 0 0 Z " fill="#8BD643" transform="translate(73,89)"/>
<path d="M0 0 C2.25635574 2.25635574 2.51181687 3.47410548 3.3125 6.5 C4.33464938 10.08372541 4.33464938 10.08372541 7.1875 12.25 C8.115625 12.4975 9.04375 12.745 10 13 C11.34862649 13.87264067 12.68090005 14.77083732 14 15.6875 C17.18665837 17.76576485 17.18665837 17.76576485 21 17.8125 C21.66 17.544375 22.32 17.27625 23 17 C23.33 17.66 23.66 18.32 24 19 C23.38769531 19.25136719 22.77539062 19.50273438 22.14453125 19.76171875 C19.65916177 21.19680459 18.94804213 22.26708095 17.6875 24.8125 C17.34074219 25.47894531 16.99398437 26.14539063 16.63671875 26.83203125 C15.61628725 30.30650659 16.28996546 32.65231744 17.96508789 35.83178711 C19.60473273 38.65290556 21.29716577 41.43739541 23.02539062 44.20507812 C23.43337891 44.89150391 23.84136719 45.57792969 24.26171875 46.28515625 C24.64287842 46.90269775 25.02403809 47.52023926 25.41674805 48.15649414 C26 50 26 50 25.42114258 52.04467773 C23.63544624 54.50158239 21.66486966 55.59743702 19 57 C18.8209613 56.47097076 18.64192261 55.94194153 18.4574585 55.3968811 C16.57860432 49.84696512 14.69589692 44.29836677 12.81103516 38.75048828 C12.10986818 36.68506268 11.4096554 34.61931287 10.71044922 32.55322266 C9.70015504 29.56845912 8.6863345 26.58491252 7.671875 23.6015625 C7.36441345 22.69072906 7.0569519 21.77989563 6.74017334 20.84146118 C4.92321577 15.51092606 2.94413944 10.29363688 0.74591064 5.10775757 C0 3 0 3 0 0 Z " fill="#72B7CE" transform="translate(42,74)"/>
<path d="M0 0 C5 2 5 2 6.09375 3.828125 C5.94530369 7.2671312 3.9719509 8.46708064 1.5 10.75 C-1.60755256 13.70670049 -4.6481118 16.61503041 -7.4375 19.875 C-10.52967936 23.487498 -13.71964354 26.99976754 -16.9375 30.5 C-17.43499756 31.04124512 -17.93249512 31.58249023 -18.44506836 32.14013672 C-19.62932691 33.42741933 -20.81455849 34.71380668 -22 36 C-22.33 35.34 -22.66 34.68 -23 34 C-15.41 22.78 -7.82 11.56 0 0 Z " fill="#EA4E2C" transform="translate(97,58)"/>
<path d="M0 0 C0.99 0.33 1.98 0.66 3 1 C2.21625 1.598125 1.4325 2.19625 0.625 2.8125 C-2.82964725 5.69137271 -4.19303088 7.79581392 -4.625 12.1875 C-4.74875 13.445625 -4.8725 14.70375 -5 16 C-6.7902061 16.67057887 -8.58221489 17.3363469 -10.375 18 C-11.37273437 18.37125 -12.37046875 18.7425 -13.3984375 19.125 C-16 20 -16 20 -18 20 C-17.91291962 17.89505699 -17.80474307 15.79097858 -17.6875 13.6875 C-17.62949219 12.51574219 -17.57148437 11.34398438 -17.51171875 10.13671875 C-17 7 -17 7 -15.80078125 5.1484375 C-13.39853411 3.61641872 -11.31422235 3.32710336 -8.5 2.9375 C-4.8214531 2.41835024 -3.15458608 2.10305739 0 0 Z " fill="#70B32F" transform="translate(120,59)"/>
<path d="M0 0 C-0.33 4.29 -0.66 8.58 -1 13 C-2.485 13.556875 -3.97 14.11375 -5.5 14.6875 C-10.40012046 16.64200349 -14.61602554 19.10044127 -19 22 C-19.825 22.45375 -20.65 22.9075 -21.5 23.375 C-25.3266857 25.86234571 -28.62271917 28.94117245 -32 32 C-32.33 31.34 -32.66 30.68 -33 30 C-31.71937515 28.2925002 -30.38232443 26.62626404 -29 25 C-28.34 25 -27.68 25 -27 25 C-25.26061767 23.63482323 -25.26061767 23.63482323 -23.40234375 21.81640625 C-22.68691406 21.13964844 -21.97148438 20.46289062 -21.234375 19.765625 C-20.47640625 19.03859375 -19.7184375 18.3115625 -18.9375 17.5625 C-18.17050781 16.83417969 -17.40351562 16.10585937 -16.61328125 15.35546875 C-11.81545988 10.7853406 -7.08282882 6.16230048 -2.46875 1.40625 C-1 0 -1 0 0 0 Z " fill="#70B9CC" transform="translate(103,67)"/>
<path d="M0 0 C6.51819877 1.89536276 12.17814801 4.5178994 18 8 C16.27502493 12.6029598 14.0904129 16.93255824 11.875 21.3125 C11.50246094 22.05306641 11.12992188 22.79363281 10.74609375 23.55664062 C9.83255194 25.37201217 8.91652513 27.18613282 8 29 C6.84950592 25.54851775 7.18233609 24.89400468 8.4375 21.625 C9.72621107 18.26163748 10.53347746 15.60652989 10 12 C8.08562173 9.30135978 8.08562173 9.30135978 5.5625 6.8125 C1.05237316 2.10474632 1.05237316 2.10474632 0 0 Z " fill="#2A9DA7" transform="translate(135,66)"/>
<path d="M0 0 C0.33 0.66 0.66 1.32 1 2 C3.97 2 6.94 2 10 2 C10 2.33 10 2.66 10 3 C8.22109375 3.38478516 8.22109375 3.38478516 6.40625 3.77734375 C-3.30850267 6.02626916 -11.59845375 8.8559079 -20.09765625 14.14038086 C-21.70481401 15.13836723 -23.34938721 16.07565684 -25 17 C-25.66 16.67 -26.32 16.34 -27 16 C-23.30651666 11.93716833 -20.13660682 9.28469275 -15.15234375 7.0078125 C-12.02106864 5.5416256 -9.06615325 3.78663219 -6.078125 2.05078125 C-4.04963221 1.02509598 -2.21937926 0.45487278 0 0 Z " fill="#3C7787" transform="translate(102,79)"/>
<path d="M0 0 C0.68837568 9.67550265 0.68837568 9.67550265 -1.875 13.625 C-2.57625 14.40875 -3.2775 15.1925 -4 16 C-6 16 -6 16 -7.6875 14.375 C-9.48353519 11.12503156 -9.00735718 9.52575011 -8 6 C-6.625 3.1875 -6.625 3.1875 -5 1 C-2 0 -2 0 0 0 Z " fill="#89D34B" transform="translate(95,49)"/>
<path d="M0 0 C0.19335938 0.63808594 0.38671875 1.27617188 0.5859375 1.93359375 C0.84632812 2.75988281 1.10671875 3.58617188 1.375 4.4375 C1.63023438 5.26121094 1.88546875 6.08492188 2.1484375 6.93359375 C2.80882227 9.17798016 2.80882227 9.17798016 5 10 C4.34 10 3.68 10 3 10 C3 14.95 3 19.9 3 25 C2.67 25 2.34 25 2 25 C2 19.72 2 14.44 2 9 C-0.475 8.01 -0.475 8.01 -3 7 C-4.61811373 6.15106911 -6.22305956 5.27647368 -7.8125 4.375 C-8.60269531 3.92898437 -9.39289063 3.48296875 -10.20703125 3.0234375 C-10.79871094 2.68570313 -11.39039062 2.34796875 -12 2 C-8.40939861 -1.59060139 -4.69614193 -1.20757935 0 0 Z " fill="#44A5A5" transform="translate(117,82)"/>
<path d="M0 0 C-0.33 3.3 -0.66 6.6 -1 10 C-3.31 10.66 -5.62 11.32 -8 12 C-8.43769726 8.9361192 -8.60855877 6.83395091 -6.734375 4.265625 C-2.55 0 -2.55 0 0 0 Z " fill="#4AA7BA" transform="translate(103,70)"/>
<path d="M0 0 C0 3 0 3 -1.8359375 5.17651367 C-2.67382812 5.99869385 -3.51171875 6.82087402 -4.375 7.66796875 C-5.27734375 8.56064453 -6.1796875 9.45332031 -7.109375 10.37304688 C-8.0727573 11.31136157 -9.03630108 12.2495105 -10 13.1875 C-10.96422346 14.13667769 -11.92777392 15.08653956 -12.890625 16.03710938 C-15.25386746 18.36490319 -17.62381482 20.68543133 -20 23 C-20 20 -20 20 -18.6796875 18.421875 C-17.78636719 17.59429687 -17.78636719 17.59429687 -16.875 16.75 C-14.42144126 14.40975823 -12.15048617 12.05876827 -10 9.4375 C-7.00884096 5.86427758 -3.61805046 2.92227152 0 0 Z " fill="#FCF2F0" transform="translate(104,63)"/>
<path d="M0 0 C0.33 0.66 0.66 1.32 1 2 C3.97 2 6.94 2 10 2 C10 2.33 10 2.66 10 3 C7.91798472 3.50546036 5.83432933 4.00416835 3.75 4.5 C2.58984375 4.7784375 1.4296875 5.056875 0.234375 5.34375 C-3 6 -3 6 -7 6 C-7 5.01 -7 4.02 -7 3 C-4.69 2.01 -2.38 1.02 0 0 Z " fill="#32727B" transform="translate(102,79)"/>
<path d="M0 0 C1.32 0 2.64 0 4 0 C3.67 2.64 3.34 5.28 3 8 C2.67 8 2.34 8 2 8 C1.67 12.95 1.34 17.9 1 23 C0.67 23 0.34 23 0 23 C0 15.41 0 7.82 0 0 Z " fill="#B9BABB" transform="translate(39,66)"/>
<path d="M0 0 C-1.11878383 1.17262904 -2.24523051 2.33795138 -3.375 3.5 C-4.00148438 4.1496875 -4.62796875 4.799375 -5.2734375 5.46875 C-7 7 -7 7 -9 7 C-9.33 5.02 -9.66 3.04 -10 1 C-6.16112237 -0.48320272 -3.93795909 -1.22419163 0 0 Z " fill="#4FA7AC" transform="translate(103,85)"/>
<path d="M0 0 C0.33 0 0.66 0 1 0 C1.33872513 1.41538717 1.67074624 2.83237963 2 4.25 C2.185625 5.03890625 2.37125 5.8278125 2.5625 6.640625 C3 9 3 9 3 13 C1.68 12.34 0.36 11.68 -1 11 C-1.0270043 9.54176788 -1.04639787 8.08339325 -1.0625 6.625 C-1.07410156 5.81289062 -1.08570312 5.00078125 -1.09765625 4.1640625 C-1 2 -1 2 0 0 Z " fill="#57ADB7" transform="translate(94,96)"/>
<path d="M0 0 C0 3 0 3 -1.609375 4.97265625 C-2.31578125 5.66230469 -3.0221875 6.35195312 -3.75 7.0625 C-4.79414062 8.10083984 -4.79414062 8.10083984 -5.859375 9.16015625 C-7.84763772 10.86904629 -9.60843914 11.96042512 -12 13 C-10.92598892 10.08482708 -10.22189824 8.22189824 -8 6 C-7.34 6 -6.68 6 -6 6 C-4.42888683 4.67228234 -4.42888683 4.67228234 -2.875 3 C-2.33617188 2.443125 -1.79734375 1.88625 -1.2421875 1.3125 C-0.83226563 0.879375 -0.42234375 0.44625 0 0 Z " fill="#D7C1B2" transform="translate(82,86)"/>
<path d="M0 0 C0.66 1.32 1.32 2.64 2 4 C-0.97 5.65 -3.94 7.3 -7 9 C-5.04783565 5.09567131 -3.12613393 2.96160056 0 0 Z " fill="#52A8BF" transform="translate(92,79)"/>
<path d="M0 0 C2.97 0.99 5.94 1.98 9 3 C8.01 3.495 8.01 3.495 7 4 C6.67 4.99 6.34 5.98 6 7 C4.02 4.69 2.04 2.38 0 0 Z " fill="#1B646B" transform="translate(135,66)"/>
<path d="M0 0 C0.66 0.33 1.32 0.66 2 1 C2 1.99 2 2.98 2 4 C0.03533587 5.06775224 -1.96855359 6.06553465 -4 7 C-4.66 6.67 -5.32 6.34 -6 6 C-4.02 4.02 -2.04 2.04 0 0 Z " fill="#468699" transform="translate(81,89)"/>
<path d="M0 0 C1.32 0 2.64 0 4 0 C3.67 2.64 3.34 5.28 3 8 C1.58622659 5.36095629 0.62759865 2.92879371 0 0 Z " fill="#7BB1C4" transform="translate(39,66)"/>
</svg>
