<svg width="142" height="142" viewBox="0 0 142 142" fill="none" xmlns="http://www.w3.org/2000/svg">
<g clip-path="url(#clip0_255_10788)">
<path d="M0 32C0 14.3269 14.3269 0 32 0H110C127.673 0 142 14.3269 142 32V110C142 127.673 127.673 142 110 142H32C14.3269 142 0 127.673 0 110V32Z" fill="white"/>
<path d="M11 39C11 23.536 23.536 11 39 11H103C118.464 11 131 23.536 131 39V103C131 118.464 118.464 131 103 131H39C23.536 131 11 118.464 11 103V39Z" fill="#1255DC"/>
<path d="M39 11C23.536 11 11 23.536 11 39V76.3559L18.0752 70.6506C20.8923 68.1862 24.5405 66.8842 28.2812 67.0081C32.022 67.132 35.5759 68.6725 38.2236 71.3179L65.7512 98.8454C67.8872 100.981 70.7083 102.295 73.7178 102.555C76.7271 102.816 79.7319 102.007 82.2034 100.27L84.1221 98.9224C87.6877 96.4169 91.998 95.1954 96.3479 95.4577C100.698 95.7199 104.83 97.4504 108.069 100.366L126.973 117.475C129.529 113.251 131 108.297 131 103V39C131 23.536 118.464 11 103 11H39Z" fill="#C6D8FA"/>
<g clip-path="url(#clip1_255_10788)">
<rect x="59" y="19" width="64" height="64" rx="32" fill="#1255DC"/>
<rect x="63.9578" y="23.9578" width="54.0845" height="54.0845" rx="27.0423" fill="#0F2C8A"/>
<g clip-path="url(#clip2_255_10788)">
<mask id="mask0_255_10788" style="mask-type:luminance" maskUnits="userSpaceOnUse" x="63" y="23" width="56" height="56">
<path d="M91 78.0423C105.935 78.0423 118.042 65.935 118.042 51C118.042 36.065 105.935 23.9578 91 23.9578C76.065 23.9578 63.9578 36.065 63.9578 51C63.9578 65.935 76.065 78.0423 91 78.0423Z" fill="white"/>
</mask>
<g mask="url(#mask0_255_10788)">
<path d="M91 23.9578H118.042V30.7183L114.662 34.0986L118.042 37.4789V44.2395L114.662 47.6197L118.042 51V57.7606L114.662 61.1409L118.042 64.5211V71.2817L91 74.662L63.9578 71.2817V64.5211L67.338 61.1409L63.9578 57.7606V51L91 23.9578Z" fill="#F2F2F2"/>
<path d="M87.6197 30.7183H118.042V37.4789H87.6197V30.7183ZM87.6197 44.2394H118.042V51H91L87.6197 44.2394ZM63.9578 57.7606H118.042V64.5211H63.9578V57.7606ZM63.9578 71.2817H118.042V78.0423H63.9578V71.2817Z" fill="#B4123F"/>
<path d="M63.9578 23.9578H91V51H63.9578V23.9578Z" fill="#032D60"/>
<path d="M83.7113 49.6268L89.7324 45.2958H82.338L88.3591 49.6268L86.0352 42.5493L83.7113 49.6268ZM75.1549 49.6268L81.176 45.2958H73.7817L79.8028 49.6268L77.4789 42.5493L75.1549 49.6268ZM66.5986 49.6268L72.6197 45.2958H65.2253L71.2465 49.6268L68.9225 42.5493L66.5986 49.6268ZM83.7113 41.0704L89.7324 36.7394H82.338L88.3591 41.0704L86.0352 33.993L83.7113 41.0704ZM75.1549 41.0704L81.176 36.7394H73.7817L79.8028 41.0704L77.4789 33.993L75.1549 41.0704ZM66.5986 41.0704L72.6197 36.7394H65.2253L71.2465 41.0704L68.9225 33.993L66.5986 41.0704ZM83.7113 32.4085L89.7324 28.0775H82.338L88.3591 32.4085L86.0352 25.331L83.7113 32.4085ZM75.1549 32.4085L81.176 28.0775H73.7817L79.8028 32.4085L77.4789 25.331L75.1549 32.4085ZM66.5986 32.4085L72.6197 28.0775H65.2253L71.2465 32.4085L68.9225 25.331L66.5986 32.4085Z" fill="#F2F2F2"/>
</g>
</g>
</g>
</g>
<defs>
<clipPath id="clip0_255_10788">
<rect width="142" height="142" fill="white"/>
</clipPath>
<clipPath id="clip1_255_10788">
<rect width="64" height="64" fill="white" transform="translate(59 19)"/>
</clipPath>
<clipPath id="clip2_255_10788">
<rect width="54.0845" height="54.0845" fill="white" transform="translate(63.9578 23.9578)"/>
</clipPath>
</defs>
</svg>
