<svg width="142" height="142" viewBox="0 0 142 142" fill="none" xmlns="http://www.w3.org/2000/svg">
<g clip-path="url(#clip0_14_172)">
<mask id="mask0_14_172" style="mask-type:luminance" maskUnits="userSpaceOnUse" x="0" y="0" width="142" height="142">
<path d="M142 0H0V142H142V0Z" fill="white"/>
</mask>
<g mask="url(#mask0_14_172)">
<path d="M110 0H32C14.3269 0 0 14.3269 0 32V110C0 127.673 14.3269 142 32 142H110C127.673 142 142 127.673 142 110V32C142 14.3269 127.673 0 110 0Z" fill="white"/>
<path d="M103 11H39C23.536 11 11 23.536 11 39V103C11 118.464 23.536 131 39 131H103C118.464 131 131 118.464 131 103V39C131 23.536 118.464 11 103 11Z" fill="#0F2C8A"/>
<path d="M24 54.1608V96.6071C24 102.054 24 104.78 25.4779 106.832C26.9558 108.884 29.5408 109.746 34.7108 111.47L40.7947 113.496C47.9334 115.877 51.5002 117.068 55.0983 116.582L55.3333 116.551V43.4396C54.745 43.5272 54.1522 43.5813 53.5578 43.6015C50.7378 43.7007 47.9491 42.7659 42.377 40.9121C35.0763 38.4785 31.426 37.2617 28.6478 38.4994C27.6632 38.9374 26.7797 39.5739 26.0523 40.3689C24 42.6197 24 46.4633 24 54.1608ZM118 88.5231V46.0821C118 40.6353 118 37.9093 116.522 35.8569C115.044 33.8046 112.459 32.9429 107.289 31.2196L101.205 29.1934C94.0666 26.8121 90.4998 25.6214 86.9017 26.1071L86.6667 26.1332V99.2443C87.2585 99.1572 87.8504 99.1033 88.4422 99.0824C91.2622 98.9832 94.0509 99.9179 99.623 101.772C106.924 104.205 110.574 105.422 113.352 104.184C114.337 103.746 115.22 103.11 115.948 102.315C118 100.064 118 96.2206 118 88.5231Z" fill="#99BBFF"/>
<path d="M56.6234 43.1942C56.1951 43.2882 55.7652 43.37 55.3335 43.4396V116.551C58.8324 116.008 61.9605 113.924 68.0861 109.84L75.3033 105.025C80.1913 101.767 82.6353 100.137 85.3821 99.4897C85.7999 99.3853 86.2281 99.3035 86.6668 99.2443V26.1332C83.1679 26.6711 80.0398 28.76 73.9141 32.8385L66.697 37.6534C61.809 40.9121 59.365 42.5414 56.6181 43.189" fill="#3378FF"/>
<path fill-rule="evenodd" clip-rule="evenodd" d="M99.9787 117.476L99.9886 117.486L99.9952 117.493C100.428 117.822 100.957 118 101.5 118C102.043 118 102.572 117.822 103.005 117.493L103.011 117.486L103.021 117.476L103.061 117.447C103.273 117.282 103.482 117.114 103.688 116.941C106.148 114.862 108.409 112.556 110.44 110.054C114.073 105.548 118 98.9987 118 91.5394C118 87.1529 116.262 82.946 113.167 79.8443C110.073 76.7425 105.876 75 101.5 75C97.1239 75 92.9271 76.7425 89.8327 79.8443C86.7384 82.946 85 87.1529 85 91.5394C85 98.9987 88.927 105.548 92.5636 110.054C94.5945 112.556 96.855 114.862 99.3154 116.941L99.9391 117.447L99.9787 117.476ZM101.5 96.5012C102.15 96.5012 102.794 96.3729 103.394 96.1235C103.995 95.8742 104.541 95.5087 105 95.0479C105.46 94.5872 105.824 94.0402 106.073 93.4382C106.322 92.8362 106.45 92.191 106.45 91.5394C106.45 90.8878 106.322 90.2426 106.073 89.6406C105.824 89.0386 105.46 88.4916 105 88.0309C104.541 87.5701 103.995 87.2046 103.394 86.9553C102.794 86.7059 102.15 86.5776 101.5 86.5776C100.187 86.5776 98.9281 87.1003 97.9998 88.0309C97.0715 88.9614 96.55 90.2234 96.55 91.5394C96.55 92.8554 97.0715 94.1174 97.9998 95.0479C98.9281 95.9785 100.187 96.5012 101.5 96.5012Z" fill="#FF3A3A"/>
<path fill-rule="evenodd" clip-rule="evenodd" d="M100.95 117.79C101.128 117.712 101.298 117.612 101.455 117.493L101.461 117.486L101.471 117.476L101.511 117.447C101.723 117.282 101.932 117.114 102.138 116.941C104.598 114.862 106.859 112.556 108.89 110.054C112.523 105.548 116.45 98.9987 116.45 91.5394C116.45 87.1529 114.712 82.946 111.617 79.8443C108.759 76.9796 104.961 75.2744 100.95 75.0304C101.282 75.0102 101.615 75 101.95 75C106.326 75 110.523 76.7425 113.617 79.8443C116.712 82.946 118.45 87.1529 118.45 91.5394C118.45 98.9987 114.523 105.548 110.89 110.054C108.859 112.556 106.598 114.862 104.138 116.941C103.932 117.114 103.723 117.282 103.511 117.447L103.471 117.476L103.461 117.486L103.455 117.493C103.022 117.822 102.493 118 101.95 118C101.604 118 101.263 117.928 100.95 117.79ZM100.95 96.3989C100.622 96.4668 100.287 96.5012 99.95 96.5012C98.6372 96.5012 97.3781 95.9785 96.4498 95.0479C95.5215 94.1174 95 92.8554 95 91.5394C95 90.2234 95.5215 88.9614 96.4498 88.0309C97.3781 87.1003 98.6372 86.5776 99.95 86.5776C100.287 86.5776 100.622 86.612 100.95 86.6799C100.01 86.8743 99.1388 87.3403 98.4498 88.0309C97.5215 88.9614 97 90.2234 97 91.5394C97 92.8554 97.5215 94.1174 98.4498 95.0479C99.1388 95.7385 100.01 96.2045 100.95 96.3989Z" fill="#E40000"/>
</g>
</g>
<defs>
<clipPath id="clip0_14_172">
<rect width="142" height="142" fill="white"/>
</clipPath>
</defs>
</svg>
