<?xml version="1.0" encoding="UTF-8"?>
<svg version="1.1" xmlns="http://www.w3.org/2000/svg" width="180" height="180">
<path d="M0 0 C59.4 0 118.8 0 180 0 C180 59.4 180 118.8 180 180 C120.6 180 61.2 180 0 180 C0 120.6 0 61.2 0 0 Z " fill="#555555" transform="translate(0,0)"/>
<path d="M0 0 C3.88763306 11.97970038 7.21998093 24.05892656 10.375 36.25 C10.85709308 38.09910424 11.33943626 39.94814329 11.82202148 41.79711914 C13.99415095 50.13851803 16.13782587 58.48596752 18.19921875 66.85546875 C18.44378815 67.84642044 18.44378815 67.84642044 18.69329834 68.85739136 C19.43640141 71.87375985 20.17119084 74.89179323 20.89404297 77.91308594 C21.14686035 78.95110352 21.39967773 79.98912109 21.66015625 81.05859375 C21.97932007 82.39361938 21.97932007 82.39361938 22.30493164 83.75561523 C22.96055606 86.24820418 22.96055606 86.24820418 25 89 C27.7106377 80.64590349 30.22513143 72.31943625 32.27075195 63.77294922 C34.2243981 55.80465377 36.63602174 47.97010703 38.98950195 40.11279297 C41.78434252 30.77298936 44.42808451 21.40356602 47 12 C53.27 12 59.54 12 66 12 C67.86620399 16.97654398 69.49253283 21.46496569 70.796875 26.53515625 C71.27000122 28.35031738 71.27000122 28.35031738 71.75268555 30.20214844 C72.2463562 32.11302246 72.2463562 32.11302246 72.75 34.0625 C75.4662003 44.45483571 78.36430286 54.76816104 81.55004883 65.02783203 C84.21948797 73.6354746 86.64363791 82.30209199 89 91 C89.20753906 90.08605469 89.41507812 89.17210938 89.62890625 88.23046875 C93.37473734 71.93652158 97.41009702 55.6671699 102.125 39.625 C104.06719432 32.99819963 105.63012123 26.29346298 107.2043457 19.57202148 C108.66658266 13.34134683 110.22817415 7.15097268 112 1 C115.69037278 -0.37095624 117.70883835 0.39989033 121.25 1.9375 C122.14203125 2.31777344 123.0340625 2.69804688 123.953125 3.08984375 C124.96632812 3.54037109 124.96632812 3.54037109 126 4 C125.43309269 9.39290668 124.47964184 14.42665888 122.92578125 19.62890625 C122.72150513 20.33205963 122.517229 21.03521301 122.3067627 21.75967407 C121.871702 23.25591008 121.43407476 24.75140191 120.99404907 26.2461853 C119.83700203 30.17852881 118.69973646 34.11657705 117.5625 38.0546875 C117.33762405 38.83222885 117.11274811 39.6097702 116.88105774 40.41087341 C115.08563759 46.64336598 113.41132871 52.90161709 111.8125 59.1875 C109.55862776 68.02826399 107.06371085 76.78241547 104.47949219 85.53198242 C102.18155909 93.32280463 100.04697864 101.13960204 98 109 C91.73 109 85.46 109 79 109 C75.45286901 96.935442 71.93855608 84.86368262 68.5625 72.75 C65.94070091 63.34727166 63.2965834 53.95119021 60.625 44.5625 C60.27896729 43.34079102 59.93293457 42.11908203 59.57641602 40.86035156 C59.25471436 39.73209961 58.9330127 38.60384766 58.6015625 37.44140625 C58.17351318 35.93622437 58.17351318 35.93622437 57.73681641 34.40063477 C57.07782135 32.01806777 57.07782135 32.01806777 56 30 C51.34078422 45.44311944 46.89032978 60.91674672 42.73828125 76.50390625 C40.90827608 83.36825878 39.02798366 90.21804806 37.125 97.0625 C36.82650146 98.14611816 36.52800293 99.22973633 36.22045898 100.34619141 C35.94403564 101.3366748 35.6676123 102.3271582 35.3828125 103.34765625 C35.13934082 104.22429932 34.89586914 105.10094238 34.64501953 106.00415039 C34 108 34 108 33 109 C31.65732587 109.08631874 30.31025678 109.10706473 28.96484375 109.09765625 C28.15595703 109.09443359 27.34707031 109.09121094 26.51367188 109.08789062 C25.66353516 109.07951172 24.81339844 109.07113281 23.9375 109.0625 C23.08349609 109.05798828 22.22949219 109.05347656 21.34960938 109.04882812 C19.23304337 109.03700373 17.11651315 109.01906769 15 109 C13.62513928 105.68990352 12.48063845 102.40915149 11.51953125 98.95703125 C11.24616943 97.97887451 10.97280762 97.00071777 10.69116211 95.99291992 C10.40120361 94.94338135 10.11124512 93.89384277 9.8125 92.8125 C9.35339233 91.16374878 9.35339233 91.16374878 8.88500977 89.48168945 C6.68759332 81.56301599 4.55628956 73.62749702 2.4375 65.6875 C0.40271665 58.06790972 -1.70381394 50.4825496 -4 42.9375 C-6.35880426 35.15908132 -8.68384688 27.3721278 -10.9375 19.5625 C-11.25654297 18.4892749 -11.57558594 17.4160498 -11.90429688 16.31030273 C-12.19240234 15.30169189 -12.48050781 14.29308105 -12.77734375 13.25390625 C-13.03765381 12.36002197 -13.29796387 11.4661377 -13.56616211 10.54516602 C-14.04584353 7.73105301 -13.72751739 5.74090096 -13 3 C-11.39743892 2.49487756 -9.79288208 1.99608373 -8.1875 1.5 C-7.29417969 1.2215625 -6.40085937 0.943125 -5.48046875 0.65625 C-3 0 -3 0 0 0 Z " fill="#FBFBFB" transform="translate(34,36)"/>
<path d="M0 0 C0.33 0 0.66 0 1 0 C1 3.63 1 7.26 1 11 C-2.63 11 -6.26 11 -10 11 C-9.2575 10.443125 -8.515 9.88625 -7.75 9.3125 C-4.52326049 6.59910541 -1.89487672 3.78975344 0 0 Z " fill="#000000" transform="translate(179,169)"/>
<path d="M0 0 C0.556875 0.7425 1.11375 1.485 1.6875 2.25 C3.93727787 4.92541152 6.2309174 6.88675275 9 9 C9.66 9.66 10.32 10.32 11 11 C7.37 11 3.74 11 0 11 C0 7.37 0 3.74 0 0 Z " fill="#000000" transform="translate(0,169)"/>
<path d="M0 0 C3.63 0 7.26 0 11 0 C11 3.63 11 7.26 11 11 C10.443125 10.2575 9.88625 9.515 9.3125 8.75 C7.06272213 6.07458848 4.7690826 4.11324725 2 2 C1.34 1.34 0.68 0.68 0 0 Z " fill="#000000" transform="translate(169,0)"/>
<path d="M0 0 C3.63 0 7.26 0 11 0 C10.2575 0.556875 9.515 1.11375 8.75 1.6875 C6.07458848 3.93727787 4.11324725 6.2309174 2 9 C1.34 9.66 0.68 10.32 0 11 C0 7.37 0 3.74 0 0 Z " fill="#000000" transform="translate(0,0)"/>
</svg>
