<?xml version="1.0" encoding="UTF-8"?>
<svg version="1.1" xmlns="http://www.w3.org/2000/svg" width="170" height="172">
<path d="M0 0 C56.1 0 112.2 0 170 0 C170 56.76 170 113.52 170 172 C113.9 172 57.8 172 0 172 C0 115.24 0 58.48 0 0 Z " fill="#16191E" transform="translate(0,0)"/>
<path d="M0 0 C1.32 0.33 2.64 0.66 4 1 C3.01 2.485 3.01 2.485 2 4 C1.8985142 5.99876115 1.8985142 5.99876115 2.25 8.0625 C2.33765625 8.75472656 2.4253125 9.44695313 2.515625 10.16015625 C2.89580089 12.23165472 2.89580089 12.23165472 5 14 C5.2561264 16.46820641 5.2561264 16.46820641 5.26501465 19.64242554 C5.27328781 20.84261826 5.28156097 22.04281097 5.29008484 23.27937317 C5.28926018 24.61642467 5.28826251 25.95347608 5.28710938 27.29052734 C5.29313109 28.69318541 5.3000547 30.09583986 5.30781555 31.49848938 C5.3227266 34.52307575 5.33145926 37.54759584 5.33552551 40.57221603 C5.34222731 45.35384502 5.36396835 50.13533201 5.38806152 54.91690063 C5.43708374 65.06956719 5.4693623 75.22226384 5.5 85.375 C5.53306841 96.32780495 5.56898603 107.28055455 5.62413073 118.2332741 C5.64749438 122.98731733 5.66122422 127.74126227 5.66762543 132.49535728 C5.67356103 135.45319488 5.68765509 138.41095279 5.70396996 141.36874962 C5.71265491 143.39567201 5.71142335 145.42262927 5.70991516 147.4495697 C5.71818832 148.65540207 5.72646149 149.86123444 5.73498535 151.10360718 C5.73791847 152.15185354 5.74085159 153.20009991 5.7438736 154.28011131 C6.00448459 157.04762327 6.48594278 158.68613216 8 161 C10.66580435 162.33290218 12.69400273 162.13079456 15.6803894 162.13803101 C16.88899628 162.14348434 18.09760315 162.14893768 19.34283447 162.15455627 C20.689331 162.15567611 22.03582759 162.15672662 23.38232422 162.15771484 C24.79483193 162.16238206 26.20733815 162.16752547 27.61984253 162.17311096 C30.66569757 162.1844002 33.71154278 162.19283036 36.75741196 162.19923019 C41.57261566 162.20989809 46.3877488 162.23013939 51.20291138 162.25234985 C64.8967974 162.31431578 78.59067944 162.368303 92.28466797 162.40136719 C99.84459392 162.41970099 107.40440189 162.44862075 114.96424115 162.4893719 C118.96619 162.51046204 122.96799005 162.52590199 126.96999741 162.52817917 C130.73424906 162.53032356 134.49819086 162.54617109 138.26234818 162.57256889 C139.64422651 162.57977127 141.02614234 162.5818583 142.40803528 162.57846642 C144.29392631 162.57457672 146.17982696 162.59077346 148.06564331 162.60800171 C149.64907437 162.61296693 149.64907437 162.61296693 151.26449394 162.61803246 C154.3696898 163.05162098 155.64453278 164.00561488 158 166 C160.99593241 166.31089865 162.99182314 165.72778472 166 165 C167.77340479 163.45437518 167.77340479 163.45437518 168 161 C167.77454348 155.95463616 167.77454348 155.95463616 165 152 C164.7438736 149.51338291 164.7438736 149.51338291 164.73498535 146.31288147 C164.72671219 145.10282944 164.71843903 143.8927774 164.70991516 142.64605713 C164.71073982 141.29797352 164.71173748 139.94989001 164.71289062 138.60180664 C164.706869 137.187674 164.69994541 135.77354494 164.69218445 134.35942078 C164.67727379 131.31027738 164.66854086 128.26119973 164.66447449 125.21202278 C164.65777398 120.39286339 164.63603503 115.57384496 164.61193848 110.75474548 C164.56291691 100.52402997 164.53063082 90.29328461 164.5 80.0625 C164.46693732 69.02217683 164.43105132 57.98190862 164.37586927 46.94167036 C164.35248684 42.14887984 164.33877119 37.35618704 164.33237457 32.56334507 C164.32644557 29.58370477 164.31235749 26.60414388 164.29603004 23.62454414 C164.29014271 22.24062631 164.28768417 20.8566891 164.28886986 19.47275925 C164.29002538 17.58652382 164.27788062 15.70029408 164.26501465 13.81410217 C164.26061497 12.22928842 164.26061497 12.22928842 164.2561264 10.61245823 C164.184046 7.76596188 164.184046 7.76596188 162 5 C158.8214907 3.9404969 156.56346637 3.87010529 153.22386169 3.86196899 C152.01940399 3.85651566 150.81494629 3.85106232 149.57398987 3.84544373 C148.23739629 3.84432398 146.90080266 3.84327346 145.56420898 3.84228516 C144.15816082 3.83761658 142.75211416 3.83247295 141.34606934 3.82688904 C138.3176888 3.81561189 135.28931808 3.80717605 132.26092339 3.80076981 C127.47559306 3.79009518 122.69033355 3.7698536 117.90504456 3.74765015 C104.29748766 3.68570189 90.68993551 3.6316528 77.08227539 3.59863281 C69.56740759 3.58031733 62.05265889 3.55142429 54.53787857 3.5106281 C50.55948237 3.48951371 46.58123649 3.47409454 42.6027813 3.47182083 C38.86396513 3.46968143 35.12546244 3.45388555 31.38674164 3.42743111 C30.01208535 3.4202106 28.63739119 3.41815039 27.26272011 3.42153358 C25.39150973 3.42540441 23.52028932 3.40927177 21.64915466 3.39199829 C20.07596797 3.38703307 20.07596797 3.38703307 18.47099972 3.38196754 C17.65556981 3.25591825 16.8401399 3.12986897 16 3 C15.34 2.01 14.68 1.02 14 0 C65.48 0 116.96 0 170 0 C170 56.76 170 113.52 170 172 C113.9 172 57.8 172 0 172 C0 115.24 0 58.48 0 0 Z " fill="#1E232F" transform="translate(0,0)"/>
<path d="M0 0 C1.3303125 0.00773437 1.3303125 0.00773437 2.6875 0.015625 C3.574375 0.01046875 4.46125 0.0053125 5.375 0 C7.6875 0.265625 7.6875 0.265625 9.6875 2.265625 C12.26546147 2.57232216 12.26546147 2.57232216 15.32319641 2.52391052 C17.12131775 2.53415253 17.12131775 2.53415253 18.95576477 2.54460144 C20.29122955 2.54218181 21.62669403 2.53959751 22.9621582 2.53686523 C24.36319278 2.54125056 25.76422475 2.546552 27.16525269 2.55270386 C30.18656828 2.56422151 33.20781358 2.56966457 36.22915077 2.57058525 C41.0068515 2.57252268 45.78440655 2.59055851 50.5620575 2.61134338 C62.43179327 2.660581 74.30156878 2.6914097 86.17138672 2.71264648 C95.38988888 2.72916694 104.60826672 2.75198212 113.82668561 2.79566723 C118.5754807 2.81745357 123.32403971 2.82550046 128.07288134 2.82327449 C131.02970459 2.82494188 133.98637396 2.83899473 136.94314194 2.85648727 C138.96629505 2.86475182 140.98949178 2.85815654 143.01264954 2.85112 C144.82346008 2.86559174 144.82346008 2.86559174 146.67085266 2.88035583 C148.24183952 2.88337283 148.24183952 2.88337283 149.84456348 2.88645077 C153.13356353 3.32511834 155.02470984 4.31593613 157.6875 6.265625 C159.02040218 8.93142935 158.81829456 10.95962773 158.82553101 13.9460144 C158.83098434 15.15462128 158.83643768 16.36322815 158.84205627 17.60845947 C158.84317611 18.954956 158.84422662 20.30145259 158.84521484 21.64794922 C158.84988206 23.06045693 158.85502547 24.47296315 158.86061096 25.88546753 C158.8719002 28.93132257 158.88033036 31.97716778 158.88673019 35.02303696 C158.89739809 39.83824066 158.91763939 44.6533738 158.93984985 49.46853638 C159.00181578 63.1624224 159.055803 76.85630444 159.08886719 90.55029297 C159.10720099 98.11021892 159.13612075 105.67002689 159.1768719 113.22986615 C159.19796204 117.231815 159.21340199 121.23361505 159.21567917 125.23562241 C159.21782356 128.99987406 159.23367109 132.76381586 159.26006889 136.52797318 C159.26727127 137.90985151 159.2693583 139.29176734 159.26596642 140.67366028 C159.26207672 142.55955131 159.27827346 144.44545196 159.29550171 146.33126831 C159.30046693 147.91469937 159.30046693 147.91469937 159.30553246 149.53011894 C159.73910671 152.63521259 160.68969203 153.912536 162.6875 156.265625 C163.03545099 159.09816349 162.61205754 161.57185241 161.6875 164.265625 C159.5625 166.328125 159.5625 166.328125 156.6875 167.265625 C150.36607143 166.94419643 150.36607143 166.94419643 147.6875 164.265625 C145.08978201 163.95887899 145.08978201 163.95887899 142.0071106 164.00733948 C140.79850372 164.00051147 139.58989685 163.99368347 138.34466553 163.98664856 C136.99816865 163.98906817 135.65167206 163.99165247 134.30517578 163.99438477 C132.89266662 163.98999951 131.48016004 163.98469809 130.06765747 163.97854614 C127.02178489 163.9670288 123.97598204 163.96158546 120.93008804 163.96066475 C116.1148569 163.9587277 111.29977037 163.94069443 106.48458862 163.91990662 C94.52260299 163.8706658 82.56057794 163.83982913 70.59851074 163.81860352 C61.30669138 163.80208954 52.01499547 163.77929576 42.72325885 163.73558277 C37.93571688 163.71377878 33.14840923 163.70575115 28.36082101 163.70797551 C25.38219522 163.70630999 22.40372265 163.69226885 19.42515182 163.67476273 C18.04326744 163.6691582 16.66135136 163.66868263 15.27946472 163.67370033 C13.39359002 163.67983032 11.50768183 163.66587804 9.62185669 163.65089417 C8.03842563 163.64787717 8.03842563 163.64787717 6.42300606 163.64479923 C3.28744306 163.21017227 1.93014761 162.47091019 -0.3125 160.265625 C-1.3701576 157.09265219 -1.4423797 154.84301226 -1.45053101 151.50967407 C-1.45598434 150.30955185 -1.46143768 149.10942963 -1.46705627 147.87294006 C-1.4680986 146.55442551 -1.46914093 145.23591095 -1.47021484 143.87744141 C-1.47488356 142.47626079 -1.48002722 141.07508169 -1.48561096 139.67390442 C-1.49688938 136.65535245 -1.50532477 133.63681034 -1.51173019 130.61824417 C-1.52241047 125.84469169 -1.54265507 121.07121008 -1.56484985 116.29769897 C-1.62677423 102.72323855 -1.68079608 89.14878239 -1.71386719 75.57421875 C-1.73221009 68.07800016 -1.76114062 60.58190034 -1.8018719 53.08576906 C-1.82294526 49.1190146 -1.83839964 45.15240985 -1.84067917 41.18559647 C-1.842826 37.45415861 -1.85869857 33.72303257 -1.88506889 29.99168968 C-1.89568944 27.97094329 -1.89150802 25.95013608 -1.8868866 23.92936707 C-1.89797958 22.72360519 -1.90907257 21.51784332 -1.92050171 20.27554321 C-1.92381186 19.22951746 -1.927122 18.18349171 -1.93053246 17.1057682 C-2.36893392 13.84600709 -3.59418762 12.02994901 -5.3125 9.265625 C-4.86980907 0.55936996 -4.86980907 0.55936996 0 0 Z M10.6875 7.265625 C10.295625 8.214375 9.90375 9.163125 9.5 10.140625 C7.43705622 13.69742462 6.4323629 14.0030362 2.6875 15.265625 C2.61749319 33.74555843 2.56455277 52.22546504 2.53206348 70.70550346 C2.51657879 79.28564759 2.49545881 87.86570945 2.46118164 96.44580078 C2.43132817 103.92212385 2.41193666 111.39838736 2.40523452 118.87476838 C2.40131534 122.83536852 2.39207183 126.79579821 2.37030983 130.75634384 C2.35000849 134.48109453 2.34365319 138.2056039 2.34817696 141.93040466 C2.34734889 143.30025161 2.34134533 144.6701063 2.32988358 146.03990555 C2.31504068 147.9046272 2.32031481 149.76947716 2.32673645 151.63424683 C2.32397107 152.67956007 2.32120569 153.72487331 2.31835651 154.80186272 C2.44017386 155.61490427 2.56199121 156.42794582 2.6875 157.265625 C6.12509239 159.55735326 7.3581542 159.51332161 11.40116882 159.50613403 C13.18694839 159.51025803 13.18694839 159.51025803 15.00880432 159.51446533 C16.97030678 159.5036795 16.97030678 159.5036795 18.97143555 159.49267578 C20.36102287 159.49211169 21.75061078 159.49242818 23.14019775 159.49356079 C26.91474518 159.4941354 30.6891659 159.48236359 34.46368384 159.46841288 C38.40748947 159.45592358 42.35129789 159.45473644 46.29512024 159.45236206 C53.7642759 159.44614199 61.23337312 159.42972406 68.70250303 159.40966308 C77.20542558 159.38732046 85.7083509 159.37631478 94.21129549 159.36627221 C111.70339748 159.34535828 129.19544256 159.31017207 146.6875 159.265625 C147.079375 158.316875 147.47125 157.368125 147.875 156.390625 C149.93794378 152.83382538 150.9426371 152.5282138 154.6875 151.265625 C154.75750681 132.78569157 154.81044723 114.30578496 154.84293652 95.82574654 C154.85842121 87.24560241 154.87954119 78.66554055 154.91381836 70.08544922 C154.94367183 62.60912615 154.96306334 55.13286264 154.96976548 47.65648162 C154.97368466 43.69588148 154.98292817 39.73545179 155.00469017 35.77490616 C155.02499151 32.05015547 155.03134681 28.3256461 155.02682304 24.60084534 C155.02765111 23.23099839 155.03365467 21.8611437 155.04511642 20.49134445 C155.05995932 18.6266228 155.05468519 16.76177284 155.04826355 14.89700317 C155.05102893 13.85168993 155.05379431 12.80637669 155.05664349 11.72938728 C154.93482614 10.91634573 154.81300879 10.10330418 154.6875 9.265625 C151.24990761 6.97389674 150.0168458 7.01792839 145.97383118 7.02511597 C144.18805161 7.02099197 144.18805161 7.02099197 142.36619568 7.01678467 C140.40469322 7.0275705 140.40469322 7.0275705 138.40356445 7.03857422 C137.01397713 7.03913831 135.62438922 7.03882182 134.23480225 7.03768921 C130.46025482 7.0371146 126.6858341 7.04888641 122.91131616 7.06283712 C118.96751053 7.07532642 115.02370211 7.07651356 111.07987976 7.07888794 C103.6107241 7.08510801 96.14162688 7.10152594 88.67249697 7.12158692 C80.16957442 7.14392954 71.6666491 7.15493522 63.16370451 7.16497779 C45.67160252 7.18589172 28.17955744 7.22107793 10.6875 7.265625 Z " fill="#818893" transform="translate(6.3125,-0.265625)"/>
<path d="M0 0 C4.44804428 3.05747332 8.02313261 7.27495057 9.94921875 12.33984375 C10.02695335 14.67188187 10.03889603 17.00823434 9.94921875 19.33984375 C7.17676861 19.4747197 4.41084787 19.57385182 1.63671875 19.65234375 C0.85103516 19.69423828 0.06535156 19.73613281 -0.74414062 19.77929688 C-2.95141122 19.82626008 -4.89420362 19.81943443 -7.05078125 19.33984375 C-8.94921875 16.90234375 -8.94921875 16.90234375 -10.05078125 14.33984375 C-13.71616558 12.25949048 -16.88200944 11.98505466 -21.05078125 12.33984375 C-23.35308891 13.23815391 -23.35308891 13.23815391 -25.05078125 14.33984375 C-25.05078125 16.31984375 -25.05078125 18.29984375 -25.05078125 20.33984375 C-20.47634558 21.76060965 -15.9057636 23.12587803 -11.2578125 24.2890625 C-10.60369385 24.4530957 -9.9495752 24.61712891 -9.27563477 24.78613281 C-7.3746109 25.25897989 -5.47055474 25.71958467 -3.56640625 26.1796875 C1.81233637 27.95467257 6.3392748 30.95634039 9.94921875 35.33984375 C12.38957327 40.7086237 12.92196388 46.03472109 11.26171875 51.67578125 C9.22408974 56.78683402 6.75185485 60.481382 1.94921875 63.33984375 C0.98822266 63.92765625 0.98822266 63.92765625 0.0078125 64.52734375 C-5.76177504 67.41715455 -11.34042934 67.72537956 -17.67578125 67.77734375 C-18.87497192 67.79244995 -18.87497192 67.79244995 -20.09838867 67.80786133 C-28.05557626 67.69211146 -34.75914214 65.37315503 -41.05078125 60.33984375 C-44.54564169 56.72510683 -46.17686485 54.1970043 -46.18359375 49.10546875 C-46.13976562 47.8628125 -46.0959375 46.62015625 -46.05078125 45.33984375 C-43.29913693 45.20466472 -40.55413604 45.10569124 -37.80078125 45.02734375 C-37.02347656 44.98544922 -36.24617188 44.94355469 -35.4453125 44.90039062 C-33.20943809 44.85261553 -31.23952663 44.87297834 -29.05078125 45.33984375 C-26.62890625 47.796875 -26.62890625 47.796875 -25.05078125 50.33984375 C-22.485134 51.62266738 -20.54045056 51.54376328 -17.67578125 51.58984375 C-16.24105469 51.62851563 -16.24105469 51.62851563 -14.77734375 51.66796875 C-11.67185978 51.29424289 -10.34542059 50.40610666 -8.05078125 48.33984375 C-8.38078125 46.68984375 -8.71078125 45.03984375 -9.05078125 43.33984375 C-10.07816406 43.0975 -11.10554688 42.85515625 -12.1640625 42.60546875 C-37.18765453 36.60465092 -37.18765453 36.60465092 -43.05078125 29.33984375 C-45.7814889 23.841527 -45.80013748 18.35030514 -45.05078125 12.33984375 C-42.87656038 6.41897442 -38.60097654 2.22103164 -33.05078125 -0.66015625 C-23.58816954 -4.6297009 -9.23503076 -4.52887198 0 0 Z " fill="#EAF5FC" transform="translate(136.05078125,52.66015625)"/>
<path d="M0 0 C6.93 0 13.86 0 21 0 C21.78246094 3.16464844 22.56492187 6.32929687 23.37109375 9.58984375 C24.12814155 12.64140564 24.88639858 15.69266465 25.64477539 18.74389648 C26.17273603 20.8708608 26.69943144 22.99813958 27.22485352 25.12573242 C27.97863681 28.17709835 28.73690643 31.22731851 29.49609375 34.27734375 C29.73154404 35.23462875 29.96699432 36.19191376 30.20957947 37.1782074 C30.42973221 38.05904495 30.64988495 38.93988251 30.87670898 39.84741211 C31.06990219 40.62684677 31.2630954 41.40628143 31.46214294 42.20933533 C31.84745859 44.00539298 31.84745859 44.00539298 33 45 C36.63 30.15 40.26 15.3 44 0 C51.26 0 58.52 0 66 0 C59.16750841 22.72062823 52.15496619 45.37888066 45 68 C36.75 68 28.5 68 20 68 C17.3862643 59.72641429 14.77737142 51.45134434 12.17697144 43.17355728 C10.96930949 39.32991341 9.75953782 35.48696039 8.54492188 31.64550781 C7.37283236 27.93828231 6.2063149 24.22934592 5.04364014 20.51915741 C4.59908043 19.10395707 4.15251653 17.68938471 3.70391846 16.27545929 C3.07594068 14.29496521 2.45512581 12.31235822 1.8359375 10.32910156 C1.48063965 9.20103088 1.1253418 8.07296021 0.75927734 6.91070557 C0 4 0 4 0 0 Z " fill="#EBF6FC" transform="translate(21,51)"/>
<path d="M0 0 C1.32 0.33 2.64 0.66 4 1 C4.33 47.86 4.66 94.72 5 143 C7.64161476 144.32080738 9.63393626 144.13982021 12.59341431 144.15821838 C13.78255936 144.1680072 14.97170441 144.17779602 16.19688416 144.18788147 C18.16377953 144.19651466 18.16377953 144.19651466 20.17041016 144.20532227 C21.55985304 144.21489851 22.94929299 144.22490844 24.33872986 144.23532104 C28.11739783 144.26240367 31.89607834 144.28339501 35.67478991 144.30332303 C39.62130052 144.32516191 43.56777236 144.35256084 47.51425171 144.37937927 C54.9904746 144.42933458 62.46671899 144.47426286 69.94298398 144.51740164 C78.45317212 144.56674978 86.96332135 144.62167688 95.47347188 144.67708123 C112.98227864 144.79094484 130.4911215 144.89777432 148 145 C148.33 146.32 148.66 147.64 149 149 C130.29384012 149.0700516 111.58770683 149.12296928 92.88144302 149.15543652 C84.19598254 149.17091167 75.51060352 149.19201354 66.82519531 149.22631836 C59.2558295 149.25620091 51.68652268 149.27557029 44.11709952 149.28226548 C40.10836979 149.2861797 36.09980882 149.295392 32.09113312 149.31719017 C28.31877201 149.33753732 24.54664935 149.34383744 20.77423859 149.33932304 C19.38910629 149.34014904 18.0039661 149.34612541 16.61888123 149.35761642 C14.72858434 149.37253086 12.83815981 149.36716856 10.94781494 149.36076355 C9.8895966 149.36352893 8.83137825 149.36629431 7.74109268 149.36914349 C4.5964736 148.94565702 3.24612317 148.21183634 1 146 C-0.06260619 142.81218142 -0.12319009 140.55989022 -0.12025452 137.21040344 C-0.12162918 136.00305542 -0.12300385 134.7957074 -0.12442017 133.55177307 C-0.12088105 132.21200537 -0.11724624 130.87223791 -0.11352539 129.5324707 C-0.11324335 128.12317914 -0.11340158 126.71388743 -0.1139679 125.30459595 C-0.11425521 121.47637046 -0.10836905 117.6481762 -0.10139394 113.81995797 C-0.09514952 109.82009301 -0.09455574 105.82022736 -0.09336853 101.82035828 C-0.09025843 94.24497586 -0.08204936 86.66960785 -0.07201904 79.09423178 C-0.06084794 70.47038632 -0.05534494 61.84654017 -0.05032361 53.22268927 C-0.0398665 35.48178468 -0.02227325 17.7408935 0 0 Z " fill="#818893" transform="translate(5,14)"/>
<path d="M0 0 C2.0625 1.5625 2.0625 1.5625 3 4 C3.17821261 6.85140177 2.92914963 9.292848 2 12 C-0.93837168 14.85194898 -2.53597436 15 -6.625 15 C-10 14 -10 14 -12 11.875 C-13.30782688 8.11499772 -13.06090617 5.81926223 -12 2 C-8.81688665 -2.07438508 -4.54417813 -1.38635943 0 0 Z " fill="#EAB418" transform="translate(166,152)"/>
<path d="M0 0 C0.87527344 -0.02835938 1.75054687 -0.05671875 2.65234375 -0.0859375 C5.0625 0.375 5.0625 0.375 6.87890625 2.14453125 C8.52525795 5.24706201 8.28743514 7.15489111 7.6953125 10.53125 C7.0625 12.375 7.0625 12.375 4.9375 14.4375 C1.15393127 15.67127241 -1.12794674 15.50375652 -4.9375 14.375 C-6.9375 12.25 -6.9375 12.25 -7.9375 9.375 C-7.60623086 2.86004019 -6.75480292 0.09918947 0 0 Z " fill="#52CA93" transform="translate(8.9375,-0.375)"/>
<path d="M0 0 C1.32 0.33 2.64 0.66 4 1 C3.01 2.485 3.01 2.485 2 4 C1.92094936 6.33199388 1.91201231 8.66832622 2 11 C1.34 11 0.68 11 0 11 C0 7.37 0 3.74 0 0 Z " fill="#212D36" transform="translate(0,0)"/>
</svg>
