<?xml version="1.0" encoding="UTF-8"?>
<svg version="1.1" xmlns="http://www.w3.org/2000/svg" width="124" height="128">
<path d="M0 0 C25.08 0 50.16 0 76 0 C76 3.63 76 7.26 76 11 C81.28 11 86.56 11 92 11 C92.495 12.98 92.495 12.98 93 15 C94.32 15.33 95.64 15.66 97 16 C97 17.32 97 18.64 97 20 C97.99 20 98.98 20 100 20 C100 27.26 100 34.52 100 42 C99.01 42 98.02 42 97 42 C97 44.97 97 47.94 97 51 C95.68 51 94.36 51 93 51 C93 53.64 93 56.28 93 59 C91.68 59 90.36 59 89 59 C89 60.32 89 61.64 89 63 C87.35 63 85.7 63 84 63 C84 64.32 84 65.64 84 67 C82.68 67 81.36 67 80 67 C80 68.32 80 69.64 80 71 C78.68 71 77.36 71 76 71 C75.67 72.65 75.34 74.3 75 76 C72.39576408 76.02697137 69.79180756 76.04682489 67.1875 76.0625 C66.44951172 76.07087891 65.71152344 76.07925781 64.95117188 76.08789062 C61.70077932 76.10259828 59.10595105 76.03531702 56 75 C53.87183587 75.15688424 53.87183587 75.15688424 52 76 C51.505 77.485 51.505 77.485 51 79 C49.68 79 48.36 79 47 79 C47 81.31 47 83.62 47 86 C48.65 86 50.3 86 52 86 C52 87.65 52 89.3 52 91 C50.35 91.33 48.7 91.66 47 92 C47 94.97 47 97.94 47 101 C48.11375 100.979375 49.2275 100.95875 50.375 100.9375 C54 101 54 101 56 102 C56 104.64 56 107.28 56 110 C56.78246094 109.98839844 57.56492187 109.97679688 58.37109375 109.96484375 C59.88896484 109.95130859 59.88896484 109.95130859 61.4375 109.9375 C62.44683594 109.92589844 63.45617187 109.91429688 64.49609375 109.90234375 C67 110 67 110 68 111 C68 116.61 68 122.22 68 128 C48.2 128 28.4 128 8 128 C8 111 8 111 9 110 C10.85287502 109.92773498 12.70833878 109.9161878 14.5625 109.9375 C15.57441406 109.94652344 16.58632813 109.95554687 17.62890625 109.96484375 C18.41136719 109.97644531 19.19382813 109.98804687 20 110 C19.979375 108.700625 19.95875 107.40125 19.9375 106.0625 C19.91600546 104.70834367 19.92851801 103.35243917 20 102 C21 101 21 101 22.84765625 100.90234375 C24.8984375 100.93489583 26.94921875 100.96744792 29 101 C29 98.03 29 95.06 29 92 C27.35 91.67 25.7 91.34 24 91 C24.33 89.35 24.66 87.7 25 86 C26.32 86 27.64 86 29 86 C29 83.69 29 81.38 29 79 C27.35 79 25.7 79 24 79 C24 78.01 24 77.02 24 76 C22.34385343 75.61781233 20.67542976 75.28604898 19 75 C18.67 75.33 18.34 75.66 18 76 C15.34346557 76.10002455 12.71870728 76.13877463 10.0625 76.125 C9.32064453 76.12886719 8.57878906 76.13273437 7.81445312 76.13671875 C2.25327002 76.12663501 2.25327002 76.12663501 0 75 C0 73.68 0 72.36 0 71 C-1.32 71 -2.64 71 -4 71 C-4 69.68 -4 68.36 -4 67 C-5.32 67 -6.64 67 -8 67 C-8 65.68 -8 64.36 -8 63 C-9.65 62.67 -11.3 62.34 -13 62 C-13 61.01 -13 60.02 -13 59 C-14.32 58.67 -15.64 58.34 -17 58 C-17 55.69 -17 53.38 -17 51 C-18.32 51 -19.64 51 -21 51 C-21 48.03 -21 45.06 -21 42 C-21.99 42 -22.98 42 -24 42 C-24 34.74 -24 27.48 -24 20 C-23.01 20 -22.02 20 -21 20 C-20.67 18.35 -20.34 16.7 -20 15 C-19.01 15 -18.02 15 -17 15 C-16.67 13.68 -16.34 12.36 -16 11 C-10.72 11 -5.44 11 0 11 C0 7.37 0 3.74 0 0 Z M-10 27 C-10 29.97 -10 32.94 -10 36 C-8.68 36 -7.36 36 -6 36 C-6 38.64 -6 41.28 -6 44 C-4.68 44 -3.36 44 -2 44 C-2 46.64 -2 49.28 -2 52 C-1.360625 52.268125 -0.72125 52.53625 -0.0625 52.8125 C2 54 2 54 3 57 C3.99 57 4.98 57 6 57 C6 58.32 6 59.64 6 61 C7.98 61 9.96 61 12 61 C12 60.34 12 59.68 12 59 C11.01 58.67 10.02 58.34 9 58 C8.67 55.69 8.34 53.38 8 51 C7.01 50.67 6.02 50.34 5 50 C4.67 44.72 4.34 39.44 4 34 C2.68 34 1.36 34 0 34 C0 31.69 0 29.38 0 27 C-3.3 27 -6.6 27 -10 27 Z M76 27 C76 29.31 76 31.62 76 34 C74.68 34 73.36 34 72 34 C72 39.61 72 45.22 72 51 C70.68 51 69.36 51 68 51 C67.67 53.31 67.34 55.62 67 58 C66.01 58.33 65.02 58.66 64 59 C64 59.66 64 60.32 64 61 C65.98 61 67.96 61 70 61 C70 59.68 70 58.36 70 57 C70.99 57 71.98 57 73 57 C73.268125 56.360625 73.53625 55.72125 73.8125 55.0625 C75 53 75 53 78 52 C78 49.36 78 46.72 78 44 C79.32 44 80.64 44 82 44 C82 41.36 82 38.72 82 36 C83.32 36 84.64 36 86 36 C86 33.03 86 30.06 86 27 C82.7 27 79.4 27 76 27 Z " fill="#0C0A03" transform="translate(24,0)"/>
<path d="M0 0 C21.78 0 43.56 0 66 0 C66 6.6 66 13.2 66 20 C64.68 20 63.36 20 62 20 C62 25.28 62 30.56 62 36 C60.35 36 58.7 36 57 36 C57 38.64 57 41.28 57 44 C55.68 44 54.36 44 53 44 C53 46.97 53 49.94 53 53 C51.68 53 50.36 53 49 53 C49 54.32 49 55.64 49 57 C47.68 57 46.36 57 45 57 C45 58.32 45 59.64 45 61 C43.68 61 42.36 61 41 61 C41 62.32 41 63.64 41 65 C39.68 65 38.36 65 37 65 C37 66.32 37 67.64 37 69 C34.36 69 31.72 69 29 69 C29 67.68 29 66.36 29 65 C27.68 65 26.36 65 25 65 C25 63.68 25 62.36 25 61 C23.68 61 22.36 61 21 61 C21 59.68 21 58.36 21 57 C19.68 57 18.36 57 17 57 C17 58.32 17 59.64 17 61 C17.99 61 18.98 61 20 61 C20 62.65 20 64.3 20 66 C19.67 65.01 19.34 64.02 19 63 C17.34385343 62.61781233 15.67542976 62.28604898 14 62 C13.67 62.33 13.34 62.66 13 63 C10.30345146 63.07319621 7.63308542 63.09242537 4.9375 63.0625 C3.79958008 63.05573242 3.79958008 63.05573242 2.63867188 63.04882812 C0.75908129 63.0370068 -1.12046899 63.01907078 -3 63 C-3.33 62.34 -3.66 61.68 -4 61 C1.61 61 7.22 61 13 61 C13 59.68 13 58.36 13 57 C13.99 57 14.98 57 16 57 C16 55.68 16 54.36 16 53 C15.01 53 14.02 53 13 53 C13 50.03 13 47.06 13 44 C11.68 44 10.36 44 9 44 C9 41.69 9 39.38 9 37 C7.35 37 5.7 37 4 37 C4 31.39 4 25.78 4 20 C2.68 20 1.36 20 0 20 C0 13.4 0 6.8 0 0 Z " fill="#FACB06" transform="translate(29,13)"/>
<path d="M0 0 C1.32 0 2.64 0 4 0 C4 5.61 4 11.22 4 17 C3.01 17.33 2.02 17.66 1 18 C1 20.31 1 22.62 1 25 C-0.32 25.33 -1.64 25.66 -3 26 C-3 26.66 -3 27.32 -3 28 C-1.02 28 0.96 28 3 28 C3 26.68 3 25.36 3 24 C3.99 24 4.98 24 6 24 C6.33 22.68 6.66 21.36 7 20 C8.32 19.67 9.64 19.34 11 19 C11 16.36 11 13.72 11 11 C12.32 11 13.64 11 15 11 C15 8.36 15 5.72 15 3 C16.65 3.33 18.3 3.66 20 4 C20 6.64 20 9.28 20 12 C18.68 12 17.36 12 16 12 C16 14.64 16 17.28 16 20 C14.68 20 13.36 20 12 20 C12 21.65 12 23.3 12 25 C10.68 25 9.36 25 8 25 C8 26.32 8 27.64 8 29 C6.68 29 5.36 29 4 29 C4 30.32 4 31.64 4 33 C0.04 33 -3.92 33 -8 33 C-8 34.32 -8 35.64 -8 37 C-2.72 37 2.56 37 8 37 C8 35.68 8 34.36 8 33 C9.32 33 10.64 33 12 33 C12 31.68 12 30.36 12 29 C13.32 29 14.64 29 16 29 C16 27.68 16 26.36 16 25 C17.65 25 19.3 25 21 25 C21 22.36 21 19.72 21 17 C22.32 17 23.64 17 25 17 C25 19.97 25 22.94 25 26 C24.01 26 23.02 26 22 26 C22 27.32 22 28.64 22 30 C20.35 30 18.7 30 17 30 C17 31.32 17 32.64 17 34 C15.68 34 14.36 34 13 34 C13 35.32 13 36.64 13 38 C11.68 38 10.36 38 9 38 C8.67 39.65 8.34 41.3 8 43 C5.39576408 43.02697137 2.79180756 43.04682489 0.1875 43.0625 C-0.55048828 43.07087891 -1.28847656 43.07925781 -2.04882812 43.08789062 C-5.29922068 43.10259828 -7.89404895 43.03531702 -11 42 C-13.12816413 42.15688424 -13.12816413 42.15688424 -15 43 C-15.33 43.99 -15.66 44.98 -16 46 C-17.32 46 -18.64 46 -20 46 C-20 48.31 -20 50.62 -20 53 C-18.35 53 -16.7 53 -15 53 C-15 54.65 -15 56.3 -15 58 C-17.475 58.495 -17.475 58.495 -20 59 C-20 61.97 -20 64.94 -20 68 C-18.88625 67.979375 -17.7725 67.95875 -16.625 67.9375 C-13 68 -13 68 -11 69 C-11 71.64 -11 74.28 -11 77 C-10.21753906 76.98839844 -9.43507812 76.97679688 -8.62890625 76.96484375 C-7.11103516 76.95130859 -7.11103516 76.95130859 -5.5625 76.9375 C-4.55316406 76.92589844 -3.54382813 76.91429688 -2.50390625 76.90234375 C0 77 0 77 1 78 C1 83.61 1 89.22 1 95 C-18.8 95 -38.6 95 -59 95 C-59 78 -59 78 -58 77 C-56.14712498 76.92773498 -54.29166122 76.9161878 -52.4375 76.9375 C-50.91962891 76.95103516 -50.91962891 76.95103516 -49.37109375 76.96484375 C-48.58863281 76.97644531 -47.80617188 76.98804687 -47 77 C-47.020625 75.700625 -47.04125 74.40125 -47.0625 73.0625 C-47.08399454 71.70834367 -47.07148199 70.35243917 -47 69 C-46 68 -46 68 -44.15234375 67.90234375 C-42.1015625 67.93489583 -40.05078125 67.96744792 -38 68 C-38 65.03 -38 62.06 -38 59 C-39.65 58.67 -41.3 58.34 -43 58 C-42.67 56.35 -42.34 54.7 -42 53 C-40.68 53 -39.36 53 -38 53 C-38 50.69 -38 48.38 -38 46 C-39.32 46 -40.64 46 -42 46 C-42 44.35 -42 42.7 -42 41 C-42.99 41 -43.98 41 -45 41 C-45 39.68 -45 38.36 -45 37 C-43.68 37 -42.36 37 -41 37 C-41 38.32 -41 39.64 -41 41 C-39.68 41 -38.36 41 -37 41 C-37 42.32 -37 43.64 -37 45 C-35.68 45 -34.36 45 -33 45 C-33 46.32 -33 47.64 -33 49 C-30.36 49 -27.72 49 -25 49 C-25 47.68 -25 46.36 -25 45 C-23.68 45 -22.36 45 -21 45 C-21 43.68 -21 42.36 -21 41 C-19.68 41 -18.36 41 -17 41 C-17 39.68 -17 38.36 -17 37 C-15.68 37 -14.36 37 -13 37 C-13 35.68 -13 34.36 -13 33 C-11.68 33 -10.36 33 -9 33 C-9 30.03 -9 27.06 -9 24 C-7.68 24 -6.36 24 -5 24 C-5 21.36 -5 18.72 -5 16 C-3.35 16 -1.7 16 0 16 C0 10.72 0 5.44 0 0 Z " fill="#111110" transform="translate(91,33)"/>
<path d="M0 0 C0.33 1.32 0.66 2.64 1 4 C6.61 4 12.22 4 18 4 C18 4.33 18 4.66 18 5 C12.72 5 7.44 5 2 5 C2 6.32 2 7.64 2 9 C0.68 9 -0.64 9 -2 9 C-2 15.6 -2 22.2 -2 29 C-0.68 29 0.64 29 2 29 C2 31.64 2 34.28 2 37 C3.32 37 4.64 37 6 37 C6 39.97 6 42.94 6 46 C7.32 46 8.64 46 10 46 C10 47.32 10 48.64 10 50 C11.32 50 12.64 50 14 50 C14 51.32 14 52.64 14 54 C15.32 54 16.64 54 18 54 C18 55.32 18 56.64 18 58 C23.28 58 28.56 58 34 58 C34 56.68 34 55.36 34 54 C30.04 54 26.08 54 22 54 C22 52.68 22 51.36 22 50 C20.68 50 19.36 50 18 50 C18 48.68 18 47.36 18 46 C16.35 46 14.7 46 13 46 C13 44.68 13 43.36 13 42 C11.68 42 10.36 42 9 42 C9 39.36 9 36.72 9 34 C8.01 34 7.02 34 6 34 C6 31.03 6 28.06 6 25 C7.65 24.67 9.3 24.34 11 24 C11 26.64 11 29.28 11 32 C12.32 32 13.64 32 15 32 C15 34.64 15 37.28 15 40 C16.32 40.33 17.64 40.66 19 41 C19.33 42.32 19.66 43.64 20 45 C20.99 45 21.98 45 23 45 C23 46.32 23 47.64 23 49 C24.98 49 26.96 49 29 49 C29 48.34 29 47.68 29 47 C27.68 46.67 26.36 46.34 25 46 C25 43.69 25 41.38 25 39 C24.01 39 23.02 39 22 39 C22 33.06 22 27.12 22 21 C23.32 21 24.64 21 26 21 C26 26.61 26 32.22 26 38 C27.65 38 29.3 38 31 38 C31 40.31 31 42.62 31 45 C32.32 45 33.64 45 35 45 C35 47.97 35 50.94 35 54 C35.99 54 36.98 54 38 54 C38 55.32 38 56.64 38 58 C37.01 58 36.02 58 35 58 C35 59.32 35 60.64 35 62 C29.06 62.33 23.12 62.66 17 63 C17 61.68 17 60.36 17 59 C15.68 59 14.36 59 13 59 C13 57.68 13 56.36 13 55 C11.68 55 10.36 55 9 55 C9 53.68 9 52.36 9 51 C7.35 50.67 5.7 50.34 4 50 C4 49.01 4 48.02 4 47 C2.68 46.67 1.36 46.34 0 46 C0 43.69 0 41.38 0 39 C-1.32 39 -2.64 39 -4 39 C-4 36.03 -4 33.06 -4 30 C-4.99 30 -5.98 30 -7 30 C-7 22.74 -7 15.48 -7 8 C-6.01 8 -5.02 8 -4 8 C-3.67 6.35 -3.34 4.7 -3 3 C-2.01 3 -1.02 3 0 3 C0 2.01 0 1.02 0 0 Z " fill="#454031" transform="translate(7,12)"/>
<path d="M0 0 C1.32 0 2.64 0 4 0 C4 5.61 4 11.22 4 17 C3.01 17.33 2.02 17.66 1 18 C1 20.31 1 22.62 1 25 C-0.32 25.33 -1.64 25.66 -3 26 C-3 26.66 -3 27.32 -3 28 C-1.02 28 0.96 28 3 28 C3 26.68 3 25.36 3 24 C3.99 24 4.98 24 6 24 C6.33 22.68 6.66 21.36 7 20 C8.32 19.67 9.64 19.34 11 19 C11 16.36 11 13.72 11 11 C12.32 11 13.64 11 15 11 C15 8.36 15 5.72 15 3 C17.475 3.495 17.475 3.495 20 4 C20 6.64 20 9.28 20 12 C18.68 12 17.36 12 16 12 C16 14.64 16 17.28 16 20 C14.68 20 13.36 20 12 20 C12 21.65 12 23.3 12 25 C10.68 25 9.36 25 8 25 C8 26.32 8 27.64 8 29 C6.68 29 5.36 29 4 29 C4 30.32 4 31.64 4 33 C0.04 33 -3.92 33 -8 33 C-8 34.32 -8 35.64 -8 37 C-2.72 37 2.56 37 8 37 C8 35.68 8 34.36 8 33 C9.32 33 10.64 33 12 33 C12 31.68 12 30.36 12 29 C13.32 29 14.64 29 16 29 C16 27.68 16 26.36 16 25 C17.65 25 19.3 25 21 25 C21 22.36 21 19.72 21 17 C22.32 17 23.64 17 25 17 C25 19.97 25 22.94 25 26 C24.01 26 23.02 26 22 26 C22 27.32 22 28.64 22 30 C20.35 30 18.7 30 17 30 C17 31.32 17 32.64 17 34 C15.68 34 14.36 34 13 34 C13 35.32 13 36.64 13 38 C11.68 38 10.36 38 9 38 C8.67 39.32 8.34 40.64 8 42 C2.39 41.67 -3.22 41.34 -9 41 C-9 39.68 -9 38.36 -9 37 C-9.99 37 -10.98 37 -12 37 C-12 35.68 -12 34.36 -12 33 C-11.01 33 -10.02 33 -9 33 C-9 30.03 -9 27.06 -9 24 C-7.68 24 -6.36 24 -5 24 C-5 21.36 -5 18.72 -5 16 C-3.35 16 -1.7 16 0 16 C0 10.72 0 5.44 0 0 Z " fill="#403C2C" transform="translate(91,33)"/>
<path d="M0 0 C5.28 0 10.56 0 16 0 C16 1.32 16 2.64 16 4 C17.32 4 18.64 4 20 4 C20 10.6 20 17.2 20 24 C18.68 24 17.36 24 16 24 C16 26.64 16 29.28 16 32 C14.68 32 13.36 32 12 32 C12 34.97 12 37.94 12 41 C10.68 41 9.36 41 8 41 C8 42.32 8 43.64 8 45 C6.68 45 5.36 45 4 45 C4 46.32 4 47.64 4 49 C2.68 49 1.36 49 0 49 C0 50.32 0 51.64 0 53 C-5.28 53 -10.56 53 -16 53 C-16 51.68 -16 50.36 -16 49 C-12.04 49 -8.08 49 -4 49 C-4 47.68 -4 46.36 -4 45 C-2.68 45 -1.36 45 0 45 C0 43.68 0 42.36 0 41 C1.32 41 2.64 41 4 41 C4 39.35 4 37.7 4 36 C5.32 36 6.64 36 8 36 C8 33.36 8 30.72 8 28 C9.32 28 10.64 28 12 28 C11.7525 26.329375 11.7525 26.329375 11.5 24.625 C10.87748746 19.73257748 10.93156455 14.92735214 11 10 C7.7 10 4.4 10 1 10 C1 12.31 1 14.62 1 17 C-0.32 17 -1.64 17 -3 17 C-3 22.61 -3 28.22 -3 34 C-4.65 34 -6.3 34 -8 34 C-6.02 33.505 -6.02 33.505 -4 33 C-4 27.39 -4 21.78 -4 16 C-2.68 16 -1.36 16 0 16 C0 13.36 0 10.72 0 8 C3.96 8 7.92 8 12 8 C12 6.68 12 5.36 12 4 C8.04 4 4.08 4 0 4 C0 2.68 0 1.36 0 0 Z " fill="#DAB618" transform="translate(99,17)"/>
<path d="M0 0 C5.28 0 10.56 0 16 0 C16 1.32 16 2.64 16 4 C12.04 4 8.08 4 4 4 C4 5.32 4 6.64 4 8 C7.96 8 11.92 8 16 8 C16 10.64 16 13.28 16 16 C17.32 16 18.64 16 20 16 C20 21.61 20 27.22 20 33 C19.67 33 19.34 33 19 33 C19 27.72 19 22.44 19 17 C17.68 17 16.36 17 15 17 C15 14.69 15 12.38 15 10 C11.7 10 8.4 10 5 10 C5.020625 11.464375 5.04125 12.92875 5.0625 14.4375 C5.06953385 19.36823058 4.63066267 24.11236433 4 29 C4.99 29 5.98 29 7 29 C7 31.64 7 34.28 7 37 C8.32 37 9.64 37 11 37 C11 38.32 11 39.64 11 41 C12.65 41 14.3 41 16 41 C16 42.32 16 43.64 16 45 C17.32 45 18.64 45 20 45 C20 46.32 20 47.64 20 49 C23.96 49 27.92 49 32 49 C32 50.32 32 51.64 32 53 C26.72 53 21.44 53 16 53 C16 51.68 16 50.36 16 49 C14.68 49 13.36 49 12 49 C12 47.68 12 46.36 12 45 C10.68 45 9.36 45 8 45 C8 43.68 8 42.36 8 41 C6.68 41 5.36 41 4 41 C4 38.03 4 35.06 4 32 C2.68 32 1.36 32 0 32 C0 29.36 0 26.72 0 24 C-1.32 24 -2.64 24 -4 24 C-4 17.4 -4 10.8 -4 4 C-2.68 4 -1.36 4 0 4 C0 2.68 0 1.36 0 0 Z " fill="#DFB918" transform="translate(9,17)"/>
<path d="M0 0 C0.495 1.98 0.495 1.98 1 4 C1.99 4 2.98 4 4 4 C4 5.32 4 6.64 4 8 C9.61 8 15.22 8 21 8 C21 8.66 21 9.32 21 10 C18.39576408 10.02697137 15.79180756 10.04682489 13.1875 10.0625 C12.44951172 10.07087891 11.71152344 10.07925781 10.95117188 10.08789062 C7.70077932 10.10259828 5.10595105 10.03531702 2 9 C-0.12816413 9.15688424 -0.12816413 9.15688424 -2 10 C-2.33 10.99 -2.66 11.98 -3 13 C-4.32 13 -5.64 13 -7 13 C-7 15.31 -7 17.62 -7 20 C-5.35 20 -3.7 20 -2 20 C-2 21.65 -2 23.3 -2 25 C-3.65 25.33 -5.3 25.66 -7 26 C-7 28.97 -7 31.94 -7 35 C-5.329375 34.9690625 -5.329375 34.9690625 -3.625 34.9375 C0 35 0 35 2 36 C2 38.64 2 41.28 2 44 C1.67 44 1.34 44 1 44 C0.505 41.03 0.505 41.03 0 38 C-2.64 37.67 -5.28 37.34 -8 37 C-8 33.04 -8 29.08 -8 25 C-13.28 25 -18.56 25 -24 25 C-24 28.96 -24 32.92 -24 37 C-26.64 37.33 -29.28 37.66 -32 38 C-32.33 39.98 -32.66 41.96 -33 44 C-33.33 44 -33.66 44 -34 44 C-34.09765625 37.84765625 -34.09765625 37.84765625 -34 36 C-33 35 -33 35 -31.15234375 34.90234375 C-29.1015625 34.93489583 -27.05078125 34.96744792 -25 35 C-25 32.03 -25 29.06 -25 26 C-26.65 25.67 -28.3 25.34 -30 25 C-29.67 23.35 -29.34 21.7 -29 20 C-27.68 20 -26.36 20 -25 20 C-25 17.69 -25 15.38 -25 13 C-26.32 13 -27.64 13 -29 13 C-29 11.35 -29 9.7 -29 8 C-29.99 8 -30.98 8 -32 8 C-32 6.68 -32 5.36 -32 4 C-30.68 4 -29.36 4 -28 4 C-28 5.32 -28 6.64 -28 8 C-26.68 8 -25.36 8 -24 8 C-24 9.32 -24 10.64 -24 12 C-22.68 12 -21.36 12 -20 12 C-20 13.32 -20 14.64 -20 16 C-17.36 16 -14.72 16 -12 16 C-12 14.68 -12 13.36 -12 12 C-10.68 12 -9.36 12 -8 12 C-8 10.68 -8 9.36 -8 8 C-6.68 8 -5.36 8 -4 8 C-4 6.68 -4 5.36 -4 4 C-2.68 4 -1.36 4 0 4 C0 2.68 0 1.36 0 0 Z " fill="#53451F" transform="translate(78,66)"/>
<path d="M0 0 C25.08 0 50.16 0 76 0 C76 3.63 76 7.26 76 11 C81.28 11 86.56 11 92 11 C92.495 12.98 92.495 12.98 93 15 C94.32 15.33 95.64 15.66 97 16 C97 17.32 97 18.64 97 20 C97.99 20 98.98 20 100 20 C100 27.26 100 34.52 100 42 C99.01 42 98.02 42 97 42 C97 44.97 97 47.94 97 51 C95.68 51 94.36 51 93 51 C93 53.64 93 56.28 93 59 C92.67 59 92.34 59 92 59 C92 56.03 92 53.06 92 50 C90.68 50 89.36 50 88 50 C88 52.64 88 55.28 88 58 C87.67 58 87.34 58 87 58 C87 55.03 87 52.06 87 49 C88.32 49 89.64 49 91 49 C91 46.36 91 43.72 91 41 C92.32 41 93.64 41 95 41 C95 34.4 95 27.8 95 21 C93.68 21 92.36 21 91 21 C91 19.68 91 18.36 91 17 C85.72 17 80.44 17 75 17 C75 16.67 75 16.34 75 16 C80.28 16 85.56 16 91 16 C91 14.68 91 13.36 91 12 C85.72 12 80.44 12 75 12 C75 8.37 75 4.74 75 1 C50.58 1 26.16 1 1 1 C1 4.63 1 8.26 1 12 C-4.61 12 -10.22 12 -16 12 C-16 11.67 -16 11.34 -16 11 C-10.72 11 -5.44 11 0 11 C0 7.37 0 3.74 0 0 Z " fill="#5E5946" transform="translate(24,0)"/>
<path d="M0 0 C1.32 0 2.64 0 4 0 C4 5.61 4 11.22 4 17 C5.32 17 6.64 17 8 17 C8 19.64 8 22.28 8 25 C9.32 25 10.64 25 12 25 C12 27.64 12 30.28 12 33 C8.04 33 4.08 33 0 33 C0 31.68 0 30.36 0 29 C-1.32 29 -2.64 29 -4 29 C-4 27.68 -4 26.36 -4 25 C-5.65 25 -7.3 25 -9 25 C-9 23.68 -9 22.36 -9 21 C-10.32 21 -11.64 21 -13 21 C-13 18.36 -13 15.72 -13 13 C-13.99 13 -14.98 13 -16 13 C-16 10.03 -16 7.06 -16 4 C-14.35 3.67 -12.7 3.34 -11 3 C-11 5.64 -11 8.28 -11 11 C-9.68 11 -8.36 11 -7 11 C-7 13.64 -7 16.28 -7 19 C-5.68 19.33 -4.36 19.66 -3 20 C-2.67 21.32 -2.34 22.64 -2 24 C-1.01 24 -0.02 24 1 24 C1 25.32 1 26.64 1 28 C2.98 28 4.96 28 7 28 C7 27.34 7 26.68 7 26 C5.68 25.67 4.36 25.34 3 25 C3 22.69 3 20.38 3 18 C2.01 18 1.02 18 0 18 C0 12.06 0 6.12 0 0 Z " fill="#2E2C24" transform="translate(29,33)"/>
<path d="M0 0 C15.84 0 31.68 0 48 0 C48 2.31 48 4.62 48 7 C32.16 7 16.32 7 0 7 C0 4.69 0 2.38 0 0 Z " fill="#434343" transform="translate(38,116)"/>
<path d="M0 0 C21.78 0 43.56 0 66 0 C66 1.65 66 3.3 66 5 C44.22 5 22.44 5 0 5 C0 3.35 0 1.7 0 0 Z " fill="#CBA508" transform="translate(29,4)"/>
<path d="M0 0 C1.32 0 2.64 0 4 0 C4 5.28 4 10.56 4 16 C2.35 16 0.7 16 -1 16 C-1 18.64 -1 21.28 -1 24 C-2.32 24 -3.64 24 -5 24 C-5 26.97 -5 29.94 -5 33 C-6.32 33 -7.64 33 -9 33 C-9 34.32 -9 35.64 -9 37 C-10.32 37 -11.64 37 -13 37 C-13 38.32 -13 39.64 -13 41 C-14.32 41 -15.64 41 -17 41 C-17 42.32 -17 43.64 -17 45 C-18.32 45 -19.64 45 -21 45 C-21 46.32 -21 47.64 -21 49 C-23.64 49 -26.28 49 -29 49 C-29 47.68 -29 46.36 -29 45 C-27.68 45 -26.36 45 -25 45 C-25 43.68 -25 42.36 -25 41 C-23.68 41 -22.36 41 -21 41 C-21 39.68 -21 38.36 -21 37 C-19.68 37 -18.36 37 -17 37 C-17 35.68 -17 34.36 -17 33 C-15.68 33 -14.36 33 -13 33 C-13 31.68 -13 30.36 -13 29 C-11.35 29 -9.7 29 -8 29 C-8 26.36 -8 23.72 -8 21 C-7.01 20.67 -6.02 20.34 -5 20 C-4.67 17.69 -4.34 15.38 -4 13 C-2.68 13 -1.36 13 0 13 C0 8.71 0 4.42 0 0 Z " fill="#F6B403" transform="translate(87,33)"/>
<path d="M0 0 C2.475 0.495 2.475 0.495 5 1 C5 3.64 5 6.28 5 9 C3.68 9 2.36 9 1 9 C1 11.64 1 14.28 1 17 C-0.32 17 -1.64 17 -3 17 C-3 18.65 -3 20.3 -3 22 C-4.32 22 -5.64 22 -7 22 C-7 23.32 -7 24.64 -7 26 C-10.96 26 -14.92 26 -19 26 C-19 25.67 -19 25.34 -19 25 C-16.69 25 -14.38 25 -12 25 C-12 23.68 -12 22.36 -12 21 C-11.01 21 -10.02 21 -9 21 C-8.67 19.68 -8.34 18.36 -8 17 C-6.68 16.67 -5.36 16.34 -4 16 C-4 13.36 -4 10.72 -4 8 C-2.68 8 -1.36 8 0 8 C0 5.36 0 2.72 0 0 Z " fill="#454440" transform="translate(106,36)"/>
<path d="M0 0 C1.32 0 2.64 0 4 0 C4 1.32 4 2.64 4 4 C5.32 4 6.64 4 8 4 C8 5.32 8 6.64 8 8 C9.32 8 10.64 8 12 8 C12 9.32 12 10.64 12 12 C14.64 12 17.28 12 20 12 C20 11.01 20 10.02 20 9 C21.32 9 22.64 9 24 9 C24 11.31 24 13.62 24 16 C18.39 16 12.78 16 7 16 C7 13.69 7 11.38 7 9 C5.68 9 4.36 9 3 9 C3 7.35 3 5.7 3 4 C2.01 4 1.02 4 0 4 C0 2.68 0 1.36 0 0 Z " fill="#110C02" transform="translate(46,70)"/>
<path d="M0 0 C1.32 0 2.64 0 4 0 C4 2.64 4 5.28 4 8 C5.32 8 6.64 8 8 8 C8 10.64 8 13.28 8 16 C9.32 16.33 10.64 16.66 12 17 C12.5625 18.9375 12.5625 18.9375 13 21 C12 22 12 22 8.9375 22.0625 C7.968125 22.041875 6.99875 22.02125 6 22 C6 20.68 6 19.36 6 18 C4.68 18 3.36 18 2 18 C2 15.36 2 12.72 2 10 C1.01 10 0.02 10 -1 10 C-1.02689216 8.52093108 -1.04634621 7.04172517 -1.0625 5.5625 C-1.07410156 4.73878906 -1.08570313 3.91507813 -1.09765625 3.06640625 C-1 1 -1 1 0 0 Z " fill="#675F3B" transform="translate(14,36)"/>
<path d="M0 0 C1.65 0.33 3.3 0.66 5 1 C5 3.31 5 5.62 5 8 C3.68 8.33 2.36 8.66 1 9 C1 9.66 1 10.32 1 11 C3.31 11.33 5.62 11.66 8 12 C8 13.32 8 14.64 8 16 C4.04 16 0.08 16 -4 16 C-4 13.36 -4 10.72 -4 8 C-2.68 8 -1.36 8 0 8 C0 5.36 0 2.72 0 0 Z " fill="#242016" transform="translate(87,50)"/>
<path d="M0 0 C0.99 0 1.98 0 3 0 C3 3.96 3 7.92 3 12 C4.65 12 6.3 12 8 12 C8 16.29 8 20.58 8 25 C6.68 25 5.36 25 4 25 C4 22.03 4 19.06 4 16 C2.68 16 1.36 16 0 16 C0 10.72 0 5.44 0 0 Z " fill="#FDF9E4" transform="translate(38,17)"/>
<path d="M0 0 C7.92 0 15.84 0 24 0 C24 1.32 24 2.64 24 4 C16.08 4 8.16 4 0 4 C0 2.68 0 1.36 0 0 Z " fill="#69686F" transform="translate(50,107)"/>
<path d="M0 0 C0.33 1.32 0.66 2.64 1 4 C6.61 4 12.22 4 18 4 C18 4.33 18 4.66 18 5 C12.72 5 7.44 5 2 5 C2 6.32 2 7.64 2 9 C0.68 9 -0.64 9 -2 9 C-2 15.6 -2 22.2 -2 29 C-0.68 29 0.64 29 2 29 C2 31.64 2 34.28 2 37 C1.67 37 1.34 37 1 37 C1 34.69 1 32.38 1 30 C-0.32 30 -1.64 30 -3 30 C-3 23.07 -3 16.14 -3 9 C-4.32 8.67 -5.64 8.34 -7 8 C-6.01 8 -5.02 8 -4 8 C-3.67 6.35 -3.34 4.7 -3 3 C-2.01 3 -1.02 3 0 3 C0 2.01 0 1.02 0 0 Z " fill="#625209" transform="translate(7,12)"/>
<path d="M0 0 C0.33 1.32 0.66 2.64 1 4 C1.99 4 2.98 4 4 4 C4 5.32 4 6.64 4 8 C9.61 8 15.22 8 21 8 C21 8.66 21 9.32 21 10 C18.39576408 10.02697137 15.79180756 10.04682489 13.1875 10.0625 C12.44951172 10.07087891 11.71152344 10.07925781 10.95117188 10.08789062 C7.70077932 10.10259828 5.10595105 10.03531702 2 9 C-0.1182079 9.23769206 -0.1182079 9.23769206 -2 10 C-2.33 10.66 -2.66 11.32 -3 12 C-3 9.69 -3 7.38 -3 5 C-2.01 5 -1.02 5 0 5 C0 3.35 0 1.7 0 0 Z " fill="#8A8782" transform="translate(78,66)"/>
<path d="M0 0 C1.32 0 2.64 0 4 0 C4 5.61 4 11.22 4 17 C2.68 17 1.36 17 0 17 C0 11.39 0 5.78 0 0 Z " fill="#0C0906" transform="translate(91,33)"/>
<path d="M0 0 C2.64 0 5.28 0 8 0 C8 2.64 8 5.28 8 8 C5.36 8 2.72 8 0 8 C0 5.36 0 2.72 0 0 Z " fill="#ECB104" transform="translate(58,95)"/>
<path d="M0 0 C0.99 0 1.98 0 3 0 C3 6.6 3 13.2 3 20 C2.01 20 1.02 20 0 20 C0 13.4 0 6.8 0 0 Z " fill="#050401" transform="translate(120,21)"/>
<path d="M0 0 C0.99 0 1.98 0 3 0 C3 6.6 3 13.2 3 20 C2.01 20 1.02 20 0 20 C0 13.4 0 6.8 0 0 Z " fill="#050401" transform="translate(1,21)"/>
<path d="M0 0 C0.99 0 1.98 0 3 0 C3 6.27 3 12.54 3 19 C2.01 19 1.02 19 0 19 C0 12.73 0 6.46 0 0 Z " fill="#FEB901" transform="translate(91,14)"/>
<path d="M0 0 C1.32 0 2.64 0 4 0 C4 2.97 4 5.94 4 9 C2.68 9 1.36 9 0 9 C0 9.99 0 10.98 0 12 C-1.65 12 -3.3 12 -5 12 C-5 10.68 -5 9.36 -5 8 C-3.35 8 -1.7 8 0 8 C0 5.36 0 2.72 0 0 Z " fill="#211E13" transform="translate(112,50)"/>
<path d="M0 0 C0.66 0 1.32 0 2 0 C2 1.65 2 3.3 2 5 C0.35 5.33 -1.3 5.66 -3 6 C-3 8.97 -3 11.94 -3 15 C-1.329375 14.9690625 -1.329375 14.9690625 0.375 14.9375 C4 15 4 15 6 16 C6 18.64 6 21.28 6 24 C5.67 24 5.34 24 5 24 C4.67 22.02 4.34 20.04 4 18 C1.36 17.67 -1.28 17.34 -4 17 C-4 13.04 -4 9.08 -4 5 C-2.68 4.67 -1.36 4.34 0 4 C0 2.68 0 1.36 0 0 Z " fill="#747474" transform="translate(74,86)"/>
<path d="M0 0 C1.32 0 2.64 0 4 0 C4 1.32 4 2.64 4 4 C5.32 4 6.64 4 8 4 C8 5.32 8 6.64 8 8 C9.32 8.33 10.64 8.66 12 9 C10.68 9 9.36 9 8 9 C8 11.31 8 13.62 8 16 C7.67 16 7.34 16 7 16 C7 13.69 7 11.38 7 9 C5.68 9 4.36 9 3 9 C3 7.35 3 5.7 3 4 C2.01 4 1.02 4 0 4 C0 2.68 0 1.36 0 0 Z " fill="#342E13" transform="translate(46,70)"/>
<path d="M0 0 C5.61 0 11.22 0 17 0 C17 0.99 17 1.98 17 3 C11.39 3 5.78 3 0 3 C0 2.01 0 1.02 0 0 Z " fill="#070707" transform="translate(82,71)"/>
<path d="M0 0 C5.61 0 11.22 0 17 0 C17 0.99 17 1.98 17 3 C11.39 3 5.78 3 0 3 C0 2.01 0 1.02 0 0 Z " fill="#070707" transform="translate(25,71)"/>
<path d="M0 0 C5.28 0 10.56 0 16 0 C16 0.99 16 1.98 16 3 C10.72 3 5.44 3 0 3 C0 2.01 0 1.02 0 0 Z " fill="#F4B702" transform="translate(54,87)"/>
<path d="M0 0 C1.32 0 2.64 0 4 0 C4 3.96 4 7.92 4 12 C2.68 12 1.36 12 0 12 C0 8.04 0 4.08 0 0 Z " fill="#090804" transform="translate(111,25)"/>
<path d="M0 0 C1.32 0 2.64 0 4 0 C4 3.96 4 7.92 4 12 C2.68 12 1.36 12 0 12 C0 8.04 0 4.08 0 0 Z " fill="#090803" transform="translate(9,25)"/>
<path d="M0 0 C0.99 0 1.98 0 3 0 C3 4.95 3 9.9 3 15 C2.01 15 1.02 15 0 15 C0 10.05 0 5.1 0 0 Z " fill="#040301" transform="translate(30,34)"/>
<path d="M0 0 C0.33 0.99 0.66 1.98 1 3 C2.65 3 4.3 3 6 3 C6 4.32 6 5.64 6 7 C6.99 7.33 7.98 7.66 9 8 C6.36 7.67 3.72 7.34 1 7 C1 6.01 1 5.02 1 4 C-4.61 4 -10.22 4 -16 4 C-16 3.67 -16 3.34 -16 3 C-10.72 3 -5.44 3 0 3 C0 2.01 0 1.02 0 0 Z " fill="#3B341A" transform="translate(115,13)"/>
<path d="M0 0 C1.32 0.33 2.64 0.66 4 1 C3.01 1 2.02 1 1 1 C1 3.64 1 6.28 1 9 C-0.32 9 -1.64 9 -3 9 C-3 11.31 -3 13.62 -3 16 C-3.33 16 -3.66 16 -4 16 C-4 13.69 -4 11.38 -4 9 C-5.32 8.67 -6.64 8.34 -8 8 C-6.68 8 -5.36 8 -4 8 C-4 6.68 -4 5.36 -4 4 C-2.68 4 -1.36 4 0 4 C0 2.68 0 1.36 0 0 Z " fill="#403415" transform="translate(74,70)"/>
<path d="M0 0 C0.33 1.32 0.66 2.64 1 4 C2.32 4.33 3.64 4.66 5 5 C3.68 5 2.36 5 1 5 C1 6.32 1 7.64 1 9 C-2.96 9 -6.92 9 -11 9 C-11 8.67 -11 8.34 -11 8 C-8.69 8 -6.38 8 -4 8 C-4 6.68 -4 5.36 -4 4 C-3.01 4 -2.02 4 -1 4 C-0.67 2.68 -0.34 1.36 0 0 Z " fill="#49453A" transform="translate(98,53)"/>
<path d="M0 0 C1.65 0 3.3 0 5 0 C3.68 0.33 2.36 0.66 1 1 C1 3.64 1 6.28 1 9 C-0.32 9 -1.64 9 -3 9 C-3 12.96 -3 16.92 -3 21 C-4.32 21 -5.64 21 -7 21 C-7 19.68 -7 18.36 -7 17 C-6.01 17 -5.02 17 -4 17 C-4 14.03 -4 11.06 -4 8 C-2.68 8 -1.36 8 0 8 C0 5.36 0 2.72 0 0 Z " fill="#694E0B" transform="translate(86,49)"/>
<path d="M0 0 C1.65 0 3.3 0 5 0 C5 1.32 5 2.64 5 4 C5.99 4 6.98 4 8 4 C8 5.32 8 6.64 8 8 C6.68 8 5.36 8 4 8 C4 7.01 4 6.02 4 5 C2.68 5 1.36 5 0 5 C0 3.35 0 1.7 0 0 Z " fill="#211F15" transform="translate(12,58)"/>
<path d="M0 0 C0.66 0 1.32 0 2 0 C2 1.98 2 3.96 2 6 C-1.3 6 -4.6 6 -8 6 C-8 5.01 -8 4.02 -8 3 C-5.36 3 -2.72 3 0 3 C0 2.01 0 1.02 0 0 Z " fill="#000000" transform="translate(38,59)"/>
<path d="M0 0 C0.33 0 0.66 0 1 0 C1 2.31 1 4.62 1 7 C2.32 7 3.64 7 5 7 C5 9.97 5 12.94 5 16 C5.99 16 6.98 16 8 16 C8 17.32 8 18.64 8 20 C6.68 20 5.36 20 4 20 C4 16.04 4 12.08 4 8 C2.68 8 1.36 8 0 8 C0 5.36 0 2.72 0 0 Z " fill="#604E0B" transform="translate(37,50)"/>
<path d="M0 0 C0.66 0 1.32 0 2 0 C2 0.99 2 1.98 2 3 C4.64 3 7.28 3 10 3 C10 3.99 10 4.98 10 6 C6.7 6 3.4 6 0 6 C0 4.02 0 2.04 0 0 Z " fill="#000000" transform="translate(84,59)"/>
<path d="M0 0 C1.32 0.33 2.64 0.66 4 1 C4 3.64 4 6.28 4 9 C2.68 9 1.36 9 0 9 C0 6.03 0 3.06 0 0 Z " fill="#0F0E0B" transform="translate(107,36)"/>
<path d="M0 0 C0.99 0 1.98 0 3 0 C3 2.97 3 5.94 3 9 C1.68 9 0.36 9 -1 9 C-1.09765625 2.84765625 -1.09765625 2.84765625 -1 1 C-0.67 0.67 -0.34 0.34 0 0 Z " fill="#100F0C" transform="translate(14,36)"/>
<path d="M0 0 C1.32 0.33 2.64 0.66 4 1 C4 3.31 4 5.62 4 8 C2.68 8 1.36 8 0 8 C0 5.36 0 2.72 0 0 Z " fill="#13120B" transform="translate(17,45)"/>
<path d="M0 0 C1.32 0 2.64 0 4 0 C4 2.31 4 4.62 4 7 C2.68 7 1.36 7 0 7 C0 4.69 0 2.38 0 0 Z " fill="#110F09" transform="translate(103,46)"/>
<path d="M0 0 C2.05078125 0.03255208 4.1015625 0.06510417 6.15234375 0.09765625 C6.15234375 0.75765625 6.15234375 1.41765625 6.15234375 2.09765625 C3.84234375 2.42765625 1.53234375 2.75765625 -0.84765625 3.09765625 C-1.17765625 5.07765625 -1.50765625 7.05765625 -1.84765625 9.09765625 C-2.17765625 9.09765625 -2.50765625 9.09765625 -2.84765625 9.09765625 C-2.9453125 2.9453125 -2.9453125 2.9453125 -2.84765625 1.09765625 C-1.84765625 0.09765625 -1.84765625 0.09765625 0 0 Z " fill="#9A9A9A" transform="translate(46.84765625,100.90234375)"/>
<path d="M0 0 C1.65 0 3.3 0 5 0 C5 1.65 5 3.3 5 5 C3.35 4.67 1.7 4.34 0 4 C0 2.68 0 1.36 0 0 Z " fill="#FCEDA4" transform="translate(45,45)"/>
<path d="M0 0 C0.33 0 0.66 0 1 0 C1 1.65 1 3.3 1 5 C0.01 5 -0.98 5 -2 5 C-2.33 6.32 -2.66 7.64 -3 9 C-4.32 8.67 -5.64 8.34 -7 8 C-6.01 8 -5.02 8 -4 8 C-3.67 6.35 -3.34 4.7 -3 3 C-2.01 3 -1.02 3 0 3 C0 2.01 0 1.02 0 0 Z " fill="#575656" transform="translate(7,12)"/>
<path d="M0 0 C0.99 0 1.98 0 3 0 C3 2.31 3 4.62 3 7 C2.01 7 1.02 7 0 7 C0 4.69 0 2.38 0 0 Z " fill="#FDCD01" transform="translate(59,95)"/>
<path d="M0 0 C0.99 0 1.98 0 3 0 C3 2.31 3 4.62 3 7 C2.01 7 1.02 7 0 7 C0 4.69 0 2.38 0 0 Z " fill="#030201" transform="translate(112,50)"/>
<path d="M0 0 C0.99 0 1.98 0 3 0 C3 2.31 3 4.62 3 7 C2.01 7 1.02 7 0 7 C0 4.69 0 2.38 0 0 Z " fill="#090601" transform="translate(87,50)"/>
<path d="M0 0 C0.99 0 1.98 0 3 0 C3 2.31 3 4.62 3 7 C2.01 7 1.02 7 0 7 C0 4.69 0 2.38 0 0 Z " fill="#090701" transform="translate(34,50)"/>
<path d="M0 0 C0.99 0 1.98 0 3 0 C3 2.31 3 4.62 3 7 C2.01 7 1.02 7 0 7 C0 4.69 0 2.38 0 0 Z " fill="#030201" transform="translate(9,50)"/>
<path d="M0 0 C0.99 0 1.98 0 3 0 C3 2.31 3 4.62 3 7 C2.01 7 1.02 7 0 7 C0 4.69 0 2.38 0 0 Z " fill="#040300" transform="translate(116,42)"/>
<path d="M0 0 C0.99 0 1.98 0 3 0 C3 2.31 3 4.62 3 7 C2.01 7 1.02 7 0 7 C0 4.69 0 2.38 0 0 Z " fill="#040300" transform="translate(5,42)"/>
<path d="M0 0 C0.99 0 1.98 0 3 0 C3 1.65 3 3.3 3 5 C1.68 5 0.36 5 -1 5 C-0.67 3.35 -0.34 1.7 0 0 Z " fill="#1D190E" transform="translate(26,57)"/>
</svg>
