<svg width="142" height="142" viewBox="0 0 142 142" fill="none" xmlns="http://www.w3.org/2000/svg">
<g clip-path="url(#clip0_14_161)">
<rect width="142" height="142" rx="71" fill="white"/>
<path d="M71 131C104.137 131 131 104.137 131 71C131 37.863 104.137 11.0001 71 11.0001C37.8629 11.0001 11 37.863 11 71C11 104.137 37.8629 131 71 131Z" fill="#C7EFFF"/>
<path d="M50.4463 55.683C49.3234 43.1773 39.6806 31.5287 35.0006 27.2602L32.412 25.0487C43.2108 15.9533 56.8812 10.9761 71 11.0001C84.2857 11.0001 96.5434 15.3116 106.486 22.623C107.892 26.883 105.218 35.7887 102.415 40.0487C101.386 41.5916 99.0892 43.5116 96.5606 45.3287C90.852 49.4259 83.6606 51.4573 80.0006 59.0001C79.0913 60.9014 78.9143 63.0709 79.5034 65.0944C79.8634 66.4144 80.0949 67.8458 80.1034 69.2515C80.1034 73.7773 75.5263 77.0515 71.0006 77.0001C59.2149 76.8715 51.5006 67.3744 50.4463 55.683ZM79.6234 108.663C85.5463 97.4858 105.312 97.4858 105.312 97.4858C125.901 97.2715 128.686 84.7658 130.546 78.4573C128.903 91.542 122.996 103.722 113.74 113.115C104.483 122.507 92.3914 128.591 79.332 130.426C77.3949 126.354 75.1063 117.174 79.6234 108.654" fill="#19D929"/>
</g>
<defs>
<clipPath id="clip0_14_161">
<rect width="142" height="142" fill="white"/>
</clipPath>
</defs>
</svg>
