<?xml version="1.0" encoding="UTF-8"?>
<svg version="1.1" xmlns="http://www.w3.org/2000/svg" width="512" height="512">
<path d="M0 0 C8.00387197 4.9422816 12.19675917 10.48090251 15.14453125 19.32421875 C15.26670826 21.50919822 15.32002049 23.69835904 15.33203125 25.88671875 C15.34621094 27.04300781 15.36039063 28.19929688 15.375 29.390625 C15.14453125 33.32421875 15.14453125 33.32421875 13.14453125 43.32421875 C21.72453125 43.32421875 30.30453125 43.32421875 39.14453125 43.32421875 C39.47453125 41.67421875 39.80453125 40.02421875 40.14453125 38.32421875 C43.02052042 35.11743059 44.72501769 34.38335956 49.0168457 33.77832031 C50.51342359 33.73735458 52.01067599 33.71725882 53.5078125 33.71484375 C54.29979538 33.6983075 55.09177826 33.68177124 55.90776062 33.66473389 C58.42426382 33.61635303 60.94016321 33.594906 63.45703125 33.57421875 C65.16865001 33.54605062 66.88024076 33.516122 68.59179688 33.484375 C72.77599192 33.41059728 76.95985375 33.36096257 81.14453125 33.32421875 C81.12640381 32.37667725 81.10827637 31.42913574 81.08959961 30.45288086 C81.07550049 29.2025708 81.06140137 27.95226074 81.046875 26.6640625 C81.02874756 25.427771 81.01062012 24.19147949 80.99194336 22.91772461 C81.28813851 15.94221036 83.67679464 10.55560186 88.39453125 5.44921875 C97.0772708 -2.48500877 106.80755191 -3.34413747 118.0859375 -2.85058594 C126.18842526 -2.16256634 132.88757964 2.30239889 138.14453125 8.32421875 C141.75057434 14.0102693 143.29500488 19.14051504 143.33203125 25.88671875 C143.34621094 27.04300781 143.36039062 28.19929688 143.375 29.390625 C143.14453125 33.32421875 143.14453125 33.32421875 141.14453125 43.32421875 C148.40453125 43.32421875 155.66453125 43.32421875 163.14453125 43.32421875 C163.47453125 41.67421875 163.80453125 40.02421875 164.14453125 38.32421875 C166.9498611 35.11004424 169.24145125 34.09046623 173.3840332 33.77832031 C175.04992191 33.73728222 176.71642014 33.71725487 178.3828125 33.71484375 C179.26357956 33.6983075 180.14434662 33.68177124 181.05180359 33.66473389 C183.85361746 33.61630805 186.65488879 33.59489522 189.45703125 33.57421875 C191.36135534 33.5460545 193.26565422 33.51612643 195.16992188 33.484375 C199.82808032 33.41055061 204.48593855 33.36094296 209.14453125 33.32421875 C209.12640381 32.37667725 209.10827637 31.42913574 209.08959961 30.45288086 C209.07550049 29.2025708 209.06140137 27.95226074 209.046875 26.6640625 C209.02874756 25.427771 209.01062012 24.19147949 208.99194336 22.91772461 C209.28813851 15.94221036 211.67679464 10.55560186 216.39453125 5.44921875 C225.0772708 -2.48500877 234.80755191 -3.34413747 246.0859375 -2.85058594 C254.18842526 -2.16256634 260.88757964 2.30239889 266.14453125 8.32421875 C269.92548175 14.28606534 271.27190326 19.44066992 271.20703125 26.51171875 C271.19800781 27.78402344 271.18898438 29.05632813 271.1796875 30.3671875 C271.16228516 31.83091797 271.16228516 31.83091797 271.14453125 33.32421875 C271.97423431 33.33008499 272.80393738 33.33595123 273.65878296 33.34199524 C281.51427402 33.4001271 289.36948694 33.4723196 297.22470665 33.55993366 C301.2622512 33.60448093 305.29969848 33.64377047 309.33740234 33.6706543 C313.24093339 33.69684474 317.14408692 33.73735541 321.04738235 33.78740501 C322.52950943 33.80396815 324.01170164 33.81554765 325.49390793 33.82183266 C337.84669718 33.87946461 348.46214923 35.06096137 358.14453125 43.32421875 C368.04436827 53.70463038 368.58503449 63.67296219 368.5322113 77.27767944 C368.53638613 79.022251 368.54186446 80.76681984 368.54853112 82.51138365 C368.56298495 87.29692267 368.55874116 92.08228946 368.5513643 96.86783791 C368.54663479 102.03223411 368.55914059 107.19659294 368.56938171 112.36097717 C368.58657939 122.4752574 368.58740769 132.58947552 368.58216881 142.70376657 C368.57812761 150.92479758 368.57957007 159.14581023 368.58491707 167.36684036 C368.58566549 168.53684702 368.58641391 169.70685367 368.58718501 170.91231508 C368.58871649 173.2891765 368.59025484 175.66603791 368.59179998 178.04289933 C368.60552858 200.33370554 368.60008484 222.62447667 368.58861477 244.91528209 C368.57868245 265.30671045 368.59162244 285.69804808 368.61554896 306.08946244 C368.63993335 327.02890323 368.64954942 347.96830175 368.64289623 368.90775645 C368.6394025 380.66305278 368.6416463 392.41827931 368.65914726 404.17356491 C368.67386097 414.18079445 368.67451552 424.18790506 368.65707635 434.19513224 C368.64855712 439.30017293 368.64643947 444.40500108 368.66172791 449.51003075 C368.67555729 454.18577601 368.67083423 458.86112631 368.65148867 463.53684862 C368.64772299 465.22587333 368.65066699 466.91492954 368.66110032 468.60392623 C368.73007184 480.62686168 367.74055551 490.38310076 359.13671875 499.50390625 C351.66204017 506.3337106 344.44084166 509.63971861 334.25018692 509.58148766 C333.46960792 509.58499373 332.68902893 509.5884998 331.88479602 509.59211212 C329.26543183 509.6014266 326.64628995 509.59650268 324.0269165 509.59164429 C322.13145509 509.59538052 320.23599521 509.59998194 318.34053779 509.60537493 C313.12865844 509.61762367 307.91684318 509.61734225 302.70495272 509.61498618 C297.08517241 509.61457849 291.46541279 509.62561264 285.84564209 509.63510132 C274.8340689 509.65172266 263.82251711 509.65721138 252.81093243 509.65832607 C243.86092847 509.65927603 234.91093159 509.66338368 225.96092987 509.66972733 C204.72068892 509.68447595 183.4804539 509.69677672 162.24020767 509.69573021 C161.56094023 509.69569905 160.88167279 509.69566789 160.18182149 509.69563579 C156.73903341 509.69546958 153.29624533 509.6952715 149.85345724 509.69506638 C149.16971101 509.69502649 148.48596477 509.6949866 147.78149896 509.6949455 C146.39879713 509.69486462 145.0160953 509.69478103 143.63339348 509.69469471 C122.12308164 509.69346933 100.61283286 509.70847998 79.10253906 509.73583984 C54.93386715 509.76656837 30.76524989 509.78374653 6.59655356 509.7819134 C-6.19947184 509.78124913 -18.99542613 509.7867576 -31.79143524 509.8082695 C-42.68620112 509.82646759 -53.58086364 509.83083989 -64.47563812 509.81725065 C-70.03432246 509.81071408 -75.59280844 509.81062886 -81.151474 509.82795715 C-86.24177611 509.84366219 -91.33172216 509.84085031 -96.42201546 509.82338889 C-98.26184193 509.82031335 -100.10169481 509.82397219 -101.94149014 509.83510904 C-115.69211653 509.91282184 -125.36469332 508.57191515 -135.65234375 498.76953125 C-141.88271398 491.85426217 -143.97686944 485.41579265 -143.98968983 476.25101948 C-143.99321817 475.17686786 -143.99321817 475.17686786 -143.9968178 474.08101621 C-144.00350222 471.66901132 -144.00304974 469.25706037 -144.00263977 466.845047 C-144.00593873 465.10321762 -144.00966437 463.36138901 -144.01378125 461.61956137 C-144.02380553 456.82310742 -144.02751873 452.02666598 -144.03017056 447.23020303 C-144.03407229 442.06099501 -144.04365067 436.89179691 -144.05238342 431.72259521 C-144.07215066 419.23468016 -144.08221399 406.74676428 -144.09111121 394.25883749 C-144.09549335 388.37994698 -144.10086032 382.50105738 -144.10610008 376.62216759 C-144.12311198 357.0830965 -144.13760687 337.54402597 -144.14484882 318.00494862 C-144.14675875 312.93388175 -144.14867908 307.86281489 -144.15063477 302.79174805 C-144.15111851 301.5313408 -144.15160225 300.27093355 -144.15210065 298.97233214 C-144.16040365 278.54764817 -144.18574531 258.12302271 -144.21821544 237.6983643 C-144.25127017 216.73533298 -144.26929612 195.77233142 -144.27249306 174.8092739 C-144.27465954 163.03661355 -144.28342841 151.26403855 -144.30895424 139.49140358 C-144.33063947 129.46685951 -144.33872233 119.44242153 -144.32898746 109.41785667 C-144.32443658 104.30283291 -144.32637488 99.18802814 -144.3457489 94.07303429 C-144.36333679 89.38917734 -144.36241839 84.70569984 -144.34685161 80.0218391 C-144.3444689 78.32866921 -144.3488334 76.63547334 -144.36068026 74.94234321 C-144.46683449 58.76727721 -144.46683449 58.76727721 -139.85546875 51.32421875 C-139.16904297 50.12732422 -139.16904297 50.12732422 -138.46875 48.90625 C-132.40832305 40.66188542 -124.78108883 36.41390757 -114.85546875 34.32421875 C-109.57208012 33.87158637 -104.30213712 33.83496612 -99.00390625 33.8125 C-97.49360729 33.79562203 -95.9833221 33.77746769 -94.47305298 33.75810242 C-90.53094797 33.71093405 -86.58889883 33.68091164 -82.64660645 33.65466309 C-78.61064624 33.62468854 -74.57487803 33.57821704 -70.5390625 33.53320312 C-62.64462635 33.44754823 -54.75017203 33.38003659 -46.85546875 33.32421875 C-46.87359619 32.37667725 -46.89172363 31.42913574 -46.91040039 30.45288086 C-46.92449951 29.2025708 -46.93859863 27.95226074 -46.953125 26.6640625 C-46.97125244 25.427771 -46.98937988 24.19147949 -47.00805664 22.91772461 C-46.71186149 15.94221036 -44.32320536 10.55560186 -39.60546875 5.44921875 C-29.34922663 -3.92286456 -12.52505506 -6.08115961 0 0 Z " fill="#FE8B94" transform="translate(143.85546875,2.67578125)"/>
<path d="M0 0 C126.06 0 252.12 0 382 0 C382.3125 97.75 382.3125 97.75 382.38793945 128.64746094 C382.42449138 137.76444344 382.42449138 137.76444344 382.4650116 146.88140869 C382.48299321 150.95124471 382.49256403 155.02100855 382.49711609 159.09088135 C382.50318964 164.27731399 382.5234636 169.46350605 382.55416143 174.64984941 C382.56300198 176.55632746 382.56679143 178.46283696 382.56503928 180.3693347 C382.56339246 182.93919587 382.57998757 185.50830557 382.60127258 188.07806396 C382.59642444 188.82882328 382.59157629 189.5795826 382.58658123 190.35309219 C382.62877882 193.43599631 382.83257455 195.68054269 384.27492046 198.432621 C386.13173737 200.36789233 386.13173737 200.36789233 390 201 C390 209.25 390 217.5 390 226 C386.7825 226.04125 383.565 226.0825 380.25 226.125 C369.38180998 226.50651614 361.3085717 228.86179988 353.0625 236.25 C345.56793067 244.49585868 343.95292637 253.61957046 343.4375 264.3125 C343.293125 267.179375 343.14875 270.04625 343 273 C335.41 273 327.82 273 320 273 C319.34 271.02 318.68 269.04 318 267 C315.0732241 265.58169887 311.82259473 265.87031825 308.60395432 265.8613348 C307.50220391 265.85586036 306.40045351 265.85038591 305.26531672 265.84474558 C304.05521033 265.84376747 302.84510393 265.84278936 301.59832764 265.84178162 C299.66984793 265.83437465 299.66984793 265.83437465 297.70240903 265.82681805 C294.13135545 265.8132349 290.56031139 265.80581807 286.98923874 265.79939139 C283.13922763 265.79138824 279.28923635 265.77769016 275.4392395 265.76467896 C268.76801931 265.74291502 262.09679712 265.72477022 255.42556 265.70907402 C245.78003625 265.68637465 236.13453445 265.65823191 226.48902932 265.62875474 C210.84035215 265.58107966 195.19166601 265.53781524 179.54296875 265.49731445 C164.34048769 265.4579591 149.13801464 265.41652146 133.93554688 265.37231445 C132.98912292 265.36956495 132.04269896 265.36681544 131.06759548 265.36398262 C123.66608847 265.34246384 116.26458181 265.32082417 108.86307526 265.29914629 C72.57539966 265.19289625 36.28770318 265.09719182 0 265 C0 177.55 0 90.1 0 0 Z " fill="#FEF2E3" transform="translate(65,146)"/>
<path d="M0 0 C8.00387197 4.9422816 12.19675917 10.48090251 15.14453125 19.32421875 C15.77529635 27.77889715 14.94318456 35.71467079 13.4206543 44.00048828 C12.43489448 49.39580853 11.69953137 54.78307286 11.06469727 60.23071289 C8.30025255 83.65773077 8.30025255 83.65773077 -0.02734375 90.953125 C-7.06122664 96.22853717 -14.27335119 96.18839031 -22.85546875 95.32421875 C-29.52912085 93.62372086 -34.09376838 88.92675121 -37.85546875 83.32421875 C-41.84541953 75.34431719 -42.91888672 65.42562446 -42.8762207 56.61132812 C-42.87322464 55.80675171 -42.87022858 55.00217529 -42.86714172 54.17321777 C-42.8613636 53.25796326 -42.8613636 53.25796326 -42.85546875 52.32421875 C-51.99203087 52.38554644 -61.12828354 52.46273607 -70.26453495 52.55993366 C-74.50731045 52.60457793 -78.74999125 52.64384694 -82.99291992 52.6706543 C-87.09094603 52.69674688 -91.18860654 52.73719082 -95.28640556 52.78740501 C-96.84637324 52.80403361 -98.40640409 52.81557278 -99.96644783 52.82183266 C-102.15908871 52.83151785 -104.3508027 52.85962732 -106.54321289 52.8918457 C-108.41185753 52.90850029 -108.41185753 52.90850029 -110.31825256 52.92549133 C-115.00014752 53.45325096 -118.82314263 54.28347785 -122.25458139 57.72912437 C-127.08771255 64.43117065 -126.55373715 71.71772865 -126.49038696 79.62072754 C-126.4961522 81.18523899 -126.50409602 82.74974367 -126.51402318 84.31423426 C-126.53486481 88.60209624 -126.52459373 92.88940066 -126.50909209 97.17726445 C-126.49777146 101.80585174 -126.51524483 106.43434368 -126.5289917 111.06291199 C-126.55122102 120.12579887 -126.54642427 129.18847867 -126.53192849 138.25137365 C-126.52063506 145.61716942 -126.51910581 152.98290716 -126.52454758 160.34870911 C-126.52531374 161.39717731 -126.52607991 162.44564552 -126.52686929 163.52588549 C-126.52846792 165.65585039 -126.53008899 167.78581527 -126.53173225 169.91578013 C-126.54598886 189.88695074 -126.52959838 209.85800658 -126.50273041 229.82915837 C-126.48039173 246.96412529 -126.48427188 264.09892285 -126.50732422 281.23388672 C-126.53408375 301.13374733 -126.54461557 321.03350737 -126.5292629 340.93338346 C-126.52767016 343.05549843 -126.52609831 345.1776134 -126.52454758 347.29972839 C-126.5237762 348.34384059 -126.52300482 349.38795278 -126.52221007 350.46370474 C-126.51789354 357.82037627 -126.52517863 365.17698398 -126.53694534 372.53364563 C-126.55097056 381.49939979 -126.54716988 390.46493509 -126.52054162 399.43066418 C-126.50740377 404.00488526 -126.50225051 408.57874147 -126.51878738 413.15295982 C-126.53370068 417.3414385 -126.52547638 421.52921456 -126.49889962 425.71762961 C-126.49332046 427.23164765 -126.49614255 428.74572521 -126.50827856 430.25970489 C-126.72862773 440.65833728 -126.72862773 440.65833728 -122.35297412 449.81877804 C-115.60595003 456.6015549 -108.03980444 456.04352267 -98.93110657 456.26281738 C-97.39368165 456.31328832 -95.856305 456.36524782 -94.3189761 456.41856337 C-90.09968816 456.55934046 -85.88003863 456.67490977 -81.65985954 456.78529644 C-78.03658359 456.88287439 -74.41377995 456.99437575 -70.79088656 457.10512167 C-36.19999589 458.15548343 -1.59598853 458.72009558 33.00722027 459.17597198 C37.5289995 459.23662378 42.05076088 459.29845544 46.57250977 459.36132812 C47.6961196 459.37690323 48.81972944 459.39247833 49.97738806 459.40852541 C68.0294596 459.66604556 86.06538632 460.17581459 104.10856094 460.78715092 C122.73558074 461.41286706 141.35437369 461.76782999 159.99158412 461.88491774 C170.42116093 461.95753538 180.81997294 462.14154404 191.23880577 462.63612366 C229.90288589 464.41711066 262.4123753 464.69997257 292.34039164 437.47004527 C308.73958117 422.14354794 323.36889661 405.01455075 337.14453125 387.32421875 C330.98816595 387.22513153 324.83226775 387.15264622 318.67529297 387.10449219 C316.58211172 387.08441216 314.48898633 387.05714235 312.39599609 387.02246094 C309.38234656 386.97378441 306.36944052 386.95121363 303.35546875 386.93359375 C302.42399017 386.91294861 301.4925116 386.89230347 300.5328064 386.87103271 C294.87476519 386.8690912 291.61724042 387.51287452 287.14453125 391.32421875 C282.93515196 395.98866607 282.03155347 399.15007127 282.00390625 405.34765625 C281.98457031 406.53359375 281.96523438 407.71953125 281.9453125 408.94140625 C281.91156609 411.43864061 281.89323741 413.93613275 281.890625 416.43359375 C281.6812177 426.59535863 281.6812177 426.59535863 278.8203125 429.64453125 C275.30893448 431.84875395 273.22011414 431.91703081 269.14453125 431.32421875 C265.95949555 429.56406744 265.31156153 428.82530959 264.14453125 425.32421875 C263.88108027 420.97448348 263.91298268 416.61856177 263.89453125 412.26171875 C263.86359375 410.47604492 263.86359375 410.47604492 263.83203125 408.65429688 C263.77682911 396.1027111 266.2184802 387.46944863 274.99609375 378.4140625 C283.97303285 369.99147621 292.28095917 368.73984285 304.3671875 368.93359375 C305.72195087 368.94106993 307.07672517 368.94675634 308.4315033 368.95074463 C311.96791337 368.96589312 315.50364843 369.0050782 319.03979492 369.04956055 C322.65990065 369.09074909 326.28011727 369.10880553 329.90039062 369.12890625 C336.98204412 369.17158583 344.06324322 369.23970267 351.14453125 369.32421875 C351.13142856 330.6051359 351.09212236 291.88616418 351.01767563 253.16714895 C351.00890888 248.59597074 351.00035907 244.02479215 350.99194336 239.45361328 C350.9902643 238.54357426 350.98858523 237.63353524 350.98685529 236.69591928 C350.9601858 221.960871 350.95109025 207.22586162 350.94848982 192.49079168 C350.94543032 177.37113271 350.92348403 162.25158621 350.88400668 147.13197803 C350.86024234 137.80239956 350.85120815 128.4730456 350.86101814 119.14344102 C350.86633406 112.74568901 350.85330368 106.34813818 350.82586835 99.95044345 C350.81058054 96.25927099 350.80336108 92.56854879 350.81793404 88.8773632 C350.83353203 84.87292045 350.8104856 80.86961808 350.7837677 76.86523438 C350.79444096 75.70179788 350.80511422 74.53836138 350.81611091 73.33966923 C350.73142749 66.54437095 349.90430208 61.43381223 345.14453125 56.32421875 C340.35236263 53.50649203 336.33438243 52.94088409 330.83227539 52.8918457 C329.79198685 52.87655823 329.79198685 52.87655823 328.73068237 52.86096191 C326.46359975 52.83103462 324.196941 52.82159764 321.9296875 52.8125 C320.34784056 52.79563818 318.76600689 52.77748592 317.18418884 52.75810242 C313.03982696 52.71075916 308.89551892 52.68084882 304.75097656 52.65466309 C300.51421478 52.62477806 296.27763824 52.57827517 292.04101562 52.53320312 C283.74227885 52.44734855 275.44352492 52.3799244 267.14453125 52.32421875 C267.15350433 53.22363441 267.15350433 53.22363441 267.16265869 54.14122009 C267.1673114 54.93758377 267.17196411 55.73394745 267.17675781 56.55444336 C267.1857309 57.73229652 267.1857309 57.73229652 267.19488525 58.9339447 C266.98570208 68.86374328 265.31796074 80.88994408 258.28515625 88.27734375 C251.37687822 94.66620238 245.95167737 95.80480709 236.58984375 95.62890625 C229.83284578 95.03134861 225.96816003 92.45559949 221.33203125 87.63671875 C214.45747947 79.13727291 213.07218941 67.26919209 213.1237793 56.61132812 C213.12677536 55.80675171 213.12977142 55.00217529 213.13285828 54.17321777 C213.13671036 53.5630481 213.14056244 52.95287842 213.14453125 52.32421875 C211.18447144 52.36349487 211.18447144 52.36349487 209.18481445 52.40356445 C204.33017137 52.49416199 199.4756028 52.5515032 194.62036133 52.59887695 C192.52029855 52.62399926 190.42032302 52.65810333 188.32055664 52.70141602 C185.29942285 52.76216746 182.27944629 52.79045138 179.2578125 52.8125 C177.85285271 52.85120964 177.85285271 52.85120964 176.41950989 52.89070129 C171.79764744 52.89268358 169.81865606 52.8525057 166.07495117 49.91870117 C163.27637324 46.15741527 162.49596217 44.04950778 163.14453125 39.32421875 C166.41692634 35.76904426 168.64195267 34.06368424 173.49755859 33.66479492 C175.15810443 33.62404129 176.81944092 33.60944773 178.48046875 33.6171875 C179.35982086 33.60206619 180.23917297 33.58694489 181.14517212 33.57136536 C183.93688804 33.52858799 186.72752065 33.51966017 189.51953125 33.51171875 C191.41929943 33.48856664 193.319042 33.46319982 195.21875 33.43554688 C199.86077243 33.37279308 204.50212226 33.34038004 209.14453125 33.32421875 C209.12640381 32.37667725 209.10827637 31.42913574 209.08959961 30.45288086 C209.07550049 29.2025708 209.06140137 27.95226074 209.046875 26.6640625 C209.02874756 25.427771 209.01062012 24.19147949 208.99194336 22.91772461 C209.28813851 15.94221036 211.67679464 10.55560186 216.39453125 5.44921875 C225.0772708 -2.48500877 234.80755191 -3.34413747 246.0859375 -2.85058594 C254.18842526 -2.16256634 260.88757964 2.30239889 266.14453125 8.32421875 C269.92548175 14.28606534 271.27190326 19.44066992 271.20703125 26.51171875 C271.19800781 27.78402344 271.18898438 29.05632813 271.1796875 30.3671875 C271.16228516 31.83091797 271.16228516 31.83091797 271.14453125 33.32421875 C271.97423431 33.33008499 272.80393738 33.33595123 273.65878296 33.34199524 C281.51427402 33.4001271 289.36948694 33.4723196 297.22470665 33.55993366 C301.2622512 33.60448093 305.29969848 33.64377047 309.33740234 33.6706543 C313.24093339 33.69684474 317.14408692 33.73735541 321.04738235 33.78740501 C322.52950943 33.80396815 324.01170164 33.81554765 325.49390793 33.82183266 C337.84669718 33.87946461 348.46214923 35.06096137 358.14453125 43.32421875 C368.04436827 53.70463038 368.58503449 63.67296219 368.5322113 77.27767944 C368.53638613 79.022251 368.54186446 80.76681984 368.54853112 82.51138365 C368.56298495 87.29692267 368.55874116 92.08228946 368.5513643 96.86783791 C368.54663479 102.03223411 368.55914059 107.19659294 368.56938171 112.36097717 C368.58657939 122.4752574 368.58740769 132.58947552 368.58216881 142.70376657 C368.57812761 150.92479758 368.57957007 159.14581023 368.58491707 167.36684036 C368.58566549 168.53684702 368.58641391 169.70685367 368.58718501 170.91231508 C368.58871649 173.2891765 368.59025484 175.66603791 368.59179998 178.04289933 C368.60552858 200.33370554 368.60008484 222.62447667 368.58861477 244.91528209 C368.57868245 265.30671045 368.59162244 285.69804808 368.61554896 306.08946244 C368.63993335 327.02890323 368.64954942 347.96830175 368.64289623 368.90775645 C368.6394025 380.66305278 368.6416463 392.41827931 368.65914726 404.17356491 C368.67386097 414.18079445 368.67451552 424.18790506 368.65707635 434.19513224 C368.64855712 439.30017293 368.64643947 444.40500108 368.66172791 449.51003075 C368.67555729 454.18577601 368.67083423 458.86112631 368.65148867 463.53684862 C368.64772299 465.22587333 368.65066699 466.91492954 368.66110032 468.60392623 C368.73007184 480.62686168 367.74055551 490.38310076 359.13671875 499.50390625 C351.66204017 506.3337106 344.44084166 509.63971861 334.25018692 509.58148766 C333.46960792 509.58499373 332.68902893 509.5884998 331.88479602 509.59211212 C329.26543183 509.6014266 326.64628995 509.59650268 324.0269165 509.59164429 C322.13145509 509.59538052 320.23599521 509.59998194 318.34053779 509.60537493 C313.12865844 509.61762367 307.91684318 509.61734225 302.70495272 509.61498618 C297.08517241 509.61457849 291.46541279 509.62561264 285.84564209 509.63510132 C274.8340689 509.65172266 263.82251711 509.65721138 252.81093243 509.65832607 C243.86092847 509.65927603 234.91093159 509.66338368 225.96092987 509.66972733 C204.72068892 509.68447595 183.4804539 509.69677672 162.24020767 509.69573021 C161.56094023 509.69569905 160.88167279 509.69566789 160.18182149 509.69563579 C156.73903341 509.69546958 153.29624533 509.6952715 149.85345724 509.69506638 C149.16971101 509.69502649 148.48596477 509.6949866 147.78149896 509.6949455 C146.39879713 509.69486462 145.0160953 509.69478103 143.63339348 509.69469471 C122.12308164 509.69346933 100.61283286 509.70847998 79.10253906 509.73583984 C54.93386715 509.76656837 30.76524989 509.78374653 6.59655356 509.7819134 C-6.19947184 509.78124913 -18.99542613 509.7867576 -31.79143524 509.8082695 C-42.68620112 509.82646759 -53.58086364 509.83083989 -64.47563812 509.81725065 C-70.03432246 509.81071408 -75.59280844 509.81062886 -81.151474 509.82795715 C-86.24177611 509.84366219 -91.33172216 509.84085031 -96.42201546 509.82338889 C-98.26184193 509.82031335 -100.10169481 509.82397219 -101.94149014 509.83510904 C-115.69211653 509.91282184 -125.36469332 508.57191515 -135.65234375 498.76953125 C-141.88271398 491.85426217 -143.97686944 485.41579265 -143.98968983 476.25101948 C-143.99321817 475.17686786 -143.99321817 475.17686786 -143.9968178 474.08101621 C-144.00350222 471.66901132 -144.00304974 469.25706037 -144.00263977 466.845047 C-144.00593873 465.10321762 -144.00966437 463.36138901 -144.01378125 461.61956137 C-144.02380553 456.82310742 -144.02751873 452.02666598 -144.03017056 447.23020303 C-144.03407229 442.06099501 -144.04365067 436.89179691 -144.05238342 431.72259521 C-144.07215066 419.23468016 -144.08221399 406.74676428 -144.09111121 394.25883749 C-144.09549335 388.37994698 -144.10086032 382.50105738 -144.10610008 376.62216759 C-144.12311198 357.0830965 -144.13760687 337.54402597 -144.14484882 318.00494862 C-144.14675875 312.93388175 -144.14867908 307.86281489 -144.15063477 302.79174805 C-144.15111851 301.5313408 -144.15160225 300.27093355 -144.15210065 298.97233214 C-144.16040365 278.54764817 -144.18574531 258.12302271 -144.21821544 237.6983643 C-144.25127017 216.73533298 -144.26929612 195.77233142 -144.27249306 174.8092739 C-144.27465954 163.03661355 -144.28342841 151.26403855 -144.30895424 139.49140358 C-144.33063947 129.46685951 -144.33872233 119.44242153 -144.32898746 109.41785667 C-144.32443658 104.30283291 -144.32637488 99.18802814 -144.3457489 94.07303429 C-144.36333679 89.38917734 -144.36241839 84.70569984 -144.34685161 80.0218391 C-144.3444689 78.32866921 -144.3488334 76.63547334 -144.36068026 74.94234321 C-144.46683449 58.76727721 -144.46683449 58.76727721 -139.85546875 51.32421875 C-139.16904297 50.12732422 -139.16904297 50.12732422 -138.46875 48.90625 C-132.40832305 40.66188542 -124.78108883 36.41390757 -114.85546875 34.32421875 C-109.57208012 33.87158637 -104.30213712 33.83496612 -99.00390625 33.8125 C-97.49360729 33.79562203 -95.9833221 33.77746769 -94.47305298 33.75810242 C-90.53094797 33.71093405 -86.58889883 33.68091164 -82.64660645 33.65466309 C-78.61064624 33.62468854 -74.57487803 33.57821704 -70.5390625 33.53320312 C-62.64462635 33.44754823 -54.75017203 33.38003659 -46.85546875 33.32421875 C-46.87359619 32.37667725 -46.89172363 31.42913574 -46.91040039 30.45288086 C-46.92449951 29.2025708 -46.93859863 27.95226074 -46.953125 26.6640625 C-46.97125244 25.427771 -46.98937988 24.19147949 -47.00805664 22.91772461 C-46.71186149 15.94221036 -44.32320536 10.55560186 -39.60546875 5.44921875 C-29.34922663 -3.92286456 -12.52505506 -6.08115961 0 0 Z " fill="#010000" transform="translate(143.85546875,2.67578125)"/>
<path d="M0 0 C126.06 0 252.12 0 382 0 C382.3125 97.75 382.3125 97.75 382.38793945 128.64746094 C382.42449138 137.76444344 382.42449138 137.76444344 382.4650116 146.88140869 C382.48299321 150.95124471 382.49256403 155.02100855 382.49711609 159.09088135 C382.50318964 164.27731399 382.5234636 169.46350605 382.55416143 174.64984941 C382.56300198 176.55632746 382.56679143 178.46283696 382.56503928 180.3693347 C382.56339246 182.93919587 382.57998757 185.50830557 382.60127258 188.07806396 C382.59642444 188.82882328 382.59157629 189.5795826 382.58658123 190.35309219 C382.62877882 193.43599631 382.83257455 195.68054269 384.27492046 198.432621 C386.13173737 200.36789233 386.13173737 200.36789233 390 201 C390 209.25 390 217.5 390 226 C386.7825 226.04125 383.565 226.0825 380.25 226.125 C369.38180998 226.50651614 361.3085717 228.86179988 353.0625 236.25 C345.56793067 244.49585868 343.95292637 253.61957046 343.4375 264.3125 C343.293125 267.179375 343.14875 270.04625 343 273 C335.41 273 327.82 273 320 273 C319.34 271.02 318.68 269.04 318 267 C315.0732241 265.58169887 311.82259473 265.87031825 308.60395432 265.8613348 C307.50220391 265.85586036 306.40045351 265.85038591 305.26531672 265.84474558 C304.05521033 265.84376747 302.84510393 265.84278936 301.59832764 265.84178162 C299.66984793 265.83437465 299.66984793 265.83437465 297.70240903 265.82681805 C294.13135545 265.8132349 290.56031139 265.80581807 286.98923874 265.79939139 C283.13922763 265.79138824 279.28923635 265.77769016 275.4392395 265.76467896 C268.76801931 265.74291502 262.09679712 265.72477022 255.42556 265.70907402 C245.78003625 265.68637465 236.13453445 265.65823191 226.48902932 265.62875474 C210.84035215 265.58107966 195.19166601 265.53781524 179.54296875 265.49731445 C164.34048769 265.4579591 149.13801464 265.41652146 133.93554688 265.37231445 C132.98912292 265.36956495 132.04269896 265.36681544 131.06759548 265.36398262 C123.66608847 265.34246384 116.26458181 265.32082417 108.86307526 265.29914629 C72.57539966 265.19289625 36.28770318 265.09719182 0 265 C0 177.55 0 90.1 0 0 Z M1 1 C1 66.34 1 131.68 1 199 C56.29078688 204.52907869 113.15036112 201.29666614 168.0625 193.375 C168.84117432 193.26422119 169.61984863 193.15344238 170.42211914 193.03930664 C173.98302254 192.4859369 176.83440944 191.69896374 180 190 C182.33333333 190 184.66666667 190 187 190 C189.38706188 189.56171979 191.7266906 189.02126773 194.08203125 188.4375 C196 188 196 188 198 188 C198.99 188.66 199.98 189.32 201 190 C204.76761353 190.57333249 206.43141394 190.37905738 209.625 188.25 C213.03171169 183.93432754 213.03171169 183.93432754 216 173 C227.88 172.67 239.76 172.34 252 172 C252.33 174.31 252.66 176.62 253 179 C253.81014187 181.55504347 253.81014187 181.55504347 254.875 183.8125 C255.20242188 184.56144531 255.52984375 185.31039062 255.8671875 186.08203125 C256.99669959 188.31148061 256.99669959 188.31148061 260 190 C263.70485832 190.48324239 265.52592056 190.26337747 268.8125 188.4375 C270.97422613 186.02871945 271.93497704 184.45694978 272.21875 181.21484375 C271.73054348 176.2717527 269.76398517 171.61058785 268 167 C268.825 166.896875 269.65 166.79375 270.5 166.6875 C274.59289012 165.88353944 278.12540225 164.53647842 282 163 C282.00410889 163.60473145 282.00821777 164.20946289 282.01245117 164.83251953 C282.04553948 167.59764349 282.11619624 170.36060815 282.1875 173.125 C282.19330078 174.07632813 282.19910156 175.02765625 282.20507812 176.0078125 C282.34630779 180.52716187 282.47284533 183.99258391 285.33203125 187.63671875 C287.86211652 190.27968693 287.86211652 190.27968693 291.5 190.6875 C295.92835923 189.81764372 297.21411964 188.50846164 300 185 C300.68494433 181.52912109 300.68494433 181.52912109 300.48828125 177.73046875 C300.48120651 177.04946609 300.47413177 176.36846344 300.46684265 175.66682434 C300.43900069 173.50590005 300.37629527 171.34763178 300.3125 169.1875 C300.28740332 167.71683448 300.26459253 166.24612807 300.24414062 164.77539062 C300.18921188 161.18274043 300.10301647 157.59162972 300 154 C306.8070937 153.91062897 306.8070937 153.91062897 309.81152344 156.65429688 C311.61639277 158.95521687 313.25891269 161.31275935 314.875 163.75 C316.08611824 165.48515822 317.29836437 167.21952972 318.51171875 168.953125 C319.10001465 169.80970703 319.68831055 170.66628906 320.29443359 171.54882812 C322.65815714 174.94587714 325.15087304 178.23108157 327.6875 181.5 C328.45449219 182.5003125 329.22148437 183.500625 330.01171875 184.53125 C332.3271104 187.44367461 332.3271104 187.44367461 335 190 C338.90151232 190.4150545 341.72154646 190.2246649 345 188 C347.57658606 184.13512091 347.63662753 182.6040165 347 178 C345.11968538 174.61603395 342.77826743 171.65205314 340.375 168.625 C339.13080988 167.01456603 337.88861011 165.40259233 336.6484375 163.7890625 C335.73723145 162.6119873 335.73723145 162.6119873 334.80761719 161.41113281 C332.03825166 157.7171493 329.50445196 153.87684984 327 150 C327.78318604 149.69835937 328.56637207 149.39671875 329.37329102 149.0859375 C335.66440631 146.4850563 339.75479047 141.79721072 342.875 135.875 C345.55599262 131.13716118 347.88908312 129.62398766 352.81640625 127.5390625 C357.21057792 125.41476356 361.14866487 122.72896485 365.1875 120 C365.94772461 119.48904785 366.70794922 118.9780957 367.49121094 118.45166016 C372.04912286 115.36965299 376.51972999 112.20019286 381 109 C381 73.36 381 37.72 381 1 C255.6 1 130.2 1 1 1 Z " fill="#FBE8CF" transform="translate(65,146)"/>
<path d="M0 0 C1.01930389 -0.00307895 1.01930389 -0.00307895 2.05919978 -0.0062201 C4.35882632 -0.01191912 6.65839353 -0.0104293 8.95802593 -0.00901413 C10.61435903 -0.01159611 12.27069151 -0.01460879 13.92702311 -0.01801753 C18.49628713 -0.02611048 23.06553546 -0.02787837 27.6348058 -0.028615 C32.55584362 -0.03046157 37.47687321 -0.03800689 42.3979063 -0.04475021 C53.16637409 -0.05835027 63.93483816 -0.06436084 74.70331311 -0.06876087 C81.4228484 -0.07152043 88.14238223 -0.07575725 94.86191654 -0.08026505 C113.45386477 -0.09245982 132.04581184 -0.10275877 150.63776398 -0.10614014 C152.42374148 -0.10646949 152.42374148 -0.10646949 154.24579934 -0.10680549 C155.43935494 -0.10702377 156.63291053 -0.10724204 157.86263448 -0.10746694 C160.28136909 -0.10791041 162.7001037 -0.10835697 165.11883831 -0.10880661 C166.31862289 -0.10902804 167.51840748 -0.10924947 168.75454917 -0.10947761 C188.20237307 -0.11342697 207.65015954 -0.13088427 227.09796897 -0.15416613 C247.04842686 -0.17785763 266.99886595 -0.19034098 286.94933814 -0.19150805 C298.15738188 -0.19242605 309.36537684 -0.19820957 320.57340717 -0.21632767 C330.11611056 -0.23169897 339.6587501 -0.23686673 349.2014635 -0.22858956 C354.07291093 -0.22467252 358.94422968 -0.22566387 363.81566143 -0.23964691 C368.27235402 -0.25232283 372.72882039 -0.25124421 377.18551239 -0.2390562 C378.80060704 -0.2370882 380.41571738 -0.24022813 382.03078995 -0.24890056 C384.2214213 -0.25992186 386.41124422 -0.25255642 388.60185242 -0.24050903 C390.42914917 -0.24140467 390.42914917 -0.24140467 392.29336101 -0.24231839 C395.82650773 0.17081207 397.67188187 0.9944841 400.48968792 3.13142776 C403.00976324 6.91154074 402.77134526 9.90100023 402.75038433 14.27910233 C402.75420988 15.11934956 402.75803542 15.95959679 402.7619769 16.82530606 C402.77232599 19.65120517 402.76831113 22.47690181 402.76434612 25.30281448 C402.76869157 27.32467716 402.77387416 29.34653819 402.77983379 31.36839676 C402.79325377 36.8683979 402.79379908 42.36833045 402.79127049 47.86834478 C402.7902027 52.45594563 402.79507928 57.04353248 402.79987592 61.63113034 C402.81098171 72.45269189 402.81140264 83.27421874 402.80536175 94.09578323 C402.79932142 105.26738372 402.81163207 116.43885828 402.83293182 127.61043727 C402.8505341 137.19436888 402.8565513 146.77826035 402.85329407 156.36220753 C402.85147871 162.08954421 402.85414251 167.81679108 402.86800861 173.54411316 C402.8805598 178.93016605 402.87866851 184.31602236 402.86559772 189.70207214 C402.86322639 191.68019552 402.86598647 193.65833262 402.87422085 195.63644028 C402.88464306 198.33445193 402.87662411 201.0317985 402.86390972 203.72978592 C402.87128401 204.5147107 402.87865829 205.29963548 402.88625604 206.10834587 C402.84148396 210.61680573 402.30161545 213.55439607 399.48968792 217.13142776 C396.35567907 218.69843219 392.85813697 218.98307337 389.48968792 218.13142776 C386.51773862 215.25751747 385.55149552 213.59307714 384.9974966 209.45518398 C384.98077212 207.99995973 384.98600026 206.544381 385.00866985 205.08923721 C385.00524578 204.2865239 385.00182171 203.48381058 384.99829388 202.65677261 C384.99167846 199.96135701 385.01375567 197.26693789 385.03558636 194.57161331 C385.03681178 192.60859236 385.03627759 190.64556964 385.03412533 188.68254948 C385.03322206 183.424293 385.0564098 178.16640042 385.08456707 172.90822983 C385.10734225 167.97468286 385.10841927 163.04122453 385.11126995 158.10762405 C385.13226157 143.6780104 385.18810617 129.24846449 385.23968792 114.81892776 C385.32218792 82.58205276 385.40468792 50.34517776 385.48968792 17.13142776 C259.42968792 17.13142776 133.36968792 17.13142776 3.48968792 17.13142776 C3.48968792 104.58142776 3.48968792 192.03142776 3.48968792 282.13142776 C37.42039104 282.09662308 37.42039104 282.09662308 72.03656292 282.06111526 C86.32822989 282.0509017 100.61989463 282.04117943 114.91156292 282.03377151 C122.4161203 282.0298556 129.9206776 282.02581459 137.42523479 282.02156448 C138.36584538 282.02103699 139.30645597 282.02050949 140.27556992 282.01996601 C155.47304624 282.01126072 170.67050748 281.99548941 185.86797485 281.97712217 C201.4576443 281.95843768 217.04730583 281.94731412 232.63698602 281.94325078 C242.26133942 281.9405027 251.8856502 281.93181436 261.50999048 281.91559483 C268.10433071 281.90504585 274.6986488 281.90182239 281.29299685 281.90442501 C285.10102273 281.90570956 288.90897396 281.90370161 292.71698666 281.89301682 C296.84071224 281.88153033 300.9642777 281.88543759 305.08801556 281.89091873 C306.90317515 281.88218021 306.90317515 281.88218021 308.75500464 281.87326515 C309.85675505 281.87724724 310.95850545 281.88122934 312.09364223 281.88533211 C313.52215012 281.88419295 313.52215012 281.88419295 314.97951674 281.88303077 C317.6667503 282.14894918 319.23902936 282.65580538 321.48968792 284.13142776 C323.81504855 287.61946872 323.8242669 289.0328353 323.48968792 293.13142776 C322.63366166 295.69950655 322.0495871 296.77794122 319.75770372 298.22489804 C317.01265937 299.32209688 314.9075114 299.38328882 311.95143509 299.38590336 C310.25118379 299.39465165 310.25118379 299.39465165 308.51658398 299.40357667 C307.2709787 299.39979735 306.02537341 299.39601802 304.74202251 299.39212418 C303.40569626 299.39514414 302.06937174 299.39903284 300.73305029 299.40371674 C297.05760114 299.41402547 293.38224922 299.41180764 289.706792 299.40753615 C285.74421035 299.40507413 281.78165242 299.41407653 277.8190794 299.42157364 C270.05479907 299.43433718 262.29055331 299.43611228 254.52626426 299.43377338 C248.21680603 299.43199195 241.90735831 299.43373609 235.59790134 299.43799782 C234.25205414 299.4388906 234.25205414 299.4388906 232.87901811 299.43980142 C231.0564249 299.44101314 229.23383169 299.44222728 227.41123848 299.4434438 C210.31063377 299.45432566 193.21004877 299.45215375 176.10944294 299.44605895 C160.45758968 299.44088888 144.80579863 299.45214646 129.15395767 299.47115717 C113.09067472 299.49051838 97.02742123 299.49879461 80.96412653 299.49503392 C71.94258225 299.4931193 62.92109094 299.49563474 53.89955616 299.50974846 C46.21971918 299.52164135 38.53996777 299.52309071 30.86012966 299.51095829 C26.94053604 299.50505492 23.02109911 299.50401022 19.10151577 299.51596069 C15.51457661 299.52677004 11.92792588 299.52377566 8.34100049 299.50969901 C6.42617305 299.50577625 4.51133304 299.51663948 2.59653527 299.52799588 C1.46042665 299.52078934 0.32431804 299.5135828 -0.84621811 299.50615788 C-2.31647041 299.5062404 -2.31647041 299.5062404 -3.81642479 299.50632459 C-7.04239821 299.0573796 -8.89434155 298.04828987 -11.51031208 296.13142776 C-13.66832551 292.89440763 -13.76198401 292.02700398 -13.7703743 288.29406548 C-13.77743989 287.29144129 -13.78450548 286.28881711 -13.79178518 285.25581038 C-13.7893701 284.15125734 -13.78695501 283.0467043 -13.78446674 281.90867996 C-13.78970342 280.73766499 -13.7949401 279.56665002 -13.80033547 278.36014974 C-13.8127697 275.10429114 -13.81617827 271.84856595 -13.81573856 268.59268808 C-13.81738446 265.08338977 -13.83044665 261.57413101 -13.84193134 258.06485367 C-13.86479743 250.38932114 -13.87270355 242.71381623 -13.87775779 235.03825426 C-13.88101269 230.24724954 -13.88753387 225.45625286 -13.89475918 220.66525269 C-13.91432654 207.40471594 -13.93073017 194.14418668 -13.93363571 180.88363457 C-13.93382328 180.03479331 -13.93401085 179.18595205 -13.93420411 178.31138834 C-13.93457036 176.59052523 -13.93493406 174.86966212 -13.93529522 173.14879902 C-13.93547803 172.29454111 -13.93566084 171.44028321 -13.93584919 170.5601387 C-13.93602974 169.70484032 -13.93621029 168.84954194 -13.93639631 167.96832542 C-13.93993918 154.1043583 -13.96696799 140.24054639 -14.00434708 126.37663312 C-14.0424017 112.14851953 -14.06179298 97.920483 -14.06209522 83.69231737 C-14.06268041 75.70133804 -14.0712116 67.71054388 -14.10009289 59.71961212 C-14.12456874 52.91622287 -14.1319155 46.11308632 -14.11684536 39.30966498 C-14.10966089 35.83753288 -14.11059882 32.36590018 -14.13325596 28.89382362 C-14.15356167 25.13148889 -14.14325394 21.37045915 -14.12504292 17.60814285 C-14.13824288 16.50805126 -14.15144285 15.40795966 -14.16504282 14.27453196 C-14.08295135 6.87997498 -14.08295135 6.87997498 -11.0968914 2.97663307 C-7.06027503 0.09700518 -4.96057421 0.00507784 0 0 Z " fill="#030102" transform="translate(61.5103120803833,128.86857223510742)"/>
<path d="M0 0 C10.40798659 0.56825214 20.67275755 1.60222605 31 3 C31.00879936 4.47125336 31.00879936 4.47125336 31.01777649 5.972229 C31.07497405 15.21288286 31.14772003 24.45330072 31.23571491 33.69371414 C31.28045438 38.44439246 31.31970257 43.19498431 31.34643555 47.94580078 C31.37243291 52.53008383 31.41280987 57.11403477 31.46318626 61.69811249 C31.47987916 63.44756695 31.49137834 65.19707888 31.49761391 66.94660187 C31.5072288 69.39607104 31.5352557 71.84468591 31.56762695 74.29394531 C31.56547432 75.38043617 31.56547432 75.38043617 31.5632782 76.48887634 C31.62074733 79.56084361 31.83882039 81.70891573 33.33952332 84.41912842 C36.37035531 87.30465895 39.44520235 87.12518361 43.41799831 87.12584114 C44.55012483 87.12844889 45.68225135 87.13105664 46.84868473 87.13374341 C48.09788497 87.13151268 49.34708522 87.12928196 50.63414001 87.12698364 C51.97031416 87.12813526 53.30648799 87.12972306 54.64266115 87.13171089 C58.32227912 87.13589864 62.00187127 87.13381599 65.68148935 87.13072467 C69.64678715 87.12846853 73.61208041 87.13195127 77.57737732 87.13470459 C85.34880634 87.13915909 93.12022573 87.1381872 100.89165514 87.13529195 C107.20638685 87.13303651 113.52111586 87.13272601 119.83584785 87.13381577 C120.73350353 87.133969 121.63115922 87.13412223 122.55601658 87.13428011 C124.37941706 87.13459982 126.20281753 87.13492404 128.026218 87.1352527 C145.13822931 87.1381066 162.25023526 87.13482196 179.36224569 87.12945233 C194.05326738 87.12498514 208.74428118 87.12575971 223.43530273 87.13037109 C240.48319633 87.13571976 257.53108523 87.13783111 274.57897955 87.13475883 C276.39609849 87.13444027 278.21321744 87.1341259 280.03033638 87.13381577 C281.37152225 87.13358435 281.37152225 87.13358435 282.73980279 87.13334826 C289.04830185 87.13248393 295.35679795 87.13394421 301.66529655 87.13629532 C309.35138365 87.13909678 317.03746052 87.13834774 324.72354644 87.13301457 C328.6470098 87.13038215 332.57045612 87.12936477 336.49391937 87.13266373 C340.08322456 87.13563611 343.67249685 87.13401805 347.26179904 87.12868617 C349.18039001 87.12703401 351.09898326 87.13031121 353.01757187 87.13374341 C354.71967326 87.12983178 354.71967326 87.12983178 356.45616055 87.12584114 C357.43725054 87.12567879 358.41834054 87.12551644 359.42916054 87.12534916 C361.77252802 87.01109109 363.75880798 86.66704698 366 86 C366.66 83.69 367.32 81.38 368 79 C375.59 79 383.18 79 391 79 C391.42317708 82.05989583 391.84635417 85.11979167 392.26953125 88.1796875 C392.74665741 91.31238846 392.74665741 91.31238846 396 93 C400.93675536 93.5616987 400.93675536 93.5616987 405.19116211 91.35693359 C407.49381821 88.35655 407.49741718 86.66813278 407.50390625 82.9140625 C407.53194336 81.14675781 407.53194336 81.14675781 407.56054688 79.34375 C407.56119141 78.1165625 407.56183594 76.889375 407.5625 75.625 C407.57147037 73.20043638 407.59317669 70.77587944 407.62890625 68.3515625 C407.62963135 67.27729004 407.63035645 66.20301758 407.63110352 65.09619141 C408.25881074 59.82777113 410.4493312 55.98336528 414.5625 52.6875 C415.16191406 52.19636719 415.76132812 51.70523438 416.37890625 51.19921875 C419.18118328 49.126209 420.92608727 48.87688851 424.35791016 48.88647461 C425.70908432 48.88658791 425.70908432 48.88658791 427.08755493 48.88670349 C428.06155243 48.89186478 429.03554993 48.89702606 430.0390625 48.90234375 C431.03505463 48.9037587 432.03104675 48.90517365 433.05722046 48.90663147 C436.24651053 48.91224064 439.43573106 48.9247947 442.625 48.9375 C444.78385315 48.94251382 446.94270741 48.94707693 449.1015625 48.95117188 C454.40106628 48.96221305 459.70052597 48.97935834 465 49 C464.24131654 49.86125111 463.48263308 50.72250221 462.70095921 51.60985184 C460.15279165 54.57427255 457.72676329 57.61689821 455.3328608 60.70696914 C409.26315153 120.04878138 409.26315153 120.04878138 372.93451808 124.99871209 C353.95540115 127.21882346 334.64936527 126.50689712 315.60410706 125.6816947 C305.11779771 125.23993114 294.63688878 125.17081955 284.14261227 125.11330327 C265.43665686 125.00106189 246.7483958 124.60714267 228.05151367 124.02734375 C209.960811 123.46690838 191.87622974 123.05838078 173.77807617 122.83789062 C172.65513167 122.82416606 171.53218717 122.8104415 170.37521405 122.79630104 C165.85963278 122.74168119 161.34404138 122.68803805 156.82843304 122.6357028 C122.38383419 122.23462366 87.93756513 121.69724541 53.50413132 120.71802139 C49.91644809 120.61635572 46.32875693 120.52524443 42.74055672 120.44389725 C38.61104951 120.34945037 34.48288034 120.23174676 30.35455995 120.0950931 C28.8632679 120.04930831 27.37170922 120.01137756 25.88000024 119.98217908 C11.06445774 119.68079191 11.06445774 119.68079191 5 114 C-0.08736736 108.13190745 -0.70953145 102.95858472 -0.56762695 95.36132812 C-0.56835709 94.32628143 -0.56908722 93.29123474 -0.56983948 92.224823 C-0.56637464 88.82641979 -0.52756388 85.4294118 -0.48828125 82.03125 C-0.47894925 79.66614531 -0.47183497 77.30103092 -0.46684265 74.93591309 C-0.44780366 68.72803803 -0.39872853 62.52075314 -0.34332275 56.31311035 C-0.29206398 49.97184227 -0.2693144 43.6304783 -0.24414062 37.2890625 C-0.19060763 24.85911651 -0.10533161 12.42960744 0 0 Z " fill="#FC6B78" transform="translate(17,340)"/>
<path d="M0 0 C0.11607212 10.42280247 0.20480569 20.84545009 0.25906086 31.26876831 C0.28510651 36.10926209 0.32041217 40.94931227 0.37719727 45.78955078 C0.43169717 50.4644911 0.46145837 55.1390059 0.47438622 59.8142395 C0.48359393 61.59399103 0.50157465 63.37372041 0.52865028 65.15328979 C0.78439 82.66535517 0.78439 82.66535517 -3.39712536 87.38682699 C-9.42911594 93.45757274 -14.96575617 94.54462237 -23.37369495 94.65420964 C-25.94319203 94.65962084 -28.51190682 94.64067932 -31.08132935 94.62145996 C-32.94837353 94.62579035 -34.8154137 94.6323076 -36.6824435 94.64082003 C-41.80646782 94.65781094 -46.93000343 94.64363056 -52.05400205 94.62430525 C-57.58233606 94.60888103 -63.11061009 94.62227935 -68.63894653 94.63204956 C-79.46581866 94.64657959 -90.29250334 94.63433887 -101.11935772 94.61293632 C-113.72368546 94.58893376 -126.32797018 94.5906402 -138.93231569 94.59324223 C-162.09738947 94.59704434 -185.26236827 94.57409769 -208.42740638 94.53889475 C-229.57548534 94.50689411 -250.72348007 94.49485256 -271.87158203 94.50097656 C-273.22979192 94.50136341 -274.58800182 94.50174986 -275.94621171 94.50213593 C-276.61768484 94.50232728 -277.28915797 94.50251862 -277.98097877 94.50271577 C-281.36107367 94.5036701 -284.74116858 94.50458447 -288.1212635 94.50545502 C-288.78810282 94.50562881 -289.45494215 94.5058026 -290.14198872 94.50598167 C-307.81397599 94.51033617 -325.48595494 94.50024704 -343.15793598 94.48561716 C-344.41394916 94.48457768 -345.66996235 94.48353819 -346.96403655 94.4824672 C-349.4867782 94.48037629 -352.00951984 94.47826531 -354.53226147 94.47613403 C-363.32203913 94.46923355 -372.11180482 94.46856992 -380.90158463 94.47001648 C-391.60903768 94.47145486 -402.31641502 94.46178929 -413.02384295 94.43807012 C-418.48884206 94.4261951 -423.95373553 94.41909502 -429.41874695 94.42490768 C-434.41867162 94.43006864 -439.41837285 94.42142973 -444.41825925 94.40163308 C-446.22968342 94.39688226 -448.04112928 94.39720733 -449.85255028 94.40304345 C-452.31030363 94.41019849 -454.76731121 94.39898792 -457.22500801 94.38311005 C-457.93212329 94.38956185 -458.63923857 94.39601365 -459.36778158 94.40266097 C-464.79857746 94.3365776 -468.84870953 92.98441889 -472.86328125 89.28125 C-473.34152344 88.6934375 -473.81976563 88.105625 -474.3125 87.5 C-474.80363281 86.9121875 -475.29476563 86.324375 -475.80078125 85.71875 C-479.05954805 81.04820475 -478.06383321 75.42582274 -478 70 C-476.98245821 70.42393444 -476.98245821 70.42393444 -475.94436002 70.85643321 C-467.18839852 74.17275927 -459.03303401 74.57330879 -449.80487061 74.52812195 C-448.19153546 74.53489079 -446.5782068 74.54338652 -444.96488881 74.55344516 C-440.56073975 74.57584203 -436.156907 74.57353297 -431.75271893 74.56687582 C-426.99195501 74.56399041 -422.23127754 74.58407925 -417.47055054 74.60102844 C-408.15692635 74.63032364 -398.84341059 74.63767984 -389.52974507 74.63645294 C-381.96048232 74.63561955 -374.39125378 74.64149204 -366.8219986 74.65207863 C-343.01489129 74.68473007 -319.20788938 74.69374764 -295.40076295 74.68498889 C-276.62156247 74.67900141 -257.84262261 74.70943987 -239.06348714 74.75661161 C-219.77147546 74.80469334 -200.47958937 74.82678957 -181.18751645 74.8213008 C-170.36006601 74.81872365 -159.53286558 74.82672501 -148.70546722 74.86237144 C-139.4927361 74.89246416 -130.28038528 74.89828004 -121.06763408 74.87256243 C-116.36768312 74.86012718 -111.66844743 74.85897908 -106.96855545 74.88827133 C-102.66531819 74.91480142 -98.36337821 74.90896405 -94.06018582 74.87744138 C-92.50455486 74.87170968 -90.9488258 74.87777504 -89.39330181 74.8968974 C-79.62771997 75.13857475 -79.62771997 75.13857475 -71.23823071 70.65729141 C-70.12938602 69.46490399 -69.04805371 68.24615717 -68 67 C-66.84291 65.86210937 -65.67773792 64.73231913 -64.50111389 63.61463928 C-63.31725937 62.43063919 -62.13608396 61.24395566 -60.95727539 60.05493164 C-60.30422424 59.40042023 -59.6511731 58.74590881 -58.97833252 58.07156372 C-57.57662827 56.66608555 -56.17607913 55.25945457 -54.77659798 53.85176277 C-52.56436054 51.62666701 -50.34893086 49.40479363 -48.13267517 47.18370056 C-43.43978913 42.47944766 -38.75087519 37.77124797 -34.0625 33.0625 C-28.60399114 27.58040688 -23.14387539 22.09993426 -17.67956352 16.6236248 C-15.49210208 14.42965989 -13.30766005 12.23271816 -11.12330627 10.03565979 C-9.79467162 8.70339599 -8.46589826 7.37127048 -7.13696289 6.03930664 C-6.52662704 5.42380447 -5.9162912 4.80830231 -5.28746033 4.17414856 C-1.11384327 0 -1.11384327 0 0 0 Z " fill="#E54756" transform="translate(495,401)"/>
<path d="M0 0 C8.00387197 4.9422816 12.19675917 10.48090251 15.14453125 19.32421875 C15.77529635 27.77889715 14.94318456 35.71467079 13.4206543 44.00048828 C12.43489448 49.39580853 11.69953137 54.78307286 11.06469727 60.23071289 C8.30025255 83.65773077 8.30025255 83.65773077 -0.02734375 90.953125 C-7.06122664 96.22853717 -14.27335119 96.18839031 -22.85546875 95.32421875 C-29.52912085 93.62372086 -34.09376838 88.92675121 -37.85546875 83.32421875 C-41.84541953 75.34431719 -42.91888672 65.42562446 -42.8762207 56.61132812 C-42.87172661 55.4044635 -42.87172661 55.4044635 -42.86714172 54.17321777 C-42.86328964 53.5630481 -42.85943756 52.95287842 -42.85546875 52.32421875 C-44.04100342 52.35040283 -45.22653809 52.37658691 -46.44799805 52.40356445 C-50.85535741 52.49420896 -55.26263475 52.55151963 -59.6706543 52.59887695 C-61.57671982 52.62398874 -63.48268934 52.6580852 -65.38842773 52.70141602 C-68.13158873 52.76221619 -70.87347461 52.7904612 -73.6171875 52.8125 C-74.89090462 52.85120964 -74.89090462 52.85120964 -76.19035339 52.89070129 C-80.54256511 52.89275468 -82.30650134 52.74570358 -85.86645508 50.01245117 C-88.37186897 46.62628297 -88.93058328 44.53063264 -88.85546875 40.32421875 C-87.08905703 37.52232429 -85.82497053 35.80896964 -82.85546875 34.32421875 C-80.15891429 34.167451 -77.48416898 34.0658556 -74.78515625 34.0078125 C-73.98892853 33.9870314 -73.19270081 33.96625031 -72.37234497 33.94483948 C-69.8251419 33.87937726 -67.2778345 33.8204746 -64.73046875 33.76171875 C-63.00519748 33.71853035 -61.27993682 33.67491596 -59.5546875 33.63085938 C-55.3217219 33.5236993 -51.08865122 33.42242252 -46.85546875 33.32421875 C-46.87359619 32.37667725 -46.89172363 31.42913574 -46.91040039 30.45288086 C-46.92449951 29.2025708 -46.93859863 27.95226074 -46.953125 26.6640625 C-46.97125244 25.427771 -46.98937988 24.19147949 -47.00805664 22.91772461 C-46.71186149 15.94221036 -44.32320536 10.55560186 -39.60546875 5.44921875 C-29.34922663 -3.92286456 -12.52505506 -6.08115961 0 0 Z " fill="#020101" transform="translate(271.85546875,2.67578125)"/>
<path d="M0 0 C0.70404968 -0.00241196 1.40809937 -0.00482391 2.13348389 -0.00730896 C3.61948285 -0.00633265 5.10551916 0.00700982 6.59130859 0.03198242 C8.83950861 0.06610473 11.08372895 0.05268282 13.33203125 0.03320312 C21.11259305 0.04093454 27.81929868 0.43573285 34.609375 4.62890625 C35.80626953 5.31533203 35.80626953 5.31533203 37.02734375 6.015625 C42.18336014 9.80580923 45.51326185 14.04432832 48.609375 19.62890625 C48.95097656 20.22058594 49.29257812 20.81226563 49.64453125 21.421875 C53.52287877 29.59346304 52.77187965 41.2663923 49.984375 49.62890625 C46.47293829 57.81816598 41.31286315 64.04845384 33.609375 68.62890625 C32.949375 68.62890625 32.289375 68.62890625 31.609375 68.62890625 C34.66395384 73.35734332 37.81089316 77.96531698 41.2578125 82.41796875 C41.87011719 83.21460938 42.48242188 84.01125 43.11328125 84.83203125 C44.3732454 86.46288255 45.64434896 88.0851813 46.92578125 89.69921875 C49.80512794 93.48104723 51.49466654 95.77871414 52.140625 100.56640625 C51.50684792 104.2199447 50.52061827 105.4026614 47.609375 107.62890625 C44.79608782 109.03554984 42.72248905 108.90012452 39.609375 108.62890625 C37.765625 107.328125 37.765625 107.328125 36.109375 105.31640625 C35.44292969 104.50816406 34.77648437 103.69992187 34.08984375 102.8671875 C29.57908811 97.04358571 25.21383418 91.1074024 20.87890625 85.15234375 C20.3163916 84.38889648 19.75387695 83.62544922 19.17431641 82.83886719 C17.609375 80.62890625 17.609375 80.62890625 16.35302734 78.52050781 C14.76023078 75.91217874 13.52320869 73.91395137 10.52270508 72.97802734 C8.06121808 72.61924157 8.06121808 72.61924157 4.609375 72.62890625 C4.63555908 73.5418042 4.66174316 74.45470215 4.6887207 75.39526367 C4.77416042 78.79662969 4.83672499 82.19684883 4.8840332 85.59887695 C4.90911144 87.0684615 4.94318356 88.53792212 4.98657227 90.00708008 C5.04752999 92.12482306 5.07564816 94.24091201 5.09765625 96.359375 C5.12384033 97.63192139 5.15002441 98.90446777 5.17700195 100.21557617 C4.45808029 104.53869176 3.02761071 105.97310691 -0.390625 108.62890625 C-3.890625 109.31640625 -3.890625 109.31640625 -7.390625 108.62890625 C-10.9748693 105.35175862 -12.65567222 103.13913716 -13.02554321 98.25852966 C-13.05507458 96.54687071 -13.05733956 94.83460259 -13.03759766 93.12280273 C-13.04635925 92.18386169 -13.05512085 91.24492065 -13.06414795 90.27752686 C-13.08609307 87.18454309 -13.07160734 84.09299741 -13.0546875 81 C-13.05805674 78.84578681 -13.06291026 76.69157547 -13.06918335 74.53736877 C-13.07654784 70.02741355 -13.06586134 65.51795415 -13.04248047 61.00805664 C-13.0139763 55.22842983 -13.03041046 49.44996307 -13.06034279 43.67037868 C-13.07841229 39.22393556 -13.07265951 34.77776741 -13.05970383 30.33131599 C-13.05636977 28.20026576 -13.06045686 26.06919051 -13.07210159 23.93816948 C-13.08480607 20.95997868 -13.06543888 17.98366616 -13.03759766 15.00561523 C-13.04771881 14.12599625 -13.05783997 13.24637726 -13.06826782 12.34010315 C-12.99261755 7.97048935 -12.79662918 6.16102218 -10.06607056 2.58230591 C-6.54860584 0.01413016 -4.33097317 -0.00241744 0 0 Z " fill="#030302" transform="translate(360.390625,227.37109375)"/>
<path d="M0 0 C0 51.81 0 103.62 0 157 C-13.2 157 -26.4 157 -40 157 C-40 148.75 -40 140.5 -40 132 C-37.03 131.01 -37.03 131.01 -34 130 C-32.01929692 127.29858499 -31.75983916 125.06572157 -31.82919312 121.77210999 C-31.84115219 120.93556885 -31.85311127 120.09902771 -31.86543274 119.23713684 C-31.88840927 118.32751694 -31.9113858 117.41789703 -31.93505859 116.48071289 C-31.96750779 114.48088646 -31.99958456 112.48105397 -32.03134155 110.48121643 C-32.05148693 109.4213962 -32.07163231 108.36157597 -32.09238815 107.26963997 C-32.18808597 101.6404192 -32.21396956 96.010723 -32.25 90.38085938 C-32.297648 83.22347902 -32.36631151 76.06872764 -32.52441406 68.9128418 C-32.65047159 63.12368176 -32.69726985 57.33850524 -32.69234085 51.54803276 C-32.70462922 49.35067711 -32.74525862 47.15327707 -32.81574631 44.9570179 C-33.33072411 28.23388776 -33.33072411 28.23388776 -29.42113304 22.80931664 C-25.66683559 18.93271123 -21.43582687 15.96299518 -16.84436989 13.16001892 C-14.50063162 11.68592159 -12.46121512 9.95977055 -10.41015625 8.10546875 C-9.83458984 7.60595703 -9.25902344 7.10644531 -8.66601562 6.59179688 C-7.87227539 5.89666992 -7.87227539 5.89666992 -7.0625 5.1875 C-1.13299875 0 -1.13299875 0 0 0 Z " fill="#FD6C79" transform="translate(495,215)"/>
<path d="M0 0 C4.09117279 3.39640864 5.86599612 6.37432269 7.48046875 11.39453125 C7.69111969 12.03471191 7.90177063 12.67489258 8.11880493 13.33447266 C8.82348344 15.48923314 9.5057547 17.65038341 10.1875 19.8125 C10.6852893 21.35738689 11.18426947 22.90189047 11.68432617 24.44604492 C12.81239412 27.93691664 13.93084855 31.4307317 15.04589844 34.92578125 C16.85030442 40.56083127 18.70408475 46.17893812 20.56407166 51.79585266 C22.03293174 56.23234264 23.48982753 60.67273168 24.94358158 65.11419201 C25.97832909 68.27455376 27.01860036 71.43290686 28.06698608 74.58877563 C29.25293938 78.16536994 30.41961577 81.74772899 31.58203125 85.33203125 C31.94285797 86.40670654 32.30368469 87.48138184 32.67544556 88.58862305 C34.46098192 94.16265371 35.6587783 98.29786031 34 104 C31.41196019 106.88381579 29.80470451 107.8491179 26 108.5625 C21.8500049 107.78437592 20.56457128 106.32701139 18 103 C15.69577934 98.42842621 15 95.20407686 15 90 C3.12 90.33 -8.76 90.66 -21 91 C-22.65 95.62 -24.3 100.24 -26 105 C-30 108 -30 108 -32.9375 108.4375 C-36.84148421 107.87978797 -38.36849493 106.93224851 -41 104 C-42.17798096 98.882148 -41.89234207 95.42988112 -40.23681641 90.48339844 C-39.82533356 89.22968445 -39.41385071 87.97597046 -38.98989868 86.68426514 C-38.52741441 85.32586814 -38.06462702 83.96757431 -37.6015625 82.609375 C-37.1271498 81.1823362 -36.65406205 79.75485632 -36.18222046 78.32696533 C-34.93293589 74.55831027 -33.66586531 70.7958735 -32.39489746 67.03448486 C-31.13938953 63.30906817 -29.90031161 59.57820572 -28.66015625 55.84765625 C-27.20029282 51.45916734 -25.73696429 47.07195283 -24.25811768 42.68981934 C-21.92597127 35.77842085 -19.6227598 28.86123494 -17.40527344 21.91210938 C-17.00150482 20.65972473 -16.59773621 19.40734009 -16.18173218 18.11700439 C-15.43009538 15.78000904 -14.68891385 13.43961536 -13.96011353 11.09539795 C-13.62700165 10.06650452 -13.29388977 9.03761108 -12.95068359 7.97753906 C-12.66857025 7.08327209 -12.38645691 6.18900513 -12.09579468 5.26763916 C-9.51350444 -0.07615616 -5.60069976 -0.78606312 0 0 Z " fill="#050504" transform="translate(302,228)"/>
<path d="M0 0 C1.08470078 -0.01583633 2.16940155 -0.03167267 3.28697205 -0.04798889 C5.03706322 -0.04054909 5.03706322 -0.04054909 6.82250977 -0.03295898 C8.62740623 -0.04225685 8.62740623 -0.04225685 10.46876526 -0.05174255 C13.01318553 -0.05884593 15.55765223 -0.05565782 18.10205078 -0.04296875 C21.99606909 -0.02911622 25.88767933 -0.06315577 29.78149414 -0.10131836 C32.25349994 -0.10226965 34.72550874 -0.1004102 37.19750977 -0.09545898 C38.36221298 -0.10871719 39.5269162 -0.1219754 40.72691345 -0.13563538 C49.71765728 -0.03205336 49.71765728 -0.03205336 52.81494141 2.88525391 C54.99184956 6.15800827 55.29958524 7.67654473 54.57641602 11.53344727 C52.77647827 14.23335388 51.49264302 16.07533377 48.57641602 17.53344727 C45.51399281 17.62056502 42.47455137 17.64893187 39.41235352 17.63110352 C38.50514557 17.62968857 37.59793762 17.62827362 36.66323853 17.6268158 C33.75926446 17.62120822 30.85536687 17.60865445 27.95141602 17.59594727 C25.98527129 17.59093324 24.01912537 17.58637016 22.05297852 17.58227539 C17.22740436 17.57208626 12.40199601 17.55251233 7.57641602 17.53344727 C7.57641602 26.77344727 7.57641602 36.01344727 7.57641602 45.53344727 C12.94639471 45.41536951 12.94639471 45.41536951 18.31542969 45.26318359 C22.89593698 45.2125492 25.85940049 45.55261734 29.57641602 48.53344727 C31.12666066 51.63393655 30.86633617 54.11238944 30.57641602 57.53344727 C29.16625977 60.24438477 29.16625977 60.24438477 26.57641602 62.53344727 C23.30184639 63.15138352 20.14364599 63.00397719 16.82641602 62.84594727 C12.24766602 62.69125977 12.24766602 62.69125977 7.57641602 62.53344727 C7.57641602 72.10344727 7.57641602 81.67344727 7.57641602 91.53344727 C10.48969727 91.51024414 13.40297852 91.48704102 16.40454102 91.46313477 C19.22761601 91.44753509 22.0506862 91.43539214 24.8737793 91.42358398 C26.8350642 91.41352944 28.79633412 91.39988394 30.75756836 91.38256836 C33.57743019 91.35829613 36.39709374 91.34695868 39.21704102 91.33813477 C40.09322083 91.32781219 40.96940063 91.31748962 41.87213135 91.30685425 C42.69268005 91.30670319 43.51322876 91.30655212 44.35864258 91.30639648 C45.4378598 91.29973465 45.4378598 91.29973465 46.53887939 91.29293823 C48.96783177 91.57964964 50.50989142 92.23083273 52.57641602 93.53344727 C54.90177665 97.02148822 54.91099499 98.4348548 54.57641602 102.53344727 C53.71644253 105.11336773 53.13782257 106.18382392 50.82579041 107.62367249 C48.18747639 108.69075654 46.17987521 108.80687238 43.33642578 108.83984375 C41.76943687 108.86382484 41.76943687 108.86382484 40.17079163 108.88829041 C38.48632179 108.89633446 38.48632179 108.89633446 36.76782227 108.90454102 C35.60895004 108.91356949 34.45007782 108.92259796 33.25608826 108.93190002 C30.80584294 108.94640389 28.35555889 108.95528959 25.90527344 108.95898438 C22.15632028 108.97089199 18.40900677 109.02008942 14.66040039 109.07055664 C12.27954905 109.08001952 9.8986876 109.0872552 7.51782227 109.09204102 C6.39686661 109.11157333 5.27591095 109.13110565 4.12098694 109.15122986 C3.07317551 109.14515213 2.02536407 109.1390744 0.94580078 109.1328125 C-0.43175636 109.14041847 -0.43175636 109.14041847 -1.83714294 109.1481781 C-5.7213663 108.22499763 -7.09913097 106.76304517 -9.42358398 103.53344727 C-10.13643565 100.33094542 -10.09710377 97.2116788 -10.0546875 93.94140625 C-10.0618428 92.9814978 -10.06899811 92.02158936 -10.07637024 91.03259277 C-10.09325846 87.86442257 -10.07385471 84.69766698 -10.05249023 81.52954102 C-10.05331885 79.32666405 -10.05577794 77.12378715 -10.05979919 74.9209137 C-10.0626572 70.306624 -10.04795391 65.69281971 -10.02050781 61.07861328 C-9.98640552 55.16110155 -9.99245013 49.24445671 -10.01117039 43.32690334 C-10.0217328 38.77928935 -10.01280969 34.23187749 -9.99778557 29.6842823 C-9.9925991 27.50217349 -9.99309117 25.32004361 -9.99933052 23.13793755 C-10.0047742 20.09019349 -9.98443475 17.04369583 -9.95703125 13.99609375 C-9.96355713 13.09260696 -9.97008301 12.18912018 -9.97680664 11.258255 C-9.91828165 7.43488494 -9.87386584 5.21326168 -7.72921753 1.97537231 C-4.93563616 0.22828854 -3.28524725 0.0213658 0 0 Z " fill="#030302" transform="translate(194.423583984375,227.466552734375)"/>
<path d="M0 0 C5.42409077 1.62621716 8.44267642 7.47267733 11.1640625 12.06640625 C11.52483383 12.6689624 11.88560516 13.27151855 12.25730896 13.89233398 C13.39859017 15.80045718 14.53001566 17.7141673 15.66015625 19.62890625 C16.79513334 21.54283654 17.93228026 23.45539212 19.07371521 25.36547852 C20.10803524 27.09758135 21.13539698 28.83383376 22.16235352 30.5703125 C23.97579961 33.43632142 25.92392431 36.02950404 28.09765625 38.62890625 C28.51539307 37.92918701 28.93312988 37.22946777 29.36352539 36.50854492 C30.94837381 33.85561321 32.53465011 31.20354165 34.12182617 28.55200195 C35.13241344 26.86277908 36.14142444 25.17261351 37.15039062 23.48242188 C40.36735732 18.11024597 43.60447797 12.75022255 46.90625 7.4296875 C47.44950928 6.55094971 47.99276855 5.67221191 48.55249023 4.7668457 C50.09765625 2.62890625 50.09765625 2.62890625 53.09765625 0.62890625 C57.14006329 0.17974991 59.4211609 0.2690683 63.03515625 2.19140625 C65.09765625 4.62890625 65.09765625 4.62890625 65.42578125 7.8984375 C65.05781437 12.08187049 64.0800932 14.18357701 61.91015625 17.75390625 C61.56283447 18.33374268 61.2155127 18.9135791 60.85766602 19.51098633 C59.62141628 21.56119071 58.3601617 23.59476971 57.09765625 25.62890625 C56.03731217 27.35910037 54.97744281 29.08958549 53.91796875 30.8203125 C51.73636227 34.37073922 49.54677661 37.91594737 47.34375 41.453125 C46.56076538 42.74730347 46.56076538 42.74730347 45.76196289 44.06762695 C44.09765625 46.62890625 44.09765625 46.62890625 42.16577148 48.91479492 C34.79633589 58.22429559 36.16522111 69.28095401 36.28515625 80.56640625 C36.29117417 83.6613027 36.28737957 86.75585094 36.27400208 89.85072327 C36.26852679 91.7661261 36.27571057 93.68161806 36.29716492 95.59690857 C36.29988907 96.46203568 36.30261322 97.32716278 36.30541992 98.21850586 C36.31320969 98.97586533 36.32099945 99.73322479 36.32902527 100.51353455 C36.06179263 102.95680183 35.3702641 104.53672711 34.09765625 106.62890625 C30.87769965 108.92887525 27.97484317 109.03277989 24.09765625 108.62890625 C20.96174055 106.8490622 20.25662889 106.10582418 19.09765625 102.62890625 C19.05673022 101.26595157 19.07420272 99.90074173 19.13037109 98.53833008 C19.15818161 97.71424652 19.18599213 96.89016296 19.21464539 96.04110718 C19.26114983 94.70204819 19.26114983 94.70204819 19.30859375 93.3359375 C19.81132365 70.78086357 20.03411222 54.24120828 5.11767578 36.19775391 C1.68732916 31.8354011 -1.00376541 27.04946565 -3.77734375 22.25390625 C-4.75231417 20.6201426 -5.72872232 18.98723547 -6.70703125 17.35546875 C-9.41636494 12.80878332 -10.37460978 10.10719217 -9.90234375 4.62890625 C-7.37698521 0.52519863 -4.69857463 0.15879874 0 0 Z " fill="#020202" transform="translate(109.90234375,227.37109375)"/>
<path d="M0 0 C1.35117416 0.0001133 1.35117416 0.0001133 2.72964478 0.00022888 C3.70364227 0.00539017 4.67763977 0.01055145 5.68115234 0.01586914 C6.67714447 0.01728409 7.6731366 0.01869904 8.6993103 0.02015686 C11.88860037 0.02576603 15.0778209 0.03832009 18.26708984 0.05102539 C20.425943 0.05603921 22.58479725 0.06060232 24.74365234 0.06469727 C30.04315612 0.07573844 35.34261582 0.09288373 40.64208984 0.11352539 C36.82003538 4.67853686 32.87005979 9.03139284 28.65258789 13.23242188 C27.80512245 14.08251579 27.80512245 14.08251579 26.9405365 14.94978333 C25.09744485 16.79722912 23.25077647 18.64104921 21.40380859 20.48461914 C20.11425924 21.77484282 18.8248583 23.06521486 17.53559875 24.35572815 C14.8467238 27.04607084 12.15606451 29.73461249 9.46411133 32.421875 C6.00598351 35.87427151 2.55241073 39.3311845 -0.89986897 42.78942776 C-3.55479476 45.44795482 -6.21208237 48.10411081 -8.87010765 50.75953865 C-10.14555545 52.03431775 -11.42025637 53.30984455 -12.69420815 54.5861187 C-14.46553221 56.35996583 -16.24000106 58.13060404 -18.01538086 59.90039062 C-18.54470215 60.43173615 -19.07402344 60.96308167 -19.61938477 61.51052856 C-23.24364067 65.11352539 -23.24364067 65.11352539 -24.35791016 65.11352539 C-24.53254985 62.03091083 -24.63885083 58.94956706 -24.73291016 55.86352539 C-24.78318359 54.99083008 -24.83345703 54.11813477 -24.88525391 53.21899414 C-24.94256395 50.7164554 -24.92761636 48.55318179 -24.35791016 46.11352539 C-21.39697266 43.62915039 -21.39697266 43.62915039 -18.35791016 42.11352539 C-17.00858651 39.41487809 -17.19594785 37.24138994 -17.14697266 34.22290039 C-17.11861328 33.03825195 -17.09025391 31.85360352 -17.06103516 30.63305664 C-17.00927864 28.13580473 -16.96491233 25.63838785 -16.92822266 23.14086914 C-16.88181641 21.35616211 -16.88181641 21.35616211 -16.83447266 19.53540039 C-16.81465332 18.44839844 -16.79483398 17.36139648 -16.77441406 16.24145508 C-16.07263771 10.97113933 -13.92471095 7.10981717 -9.79541016 3.80102539 C-9.19599609 3.30989258 -8.59658203 2.81875977 -7.97900391 2.31274414 C-5.17672688 0.23973439 -3.43182288 -0.0095861 0 0 Z " fill="#FDD7AB" transform="translate(441.35791015625,388.886474609375)"/>
<path d="M0 0 C2.68511485 1.79007656 3.96476582 3.01472309 5.625 5.75 C7.05932903 15.56592303 4.99406112 26.34861272 3.76342773 36.11865234 C3.43489411 38.77103842 3.13825186 41.42589222 2.84179688 44.08203125 C2.63214896 45.78409432 2.4206283 47.48592801 2.20703125 49.1875 C2.12346878 49.97398926 2.03990631 50.76047852 1.95381165 51.57080078 C1.25191329 56.76835719 -0.03664431 59.43658942 -4.375 62.75 C-7.9375 63.375 -7.9375 63.375 -11.375 62.75 C-15.6750143 58.68942506 -16.22754184 54.78836746 -16.859375 49.1875 C-16.96469543 48.35976074 -17.07001587 47.53202148 -17.17852783 46.67919922 C-17.39785444 44.92853598 -17.60917495 43.17685344 -17.81298828 41.42431641 C-18.1210193 38.78411936 -18.45470586 36.14819406 -18.79296875 33.51171875 C-21.97201373 8.07455132 -21.97201373 8.07455132 -18.47412109 2.9831543 C-13.32305575 -2.49681717 -6.79467712 -2.51654708 0 0 Z " fill="#E8F2FA" transform="translate(391.375,18.25)"/>
<path d="M0 0 C3.85544798 1.99657127 5.59805092 3.39707638 8 7 C9.11859922 17.00017669 7.38809791 27.44747898 6.13842773 37.36865234 C5.80989411 40.02103842 5.51325186 42.67589222 5.21679688 45.33203125 C5.00714896 47.03409432 4.7956283 48.73592801 4.58203125 50.4375 C4.49846878 51.22398926 4.41490631 52.01047852 4.32881165 52.82080078 C3.62691329 58.01835719 2.33835569 60.68658942 -2 64 C-5.5625 64.625 -5.5625 64.625 -9 64 C-13.3000143 59.93942506 -13.85254184 56.03836746 -14.484375 50.4375 C-14.58969543 49.60976074 -14.69501587 48.78202148 -14.80352783 47.92919922 C-15.02285444 46.17853598 -15.23417495 44.42685344 -15.43798828 42.67431641 C-15.7460193 40.03411936 -16.07970586 37.39819406 -16.41796875 34.76171875 C-19.59724439 9.32270566 -19.59724439 9.32270566 -16.09716797 4.23291016 C-11.48108585 -0.68195446 -6.45929226 -0.84561713 0 0 Z " fill="#E8F2FA" transform="translate(261,17)"/>
<path d="M0 0 C4.2557942 1.57622008 6.651792 3.1312692 9 7 C10.43432903 16.81592303 8.36906112 27.59861272 7.13842773 37.36865234 C6.80989411 40.02103842 6.51325186 42.67589222 6.21679688 45.33203125 C6.00714896 47.03409432 5.7956283 48.73592801 5.58203125 50.4375 C5.49846878 51.22398926 5.41490631 52.01047852 5.32881165 52.82080078 C4.62691329 58.01835719 3.33835569 60.68658942 -1 64 C-4.5625 64.625 -4.5625 64.625 -8 64 C-12.3000143 59.93942506 -12.85254184 56.03836746 -13.484375 50.4375 C-13.58969543 49.60976074 -13.69501587 48.78202148 -13.80352783 47.92919922 C-14.02285444 46.17853598 -14.23417495 44.42685344 -14.43798828 42.67431641 C-14.7460193 40.03411936 -15.07970586 37.39819406 -15.41796875 34.76171875 C-18.60621361 9.21397011 -18.60621361 9.21397011 -14.6875 3.8125 C-9.29325604 0.17452151 -6.44111502 -0.71567945 0 0 Z " fill="#E9F2FA" transform="translate(132,17)"/>
<path d="M0 0 C18.70909091 0 18.70909091 0 24.84375 5.71875 C29.73765291 11.16667966 30.41876233 15.66622814 30.33984375 22.91796875 C29.82792588 27.56053424 28.23096989 30.65622817 25 34 C16.7818401 40.16811564 10.99185099 39 0 39 C0 26.13 0 13.26 0 0 Z " fill="#F6EADC" transform="translate(365,244)"/>
<path d="M0 0 C2.48978051 2.08707166 3.86698108 3.27982239 4.4675293 6.53125 C4.21320304 15.87447429 3.3061822 25.09781058 2.13842773 34.36865234 C1.80989411 37.02103842 1.51325186 39.67589222 1.21679688 42.33203125 C1.00714896 44.03409432 0.7956283 45.73592801 0.58203125 47.4375 C0.45668755 48.61723389 0.45668755 48.61723389 0.32881165 49.82080078 C-0.37560158 55.03697985 -1.72656813 57.59175704 -6 61 C-6.33 61 -6.66 61 -7 61 C-13.20987268 15.88345827 -13.20987268 15.88345827 -9.1328125 8.71875 C-6.9702003 5.96201357 -4.88786483 3.97590751 -2 2 C-1.34 2 -0.68 2 0 2 C0 1.34 0 0.68 0 0 Z " fill="#C7DFF5" transform="translate(393,20)"/>
<path d="M0 0 C2.48978051 2.08707166 3.86698108 3.27982239 4.4675293 6.53125 C4.21320304 15.87447429 3.3061822 25.09781058 2.13842773 34.36865234 C1.80989411 37.02103842 1.51325186 39.67589222 1.21679688 42.33203125 C1.00714896 44.03409432 0.7956283 45.73592801 0.58203125 47.4375 C0.45668755 48.61723389 0.45668755 48.61723389 0.32881165 49.82080078 C-0.37560158 55.03697985 -1.72656813 57.59175704 -6 61 C-6.33 61 -6.66 61 -7 61 C-13.20987268 15.88345827 -13.20987268 15.88345827 -9.1328125 8.71875 C-6.9702003 5.96201357 -4.88786483 3.97590751 -2 2 C-1.34 2 -0.68 2 0 2 C0 1.34 0 0.68 0 0 Z " fill="#C7DFF5" transform="translate(137,20)"/>
<path d="M0 0 C2.48978051 2.08707166 3.86698108 3.27982239 4.4675293 6.53125 C4.21320304 15.87447429 3.3061822 25.09781058 2.13842773 34.36865234 C1.80989411 37.02103842 1.51325186 39.67589222 1.21679688 42.33203125 C1.00714896 44.03409432 0.7956283 45.73592801 0.58203125 47.4375 C0.45668755 48.61723389 0.45668755 48.61723389 0.32881165 49.82080078 C-0.37560158 55.03697985 -1.72656813 57.59175704 -6 61 C-6.33 61 -6.66 61 -7 61 C-13.20987268 15.88345827 -13.20987268 15.88345827 -9.1328125 8.71875 C-6.9702003 5.96201357 -4.88786483 3.97590751 -2 2 C-1.34 2 -0.68 2 0 2 C0 1.34 0 0.68 0 0 Z " fill="#C7DFF5" transform="translate(265,20)"/>
<path d="M0 0 C2.60040721 2.60040721 3.29931849 5.4484935 4.3828125 8.87109375 C4.60194305 9.54922623 4.82107361 10.2273587 5.04684448 10.92604065 C5.50863241 12.35998276 5.96738975 13.79490386 6.42333984 15.23071289 C7.12195569 17.42792537 7.8316926 19.62131064 8.54296875 21.81445312 C8.99025155 23.20811905 9.43688787 24.60199266 9.8828125 25.99609375 C10.09527618 26.65242294 10.30773987 27.30875214 10.52664185 27.98497009 C11.41046167 30.78561637 12 33.04149569 12 36 C4.41 36 -3.18 36 -11 36 C-9.7702137 30.46596164 -8.6239721 25.5023175 -6.8359375 20.21484375 C-6.43632812 19.02568359 -6.03671875 17.83652344 -5.625 16.61132812 C-5.2125 15.39896484 -4.8 14.18660156 -4.375 12.9375 C-3.95476562 11.69033203 -3.53453125 10.44316406 -3.1015625 9.15820312 C-2.07181153 6.10405535 -1.03786449 3.05139815 0 0 Z " fill="#F5E9DB" transform="translate(298,264)"/>
<path d="M0 0 C11.55 0 23.1 0 35 0 C35 0.66 35 1.32 35 2 C9.23623663 9.73801964 9.23623663 9.73801964 -3 12 C-2.51855059 7.18550592 -2.1991413 4.39828259 0 0 Z " fill="#FCF0E1" transform="translate(281,318)"/>
</svg>
